<svg xmlns="http://www.w3.org/2000/svg" width="59.682" height="59.685" viewBox="0 0 59.682 59.685">
  <g id="Icons" transform="translate(-8 -7.999)">
    <g id="Grupo_1012221" data-name="Grupo 1012221" transform="translate(8 7.999)">
      <path id="Trazado_725917" data-name="Trazado 725917" d="M65.944,48.349l-2.5,1.243a2.5,2.5,0,0,0-1.368,2.226v8.405c0,6.926-9.139,5.11-16.164,3.867a1.254,1.254,0,0,0-1.455,1.33l.211,2.263H19.8V56.506a12.894,12.894,0,0,0-2.487-7.448,26.939,26.939,0,0,1-4.974-16.189,24.868,24.868,0,1,1,49.735,0v4.389a2.455,2.455,0,0,0,.261,1.107l4.153,8.318a1.241,1.241,0,0,1-.547,1.666Z" transform="translate(-6.943 -7.999)" fill="#364d59"/>
      <path id="Trazado_725918" data-name="Trazado 725918" d="M41.286,41.538a1.24,1.24,0,1,1-1.753,1.753l-1.666-1.666a18.606,18.606,0,0,1-24.01.46,28.371,28.371,0,0,1-1.517-9.512A24.815,24.815,0,0,1,28.74,9.21,18.638,18.638,0,0,1,39.62,39.872Z" transform="translate(-6.944 -7.704)" fill="#d2aa82"/>
      <path id="Trazado_725921" data-name="Trazado 725921" d="M40.676,38.918a18.694,18.694,0,1,0-1.758,1.758l1.667,1.667a1.243,1.243,0,0,0,1.758-1.758Z" transform="translate(-8 -7.999)" fill="#00a0c8"/>
      <path id="Trazado_725922" data-name="Trazado 725922" d="M12,18.243V33.164a1.244,1.244,0,0,0,1.243,1.243H23.19a2.487,2.487,0,0,0,4.974,0h9.947a1.244,1.244,0,0,0,1.243-1.243V18.243A1.244,1.244,0,0,0,38.111,17H13.243A1.244,1.244,0,0,0,12,18.243Z" transform="translate(-7.026 -5.808)" fill="#0082aa"/>
      <path id="Trazado_725923" data-name="Trazado 725923" d="M12,17.243V32.164a1.244,1.244,0,0,0,1.243,1.243H23.19a2.487,2.487,0,0,0,4.974,0h9.947a1.244,1.244,0,0,0,1.243-1.243V17.243A1.244,1.244,0,0,0,38.111,16H13.243A1.244,1.244,0,0,0,12,17.243Z" transform="translate(-7.026 -6.052)" fill="#fab400"/>
      <path id="Trazado_725924" data-name="Trazado 725924" d="M14,22v7.46A1.244,1.244,0,0,0,15.243,30.7h8.7A1.244,1.244,0,0,0,25.19,29.46,1.244,1.244,0,0,0,26.434,30.7h8.7a1.244,1.244,0,0,0,1.243-1.243V22Z" transform="translate(-6.54 -4.592)" fill="#dc9600"/>
      <path id="Trazado_725925" data-name="Trazado 725925" d="M14,21v7.46A1.244,1.244,0,0,0,15.243,29.7h8.7A1.244,1.244,0,0,0,25.19,28.46V21Z" transform="translate(-6.54 -4.835)" fill="#d2d2d2"/>
      <path id="Trazado_725926" data-name="Trazado 725926" d="M34.19,21v7.46A1.244,1.244,0,0,1,32.947,29.7h-8.7A1.244,1.244,0,0,1,23,28.46V21Z" transform="translate(-4.349 -4.835)" fill="#b4b4b4"/>
      <path id="Trazado_725927" data-name="Trazado 725927" d="M23.947,13a1.244,1.244,0,0,1,1.243,1.243V30.407a1.247,1.247,0,0,0-1.243-1.243h-8.7A1.244,1.244,0,0,1,14,27.921V14.243A1.244,1.244,0,0,1,15.243,13Z" transform="translate(-6.54 -6.782)" fill="#f0f0f0"/>
      <path id="Trazado_725928" data-name="Trazado 725928" d="M20.974,18.987h-3.73a1.243,1.243,0,1,1,0-2.487h3.73a1.243,1.243,0,1,1,0,2.487Z" transform="translate(-6.053 -5.93)" fill="#0a5078"/>
      <path id="Trazado_725929" data-name="Trazado 725929" d="M20.974,22.987h-3.73a1.243,1.243,0,1,1,0-2.487h3.73a1.243,1.243,0,1,1,0,2.487Z" transform="translate(-6.053 -4.957)" fill="#0a5078"/>
      <path id="Trazado_725930" data-name="Trazado 725930" d="M24.243,13A1.244,1.244,0,0,0,23,14.243V30.407a1.247,1.247,0,0,1,1.243-1.243h8.7a1.244,1.244,0,0,0,1.243-1.243V14.243A1.244,1.244,0,0,0,32.947,13Z" transform="translate(-4.349 -6.782)" fill="#d2d2d2"/>
      <g id="Grupo_1012220" data-name="Grupo 1012220" transform="translate(21.137 10.57)">
        <path id="Trazado_725931" data-name="Trazado 725931" d="M29.974,18.987h-3.73a1.243,1.243,0,1,1,0-2.487h3.73a1.243,1.243,0,1,1,0,2.487Z" transform="translate(-25 -16.5)" fill="#0a5078"/>
        <path id="Trazado_725932" data-name="Trazado 725932" d="M29.974,22.987h-3.73a1.243,1.243,0,1,1,0-2.487h3.73a1.243,1.243,0,1,1,0,2.487Z" transform="translate(-25 -15.526)" fill="#0a5078"/>
      </g>
    </g>
  </g>
</svg>
