<svg id="Grupo_944838" data-name="Grupo 944838" xmlns="http://www.w3.org/2000/svg" xmlns:xlink="http://www.w3.org/1999/xlink" width="125.134" height="125.134" viewBox="0 0 125.134 125.134">
  <defs>
    <filter id="Trazado_688485" x="48.355" y="9.806" width="48.683" height="100.291" filterUnits="userSpaceOnUse">
      <feOffset dy="3" input="SourceAlpha"/>
      <feGaussianBlur stdDeviation="3" result="blur"/>
      <feFlood flood-opacity="0.161"/>
      <feComposite operator="in" in2="blur"/>
      <feComposite in="SourceGraphic"/>
    </filter>
    <filter id="Trazado_688487" x="48.355" y="52.015" width="54.458" height="68.564" filterUnits="userSpaceOnUse">
      <feOffset dy="3" input="SourceAlpha"/>
      <feGaussianBlur stdDeviation="3" result="blur-2"/>
      <feFlood flood-opacity="0.161"/>
      <feComposite operator="in" in2="blur-2"/>
      <feComposite in="SourceGraphic"/>
    </filter>
    <filter id="Trazado_688488" x="21.296" y="59.233" width="46.871" height="61.346" filterUnits="userSpaceOnUse">
      <feOffset dy="3" input="SourceAlpha"/>
      <feGaussianBlur stdDeviation="3" result="blur-3"/>
      <feFlood flood-opacity="0.161"/>
      <feComposite operator="in" in2="blur-3"/>
      <feComposite in="SourceGraphic"/>
    </filter>
    <filter id="Trazado_688489" x="21.296" y="40.467" width="46.871" height="43.984" filterUnits="userSpaceOnUse">
      <feOffset dy="3" input="SourceAlpha"/>
      <feGaussianBlur stdDeviation="3" result="blur-4"/>
      <feFlood flood-opacity="0.161"/>
      <feComposite operator="in" in2="blur-4"/>
      <feComposite in="SourceGraphic"/>
    </filter>
  </defs>
  <circle id="Elipse_4712" data-name="Elipse 4712" cx="62.567" cy="62.567" r="62.567" transform="translate(0 0)" fill="#0098e8"/>
  <g id="_1" data-name="1" transform="translate(30.296 15.806)">
    <g transform="matrix(1, 0, 0, 1, -30.3, -15.81)" filter="url(#Trazado_688485)">
      <path id="Trazado_688485-2" data-name="Trazado 688485" d="M260.749,42.354V7.218a7.218,7.218,0,1,0-14.436,0V34.991L230.066,49.427l1.812,32.864L253.9,62.081V56.645Z" transform="translate(-172.71 15.81)" fill="#ffcaba"/>
    </g>
    <path id="Trazado_688486" data-name="Trazado 688486" d="M230.066,174.931l1.812-14.436a7.218,7.218,0,1,1,14.436,0v14.436Z" transform="translate(-203.007 -125.503)" fill="#ffdccc"/>
    <g transform="matrix(1, 0, 0, 1, -30.3, -15.81)" filter="url(#Trazado_688487)">
      <path id="Trazado_688487-2" data-name="Trazado 688487" d="M238.925,283.508a27.6,27.6,0,0,0,27.6-27.6V240.162a7.218,7.218,0,0,0-7.218-7.218H239.1a7.218,7.218,0,0,0,0,14.436h12.992v5.436a20.21,20.21,0,0,0-20.21,20.21l-1.812,5.172,1.812,5.311Z" transform="translate(-172.71 -174.93)" fill="#ffbaa5"/>
    </g>
    <g transform="matrix(1, 0, 0, 1, -30.3, -15.81)" filter="url(#Trazado_688488)">
      <path id="Trazado_688488-2" data-name="Trazado 688488" d="M80.73,272.8v15.73a27.6,27.6,0,0,0,27.6,27.6H109.6V272.779Z" transform="translate(-50.43 -207.55)" fill="#ffdccc"/>
    </g>
    <g transform="matrix(1, 0, 0, 1, -30.3, -15.81)" filter="url(#Trazado_688489)">
      <path id="Trazado_688489-2" data-name="Trazado 688489" d="M102.384,169.211a7.218,7.218,0,0,0-7.218,7.218V182.2a7.218,7.218,0,1,0-14.436,0v5.774a7.218,7.218,0,1,0,14.436,0,7.218,7.218,0,1,0,14.436,0V176.429A7.218,7.218,0,0,0,102.384,169.211Z" transform="translate(-50.43 -122.74)" fill="#ffece3"/>
    </g>
  </g>
</svg>
