<svg xmlns="http://www.w3.org/2000/svg" xmlns:xlink="http://www.w3.org/1999/xlink" width="505" height="512" viewBox="0 0 505 512">
  <defs>
    <clipPath id="clip-path">
      <rect id="Rectángulo_348053" data-name="Rectángulo 348053" width="505" height="512" rx="26" fill="#fdf0f2" opacity="0.38"/>
    </clipPath>
    <clipPath id="clip-path-2">
      <rect id="Rectángulo_33768" data-name="Rectángulo 33768" width="460.522" height="361.194" fill="none" stroke="#707070" stroke-width="1"/>
    </clipPath>
    <clipPath id="clip-path-3">
      <rect id="Rectángulo_33845" data-name="Rectángulo 33845" width="460.522" height="315.839" transform="translate(0 0)" fill="none"/>
    </clipPath>
    <clipPath id="clip-path-4">
      <rect id="Rectángulo_33841" data-name="Rectángulo 33841" width="397.419" height="325.077" fill="none"/>
    </clipPath>
    <clipPath id="clip-path-5">
      <rect id="Rectángulo_344431" data-name="Rectángulo 344431" width="340.668" height="485.767" fill="#ffa031" opacity="0.53"/>
    </clipPath>
    <clipPath id="clip-path-6">
      <rect id="Rectángulo_344430" data-name="Rectángulo 344430" width="414.799" height="499.962" fill="none"/>
    </clipPath>
  </defs>
  <g id="Grupo_1012529" data-name="Grupo 1012529" transform="translate(-915 -6473)">
    <g id="Enmascarar_grupo_1011267" data-name="Enmascarar grupo 1011267" transform="translate(915 6473)" clip-path="url(#clip-path)">
      <rect id="Rectángulo_348045" data-name="Rectángulo 348045" width="505" height="512" rx="26" fill="#fbe6e9"/>
      <path id="Trazado_725685" data-name="Trazado 725685" d="M447.866,131.863c25.314-67.954-56.143-70.532-102.19-69.192-15.819.46-21.862-1.4-48.965,4.633-58.835,13.1-74.449,10.908-129.5-30.67C128.363,7.294,35.778-8.149,65.355,90.682c13.971,46.686,20.18,106.262-24.274,120.741s-58.265,88.022-14.037,113.326,101.2-7.832,149.881,32.847,78.156-47.4,162.7-28.29,118.342-16.48,127.637-71.771c5.994-35.657-33.719-87.229-19.4-125.672" transform="translate(24.728 75.543)" fill="#f9dce1"/>
      <path id="Trazado_725686" data-name="Trazado 725686" d="M447.866,117.406c25.314-67.954-56.143-70.532-102.19-69.192-15.819.46-21.862-1.4-48.965,4.633-58.835,13.1-74.449,10.908-129.5-30.67C128.363-7.163,35.779-22.605,65.355,76.226c13.971,46.686,20.18,106.262-24.274,120.741s-58.265,88.022-14.037,113.326,101.2-7.832,149.881,32.847,78.156-47.4,162.7-28.29,118.342-16.48,127.637-71.771c5.994-35.657-33.719-87.229-19.4-125.672" transform="translate(252.5 92.872) rotate(-79)" fill="#f9dce1"/>
    </g>
    <g id="Grupo_1012517" data-name="Grupo 1012517" transform="translate(254.656 5355)">
      <g id="Grupo_990643" data-name="Grupo 990643" transform="translate(621 1118)">
        <g id="Grupo_951800" data-name="Grupo 951800" transform="translate(66.559 65.607)">
          <g id="Grupo_951798" data-name="Grupo 951798" transform="translate(0.645 21.438)">
            <g id="Grupo_80327" data-name="Grupo 80327" transform="translate(0 0)" clip-path="url(#clip-path-3)">
              <path id="Trazado_113636" data-name="Trazado 113636" d="M276.622,287.329A138.311,138.311,0,1,1,138.311,149.018,138.311,138.311,0,0,1,276.622,287.329" transform="translate(0 -109.801)" fill="#4db1f0"/>
              <path id="Sustracción_2" data-name="Sustracción 2" d="M100.219,200.443a101.039,101.039,0,0,1-20.2-2.036,99.682,99.682,0,0,1-35.836-15.081A100.5,100.5,0,0,1,7.876,139.231a99.622,99.622,0,0,1-5.84-18.811,101.2,101.2,0,0,1,0-40.4,99.688,99.688,0,0,1,15.08-35.837A100.5,100.5,0,0,1,61.21,7.876a99.708,99.708,0,0,1,18.812-5.84,101.2,101.2,0,0,1,40.4,0,99.686,99.686,0,0,1,35.837,15.08,100.508,100.508,0,0,1,36.31,44.095,99.665,99.665,0,0,1,5.84,18.812,101.2,101.2,0,0,1,0,40.4,99.709,99.709,0,0,1-15.08,35.837,100.523,100.523,0,0,1-44.094,36.31,99.749,99.749,0,0,1-18.813,5.84A101.042,101.042,0,0,1,100.219,200.443Zm0-180.681a80.46,80.46,0,1,0,80.46,80.459A80.549,80.549,0,0,0,100.219,19.762Z" transform="translate(260.08 115.396)" fill="#ffa031" stroke="rgba(0,0,0,0)" stroke-miterlimit="10" stroke-width="1"/>
              <path id="Trazado_113639" data-name="Trazado 113639" d="M649.077,682.37a48.906,48.906,0,1,1-48.906-48.906,48.906,48.906,0,0,1,48.906,48.906" transform="translate(-406.186 -466.753)" fill="#fff"/>
              <path id="Trazado_113640" data-name="Trazado 113640" d="M1473.106,264.733a3.091,3.091,0,1,1-3.091-3.091,3.091,3.091,0,0,1,3.091,3.091" transform="translate(-1080.866 -192.785)" fill="#f9e8dc"/>
              <path id="Trazado_113641" data-name="Trazado 113641" d="M1524.781,264.733a3.091,3.091,0,1,1-3.091-3.091,3.091,3.091,0,0,1,3.091,3.091" transform="translate(-1118.942 -192.785)" fill="#f9e8dc"/>
              <path id="Trazado_113642" data-name="Trazado 113642" d="M1576.456,264.733a3.091,3.091,0,1,1-3.091-3.091,3.091,3.091,0,0,1,3.091,3.091" transform="translate(-1157.017 -192.785)" fill="#f9e8dc"/>
              <path id="Trazado_113643" data-name="Trazado 113643" d="M1628.131,264.733a3.091,3.091,0,1,1-3.091-3.091,3.091,3.091,0,0,1,3.091,3.091" transform="translate(-1195.093 -192.785)" fill="#f9e8dc"/>
              <path id="Trazado_113644" data-name="Trazado 113644" d="M1679.806,264.733a3.091,3.091,0,1,1-3.091-3.091,3.091,3.091,0,0,1,3.091,3.091" transform="translate(-1233.168 -192.785)" fill="#f9e8dc"/>
              <path id="Trazado_113645" data-name="Trazado 113645" d="M1473.106,314.059a3.091,3.091,0,1,1-3.091-3.091,3.091,3.091,0,0,1,3.091,3.091" transform="translate(-1080.866 -229.129)" fill="#f9e8dc"/>
              <path id="Trazado_113646" data-name="Trazado 113646" d="M1524.781,314.059a3.091,3.091,0,1,1-3.091-3.091,3.091,3.091,0,0,1,3.091,3.091" transform="translate(-1118.942 -229.129)" fill="#f9e8dc"/>
              <path id="Trazado_113647" data-name="Trazado 113647" d="M1576.456,314.059a3.091,3.091,0,1,1-3.091-3.091,3.091,3.091,0,0,1,3.091,3.091" transform="translate(-1157.017 -229.129)" fill="#f9e8dc"/>
              <path id="Trazado_113648" data-name="Trazado 113648" d="M1628.131,314.059a3.091,3.091,0,1,1-3.091-3.091,3.091,3.091,0,0,1,3.091,3.091" transform="translate(-1195.093 -229.129)" fill="#f9e8dc"/>
              <path id="Trazado_113649" data-name="Trazado 113649" d="M1679.806,314.059a3.091,3.091,0,1,1-3.091-3.091,3.091,3.091,0,0,1,3.091,3.091" transform="translate(-1233.168 -229.129)" fill="#f9e8dc"/>
              <path id="Trazado_113650" data-name="Trazado 113650" d="M1473.106,363.385a3.091,3.091,0,1,1-3.091-3.091,3.091,3.091,0,0,1,3.091,3.091" transform="translate(-1080.866 -265.474)" fill="#f9e8dc"/>
              <path id="Trazado_113651" data-name="Trazado 113651" d="M1524.781,363.385a3.091,3.091,0,1,1-3.091-3.091,3.091,3.091,0,0,1,3.091,3.091" transform="translate(-1118.942 -265.474)" fill="#f9e8dc"/>
              <path id="Trazado_113652" data-name="Trazado 113652" d="M1576.456,363.385a3.091,3.091,0,1,1-3.091-3.091,3.091,3.091,0,0,1,3.091,3.091" transform="translate(-1157.017 -265.474)" fill="#f9e8dc"/>
              <path id="Trazado_113653" data-name="Trazado 113653" d="M1628.131,363.385a3.091,3.091,0,1,1-3.091-3.091,3.091,3.091,0,0,1,3.091,3.091" transform="translate(-1195.093 -265.474)" fill="#f9e8dc"/>
              <path id="Trazado_113654" data-name="Trazado 113654" d="M1679.806,363.385a3.091,3.091,0,1,1-3.091-3.091,3.091,3.091,0,0,1,3.091,3.091" transform="translate(-1233.168 -265.474)" fill="#f9e8dc"/>
              <path id="Trazado_113655" data-name="Trazado 113655" d="M1473.106,412.712a3.091,3.091,0,1,1-3.091-3.091,3.091,3.091,0,0,1,3.091,3.091" transform="translate(-1080.866 -301.819)" fill="#f9e8dc"/>
              <path id="Trazado_113656" data-name="Trazado 113656" d="M1524.781,412.712a3.091,3.091,0,1,1-3.091-3.091,3.091,3.091,0,0,1,3.091,3.091" transform="translate(-1118.942 -301.819)" fill="#f9e8dc"/>
              <path id="Trazado_113657" data-name="Trazado 113657" d="M1576.456,412.712a3.091,3.091,0,1,1-3.091-3.091,3.091,3.091,0,0,1,3.091,3.091" transform="translate(-1157.017 -301.819)" fill="#f9e8dc"/>
              <path id="Trazado_113658" data-name="Trazado 113658" d="M1628.131,412.712a3.091,3.091,0,1,1-3.091-3.091,3.091,3.091,0,0,1,3.091,3.091" transform="translate(-1195.093 -301.819)" fill="#f9e8dc"/>
              <path id="Trazado_113659" data-name="Trazado 113659" d="M1679.806,412.712a3.091,3.091,0,1,1-3.091-3.091,3.091,3.091,0,0,1,3.091,3.091" transform="translate(-1233.168 -301.819)" fill="#f9e8dc"/>
              <path id="Trazado_113660" data-name="Trazado 113660" d="M1473.106,462.038a3.091,3.091,0,1,1-3.091-3.091,3.091,3.091,0,0,1,3.091,3.091" transform="translate(-1080.866 -338.164)" fill="#f9e8dc"/>
              <path id="Trazado_113661" data-name="Trazado 113661" d="M1524.781,462.038a3.091,3.091,0,1,1-3.091-3.091,3.091,3.091,0,0,1,3.091,3.091" transform="translate(-1118.942 -338.164)" fill="#f9e8dc"/>
              <path id="Trazado_113662" data-name="Trazado 113662" d="M1576.456,462.038a3.091,3.091,0,1,1-3.091-3.091,3.091,3.091,0,0,1,3.091,3.091" transform="translate(-1157.017 -338.164)" fill="#f9e8dc"/>
              <path id="Trazado_113663" data-name="Trazado 113663" d="M1628.131,462.038a3.091,3.091,0,1,1-3.091-3.091,3.091,3.091,0,0,1,3.091,3.091" transform="translate(-1195.093 -338.164)" fill="#f9e8dc"/>
              <path id="Trazado_113664" data-name="Trazado 113664" d="M1679.806,462.038a3.091,3.091,0,1,1-3.091-3.091,3.091,3.091,0,0,1,3.091,3.091" transform="translate(-1233.168 -338.164)" fill="#f9e8dc"/>
              <path id="Trazado_113665" data-name="Trazado 113665" d="M129.658,381.219a3.091,3.091,0,1,1-3.091-3.091,3.091,3.091,0,0,1,3.091,3.091" transform="translate(-90.98 -278.615)" fill="#fff"/>
              <path id="Trazado_113666" data-name="Trazado 113666" d="M181.333,381.219a3.091,3.091,0,1,1-3.091-3.091,3.091,3.091,0,0,1,3.091,3.091" transform="translate(-129.056 -278.615)" fill="#fff"/>
              <path id="Trazado_113667" data-name="Trazado 113667" d="M233.008,381.219a3.091,3.091,0,1,1-3.091-3.091,3.091,3.091,0,0,1,3.091,3.091" transform="translate(-167.131 -278.615)" fill="#fff"/>
              <path id="Trazado_113668" data-name="Trazado 113668" d="M284.683,381.219a3.091,3.091,0,1,1-3.091-3.091,3.091,3.091,0,0,1,3.091,3.091" transform="translate(-205.206 -278.615)" fill="#fff"/>
              <path id="Trazado_113669" data-name="Trazado 113669" d="M336.358,381.219a3.091,3.091,0,1,1-3.091-3.091,3.091,3.091,0,0,1,3.091,3.091" transform="translate(-243.282 -278.615)" fill="#fff"/>
              <path id="Trazado_113670" data-name="Trazado 113670" d="M129.658,430.545a3.091,3.091,0,1,1-3.091-3.091,3.091,3.091,0,0,1,3.091,3.091" transform="translate(-90.98 -314.959)" fill="#fff"/>
              <path id="Trazado_113671" data-name="Trazado 113671" d="M181.333,430.545a3.091,3.091,0,1,1-3.091-3.091,3.091,3.091,0,0,1,3.091,3.091" transform="translate(-129.056 -314.959)" fill="#fff"/>
              <path id="Trazado_113672" data-name="Trazado 113672" d="M233.008,430.545a3.091,3.091,0,1,1-3.091-3.091,3.091,3.091,0,0,1,3.091,3.091" transform="translate(-167.131 -314.959)" fill="#fff"/>
              <path id="Trazado_113673" data-name="Trazado 113673" d="M284.683,430.545a3.091,3.091,0,1,1-3.091-3.091,3.091,3.091,0,0,1,3.091,3.091" transform="translate(-205.206 -314.959)" fill="#fff"/>
              <path id="Trazado_113674" data-name="Trazado 113674" d="M336.358,430.545a3.091,3.091,0,1,1-3.091-3.091,3.091,3.091,0,0,1,3.091,3.091" transform="translate(-243.282 -314.959)" fill="#fff"/>
              <path id="Trazado_113675" data-name="Trazado 113675" d="M129.658,479.871a3.091,3.091,0,1,1-3.091-3.09,3.091,3.091,0,0,1,3.091,3.09" transform="translate(-90.98 -351.305)" fill="#fff"/>
              <path id="Trazado_113676" data-name="Trazado 113676" d="M181.333,479.871a3.091,3.091,0,1,1-3.091-3.09,3.091,3.091,0,0,1,3.091,3.09" transform="translate(-129.056 -351.305)" fill="#fff"/>
              <path id="Trazado_113677" data-name="Trazado 113677" d="M233.008,479.871a3.091,3.091,0,1,1-3.091-3.09,3.091,3.091,0,0,1,3.091,3.09" transform="translate(-167.131 -351.305)" fill="#fff"/>
              <path id="Trazado_113678" data-name="Trazado 113678" d="M284.683,479.871a3.091,3.091,0,1,1-3.091-3.09,3.091,3.091,0,0,1,3.091,3.09" transform="translate(-205.206 -351.305)" fill="#fff"/>
              <path id="Trazado_113679" data-name="Trazado 113679" d="M336.358,479.871a3.091,3.091,0,1,1-3.091-3.09,3.091,3.091,0,0,1,3.091,3.09" transform="translate(-243.282 -351.305)" fill="#fff"/>
              <path id="Trazado_113680" data-name="Trazado 113680" d="M129.658,529.2a3.091,3.091,0,1,1-3.091-3.091,3.091,3.091,0,0,1,3.091,3.091" transform="translate(-90.98 -387.649)" fill="#fff"/>
              <path id="Trazado_113681" data-name="Trazado 113681" d="M181.333,529.2a3.091,3.091,0,1,1-3.091-3.091,3.091,3.091,0,0,1,3.091,3.091" transform="translate(-129.056 -387.649)" fill="#fff"/>
              <path id="Trazado_113682" data-name="Trazado 113682" d="M233.008,529.2a3.091,3.091,0,1,1-3.091-3.091,3.091,3.091,0,0,1,3.091,3.091" transform="translate(-167.131 -387.649)" fill="#fff"/>
              <path id="Trazado_113683" data-name="Trazado 113683" d="M284.683,529.2a3.091,3.091,0,1,1-3.091-3.091,3.091,3.091,0,0,1,3.091,3.091" transform="translate(-205.206 -387.649)" fill="#fff"/>
              <path id="Trazado_113684" data-name="Trazado 113684" d="M336.358,529.2a3.091,3.091,0,1,1-3.091-3.091,3.091,3.091,0,0,1,3.091,3.091" transform="translate(-243.282 -387.649)" fill="#fff"/>
              <path id="Trazado_113685" data-name="Trazado 113685" d="M129.658,578.524a3.091,3.091,0,1,1-3.091-3.091,3.091,3.091,0,0,1,3.091,3.091" transform="translate(-90.98 -423.994)" fill="#fff"/>
              <path id="Trazado_113686" data-name="Trazado 113686" d="M181.333,578.524a3.091,3.091,0,1,1-3.091-3.091,3.091,3.091,0,0,1,3.091,3.091" transform="translate(-129.056 -423.994)" fill="#fff"/>
              <path id="Trazado_113687" data-name="Trazado 113687" d="M233.008,578.524a3.091,3.091,0,1,1-3.091-3.091,3.091,3.091,0,0,1,3.091,3.091" transform="translate(-167.131 -423.994)" fill="#fff"/>
              <path id="Trazado_113688" data-name="Trazado 113688" d="M284.683,578.524a3.091,3.091,0,1,1-3.091-3.091,3.091,3.091,0,0,1,3.091,3.091" transform="translate(-205.206 -423.994)" fill="#fff"/>
              <path id="Trazado_113689" data-name="Trazado 113689" d="M336.358,578.524a3.091,3.091,0,1,1-3.091-3.091,3.091,3.091,0,0,1,3.091,3.091" transform="translate(-243.282 -423.994)" fill="#fff"/>
              <rect id="Rectángulo_33843" data-name="Rectángulo 33843" width="54.296" height="12.701" transform="translate(227.709 50.807)" fill="#f9e8dc"/>
              <rect id="Rectángulo_33844" data-name="Rectángulo 33844" width="54.858" height="23.333" transform="translate(25.477 17.249)" fill="#f9e8dc"/>
              <path id="Trazado_113690" data-name="Trazado 113690" d="M178.721,0h36.067a6.207,6.207,0,0,1,6.207,6.207V18.581a6.207,6.207,0,0,1-6.207,6.207H178.721a6.207,6.207,0,0,1-6.207-6.207V6.209A6.207,6.207,0,0,1,178.721,0" transform="translate(-127.113 -0.002)" fill="#eb9ba8"/>
              <path id="Trazado_113691" data-name="Trazado 113691" d="M211.7,38.65a3.015,3.015,0,1,1-3.015-3.015A3.015,3.015,0,0,1,211.7,38.65" transform="translate(-151.545 -26.257)" fill="#fff"/>
              <path id="Trazado_113692" data-name="Trazado 113692" d="M259.195,38.65a3.015,3.015,0,1,1-3.015-3.015,3.015,3.015,0,0,1,3.015,3.015" transform="translate(-186.538 -26.257)" fill="#fff"/>
              <path id="Trazado_113693" data-name="Trazado 113693" d="M306.687,38.65a3.015,3.015,0,1,1-3.015-3.015,3.015,3.015,0,0,1,3.015,3.015" transform="translate(-221.532 -26.257)" fill="#fff"/>
            </g>
          </g>
          <g id="Grupo_951799" data-name="Grupo 951799" transform="translate(48.942 48.868)" opacity="0.251">
            <g id="Grupo_80323" data-name="Grupo 80323" transform="translate(0 0)" clip-path="url(#clip-path-4)">
              <path id="Trazado_113615" data-name="Trazado 113615" d="M253.946,319.962c-3.754-.285-7.584-.448-11.507-.419-20.755.154-41.056,5.739-61.939,5.523-44.248-.457-89.788-5.043-128.031-33.383C-32.256,228.9-4.484,94.4,65.752,39.181,103.072,9.841,149.558.87,194.1.04c57.332-1.068,130.87,17.066,171.947,65.33C394.661,99,401.777,177.342,395.087,221.734c-5.325,35.335-25.311,68.658-50.559,88.054-31.486,24.189-58.182,12.633-90.582,10.174" transform="translate(0 0.004)" fill="#f1c6bd"/>
            </g>
          </g>
        </g>
        <g id="Enmascarar_grupo_95" data-name="Enmascarar grupo 95" transform="translate(126.809 26.232)" clip-path="url(#clip-path-5)">
          <g id="Grupo_951832" data-name="Grupo 951832" transform="translate(0 6.309)">
            <g id="Grupo_951831" data-name="Grupo 951831" clip-path="url(#clip-path-6)">
              <path id="Trazado_696624" data-name="Trazado 696624" d="M342.8,319.546s39.866,14.706,45.516,62.738l30.59,137.18c-19.19,10.429-53.185-24.139-61.221-44.447-16.011-40.461-34.868-105.966-14.884-155.471" transform="translate(-103.21 -98.694)" fill="#d67913"/>
              <path id="Trazado_696625" data-name="Trazado 696625" d="M106.523,319.546s-39.865,14.706-45.516,62.738l-30.59,137.18c19.19,10.429,53.185-24.139,61.221-44.447,16.011-40.461,34.868-105.966,14.884-155.471" transform="translate(-9.395 -98.694)" fill="#d67913"/>
              <path id="Trazado_696626" data-name="Trazado 696626" d="M196.386,590.536c38.438,0,73.681-4.484,101.179-11.943Q286.181,444.454,267.9,311.03a149.558,149.558,0,0,0-132.3-4.508l-9.977,4.508L121.709,341.2C108.466,416.8,98.347,500.167,91.393,577.525c28.014,8.1,64.754,13.011,104.993,13.011" transform="translate(-28.228 -90.574)" fill="#f9a21b"/>
              <path id="Trazado_696628" data-name="Trazado 696628" d="M267.331,296.3c0,8.249-18.614,14.937-41.576,14.937s-41.575-6.688-41.575-14.937,18.614-14.937,41.575-14.937,41.576,6.687,41.576,14.937" transform="translate(-56.886 -86.903)" fill="#ffca7b"/>
              <path id="Trazado_696629" data-name="Trazado 696629" d="M249.514,212.854q-19.289,1.05-39.178.843c-1.122,22.463-3.653,40.849-7.338,56.1q-.326,1.351-.667,2.671c19.871,4.971,41.639,4.882,59.837.248-3.557-16.028-6.927-35.55-10.066-59.755-.86-.03-1.723-.066-2.587-.1" transform="translate(-62.491 -65.742)" fill="#fcba89"/>
              <path id="Trazado_696630" data-name="Trazado 696630" d="M251.5,212.854q-19.289,1.05-39.178.843a360.588,360.588,0,0,1-3.568,36.678c15.217,1.707,31.463.044,44.874-5.912a37.7,37.7,0,0,0,4.689-2.49c-1.44-8.806-2.858-18.438-4.23-29.015-.86-.03-1.723-.066-2.587-.1" transform="translate(-64.475 -65.742)" fill="#f2ae7a"/>
              <path id="Trazado_696631" data-name="Trazado 696631" d="M162.118,169.57c-.14-.2-.282-.406-.415-.615-1.635-2.588-14.69-22.41-26.042-14.166-10.3,7.477-7.773,27.433,10.825,32.808A13.412,13.412,0,0,0,163.672,175.5a9.563,9.563,0,0,0-1.554-5.934" transform="translate(-40.045 -47.192)" fill="#fcba89"/>
              <path id="Trazado_696632" data-name="Trazado 696632" d="M156.611,190.617a4.832,4.832,0,0,0,4.534-6.88c-2.661-5.683-7.974-13.154-16.211-7.976-9.958,6.259,1.965,14.571,11.678,14.857" transform="translate(-43.604 -53.747)" fill="#f2ae7a"/>
              <path id="Trazado_696633" data-name="Trazado 696633" d="M143.712,179.177l2.113-.82a10.822,10.822,0,0,1,14.683,8.841c.039.353.045.558.045.558A18.379,18.379,0,0,0,158.565,185c-3.747-2.53-9.092.932-9.092.932.833-3.566,2.747-4.559,4.255-4.749a18.664,18.664,0,0,0-10.017-2" transform="translate(-44.387 -54.858)" fill="#12263f"/>
              <path id="Trazado_696634" data-name="Trazado 696634" d="M321.92,165.345c.132-.209.268-.415.393-.63,1.541-2.644,13.878-22.922,25.518-15.09,10.556,7.1,8.75,27.137-9.643,33.175a13.413,13.413,0,0,1-17.609-11.47,9.568,9.568,0,0,1,1.341-5.986" transform="translate(-99.001 -45.661)" fill="#fcba89"/>
              <path id="Trazado_696635" data-name="Trazado 696635" d="M334.085,186.14a4.832,4.832,0,0,1-4.777-6.714c2.456-5.774,7.5-13.432,15.915-8.551,10.175,5.9-1.442,14.633-11.138,15.265" transform="translate(-101.588 -52.296)" fill="#f2ae7a"/>
              <path id="Trazado_696636" data-name="Trazado 696636" d="M348.145,174.2,346,173.452a10.822,10.822,0,0,0-14.357,9.36c-.027.355-.025.56-.025.56a18.425,18.425,0,0,1,1.888-2.827c3.654-2.662,9.12.606,9.12.606-.961-3.534-2.91-4.458-4.423-4.593a18.663,18.663,0,0,1,9.939-2.362" transform="translate(-102.424 -53.384)" fill="#12263f"/>
              <path id="Trazado_696637" data-name="Trazado 696637" d="M278.748,113.912c.9,12.441,2.215,57.669-24.276,72.993-30.836,17.837-75.681,6.733-82.083-20.655-2.841-12.151-6.45-31.513-6.167-48.721,2.689-46.122,45.969-59.134,66.656-56.817,33.952,3.8,50.342,32.575,45.87,53.2" transform="translate(-51.334 -18.672)" fill="#fcba89"/>
              <path id="Trazado_696638" data-name="Trazado 696638" d="M191.221,83.6c-4.293-9.988-17.546-6.96-24.723-2.322a32.3,32.3,0,0,0-4.587,3.61c-.023,17.5-1.161,35.1,1.448,52.3a18.409,18.409,0,0,1,.5,2.611,1.49,1.49,0,0,0,.632,1.075q.53,2.163,1.058,4.324a1.468,1.468,0,0,0,2.808,0,95.651,95.651,0,0,0,3.935-20.156c.133-1.61.068-3.268.275-4.864.36-2.776,1.019-3.918,3.223-5.353a42.039,42.039,0,0,0,6.175-4.723c6.437-6.127,13.172-17.387,9.255-26.5" transform="translate(-49.925 -23.767)" fill="#06060d"/>
              <path id="Trazado_696639" data-name="Trazado 696639" d="M295.36,83.6c4.293-9.988,17.546-6.96,24.723-2.322a32.3,32.3,0,0,1,4.587,3.61c.023,17.5,1.161,35.1-1.448,52.3a18.4,18.4,0,0,0-.5,2.611,1.49,1.49,0,0,1-.632,1.075q-.53,2.163-1.058,4.324a1.468,1.468,0,0,1-2.808,0,95.65,95.65,0,0,1-3.935-20.156c-.133-1.61-.068-3.268-.275-4.864-.36-2.776-1.019-3.918-3.224-5.353a42.038,42.038,0,0,1-6.175-4.723c-6.438-6.127-13.172-17.387-9.255-26.5" transform="translate(-90.866 -23.767)" fill="#06060d"/>
              <path id="Trazado_696640" data-name="Trazado 696640" d="M309.774,200.89a26.678,26.678,0,0,0-29.613,33.636,61.628,61.628,0,0,0,9.2-4.336c10.769-6.229,16.942-17.4,20.416-29.3" transform="translate(-86.22 -61.957)" fill="#f2ae7a"/>
              <path id="Trazado_696641" data-name="Trazado 696641" d="M174.1,207.778c-.081,0-.16.013-.241.018.3,1.383.6,2.7.89,3.945,2.878,12.313,13.528,21.332,27.181,25.912a26.666,26.666,0,0,0-27.83-29.875" transform="translate(-53.699 -64.163)" fill="#f2ae7a"/>
              <path id="Trazado_696642" data-name="Trazado 696642" d="M249,173.957l-3.2-.1.577-18.189c.09-2.823-4.3-2.967-4.387-.139l-.643,20.292a2.038,2.038,0,0,0,1.837,2.156,2.235,2.235,0,0,0,.923.219l4.754.151c2.823.09,2.967-4.3.139-4.387" transform="translate(-74.543 -47.402)" fill="#12263f"/>
              <path id="Trazado_696643" data-name="Trazado 696643" d="M292.648,111.3c-6.54-4.932-17.131-8.091-23.374-.826-4.531,5.273-2.809,13.653,3.765,15.585,6.456,3.606,15.289,5.17,21.954,2.451,2.787-1.136,5.17-3.711,5.273-6.832.142-4.343-4.517-8.039-7.618-10.378" transform="translate(-82.385 -32.8)" fill="#1b1a2e"/>
              <path id="Trazado_696644" data-name="Trazado 696644" d="M190.739,118.334c-.1,3.121,2.12,5.843,4.829,7.154,6.479,3.134,15.394,2.134,22.066-1.056,6.682-1.51,8.933-9.764,4.745-15.315-5.769-7.645-16.539-5.164-23.379-.657-3.242,2.137-8.127,5.531-8.26,9.874" transform="translate(-58.91 -32.185)" fill="#1b1a2e"/>
              <path id="Trazado_696645" data-name="Trazado 696645" d="M215.117,154.929c-5.043-8.2-17.055-7.862-21.069,1.147-1.134,2.545,2.628,4.77,3.772,2.2,2.6-5.847,10.032-6.827,13.527-1.147,1.47,2.39,5.249.2,3.771-2.2" transform="translate(-59.868 -46.032)" fill="#12263f"/>
              <path id="Trazado_696646" data-name="Trazado 696646" d="M270.525,154.929c5.043-8.2,17.055-7.862,21.069,1.147,1.134,2.545-2.628,4.77-3.771,2.2-2.6-5.847-10.032-6.827-13.527-1.147-1.47,2.39-5.249.2-3.771-2.2" transform="translate(-83.45 -46.032)" fill="#12263f"/>
              <path id="Trazado_696647" data-name="Trazado 696647" d="M278.164,49.4c8.157-6.278,7-17.745-2.836-22.32,2.073-5.557.742-12.511-5.209-15.9a14.3,14.3,0,0,0-15.108.742C252.983,5.5,246.028.832,238.123,1.308c-3.388.2-7.918,1.354-10.088,3.8a4.177,4.177,0,0,0-.415.563A24.734,24.734,0,0,0,209.4.124,23.08,23.08,0,0,0,192.16,10.4c-4.172-3.371-9.667-5.827-15.507-5.151-4.953.573-9.39,3.423-10.964,7.517a7.216,7.216,0,0,0-6.965,2.364,6.428,6.428,0,0,0-.753,1.077c-5.867-3.089-14.314-5.642-19.5-.254-4.683,4.866-.916,11.425,2.821,16.022-5.727.487-10.98,3.928-12.713,8.787-1.876,5.261,1.107,11.163,6.376,14.064,1.467.809,3,.975,4.528,1.581,2.586,1.023,2.008,2.818,2.391,4.852a10.275,10.275,0,0,0,4.448,6.449A13,13,0,0,0,161.875,66.5c2.644,3.457,7.894,5,12.569,4a11.52,11.52,0,0,0,3.667-1.487c.641-.4,1.534-1.4,2.228-1.527,1.563-.288,2.7.746,3.587,1.584a11.591,11.591,0,0,0,8.028,2.86,22.22,22.22,0,0,0,10.011-2.912c2.158-1.114,4.5-3.1,7.1-1.981,1.808.78,3.237,2.129,5.074,2.917,4.307,1.847,10.956,1.158,12.3-3.055,3.007,2.073,6.392,4,10.332,3.928a9.127,9.127,0,0,0,7.33-3.368c2.29,1.976,5.126,3.816,8.489,3.409a6.193,6.193,0,0,0,5.037-3.273c2.479,1.64,5.48,3.023,8.547,1.935,2.158-.766,3.57-2.472,3.524-4.315,4.5.407,9.14-1.554,11.074-5.253,1.919-3.669.594-7.864-2.613-10.558" transform="translate(-39.539 0)" fill="#1b1a2e"/>
              <path id="Trazado_696648" data-name="Trazado 696648" d="M55.566,471.555a111.442,111.442,0,0,1-14.808-2.879C36.1,467.37,28.886,465.259,22.132,463,14.72,460.518,6.6,466.139,5.061,475.125,1.227,497.562-3.548,534.7,3.98,549.15c13.347,25.618,40.7,23.213,55.047-7.164,6.21-13.154,11.666-35.957,11.033-52.094-.373-9.505-6.645-17.343-14.495-18.337" transform="translate(0 -142.819)" fill="#f9a21b"/>
              <path id="Trazado_696649" data-name="Trazado 696649" d="M63.94,428.151l1.853,28.181s-20.966,26.626-41.825,2.495l9.52-35.159Z" transform="translate(-7.403 -130.854)" fill="#fcba89"/>
              <path id="Trazado_696650" data-name="Trazado 696650" d="M12.731,475.005c-.367-2.019,1.263-4.107,1.493-6.1.276-2.4-.214-4.75-.232-7.126-.028-3.829,2.02-10.427,5.768-12.113.039-.018,4.809-.87,4.847-.885-.708,3.953-3.245,8.854-1.81,11.106,7.306,11.469,27.178,13.576,33.971,2.52a3.02,3.02,0,0,0,1.173-2.42,15.791,15.791,0,0,0,.874-3.9c.034,0,.069.005.1.012,2.927-1.9,8.469,7.014,7.6,9.921-.665,2.227-2.458,3.439-1.693,5.955a13.508,13.508,0,0,1,.993,4.914,11.806,11.806,0,0,1-4.937,8.3c-7.091,5.211-17.847,2.655-25.249,1.2a67.167,67.167,0,0,1-13.5-3.876c-2.839-1.216-8.724-3.805-9.4-7.517" transform="translate(-3.916 -138.61)" fill="#ffca7b"/>
              <path id="Trazado_696651" data-name="Trazado 696651" d="M73.349,339.538c-2.731-6.41-9.6-17.246-18.048-15.063-4.02,1.039-5.7,4.737-4.605,8.574.628,2.208,1.713,4.278,2.371,6.486a41.832,41.832,0,0,1,1.571,8.059,42.531,42.531,0,0,1-1.762,16.715c-1.675,5.305-4.969,10.12-3.9,15.9.3,1.642,2.247,1.54,3.049.473a1.819,1.819,0,0,0,.457-.091c4.788-1.63,8.84-4.77,12.984-7.581,3.577-2.426,7.707-4.735,9.89-8.623,4.155-7.4,1.079-17.6-2.008-24.847" transform="translate(-15.062 -100.128)" fill="#f2ae7a"/>
              <path id="Trazado_696652" data-name="Trazado 696652" d="M148.9,392.634a4.969,4.969,0,0,0-2.634-4.364,9.927,9.927,0,0,0,4.319-4.559c2.62-6.266-4.086-10.26-9.431-11.174a9.8,9.8,0,0,0-3.266-8.086c-4.085-3.818-10.241-3.9-15.5-4.023a161.006,161.006,0,0,0-37.208,3.443c-11.961,2.535-24.823,6.006-35.152,12.761a34.222,34.222,0,0,0-5.474,4.455c-6.022,9.226-9.3,21.172-4.9,31.572,4.3,10.158,14.639,15.731,24.838,18.356a2.359,2.359,0,0,1,.588.243,77.4,77.4,0,0,0,27.394-2.948c6.446-1.781,12.826-3.872,19.134-6.09,6.007-2.111,12.448-4.171,17.916-7.5,3.971-2.418,8.039-6.688,6.544-11.74,0-.011-.008-.021-.011-.031a47.733,47.733,0,0,0,7.794-3.62c2.492-1.472,5.092-3.516,5.054-6.694" transform="translate(-11.621 -111.307)" fill="#fcba89"/>
              <path id="Trazado_696653" data-name="Trazado 696653" d="M113.574,385.822q27.582-4.288,55.4-6.7a17.168,17.168,0,0,0-4.862-1.621,9.573,9.573,0,0,0,.031-1.042q-25.514,2.353-50.843,6.283c-1.957.3-1.7,3.383.272,3.077" transform="translate(-34.579 -116.273)" fill="#d9905b"/>
              <path id="Trazado_696654" data-name="Trazado 696654" d="M124.947,413.445q23.636-8.046,47.722-14.643l-.009-.006a10.078,10.078,0,0,0,4.21-4.332q-26.624,7.116-52.723,16c-1.875.638-1.086,3.626.8,2.984" transform="translate(-38.013 -121.834)" fill="#d9905b"/>
              <path id="Trazado_696655" data-name="Trazado 696655" d="M163.246,419.414c0-.01-.008-.02-.011-.03a47.679,47.679,0,0,0,7.794-3.62,15.8,15.8,0,0,0,2.953-2.165q-24.088,10.307-47.483,22.124c-1.768.893-.571,3.742,1.207,2.843q17.716-8.954,35.845-17.038a7.5,7.5,0,0,0-.306-2.114" transform="translate(-38.802 -127.744)" fill="#d9905b"/>
              <path id="Trazado_696656" data-name="Trazado 696656" d="M98.4,424.9a10.254,10.254,0,0,0-.528-9.219c-1.971-3.356-8.063-6.168-6.764-10.607.992-3.389,1.555-5.633-.021-9.057-1.327-2.884-8.4-10.4-2.855-12.461,2.8-1.042.737-5.2-2.035-4.163a7.534,7.534,0,0,0-4.583,8.028c.5,4.794,5.069,7.706,5.878,12.258.42,2.359-1.272,4.168-1.358,6.465a8.885,8.885,0,0,0,1.582,5.031c2.644,4.161,8.657,6.433,6.282,12.275-1.122,2.76,3.282,4.208,4.4,1.451" transform="translate(-25.191 -117.129)" fill="#d9905b"/>
              <path id="Trazado_696657" data-name="Trazado 696657" d="M400.288,471.555a111.445,111.445,0,0,0,14.809-2.879c4.661-1.306,11.872-3.417,18.625-5.678,7.413-2.481,15.536,3.141,17.072,12.127,3.834,22.437,8.609,59.574,1.08,74.026-13.347,25.618-40.7,23.213-55.047-7.164-6.21-13.154-11.666-35.957-11.033-52.094.373-9.505,6.645-17.343,14.495-18.337" transform="translate(-119.14 -142.819)" fill="#f9a21b"/>
              <path id="Trazado_696658" data-name="Trazado 696658" d="M404.554,428.151,402.7,456.332s20.966,26.626,41.825,2.495l-9.52-35.159Z" transform="translate(-124.378 -130.854)" fill="#fcba89"/>
              <path id="Trazado_696659" data-name="Trazado 696659" d="M450.353,475.005c.366-2.019-1.264-4.107-1.494-6.1-.276-2.4.214-4.75.231-7.126.028-3.829-2.02-10.427-5.768-12.113-.039-.018-4.809-.87-4.847-.885.708,3.953,3.245,8.854,1.811,11.106-7.307,11.469-27.178,13.576-33.971,2.52a3.017,3.017,0,0,1-1.173-2.42,15.766,15.766,0,0,1-.874-3.9c-.034,0-.07.005-.1.012-2.927-1.9-8.469,7.014-7.6,9.921.665,2.227,2.458,3.439,1.693,5.955a13.51,13.51,0,0,0-.994,4.914,11.807,11.807,0,0,0,4.937,8.3c7.09,5.211,17.847,2.655,25.248,1.2a67.156,67.156,0,0,0,13.5-3.876c2.841-1.216,8.724-3.805,9.4-7.517" transform="translate(-122.455 -138.61)" fill="#ffca7b"/>
              <path id="Trazado_696660" data-name="Trazado 696660" d="M399.044,364.385c2.183,3.888,6.312,6.2,9.89,8.623,4.145,2.811,8.2,5.951,12.984,7.581a1.82,1.82,0,0,0,.457.091c.8,1.067,2.744,1.169,3.049-.473,1.072-5.778-2.222-10.594-3.9-15.9a42.532,42.532,0,0,1-1.762-16.715,41.838,41.838,0,0,1,1.571-8.059c.657-2.208,1.744-4.28,2.371-6.486,1.091-3.837-.585-7.536-4.605-8.574-8.449-2.183-15.317,8.654-18.048,15.063-3.088,7.246-6.164,17.446-2.008,24.847" transform="translate(-122.626 -100.128)" fill="#f2ae7a"/>
              <path id="Trazado_696661" data-name="Trazado 696661" d="M287.541,392.634a4.969,4.969,0,0,1,2.634-4.364,9.931,9.931,0,0,1-4.319-4.559c-2.62-6.266,4.086-10.26,9.431-11.174a9.8,9.8,0,0,1,3.266-8.086c4.085-3.818,10.241-3.9,15.5-4.023a161,161,0,0,1,37.208,3.443c11.961,2.535,24.823,6.006,35.152,12.761a34.224,34.224,0,0,1,5.474,4.455c6.022,9.226,9.3,21.172,4.9,31.572-4.3,10.158-14.639,15.731-24.838,18.356a2.361,2.361,0,0,0-.588.243,77.4,77.4,0,0,1-27.394-2.948c-6.446-1.781-12.826-3.872-19.134-6.09-6.007-2.111-12.448-4.171-17.916-7.5-3.971-2.418-8.039-6.688-6.544-11.74,0-.011.008-.021.011-.031a47.733,47.733,0,0,1-7.794-3.62c-2.492-1.472-5.092-3.516-5.054-6.694" transform="translate(-88.108 -111.307)" fill="#fcba89"/>
              <path id="Trazado_696662" data-name="Trazado 696662" d="M348.132,385.822q-27.583-4.288-55.4-6.7a17.172,17.172,0,0,1,4.863-1.621,9.4,9.4,0,0,1-.032-1.042q25.514,2.353,50.843,6.283c1.957.3,1.7,3.383-.272,3.077" transform="translate(-90.412 -116.273)" fill="#d9905b"/>
              <path id="Trazado_696663" data-name="Trazado 696663" d="M338.2,413.445Q314.562,405.4,290.476,398.8l.009-.006a10.078,10.078,0,0,1-4.211-4.332q26.624,7.116,52.723,16c1.875.638,1.086,3.626-.8,2.984" transform="translate(-88.418 -121.834)" fill="#d9905b"/>
              <path id="Trazado_696664" data-name="Trazado 696664" d="M302.331,419.414c0-.01.008-.02.011-.03a47.652,47.652,0,0,1-7.794-3.62A15.8,15.8,0,0,1,291.6,413.6q24.088,10.307,47.484,22.124c1.768.893.571,3.742-1.208,2.843q-17.716-8.954-35.845-17.038a7.5,7.5,0,0,1,.305-2.114" transform="translate(-90.062 -127.744)" fill="#d9905b"/>
              <path id="Trazado_696665" data-name="Trazado 696665" d="M380.89,424.9a10.254,10.254,0,0,1,.528-9.219c1.971-3.356,8.063-6.168,6.764-10.607-.991-3.389-1.555-5.633.021-9.057,1.327-2.884,8.4-10.4,2.855-12.461-2.8-1.042-.736-5.2,2.035-4.163a7.534,7.534,0,0,1,4.583,8.028c-.5,4.794-5.069,7.706-5.878,12.258-.42,2.359,1.272,4.168,1.358,6.465a8.886,8.886,0,0,1-1.582,5.031c-2.644,4.161-8.656,6.433-6.282,12.275,1.122,2.76-3.282,4.208-4.4,1.451" transform="translate(-117.38 -117.129)" fill="#d9905b"/>
              <path id="Trazado_696667" data-name="Trazado 696667" d="M254.691,205.2a16.294,16.294,0,0,1-23.148,2.746c-2.064-1.651-5.017,1.265-2.933,2.933a20.534,20.534,0,0,0,29.661-3.586c1.629-2.111-1.972-4.178-3.581-2.093" transform="translate(-70.388 -63.111)" fill="#12263f"/>
            </g>
          </g>
        </g>
      </g>
    </g>
  </g>
</svg>
