<svg id="_6991863" data-name="6991863" xmlns="http://www.w3.org/2000/svg" width="611" height="382.621" viewBox="0 0 611 382.621">
  <g id="Background_Simple" data-name="Background Simple" transform="translate(7.989 4.292)">
    <g id="Grupo_1012365" data-name="Grupo 1012365">
      <path id="Trazado_726300" data-name="Trazado 726300" d="M557.015,177.175a439.444,439.444,0,0,0-62.391-93.667C468.4,53.5,441.666,33.215,407.179,20.081A227.736,227.736,0,0,0,335.009,5.16c-45.5-1.753-83.019,10.622-120.39,41.864C174.551,80.516,137.172,118.409,98.132,153.58q-6.108,5.5-12.283,10.925C17.76,224.249-15.32,330.375,30.726,356.323H560.581s48.195-2.908,36.317-62.1a471.669,471.669,0,0,0-39.891-117.043Z" transform="translate(-9.384 -4.998)" fill="#fdf0f2"/>
      <path id="Trazado_726301" data-name="Trazado 726301" d="M557.015,177.175a439.444,439.444,0,0,0-62.391-93.667C468.4,53.5,441.666,33.215,407.179,20.081A227.736,227.736,0,0,0,335.009,5.16c-45.5-1.753-83.019,10.622-120.39,41.864C174.551,80.516,137.172,118.409,98.132,153.58q-6.108,5.5-12.283,10.925C17.76,224.249-15.32,330.375,30.726,356.323H560.581s48.195-2.908,36.317-62.1a471.669,471.669,0,0,0-39.891-117.043Z" transform="translate(-9.384 -4.998)" fill="#fdf0f2" opacity="0.7"/>
    </g>
  </g>
  <g id="Plant" transform="translate(461.718 74.6)">
    <g id="Grupo_1012367" data-name="Grupo 1012367">
      <rect id="Rectángulo_348097" data-name="Rectángulo 348097" width="40.068" height="53.421" transform="translate(42.757 179.957)" fill="#263238"/>
      <path id="Trazado_726302" data-name="Trazado 726302" d="M619.31,172.8V289.717l4.1-4.089V217.623l12.679-29.977-13.463,25.138-.506-36.283Z" transform="translate(-558.866 -101.65)" fill="#263238"/>
      <g id="Grupo_1012366" data-name="Grupo 1012366">
        <path id="Trazado_726303" data-name="Trazado 726303" d="M600.079,163.866,576.761,149.1l13.994,15.157-22.542-5.446,15.933,7.773H556.934l22.55,3.5-26.437,5.058,21.379-.784-19.819,8.169,21.379-3.5L547.61,198.454l33.813-16.321-17.88,17.872,16.329-10.487-11.659,20.595,17.1-19.819-8.548,17.88,15.157-19.052v13.218l7-15.933v8.936l7-18.656v9.332l4.948-13.3,1.265-3.414-15.157-20.6,4.67,12.443-4.67-3.886Z" transform="translate(-547.61 -97.867)" fill="#f0b5bf"/>
        <path id="Trazado_726304" data-name="Trazado 726304" d="M600.466,208.247l-27.389,3.406,20.434,2.816-20.873,10.116,17.248-4.114L568.87,237.752,588.5,226.135,571.3,246.823l16.017-14.179L577.19,251.535l14.289-16.278L581.9,268.294,597.659,234.2l-2.453,25.172,5.943-18.479,4.072,23.318.624-26.175,4.746,19.246-.379-24.338,8.388,10.209-4.712-16.751,5.673,6.9-6.441-18.858,5.918,7.208-4.62-13.421-1.189-3.439-24.793-6.289,11.507,6.651-6.07-.042Z" transform="translate(-550.948 -105.686)" fill="#f0b5bf"/>
        <path id="Trazado_726306" data-name="Trazado 726306" d="M632.406,155.119l36.207-5.092L643.45,160.683l30.18,5.741-23.478.683,32.835,14.854-29.117-8.084L683.012,194.4l-25.375-12.611L677.1,202.471l-23.891-15.9,23.638,38.947-31.9-38.163,11.81,31.343-13.969-21.581,2.824,31.225L635.8,195.086l.565,26.243-7.9-31.259-7.216,15.95.261-23.056-4.889,10.79,1.745-26.336-5.092,11.254,1.29-18.748.329-4.814,29.547-16.59L632.01,150.988l7.756-2.15Z" transform="translate(-557.918 -96.268)" fill="#f0b5bf"/>
        <path id="Trazado_726307" data-name="Trazado 726307" d="M621.776,140.869l14.769-23.318-15.157,13.986,5.437-22.542-7.773,15.941V97.724l-3.5,22.542L610.5,93.837l.776,21.379L603.12,95.4l3.5,21.37L587.187,88.4l16.321,33.813-17.88-17.88,10.5,16.321-20.6-11.659,19.828,17.1-17.88-8.548,19.044,15.157H583.3l15.933,7H590.3l18.656,7h-9.332l13.3,4.948,3.414,1.265,20.595-15.157L624.5,142.42l3.886-4.662Z" transform="translate(-551.992 -88.4)" fill="#f0b5bf"/>
      </g>
    </g>
  </g>
  <g id="Stage" transform="translate(12.024 307.464)">
    <g id="Grupo_1012368" data-name="Grupo 1012368">
      <path id="Trazado_726308" data-name="Trazado 726308" d="M14.17,439.287V374.164l8.1-9.534h569.8l9.745,11.583v62.332" transform="translate(-14.17 -364.63)" fill="#fff" stroke="#263238" stroke-linecap="round" stroke-linejoin="round" stroke-width="1"/>
      <line id="Línea_2415" data-name="Línea 2415" x2="577.831" transform="translate(4.358 9.846)" fill="none" stroke="#263238" stroke-linecap="round" stroke-linejoin="round" stroke-width="1"/>
    </g>
  </g>
  <g id="Bricks" transform="translate(18.734 3.139)">
    <g id="Grupo_1012369" data-name="Grupo 1012369">
      <rect id="Rectángulo_348098" data-name="Rectángulo 348098" width="34.943" height="21.269" rx="3.96" transform="translate(487.697 44.056)" fill="none" stroke="#263238" stroke-linecap="round" stroke-linejoin="round" stroke-width="1"/>
      <rect id="Rectángulo_348099" data-name="Rectángulo 348099" width="21.269" height="10.639" rx="3.96" transform="translate(518.078 14.432)" fill="none" stroke="#263238" stroke-linecap="round" stroke-linejoin="round" stroke-width="1"/>
      <rect id="Rectángulo_348100" data-name="Rectángulo 348100" width="12.915" height="7.595" rx="3.798" transform="translate(536.313 80.524)" fill="none" stroke="#263238" stroke-linecap="round" stroke-linejoin="round" stroke-width="1"/>
      <rect id="Rectángulo_348101" data-name="Rectángulo 348101" width="47.099" height="19.752" rx="3.96" transform="translate(305.379 212.699)" fill="none" stroke="#263238" stroke-linecap="round" stroke-linejoin="round" stroke-width="1"/>
      <rect id="Rectángulo_348102" data-name="Rectángulo 348102" width="15.191" height="9.113" rx="3.96" transform="translate(372.989 200.543)" fill="none" stroke="#263238" stroke-linecap="round" stroke-linejoin="round" stroke-width="1"/>
      <rect id="Rectángulo_348103" data-name="Rectángulo 348103" width="23.545" height="10.639" rx="3.96" transform="translate(319.812 256.004)" fill="none" stroke="#263238" stroke-linecap="round" stroke-linejoin="round" stroke-width="1"/>
      <rect id="Rectángulo_348104" data-name="Rectángulo 348104" width="31.908" height="15.191" rx="3.96" transform="translate(183.835 202.828)" fill="none" stroke="#263238" stroke-linecap="round" stroke-linejoin="round" stroke-width="1"/>
      <rect id="Rectángulo_348105" data-name="Rectángulo 348105" width="24.312" height="13.674" rx="3.96" transform="translate(135.977 227.131)" fill="none" stroke="#263238" stroke-linecap="round" stroke-linejoin="round" stroke-width="1"/>
      <rect id="Rectángulo_348106" data-name="Rectángulo 348106" width="16.708" height="9.872" rx="3.96" transform="translate(137.494 201.31)" fill="none" stroke="#263238" stroke-linecap="round" stroke-linejoin="round" stroke-width="1"/>
      <rect id="Rectángulo_348107" data-name="Rectángulo 348107" width="17.476" height="8.354" rx="3.96" transform="translate(46.34 77.481)" fill="none" stroke="#263238" stroke-linecap="round" stroke-linejoin="round" stroke-width="1"/>
      <rect id="Rectángulo_348108" data-name="Rectángulo 348108" width="34.943" height="18.993" rx="3.96" transform="translate(16.708 34.943)" fill="none" stroke="#263238" stroke-linecap="round" stroke-linejoin="round" stroke-width="1"/>
      <rect id="Rectángulo_348109" data-name="Rectángulo 348109" width="19.752" height="8.354" rx="3.96" transform="translate(61.531 34.184)" fill="none" stroke="#263238" stroke-linecap="round" stroke-linejoin="round" stroke-width="1"/>
      <rect id="Rectángulo_348110" data-name="Rectángulo 348110" width="18.234" height="9.113" rx="3.96" transform="translate(41.021)" fill="none" stroke="#263238" stroke-linecap="round" stroke-linejoin="round" stroke-width="1"/>
      <rect id="Rectángulo_348111" data-name="Rectángulo 348111" width="16.708" height="9.113" rx="3.96" transform="translate(0 241.572)" fill="none" stroke="#263238" stroke-linecap="round" stroke-linejoin="round" stroke-width="1"/>
      <rect id="Rectángulo_348112" data-name="Rectángulo 348112" width="29.623" height="19.752" rx="3.96" transform="translate(525.674 222.579)" fill="none" stroke="#263238" stroke-linecap="round" stroke-linejoin="round" stroke-width="1"/>
    </g>
  </g>
  <g id="Speech_Bubble" data-name="Speech Bubble" transform="translate(301.403 12.496)">
    <g id="Grupo_1012371" data-name="Grupo 1012371">
      <path id="Trazado_726309" data-name="Trazado 726309" d="M410.128,17.66H365.018a5.377,5.377,0,0,0-5.378,5.378v22.93a5.382,5.382,0,0,0,5.024,5.362l-2.647,9.13,11.844-9.113h36.266a5.382,5.382,0,0,0,5.378-5.378V23.038a5.377,5.377,0,0,0-5.378-5.378Z" transform="translate(-357.785 -15.19)" fill="#263238" stroke="#263238" stroke-linecap="round" stroke-linejoin="round" stroke-width="1"/>
      <path id="Trazado_726310" data-name="Trazado 726310" d="M407.928,14.73H362.818a5.382,5.382,0,0,0-5.378,5.378v22.93a5.382,5.382,0,0,0,5.024,5.362l-2.647,9.13,11.844-9.113h36.266a5.377,5.377,0,0,0,5.378-5.378V20.108a5.377,5.377,0,0,0-5.378-5.378Z" transform="translate(-357.44 -14.73)" fill="#fff" stroke="#263238" stroke-miterlimit="10" stroke-width="1"/>
      <g id="Grupo_1012370" data-name="Grupo 1012370" transform="translate(15.065 14.466)">
        <path id="Trazado_726311" data-name="Trazado 726311" d="M378.867,33.669a1.779,1.779,0,1,1-1.779-1.779A1.779,1.779,0,0,1,378.867,33.669Z" transform="translate(-375.31 -31.89)" fill="#263238"/>
        <path id="Trazado_726312" data-name="Trazado 726312" d="M392.028,33.669a1.779,1.779,0,1,1-1.779-1.779A1.779,1.779,0,0,1,392.028,33.669Z" transform="translate(-377.376 -31.89)" fill="#263238"/>
        <path id="Trazado_726313" data-name="Trazado 726313" d="M405.187,33.669a1.779,1.779,0,1,1-1.779-1.779A1.779,1.779,0,0,1,405.187,33.669Z" transform="translate(-379.442 -31.89)" fill="#263238"/>
      </g>
    </g>
  </g>
  <g id="Board" transform="translate(99.891 0.5)">
    <g id="Grupo_1012372" data-name="Grupo 1012372">
      <rect id="Rectángulo_348113" data-name="Rectángulo 348113" width="386.923" height="190.587" fill="none" stroke="#263238" stroke-linecap="round" stroke-linejoin="round" stroke-width="1"/>
      <rect id="Rectángulo_348114" data-name="Rectángulo 348114" width="386.923" height="6.752" transform="translate(0 183.835)" fill="none" stroke="#263238" stroke-linecap="round" stroke-linejoin="round" stroke-width="1"/>
    </g>
  </g>
  <g id="Podium" transform="translate(32.484 105.775)">
    <g id="Grupo_1012373" data-name="Grupo 1012373">
      <path id="Trazado_726314" data-name="Trazado 726314" d="M131.675,183.269H46.8L42.08,125.38h94.307Z" transform="translate(-39.011 -125.38)" fill="#f5b3bf" stroke="#263238" stroke-linecap="round" stroke-linejoin="round" stroke-width="1"/>
      <path id="Trazado_726315" data-name="Trazado 726315" d="M131.675,188.266H46.8L42.08,130.84h94.307Z" transform="translate(-39.011 -126.237)" fill="#263238" stroke="#263238" stroke-linecap="round" stroke-linejoin="round" stroke-width="1"/>
      <rect id="Rectángulo_348115" data-name="Rectángulo 348115" width="79.243" height="188.016" transform="translate(10.479 16.574)" fill="#f5b3bf" stroke="#263238" stroke-linecap="round" stroke-linejoin="round" stroke-width="1"/>
      <rect id="Rectángulo_348116" data-name="Rectángulo 348116" width="45.581" height="56.97" transform="translate(26.513 43.213)" fill="none" stroke="#263238" stroke-linecap="round" stroke-linejoin="round" stroke-width="1"/>
      <rect id="Rectángulo_348117" data-name="Rectángulo 348117" width="100.217" height="15.891" transform="translate(0 188.69)" fill="#f5b3bf" stroke="#263238" stroke-linecap="round" stroke-linejoin="round" stroke-width="1"/>
    </g>
  </g>
  <g id="Character_6" data-name="Character 6" transform="translate(225.108 20.424)">
    <g id="Grupo_1012382" data-name="Grupo 1012382">
      <path id="Trazado_726316" data-name="Trazado 726316" d="M307.342,26.061s-6.7-1.526-11.684.2-10.259,7.52-9.551,8.843,4.569-.1,4.569-.1-3.557,3.557-3.052,4.063a13.023,13.023,0,0,0,1.02.91s-4.367,4.367-4.982,9.754,1.829,7.621,1.829,7.621l3.052-1.93s-.607,4.982,3.052,7.52,4.063,1.324,4.063,1.324,4.367,5.994,11.482,7.014,11.077.2,13.716-1.222a30.24,30.24,0,0,0,4.67-3.153s-.607,2.133,2.133,1.121,7.823-6.913,7.823-6.913,1.121,1.627,2.537-.4.2-10.259.2-10.259,3.861,1.222,3.052-1.829-4.266-13.008-7.418-15.444a30.473,30.473,0,0,0-7.924-3.962s2.335.91,1.728-.607-5.994-4.367-11.077-4.468-6.6,1.526-6.6,1.526-1.324-1.93-2.032-1.121a2.07,2.07,0,0,0-.607,1.526Z" transform="translate(-269.547 -24.135)" fill="#263238" stroke="#263238" stroke-linecap="round" stroke-linejoin="round" stroke-width="1"/>
      <path id="Trazado_726317" data-name="Trazado 726317" d="M301.376,49.39a2.218,2.218,0,0,0-1.231,2.588c.244,2.091,2.276,5.362,2.276,5.362l-1.045-7.95Z" transform="translate(-272.146 -28.1)" fill="none" stroke="#263238" stroke-linecap="round" stroke-linejoin="round" stroke-width="1"/>
      <path id="Trazado_726318" data-name="Trazado 726318" d="M330.424,49.319s1.914-.244,1.728,2.4a19.03,19.03,0,0,1-1.973,6.036Z" transform="translate(-276.866 -28.087)" fill="none" stroke="#263238" stroke-linecap="round" stroke-linejoin="round" stroke-width="1"/>
      <g id="Grupo_1012374" data-name="Grupo 1012374" transform="translate(9.151 111.652)">
        <path id="Trazado_726319" data-name="Trazado 726319" d="M278.06,171.653s-1.543,17.358,2.773,30.8,10.613,28.317,10.9,32.405-6.432,19.575-4.586,32.085,11.937,37.219,12.729,42.5-2.049,24.624-1.779,26.791,4.544,2.807,6.264,2.79,4.072-1.652,4.072-1.652a16.374,16.374,0,0,0,5.977.506c2.883-.4,3.052-3.237,2.251-5.876s-3.853-18.276-4.08-21.674,6.887-24.7,8.3-36.9c1.593-13.8,1.661-25.509,2.386-30.61s1.071-7.941,1.071-7.941,8.809-23.689,11.76-36.561,1.846-26.639,1.838-27.777-4.19-13.556-4.19-13.556l-52.418-.413-3.271,15.065Z" transform="translate(-277.792 -156.58)" fill="#263238" stroke="#263238" stroke-linecap="round" stroke-linejoin="round" stroke-width="1"/>
        <path id="Trazado_726320" data-name="Trazado 726320" d="M316.369,338.6a9.218,9.218,0,0,1,.211-1.947l-5.243-.076-7.891.076c.1.4.177.767.219,1.054.792,5.294-2.049,24.624-1.779,26.791s4.544,2.807,6.264,2.79,4.072-1.652,4.072-1.652a16.374,16.374,0,0,0,5.977.506c2.883-.4,3.052-3.237,2.251-5.876s-3.853-18.276-4.08-21.674Z" transform="translate(-281.572 -184.839)" fill="#bdbdbd" stroke="#263238" stroke-linecap="round" stroke-linejoin="round" stroke-width="1"/>
        <path id="Trazado_726321" data-name="Trazado 726321" d="M322.32,364.688a27.929,27.929,0,0,1-4.046.759,11.606,11.606,0,0,1-4.493-.6,4.736,4.736,0,0,1,1.121,2.344,9.212,9.212,0,0,1-.809,2.858s4.679.961,6.862.076,2.377-3.608,1.374-5.446Z" transform="translate(-283.442 -189.25)" fill="#ed9aa9" stroke="#263238" stroke-linecap="round" stroke-linejoin="round" stroke-width="1"/>
        <path id="Trazado_726322" data-name="Trazado 726322" d="M312.567,364.841l-10.411-.211a32.158,32.158,0,0,0-.27,4.282c.27,2.167,4.544,2.807,6.264,2.79s4.072-1.652,4.072-1.652c1.113-1.661.346-5.218.346-5.218Z" transform="translate(-281.572 -189.242)" fill="#ed9aa9" stroke="#263238" stroke-linecap="round" stroke-linejoin="round" stroke-width="1"/>
        <path id="Trazado_726323" data-name="Trazado 726323" d="M313.11,336.58l.287,7.781.936,16.076" transform="translate(-283.337 -184.839)" fill="#bdbdbd" stroke="#263238" stroke-linecap="round" stroke-linejoin="round" stroke-width="1"/>
        <path id="Trazado_726324" data-name="Trazado 726324" d="M315.48,199.6c.118-4.982.2-8.43.2-8.43" transform="translate(-283.709 -162.01)" fill="none" stroke="#878787" stroke-linecap="round" stroke-linejoin="round" stroke-width="1"/>
        <path id="Trazado_726325" data-name="Trazado 726325" d="M312.73,297.862c.438-20.173,1.256-57.468,1.374-59.744.11-2.015.548-19.87.851-32.388" transform="translate(-283.277 -164.296)" fill="none" stroke="#878787" stroke-linecap="round" stroke-linejoin="round" stroke-width="1"/>
        <path id="Trazado_726326" data-name="Trazado 726326" d="M312.4,328.47s.076-3.456.194-8.86" transform="translate(-283.225 -182.175)" fill="none" stroke="#878787" stroke-linecap="round" stroke-linejoin="round" stroke-width="1"/>
        <path id="Trazado_726327" data-name="Trazado 726327" d="M306.65,185.406l7.84,3.625,5.926-3.861" transform="translate(-282.322 -161.068)" fill="none" stroke="#878787" stroke-linecap="round" stroke-linejoin="round" stroke-width="1"/>
      </g>
      <g id="Grupo_1012375" data-name="Grupo 1012375" transform="translate(25.719 47.099)">
        <path id="Trazado_726328" data-name="Trazado 726328" d="M299.843,82.471s10.074-2.731,15.4-2.445a29.607,29.607,0,0,1,9.5,2.158,139.257,139.257,0,0,1,3.026,22.744c.582,12.384-1.012,39.158-1.585,43.187s-.86,6.331-.86,6.331-9.931-5.471-13.53-5.614-10.942,2.588-10.942,2.588-2.883-19.718-3.313-32.962.717-32.388.717-32.388Z" transform="translate(-297.446 -80.005)" fill="#fff" stroke="#263238" stroke-linecap="round" stroke-linejoin="round" stroke-width="1"/>
        <line id="Línea_2416" data-name="Línea 2416" y1="11.069" x2="13.893" transform="translate(7.473 47.584)" fill="none" stroke="#263238" stroke-linecap="round" stroke-linejoin="round" stroke-width="1"/>
        <line id="Línea_2417" data-name="Línea 2417" x1="6.432" y2="5.665" transform="translate(18.794 40.123)" fill="none" stroke="#263238" stroke-linecap="round" stroke-linejoin="round" stroke-width="1"/>
      </g>
      <path id="Trazado_726329" data-name="Trazado 726329" d="M307.3,69.781,305.88,80.066s2.478,6.441,9.172,6.626,10.04-7,10.04-7L322.555,68.98l-15.242.809Z" transform="translate(-273.051 -31.175)" fill="#bdbdbd" stroke="#263238" stroke-linecap="round" stroke-linejoin="round" stroke-width="1"/>
      <path id="Trazado_726330" data-name="Trazado 726330" d="M308.639,71.31l-1.4,7.444,7.789-4.552Z" transform="translate(-273.264 -31.541)" fill="#263238" stroke="#263238" stroke-linecap="round" stroke-linejoin="round" stroke-width="1"/>
      <g id="Grupo_1012377" data-name="Grupo 1012377" transform="translate(29.44 9.851)">
        <path id="Trazado_726331" data-name="Trazado 726331" d="M311.547,35.828a12.629,12.629,0,0,0-6.019,2.546c-3.069,2.318-2.773,6.719-2.714,10.015s.835,12.224,2.065,14.491,6.061,6.028,8.835,6.137,9.062-4.089,10.192-7.587,2.588-12.654,1.661-18.007-6.28-6.693-6.28-6.693.2,1.956-.615,1.543-7.123-2.453-7.123-2.453Z" transform="translate(-302.004 -35.82)" fill="#bdbdbd" stroke="#263238" stroke-linecap="round" stroke-linejoin="round" stroke-width="1"/>
        <path id="Trazado_726332" data-name="Trazado 726332" d="M314.054,58.278s-.177,1.087.287,1.442a2.657,2.657,0,0,0,2.141.076c.7-.236.792-1.576.792-1.745" transform="translate(-303.769 -39.31)" fill="none" stroke="#263238" stroke-linecap="round" stroke-linejoin="round" stroke-width="1"/>
        <path id="Trazado_726333" data-name="Trazado 726333" d="M309.378,62.464a24.165,24.165,0,0,0,10.79-.514s-1.576,3.524-4.923,4.46-5.876-3.945-5.876-3.945Z" transform="translate(-303.039 -39.922)" fill="#fff" stroke="#263238" stroke-linecap="round" stroke-linejoin="round" stroke-width="1"/>
        <path id="Trazado_726334" data-name="Trazado 726334" d="M305.38,48.2s2.175-1.652,4.358-.784" transform="translate(-302.413 -37.6)" fill="none" stroke="#263238" stroke-linecap="round" stroke-linejoin="round" stroke-width="1"/>
        <path id="Trazado_726335" data-name="Trazado 726335" d="M321.6,47.87s2.959.177,3.743,1.222" transform="translate(-304.959 -37.712)" fill="none" stroke="#263238" stroke-linecap="round" stroke-linejoin="round" stroke-width="1"/>
        <path id="Trazado_726336" data-name="Trazado 726336" d="M310.367,52.868c0,.809-.329,1.458-.733,1.458s-.733-.658-.733-1.458.329-1.458.733-1.458S310.367,52.068,310.367,52.868Z" transform="translate(-302.965 -38.268)" fill="#263238"/>
        <path id="Trazado_726337" data-name="Trazado 726337" d="M321.527,52.867c0,.809-.329,1.467-.733,1.467s-.733-.658-.733-1.467.329-1.467.733-1.467S321.527,52.058,321.527,52.867Z" transform="translate(-304.717 -38.266)" fill="#263238"/>
        <g id="Grupo_1012376" data-name="Grupo 1012376" transform="translate(0 11.272)">
          <path id="Trazado_726338" data-name="Trazado 726338" d="M301.86,50.606l.961,4.527a26.033,26.033,0,0,0,8.885-.7l.927-4.62s-6.854-1.829-10.774.784Z" transform="translate(-301.86 -49.192)" fill="none" stroke="#263238" stroke-linecap="round" stroke-linejoin="round" stroke-width="1"/>
          <path id="Trazado_726339" data-name="Trazado 726339" d="M327.964,50.606,327,55.133a26.033,26.033,0,0,1-8.885-.7l-.927-4.62s6.854-1.829,10.774.784Z" transform="translate(-304.267 -49.192)" fill="none" stroke="#263238" stroke-linecap="round" stroke-linejoin="round" stroke-width="1"/>
          <path id="Trazado_726340" data-name="Trazado 726340" d="M314.65,49.926a8.987,8.987,0,0,1,2.15,0" transform="translate(-303.868 -49.295)" fill="none" stroke="#263238" stroke-linecap="round" stroke-linejoin="round" stroke-width="1"/>
        </g>
      </g>
      <g id="Grupo_1012378" data-name="Grupo 1012378" transform="translate(1.223 47.786)">
        <path id="Trazado_726341" data-name="Trazado 726341" d="M300.272,80.82s-7.84,2.006-12.611,2.892-8.354,1.88-9.062,3.3-10.883,36.62-10.175,39.276,2.563,3.625,5.488,4.864a24.14,24.14,0,0,0,5.311,1.593s-6.727,28.839-6.373,29.986,6.019,6.727,14.154,7.166,11.145,0,11.591-7.427-2.124-28.485-2.124-28.485-.969-13.269-.969-24.059,4.78-29.1,4.78-29.1Z" transform="translate(-268.388 -80.82)" fill="#ed9aa9" stroke="#263238" stroke-linecap="round" stroke-linejoin="round" stroke-width="1"/>
        <path id="Trazado_726342" data-name="Trazado 726342" d="M287.978,95.71s-4.679,16.144-5.429,20.822-1.509,16.447-1.509,16.447" transform="translate(-270.374 -83.158)" fill="none" stroke="#263238" stroke-linecap="round" stroke-linejoin="round" stroke-width="1"/>
      </g>
      <g id="Grupo_1012379" data-name="Grupo 1012379" transform="translate(32.568 49.489)">
        <path id="Trazado_726343" data-name="Trazado 726343" d="M315.464,87.957l-5.614-1.113,1.374-4,4.493.885Z" transform="translate(-306.242 -82.84)" fill="#263238"/>
        <rect id="Rectángulo_348118" data-name="Rectángulo 348118" width="5.724" height="4.198" transform="translate(3.654 3.773) rotate(11.16)" fill="#263238"/>
        <path id="Trazado_726344" data-name="Trazado 726344" d="M310.063,110.467l-4.493-.885L308.394,92.3l5.614,1.1Z" transform="translate(-305.57 -84.325)" fill="#616161" stroke="#263238" stroke-linecap="round" stroke-linejoin="round" stroke-width="1"/>
        <rect id="Rectángulo_348119" data-name="Rectángulo 348119" width="5.775" height="0.641" transform="translate(3.658 3.762) rotate(11.16)" fill="#fff" stroke="#263238" stroke-linecap="round" stroke-linejoin="round" stroke-width="0.5"/>
      </g>
      <g id="Grupo_1012380" data-name="Grupo 1012380" transform="translate(19.712 58.493)">
        <path id="Trazado_726345" data-name="Trazado 726345" d="M290.32,113.727l6.727-4.594s6.609-14.947,7.208-15.494,7.182.995,7.6,1.222a1.389,1.389,0,0,1,.632,1.332c-.067.531-.287,1.568-.287,1.568s-.076,1.324-.135,1.77-.4,1.737-.438,2.082S311.37,103,311.37,103a7.745,7.745,0,0,1,2.546,1.745c.767.986.464,1.307-.177,1.408s-1.72-.481-2.158-.54-4.468-.649-5.488-.337-1.147,2-2.352,3.8a12.633,12.633,0,0,1-3.338,3.144l-7.646,11.161-2.436-9.669Z" transform="translate(-290.32 -93.521)" fill="#bdbdbd" stroke="#263238" stroke-linecap="round" stroke-linejoin="round" stroke-width="1"/>
        <path id="Trazado_726346" data-name="Trazado 726346" d="M313.945,104.609s-2.251-.228-3.271-.354-3.2-.835-3.954-.329" transform="translate(-292.895 -95.127)" fill="none" stroke="#263238" stroke-linecap="round" stroke-linejoin="round" stroke-width="1"/>
        <path id="Trazado_726347" data-name="Trazado 726347" d="M306.37,100.7c.135-.025,5.5.649,6.516.818a3.789,3.789,0,0,1,1.324.379" transform="translate(-292.84 -94.648)" fill="none" stroke="#263238" stroke-linecap="round" stroke-linejoin="round" stroke-width="1"/>
        <path id="Trazado_726348" data-name="Trazado 726348" d="M314.535,98.834s-4.274-.885-5.513-1.256-2.276-.371-2.622-.025" transform="translate(-292.844 -94.114)" fill="none" stroke="#263238" stroke-linecap="round" stroke-linejoin="round" stroke-width="1"/>
      </g>
      <path id="Trazado_726349" data-name="Trazado 726349" d="M287.914,115.79l3.338,12.013s-9.315,14.533-13.631,16.2-8.54.826-9.7-2.487-1.534-8.734.253-11.246,19.743-14.483,19.743-14.483Z" transform="translate(-266.937 -38.524)" fill="#ed9aa9" stroke="#263238" stroke-linecap="round" stroke-linejoin="round" stroke-width="1"/>
      <path id="Trazado_726350" data-name="Trazado 726350" d="M361.05,116.488l3.321-8.152a67.5,67.5,0,0,1,1.813-6.643c.607-1.357,7.7-3.473,8.152-3.625s3.473-2.866,3.92-1.054.3,2.116-1.054,2.866-4.223,2.411-4.223,2.411,9.509-.9,10.108-.9,6.491-.455,5.429,1.964-3.473,5.429-5.429,6.491-14.188,4.223-14.188,4.223l-3.625,7.09-4.223-4.679Z" transform="translate(-281.712 -35.479)" fill="#bdbdbd" stroke="#263238" stroke-linecap="round" stroke-linejoin="round" stroke-width="1"/>
      <path id="Trazado_726351" data-name="Trazado 726351" d="M393.411,102.568s-1.973-5.471-2.571-5.092-.658.767-.379,1.585,1.366,4.215,1.366,4.375,1.475,1.256,1.585-.877Z" transform="translate(-286.304 -35.646)" fill="#bdbdbd" stroke="#263238" stroke-linecap="round" stroke-linejoin="round" stroke-width="1"/>
      <path id="Trazado_726352" data-name="Trazado 726352" d="M391.02,106.9s2.006-1.652,2.2-3.271a18.6,18.6,0,0,0,.025-5.125c-.278-.986-1.61.1-1.374.649S391.037,105.882,391.02,106.9Z" transform="translate(-286.417 -35.748)" fill="#bdbdbd" stroke="#263238" stroke-linecap="round" stroke-linejoin="round" stroke-width="1"/>
      <path id="Trazado_726353" data-name="Trazado 726353" d="M387.57,110.409a32.981,32.981,0,0,0,2.917-3.313c.11-.421,1.694-7.958.851-7.747s-1.8,1.694-2.015,2.967-1.753,8.084-1.753,8.084Z" transform="translate(-285.875 -35.942)" fill="#bdbdbd" stroke="#263238" stroke-linecap="round" stroke-linejoin="round" stroke-width="1"/>
      <path id="Trazado_726354" data-name="Trazado 726354" d="M369.38,111.788a10.1,10.1,0,0,1,2.866-2.655c1.383-.641,10.5-.953,10.5-.953s3.288-7.958,3.709-6.474-1.475,8.337-2.065,8.944-9.813,3.254-11.726,3.675" transform="translate(-283.02 -36.284)" fill="#bdbdbd" stroke="#263238" stroke-linecap="round" stroke-linejoin="round" stroke-width="1"/>
      <g id="Grupo_1012381" data-name="Grupo 1012381" transform="translate(48.883 48.511)">
        <path id="Trazado_726355" data-name="Trazado 726355" d="M328.073,81.688a273.409,273.409,0,0,1,2.554,35.963c-.152,17.358-5.286,40.144-5.581,44.064s-.455,6.938,4.375,8.6,9.357-.607,13.733-3.473,5.286-5.286,5.286-5.286l-6.188-23.689s6.491,5.134,10.411-.3S361.87,119,361.87,119l-5.581-6.643-6.491,6.491s-3.92-31.233-4.982-32.3a4.344,4.344,0,0,0-3.018-1.205c-.607,0-13.724-3.667-13.724-3.667Z" transform="translate(-324.924 -81.68)" fill="#ed9aa9" stroke="#263238" stroke-linecap="round" stroke-linejoin="round" stroke-width="1"/>
        <line id="Línea_2418" data-name="Línea 2418" x1="5.142" y2="4.611" transform="translate(19.732 37.177)" fill="none" stroke="#263238" stroke-linecap="round" stroke-linejoin="round" stroke-width="1"/>
        <path id="Trazado_726356" data-name="Trazado 726356" d="M343.37,105.57c1.265,6.323,2.925,15.393,2.832,19.153-.152,6.036-1.054,16.9-1.054,16.9" transform="translate(-327.82 -85.431)" fill="none" stroke="#263238" stroke-linecap="round" stroke-linejoin="round" stroke-width="1"/>
        <path id="Trazado_726357" data-name="Trazado 726357" d="M341.72,97.68s.312,1.391.759,3.557" transform="translate(-327.561 -84.192)" fill="none" stroke="#263238" stroke-linecap="round" stroke-linejoin="round" stroke-width="1"/>
      </g>
    </g>
  </g>
  <g id="Character_5" data-name="Character 5" transform="translate(488.07 253.716)">
    <g id="Grupo_1012385" data-name="Grupo 1012385">
      <path id="Trazado_726358" data-name="Trazado 726358" d="M679.765,442.179l-4.805-34.285V385.04h11.313a20,20,0,0,1,3.1,8.649c.582,4.637,3.844,39.512,4.687,48.481h-14.3Z" transform="translate(-593.955 -314.086)" fill="#fff" stroke="#263238" stroke-linecap="round" stroke-linejoin="round" stroke-width="1"/>
      <path id="Trazado_726359" data-name="Trazado 726359" d="M578.87,442.181c.835-8.97,4.105-43.845,4.687-48.481a19.94,19.94,0,0,1,3.1-8.649h11.313V407.9l-4.805,34.285h-14.3Z" transform="translate(-578.87 -314.087)" fill="#fff" stroke="#263238" stroke-linecap="round" stroke-linejoin="round" stroke-width="1"/>
      <path id="Trazado_726360" data-name="Trazado 726360" d="M673.528,392.619c-2.436,4.434-5.547,5.1-4.881,5.994s3.1,3.768,1.332,6.651-4.881,5.328-5.547,5.994c-.556.556-3.448,21.328-4.375,28.072H601.139c-.927-6.744-3.81-27.516-4.375-28.072-.666-.666-3.768-3.1-5.547-5.994s.666-5.766,1.332-6.651-2.436-1.551-4.881-5.994.447-5.547.447-7.983-2.217-3.768-1.113-6.651,5.328-1.779,6.651-1.551,1.551.447,6.432-.666,18.192-7.545,18.192-7.545l5.994-.43v-.9l6.323.455,6.323-.455v.9l5.994.43s13.311,6.432,18.192,7.545,5.1.885,6.432.666,5.547-1.332,6.651,1.551-1.113,4.215-1.113,6.651,2.883,3.549.447,7.983Z" transform="translate(-580.098 -311.236)" fill="#636363" stroke="#263238" stroke-linecap="round" stroke-linejoin="round" stroke-width="1"/>
      <path id="Trazado_726361" data-name="Trazado 726361" d="M602.187,446.587l-1.2-33.467c30.559,5.243,63.023,0,63.023,0l-.894,33.467H602.187Z" transform="translate(-582.343 -318.494)" fill="#263238" stroke="#263238" stroke-linecap="round" stroke-linejoin="round" stroke-width="1"/>
      <g id="Grupo_1012384" data-name="Grupo 1012384" transform="translate(31.462)">
        <path id="Trazado_726362" data-name="Trazado 726362" d="M621.619,313.453s-2.47,3.9-2.6,6.769-.126,4.814-1.037,5.724-2.344,1.037-1.56,2.47a15.235,15.235,0,0,0,1.694,2.47,61.154,61.154,0,0,0,2.082,6.769c.91,2.082,1.3,4.948,2.082,5.724a4.988,4.988,0,0,0,2.6.91l.784,5.859,5.463-6.9-5.336-32.793-4.164,2.993Z" transform="translate(-616.192 -302.377)" fill="#fff" stroke="#263238" stroke-linecap="round" stroke-linejoin="round" stroke-width="1"/>
        <path id="Trazado_726363" data-name="Trazado 726363" d="M640.41,301.722s6.011-.582,11.052,7.756,3.878,19.777,1.551,25.2-7.562,11.827-13.96,12.8-13.185-2.714-17.256-14.542.582-25,4.459-28.3S635.95,299.783,640.41,301.722Z" transform="translate(-616.824 -300.872)" fill="#bdbdbd" stroke="#263238" stroke-linecap="round" stroke-linejoin="round" stroke-width="1"/>
        <g id="Grupo_1012383" data-name="Grupo 1012383" transform="translate(1.631 15.298)">
          <path id="Trazado_726364" data-name="Trazado 726364" d="M642.6,322.215s14.93,14.154,13.572,27.33-8.143,12.215-7.368,21.91,7.562,12.409,6.592,18.807-4.266,10.858-8.531,12.991a17.781,17.781,0,0,1-7.174,2.133l.775-5.041s-3.684,4.847-8.919,3.878a12.223,12.223,0,0,1-9.307-7.756l-.969-2.908s3.49.388,4.459-4.266-3.684-6.98-5.429-11.052a30.856,30.856,0,0,1-.388-21.716c3.3-8.919,9.5-11.633,11.44-20.165s2.133-14.93,5.429-16.869,5.817,2.714,5.817,2.714Z" transform="translate(-618.126 -319.019)" fill="#bdbdbd" stroke="#263238" stroke-linecap="round" stroke-linejoin="round" stroke-width="1"/>
          <path id="Trazado_726365" data-name="Trazado 726365" d="M644.537,398.253s4.072-2.133,1.551-12.8-8.337-10.276-4.459-22.289,9.307-17.644,7.756-26.555-6.2-13.572-6.2-13.572" transform="translate(-621.613 -319.65)" fill="none" stroke="#263238" stroke-linecap="round" stroke-linejoin="round" stroke-width="1"/>
          <path id="Trazado_726366" data-name="Trazado 726366" d="M628.466,412.527s5.623,0,4.46-8.337-9.5-6.98-12.215-14.93" transform="translate(-618.532 -330.047)" fill="none" stroke="#263238" stroke-linecap="round" stroke-linejoin="round" stroke-width="1"/>
          <path id="Trazado_726367" data-name="Trazado 726367" d="M637.484,325.11s3.684,5.817-.388,18.807-12.6,16.093-12.021,26.555,5.235,13.379,5.235,13.379" transform="translate(-619.213 -319.975)" fill="none" stroke="#263238" stroke-linecap="round" stroke-linejoin="round" stroke-width="1"/>
        </g>
        <path id="Trazado_726368" data-name="Trazado 726368" d="M644.026,304.41s.776,5.817-.776,10.276" transform="translate(-620.44 -301.427)" fill="none" stroke="#263238" stroke-linecap="round" stroke-linejoin="round" stroke-width="1"/>
        <path id="Trazado_726369" data-name="Trazado 726369" d="M634.959,320.027s-7.756.194-12.409-1.357" transform="translate(-617.19 -303.666)" fill="none" stroke="#263238" stroke-linecap="round" stroke-linejoin="round" stroke-width="1"/>
        <path id="Trazado_726370" data-name="Trazado 726370" d="M622.78,335.138s6.2,1.163,9.695-2.908" transform="translate(-617.226 -305.795)" fill="none" stroke="#263238" stroke-linecap="round" stroke-linejoin="round" stroke-width="1"/>
        <path id="Trazado_726371" data-name="Trazado 726371" d="M656.845,317.06s-4.072,5.429-9.695,4.847" transform="translate(-621.052 -303.413)" fill="none" stroke="#263238" stroke-linecap="round" stroke-linejoin="round" stroke-width="1"/>
      </g>
    </g>
  </g>
  <g id="Character_4" data-name="Character 4" transform="translate(373.295 245.832)">
    <g id="Grupo_1012387" data-name="Grupo 1012387">
      <g id="Grupo_1012386" data-name="Grupo 1012386" transform="translate(0 58.816)">
        <path id="Trazado_726372" data-name="Trazado 726372" d="M545.685,438.45c-1.155-10.892-5.766-54.543-5.766-57.038,0-2.849-5.362-4.1-8.877-6.415s-19.76-13.176-19.76-13.176L494.2,361.29l-17.079.531S460.878,372.688,457.363,375s-8.877,3.566-8.877,6.415c0,2.5-4.611,46.146-5.766,57.038H545.676Z" transform="translate(-442.72 -361.29)" fill="#bdbdbd" stroke="#263238" stroke-linecap="round" stroke-linejoin="round" stroke-width="1"/>
        <path id="Trazado_726373" data-name="Trazado 726373" d="M454.46,386.42s6.415,15.494,9.265,19.591" transform="translate(-444.563 -365.235)" fill="none" stroke="#263238" stroke-linecap="round" stroke-linejoin="round" stroke-width="1"/>
        <line id="Línea_2419" data-name="Línea 2419" x2="4.805" y2="7.123" transform="translate(10.968 33.476)" fill="none" stroke="#263238" stroke-linecap="round" stroke-linejoin="round" stroke-width="1"/>
        <line id="Línea_2420" data-name="Línea 2420" x1="8.017" y2="16.211" transform="translate(83.458 25.459)" fill="none" stroke="#263238" stroke-linecap="round" stroke-linejoin="round" stroke-width="1"/>
        <line id="Línea_2421" data-name="Línea 2421" x1="3.557" y2="5.699" transform="translate(85.953 34.9)" fill="none" stroke="#263238" stroke-linecap="round" stroke-linejoin="round" stroke-width="1"/>
      </g>
      <path id="Trazado_726374" data-name="Trazado 726374" d="M491.074,339.78,489.7,355.6h25.72l-2.748-15.132Z" transform="translate(-450.095 -299.097)" fill="#fff" stroke="#263238" stroke-linecap="round" stroke-linejoin="round" stroke-width="1"/>
      <path id="Trazado_726375" data-name="Trazado 726375" d="M484.774,322s-4.325-1.442-3.6,4.325,6.483,9.189,6.483,9.189Z" transform="translate(-448.744 -296.28)" fill="#fff" stroke="#263238" stroke-linecap="round" stroke-linejoin="round" stroke-width="1"/>
      <path id="Trazado_726376" data-name="Trazado 726376" d="M523.573,322s4.325-1.442,3.6,4.325-6.483,9.189-6.483,9.189Z" transform="translate(-454.961 -296.28)" fill="#fff" stroke="#263238" stroke-linecap="round" stroke-linejoin="round" stroke-width="1"/>
      <path id="Trazado_726377" data-name="Trazado 726377" d="M519.264,306.787c-.177-1.265-4.864-7.924-7.385-9.189s-4.864-2.706-7.747,1.079c0,0-.093-.059-.244-.169a1.042,1.042,0,0,0,.169-.59s-1.568-4.839-4.476-6.044-8.708.725-10.4,4.957c-.042.11-.059.185-.1.287a14.025,14.025,0,0,0-4.948,7.5c-2.158,7.208-1.265,7.747-.54,8.287s-.177,5.943.717,10.091,4.139,11.347,10.993,14.415a16.632,16.632,0,0,0,14.77-.54c1.619-1.079,7.924-11.17,8.464-14.415s-1.442-11.17-1.442-11.17,2.344-3.246,2.158-4.5Z" transform="translate(-449.008 -291.52)" fill="#263238" stroke="#263238" stroke-linecap="round" stroke-linejoin="round" stroke-width="1"/>
      <path id="Trazado_726378" data-name="Trazado 726378" d="M482.909,353.81l-3.659,9.357,40.717-.413-4.535-8.666Z" transform="translate(-448.455 -301.299)" fill="#bdbdbd" stroke="#263238" stroke-linecap="round" stroke-linejoin="round" stroke-width="1"/>
      <path id="Trazado_726379" data-name="Trazado 726379" d="M530.624,446.476l1.332-34.066c-34.192,5.345-70.526,0-70.526,0l.995,34.066Z" transform="translate(-445.657 -310.499)" fill="#263238" stroke="#263238" stroke-linecap="round" stroke-linejoin="round" stroke-width="1"/>
    </g>
  </g>
  <g id="Character_3" data-name="Character 3" transform="translate(265.811 246.273)">
    <g id="Grupo_1012389" data-name="Grupo 1012389">
      <g id="Grupo_1012388" data-name="Grupo 1012388" transform="translate(0 58.375)">
        <path id="Trazado_726380" data-name="Trazado 726380" d="M401.67,438.45c.995-10.892,4.982-54.543,4.982-57.038,0-2.849-5.362-4.1-8.877-6.415s-19.76-13.176-19.76-13.176l-17.079-.531-17.079.531S327.612,372.688,324.1,375s-8.877,3.566-8.877,6.415c0,2.5,2.285,46.146,2.858,57.038h83.584Z" transform="translate(-315.22 -361.29)" fill="#fff" stroke="#263238" stroke-linecap="round" stroke-linejoin="round" stroke-width="1"/>
        <path id="Trazado_726381" data-name="Trazado 726381" d="M320.13,386.42s6.415,15.494,9.265,19.591" transform="translate(-315.991 -365.235)" fill="none" stroke="#263238" stroke-linecap="round" stroke-linejoin="round" stroke-width="1"/>
        <line id="Línea_2422" data-name="Línea 2422" x2="4.814" y2="7.123" transform="translate(5.201 33.476)" fill="none" stroke="#263238" stroke-linecap="round" stroke-linejoin="round" stroke-width="1"/>
        <line id="Línea_2423" data-name="Línea 2423" x1="8.017" y2="16.211" transform="translate(77.692 25.459)" fill="none" stroke="#263238" stroke-linecap="round" stroke-linejoin="round" stroke-width="1"/>
        <line id="Línea_2424" data-name="Línea 2424" x1="3.557" y2="5.699" transform="translate(80.187 34.9)" fill="none" stroke="#263238" stroke-linecap="round" stroke-linejoin="round" stroke-width="1"/>
      </g>
      <path id="Trazado_726382" data-name="Trazado 726382" d="M396.294,446.476l1.332-34.066c-34.192,5.345-70.526,0-70.526,0l.995,34.066h68.2Z" transform="translate(-317.085 -310.94)" fill="#263238" stroke="#263238" stroke-linecap="round" stroke-linejoin="round" stroke-width="1"/>
      <path id="Trazado_726383" data-name="Trazado 726383" d="M361.689,294.224s-10.462-.927-12.923,5.235-8.312,35.086-10.774,41.24-.312,12,5.235,14.769,31.7,3.077,36,2.773,10.774-3.389,12-6.466.615-11.077-1.543-14.466-4.308-19.077-8-29.851S373.078,287.766,361.689,294.224Z" transform="translate(-318.636 -292.043)" fill="#263238" stroke="#263238" stroke-linecap="round" stroke-linejoin="round" stroke-width="1"/>
    </g>
  </g>
  <g id="Character_2" data-name="Character 2" transform="translate(151.651 257.629)">
    <g id="Grupo_1012392" data-name="Grupo 1012392">
      <g id="Grupo_1012391" data-name="Grupo 1012391" transform="translate(0 54.152)">
        <path id="Trazado_726384" data-name="Trazado 726384" d="M282.057,439.779C281,430.388,276.611,392,274.714,389.19c-2.158-3.2-25.408-18.7-25.408-18.7l-18.378-.742-18.378.742s-23.242,15.5-25.408,18.7c-1.9,2.807-6.289,41.2-7.343,50.589H282.048Z" transform="translate(-179.8 -369.75)" fill="#636363" stroke="#263238" stroke-linecap="round" stroke-linejoin="round" stroke-width="1"/>
        <g id="Grupo_1012390" data-name="Grupo 1012390" transform="translate(13.345 28.182)">
          <path id="Trazado_726385" data-name="Trazado 726385" d="M211.89,406.87s15.056,6.837,17.535,7.461" transform="translate(-198.183 -403.759)" fill="none" stroke="#263238" stroke-linecap="round" stroke-linejoin="round" stroke-width="1"/>
          <line id="Línea_2425" data-name="Línea 2425" x2="10.335" y2="4.561" transform="translate(28.772 5.598)" fill="none" stroke="#263238" stroke-linecap="round" stroke-linejoin="round" stroke-width="1"/>
          <path id="Trazado_726386" data-name="Trazado 726386" d="M285.4,403.18s-5.842,7.874-7.646,8.911" transform="translate(-208.522 -403.18)" fill="none" stroke="#263238" stroke-linecap="round" stroke-linejoin="round" stroke-width="1"/>
          <path id="Trazado_726387" data-name="Trazado 726387" d="M195.63,403.92s2.023,7.874,4.046,9.745" transform="translate(-195.63 -403.296)" fill="none" stroke="#263238" stroke-linecap="round" stroke-linejoin="round" stroke-width="1"/>
        </g>
      </g>
      <path id="Trazado_726388" data-name="Trazado 726388" d="M227.433,348.58l-1.383,14.584h25.72l-2.748-13.952Z" transform="translate(-187.061 -312.275)" fill="#fff" stroke="#263238" stroke-linecap="round" stroke-linejoin="round" stroke-width="1"/>
      <path id="Trazado_726389" data-name="Trazado 726389" d="M221.124,332.172s-4.325-1.332-3.6,3.987,6.483,8.472,6.483,8.472Z" transform="translate(-185.71 -309.676)" fill="#fff" stroke="#263238" stroke-linecap="round" stroke-linejoin="round" stroke-width="1"/>
      <path id="Trazado_726390" data-name="Trazado 726390" d="M259.933,332.172s4.325-1.332,3.6,3.987-6.483,8.472-6.483,8.472Z" transform="translate(-191.928 -309.676)" fill="#fff" stroke="#263238" stroke-linecap="round" stroke-linejoin="round" stroke-width="1"/>
      <path id="Trazado_726391" data-name="Trazado 726391" d="M220.085,363.38l-4.485,7.056,40.726-.379-3.591-6.508Z" transform="translate(-185.42 -314.598)" fill="#636363" stroke="#263238" stroke-linecap="round" stroke-linejoin="round" stroke-width="1"/>
      <path id="Trazado_726392" data-name="Trazado 726392" d="M266.984,446.97l1.332-31.41c-34.192,4.932-70.526,0-70.526,0l.995,31.41Z" transform="translate(-182.624 -322.79)" fill="#263238" stroke="#263238" stroke-linecap="round" stroke-linejoin="round" stroke-width="1"/>
      <path id="Trazado_726393" data-name="Trazado 726393" d="M246.487,307.315s-7.039-2.706-13.193-1.484S222.444,312.457,220.539,318s.143,12.03.143,12.839a54.4,54.4,0,0,0,2.782,9.593c1.02,2.158,6.011,8.379,6.011,8.379h15.393s6.154-8.245,7.326-9.872,2.934-9.189,3.229-12.434-1.905-12.7-4.105-15.545a10.852,10.852,0,0,0-4.839-3.65Z" transform="translate(-186.068 -305.514)" fill="#263238" stroke="#263238" stroke-linecap="round" stroke-linejoin="round" stroke-width="1"/>
    </g>
  </g>
  <g id="Character_1" data-name="Character 1" transform="translate(37.989 253.707)">
    <g id="Grupo_1012394" data-name="Grupo 1012394">
      <path id="Trazado_726394" data-name="Trazado 726394" d="M59.267,442.179l4.805-34.285V385.04H52.759a20,20,0,0,0-3.1,8.649c-.582,4.637-3.844,39.512-4.687,48.481h14.3Z" transform="translate(-44.97 -314.077)" fill="#fff" stroke="#263238" stroke-linecap="round" stroke-linejoin="round" stroke-width="1"/>
      <path id="Trazado_726395" data-name="Trazado 726395" d="M160.163,442.181c-.835-8.97-4.105-43.845-4.687-48.481a19.941,19.941,0,0,0-3.1-8.649H141.06V407.9l4.805,34.285h14.3Z" transform="translate(-60.055 -314.079)" fill="#fff" stroke="#263238" stroke-linecap="round" stroke-linejoin="round" stroke-width="1"/>
      <path id="Trazado_726396" data-name="Trazado 726396" d="M66.577,439.33h58.918c.818-5.952,3.161-22.795,4.08-27.077l9.163-30.053-7.241-4.223c-.835-.059-2.571-1.669-4.957-2.209-4.881-1.113-18.192-7.545-18.192-7.545l-5.994-.43v-.9l-6.323.455-6.323-.455v.9l-5.994.43s-13.311,6.432-18.192,7.545-9.981,6.651-11.313,6.432l7.983,29.058c.556.556,3.448,21.328,4.375,28.072Z" transform="translate(-46.421 -311.228)" fill="#d1d1d1" stroke="#263238" stroke-linecap="round" stroke-linejoin="round" stroke-width="1"/>
      <path id="Trazado_726397" data-name="Trazado 726397" d="M128.676,446.587l1.2-33.467c-30.559,5.243-63.023,0-63.023,0l.894,33.467Z" transform="translate(-48.405 -318.486)" fill="#263238" stroke="#263238" stroke-linecap="round" stroke-linejoin="round" stroke-width="1"/>
      <g id="Grupo_1012393" data-name="Grupo 1012393" transform="translate(19.111)">
        <path id="Trazado_726398" data-name="Trazado 726398" d="M116.77,338.543c-1.737-10.394-1.037-20.1-4.156-27.727a5.664,5.664,0,0,0-2.192-2.5,12.592,12.592,0,0,0-2.672-3.7c-3.878-3.3-9.695-4.847-14.154-2.908,0,0-4.755-.455-9.349,5.311a1.217,1.217,0,0,0-.388.32s-7.966,11.44-6.93,20.443.346,22.871-2.428,28.763a24.273,24.273,0,0,1-6.862,8.826s6.162,6.761,8.59,15.081,10.049,24.607,19.752,24.953c3.81.135,7.52-2.048,10.706-5.5a72.158,72.158,0,0,0,.447-7.916c0-6.626-.506-11.971-.506-11.971s3.313,6.879,3.06,12.485a20.954,20.954,0,0,1-.843,4.78,40.2,40.2,0,0,0,7.241-18.555c1.383-13.168,7.966-15.25,7.966-15.25s-5.547-14.559-7.275-24.953Z" transform="translate(-67.64 -300.862)" fill="#bdbdbd" stroke="#263238" stroke-linecap="round" stroke-linejoin="round" stroke-width="1"/>
        <path id="Trazado_726399" data-name="Trazado 726399" d="M96.427,401.56a24.563,24.563,0,0,1-.927,5.117" transform="translate(-72.014 -316.671)" fill="none" stroke="#263238" stroke-linecap="round" stroke-linejoin="round" stroke-width="1"/>
        <path id="Trazado_726400" data-name="Trazado 726400" d="M81.94,332.41s.691,15.6,5.547,23.562c3.81,6.264,7.191,21.075,6.955,32.009" transform="translate(-69.885 -305.815)" fill="none" stroke="#263238" stroke-linecap="round" stroke-linejoin="round" stroke-width="1"/>
        <path id="Trazado_726401" data-name="Trazado 726401" d="M84.177,377.33c.337,5.817-2,9-5.117,9.256" transform="translate(-69.433 -312.867)" fill="none" stroke="#263238" stroke-linecap="round" stroke-linejoin="round" stroke-width="1"/>
        <path id="Trazado_726402" data-name="Trazado 726402" d="M81.089,346.38a53.245,53.245,0,0,0,2.082,19.406,32.9,32.9,0,0,1,.9,3.557" transform="translate(-69.725 -308.008)" fill="none" stroke="#263238" stroke-linecap="round" stroke-linejoin="round" stroke-width="1"/>
        <path id="Trazado_726403" data-name="Trazado 726403" d="M115.54,379.22a4.285,4.285,0,0,0,4.249,1.425" transform="translate(-75.16 -313.163)" fill="none" stroke="#263238" stroke-linecap="round" stroke-linejoin="round" stroke-width="1"/>
        <path id="Trazado_726404" data-name="Trazado 726404" d="M119.8,329.12s-5.547,17.669-7.966,26.681a18.65,18.65,0,0,0,1.045,12.67" transform="translate(-74.476 -305.298)" fill="none" stroke="#263238" stroke-linecap="round" stroke-linejoin="round" stroke-width="1"/>
        <path id="Trazado_726405" data-name="Trazado 726405" d="M101.12,370.94c-.143,1.534-.236,3.069-.27,4.594" transform="translate(-72.854 -311.864)" fill="none" stroke="#263238" stroke-linecap="round" stroke-linejoin="round" stroke-width="1"/>
        <path id="Trazado_726406" data-name="Trazado 726406" d="M107.548,338.57a123.254,123.254,0,0,0-5.968,24.186" transform="translate(-72.968 -306.782)" fill="none" stroke="#263238" stroke-linecap="round" stroke-linejoin="round" stroke-width="1"/>
        <path id="Trazado_726407" data-name="Trazado 726407" d="M117.315,309.7s-3.7-1.315-5.775,4.578" transform="translate(-74.532 -302.229)" fill="none" stroke="#263238" stroke-linecap="round" stroke-linejoin="round" stroke-width="1"/>
      </g>
    </g>
  </g>
  <g id="Line" transform="translate(0.5 381.809)">
    <line id="Línea_2426" data-name="Línea 2426" x2="610" fill="none" stroke="#263238" stroke-linecap="round" stroke-linejoin="round" stroke-width="1"/>
  </g>
</svg>
