<svg xmlns="http://www.w3.org/2000/svg" xmlns:xlink="http://www.w3.org/1999/xlink" width="85" height="74" viewBox="0 0 85 74">
  <defs>
    <filter id="Elipse_7683" x="7" y="3" width="71" height="71" filterUnits="userSpaceOnUse">
      <feOffset dy="3" input="SourceAlpha"/>
      <feGaussianBlur stdDeviation="3" result="blur"/>
      <feFlood flood-opacity="0.161"/>
      <feComposite operator="in" in2="blur"/>
      <feComposite in="SourceGraphic"/>
    </filter>
  </defs>
  <g id="Grupo_1011535" data-name="Grupo 1011535" transform="translate(0 2)">
    <rect id="Rectángulo_345292" data-name="Rectángulo 345292" width="85" height="71" rx="5" transform="translate(0 -2)" fill="#4db1f0"/>
    <g id="Grupo_1003705" data-name="Grupo 1003705" transform="translate(16.005 7.005)">
      <g transform="matrix(1, 0, 0, 1, -16.01, -9.01)" filter="url(#Elipse_7683)">
        <circle id="Elipse_7683-2" data-name="Elipse 7683" cx="26.5" cy="26.5" r="26.5" transform="translate(16 9)" fill="#bfe5f9"/>
      </g>
    </g>
    <g id="ley" transform="translate(17.519 11.495)">
      <g id="Grupo_1011525" data-name="Grupo 1011525" transform="translate(9.628 28.183)">
        <g id="Grupo_1011516" data-name="Grupo 1011516" transform="translate(0 2.531)">
          <path id="Trazado_722383" data-name="Trazado 722383" d="M111,358.752a7.775,7.775,0,0,0,1.7,5.306h-3.692a.921.921,0,0,1-.753-.385,9.392,9.392,0,0,1,0-9.842.921.921,0,0,1,.753-.385H112.7A7.776,7.776,0,0,0,111,358.752Z" transform="translate(-106.86 -353.445)" fill="#fb3a82"/>
          <path id="Trazado_722384" data-name="Trazado 722384" d="M112.7,353.445A7.711,7.711,0,0,0,111,358.6l-3.464,3.752a9.317,9.317,0,0,1-.673-3.6,8.42,8.42,0,0,1,1.392-4.921.921.921,0,0,1,.753-.385H112.7Z" transform="translate(-106.861 -353.445)" fill="#fb1466"/>
          <path id="Trazado_722385" data-name="Trazado 722385" d="M171.832,358.749a8.057,8.057,0,0,0,1.934,5.306h-29.6a9.124,9.124,0,0,1,0-10.612h29.6A8.058,8.058,0,0,0,171.832,358.749Z" transform="translate(-139.256 -353.443)" fill="#e0d3ce"/>
          <g id="Grupo_1011515" data-name="Grupo 1011515" transform="translate(3.208 0)">
            <path id="Trazado_722386" data-name="Trazado 722386" d="M148.151,353.445l-5.657,6.127c-.019-.262-.031-.536-.031-.821a7.776,7.776,0,0,1,1.7-5.306Z" transform="translate(-142.464 -353.445)" fill="#cdbfbb"/>
            <path id="Trazado_722387" data-name="Trazado 722387" d="M432.989,358.757a8.056,8.056,0,0,0,1.934,5.306h-3.507a8.244,8.244,0,0,1,0-10.612h3.507A8.053,8.053,0,0,0,432.989,358.757Z" transform="translate(-403.62 -353.45)" fill="#cdbfbb"/>
          </g>
        </g>
        <g id="Grupo_1011520" data-name="Grupo 1011520" transform="translate(3.994)">
          <g id="Grupo_1011518" data-name="Grupo 1011518" transform="translate(0)">
            <path id="Trazado_722388" data-name="Trazado 722388" d="M183.7,326.893a1.54,1.54,0,0,1-1.54,1.54H152.729a1.54,1.54,0,0,1,0-3.081h29.429A1.54,1.54,0,0,1,183.7,326.893Z" transform="translate(-151.189 -325.352)" fill="#fb3a82"/>
            <g id="Grupo_1011517" data-name="Grupo 1011517" transform="translate(0)">
              <path id="Trazado_722389" data-name="Trazado 722389" d="M158.426,325.352l-2.843,3.081h-2.854a1.54,1.54,0,0,1,0-3.081Z" transform="translate(-151.189 -325.352)" fill="#fb1466"/>
              <path id="Trazado_722390" data-name="Trazado 722390" d="M466.269,326.9a1.542,1.542,0,0,1-1.541,1.541H461.74a1.54,1.54,0,0,0,0-3.081h2.987A1.541,1.541,0,0,1,466.269,326.9Z" transform="translate(-433.759 -325.356)" fill="#fb1466"/>
            </g>
          </g>
          <g id="Grupo_1011519" data-name="Grupo 1011519" transform="translate(0 12.594)">
            <path id="Trazado_722391" data-name="Trazado 722391" d="M182.155,468.206H152.726a1.54,1.54,0,1,1,0-3.081h29.429a1.54,1.54,0,1,1,0,3.081Z" transform="translate(-151.186 -465.125)" fill="#fb3a82"/>
            <path id="Trazado_722392" data-name="Trazado 722392" d="M466.269,466.67a1.54,1.54,0,0,1-1.541,1.54H461.74a1.54,1.54,0,1,0,0-3.08h2.987A1.541,1.541,0,0,1,466.269,466.67Z" transform="translate(-433.758 -465.13)" fill="#fb1466"/>
          </g>
        </g>
        <g id="Grupo_1011524" data-name="Grupo 1011524" transform="translate(3.245 5.549)">
          <g id="Grupo_1011521" data-name="Grupo 1011521" transform="translate(0)">
            <path id="Trazado_722393" data-name="Trazado 722393" d="M157.609,387.631a.7.7,0,0,1-.7.7H142.876a9.6,9.6,0,0,1,.216-1.392h13.82A.7.7,0,0,1,157.609,387.631Z" transform="translate(-142.876 -386.935)" fill="#cdbfbb"/>
          </g>
          <g id="Grupo_1011522" data-name="Grupo 1011522" transform="translate(19.077 0)">
            <path id="Trazado_722394" data-name="Trazado 722394" d="M365.168,386.936a8.231,8.231,0,0,0-.268,1.392H355.3a.7.7,0,1,1,0-1.392h9.873Z" transform="translate(-354.599 -386.936)" fill="#cdbfbb"/>
          </g>
          <g id="Grupo_1011523" data-name="Grupo 1011523" transform="translate(5.211 3.162)">
            <path id="Trazado_722395" data-name="Trazado 722395" d="M217.623,423.426H201.4a.7.7,0,1,1,0-1.392h16.218a.7.7,0,0,1,0,1.392Z" transform="translate(-200.708 -422.034)" fill="#cdbfbb"/>
          </g>
        </g>
      </g>
      <g id="Grupo_1011534" data-name="Grupo 1011534" transform="translate(0 0)">
        <g id="Grupo_1011528" data-name="Grupo 1011528" transform="translate(0 17.7)">
          <g id="Grupo_1011526" data-name="Grupo 1011526" transform="translate(0 5.892)">
            <path id="Trazado_722396" data-name="Trazado 722396" d="M20.276,276.886,17.789,274.4.862,290.025a2.68,2.68,0,1,0,3.788,3.788Z" transform="translate(0 -274.399)" fill="#873f30"/>
            <path id="Trazado_722397" data-name="Trazado 722397" d="M5.905,301.614a2.681,2.681,0,0,1-3.79,0,2.654,2.654,0,0,1-.654-1.068,2.677,2.677,0,0,0,2.72-.651c.026-.026.051-.053.076-.079l15.627-16.927,1.722,1.722L5.98,301.536l-.075.078Z" transform="translate(-1.33 -282.122)" fill="#6c3328"/>
          </g>
          <path id="Trazado_722398" data-name="Trazado 722398" d="M194.389,209.008l-5.726,6.83L191,218.177l6.83-5.726Z" transform="translate(-171.664 -209.008)" fill="#873f30"/>
          <path id="Trazado_722399" data-name="Trazado 722399" d="M203.694,209.008l-1.85,2.207.555.555a1.046,1.046,0,0,1,0,1.48l-3.509,3.509,1.418,1.418,6.83-5.726Z" transform="translate(-180.969 -209.008)" fill="#6c3328"/>
          <g id="Grupo_1011527" data-name="Grupo 1011527" transform="translate(15.104 5.432)">
            <path id="Trazado_722400" data-name="Trazado 722400" d="M170.4,274.432l-2.271-2.271a1.681,1.681,0,0,1,2.377-2.377l2.271,2.271a1.681,1.681,0,1,1-2.377,2.377Z" transform="translate(-167.633 -269.292)" fill="#ba5d4f"/>
            <path id="Trazado_722401" data-name="Trazado 722401" d="M183.287,284.952a1.681,1.681,0,0,1-2.377,0l-1.721-1.721a1.681,1.681,0,0,0,2.377-2.377l1.721,1.721A1.68,1.68,0,0,1,183.287,284.952Z" transform="translate(-178.148 -279.812)" fill="#a34f41"/>
          </g>
        </g>
        <g id="Grupo_1011531" data-name="Grupo 1011531" transform="translate(17.776 2.089)">
          <g id="Grupo_1011529" data-name="Grupo 1011529" transform="translate(0 0)">
            <path id="Trazado_722402" data-name="Trazado 722402" d="M0,0H7.13V11.194H0Z" transform="translate(7.915 0) rotate(45)" fill="#ba5d4f"/>
          </g>
          <g id="Grupo_1011530" data-name="Grupo 1011530" transform="translate(11.043 11.05)">
            <path id="Trazado_722403" data-name="Trazado 722403" d="M0,0H7.13V11.194H0Z" transform="translate(5.042 12.957) rotate(-135)" fill="#a34f41"/>
          </g>
        </g>
        <g id="Grupo_1011533" data-name="Grupo 1011533" transform="translate(15.685)">
          <path id="Trazado_722404" data-name="Trazado 722404" d="M174.754,24.307l-.175-.175a1.7,1.7,0,0,1,0-2.4l8.664-8.663a1.7,1.7,0,0,1,2.4,0l.175.175a1.7,1.7,0,0,1,0,2.4l-8.664,8.663A1.7,1.7,0,0,1,174.754,24.307Z" transform="translate(-174.081 -12.565)" fill="#873f30"/>
          <path id="Trazado_722405" data-name="Trazado 722405" d="M351.526,201.079l.175.175a1.7,1.7,0,0,0,2.4,0l8.664-8.663a1.7,1.7,0,0,0,0-2.4l-.175-.175a1.7,1.7,0,0,0-2.4,0l-8.664,8.663A1.7,1.7,0,0,0,351.526,201.079Z" transform="translate(-335.084 -173.569)" fill="#6c3328"/>
          <g id="Grupo_1011532" data-name="Grupo 1011532" transform="translate(4.379 4.378)">
            <path id="Trazado_722406" data-name="Trazado 722406" d="M0,0H8.007V16.906H0Z" transform="translate(12.858 0.9) rotate(45)" fill="#fcc16d"/>
            <path id="Trazado_722407" data-name="Trazado 722407" d="M0,0H16.906V4.053H0Z" transform="translate(3.696 15.657) rotate(-45)" fill="#fca62f"/>
            <path id="Trazado_722408" data-name="Trazado 722408" d="M235.561,61.823l-1.387-.567a1.276,1.276,0,0,0-1.385.279l-9.74,9.74a1.275,1.275,0,0,0-.279,1.384l.567,1.387a.85.85,0,0,0,1.388.279L235.84,63.211A.85.85,0,0,0,235.561,61.823Z" transform="translate(-222.676 -61.161)" fill="#873f30"/>
            <path id="Trazado_722409" data-name="Trazado 722409" d="M302.151,128.414l.567,1.387a1.275,1.275,0,0,1-.279,1.385l-9.74,9.74a1.275,1.275,0,0,1-1.385.279l-1.387-.567a.85.85,0,0,1-.279-1.388l11.114-11.114A.85.85,0,0,1,302.151,128.414Z" transform="translate(-283.387 -121.873)" fill="#6c3328"/>
          </g>
        </g>
      </g>
    </g>
  </g>
</svg>
