<svg xmlns="http://www.w3.org/2000/svg" xmlns:xlink="http://www.w3.org/1999/xlink" width="113" height="113" viewBox="0 0 113 113">
  <defs>
    <clipPath id="clip-path">
      <circle id="Elipse_7765" data-name="Elipse 7765" cx="49.5" cy="49.5" r="49.5" fill="#ffa031" opacity="0.23"/>
    </clipPath>
    <clipPath id="clip-path-2">
      <rect id="Rect치ngulo_347947" data-name="Rect치ngulo 347947" width="103.063" height="343.54" fill="none"/>
    </clipPath>
    <clipPath id="clip-path-4">
      <rect id="Rect치ngulo_347945" data-name="Rect치ngulo 347945" width="14.075" height="7.474" fill="none"/>
    </clipPath>
  </defs>
  <g id="Grupo_1013495" data-name="Grupo 1013495" transform="translate(0 -35.827)">
    <circle id="Elipse_5222" data-name="Elipse 5222" cx="56.5" cy="56.5" r="56.5" transform="translate(0 35.827)" fill="#0098e8"/>
    <g id="Enmascarar_grupo_1011263" data-name="Enmascarar grupo 1011263" transform="translate(6.999 42.827)" clip-path="url(#clip-path)">
      <g id="Grupo_1011943" data-name="Grupo 1011943" transform="translate(-3.999 5.351)">
        <g id="Grupo_1011942" data-name="Grupo 1011942" clip-path="url(#clip-path-2)">
          <g id="Grupo_1011941" data-name="Grupo 1011941">
            <g id="Grupo_1011940" data-name="Grupo 1011940" clip-path="url(#clip-path-2)">
              <path id="Trazado_725204" data-name="Trazado 725204" d="M40.271,58.958c-3.6-.674-7.294-.053-10.886.638a26.926,26.926,0,0,0-8.641,2.754c-5.134,3.006-7.8,8.822-10.168,14.282l-7.5,17.317C1.159,98.385-.8,103.217.335,107.915c1.463,6.046,7.979,9.919,14.2,9.86,1.833,9.232,1.84,23.475,3.951,31.181.168.611,25.458,4.54,34.72,4.581,5.451.024,22.108-.785,22.423-1.446,3.3-6.934,1.7-22.207,5-29.141,4.642,1.892,13.065-2.032,15.25-6.543S96.251,106,96,101c-.46-8.976-4.053-16.747-4.513-25.723a16.822,16.822,0,0,0-1.246-6.623,12.736,12.736,0,0,0-4.761-4.86c-5.943-3.811-13.169-5.029-20.211-5.539a120,120,0,0,0-26.391,1.005Z" fill="#8e571f"/>
              <path id="Trazado_725205" data-name="Trazado 725205" d="M42.5,62.713a14.467,14.467,0,0,0-1.427,4.138,5.056,5.056,0,0,0,.644,4.106,6.069,6.069,0,0,0,3.04,1.652,32.582,32.582,0,0,0,7.008,1.638,10.933,10.933,0,0,0,6.918-1.5,12.135,12.135,0,0,0,3.24-3.413,7.614,7.614,0,0,0,1.468-3.475,5.73,5.73,0,0,0-2.843-5.127,11.069,11.069,0,0,0-5.922-1.414A21.36,21.36,0,0,0,42.45,63.171Z" fill="#512d0c"/>
              <path id="Trazado_725206" data-name="Trazado 725206" d="M22.142,305.715q.256,6.031.3,12.068a4.435,4.435,0,0,1-.59,2.745,4.87,4.87,0,0,1-2.13,1.45,8.382,8.382,0,0,1-4.14.713,11.064,11.064,0,0,1-3.518-1.254L9.2,320.027a1.78,1.78,0,0,1-.451-.281,1.325,1.325,0,0,1-.313-.874q-.5-5.139-1.009-10.279Z" fill="#685434"/>
              <path id="Trazado_725207" data-name="Trazado 725207" d="M10.463,311.95v9.839a.368.368,0,0,0,.736,0V311.95a.368.368,0,0,0-.736,0" fill="#c2b38c"/>
              <path id="Trazado_725208" data-name="Trazado 725208" d="M12.363,312.055a48.263,48.263,0,0,1,.908,9.092.368.368,0,0,0,.736,0,49.263,49.263,0,0,0-.935-9.288c-.092-.464-.8-.267-.709.2" fill="#c2b38c"/>
              <path id="Trazado_725209" data-name="Trazado 725209" d="M16.458,311.094q.346,4.917.694,9.835c.033.47.77.473.736,0q-.347-4.917-.694-9.835c-.033-.47-.77-.474-.736,0" fill="#c2b38c"/>
              <path id="Trazado_725210" data-name="Trazado 725210" d="M19,310.24q.25,4.49.5,8.979c.026.471.762.474.736,0q-.252-4.489-.5-8.979c-.026-.471-.762-.474-.736,0" fill="#c2b38c"/>
              <path id="Trazado_725211" data-name="Trazado 725211" d="M56.381,306.8c.023,3.99-.154,7.982-.529,11.954a24.228,24.228,0,0,0,16.7,1.555,2.454,2.454,0,0,1-.478-1.645l-.549-13.128-7.446,1.007a29.074,29.074,0,0,1-7.933.343Z" fill="#685434"/>
              <path id="Trazado_725212" data-name="Trazado 725212" d="M58.706,307.457q-.123,5.24.1,10.48c.019.472.755.474.736,0q-.219-5.236-.1-10.48a.368.368,0,0,0-.736,0" fill="#c2b38c"/>
              <path id="Trazado_725213" data-name="Trazado 725213" d="M61.442,306.9a57.582,57.582,0,0,1,.7,12.537c-.025.473.711.472.736,0a58.442,58.442,0,0,0-.725-12.733c-.078-.466-.788-.268-.71.2" fill="#c2b38c"/>
              <path id="Trazado_725214" data-name="Trazado 725214" d="M65.821,307.458q.365,6.516.191,13.047a.368.368,0,0,0,.736,0q.175-6.525-.192-13.047c-.025-.471-.762-.474-.735,0" fill="#c2b38c"/>
              <path id="Trazado_725215" data-name="Trazado 725215" d="M69.231,307.886q.146,6.638-.363,13.265c-.036.473.7.47.736,0q.509-6.619.363-13.265a.368.368,0,0,0-.736,0" fill="#c2b38c"/>
              <path id="Trazado_725216" data-name="Trazado 725216" d="M14.886,168.558c-4.219,16.869-5.406,34.326-6.577,51.675Q6.907,241.017,5.5,261.8c-.845,12.53-4.95,47.844-2.867,52.254,7.143-1.065,21.6,1.554,28.455-.734a3.832,3.832,0,0,0,1.894-1.081,3.908,3.908,0,0,0,.53-2.553c-.135-5.583,10.209-99.7,13.818-114,5.423,15.056,8.634,49.114,6.632,64.991s-4.806,31.944-2.505,47.78l9.882,1.707a44.864,44.864,0,0,0,9.4.949c5.546-.224,10.781-2.482,15.867-4.7-3.472-11.881-3.148-24.5-2.69-36.865,1.074-29.005-6.281-117.379-8.154-117.366-7.825.052-17.318,1.257-26.539.514-10.836-.873-21.439-3.717-30.636-3.656Z" fill="#c2b38c"/>
              <path id="Trazado_725217" data-name="Trazado 725217" d="M7.558,319.9a21.083,21.083,0,0,1-.862,9.9c-.563,1.665-1.336,3.261-1.769,4.965a7.258,7.258,0,0,0,.328,5.144c1.572,2.971,5.519,3.555,8.879,3.614q3.242.057,6.482-.093a7.126,7.126,0,0,0,3.934-.993c1.692-1.233,2.013-3.687,1.515-5.721s-1.636-3.847-2.355-5.814a18.763,18.763,0,0,1-.912-8.037c.138-1.6.42-3.28-.54-4.722a2.319,2.319,0,0,0-1.827-1.073c-1.828-.059-2.268,2.07-3.694,2.713a4.128,4.128,0,0,1-2.813-.136L9.639,318.4A1.627,1.627,0,0,0,7.558,319.9" fill="#a86814"/>
              <path id="Trazado_725218" data-name="Trazado 725218" d="M55.237,317.568a31.453,31.453,0,0,1,12.989,1.38,14.469,14.469,0,0,0,2.754.747c.812.1,1.639.022,2.448.14,3.362.491,5.3,3.923,7.566,6.454,4.064,4.538,10.256,6.7,16.331,7.15a10.112,10.112,0,0,1,3.957.759,2.926,2.926,0,0,1,1.662,3.324c-.47,1.312-2.044,1.8-3.414,2.058a64.006,64.006,0,0,1-23.055.157,13.293,13.293,0,0,1-4.621-1.481,8.778,8.778,0,0,0-2.976-1.59c-1.12-.173-1.86,1.671-1.454,2.73l-15.273-.078-.178-6.074a8.516,8.516,0,0,1,.033-6.492c1.483-3.344,3.231-9.184,3.231-9.184" fill="#a86814"/>
              <path id="Trazado_725219" data-name="Trazado 725219" d="M5.643,336.812a37.3,37.3,0,0,0,8.8,3.944,13.511,13.511,0,0,0,8.149-.286,9.264,9.264,0,0,0,3.624-2.459c.313-.353-.206-.876-.521-.521a9.662,9.662,0,0,1-6.775,3,17.64,17.64,0,0,1-8.282-1.9c-1.582-.727-3.105-1.572-4.626-2.419-.414-.23-.785.4-.371.636" fill="#661019"/>
              <path id="Trazado_725220" data-name="Trazado 725220" d="M9.831,320a20.719,20.719,0,0,1,4.908,15.529,19.541,19.541,0,0,1-1.011,4.575c-.156.448.554.641.71.2a21.449,21.449,0,0,0-1.324-16.8,20.31,20.31,0,0,0-2.763-4.02c-.313-.357-.832.165-.52.52" fill="#661019"/>
              <path id="Trazado_725221" data-name="Trazado 725221" d="M17.977,340.213q.729-8.763,1.459-17.526.208-2.495.416-4.99c.039-.472-.7-.469-.736,0q-.729,8.763-1.459,17.526-.208,2.494-.416,4.99c-.039.472.7.469.736,0" fill="#661019"/>
              <path id="Trazado_725222" data-name="Trazado 725222" d="M52.712,337.464l14.116.452c.473.015.473-.721,0-.736l-14.116-.452c-.474-.015-.473.721,0,.736" fill="#661019"/>
              <path id="Trazado_725223" data-name="Trazado 725223" d="M71.783,338.5c7.835,1.2,15.785,1.055,23.674.586,2.239-.133,4.477-.29,6.715-.449.47-.033.473-.769,0-.735-7.857.555-15.749,1.11-23.625.6-2.2-.143-4.391-.372-6.568-.707-.464-.071-.663.638-.2.71" fill="#661019"/>
              <path id="Trazado_725224" data-name="Trazado 725224" d="M98.391,333.65a7.6,7.6,0,0,0-4.836,4.913c-.141.454.569.648.71.2a6.824,6.824,0,0,1,4.322-4.4c.447-.148.256-.859-.2-.71" fill="#661019"/>
              <path id="Trazado_725225" data-name="Trazado 725225" d="M51.951,327.243c3.963,1.3,5.128,5.832,5.677,9.479.07.466.779.268.71-.2a17.538,17.538,0,0,0-1.921-6.357,7.958,7.958,0,0,0-4.27-3.636c-.452-.147-.645.563-.2.71" fill="#661019"/>
              <path id="Trazado_725226" data-name="Trazado 725226" d="M71.447,320.585a9.2,9.2,0,0,1,4.094,3.549,49.864,49.864,0,0,0,3.508,4.647,15.084,15.084,0,0,0,4.669,3.535,18.5,18.5,0,0,0,5.839,1.33c2.2.243,4.49.48,6.4,1.7.4.255.77-.381.371-.636-3.483-2.224-7.864-1.339-11.612-2.765a13.631,13.631,0,0,1-4.878-3.4,40.947,40.947,0,0,1-3.553-4.633,10.256,10.256,0,0,0-4.643-4.039c-.447-.159-.64.552-.2.71" fill="#661019"/>
              <path id="Trazado_725227" data-name="Trazado 725227" d="M88.293,330.31a11.536,11.536,0,0,0-5.318,3.911.37.37,0,0,0,.132.5.377.377,0,0,0,.5-.132,10.654,10.654,0,0,1,4.878-3.572c.442-.159.251-.87-.2-.71" fill="#fff"/>
              <path id="Trazado_725228" data-name="Trazado 725228" d="M85.947,327.749a10.46,10.46,0,0,0-5.9,4.59.368.368,0,0,0,.635.371,9.685,9.685,0,0,1,5.457-4.251c.452-.138.259-.848-.2-.71" fill="#fff"/>
              <path id="Trazado_725229" data-name="Trazado 725229" d="M82.265,326.231c-.981-.9-2.481.276-3.309.866a14.466,14.466,0,0,0-2.946,2.8c-.29.368.228.892.522.521a13.809,13.809,0,0,1,2.483-2.456,13.524,13.524,0,0,1,1.415-.942c.325-.188.961-.593,1.313-.27s.872-.2.522-.52" fill="#fff"/>
              <path id="Trazado_725230" data-name="Trazado 725230" d="M79.8,323.6a.813.813,0,0,0-.316-.829c-.269-.182-.63.011-.9.11a9.585,9.585,0,0,0-4.465,3.307.37.37,0,0,0,.132.5.375.375,0,0,0,.5-.132,8.921,8.921,0,0,1,4.591-3.151l-.283-.038c.005.233.081.427.289.487a.37.37,0,0,0,.453-.257" fill="#fff"/>
              <path id="Trazado_725231" data-name="Trazado 725231" d="M87.392,335.722a18.335,18.335,0,0,1,4.992-3.079.378.378,0,0,0,.257-.452.368.368,0,0,0-.452-.257,19.379,19.379,0,0,0-5.317,3.268c-.359.31.163.829.52.52" fill="#fff"/>
              <path id="Trazado_725232" data-name="Trazado 725232" d="M11.835,337.087a15.192,15.192,0,0,1,8.989.349c.448.158.64-.553.2-.71a15.9,15.9,0,0,0-9.381-.349.369.369,0,0,0,.2.71" fill="#fff"/>
              <path id="Trazado_725233" data-name="Trazado 725233" d="M11.526,333.146a15.029,15.029,0,0,1,8.809-.435.368.368,0,0,0,.2-.71,15.736,15.736,0,0,0-9.2.435c-.442.16-.251.871.2.71" fill="#fff"/>
              <path id="Trazado_725234" data-name="Trazado 725234" d="M11.634,328.907a13.355,13.355,0,0,1,8.513-1.436c.464.077.663-.632.2-.71a14.182,14.182,0,0,0-9.08,1.511c-.417.225-.046.861.371.635" fill="#fff"/>
              <path id="Trazado_725235" data-name="Trazado 725235" d="M11.045,324.291a12.231,12.231,0,0,1,9.313-1.51c.46.112.656-.6.2-.709a12.986,12.986,0,0,0-9.881,1.583c-.4.251-.031.888.372.636" fill="#fff"/>
              <path id="Trazado_725236" data-name="Trazado 725236" d="M19.618,155.981c-4.132,7.989-4.952,17.051-5.042,25.907-.046,4.54.087,9.08.062,13.621-.028,5.092-.328,10.176-.8,15.246-.964,10.309-2.574,20.545-3.8,30.824q-1.83,15.354-2.88,30.787-1.056,15.5-1.323,31.042-.033,1.943-.054,3.884a.368.368,0,0,0,.736,0q.17-15.387,1.107-30.752t2.653-30.657c1.141-10.193,2.7-20.334,3.824-30.527.564-5.089,1-10.2,1.184-15.312.163-4.638.06-9.277.027-13.916-.064-8.929.108-18.16,3.468-26.569.437-1.093.933-2.161,1.474-3.206.218-.42-.417-.793-.635-.372" fill="#685434"/>
              <path id="Trazado_725237" data-name="Trazado 725237" d="M3.487,307.87a43.8,43.8,0,0,0,11.023,1.312c3.766-.028,7.525-.422,11.275-.733l6.312-.524c.468-.039.472-.776,0-.736-3.715.308-7.43.626-11.146.923a62.06,62.06,0,0,1-11.215.119,41.957,41.957,0,0,1-6.054-1.071.368.368,0,0,0-.195.71" fill="#685434"/>
              <path id="Trazado_725238" data-name="Trazado 725238" d="M51.621,305.046a34.687,34.687,0,0,0,6.4,1.536,22.03,22.03,0,0,0,3.3.043,11.214,11.214,0,0,1,3.327.311,20.4,20.4,0,0,0,3.094.629,14.962,14.962,0,0,0,3.037-.019,23.323,23.323,0,0,0,6.085-1.582,63.791,63.791,0,0,0,6.517-3.116c.418-.222.047-.857-.372-.635-3.646,1.937-7.441,3.894-11.571,4.513a14.842,14.842,0,0,1-6.1-.37,12.033,12.033,0,0,0-3.112-.487c-1.115,0-2.225.112-3.34.049a29.747,29.747,0,0,1-7.068-1.582c-.454-.14-.648.57-.2.71" fill="#685434"/>
              <path id="Trazado_725239" data-name="Trazado 725239" d="M21.184,239.382q2.328,6.162,4.09,12.518.5,1.793.946,3.6a.369.369,0,0,0,.71-.2q-1.594-6.391-3.765-12.619-.612-1.757-1.271-3.5c-.166-.439-.878-.248-.71.2" fill="#685434"/>
              <path id="Trazado_725240" data-name="Trazado 725240" d="M24.587,237.492,28.423,251a.369.369,0,0,0,.71-.2Q27.215,244.051,25.3,237.3a.369.369,0,0,0-.71.2" fill="#685434"/>
              <path id="Trazado_725241" data-name="Trazado 725241" d="M55.329,162.027q-1.092,5.556-1.64,11.2-.276,2.853-.409,5.718c-.043.927-.062,1.854-.095,2.781a1.219,1.219,0,0,1-.321.973,5.428,5.428,0,0,1-1.16.568l-6.011,2.74.563.323q.312-10.187,1.335-20.336.291-2.888.641-5.77c.058-.477-.691-.473-.748,0q-1.224,10.117-1.741,20.305-.147,2.9-.235,5.8a.379.379,0,0,0,.563.323l5.443-2.481c.444-.2.891-.4,1.331-.607a1.791,1.791,0,0,0,.845-.7,2.316,2.316,0,0,0,.24-1.042c.024-.512.027-1.026.044-1.539a113.618,113.618,0,0,1,.99-11.564q.45-3.263,1.087-6.5c.092-.47-.629-.672-.722-.2" fill="#685434"/>
              <path id="Trazado_725242" data-name="Trazado 725242" d="M47.323,185.6v8.6a.374.374,0,0,0,.748,0v-8.6a.374.374,0,0,0-.748,0" fill="#685434"/>
              <path id="Trazado_725243" data-name="Trazado 725243" d="M42.308,188.574a46.18,46.18,0,0,1,12.411-.171c.477.057.473-.692,0-.749a46.877,46.877,0,0,0-12.61.2c-.475.072-.273.793.2.722" fill="#685434"/>
              <path id="Trazado_725244" data-name="Trazado 725244" d="M50.978,187.5c1,7.536,1.992,15.075,3.336,22.558q1.01,5.622,2.317,11.182c.837,3.592,1.7,7.182,2.287,10.827,1.22,7.646.88,15.463.712,23.174q-.25,11.523-.815,23.036Q58.177,291.3,57.14,304.3c-.038.48.711.478.749,0q1.839-23.094,2.424-46.265c.1-3.871.182-7.743.207-11.615a97.872,97.872,0,0,0-.469-11.524c-.826-7.4-3.01-14.584-4.426-21.881-1.641-8.449-2.771-16.985-3.9-25.514-.062-.471-.811-.477-.748,0" fill="#685434"/>
              <path id="Trazado_725245" data-name="Trazado 725245" d="M57.465,243.442l14.451-.254a.375.375,0,0,0,0-.749l-14.451.255a.374.374,0,0,0,0,.748" fill="#685434"/>
              <path id="Trazado_725246" data-name="Trazado 725246" d="M56.747,247.586a14.4,14.4,0,0,1,8.421-.244.375.375,0,0,0,.2-.722,15.131,15.131,0,0,0-8.819.244c-.454.154-.259.877.2.722" fill="#685434"/>
              <path id="Trazado_725247" data-name="Trazado 725247" d="M9.407,242.608l7.417-.483c.478-.031.482-.78,0-.749l-7.417.484c-.478.031-.482.779,0,.748" fill="#685434"/>
              <path id="Trazado_725248" data-name="Trazado 725248" d="M10.58,244.969h.781a.391.391,0,0,0,.265-.109.374.374,0,0,0-.265-.639H10.58a.391.391,0,0,0-.265.109.386.386,0,0,0-.109.265.38.38,0,0,0,.374.374" fill="#685434"/>
              <path id="Trazado_725249" data-name="Trazado 725249" d="M69.091,159.566a28.261,28.261,0,0,0,6.043,9.914,27.658,27.658,0,0,0,2.418,2.276c.367.307.9-.22.529-.529a27.546,27.546,0,0,1-7.013-8.891,26.665,26.665,0,0,1-1.255-2.969c-.16-.451-.883-.257-.722.2" fill="#685434"/>
              <path id="Trazado_725250" data-name="Trazado 725250" d="M27.808,158.154a56.792,56.792,0,0,1-7.146,12.6q-1.238,1.648-2.6,3.2c-.314.361.212.892.53.529a57.445,57.445,0,0,0,8.21-12.293q.932-1.884,1.723-3.833c.183-.446-.542-.64-.721-.2" fill="#685434"/>
              <path id="Trazado_725251" data-name="Trazado 725251" d="M36.529,19.711q-.135,8.286.259,16.571a30.437,30.437,0,0,0,1.151,8.043c1.489,4.555,4.9,8.185,8.2,11.653,1.541,1.615,3.338,3.347,5.57,3.366,2.434.02,4.34-1.989,5.92-3.84,3.378-3.96,6.847-8.086,8.277-13.091a33.208,33.208,0,0,0,.966-8.57q.147-8.559-.513-17.1L63.019,15.7A30.749,30.749,0,0,0,36.529,19.711Z" fill="#fed5b7"/>
              <path id="Trazado_725252" data-name="Trazado 725252" d="M42.1,50.415a106.131,106.131,0,0,0,1.115,15.278,1.729,1.729,0,0,0,.23.747,1.691,1.691,0,0,0,.645.488,18.843,18.843,0,0,0,12.572,2.036A4.835,4.835,0,0,0,60.044,66.9a5.688,5.688,0,0,0,.5-2.363l1.107-17.122A52.874,52.874,0,0,0,40.58,50.1a.92.92,0,0,0,.751.584Z" fill="#fed5b7"/>
              <path id="Trazado_725253" data-name="Trazado 725253" d="M60.342,16.67c2.881-2.113,5.121-5.886,3.776-9.2-1.19-2.929-4.63-4.226-7.768-4.6a15.288,15.288,0,0,0-5.784.273,34.109,34.109,0,0,0-5.621,2.5,10.6,10.6,0,0,1-5.93,1.3c-2.033-.289-4.006-1.845-4.164-3.893-.561,2.846-1.038,6.088.714,8.4,1.6,2.1,4.54,2.674,7.177,2.509s5.241-.9,7.878-.755a15.421,15.421,0,0,1,7.27,2.524c1.1.692,2.556,1.479,3.559.66Z" fill="#512d0c"/>
              <path id="Trazado_725254" data-name="Trazado 725254" d="M62.954,9.273c3.308-.647,6.5,2.165,7.492,5.385s.373,6.691-.256,10l-1.707,8.976c-.135.707-.626,1.628-1.292,1.356q-.9-7.076-1.8-14.15A5.134,5.134,0,0,0,64.3,17.78a5.148,5.148,0,0,0-3.316-1.108c-6.059-.539-12.279-1.064-18.129.6a7.679,7.679,0,0,0-3.244,1.612c-2.772,2.614-1.317,7.357-2.857,10.843a15.407,15.407,0,0,1-3.837-12.739,8.852,8.852,0,0,1,1.585-4.03A10.836,10.836,0,0,1,39.949,9.7a40.214,40.214,0,0,1,23.18-.413Z" fill="#512d0c"/>
              <path id="Trazado_725255" data-name="Trazado 725255" d="M68.23,29.413a2.072,2.072,0,0,1,2.805-1.28A3.256,3.256,0,0,1,72.52,30.51a8.554,8.554,0,0,1-4.756,9.217Z" fill="#fed5b7"/>
              <path id="Trazado_725256" data-name="Trazado 725256" d="M37.149,29.34c-1.146-.724-2.633-1.455-3.769-.716a3.08,3.08,0,0,0-1.092,2.56A10.12,10.12,0,0,0,39.1,40.9Z" fill="#fed5b7"/>
              <path id="Trazado_725257" data-name="Trazado 725257" d="M46.334,35.107c0,1.241-.719,2.247-1.6,2.247s-1.6-1.006-1.6-2.247.718-2.247,1.6-2.247,1.6,1.006,1.6,2.247"/>
              <path id="Trazado_725258" data-name="Trazado 725258" d="M62.006,35.107c0,1.241-.719,2.247-1.6,2.247s-1.6-1.006-1.6-2.247.718-2.247,1.6-2.247,1.6,1.006,1.6,2.247"/>
              <g id="Grupo_1011939" data-name="Grupo 1011939" transform="translate(44.14 57.02)" opacity="0.48">
                <g id="Grupo_1011938" data-name="Grupo 1011938">
                  <g id="Grupo_1011937" data-name="Grupo 1011937" clip-path="url(#clip-path-4)">
                    <path id="Trazado_725259" data-name="Trazado 725259" d="M44.357,57.525a8.773,8.773,0,0,0,13.859-.505,9.123,9.123,0,0,1-2.731,5.73,6.331,6.331,0,0,1-6.01,1.5c-2.727-.863-4.292-3.681-5.335-6.345Z" transform="translate(-44.14 -57.02)" fill="#7f4821"/>
                  </g>
                </g>
              </g>
              <path id="Trazado_725260" data-name="Trazado 725260" d="M32.978,102.756a10.423,10.423,0,0,1-7.673-2.918,30.892,30.892,0,0,1-5.162-6.65A3.35,3.35,0,0,1,19.39,91a3.4,3.4,0,0,1,1.224-1.817c6.821-6.49,12.735-13.86,18.626-21.2,1.095-1.365,2.252-2.922,2.093-4.665A7.672,7.672,0,0,0,39.8,59.995a34.075,34.075,0,0,1-5.011-23.664,3.17,3.17,0,0,1,1.19-2.376A7.139,7.139,0,0,1,37.1,39.026q.033-1.7.067-3.4a7.23,7.23,0,0,1,2.557,5.729c-.823-.689.34-2.13,1.385-1.884s1.637,1.321,2.1,2.289c1.762,3.67,3.525,7.342,5.055,11.115,1.621,4,3,8.324,2.215,12.565A25.836,25.836,0,0,1,48.213,71.6l-13.627,29.16Z" fill="#edbc9a"/>
              <path id="Trazado_725261" data-name="Trazado 725261" d="M64.976,100.606A186.06,186.06,0,0,1,53.18,66.79a21.48,21.48,0,0,1-.828-5.707c.124-4.019,2.332-7.637,4.471-11.041l6.929-11.023a.617.617,0,0,1,1.088.573,1.244,1.244,0,0,1-.147.23,18.563,18.563,0,0,1,4.039-7.683,7.2,7.2,0,0,1-.818,5.976,9.743,9.743,0,0,1,1.912-4.333.717.717,0,0,1,.442-.278c.648-.1.788.846.656,1.47q-2.942,13.9-7.224,27.472a7.958,7.958,0,0,0-.545,4.082,7.706,7.706,0,0,0,1.055,2.254A243.742,243.742,0,0,0,80.061,91.694L78.947,93.1a19.948,19.948,0,0,1-13.971,7.5" fill="#edbc9a"/>
              <path id="Trazado_725262" data-name="Trazado 725262" d="M39.34,40.057a36.436,36.436,0,0,0,3.373,11.478c.21.433.856.054.646-.378a35.356,35.356,0,0,1-3.271-11.1c-.057-.472-.806-.478-.748,0" fill="#7f4821"/>
              <path id="Trazado_725263" data-name="Trazado 725263" d="M36.5,36.347A33.206,33.206,0,0,0,39.032,50.69a.387.387,0,0,0,.46.261.376.376,0,0,0,.261-.46,32.7,32.7,0,0,1-2.5-14.144c.023-.482-.726-.48-.748,0" fill="#7f4821"/>
              <path id="Trazado_725264" data-name="Trazado 725264" d="M37.472,50.694a41.188,41.188,0,0,0,6.728,1.12c.48.039.477-.709,0-.749a39.86,39.86,0,0,1-6.529-1.093.375.375,0,0,0-.2.722" fill="#7f4821"/>
              <path id="Trazado_725265" data-name="Trazado 725265" d="M64.46,39.321a23.585,23.585,0,0,1-2.394,9.14c-.213.43.432.81.646.377a24.5,24.5,0,0,0,2.5-9.517c.026-.481-.722-.48-.748,0" fill="#7f4821"/>
              <path id="Trazado_725266" data-name="Trazado 725266" d="M68.574,33.569a93.7,93.7,0,0,1-4.157,14.465c-.17.451.553.646.721.2A93.77,93.77,0,0,0,69.3,33.768c.1-.47-.626-.671-.722-.2" fill="#7f4821"/>
              <path id="Trazado_725267" data-name="Trazado 725267" d="M61.178,49.645c1.95-.771,4.321.058,6.086-1.272.38-.287.007-.937-.378-.646a4.9,4.9,0,0,1-2.84.755,9.377,9.377,0,0,0-3.067.441c-.442.175-.25.9.2.722" fill="#7f4821"/>
              <path id="Trazado_725268" data-name="Trazado 725268" d="M59.228,66.257a9.759,9.759,0,0,0,3.312-.178.374.374,0,0,0-.2-.722,9.151,9.151,0,0,1-3.113.152.376.376,0,0,0-.374.374.383.383,0,0,0,.374.374" fill="#7f4821"/>
              <path id="Trazado_725269" data-name="Trazado 725269" d="M42.235,66.279H45.19a.374.374,0,0,0,0-.748H42.235a.374.374,0,0,0,0,.748" fill="#7f4821"/>
              <path id="Trazado_725270" data-name="Trazado 725270" d="M51.058,39.167l2.4-1.839c.411-.315,1.244-1.129,1.695-.453a2.968,2.968,0,0,1,.218,1.846q-.117,1.53-.233,3.059c-.037.48.712.478.748,0,.088-1.15.2-2.3.263-3.452a2.844,2.844,0,0,0-.515-2.051,1.27,1.27,0,0,0-1.005-.413,2.237,2.237,0,0,0-1.206.555c-.916.7-1.825,1.4-2.738,2.1a.388.388,0,0,0-.134.512.376.376,0,0,0,.512.134" fill="#7f4821"/>
              <path id="Trazado_725271" data-name="Trazado 725271" d="M49.106,48.655c.771-1.531,2.647-4.742,4.349-4.539a2.864,2.864,0,0,1,2.158,1.86,8.435,8.435,0,0,1,.441,2.94Z" fill="#fff"/>
              <path id="Trazado_725272" data-name="Trazado 725272" d="M49.429,48.844a13.6,13.6,0,0,1,2.329-3.479,2.526,2.526,0,0,1,1.469-.882,2.184,2.184,0,0,1,1.818,1.193,6.6,6.6,0,0,1,.635,3.24l.374-.374-6.085-.229-.863-.032c-.482-.018-.481.73,0,.748l6.086.229.862.032a.376.376,0,0,0,.374-.374,8.265,8.265,0,0,0-.565-3.3,3.245,3.245,0,0,0-2.087-1.827c-1.592-.366-2.846,1.249-3.644,2.389a18.568,18.568,0,0,0-1.349,2.283c-.217.429.429.808.646.378" fill="#7f4821"/>
              <path id="Trazado_725273" data-name="Trazado 725273" d="M57.175,24.158a7.47,7.47,0,0,0,5.4,3.055,1.279,1.279,0,0,0,.648-.069c.7-.323.418-1.393-.071-1.986a6.471,6.471,0,0,0-4.545-2.31,1.553,1.553,0,0,0-1.132.267.639.639,0,0,0,.028,1.009Z" fill="#512d0c"/>
              <path id="Trazado_725274" data-name="Trazado 725274" d="M48.932,23.917a7.47,7.47,0,0,1-5.4,3.055,1.279,1.279,0,0,1-.648-.069c-.7-.323-.418-1.393.071-1.986a6.467,6.467,0,0,1,4.545-2.31,1.553,1.553,0,0,1,1.132.267.639.639,0,0,1-.028,1.009Z" fill="#512d0c"/>
              <path id="Trazado_725275" data-name="Trazado 725275" d="M36.389,30.7q.229,1.726.458,3.452a.387.387,0,0,0,.374.374.377.377,0,0,0,.375-.374L37.137,30.7a.386.386,0,0,0-.374-.374c-.181,0-.4.172-.374.374" fill="#7f4821"/>
              <path id="Trazado_725276" data-name="Trazado 725276" d="M33.911,31.768a12.036,12.036,0,0,1,2.682,2.357.378.378,0,0,0,.529,0,.383.383,0,0,0,0-.53,12.762,12.762,0,0,0-2.833-2.473.374.374,0,0,0-.378.646" fill="#7f4821"/>
              <path id="Trazado_725277" data-name="Trazado 725277" d="M33.975,34.309a5.872,5.872,0,0,0,2.345-1.164.376.376,0,0,0,0-.53.386.386,0,0,0-.529,0c-.01.008-.118.092-.07.056-.04.03-.079.06-.12.089q-.12.086-.246.165a5.462,5.462,0,0,1-.517.29l-.135.064c-.011.005-.139.061-.08.036-.091.038-.184.073-.277.106a5.384,5.384,0,0,1-.57.166.377.377,0,0,0-.261.461.382.382,0,0,0,.46.261" fill="#7f4821"/>
              <path id="Trazado_725278" data-name="Trazado 725278" d="M69.861,32.221l1.434-1.28a.377.377,0,0,0,0-.529.383.383,0,0,0-.53,0l-1.433,1.28a.377.377,0,0,0,0,.529.384.384,0,0,0,.529,0" fill="#7f4821"/>
              <path id="Trazado_725279" data-name="Trazado 725279" d="M70,31.856l.738.985a.413.413,0,0,0,.224.172.379.379,0,0,0,.289-.038.375.375,0,0,0,.171-.223.364.364,0,0,0-.037-.289q-.369-.492-.739-.985a.411.411,0,0,0-.223-.172.389.389,0,0,0-.289.038.379.379,0,0,0-.172.224.363.363,0,0,0,.038.288" fill="#7f4821"/>
              <path id="Trazado_725280" data-name="Trazado 725280" d="M37.043,7.111C39.4,8.166,42.018,7.37,44.122,6.1c2.19-1.325,3.975-3.241,6.271-4.405a9.489,9.489,0,0,1,7.14-.447,13.033,13.033,0,0,1,6.138,4A5.523,5.523,0,0,1,65,9.151a13.21,13.21,0,0,1-1.466,4.577c-.2.434.444.814.646.377,1.167-2.524,2.3-5.363.923-8.044a9.287,9.287,0,0,0-2.428-2.843,14.872,14.872,0,0,0-3.26-2.05,11.345,11.345,0,0,0-7.323-.9C49.5.892,47.5,2.7,45.439,4.272,43.26,5.93,40.208,7.713,37.421,6.465c-.436-.2-.817.449-.378.646" fill="#512d0c"/>
              <path id="Trazado_725281" data-name="Trazado 725281" d="M65.508,10.063a5.666,5.666,0,0,1,5.963,2.5c1.369,2.231,1.116,5.029.242,7.387a25.355,25.355,0,0,1-2.155,4.214.374.374,0,0,0,.646.378c1.52-2.525,2.988-5.275,2.98-8.3a6.888,6.888,0,0,0-3.74-6.434,6.476,6.476,0,0,0-4.135-.468c-.47.105-.271.827.2.722" fill="#512d0c"/>
              <path id="Trazado_725282" data-name="Trazado 725282" d="M14,118.42a33.677,33.677,0,0,0,15.8-10.014,33.13,33.13,0,0,0,3.2-4.273c.258-.408-.389-.784-.646-.377a32.953,32.953,0,0,1-13.646,12.085,31.892,31.892,0,0,1-4.9,1.857.375.375,0,0,0,.2.722" fill="#512d0c"/>
              <path id="Trazado_725283" data-name="Trazado 725283" d="M64.751,102.892a57.143,57.143,0,0,0,10.368,16.094,13.462,13.462,0,0,0,1.774,1.751,14.261,14.261,0,0,0,1.917,1.178,26.257,26.257,0,0,0,2.522,1.163,11.343,11.343,0,0,0,2.153.682c.471.086.673-.635.2-.722a15.372,15.372,0,0,1-4.01-1.52,18.016,18.016,0,0,1-1.994-1.138,9.306,9.306,0,0,1-1.593-1.448,56.25,56.25,0,0,1-7.495-10.064,56.833,56.833,0,0,1-3.195-6.354c-.188-.441-.833-.06-.646.378" fill="#512d0c"/>
              <path id="Trazado_725284" data-name="Trazado 725284" d="M80.529,91.721a56.336,56.336,0,0,1,9.33,7.07q1.21,1.134,2.351,2.338c.332.349.861-.18.529-.53a57.226,57.226,0,0,0-9-7.695q-1.388-.957-2.83-1.829a.374.374,0,0,0-.378.646" fill="#512d0c"/>
              <path id="Trazado_725285" data-name="Trazado 725285" d="M86.723,96.007,91.361,97.6c.457.157.653-.566.2-.722l-4.638-1.595c-.456-.157-.653.566-.2.722" fill="#512d0c"/>
              <path id="Trazado_725286" data-name="Trazado 725286" d="M18.658,90.462A46.881,46.881,0,0,0,8.2,97.072Q6.847,98.2,5.583,99.433c-.346.336.184.865.529.529a46.177,46.177,0,0,1,9.825-7.29q1.52-.84,3.1-1.564c.437-.2.057-.846-.378-.646" fill="#512d0c"/>
              <path id="Trazado_725287" data-name="Trazado 725287" d="M5.122,97.683l4.184-1.24a.374.374,0,0,0-.2-.721L4.923,96.961a.375.375,0,0,0,.2.722" fill="#512d0c"/>
              <path id="Trazado_725288" data-name="Trazado 725288" d="M22.122,62.779a65.372,65.372,0,0,1,.884,17.028c-.081,1.606-.184,3.212-.287,4.817-.032.481.717.479.748,0A101.674,101.674,0,0,0,23.6,67.36a46.173,46.173,0,0,0-.754-4.78c-.1-.471-.823-.271-.722.2" fill="#512d0c"/>
              <path id="Trazado_725289" data-name="Trazado 725289" d="M79.427,63.389a53.5,53.5,0,0,0-3.249,16.256q-.1,2.367.016,4.734c.023.48.772.482.749,0a52.786,52.786,0,0,1,1.781-16.338q.612-2.257,1.425-4.453c.166-.453-.557-.648-.722-.2" fill="#512d0c"/>
              <path id="Trazado_725290" data-name="Trazado 725290" d="M40.267,97.785a66.485,66.485,0,0,1,19.509,4.839,10.3,10.3,0,0,1,4.1,2.7c.308.371.835-.161.529-.529a9.951,9.951,0,0,0-3.689-2.575c-1.505-.677-3.06-1.254-4.62-1.79A67.638,67.638,0,0,0,46.04,97.82q-2.868-.515-5.773-.783c-.479-.045-.476.7,0,.748" fill="#512d0c"/>
              <path id="Trazado_725291" data-name="Trazado 725291" d="M43.448,100.21a48.885,48.885,0,0,1,14.281,3.535c.444.185.638-.539.2-.721a49.083,49.083,0,0,0-11.21-3.159q-1.629-.255-3.27-.4c-.479-.044-.477.705,0,.748" fill="#512d0c"/>
              <path id="Trazado_725292" data-name="Trazado 725292" d="M17.019,154.351a120.455,120.455,0,0,0,60.974,4.188q-.147-2.7-.292-5.4l-20.566,1.141a76.549,76.549,0,0,1-16.447-.861L17.521,149.68Z"/>
              <path id="Trazado_725293" data-name="Trazado 725293" d="M61.375,153.057a113.5,113.5,0,0,1,.3,12.276c.732.155,1.672.2,2.039-.452a1.813,1.813,0,0,0,.166-.846q.189-5.718.381-11.435Z" fill="#c2b38c"/>
              <path id="Trazado_725294" data-name="Trazado 725294" d="M36.069,150.835l-1.455,13.053a1.2,1.2,0,0,0,1.607-.358,3.5,3.5,0,0,0,.53-1.732l1.263-10.365Z" fill="#c2b38c"/>
              <path id="Trazado_725295" data-name="Trazado 725295" d="M47.4,154.674a39.413,39.413,0,0,1,4.711.16q1.153.109,2.3.29c.39.062.781.124,1.168.2a1.012,1.012,0,0,1,.79.429,1.722,1.722,0,0,1,.1.79c-.008.4-.026.792-.039,1.187a15.529,15.529,0,0,1-.094,2.169.694.694,0,0,1-.408.609,3.694,3.694,0,0,1-1.092.083q-1.161.033-2.323.013a50.908,50.908,0,0,1-5.365-.377c-.477-.058-.473.691,0,.749a51.453,51.453,0,0,0,5.365.377q1.314.022,2.628-.023c.7-.024,1.432-.067,1.771-.777a5.649,5.649,0,0,0,.247-2.214,14.036,14.036,0,0,0,.028-2.4,1.536,1.536,0,0,0-1.314-1.318c-.84-.188-1.706-.3-2.56-.406a39.2,39.2,0,0,0-5.912-.293.374.374,0,0,0,0,.748" fill="#fff"/>
              <path id="Trazado_725296" data-name="Trazado 725296" d="M47.055,154.206a19.988,19.988,0,0,0,.069,6.094c.079.474.8.273.722-.2a18.756,18.756,0,0,1-.069-5.7.388.388,0,0,0-.262-.46.375.375,0,0,0-.46.261" fill="#fff"/>
              <path id="Trazado_725297" data-name="Trazado 725297" d="M47.66,157.567l6.157.734c.477.056.473-.692,0-.749l-6.157-.733c-.477-.057-.473.692,0,.748" fill="#fff"/>
              <path id="Trazado_725298" data-name="Trazado 725298" d="M31.154,155.171H31.4a.282.282,0,0,0,.144-.032.275.275,0,0,0,.121-.078.285.285,0,0,0,.077-.12.277.277,0,0,0,.032-.144c0-.033-.009-.067-.013-.1a.383.383,0,0,0-.1-.165l-.076-.058a.367.367,0,0,0-.189-.051h-.246a.273.273,0,0,0-.144.032.384.384,0,0,0-.23.342c0,.033.009.066.013.1a.372.372,0,0,0,.1.165l.076.059a.367.367,0,0,0,.189.051" fill="#fff"/>
              <path id="Trazado_725299" data-name="Trazado 725299" d="M63.791,98.937a18.237,18.237,0,0,0,2.053,5.094C71.963,101.117,78.328,98,82.389,92.579Q80.534,90.3,78.467,88.2a38.971,38.971,0,0,1-14.31,10.721Z" fill="#512d0c"/>
              <path id="Trazado_725300" data-name="Trazado 725300" d="M21.2,88.638A40.212,40.212,0,0,0,35.564,100.46q-1.4,2.264-2.791,4.527a17.619,17.619,0,0,1-8.909-4.745,39.17,39.17,0,0,1-6.241-8.08.87.87,0,0,1,.187-1.436l3-2.278Z" fill="#512d0c"/>
              <path id="Trazado_725301" data-name="Trazado 725301" d="M38.516,147.483a4.971,4.971,0,0,1,.479.862c-.035-.082.017.043.022.058.016.039.031.079.045.119.025.07.049.14.071.211a4.96,4.96,0,0,1,.125.494.376.376,0,0,0,.46.261.384.384,0,0,0,.262-.46,5.186,5.186,0,0,0-.818-1.923.374.374,0,1,0-.646.378" fill="#512d0c"/>
              <path id="Trazado_725302" data-name="Trazado 725302" d="M40.526,148.123l.327,1.67a.377.377,0,0,0,.461.262.385.385,0,0,0,.261-.461l-.327-1.67a.378.378,0,0,0-.461-.261.384.384,0,0,0-.261.46" fill="#512d0c"/>
              <path id="Trazado_725303" data-name="Trazado 725303" d="M62.256,148.215q.16,1.2.32,2.407a.386.386,0,0,0,.374.375c.181-.008.4-.167.374-.375q-.159-1.2-.32-2.407a.383.383,0,0,0-.374-.374c-.18.008-.4.166-.374.374" fill="#512d0c"/>
              <path id="Trazado_725304" data-name="Trazado 725304" d="M64.395,149.211a2.25,2.25,0,0,1,.153.565c0-.033-.009-.066-.014-.1a2.2,2.2,0,0,1,0,.562c.005-.033.009-.066.014-.1-.009.062-.02.124-.033.185a.374.374,0,0,0,.722.2,2.551,2.551,0,0,0-.12-1.511.422.422,0,0,0-.172-.224.389.389,0,0,0-.289-.037.374.374,0,0,0-.223.172.357.357,0,0,0-.038.288" fill="#512d0c"/>
              <path id="Trazado_725305" data-name="Trazado 725305" d="M23.156,146.755l.808,1.816a.376.376,0,0,0,.512.134.385.385,0,0,0,.134-.512l-.808-1.816a.376.376,0,0,0-.512-.134.387.387,0,0,0-.134.512" fill="#512d0c"/>
              <path id="Trazado_725306" data-name="Trazado 725306" d="M25.291,147.733a.481.481,0,0,1,.036.043l-.058-.076a.755.755,0,0,1,.1.176l-.037-.09a.881.881,0,0,1,.056.207c0-.033-.009-.066-.014-.1a.811.811,0,0,1,0,.2c0-.033.009-.066.013-.1a.807.807,0,0,1-.022.111.373.373,0,0,0,.261.46.376.376,0,0,0,.288-.037.394.394,0,0,0,.172-.224,1.164,1.164,0,0,0-.269-1.1.375.375,0,0,0-.639.264.41.41,0,0,0,.11.265" fill="#512d0c"/>
              <path id="Trazado_725307" data-name="Trazado 725307" d="M84.09,78.217v2.4a.374.374,0,0,0,.748,0v-2.4a.374.374,0,0,0-.748,0" fill="#512d0c"/>
              <path id="Trazado_725308" data-name="Trazado 725308" d="M86.115,79.878a3.047,3.047,0,0,0,.431,1.665.374.374,0,1,0,.646-.378c-.033-.055-.065-.111-.094-.169q-.021-.041-.039-.081c-.008-.016-.015-.031-.022-.047-.016-.037-.013-.031.008.018-.013-.056-.044-.113-.063-.169s-.035-.115-.05-.173-.028-.117-.039-.176c0-.019-.026-.084-.017-.1,0,.031,0,.014,0,0a2.762,2.762,0,0,1-.013-.386.376.376,0,0,0-.374-.374.381.381,0,0,0-.374.374" fill="#512d0c"/>
              <path id="Trazado_725309" data-name="Trazado 725309" d="M86.5,72.86l.21,2.953a.383.383,0,0,0,.374.374.376.376,0,0,0,.374-.374l-.21-2.953a.382.382,0,0,0-.374-.374.377.377,0,0,0-.374.374" fill="#512d0c"/>
              <path id="Trazado_725310" data-name="Trazado 725310" d="M89.077,87.635v1.847a.374.374,0,1,0,.748,0V87.635a.374.374,0,1,0-.748,0" fill="#512d0c"/>
              <path id="Trazado_725311" data-name="Trazado 725311" d="M12.427,85.5a6.028,6.028,0,0,0-.163,2.319.384.384,0,0,0,.374.375c.182-.008.4-.167.374-.375a5.365,5.365,0,0,1,.137-2.12.374.374,0,0,0-.722-.2" fill="#512d0c"/>
              <path id="Trazado_725312" data-name="Trazado 725312" d="M15.575,82.649V84.68a.374.374,0,1,0,.748,0V82.649a.374.374,0,1,0-.748,0" fill="#512d0c"/>
              <path id="Trazado_725313" data-name="Trazado 725313" d="M18.345,73.415v2.216a.374.374,0,0,0,.748,0V73.415a.374.374,0,0,0-.748,0" fill="#512d0c"/>
              <path id="Trazado_725314" data-name="Trazado 725314" d="M18.9,84.5v2.031a.374.374,0,1,0,.748,0V84.5a.374.374,0,1,0-.748,0" fill="#512d0c"/>
              <path id="Trazado_725315" data-name="Trazado 725315" d="M24.274,133.718q.519,1.581,1.039,3.162a.383.383,0,0,0,.46.262.378.378,0,0,0,.261-.461L25,133.519a.382.382,0,0,0-.461-.261.377.377,0,0,0-.261.46" fill="#512d0c"/>
              <path id="Trazado_725316" data-name="Trazado 725316" d="M27.548,129.26a4.6,4.6,0,0,0-.127,2.057.375.375,0,0,0,.46.261.385.385,0,0,0,.262-.46c0-.023-.008-.046-.011-.069,0,.037,0,.041,0,.014s-.009-.081-.013-.121c-.006-.07-.011-.139-.014-.209a4.264,4.264,0,0,1,.006-.452c0-.069.012-.138.02-.208.005-.044.005-.046,0,0,0-.017.005-.034.008-.051.006-.04.013-.08.02-.12a4.138,4.138,0,0,1,.109-.439.374.374,0,0,0-.722-.2" fill="#512d0c"/>
              <path id="Trazado_725317" data-name="Trazado 725317" d="M30.2,121.066q-.09.831-.179,1.663a.375.375,0,0,0,.374.374.384.384,0,0,0,.374-.374q.09-.831.179-1.663a.375.375,0,0,0-.374-.374.386.386,0,0,0-.374.374" fill="#512d0c"/>
              <path id="Trazado_725318" data-name="Trazado 725318" d="M32.6,134.264a10.532,10.532,0,0,1,.655,2.685.385.385,0,0,0,.374.374.377.377,0,0,0,.374-.374,11.223,11.223,0,0,0-.681-2.884.386.386,0,0,0-.461-.261.376.376,0,0,0-.261.46" fill="#512d0c"/>
              <path id="Trazado_725319" data-name="Trazado 725319" d="M67.945,135.384a1.174,1.174,0,0,0-.277.513,1.191,1.191,0,0,0,.008.59.39.39,0,0,0,.172.224.374.374,0,0,0,.512-.134.393.393,0,0,0,.038-.289.693.693,0,0,1-.023-.11c0,.033.009.066.013.1a.811.811,0,0,1,0-.2c0,.033-.009.066-.014.1a.877.877,0,0,1,.056-.208l-.037.09a.826.826,0,0,1,.1-.175l-.058.075a.482.482,0,0,1,.036-.043.391.391,0,0,0,.11-.265.38.38,0,0,0-.11-.264.373.373,0,0,0-.529,0" fill="#512d0c"/>
              <path id="Trazado_725320" data-name="Trazado 725320" d="M70.27,131.123l-.354,2.4a.383.383,0,0,0,.261.46.377.377,0,0,0,.46-.261q.178-1.2.355-2.4a.384.384,0,0,0-.262-.46.378.378,0,0,0-.46.261" fill="#512d0c"/>
              <path id="Trazado_725321" data-name="Trazado 725321" d="M77.312,64.269a21.55,21.55,0,0,1,.667,3.607.384.384,0,0,0,.374.374.376.376,0,0,0,.374-.374,22.769,22.769,0,0,0-.693-3.806.375.375,0,0,0-.722.2" fill="#512d0c"/>
            </g>
          </g>
        </g>
      </g>
    </g>
  </g>
</svg>
