<svg xmlns="http://www.w3.org/2000/svg" xmlns:xlink="http://www.w3.org/1999/xlink" width="222.051" height="222.823" viewBox="0 0 222.051 222.823">
  <defs>
    <filter id="Rectángulo_347617" x="80.247" y="3.3" width="61.1" height="61.1" filterUnits="userSpaceOnUse">
      <feOffset dy="3" input="SourceAlpha"/>
      <feGaussianBlur stdDeviation="3" result="blur"/>
      <feFlood flood-opacity="0.161"/>
      <feComposite operator="in" in2="blur"/>
      <feComposite in="SourceGraphic"/>
    </filter>
    <clipPath id="clip-path">
      <rect id="Rectángulo_347667" data-name="Rectángulo 347667" width="222.051" height="222.823" transform="translate(0 -3)" fill="none"/>
    </clipPath>
    <clipPath id="clip-path-2">
      <rect id="Rectángulo_347618" data-name="Rectángulo 347618" width="222.051" height="219.823" fill="none"/>
    </clipPath>
    <clipPath id="clip-path-3">
      <rect id="Rectángulo_347615" data-name="Rectángulo 347615" width="75.63" height="75.63" fill="none"/>
    </clipPath>
    <clipPath id="clip-path-4">
      <rect id="Rectángulo_347616" data-name="Rectángulo 347616" width="53.631" height="53.631" fill="none"/>
    </clipPath>
    <clipPath id="clip-path-5">
      <g transform="matrix(1, 0, 0, 1, 0, 0)" filter="url(#Rectángulo_347617)">
        <rect id="Rectángulo_347617-2" data-name="Rectángulo 347617" width="43.1" height="43.1" fill="#f5f5f5"/>
      </g>
    </clipPath>
    <filter id="Trazado_721581" x="181.844" y="132.202" width="48.14" height="48.141" filterUnits="userSpaceOnUse">
      <feOffset dy="3" input="SourceAlpha"/>
      <feGaussianBlur stdDeviation="3" result="blur-2"/>
      <feFlood flood-opacity="0.161"/>
      <feComposite operator="in" in2="blur-2"/>
      <feComposite in="SourceGraphic"/>
    </filter>
    <clipPath id="clip-path-6">
      <rect id="Rectángulo_347620" data-name="Rectángulo 347620" width="222.051" height="229.823" transform="translate(0 -10)" fill="#005b8b"/>
    </clipPath>
    <filter id="Trazado_721734" x="83.505" y="-2.793" width="61.101" height="61.1" filterUnits="userSpaceOnUse">
      <feOffset dy="3" input="SourceAlpha"/>
      <feGaussianBlur stdDeviation="3" result="blur-3"/>
      <feFlood flood-opacity="0.161"/>
      <feComposite operator="in" in2="blur-3"/>
      <feComposite in="SourceGraphic"/>
    </filter>
    <clipPath id="clip-path-8">
      <rect id="Rectángulo_347621" data-name="Rectángulo 347621" width="0.048" height="0.014" fill="none"/>
    </clipPath>
    <clipPath id="clip-path-9">
      <rect id="Rectángulo_347622" data-name="Rectángulo 347622" width="0.015" height="0.004" fill="none"/>
    </clipPath>
    <clipPath id="clip-path-10">
      <rect id="Rectángulo_347623" data-name="Rectángulo 347623" width="0.065" height="0.018" fill="none"/>
    </clipPath>
    <clipPath id="clip-path-11">
      <rect id="Rectángulo_347624" data-name="Rectángulo 347624" width="13.79" height="20.002" fill="none"/>
    </clipPath>
    <clipPath id="clip-path-12">
      <rect id="Rectángulo_347625" data-name="Rectángulo 347625" width="8.419" height="3.375" fill="none"/>
    </clipPath>
    <clipPath id="clip-path-13">
      <rect id="Rectángulo_347626" data-name="Rectángulo 347626" width="1.773" height="1.032" fill="none"/>
    </clipPath>
    <clipPath id="clip-path-14">
      <rect id="Rectángulo_347627" data-name="Rectángulo 347627" width="29.304" height="21.283" fill="none"/>
    </clipPath>
    <clipPath id="clip-path-15">
      <rect id="Rectángulo_347628" data-name="Rectángulo 347628" width="3.674" height="16.529" fill="none"/>
    </clipPath>
    <clipPath id="clip-path-16">
      <rect id="Rectángulo_347629" data-name="Rectángulo 347629" width="10.801" height="2.885" fill="none"/>
    </clipPath>
    <clipPath id="clip-path-17">
      <rect id="Rectángulo_347630" data-name="Rectángulo 347630" width="4.145" height="13.218" fill="none"/>
    </clipPath>
    <clipPath id="clip-path-18">
      <rect id="Rectángulo_347631" data-name="Rectángulo 347631" width="19.863" height="16.914" fill="none"/>
    </clipPath>
    <clipPath id="clip-path-19">
      <rect id="Rectángulo_347632" data-name="Rectángulo 347632" width="24.8" height="13.142" fill="none"/>
    </clipPath>
    <clipPath id="clip-path-20">
      <rect id="Rectángulo_347633" data-name="Rectángulo 347633" width="5.634" height="4.053" fill="none"/>
    </clipPath>
    <clipPath id="clip-path-21">
      <rect id="Rectángulo_347634" data-name="Rectángulo 347634" width="11.075" height="7.2" fill="none"/>
    </clipPath>
    <clipPath id="clip-path-22">
      <rect id="Rectángulo_347635" data-name="Rectángulo 347635" width="6.293" height="3.71" fill="none"/>
    </clipPath>
    <clipPath id="clip-path-23">
      <rect id="Rectángulo_347636" data-name="Rectángulo 347636" width="36.011" height="38.2" fill="none"/>
    </clipPath>
    <clipPath id="clip-path-24">
      <rect id="Rectángulo_347637" data-name="Rectángulo 347637" width="23.223" height="13.848" fill="none"/>
    </clipPath>
    <clipPath id="clip-path-25">
      <rect id="Rectángulo_347638" data-name="Rectángulo 347638" width="12.301" height="8.259" fill="none"/>
    </clipPath>
    <clipPath id="clip-path-27">
      <rect id="Rectángulo_347640" data-name="Rectángulo 347640" width="32.384" height="15.67" fill="none"/>
    </clipPath>
    <clipPath id="clip-path-28">
      <rect id="Rectángulo_347641" data-name="Rectángulo 347641" width="20.512" height="14.941" fill="none"/>
    </clipPath>
    <clipPath id="clip-path-29">
      <rect id="Rectángulo_347642" data-name="Rectángulo 347642" width="4.049" height="4.055" fill="none"/>
    </clipPath>
    <clipPath id="clip-path-34">
      <rect id="Rectángulo_347647" data-name="Rectángulo 347647" width="13.791" height="20.002" fill="none"/>
    </clipPath>
    <clipPath id="clip-path-40">
      <rect id="Rectángulo_347653" data-name="Rectángulo 347653" width="4.144" height="13.218" fill="none"/>
    </clipPath>
    <clipPath id="clip-path-46">
      <rect id="Rectángulo_347659" data-name="Rectángulo 347659" width="36.012" height="38.2" fill="none"/>
    </clipPath>
    <clipPath id="clip-path-49">
      <rect id="Rectángulo_347662" data-name="Rectángulo 347662" width="12.302" height="8.259" fill="none"/>
    </clipPath>
    <clipPath id="clip-path-52">
      <rect id="Rectángulo_347665" data-name="Rectángulo 347665" width="4.048" height="4.055" fill="none"/>
    </clipPath>
  </defs>
  <g id="Grupo_1011097" data-name="Grupo 1011097" transform="translate(0 3)">
    <g id="Enmascarar_grupo_1011246" data-name="Enmascarar grupo 1011246" clip-path="url(#clip-path)">
      <g id="Grupo_1011107" data-name="Grupo 1011107">
        <g id="Grupo_1011106" data-name="Grupo 1011106" clip-path="url(#clip-path-2)">
          <path id="Trazado_721574" data-name="Trazado 721574" d="M412.735,87.488a3.379,3.379,0,0,0,.542-1.958,3.247,3.247,0,0,0-.6-1.9,2.623,2.623,0,0,0-3.068-.863,2.619,2.619,0,0,0-1.329-2.793,3.253,3.253,0,0,0-1.964-.317,3.383,3.383,0,0,0-1.857.825,4.115,4.115,0,0,0-1.265,2.252,5.823,5.823,0,0,0,.292,2.733c.478,1.454,1.139,3.33,1.139,3.33s1.817.126,3.325.384a5.824,5.824,0,0,0,2.747-.114,4.115,4.115,0,0,0,2.041-1.584" transform="translate(-207.687 -41.024)" fill="#f5f5f5"/>
          <g id="Grupo_1011099" data-name="Grupo 1011099" transform="translate(27.771 122.957)" opacity="0.46">
            <g id="Grupo_1011098" data-name="Grupo 1011098">
              <g id="Grupo_1011097-2" data-name="Grupo 1011097" clip-path="url(#clip-path-3)">
                <path id="Trazado_721575" data-name="Trazado 721575" d="M78.935,260.855a31.121,31.121,0,0,1,7.59-3.3l1.563-7.513,12.692-.222,1.827,7.452a31.113,31.113,0,0,1,7.7,3.029l6.415-4.2,9.132,8.818-3.976,6.557a31.086,31.086,0,0,1,3.3,7.591l7.511,1.564.223,12.692-7.452,1.827a31.1,31.1,0,0,1-3.03,7.7l4.2,6.415-8.816,9.133-6.558-3.976a31.128,31.128,0,0,1-7.591,3.3l-1.564,7.512-12.691.223L87.586,318a31.093,31.093,0,0,1-7.7-3.03l-6.415,4.205-9.132-8.817,3.976-6.558a31.073,31.073,0,0,1-3.3-7.59L57.5,294.647l-.223-12.692,7.452-1.827a31.1,31.1,0,0,1,3.03-7.7l-4.2-6.415,8.817-9.132ZM85.7,277.763a13.618,13.618,0,1,0,19.255-.338,13.618,13.618,0,0,0-19.255.338" transform="translate(-57.282 -249.823)" fill="#e0e0e0"/>
              </g>
            </g>
          </g>
          <path id="Trazado_721579" data-name="Trazado 721579" d="M74.151,90.3A7.589,7.589,0,0,1,76,89.5l.381-1.83,3.092-.054.445,1.816a7.559,7.559,0,0,1,1.876.738l1.563-1.024,2.225,2.148-.969,1.6a7.583,7.583,0,0,1,.8,1.85l1.83.381.054,3.092-1.815.445a7.594,7.594,0,0,1-.738,1.876l1.024,1.563-2.148,2.225-1.6-.969a7.567,7.567,0,0,1-1.85.8l-.381,1.83-3.092.054-.446-1.816a7.59,7.59,0,0,1-1.876-.738l-1.563,1.024L70.6,102.364l.969-1.6a7.567,7.567,0,0,1-.8-1.85l-1.83-.381-.054-3.092L70.692,95a7.585,7.585,0,0,1,.738-1.876L70.405,91.56l2.148-2.225ZM75.8,94.423a3.318,3.318,0,1,0,4.691-.082,3.318,3.318,0,0,0-4.691.082" transform="translate(-35.484 -32.138)" fill="#f5f5f5"/>
          <path id="Trazado_721580" data-name="Trazado 721580" d="M14.784,145.086a15.127,15.127,0,0,1,3.689-1.6l.76-3.652,6.17-.108.888,3.622a15.112,15.112,0,0,1,3.743,1.473l3.118-2.044,4.439,4.286-1.933,3.188a15.1,15.1,0,0,1,1.6,3.69l3.651.76.109,6.169-3.623.888a15.123,15.123,0,0,1-1.472,3.743l2.043,3.118-4.286,4.439L30.5,171.123a15.118,15.118,0,0,1-3.69,1.6l-.76,3.652-6.17.108-.888-3.623a15.115,15.115,0,0,1-3.744-1.473l-3.118,2.044-4.439-4.286,1.933-3.188a15.091,15.091,0,0,1-1.6-3.689l-3.651-.76-.109-6.169,3.623-.889a15.1,15.1,0,0,1,1.472-3.743l-2.044-3.118,4.286-4.439Zm3.289,8.219a6.62,6.62,0,1,0,9.36-.164,6.62,6.62,0,0,0-9.36.164" transform="translate(18.965 -48.193)" fill="#f5f5f5"/>
          <g transform="matrix(1, 0, 0, 1, 0, -3)" filter="url(#Trazado_721581)">
            <path id="Trazado_721581-2" data-name="Trazado 721581" d="M402.272,283.27a12.393,12.393,0,0,1,3.025-1.314l.623-2.994,5.058-.089.728,2.97a12.377,12.377,0,0,1,3.069,1.207l2.556-1.676,3.639,3.514-1.584,2.613a12.4,12.4,0,0,1,1.314,3.025l2.993.623.089,5.058-2.97.728a12.4,12.4,0,0,1-1.207,3.069l1.675,2.556-3.513,3.639-2.613-1.585a12.386,12.386,0,0,1-3.025,1.314l-.623,2.994-5.058.089-.728-2.97a12.4,12.4,0,0,1-3.069-1.208l-2.556,1.676L396.455,303l1.584-2.614a12.392,12.392,0,0,1-1.314-3.025l-2.994-.623-.089-5.058,2.97-.729a12.419,12.419,0,0,1,1.207-3.068l-1.676-2.556,3.514-3.639Zm2.7,6.738a5.427,5.427,0,1,0,7.674-.135,5.427,5.427,0,0,0-7.674.135" transform="translate(-202.8 -140.67)" fill="#f5f5f5" opacity="0.79"/>
          </g>
          <path id="Trazado_721582" data-name="Trazado 721582" d="M202.986,372a17.466,17.466,0,0,1,4.262-1.852l.878-4.219,7.128-.125,1.026,4.185a17.445,17.445,0,0,1,4.325,1.7l3.6-2.362,5.129,4.952-2.233,3.683a17.473,17.473,0,0,1,1.852,4.263l4.218.878.125,7.128-4.185,1.026a17.474,17.474,0,0,1-1.7,4.325l2.361,3.6-4.951,5.129-3.683-2.234a17.445,17.445,0,0,1-4.263,1.852L216,408.157l-7.128.125-1.026-4.185a17.486,17.486,0,0,1-4.325-1.7l-3.6,2.362-5.129-4.952,2.233-3.683a17.459,17.459,0,0,1-1.852-4.263l-4.219-.878-.125-7.128,4.185-1.026a17.48,17.48,0,0,1,1.7-4.325l-2.361-3.6,4.951-5.129Zm3.8,9.5a7.648,7.648,0,1,0,10.814-.19,7.648,7.648,0,0,0-10.814.19" transform="translate(-98.31 -188.458)" fill="#f5f5f5" opacity="0.77"/>
          <path id="Trazado_721583" data-name="Trazado 721583" d="M313.46,433.026a2.873,2.873,0,1,1,.09-4.063,2.875,2.875,0,0,1-.09,4.063" transform="translate(-158.986 -220.538)" fill="#e0e0e0"/>
          <path id="Trazado_721584" data-name="Trazado 721584" d="M319.415,422.69c-.174-.026.255-3.025,1.428-6.538a48.517,48.517,0,0,1,2.3-6.27c.187.046-.522,2.976-1.7,6.464s-1.859,6.373-2.03,6.344" transform="translate(-164.539 -211.165)" fill="#e0e0e0"/>
          <path id="Trazado_721585" data-name="Trazado 721585" d="M332.915,411.7c.07.149-1.437.744-3.3.29-1.868-.435-2.944-1.646-2.814-1.748.12-.144,1.272.746,2.961,1.133,1.681.416,3.111.143,3.153.325" transform="translate(-168.358 -211.341)" fill="#e0e0e0"/>
          <path id="Trazado_721586" data-name="Trazado 721586" d="M331.146,417.087c.089.145-1.387.8-3.174.228-1.795-.552-2.63-1.934-2.474-2,.14-.121,1.082.922,2.663,1.4,1.57.513,2.939.2,2.985.375" transform="translate(-167.682 -213.958)" fill="#e0e0e0"/>
          <path id="Trazado_721587" data-name="Trazado 721587" d="M155.153,430.977l.415,1.665-6.675,1.666-.331-1.325,2.6-4.068a3.712,3.712,0,0,0,.51-1.072,1.662,1.662,0,0,0,0-.785,1,1,0,0,0-.562-.724,1.725,1.725,0,0,0-1.124-.021,2.5,2.5,0,0,0-.992.482,2.062,2.062,0,0,0-.617.858l-1.728-.588a3.6,3.6,0,0,1,1.125-1.561,4.9,4.9,0,0,1,1.974-.955,4.411,4.411,0,0,1,1.8-.108,2.738,2.738,0,0,1,1.375.622,2.424,2.424,0,0,1,.755,1.279,3.18,3.18,0,0,1,.034,1.426,5.376,5.376,0,0,1-.814,1.732l-1.553,2.425Z" transform="translate(-75.556 -218.641)" fill="#f5f5f5"/>
        </g>
      </g>
      <path id="Trazado_721588" data-name="Trazado 721588" d="M129.821,37.286h-1.946l-.315.8h-1.207l1.933-4.5h1.207l1.888,4.5H130.13Zm-.347-.9-.616-1.605-.629,1.605Z" transform="translate(-65.096 -17.3)" fill="#e0e0e0"/>
      <g id="Grupo_1011109" data-name="Grupo 1011109">
        <g id="Grupo_1011108" data-name="Grupo 1011108" clip-path="url(#clip-path-6)">
          <path id="Trazado_721589" data-name="Trazado 721589" d="M21.47,389.958a4.936,4.936,0,0,1-3.881-1.8l1.336-1.989a3.567,3.567,0,0,0,2.338,1.257c.716,0,1.161-.445,1.161-1.288v-5.058H18.607v-2.4h6.744V386.2c0,2.386-1.5,3.753-3.881,3.753" transform="translate(-9.062 -195.091)" fill="#005b8b"/>
          <path id="Trazado_721590" data-name="Trazado 721590" d="M130.278,305.715l-2.026-3.017-1,1.114v1.9h-2.038v-7.8h2.038v3.273l2.928-3.273h2.361l-2.895,3.229,3.073,4.576Z" transform="translate(-64.507 -153.479)" fill="#005b8b"/>
          <path id="Trazado_721591" data-name="Trazado 721591" d="M24.018,306.293l3.674,4.877v-4.877h1.964v8.1H27.808l-3.675-4.853v4.853H22.158v-8.1Z" transform="translate(-11.415 -157.798)" fill="#005b8b"/>
          <path id="Trazado_721592" data-name="Trazado 721592" d="M375.448,271.763l1.194,2.626,1.195-2.626h1.284v4.5h-1.04l-.006-2.851-1.047,2.4h-.77l-1.047-2.4v2.851h-1.047v-4.5Z" transform="translate(-192.764 -140.008)" fill="#005b8b"/>
          <path id="Trazado_721593" data-name="Trazado 721593" d="M300.437,31.61l1.194,2.626,1.195-2.626h1.284v4.5h-1.04l-.006-2.851-1.047,2.4h-.77l-1.047-2.4v2.851h-1.047v-4.5Z" transform="translate(-154.119 -16.285)" fill="#005b8b"/>
          <path id="Trazado_721594" data-name="Trazado 721594" d="M448.49,314.769V321.2h3.5v1.841h-5.663v-8.271Z" transform="translate(-229.943 -162.165)" fill="#005b8b"/>
          <path id="Trazado_721595" data-name="Trazado 721595" d="M383.551,33.581v3.5h1.907v1h-3.082v-4.5Z" transform="translate(-196.995 -17.301)" fill="#005b8b"/>
          <path id="Trazado_721596" data-name="Trazado 721596" d="M210.554,76.884v3.5h1.907v1h-3.082v-4.5Z" transform="translate(-107.869 -39.61)" fill="#005b8b"/>
          <path id="Trazado_721597" data-name="Trazado 721597" d="M428.09,161.361c-1.008,0-1.674.367-1.674,1.1,0,2.659,8.46,1.146,8.46,6.923,0,3.278-2.889,4.952-6.465,4.952a12.072,12.072,0,0,1-7.4-2.568l1.628-3.278a10.258,10.258,0,0,0,5.823,2.43c1.238,0,2.017-.459,2.017-1.307,0-2.728-8.46-1.077-8.46-6.763,0-3,2.545-4.906,6.419-4.906a12.329,12.329,0,0,1,6.419,1.811l-1.582,3.324a12.492,12.492,0,0,0-5.181-1.719" transform="translate(-216.896 -81.371)" fill="#005b8b"/>
          <path id="Trazado_721598" data-name="Trazado 721598" d="M329.061,324.243c-1.008,0-1.674.367-1.674,1.1,0,2.659,8.46,1.146,8.46,6.923,0,3.278-2.888,4.952-6.465,4.952a12.075,12.075,0,0,1-7.4-2.568l1.628-3.278a10.259,10.259,0,0,0,5.823,2.43c1.238,0,2.017-.459,2.017-1.307,0-2.728-8.46-1.077-8.46-6.763,0-3,2.545-4.906,6.419-4.906a12.329,12.329,0,0,1,6.419,1.811l-1.582,3.324a12.5,12.5,0,0,0-5.181-1.719" transform="translate(-165.878 -165.285)" fill="#005b8b"/>
          <path id="Trazado_721599" data-name="Trazado 721599" d="M226.369,118.235c0,4.094-3,6.876-7.444,6.876h-5.779V111.379h5.916c4.349,0,7.307,2.782,7.307,6.856m-3.663.039a3.682,3.682,0,0,0-3.722-3.976h-2.253v7.914h2.429c2.076,0,3.545-1.587,3.545-3.938" transform="translate(-109.81 -57.381)" fill="#005b8b"/>
          <path id="Trazado_721600" data-name="Trazado 721600" d="M381.589,215.563l-1.215-2.312h-1.621v2.312h-2.181v-8.354h3.754c2.217,0,3.48,1.072,3.48,2.932a2.825,2.825,0,0,1-1.489,2.694l1.74,2.729Zm-2.837-4.052h1.585a1.22,1.22,0,0,0,1.394-1.3c0-.823-.512-1.263-1.394-1.263h-1.585Z" transform="translate(-194.004 -106.751)" fill="#005b8b"/>
          <path id="Trazado_721601" data-name="Trazado 721601" d="M392.135,315.565v2.81h-3.909v10.237H384.82V318.376h-3.871v-2.81Z" transform="translate(-196.259 -162.575)" fill="#005b8b"/>
          <path id="Trazado_721602" data-name="Trazado 721602" d="M329.7,257.4a2.365,2.365,0,0,1-1.841,2.313,2.632,2.632,0,0,1,2.19,2.692c0,1.825-1.6,2.966-4.106,2.966H320.68V254.7h5.064c2.418,0,3.955,1.05,3.955,2.692m-2.859.487c0-.639-.472-1.019-1.247-1h-2.129v2.069h2.129c.776,0,1.247-.4,1.247-1.065m.335,4.168c0-.67-.608-1.1-1.582-1.08h-2.129v2.235h2.129c.974,0,1.582-.426,1.582-1.156" transform="translate(-165.21 -131.22)" fill="#005b8b"/>
          <path id="Trazado_721603" data-name="Trazado 721603" d="M425.359,54.154a2.364,2.364,0,0,1-1.84,2.312,2.632,2.632,0,0,1,2.19,2.692c0,1.825-1.6,2.966-4.107,2.966H416.34V51.462H421.4c2.418,0,3.955,1.049,3.955,2.692m-2.859.487c0-.639-.472-1.019-1.247-1h-2.129v2.069h2.129c.776,0,1.247-.4,1.247-1.065m.335,4.167c0-.669-.608-1.1-1.582-1.08h-2.129v2.236h2.129c.974,0,1.582-.426,1.582-1.156" transform="translate(-214.492 -26.512)" fill="#005b8b"/>
          <path id="Trazado_721604" data-name="Trazado 721604" d="M170.369,264.862a3.014,3.014,0,0,0,0,6.023,3.953,3.953,0,0,0,2.647-1.247l1.627,1.749a6.369,6.369,0,0,1-4.425,1.977,5.434,5.434,0,1,1,.106-10.859,6.117,6.117,0,0,1,4.3,1.825l-1.612,1.932a3.629,3.629,0,0,0-2.647-1.4" transform="translate(-84.81 -135.239)" fill="#005b8b"/>
          <path id="Trazado_721605" data-name="Trazado 721605" d="M416.258,380.176a3.014,3.014,0,0,0,0,6.023,3.954,3.954,0,0,0,2.647-1.247l1.627,1.749a6.37,6.37,0,0,1-4.426,1.977,5.434,5.434,0,1,1,.107-10.859,6.117,6.117,0,0,1,4.3,1.825l-1.612,1.932a3.631,3.631,0,0,0-2.647-1.4" transform="translate(-211.488 -194.647)" fill="#005b8b"/>
          <path id="Trazado_721606" data-name="Trazado 721606" d="M345.1,73.861H338.15L337.027,76.7h-4.31l6.9-16.071h4.31l6.74,16.071H346.2Zm-1.238-3.209-2.2-5.731-2.247,5.731Z" transform="translate(-171.411 -31.237)" fill="#005b8b"/>
          <path id="Trazado_721607" data-name="Trazado 721607" d="M275.553,65.026v3.387h-2.767V65.1l-3.9-7.288h2.767l2.51,4.551,2.45-4.551h2.767Z" transform="translate(-138.525 -29.785)" fill="#005b8b"/>
          <path id="Trazado_721608" data-name="Trazado 721608" d="M161.431,98.692a2.248,2.248,0,0,0,2.32-2.472V89.328h3.1V96.22c0,3.133-2.1,5.114-5.436,5.114-3.353,0-5.5-1.981-5.5-5.114V89.328h3.1V96.22a2.316,2.316,0,0,0,2.422,2.472" transform="translate(-80.323 -46.02)" fill="#005b8b"/>
          <path id="Trazado_721609" data-name="Trazado 721609" d="M78.319,324.4l-.019,2.7H72.02v2.882h5.8v2.7h-5.8v4.674H68.64V324.4Z" transform="translate(-35.362 -167.126)" fill="#005b8b"/>
          <path id="Trazado_721610" data-name="Trazado 721610" d="M2.524,238.5v3.943h3.9V238.5H8.949v9.666H6.426v-3.709h-3.9v3.709H0V238.5Z" transform="translate(0 -122.871)" fill="#005b8b"/>
          <rect id="Rectángulo_347619" data-name="Rectángulo 347619" width="2.51" height="9.614" transform="translate(178.34 63.833)" fill="#005b8b"/>
          <path id="Trazado_721612" data-name="Trazado 721612" d="M423.4,244.5l2.862,8.293,2.879-8.293h3.075l-4.481,11.466H424.63L420.182,244.5Z" transform="translate(-216.471 -125.963)" fill="#005b8b"/>
          <path id="Trazado_721613" data-name="Trazado 721613" d="M307.41,126.643l1.581,4.58,1.59-4.58h1.7l-2.475,6.332h-1.716l-2.457-6.332Z" transform="translate(-157.456 -65.245)" fill="#005b8b"/>
          <path id="Trazado_721614" data-name="Trazado 721614" d="M13.145,71.593c0,2-1.251,3.17-3.426,3.17H8.2V77.12H5.978V68.605H9.719c2.174,0,3.426,1.093,3.426,2.988m-2.114.073c0-.838-.522-1.288-1.421-1.288H8.2V72.99H9.61a1.244,1.244,0,0,0,1.421-1.324" transform="translate(-3.08 -35.344)" fill="#005b8b"/>
          <path id="Trazado_721615" data-name="Trazado 721615" d="M434.633,105.913l1.763,3.876,1.763-3.876h1.9v6.643h-1.535l-.01-4.208-1.545,3.544h-1.137l-1.545-3.544v4.208h-1.545v-6.643Z" transform="translate(-222.94 -54.565)" fill="#005b8b"/>
          <path id="Trazado_721616" data-name="Trazado 721616" d="M36.429,158.324v3.347H27.947v3H35.6V168l-7.657.023v3.026h8.712v3.347H23.751V158.324Z" transform="translate(-12.236 -81.566)" fill="#005b8b"/>
          <path id="Trazado_721617" data-name="Trazado 721617" d="M78.545,46.529V49.28l-8.483,9.95h8.62V62.6H64.445V59.872L72.928,49.9H64.744v-3.37Z" transform="translate(-33.201 -23.971)" fill="#005b8b"/>
          <g transform="matrix(1, 0, 0, 1, 0, -3)" filter="url(#Trazado_721734)">
            <path id="Trazado_721734-2" data-name="Trazado 721734" d="M196.424,19.282a17.74,17.74,0,0,1,4.325-1.88l.891-4.281,7.233-.127,1.041,4.246a17.722,17.722,0,0,1,4.389,1.727l3.656-2.4,5.2,5.025L220.9,25.333a17.716,17.716,0,0,1,1.88,4.326l4.28.891.128,7.233-4.247,1.041a17.725,17.725,0,0,1-1.726,4.389l2.4,3.656-5.024,5.2-3.737-2.266a17.7,17.7,0,0,1-4.326,1.879l-.891,4.281-7.233.127-1.041-4.247a17.721,17.721,0,0,1-4.388-1.726l-3.656,2.4-5.2-5.025,2.266-3.737a17.693,17.693,0,0,1-1.88-4.326l-4.281-.891-.127-7.233,4.247-1.041a17.744,17.744,0,0,1,1.726-4.389l-2.4-3.656,5.025-5.2Zm3.856,9.636a7.76,7.76,0,1,0,10.973-.193,7.76,7.76,0,0,0-10.973.193" transform="translate(-91.58 -9.79)" fill="#f5f5f5" opacity="0.78"/>
          </g>
          <path id="Trazado_721611" data-name="Trazado 721611" d="M207.774,34.212a6.208,6.208,0,0,1-12.4,0c0-3.336,2.65-5.806,6.2-5.806a5.865,5.865,0,0,1,6.2,5.806m-9.323.016a3.235,3.235,0,0,0,3.157,3.3,3.29,3.29,0,1,0-3.157-3.3" transform="translate(-100.655 -14.634)" fill="#005b8b"/>
        </g>
      </g>
      <g id="Grupo_1011177" data-name="Grupo 1011177">
        <g id="Grupo_1011176" data-name="Grupo 1011176" clip-path="url(#clip-path-2)">
          <path id="Trazado_721618" data-name="Trazado 721618" d="M290.066,95.693s2.218-2.534-1.584-8.712-3.643-8.553-8.712-10.454-6.177-3.168-9.662-5.86-10.929-12.038-22.651-9.187-9.117,13.3-9.468,18.691.827,14.414,0,19.165-.915,11.563,0,14.414,0,18.215,0,18.215v44.35s-1.619,40.39,2.341,44.826,12.062,9.82,23.692,5.86,15.432-7.286,18.124-10.3a15.311,15.311,0,0,0,8.562-14.1,17.619,17.619,0,0,0,5.851-6.653c2.218-4.435,5.069-7.444,5.7-11.721s-.951-5.385-.951-5.385,1.9-.634,2.693-6.336,2.851-8.87,2.376-11.4a10.119,10.119,0,0,0-2.218-4.435s1.566-.792,2.288-3.8a71.92,71.92,0,0,0,1.038-14.255,19,19,0,0,0-1.109-6.177s.475-11.4-3.643-12.988l-1.742-.792s1.742-1.425-.159-4.91-1.584-7.761-3.326-10.613-3.484-7.919-7.444-7.444" transform="translate(-122.272 -31.398)" fill="#f9a21b"/>
          <g id="Grupo_1011112" data-name="Grupo 1011112" transform="translate(168.628 143.757)" opacity="0.3">
            <g id="Grupo_1011111" data-name="Grupo 1011111">
              <g id="Grupo_1011110" data-name="Grupo 1011110" clip-path="url(#clip-path-8)">
                <path id="Trazado_721619" data-name="Trazado 721619" d="M347.867,296.52l-.048.014.048-.014" transform="translate(-347.819 -296.52)"/>
              </g>
            </g>
          </g>
          <g id="Grupo_1011115" data-name="Grupo 1011115" transform="translate(168.613 143.771)" opacity="0.3">
            <g id="Grupo_1011114" data-name="Grupo 1011114">
              <g id="Grupo_1011113" data-name="Grupo 1011113" clip-path="url(#clip-path-9)">
                <path id="Trazado_721620" data-name="Trazado 721620" d="M347.8,296.548h0" transform="translate(-347.789 -296.548)"/>
              </g>
            </g>
          </g>
          <g id="Grupo_1011118" data-name="Grupo 1011118" transform="translate(168.676 143.739)" opacity="0.3">
            <g id="Grupo_1011117" data-name="Grupo 1011117">
              <g id="Grupo_1011116" data-name="Grupo 1011116" clip-path="url(#clip-path-10)">
                <path id="Trazado_721621" data-name="Trazado 721621" d="M347.918,296.5h0" transform="translate(-347.918 -296.482)"/>
              </g>
            </g>
          </g>
          <g id="Grupo_1011121" data-name="Grupo 1011121" transform="translate(161.032 143.757)" opacity="0.3">
            <g id="Grupo_1011120" data-name="Grupo 1011120">
              <g id="Grupo_1011119" data-name="Grupo 1011119" clip-path="url(#clip-path-11)">
                <path id="Trazado_721622" data-name="Trazado 721622" d="M340.587,300.368c-.156-1.3-.522-2.566-.792-3.848A11.117,11.117,0,0,1,342.139,304c1.353.155,3.223-.808,3.8-.965-1.6,1.885-5.34,4.135-5.89,6.414-.573,2.378,2.42,4.423,1.207,7.073-.861-.766-.465-1.355-.65-2.24-.939-4.509-6.08-4.225-8.458-3.618a40.58,40.58,0,0,1,4.211-2.239c4.172-1.8,4.762-3.6,4.225-8.055" transform="translate(-332.151 -296.52)"/>
              </g>
            </g>
          </g>
          <g id="Grupo_1011124" data-name="Grupo 1011124" transform="translate(150.84 158.932)" opacity="0.3">
            <g id="Grupo_1011123" data-name="Grupo 1011123">
              <g id="Grupo_1011122" data-name="Grupo 1011122" clip-path="url(#clip-path-12)">
                <path id="Trazado_721623" data-name="Trazado 721623" d="M318.838,328.221c.233-.128.471-.263.71-.4l-3.261,3.106c-.778.27-2.358.756-5.157-1.039,4.794,1.814,5.727-.575,7.709-1.667" transform="translate(-311.129 -327.821)"/>
              </g>
            </g>
          </g>
          <g id="Grupo_1011127" data-name="Grupo 1011127" transform="translate(159.259 157.9)" opacity="0.3">
            <g id="Grupo_1011126" data-name="Grupo 1011126">
              <g id="Grupo_1011125" data-name="Grupo 1011125" clip-path="url(#clip-path-13)">
                <path id="Trazado_721624" data-name="Trazado 721624" d="M330.267,325.692c-.6.352-1.2.7-1.773,1.032l.59-.562a3.139,3.139,0,0,1,1.183-.47" transform="translate(-328.494 -325.692)"/>
              </g>
            </g>
          </g>
          <g id="Grupo_1011130" data-name="Grupo 1011130" transform="translate(134.006 169.432)" opacity="0.3">
            <g id="Grupo_1011129" data-name="Grupo 1011129">
              <g id="Grupo_1011128" data-name="Grupo 1011128" clip-path="url(#clip-path-14)">
                <path id="Trazado_721625" data-name="Trazado 721625" d="M293.712,360.39c-2.533,2.509-4.674,5.643-7.641,7.273-2.8,1.539-6.472,1.5-9.665,2.572a12.939,12.939,0,0,0,11.7-2.28c3.3-2.424,6.74-4.669,10.194-6.874,3.527-2.252,6.2-5.133,7.34-9.229a2.5,2.5,0,0,0-.8-2.374c-.36.952-.8,1.882-1.066,2.859a11.634,11.634,0,0,1-6.8,7.78c-1.034.467-2.392.216-3.262.272" transform="translate(-276.406 -349.478)"/>
              </g>
            </g>
          </g>
          <g id="Grupo_1011133" data-name="Grupo 1011133" transform="translate(129.274 70.24)" opacity="0.3">
            <g id="Grupo_1011132" data-name="Grupo 1011132">
              <g id="Grupo_1011131" data-name="Grupo 1011131" clip-path="url(#clip-path-15)">
                <path id="Trazado_721626" data-name="Trazado 721626" d="M266.647,144.88c4.26,6.093-1.386,13.873,1.341,16.529.279-.772-.383-1.639.085-2.23,3.772-4.775,2.457-11.925-1.426-14.3" transform="translate(-266.647 -144.88)"/>
              </g>
            </g>
          </g>
          <g id="Grupo_1011136" data-name="Grupo 1011136" transform="translate(127.002 179.134)" opacity="0.3">
            <g id="Grupo_1011135" data-name="Grupo 1011135">
              <g id="Grupo_1011134" data-name="Grupo 1011134" clip-path="url(#clip-path-16)">
                <path id="Trazado_721627" data-name="Trazado 721627" d="M261.961,369.489l4.643,2.885,6.157-2.885Z" transform="translate(-261.961 -369.489)"/>
              </g>
            </g>
          </g>
          <path id="Trazado_721628" data-name="Trazado 721628" d="M237.548,228.245a1.019,1.019,0,0,1,.183.045l.527.156.854.26c.338.1.737.182,1.182.293a29.149,29.149,0,0,0,7.691.742,27.977,27.977,0,0,0,5.279-.784,21.141,21.141,0,0,0,5.621-2.379,17.048,17.048,0,0,0,4.938-4.531c1.27-1.97,2.013-4.333,3.281-6.517a9.4,9.4,0,0,1,.989-1.415c.376-.436.793-.815,1.19-1.214a20.041,20.041,0,0,1,2.634-2.021,24.028,24.028,0,0,1,5.7-2.665,41.008,41.008,0,0,1,10.67-1.78l-.089.072c.5-1.855.963-3.535,1.438-4.992a37.339,37.339,0,0,1,1.389-3.68,19.642,19.642,0,0,1,1.574-2.966,1.347,1.347,0,0,1-.1.2l-.309.568c-.264.5-.645,1.25-1.067,2.242s-.886,2.225-1.34,3.684-.911,3.137-1.4,5l-.018.068-.071,0a41.342,41.342,0,0,0-10.6,1.815,23.9,23.9,0,0,0-5.635,2.649,19.851,19.851,0,0,0-2.6,2c-.389.392-.806.773-1.168,1.194a9.144,9.144,0,0,0-.962,1.378c-1.25,2.149-1.995,4.513-3.292,6.524a17.211,17.211,0,0,1-5.026,4.6,21.23,21.23,0,0,1-5.691,2.383,27.865,27.865,0,0,1-5.325.759,28.341,28.341,0,0,1-7.722-.827c-.444-.119-.842-.21-1.18-.317l-.848-.285-.52-.18a.991.991,0,0,1-.174-.07" transform="translate(-122.381 -100.394)" fill="#263238"/>
          <path id="Trazado_721629" data-name="Trazado 721629" d="M262.736,289.742a.5.5,0,0,1-.018-.13c-.007-.1-.016-.228-.028-.385a5.791,5.791,0,0,1,.185-1.475,10.226,10.226,0,0,1,2.936-4.551c.825-.812,1.809-1.6,2.824-2.489a15.636,15.636,0,0,0,2.9-3.136,8.177,8.177,0,0,0,.975-2.075,21.5,21.5,0,0,0,.55-2.355,19.906,19.906,0,0,1,.594-2.466,8.073,8.073,0,0,1,1.2-2.332,11.359,11.359,0,0,1,3.963-3.262,19.907,19.907,0,0,1,4.507-1.612c2.967-.7,5.685-1.065,7.88-1.734a16.164,16.164,0,0,0,4.9-2.26,11.467,11.467,0,0,0,1.145-.927l.278-.265a.492.492,0,0,1,.1-.084,7.517,7.517,0,0,1-1.466,1.358,15.721,15.721,0,0,1-4.905,2.354c-2.2.7-4.932,1.076-7.875,1.789a19.832,19.832,0,0,0-4.447,1.606,11.148,11.148,0,0,0-3.873,3.191,7.855,7.855,0,0,0-1.169,2.261,19.764,19.764,0,0,0-.589,2.434,21.786,21.786,0,0,1-.563,2.381,8.427,8.427,0,0,1-1.011,2.131,15.716,15.716,0,0,1-2.955,3.168c-1.025.885-2.014,1.664-2.837,2.458a10.332,10.332,0,0,0-2.967,4.448,6.835,6.835,0,0,0-.236,1.964" transform="translate(-135.333 -133.021)" fill="#263238"/>
          <path id="Trazado_721630" data-name="Trazado 721630" d="M341.222,258.052c-.016.078-1.55-.236-3.469-.269s-3.465.2-3.478.127a3.435,3.435,0,0,1,1-.232,15.186,15.186,0,0,1,4.95.1,3.443,3.443,0,0,1,.993.273" transform="translate(-172.213 -132.671)" fill="#263238"/>
          <path id="Trazado_721631" data-name="Trazado 721631" d="M334.3,249.573a4.11,4.11,0,0,1-.036,4.383,6.591,6.591,0,0,0,.036-4.383" transform="translate(-172.205 -128.576)" fill="#263238"/>
          <path id="Trazado_721632" data-name="Trazado 721632" d="M306.5,290.276a15.746,15.746,0,0,0,1.731-2.757,11.937,11.937,0,0,0,1-3.368,11.153,11.153,0,0,0-1.963-8.176,11.958,11.958,0,0,0-2.42-2.547,15.687,15.687,0,0,0-2.794-1.671.769.769,0,0,1,.22.063c.139.054.352.117.609.24a10.568,10.568,0,0,1,2.075,1.223A11.479,11.479,0,0,1,308.4,287.6a10.585,10.585,0,0,1-1.294,2.032c-.173.226-.335.379-.434.49s-.16.162-.167.156" transform="translate(-155.616 -140.004)" fill="#263238"/>
          <path id="Trazado_721633" data-name="Trazado 721633" d="M310.37,310.25a11.153,11.153,0,0,0,1.171.844,6,6,0,0,0,1.546.653,4.131,4.131,0,0,0,2.183.01,4.509,4.509,0,0,0,2.151-1.525,15.449,15.449,0,0,1,2.153-2.3,7.219,7.219,0,0,1,3.3-1.127,9.116,9.116,0,0,0,3.5-1.037,6.738,6.738,0,0,0,1.465-1.128,7.518,7.518,0,0,0,1.125-1.405,8.572,8.572,0,0,0,1.211-3.169,8.835,8.835,0,0,0-.081-3.077,10.319,10.319,0,0,0-.9-2.542,11.723,11.723,0,0,0-2.338-3.137c-.335-.321-.608-.56-.8-.713a2.09,2.09,0,0,1-.281-.249,2.013,2.013,0,0,1,.313.208,9.247,9.247,0,0,1,.836.681,11.276,11.276,0,0,1,2.431,3.127,10.337,10.337,0,0,1,.949,2.582,8.952,8.952,0,0,1,.107,3.158,8.752,8.752,0,0,1-1.232,3.267,7.727,7.727,0,0,1-1.158,1.453,6.951,6.951,0,0,1-1.516,1.169,6.82,6.82,0,0,1-1.773.726c-.611.154-1.221.244-1.813.337a7.029,7.029,0,0,0-3.2,1.068,15.606,15.606,0,0,0-2.134,2.254,4.672,4.672,0,0,1-2.262,1.558,4.242,4.242,0,0,1-2.269-.046,5.892,5.892,0,0,1-1.562-.706,4.8,4.8,0,0,1-1.118-.929" transform="translate(-159.898 -149.581)" fill="#263238"/>
          <path id="Trazado_721634" data-name="Trazado 721634" d="M301.6,344.087c-.006-.048.618-.084,1.549-.413a7.023,7.023,0,0,0,4.661-5.613c.152-.976.072-1.6.121-1.6a1.29,1.29,0,0,1,.078.431,5.827,5.827,0,0,1-.018,1.193,6.794,6.794,0,0,1-4.785,5.763,5.92,5.92,0,0,1-1.169.237,1.29,1.29,0,0,1-.438,0" transform="translate(-155.382 -173.34)" fill="#263238"/>
          <path id="Trazado_721635" data-name="Trazado 721635" d="M267.669,369.207a2.56,2.56,0,0,1,.4.139c.254.1.635.239,1.129.4a17.21,17.21,0,0,0,4.317.781,16.309,16.309,0,0,0,12.951-5.332,16.169,16.169,0,0,0,1.916-2.551l.038-.063h.073a11.5,11.5,0,0,0,6.44-1.88,11.2,11.2,0,0,0,3.67-3.98,11.752,11.752,0,0,0,1.24-3.413c.083-.42.13-.749.154-.972a1.915,1.915,0,0,1,.052-.339,1.836,1.836,0,0,1,0,.343,8.451,8.451,0,0,1-.111.984,11.367,11.367,0,0,1-4.876,7.564,11.639,11.639,0,0,1-6.568,1.948l.111-.062a16.251,16.251,0,0,1-1.944,2.593,16.688,16.688,0,0,1-6.662,4.438,16.432,16.432,0,0,1-10.827.034c-.492-.177-.87-.328-1.118-.447a2.514,2.514,0,0,1-.376-.187" transform="translate(-137.899 -181.345)" fill="#263238"/>
          <path id="Trazado_721636" data-name="Trazado 721636" d="M347.256,331.38c-.043-.015.178-.576.322-1.524a8.349,8.349,0,0,0-2.069-6.907c-.64-.713-1.134-1.06-1.106-1.1a1.247,1.247,0,0,1,.365.216,6.689,6.689,0,0,1,.875.755,7.9,7.9,0,0,1,2.115,7.063,6.673,6.673,0,0,1-.316,1.112,1.24,1.24,0,0,1-.186.381" transform="translate(-177.431 -165.813)" fill="#263238"/>
          <path id="Trazado_721637" data-name="Trazado 721637" d="M350.936,307.777c.007-.046.5.057,1.288-.009a5.4,5.4,0,0,0,4.657-3.483c.286-.738.326-1.239.372-1.233a.856.856,0,0,1,0,.354,4.435,4.435,0,0,1-.2.941,5.212,5.212,0,0,1-4.818,3.6,4.382,4.382,0,0,1-.96-.071c-.223-.044-.342-.086-.338-.1" transform="translate(-180.797 -156.128)" fill="#263238"/>
          <path id="Trazado_721638" data-name="Trazado 721638" d="M354.681,255.126a2.472,2.472,0,0,1,.384.433,12.135,12.135,0,0,1,.9,1.293,16.053,16.053,0,0,1,1.085,2.078,16.786,16.786,0,0,1,1.343,5.563,16.141,16.141,0,0,1-.017,2.344,12.193,12.193,0,0,1-.214,1.564,2.512,2.512,0,0,1-.144.561c-.048-.009.112-.817.176-2.136a18.387,18.387,0,0,0-.038-2.315,18.038,18.038,0,0,0-1.325-5.489,18.441,18.441,0,0,0-1.022-2.077c-.659-1.144-1.17-1.79-1.132-1.82" transform="translate(-182.725 -131.437)" fill="#263238"/>
          <g id="Grupo_1011139" data-name="Grupo 1011139" transform="translate(176.158 105.504)" opacity="0.3">
            <g id="Grupo_1011138" data-name="Grupo 1011138">
              <g id="Grupo_1011137" data-name="Grupo 1011137" clip-path="url(#clip-path-17)">
                <path id="Trazado_721639" data-name="Trazado 721639" d="M366.245,224.467c.394-2.319.3-4.955-1.1-6.849,2.061,1.618,2.633,4.342,2.226,6.93s-1.564,5.38-4.022,6.289a15.455,15.455,0,0,0,2.894-6.369" transform="translate(-363.351 -217.618)"/>
              </g>
            </g>
          </g>
          <path id="Trazado_721640" data-name="Trazado 721640" d="M363.572,230.684a15.62,15.62,0,0,0,1.614-1.471,8.57,8.57,0,0,0,1.261-9.762,15.7,15.7,0,0,0-1.187-1.833,2.209,2.209,0,0,1,.423.416,7.576,7.576,0,0,1,.925,1.331,8.428,8.428,0,0,1-1.289,9.972,7.593,7.593,0,0,1-1.233,1.053,2.215,2.215,0,0,1-.515.295" transform="translate(-187.306 -112.113)" fill="#263238"/>
          <path id="Trazado_721641" data-name="Trazado 721641" d="M339.362,174.262a9.228,9.228,0,0,0,2.33-1.571,7.8,7.8,0,0,0,1.727-2.485,6.915,6.915,0,0,0-.74-7.046,7.808,7.808,0,0,0-2.206-2.071,9.191,9.191,0,0,0-2.605-1.053.573.573,0,0,1,.2.012,4.382,4.382,0,0,1,.561.1,6.787,6.787,0,0,1,1.941.788,7.717,7.717,0,0,1,2.3,2.087,7.032,7.032,0,0,1,.766,7.282,7.718,7.718,0,0,1-1.82,2.52A6.775,6.775,0,0,1,340.082,174a4.265,4.265,0,0,1-.528.211.572.572,0,0,1-.191.053" transform="translate(-174.064 -82.446)" fill="#263238"/>
          <path id="Trazado_721642" data-name="Trazado 721642" d="M310.566,196.811a.755.755,0,0,1-.051-.221,5.472,5.472,0,0,1-.083-.644,8.574,8.574,0,0,1,.15-2.384,9.589,9.589,0,0,1,1.322-3.288,8.891,8.891,0,0,1,7.272-4.225,9.593,9.593,0,0,1,3.511.48,8.563,8.563,0,0,1,2.145,1.05,5.484,5.484,0,0,1,.518.391c.114.094.172.147.166.154a11.6,11.6,0,0,0-2.885-1.421,9.73,9.73,0,0,0-3.443-.417A8.807,8.807,0,0,0,312.1,190.4a9.722,9.722,0,0,0-1.343,3.2,11.614,11.614,0,0,0-.194,3.21" transform="translate(-159.916 -95.845)" fill="#263238"/>
          <path id="Trazado_721643" data-name="Trazado 721643" d="M284.73,119.071a.36.36,0,0,1,.067.068l.182.214c.16.189.387.476.669.86a17.727,17.727,0,0,1,2.037,3.548,13.275,13.275,0,0,1,.836,2.775,10.43,10.43,0,0,1,.085,3.386,10.918,10.918,0,0,1-.439,1.816,9.931,9.931,0,0,1-.834,1.785A7.691,7.691,0,0,1,284.3,136.4v-.216a14.67,14.67,0,0,1,4.205,3.06,10.567,10.567,0,0,1,2.679,4.857,8.72,8.72,0,0,1-.365,4.894,7.026,7.026,0,0,1-2.9,3.577l.028-.188A7.807,7.807,0,0,1,289.8,156.4a10.8,10.8,0,0,1-.159,4.041,12.753,12.753,0,0,1-1.305,3.349,19.56,19.56,0,0,1-1.7,2.563,38.393,38.393,0,0,1-2.9,3.251l-.823.82-.217.207a.375.375,0,0,1-.079.065.381.381,0,0,1,.064-.08l.2-.222.795-.847a43.085,43.085,0,0,0,2.842-3.287,19.746,19.746,0,0,0,1.665-2.557,12.655,12.655,0,0,0,1.262-3.307,10.631,10.631,0,0,0,.136-3.959,7.592,7.592,0,0,0-1.808-3.883l-.1-.111.128-.077a6.791,6.791,0,0,0,2.785-3.457,8.488,8.488,0,0,0,.351-4.749,10.34,10.34,0,0,0-2.612-4.738,14.479,14.479,0,0,0-4.127-3.017l-.215-.107.214-.109a7.47,7.47,0,0,0,2.948-2.785,9.712,9.712,0,0,0,.824-1.738,10.829,10.829,0,0,0,.44-1.774,11.685,11.685,0,0,0-.857-6.074,18.7,18.7,0,0,0-1.965-3.559c-.271-.389-.487-.684-.636-.88l-.166-.226a.336.336,0,0,1-.051-.081" transform="translate(-145.598 -61.344)" fill="#263238"/>
          <path id="Trazado_721644" data-name="Trazado 721644" d="M287.117,110.836a1.974,1.974,0,0,1,.319-.192,7.707,7.707,0,0,1,.973-.437,10.347,10.347,0,0,1,3.866-.612,14.542,14.542,0,0,1,5.642,1.358,31.02,31.02,0,0,1,6.056,3.74,10.285,10.285,0,0,1,3.122,3.7,5.678,5.678,0,0,1,.3,4.278l-.154-.138a18.69,18.69,0,0,1,3.5-1.331,15.3,15.3,0,0,1,2.852-.461,18.352,18.352,0,0,1,1.857-.031l.488.027a.629.629,0,0,1,.167.022.636.636,0,0,1-.168.014l-.488.006c-.427.009-1.053.02-1.845.092a15.977,15.977,0,0,0-2.815.508,19.033,19.033,0,0,0-3.451,1.354l-.252.126.1-.264a5.472,5.472,0,0,0-.315-4.1,10.115,10.115,0,0,0-3.056-3.6,31.585,31.585,0,0,0-5.993-3.726,14.611,14.611,0,0,0-5.55-1.393,10.7,10.7,0,0,0-3.828.524,10.209,10.209,0,0,0-.984.389,2.019,2.019,0,0,1-.342.145" transform="translate(-147.918 -56.46)" fill="#263238"/>
          <path id="Trazado_721645" data-name="Trazado 721645" d="M315.553,102.115c0-.016.116-.058.338-.1a4.753,4.753,0,0,1,.96-.084,5.68,5.68,0,0,1,5.111,3.289,4.764,4.764,0,0,1,.321.909.866.866,0,0,1,.046.351c-.044.012-.157-.478-.53-1.179a5.951,5.951,0,0,0-4.955-3.188c-.792-.049-1.285.05-1.292.006" transform="translate(-162.568 -52.511)" fill="#263238"/>
          <path id="Trazado_721646" data-name="Trazado 721646" d="M266.343,88.947a17.588,17.588,0,0,1,4.251-.1,17.59,17.59,0,0,1-4.251.1" transform="translate(-137.216 -45.727)" fill="#263238"/>
          <path id="Trazado_721647" data-name="Trazado 721647" d="M264.808,103.952c-.025-.013.153-.324.377-.925a8.965,8.965,0,0,0,.542-2.64,8.76,8.76,0,0,0-.7-3.9,12.505,12.505,0,0,0-1.194-2.04,11.563,11.563,0,0,1-1.28-2.25,4.179,4.179,0,0,1-.283-1.306,3.84,3.84,0,0,1,.175-1.288c.245-.814.637-1.519.891-2.225a6.687,6.687,0,0,0,.175-3.918,7.042,7.042,0,0,0-1.138-2.428c-.384-.511-.65-.753-.63-.772a1,1,0,0,1,.2.166,5.221,5.221,0,0,1,.51.544,6.866,6.866,0,0,1,1.107,6.489c-.257.729-.642,1.437-.872,2.215a3.6,3.6,0,0,0,.107,2.432c.638,1.6,1.871,2.838,2.451,4.286a8.759,8.759,0,0,1,.668,4,8.4,8.4,0,0,1-.63,2.666,6.022,6.022,0,0,1-.33.668.972.972,0,0,1-.14.219" transform="translate(-134.842 -41.35)" fill="#263238"/>
          <path id="Trazado_721648" data-name="Trazado 721648" d="M269.049,162.16c-.007,0-.04-.048-.086-.153a1.967,1.967,0,0,1-.131-.485,3.431,3.431,0,0,1,.294-1.81c.29-.728.837-1.479,1.23-2.4a9.989,9.989,0,0,0,.8-3.146,10.857,10.857,0,0,0-1.109-5.754,16.679,16.679,0,0,0-1.338-2.075,3.343,3.343,0,0,1,.469.478,9.117,9.117,0,0,1,1.03,1.512,10.552,10.552,0,0,1,1.2,5.861,9.868,9.868,0,0,1-.839,3.221c-.42.945-.979,1.679-1.279,2.375a3.548,3.548,0,0,0-.361,1.726,6.346,6.346,0,0,0,.117.648" transform="translate(-138.433 -75.391)" fill="#263238"/>
          <path id="Trazado_721649" data-name="Trazado 721649" d="M242.632,194.648c.037-.03.4.5,1.174,1.152a7.659,7.659,0,0,0,7.39,1.459c.964-.312,1.5-.66,1.524-.619a1.373,1.373,0,0,1-.362.265,6.4,6.4,0,0,1-1.1.527,7.371,7.371,0,0,1-7.569-1.5,6.38,6.38,0,0,1-.82-.906,1.35,1.35,0,0,1-.234-.383" transform="translate(-124.999 -100.279)" fill="#263238"/>
          <path id="Trazado_721650" data-name="Trazado 721650" d="M267.039,222.211a.7.7,0,0,1-.442.135,2.276,2.276,0,0,1-1.208-.346,21.822,21.822,0,0,1-3.285-2.443,22.949,22.949,0,0,1-2.8-2.983c-.321-.414-.566-.76-.727-1a1.551,1.551,0,0,1-.226-.4c.032-.023.421.492,1.094,1.285a29.719,29.719,0,0,0,2.829,2.906,27.932,27.932,0,0,0,3.2,2.477,2.376,2.376,0,0,0,1.116.4c.283.014.435-.059.443-.035" transform="translate(-133.099 -110.854)" fill="#263238"/>
          <path id="Trazado_721651" data-name="Trazado 721651" d="M260.444,229.662c-.024-.035.333-.263.8-.744a5.485,5.485,0,0,0,1.5-4.769c-.107-.66-.269-1.051-.229-1.067a2.539,2.539,0,0,1,.408,1.032,5.127,5.127,0,0,1-1.55,4.935,2.521,2.521,0,0,1-.925.612" transform="translate(-134.176 -114.929)" fill="#263238"/>
          <g id="Grupo_1011142" data-name="Grupo 1011142" transform="translate(150.208 83.54)" opacity="0.3">
            <g id="Grupo_1011141" data-name="Grupo 1011141">
              <g id="Grupo_1011140" data-name="Grupo 1011140" clip-path="url(#clip-path-18)">
                <path id="Trazado_721652" data-name="Trazado 721652" d="M324.647,180.471a9.788,9.788,0,0,0-14.464,8.756,9,9,0,0,1,9.193-11.534c1.856.116,3.742.8,5.531.294a6.32,6.32,0,0,0,2.647-1.692,5.3,5.3,0,0,0,1.851-3.982s1.09,3.4-.99,5.474a11.641,11.641,0,0,1-3.766,2.684" transform="translate(-309.826 -172.313)"/>
              </g>
            </g>
          </g>
          <g id="Grupo_1011145" data-name="Grupo 1011145" transform="translate(143.387 53.052)" opacity="0.3">
            <g id="Grupo_1011144" data-name="Grupo 1011144">
              <g id="Grupo_1011143" data-name="Grupo 1011143" clip-path="url(#clip-path-19)">
                <path id="Trazado_721653" data-name="Trazado 721653" d="M308.121,113.02a12.485,12.485,0,0,1,3.367,3.27,6.578,6.578,0,0,1,1.134,4.477,23.308,23.308,0,0,1,7.935-.1c-3.428.274-5.878.116-8.671,1.9a9.547,9.547,0,0,0-2.49-6.971,15.787,15.787,0,0,0-6.293-4.141,47.124,47.124,0,0,0-7.345-1.947,18.576,18.576,0,0,1,12.365,3.511" transform="translate(-295.757 -109.427)"/>
              </g>
            </g>
          </g>
          <g id="Grupo_1011148" data-name="Grupo 1011148" transform="translate(127.763 39.139)" opacity="0.3">
            <g id="Grupo_1011147" data-name="Grupo 1011147">
              <g id="Grupo_1011146" data-name="Grupo 1011146" clip-path="url(#clip-path-20)">
                <path id="Trazado_721654" data-name="Trazado 721654" d="M264.816,84.782l3.053-.2a2.636,2.636,0,0,0,1.294-.312,6.283,6.283,0,0,0-2.532-.326.739.739,0,0,1-.927-.612,6.352,6.352,0,0,0-2.174-2.6,4.136,4.136,0,0,0,.732,2,2.909,2.909,0,0,1,.5,2.048" transform="translate(-263.53 -80.729)"/>
              </g>
            </g>
          </g>
          <g id="Grupo_1011151" data-name="Grupo 1011151" transform="translate(124.714 108.146)" opacity="0.3">
            <g id="Grupo_1011150" data-name="Grupo 1011150">
              <g id="Grupo_1011149" data-name="Grupo 1011149" clip-path="url(#clip-path-21)">
                <path id="Trazado_721655" data-name="Trazado 721655" d="M261.36,223.414a11.338,11.338,0,0,0,6.955,3.165,6.057,6.057,0,0,1-4.874.081,14.6,14.6,0,0,1-2.385,2.8,5.758,5.758,0,0,1-3.816.784c1.076-.645,2.648-.858,3.263-1.951a7.3,7.3,0,0,0,.7-2.908,2.831,2.831,0,0,0-.456-2.316" transform="translate(-257.24 -223.067)"/>
              </g>
            </g>
          </g>
          <g id="Grupo_1011154" data-name="Grupo 1011154" transform="translate(162.174 121.54)" opacity="0.3">
            <g id="Grupo_1011153" data-name="Grupo 1011153">
              <g id="Grupo_1011152" data-name="Grupo 1011152" clip-path="url(#clip-path-22)">
                <path id="Trazado_721656" data-name="Trazado 721656" d="M340.8,254.246a3.886,3.886,0,0,0-2.125-1.153,10.449,10.449,0,0,0-2.449-.149,2.841,2.841,0,0,0-1.146-2.183.253.253,0,0,0-.184-.067c-.149.027-.135.244-.09.388a3.859,3.859,0,0,1-.227,2.817c-.062.125-.121.3-.01.382a.284.284,0,0,0,.165.041,28.533,28.533,0,0,0,3.035-.176,7.783,7.783,0,0,1,3.012.255" transform="translate(-334.507 -250.693)"/>
              </g>
            </g>
          </g>
          <g id="Grupo_1011157" data-name="Grupo 1011157" transform="translate(126.453 125.153)" opacity="0.3">
            <g id="Grupo_1011156" data-name="Grupo 1011156">
              <g id="Grupo_1011155" data-name="Grupo 1011155" clip-path="url(#clip-path-23)">
                <path id="Trazado_721657" data-name="Trazado 721657" d="M261.756,287.323c1.6-1.758.648-1.8,2.448-3.353a35.008,35.008,0,0,0,7.183-7.814c.617-.84.5-1.968.752-2.933.309-1.182.254-2.818.878-3.6,1.969-2.616,4.033-4.692,6.431-4.862a16.274,16.274,0,0,1,5.4-1.738,26.126,26.126,0,0,0,6.089-1.434c2.285-.807,4.045-1.57,5.587-3.439l.316.129c-1.524,2.974-4.6,4.912-7.815,5.822a29.986,29.986,0,0,1-7.725.911,6.147,6.147,0,0,1,.955.406c7.481,5.53,7.171,11.444,4.024,15.953-2.729,3.91-4.4,8.8-9.311,10.847-3.339,1.394-6.692,2.756-10.039,4.132a6.823,6.823,0,0,1,2.732-2.9c2.172-1.054,4.566-1.644,6.766-2.65,3.091-1.415,5.617-3.356,4.988-7.52,6.277-3.147,7.439-11.059,2.335-15.651-.839-.755-3.161-1.132-3.848-.555-2.308,1.936-4.842,4.075-6.08,6.7-2.049,4.354-4.055,8.486-8.018,11.477-1.34,1.012-2.187,2.662-3.323,3.965a11.714,11.714,0,0,1-1.61,1.307c-.306-.293,1.192-2.912.887-3.2" transform="translate(-260.827 -258.147)"/>
              </g>
            </g>
          </g>
          <g id="Grupo_1011160" data-name="Grupo 1011160" transform="translate(120.852 116.9)" opacity="0.3">
            <g id="Grupo_1011159" data-name="Grupo 1011159">
              <g id="Grupo_1011158" data-name="Grupo 1011158" clip-path="url(#clip-path-24)">
                <path id="Trazado_721658" data-name="Trazado 721658" d="M264.672,250.943c3.768-2.073,6.028-6.277,7.825-9.82-.921,4.995-3.984,9.832-8.521,12.115a16.791,16.791,0,0,1-14.7.076c5.255.117,10.791.162,15.4-2.371" transform="translate(-249.275 -241.123)"/>
              </g>
            </g>
          </g>
          <g id="Grupo_1011163" data-name="Grupo 1011163" transform="translate(156.45 77.59)" opacity="0.2">
            <g id="Grupo_1011162" data-name="Grupo 1011162">
              <g id="Grupo_1011161" data-name="Grupo 1011161" clip-path="url(#clip-path-25)">
                <path id="Trazado_721659" data-name="Trazado 721659" d="M323.6,160.6a4.758,4.758,0,0,1,2.106-.559,3.594,3.594,0,0,1,1.208.159,22.388,22.388,0,0,1,4.127,1.575,8.325,8.325,0,0,1,3.558,3.364,2.421,2.421,0,0,1,.122,2.44,1.928,1.928,0,0,1-1.767.707,4.572,4.572,0,0,1-1.847-.707c-1.991-1.175-3.746-2.807-5.937-3.542-.994-.333-2.235-.632-2.442-1.713a1.674,1.674,0,0,1,.873-1.724" transform="translate(-322.7 -160.04)" fill="#fff"/>
              </g>
            </g>
          </g>
          <g id="Grupo_1011166" data-name="Grupo 1011166" transform="translate(144.24 55.249)" opacity="0.2">
            <g id="Grupo_1011165" data-name="Grupo 1011165">
              <g id="Grupo_1011164" data-name="Grupo 1011164" clip-path="url(#clip-path-25)">
                <path id="Trazado_721660" data-name="Trazado 721660" d="M298.414,114.523a4.771,4.771,0,0,1,2.106-.559,3.605,3.605,0,0,1,1.208.16,22.387,22.387,0,0,1,4.127,1.575,8.326,8.326,0,0,1,3.558,3.364,2.42,2.42,0,0,1,.122,2.439,1.929,1.929,0,0,1-1.767.708,4.566,4.566,0,0,1-1.847-.708c-1.991-1.175-3.746-2.807-5.937-3.541-.994-.334-2.235-.632-2.442-1.713a1.674,1.674,0,0,1,.873-1.724" transform="translate(-297.516 -113.96)" fill="#fff"/>
              </g>
            </g>
          </g>
          <g id="Grupo_1011169" data-name="Grupo 1011169" transform="translate(119.049 31.144)" opacity="0.2">
            <g id="Grupo_1011168" data-name="Grupo 1011168">
              <g id="Grupo_1011167" data-name="Grupo 1011167" clip-path="url(#clip-path-27)">
                <path id="Trazado_721661" data-name="Trazado 721661" d="M245.864,69.092c.526-1.053.946-2.345,1.957-2.947a13.809,13.809,0,0,1,5.471-1.794c4.236-.631,8.4,1.5,11.837,4.053s6.576,5.621,10.491,7.356a6.836,6.836,0,0,1,1.548.818,1.845,1.845,0,0,1,.767,1.5c-.075,1.021-1.234,1.58-2.247,1.733-3.384.513-6.725-1.123-9.519-3.1s-5.357-4.361-8.5-5.7c-1.554-.663-3.432-1.026-4.872-.144-.99.607-1.6,1.709-2.61,2.29a3.1,3.1,0,0,1-4.32-4.066" transform="translate(-245.555 -64.239)" fill="#fff"/>
              </g>
            </g>
          </g>
          <path id="Trazado_721662" data-name="Trazado 721662" d="M356.349,158.866a4.554,4.554,0,0,1-.173-.764c-.089-.495-.242-1.206-.456-2.077s-.51-1.9-.892-3.021a33.815,33.815,0,0,0-3.323-6.943c-.635-1-1.245-1.879-1.793-2.59s-1-1.278-1.332-1.658a4.516,4.516,0,0,1-.486-.614,4.535,4.535,0,0,1,.561.547c.353.36.834.91,1.4,1.612a30.254,30.254,0,0,1,1.85,2.575,31.221,31.221,0,0,1,3.347,6.993,30.312,30.312,0,0,1,.845,3.056c.192.881.319,1.6.378,2.1a4.6,4.6,0,0,1,.074.78" transform="translate(-179.23 -72.744)" fill="#fff"/>
          <path id="Trazado_721663" data-name="Trazado 721663" d="M341.436,171.626a8.934,8.934,0,0,0,.925-1.2,4.549,4.549,0,0,0-1.612-6.3,8.923,8.923,0,0,0-1.388-.611,1.12,1.12,0,0,1,.415.047,4.042,4.042,0,0,1,1.065.407,4.567,4.567,0,0,1,1.677,6.556,4.054,4.054,0,0,1-.739.868,1.113,1.113,0,0,1-.341.24" transform="translate(-174.833 -84.234)" fill="#fff"/>
          <path id="Trazado_721664" data-name="Trazado 721664" d="M292.054,172.261a8.447,8.447,0,0,1,.123-.922A5.834,5.834,0,0,0,291,167.187a8.574,8.574,0,0,1-.588-.721,2.176,2.176,0,0,1,.729.6,5.188,5.188,0,0,1,1.216,4.294,2.166,2.166,0,0,1-.3.9" transform="translate(-149.615 -85.76)" fill="#fff"/>
          <path id="Trazado_721665" data-name="Trazado 721665" d="M339.726,119.613c.02-.024.193.069.408.3a2.69,2.69,0,0,1,.641,2.289c-.065.308-.165.477-.194.467a3.953,3.953,0,0,0-.855-3.054" transform="translate(-175.02 -61.621)" fill="#fff"/>
          <path id="Trazado_721666" data-name="Trazado 721666" d="M363.873,230.675c-.071-.032.255-.782.348-1.766s-.066-1.782.01-1.8a3.966,3.966,0,0,1-.358,3.565" transform="translate(-187.457 -117.003)" fill="#fff"/>
          <path id="Trazado_721667" data-name="Trazado 721667" d="M372.166,272.455c-.039-.024.218-.446.495-1.181a8.481,8.481,0,0,0-.015-5.988c-.281-.734-.541-1.154-.5-1.178.015-.01.091.087.217.273a5.319,5.319,0,0,1,.452.835,7.7,7.7,0,0,1,.016,6.126,5.262,5.262,0,0,1-.448.837c-.125.187-.2.285-.216.275" transform="translate(-191.721 -136.064)" fill="#fff"/>
          <path id="Trazado_721668" data-name="Trazado 721668" d="M342.574,305.957c-.032-.033.331-.355.726-1.008a4.986,4.986,0,0,0-.218-5.573c-.445-.621-.832-.913-.8-.949.01-.013.116.047.29.18a4.107,4.107,0,0,1,.657.658,4.833,4.833,0,0,1,.225,5.781,4.085,4.085,0,0,1-.6.707c-.163.147-.265.215-.275.2" transform="translate(-176.337 -153.744)" fill="#fff"/>
          <path id="Trazado_721669" data-name="Trazado 721669" d="M343.723,333.44a8.281,8.281,0,0,0-1.17-3.743,4.142,4.142,0,0,1,1.17,3.743" transform="translate(-176.476 -169.854)" fill="#fff"/>
          <path id="Trazado_721670" data-name="Trazado 721670" d="M305.275,292.537a11.555,11.555,0,0,0,1.358-.99,5.729,5.729,0,0,0,1.033-7.327,11.7,11.7,0,0,0-1.031-1.327,1.37,1.37,0,0,1,.369.274,5.05,5.05,0,0,1,.816.955,5.681,5.681,0,0,1-1.066,7.562,5.028,5.028,0,0,1-1.048.692,1.34,1.34,0,0,1-.431.162" transform="translate(-157.273 -145.741)" fill="#fff"/>
          <path id="Trazado_721671" data-name="Trazado 721671" d="M311.351,361.673c-.012-.046.659-.2,1.675-.629a13.746,13.746,0,0,0,1.721-.874,13.458,13.458,0,0,0,3.545-3.088,13.621,13.621,0,0,0,1.1-1.585c.56-.947.809-1.59.853-1.572a1.732,1.732,0,0,1-.142.464,8.9,8.9,0,0,1-.553,1.2,11.841,11.841,0,0,1-1.074,1.643,12.5,12.5,0,0,1-3.61,3.145,11.9,11.9,0,0,1-1.774.838,8.854,8.854,0,0,1-1.264.383,1.734,1.734,0,0,1-.479.077" transform="translate(-160.403 -182.337)" fill="#fff"/>
          <path id="Trazado_721672" data-name="Trazado 721672" d="M321.492,254.831a9.226,9.226,0,0,0,3.867-4.167,6.07,6.07,0,0,1-3.867,4.167" transform="translate(-165.627 -129.138)" fill="#fff"/>
          <path id="Trazado_721673" data-name="Trazado 721673" d="M285.455,205.266c-.05-.062.943-.844,1.878-2.069s1.445-2.378,1.517-2.346a8.235,8.235,0,0,1-3.4,4.414" transform="translate(-147.061 -103.475)" fill="#fff"/>
          <g id="Grupo_1011172" data-name="Grupo 1011172" transform="translate(155.065 100.684)" opacity="0.2">
            <g id="Grupo_1011171" data-name="Grupo 1011171">
              <g id="Grupo_1011170" data-name="Grupo 1011170" clip-path="url(#clip-path-28)">
                <path id="Trazado_721674" data-name="Trazado 721674" d="M339.661,207.92a1.783,1.783,0,0,0-2.066.212,9.051,9.051,0,0,0-1.434,1.7c-2,2.553-2.156,5.135-5.329,5.8s-6.487,1.037-9.329,2.6a2.94,2.94,0,0,0-1.618,1.713,2.16,2.16,0,0,0,1.19,2.251,4.782,4.782,0,0,0,2.67.391c3.148-.259,6.076-1.653,8.922-3.024,3.9-1.881,5.665-4.958,7.323-8.962,0,0,1.009-1.7-.328-2.677" transform="translate(-319.843 -207.675)" fill="#fff"/>
              </g>
            </g>
          </g>
          <g id="Grupo_1011175" data-name="Grupo 1011175" transform="translate(147.567 116.438)" opacity="0.2">
            <g id="Grupo_1011174" data-name="Grupo 1011174">
              <g id="Grupo_1011173" data-name="Grupo 1011173" clip-path="url(#clip-path-29)">
                <path id="Trazado_721675" data-name="Trazado 721675" d="M305.882,240.41l.662-.24a2.032,2.032,0,1,1-2.1,2.571,1.894,1.894,0,0,1,1.442-2.331" transform="translate(-304.379 -240.17)" fill="#fff"/>
              </g>
            </g>
          </g>
        </g>
      </g>
      <g id="Grupo_1011245" data-name="Grupo 1011245">
        <g id="Grupo_1011244" data-name="Grupo 1011244" clip-path="url(#clip-path-2)">
          <path id="Trazado_721676" data-name="Trazado 721676" d="M101.543,95.693s-2.218-2.534,1.584-8.712,3.643-8.553,8.712-10.454,6.178-3.168,9.662-5.86,10.929-12.038,22.651-9.187,9.117,13.3,9.468,18.691-.827,14.414,0,19.165.916,11.563,0,14.414,0,18.215,0,18.215v44.35s1.619,40.39-2.341,44.826-12.062,9.82-23.692,5.86-15.431-7.286-18.124-10.3a15.311,15.311,0,0,1-8.562-14.1,17.619,17.619,0,0,1-5.851-6.653c-2.218-4.435-5.069-7.444-5.7-11.721s.951-5.385.951-5.385-1.9-.634-2.693-6.336-2.851-8.87-2.376-11.4a10.119,10.119,0,0,1,2.218-4.435s-1.566-.792-2.288-3.8a71.92,71.92,0,0,1-1.038-14.255,19,19,0,0,1,1.109-6.177s-.475-11.4,3.643-12.988l1.742-.792s-1.742-1.425.159-4.91,1.584-7.761,3.326-10.613,3.484-7.919,7.444-7.444" transform="translate(-43.321 -31.398)" fill="#455a64"/>
          <g id="Grupo_1011180" data-name="Grupo 1011180" transform="translate(57.339 143.757)" opacity="0.3">
            <g id="Grupo_1011179" data-name="Grupo 1011179">
              <g id="Grupo_1011178" data-name="Grupo 1011178" clip-path="url(#clip-path-8)">
                <path id="Trazado_721677" data-name="Trazado 721677" d="M118.27,296.52l.048.014-.048-.014" transform="translate(-118.27 -296.52)"/>
              </g>
            </g>
          </g>
          <g id="Grupo_1011183" data-name="Grupo 1011183" transform="translate(57.387 143.771)" opacity="0.3">
            <g id="Grupo_1011182" data-name="Grupo 1011182">
              <g id="Grupo_1011181" data-name="Grupo 1011181" clip-path="url(#clip-path-9)">
                <path id="Trazado_721678" data-name="Trazado 721678" d="M118.369,296.548h0" transform="translate(-118.369 -296.548)"/>
              </g>
            </g>
          </g>
          <g id="Grupo_1011186" data-name="Grupo 1011186" transform="translate(57.274 143.739)" opacity="0.3">
            <g id="Grupo_1011185" data-name="Grupo 1011185">
              <g id="Grupo_1011184" data-name="Grupo 1011184" clip-path="url(#clip-path-10)">
                <path id="Trazado_721679" data-name="Trazado 721679" d="M118.2,296.5h0" transform="translate(-118.135 -296.482)"/>
              </g>
            </g>
          </g>
          <g id="Grupo_1011189" data-name="Grupo 1011189" transform="translate(51.193 143.757)" opacity="0.3">
            <g id="Grupo_1011188" data-name="Grupo 1011188">
              <g id="Grupo_1011187" data-name="Grupo 1011187" clip-path="url(#clip-path-34)">
                <path id="Trazado_721680" data-name="Trazado 721680" d="M110.947,300.368c.156-1.3.522-2.566.792-3.848A11.117,11.117,0,0,0,109.4,304c-1.353.155-3.223-.808-3.8-.965,1.6,1.885,5.34,4.135,5.89,6.414.573,2.378-2.42,4.423-1.207,7.073.861-.766.466-1.355.65-2.24.938-4.509,6.08-4.225,8.457-3.618a40.531,40.531,0,0,0-4.211-2.239c-4.172-1.8-4.762-3.6-4.225-8.055" transform="translate(-105.593 -296.52)"/>
              </g>
            </g>
          </g>
          <g id="Grupo_1011192" data-name="Grupo 1011192" transform="translate(66.757 158.932)" opacity="0.3">
            <g id="Grupo_1011191" data-name="Grupo 1011191">
              <g id="Grupo_1011190" data-name="Grupo 1011190" clip-path="url(#clip-path-12)">
                <path id="Trazado_721681" data-name="Trazado 721681" d="M138.405,328.221c-.233-.128-.471-.263-.71-.4l3.261,3.106c.778.27,2.358.756,5.157-1.039-4.794,1.814-5.727-.575-7.709-1.667" transform="translate(-137.695 -327.821)"/>
              </g>
            </g>
          </g>
          <g id="Grupo_1011195" data-name="Grupo 1011195" transform="translate(64.984 157.9)" opacity="0.3">
            <g id="Grupo_1011194" data-name="Grupo 1011194">
              <g id="Grupo_1011193" data-name="Grupo 1011193" clip-path="url(#clip-path-13)">
                <path id="Trazado_721682" data-name="Trazado 721682" d="M134.038,325.692c.6.352,1.2.7,1.773,1.032l-.59-.562a3.139,3.139,0,0,0-1.183-.47" transform="translate(-134.038 -325.692)"/>
              </g>
            </g>
          </g>
          <g id="Grupo_1011198" data-name="Grupo 1011198" transform="translate(62.706 169.432)" opacity="0.3">
            <g id="Grupo_1011197" data-name="Grupo 1011197">
              <g id="Grupo_1011196" data-name="Grupo 1011196" clip-path="url(#clip-path-14)">
                <path id="Trazado_721683" data-name="Trazado 721683" d="M141.337,360.39c2.533,2.509,4.674,5.643,7.641,7.273,2.8,1.539,6.472,1.5,9.665,2.572a12.939,12.939,0,0,1-11.7-2.28c-3.3-2.424-6.74-4.669-10.194-6.874-3.527-2.252-6.2-5.133-7.34-9.229a2.5,2.5,0,0,1,.8-2.374c.36.952.8,1.882,1.065,2.859a11.636,11.636,0,0,0,6.8,7.78c1.034.467,2.392.216,3.262.272" transform="translate(-129.34 -349.478)"/>
              </g>
            </g>
          </g>
          <g id="Grupo_1011201" data-name="Grupo 1011201" transform="translate(93.066 70.24)" opacity="0.3">
            <g id="Grupo_1011200" data-name="Grupo 1011200">
              <g id="Grupo_1011199" data-name="Grupo 1011199" clip-path="url(#clip-path-15)">
                <path id="Trazado_721684" data-name="Trazado 721684" d="M195.637,144.88c-4.26,6.093,1.386,13.873-1.341,16.529-.279-.772.383-1.639-.085-2.23-3.772-4.775-2.457-11.925,1.426-14.3" transform="translate(-191.963 -144.88)"/>
              </g>
            </g>
          </g>
          <g id="Grupo_1011204" data-name="Grupo 1011204" transform="translate(88.212 179.134)" opacity="0.3">
            <g id="Grupo_1011203" data-name="Grupo 1011203">
              <g id="Grupo_1011202" data-name="Grupo 1011202" clip-path="url(#clip-path-16)">
                <path id="Trazado_721685" data-name="Trazado 721685" d="M192.751,369.489l-4.643,2.885-6.158-2.885Z" transform="translate(-181.95 -369.489)"/>
              </g>
            </g>
          </g>
          <path id="Trazado_721686" data-name="Trazado 721686" d="M170.145,228.245a.991.991,0,0,1-.174.07l-.52.18-.848.285c-.337.106-.735.2-1.18.317a28.341,28.341,0,0,1-7.722.827,27.866,27.866,0,0,1-5.325-.759,21.214,21.214,0,0,1-5.691-2.383,17.211,17.211,0,0,1-5.026-4.6c-1.3-2.011-2.042-4.375-3.292-6.524a9.145,9.145,0,0,0-.962-1.378c-.362-.421-.779-.8-1.168-1.194a19.9,19.9,0,0,0-2.6-2A23.894,23.894,0,0,0,130,208.444a41.342,41.342,0,0,0-10.6-1.815l-.071,0-.018-.068c-.487-1.858-.938-3.538-1.4-5s-.919-2.692-1.34-3.684-.8-1.739-1.067-2.242l-.309-.568a1.351,1.351,0,0,1-.1-.2,19.642,19.642,0,0,1,1.574,2.966,37.383,37.383,0,0,1,1.389,3.68c.476,1.457.94,3.137,1.438,4.992l-.089-.072a41.008,41.008,0,0,1,10.67,1.78,24.028,24.028,0,0,1,5.7,2.665,20.008,20.008,0,0,1,2.634,2.021c.4.4.814.779,1.19,1.214a9.4,9.4,0,0,1,.989,1.415c1.267,2.184,2.011,4.547,3.281,6.517a17.048,17.048,0,0,0,4.938,4.531,21.126,21.126,0,0,0,5.621,2.379,27.977,27.977,0,0,0,5.279.784A29.155,29.155,0,0,0,167.4,229c.444-.111.843-.195,1.181-.293l.854-.26.527-.156a1.018,1.018,0,0,1,.183-.045" transform="translate(-59.296 -100.394)" fill="#263238"/>
          <path id="Trazado_721687" data-name="Trazado 721687" d="M166.325,289.742a6.835,6.835,0,0,0-.236-1.964,10.332,10.332,0,0,0-2.967-4.448c-.822-.794-1.812-1.573-2.837-2.458a15.715,15.715,0,0,1-2.955-3.168,8.426,8.426,0,0,1-1.011-2.131,21.779,21.779,0,0,1-.563-2.381,19.775,19.775,0,0,0-.589-2.434A7.854,7.854,0,0,0,154,268.5a11.148,11.148,0,0,0-3.873-3.191,19.832,19.832,0,0,0-4.447-1.606c-2.943-.713-5.67-1.094-7.875-1.789a15.721,15.721,0,0,1-4.905-2.354,7.517,7.517,0,0,1-1.466-1.358.492.492,0,0,1,.1.084l.279.265a11.392,11.392,0,0,0,1.145.927,16.164,16.164,0,0,0,4.9,2.26c2.195.669,4.914,1.029,7.88,1.734a19.907,19.907,0,0,1,4.507,1.612,11.359,11.359,0,0,1,3.963,3.262,8.075,8.075,0,0,1,1.2,2.332,19.914,19.914,0,0,1,.594,2.466,21.5,21.5,0,0,0,.55,2.355,8.175,8.175,0,0,0,.975,2.075,15.636,15.636,0,0,0,2.9,3.136c1.015.889,2,1.677,2.824,2.489a10.226,10.226,0,0,1,2.936,4.551,5.792,5.792,0,0,1,.185,1.475c-.011.157-.021.284-.028.385a.5.5,0,0,1-.018.13" transform="translate(-67.712 -133.021)" fill="#263238"/>
          <path id="Trazado_721688" data-name="Trazado 721688" d="M117.584,258.052a3.45,3.45,0,0,1,.993-.273,15.186,15.186,0,0,1,4.95-.1,3.466,3.466,0,0,1,1,.232c-.013.079-1.559-.171-3.478-.126s-3.454.347-3.469.269" transform="translate(-60.577 -132.671)" fill="#263238"/>
          <path id="Trazado_721689" data-name="Trazado 721689" d="M131.184,249.573a6.591,6.591,0,0,0,.036,4.383,4.11,4.11,0,0,1-.036-4.383" transform="translate(-67.267 -128.576)" fill="#263238"/>
          <path id="Trazado_721690" data-name="Trazado 721690" d="M151.664,290.276c-.007.006-.064-.048-.167-.156s-.262-.264-.434-.49a10.587,10.587,0,0,1-1.294-2.032,11.479,11.479,0,0,1,3.437-14.314,10.555,10.555,0,0,1,2.076-1.223c.256-.123.47-.186.609-.24a.769.769,0,0,1,.22-.063,15.727,15.727,0,0,0-2.794,1.671,11.949,11.949,0,0,0-2.42,2.547,11.149,11.149,0,0,0-1.963,8.176,11.921,11.921,0,0,0,1,3.368,15.744,15.744,0,0,0,1.731,2.757" transform="translate(-76.537 -140.004)" fill="#263238"/>
          <path id="Trazado_721691" data-name="Trazado 721691" d="M134.429,310.25a4.8,4.8,0,0,1-1.118.929,5.885,5.885,0,0,1-1.562.706,4.246,4.246,0,0,1-2.269.047,4.673,4.673,0,0,1-2.262-1.559,15.636,15.636,0,0,0-2.135-2.254,7.033,7.033,0,0,0-3.2-1.068c-.592-.094-1.2-.184-1.813-.337a6.838,6.838,0,0,1-1.773-.726,6.948,6.948,0,0,1-1.516-1.169,7.712,7.712,0,0,1-1.158-1.453,8.752,8.752,0,0,1-1.232-3.267,8.964,8.964,0,0,1,.107-3.158,10.336,10.336,0,0,1,.949-2.582,11.276,11.276,0,0,1,2.431-3.127,9.248,9.248,0,0,1,.836-.681,2.014,2.014,0,0,1,.313-.208,2.05,2.05,0,0,1-.281.249c-.191.153-.464.392-.8.713a11.719,11.719,0,0,0-2.338,3.138,10.327,10.327,0,0,0-.9,2.541,8.837,8.837,0,0,0-.081,3.078,8.571,8.571,0,0,0,1.211,3.169,7.519,7.519,0,0,0,1.125,1.405,6.738,6.738,0,0,0,1.465,1.128,9.107,9.107,0,0,0,3.5,1.037,7.219,7.219,0,0,1,3.3,1.127,15.449,15.449,0,0,1,2.153,2.3,4.508,4.508,0,0,0,2.152,1.525,4.129,4.129,0,0,0,2.183-.01,6.027,6.027,0,0,0,1.547-.653,11.208,11.208,0,0,0,1.171-.844" transform="translate(-58.886 -149.581)" fill="#263238"/>
          <path id="Trazado_721692" data-name="Trazado 721692" d="M157.749,344.087a1.29,1.29,0,0,1-.438,0,5.92,5.92,0,0,1-1.169-.237,6.794,6.794,0,0,1-4.785-5.763,5.83,5.83,0,0,1-.018-1.193,1.271,1.271,0,0,1,.079-.431c.048,0-.032.623.12,1.6a7.022,7.022,0,0,0,4.661,5.614c.931.328,1.556.365,1.549.412" transform="translate(-77.956 -173.34)" fill="#263238"/>
          <path id="Trazado_721693" data-name="Trazado 721693" d="M164.11,369.207a2.513,2.513,0,0,1-.376.187c-.248.119-.625.27-1.118.447a16.432,16.432,0,0,1-10.827-.034,16.688,16.688,0,0,1-6.662-4.438,16.252,16.252,0,0,1-1.944-2.593l.111.062a11.64,11.64,0,0,1-6.568-1.948,11.367,11.367,0,0,1-4.876-7.564,8.33,8.33,0,0,1-.111-.984,1.827,1.827,0,0,1-.005-.344,1.859,1.859,0,0,1,.052.339c.024.223.071.552.154.972a11.741,11.741,0,0,0,1.241,3.413,11.192,11.192,0,0,0,3.669,3.98,11.5,11.5,0,0,0,6.44,1.88h.074l.038.063a16.2,16.2,0,0,0,1.916,2.551,16.309,16.309,0,0,0,12.951,5.332,17.21,17.21,0,0,0,4.317-.781c.494-.162.876-.3,1.129-.4a2.56,2.56,0,0,1,.4-.139" transform="translate(-67.865 -181.345)" fill="#263238"/>
          <path id="Trazado_721694" data-name="Trazado 721694" d="M115.21,331.381a1.24,1.24,0,0,1-.186-.381,6.715,6.715,0,0,1-.316-1.112,7.9,7.9,0,0,1,2.115-7.063,6.692,6.692,0,0,1,.875-.755,1.222,1.222,0,0,1,.365-.216c.028.036-.466.383-1.106,1.1a8.349,8.349,0,0,0-2.069,6.907c.144.948.365,1.509.322,1.524" transform="translate(-59.02 -165.814)" fill="#263238"/>
          <path id="Trazado_721695" data-name="Trazado 721695" d="M108.524,307.778a.859.859,0,0,1-.339.1,4.444,4.444,0,0,1-.959.071,5.214,5.214,0,0,1-4.818-3.6,4.457,4.457,0,0,1-.2-.941.836.836,0,0,1,0-.353c.045-.006.085.495.372,1.233a5.4,5.4,0,0,0,4.656,3.482c.788.066,1.281-.037,1.288.009" transform="translate(-52.648 -156.129)" fill="#263238"/>
          <path id="Trazado_721696" data-name="Trazado 721696" d="M107.52,255.126c.039.03-.472.676-1.132,1.82a18.45,18.45,0,0,0-1.022,2.077,18,18,0,0,0-1.325,5.489,18.386,18.386,0,0,0-.038,2.315c.065,1.319.224,2.127.176,2.136a2.48,2.48,0,0,1-.144-.561,12.193,12.193,0,0,1-.214-1.564,16.142,16.142,0,0,1-.017-2.344,16.787,16.787,0,0,1,1.343-5.563,15.988,15.988,0,0,1,1.085-2.078,12.132,12.132,0,0,1,.9-1.293,2.473,2.473,0,0,1,.384-.433" transform="translate(-53.461 -131.437)" fill="#263238"/>
          <g id="Grupo_1011207" data-name="Grupo 1011207" transform="translate(45.713 105.504)" opacity="0.3">
            <g id="Grupo_1011206" data-name="Grupo 1011206">
              <g id="Grupo_1011205" data-name="Grupo 1011205" clip-path="url(#clip-path-40)">
                <path id="Trazado_721697" data-name="Trazado 721697" d="M95.539,224.467c-.394-2.319-.3-4.955,1.1-6.849-2.061,1.618-2.633,4.342-2.226,6.93s1.564,5.38,4.022,6.289a15.454,15.454,0,0,1-2.894-6.369" transform="translate(-94.289 -217.618)"/>
              </g>
            </g>
          </g>
          <path id="Trazado_721698" data-name="Trazado 721698" d="M98.25,230.684a2.2,2.2,0,0,1-.515-.295,7.573,7.573,0,0,1-1.233-1.053,8.428,8.428,0,0,1-1.289-9.972,7.576,7.576,0,0,1,.925-1.331,2.193,2.193,0,0,1,.423-.416,15.6,15.6,0,0,0-1.187,1.833,8.57,8.57,0,0,0,1.261,9.762,15.624,15.624,0,0,0,1.614,1.471" transform="translate(-48.501 -112.114)" fill="#263238"/>
          <path id="Trazado_721699" data-name="Trazado 721699" d="M119.982,174.261a.578.578,0,0,1-.192-.052,4.364,4.364,0,0,1-.528-.212,6.793,6.793,0,0,1-1.735-1.174,7.726,7.726,0,0,1-1.819-2.521,7.032,7.032,0,0,1,.766-7.282,7.721,7.721,0,0,1,2.3-2.087,6.776,6.776,0,0,1,1.941-.788,4.32,4.32,0,0,1,.561-.1.59.59,0,0,1,.2-.012,9.228,9.228,0,0,0-2.605,1.053,7.8,7.8,0,0,0-2.206,2.071,6.912,6.912,0,0,0-.74,7.046,7.8,7.8,0,0,0,1.727,2.485,9.234,9.234,0,0,0,2.33,1.571" transform="translate(-59.264 -82.446)" fill="#263238"/>
          <path id="Trazado_721700" data-name="Trazado 721700" d="M139.563,196.811a11.616,11.616,0,0,0-.194-3.21,9.723,9.723,0,0,0-1.343-3.2,8.807,8.807,0,0,0-7.084-4.116,9.73,9.73,0,0,0-3.443.417,11.6,11.6,0,0,0-2.885,1.421c-.006-.007.051-.06.166-.154a5.485,5.485,0,0,1,.518-.391,8.554,8.554,0,0,1,2.145-1.05,9.593,9.593,0,0,1,3.511-.48,8.891,8.891,0,0,1,7.272,4.225,9.6,9.6,0,0,1,1.322,3.288,8.573,8.573,0,0,1,.15,2.384,5.479,5.479,0,0,1-.083.644.755.755,0,0,1-.051.221" transform="translate(-64.199 -95.845)" fill="#263238"/>
          <path id="Trazado_721701" data-name="Trazado 721701" d="M172.143,119.071a.359.359,0,0,1-.051.081l-.166.226c-.149.2-.366.491-.636.88a18.7,18.7,0,0,0-1.965,3.559,11.685,11.685,0,0,0-.857,6.074,10.826,10.826,0,0,0,.44,1.774,9.71,9.71,0,0,0,.824,1.738,7.47,7.47,0,0,0,2.948,2.785l.214.109-.215.107a14.479,14.479,0,0,0-4.127,3.017,10.341,10.341,0,0,0-2.612,4.738,8.489,8.489,0,0,0,.351,4.749,6.791,6.791,0,0,0,2.785,3.457l.128.077-.1.111a7.592,7.592,0,0,0-1.808,3.883,10.631,10.631,0,0,0,.136,3.959,12.655,12.655,0,0,0,1.262,3.307,19.744,19.744,0,0,0,1.665,2.557,43.082,43.082,0,0,0,2.842,3.287l.794.847.2.222a.381.381,0,0,1,.064.08.362.362,0,0,1-.079-.065l-.217-.207-.823-.82a38.393,38.393,0,0,1-2.9-3.251,19.561,19.561,0,0,1-1.7-2.563,12.755,12.755,0,0,1-1.305-3.349,10.8,10.8,0,0,1-.159-4.041,7.807,7.807,0,0,1,1.853-4.011l.028.188a7.026,7.026,0,0,1-2.9-3.577,8.72,8.72,0,0,1-.365-4.894,10.567,10.567,0,0,1,2.679-4.857,14.669,14.669,0,0,1,4.205-3.06v.216a7.691,7.691,0,0,1-3.032-2.884,9.931,9.931,0,0,1-.834-1.785,10.919,10.919,0,0,1-.439-1.816,10.43,10.43,0,0,1,.085-3.386,13.276,13.276,0,0,1,.836-2.775,17.7,17.7,0,0,1,2.037-3.548c.282-.384.509-.671.669-.86l.182-.214c.042-.047.064-.07.067-.068" transform="translate(-85.261 -61.343)" fill="#263238"/>
          <path id="Trazado_721702" data-name="Trazado 721702" d="M148.267,110.836a2.017,2.017,0,0,1-.342-.145,10.215,10.215,0,0,0-.984-.389,10.7,10.7,0,0,0-3.828-.524,14.611,14.611,0,0,0-5.55,1.393,31.609,31.609,0,0,0-5.993,3.726,10.119,10.119,0,0,0-3.056,3.6,5.472,5.472,0,0,0-.315,4.1l.1.264-.252-.126a19.02,19.02,0,0,0-3.451-1.354,15.977,15.977,0,0,0-2.815-.508c-.792-.072-1.419-.083-1.845-.092l-.488-.006a.611.611,0,0,1-.168-.014.629.629,0,0,1,.167-.022l.488-.027a18.351,18.351,0,0,1,1.857.031,15.289,15.289,0,0,1,2.852.461,18.69,18.69,0,0,1,3.5,1.331l-.154.138a5.678,5.678,0,0,1,.3-4.278,10.29,10.29,0,0,1,3.122-3.7,31.019,31.019,0,0,1,6.056-3.74,14.542,14.542,0,0,1,5.642-1.358,10.346,10.346,0,0,1,3.866.612,7.752,7.752,0,0,1,.974.437,1.983,1.983,0,0,1,.319.192" transform="translate(-61.45 -56.46)" fill="#263238"/>
          <path id="Trazado_721703" data-name="Trazado 721703" d="M143.426,102.115c-.007.045-.5-.055-1.292-.006a5.95,5.95,0,0,0-4.955,3.189c-.373.7-.486,1.19-.53,1.178a.862.862,0,0,1,.046-.351,4.712,4.712,0,0,1,.321-.909,5.679,5.679,0,0,1,5.111-3.289,4.78,4.78,0,0,1,.96.084c.223.046.342.088.339.1" transform="translate(-70.396 -52.511)" fill="#263238"/>
          <path id="Trazado_721704" data-name="Trazado 721704" d="M195.328,88.947a17.59,17.59,0,0,1-4.251-.1,17.587,17.587,0,0,1,4.251.1" transform="translate(-98.44 -45.727)" fill="#263238"/>
          <path id="Trazado_721705" data-name="Trazado 721705" d="M196.927,103.952a.963.963,0,0,1-.14-.219,5.929,5.929,0,0,1-.33-.668,8.4,8.4,0,0,1-.63-2.666,8.758,8.758,0,0,1,.668-4c.579-1.448,1.814-2.682,2.451-4.286a3.6,3.6,0,0,0,.107-2.432c-.229-.778-.615-1.486-.872-2.215a6.866,6.866,0,0,1,1.107-6.489,5.223,5.223,0,0,1,.51-.544,1,1,0,0,1,.2-.166c.019.019-.246.261-.63.772a7.033,7.033,0,0,0-1.139,2.428,6.687,6.687,0,0,0,.175,3.918c.255.706.646,1.411.891,2.225a3.84,3.84,0,0,1,.175,1.288,4.179,4.179,0,0,1-.283,1.306,11.563,11.563,0,0,1-1.28,2.25,12.54,12.54,0,0,0-1.194,2.04,8.759,8.759,0,0,0-.7,3.9,8.964,8.964,0,0,0,.542,2.64c.224.6.4.911.377.925" transform="translate(-100.877 -41.35)" fill="#263238"/>
          <path id="Trazado_721706" data-name="Trazado 721706" d="M194.224,162.16a6.365,6.365,0,0,0,.117-.648,3.548,3.548,0,0,0-.361-1.726c-.3-.7-.86-1.429-1.279-2.375a9.869,9.869,0,0,1-.839-3.221,10.552,10.552,0,0,1,1.2-5.861,9.119,9.119,0,0,1,1.03-1.512,3.294,3.294,0,0,1,.47-.478,16.569,16.569,0,0,0-1.338,2.075,10.858,10.858,0,0,0-1.109,5.754,9.989,9.989,0,0,0,.8,3.146c.393.92.94,1.671,1.23,2.4a3.432,3.432,0,0,1,.294,1.81,1.968,1.968,0,0,1-.131.485c-.046.105-.079.156-.086.153" transform="translate(-98.825 -75.391)" fill="#263238"/>
          <path id="Trazado_721707" data-name="Trazado 721707" d="M212.835,194.648a1.349,1.349,0,0,1-.234.383,6.349,6.349,0,0,1-.82.906,7.371,7.371,0,0,1-7.569,1.5,6.416,6.416,0,0,1-1.1-.527,1.373,1.373,0,0,1-.362-.265c.024-.042.56.307,1.524.619a7.659,7.659,0,0,0,7.39-1.459c.773-.655,1.137-1.181,1.174-1.152" transform="translate(-104.452 -100.279)" fill="#263238"/>
          <path id="Trazado_721708" data-name="Trazado 721708" d="M189.919,222.211c.008-.024.16.048.443.035a2.38,2.38,0,0,0,1.116-.4,27.975,27.975,0,0,0,3.2-2.477,29.716,29.716,0,0,0,2.829-2.906c.672-.793,1.061-1.309,1.094-1.285a1.552,1.552,0,0,1-.226.4c-.161.244-.406.59-.727,1a22.917,22.917,0,0,1-2.8,2.983A21.821,21.821,0,0,1,191.569,222a2.276,2.276,0,0,1-1.208.346.7.7,0,0,1-.442-.135" transform="translate(-97.843 -110.854)" fill="#263238"/>
          <path id="Trazado_721709" data-name="Trazado 721709" d="M202.978,229.662a2.531,2.531,0,0,1-.925-.613,5.126,5.126,0,0,1-1.55-4.935,2.526,2.526,0,0,1,.408-1.032c.04.016-.122.407-.229,1.067a5.486,5.486,0,0,0,1.5,4.769c.465.48.822.708.8.744" transform="translate(-103.23 -114.929)" fill="#263238"/>
          <g id="Grupo_1011210" data-name="Grupo 1011210" transform="translate(55.944 83.54)" opacity="0.3">
            <g id="Grupo_1011209" data-name="Grupo 1011209">
              <g id="Grupo_1011208" data-name="Grupo 1011208" clip-path="url(#clip-path-18)">
                <path id="Trazado_721710" data-name="Trazado 721710" d="M120.436,180.471a9.789,9.789,0,0,1,14.465,8.756,9,9,0,0,0-9.193-11.534c-1.856.116-3.742.8-5.531.294a6.32,6.32,0,0,1-2.647-1.692,5.3,5.3,0,0,1-1.851-3.982s-1.09,3.4.99,5.474a11.641,11.641,0,0,0,3.766,2.684" transform="translate(-115.393 -172.313)"/>
              </g>
            </g>
          </g>
          <g id="Grupo_1011213" data-name="Grupo 1011213" transform="translate(57.828 53.052)" opacity="0.3">
            <g id="Grupo_1011212" data-name="Grupo 1011212">
              <g id="Grupo_1011211" data-name="Grupo 1011211" clip-path="url(#clip-path-19)">
                <path id="Trazado_721711" data-name="Trazado 721711" d="M131.713,113.02a12.486,12.486,0,0,0-3.367,3.27,6.578,6.578,0,0,0-1.133,4.477,23.308,23.308,0,0,0-7.935-.1c3.428.274,5.878.116,8.671,1.9a9.547,9.547,0,0,1,2.49-6.971,15.787,15.787,0,0,1,6.293-4.141,47.1,47.1,0,0,1,7.345-1.947,18.576,18.576,0,0,0-12.365,3.511" transform="translate(-119.278 -109.427)"/>
              </g>
            </g>
          </g>
          <g id="Grupo_1011216" data-name="Grupo 1011216" transform="translate(92.618 39.139)" opacity="0.3">
            <g id="Grupo_1011215" data-name="Grupo 1011215">
              <g id="Grupo_1011214" data-name="Grupo 1011214" clip-path="url(#clip-path-20)">
                <path id="Trazado_721712" data-name="Trazado 721712" d="M195.385,84.782l-3.053-.2a2.636,2.636,0,0,1-1.294-.312,6.281,6.281,0,0,1,2.532-.326.739.739,0,0,0,.927-.612,6.355,6.355,0,0,1,2.173-2.6,4.13,4.13,0,0,1-.732,2,2.909,2.909,0,0,0-.5,2.048" transform="translate(-191.038 -80.729)"/>
              </g>
            </g>
          </g>
          <g id="Grupo_1011219" data-name="Grupo 1011219" transform="translate(90.226 108.146)" opacity="0.3">
            <g id="Grupo_1011218" data-name="Grupo 1011218">
              <g id="Grupo_1011217" data-name="Grupo 1011217" clip-path="url(#clip-path-21)">
                <path id="Trazado_721713" data-name="Trazado 721713" d="M193.06,223.414a11.338,11.338,0,0,1-6.955,3.165,6.057,6.057,0,0,0,4.874.081,14.58,14.58,0,0,0,2.385,2.8,5.757,5.757,0,0,0,3.816.784c-1.076-.645-2.648-.858-3.263-1.951a7.288,7.288,0,0,1-.7-2.908,2.831,2.831,0,0,1,.456-2.316" transform="translate(-186.105 -223.067)"/>
              </g>
            </g>
          </g>
          <g id="Grupo_1011222" data-name="Grupo 1011222" transform="translate(57.548 121.54)" opacity="0.3">
            <g id="Grupo_1011221" data-name="Grupo 1011221">
              <g id="Grupo_1011220" data-name="Grupo 1011220" clip-path="url(#clip-path-22)">
                <path id="Trazado_721714" data-name="Trazado 721714" d="M118.7,254.246a3.887,3.887,0,0,1,2.125-1.153,10.454,10.454,0,0,1,2.45-.149,2.841,2.841,0,0,1,1.146-2.183.253.253,0,0,1,.184-.067c.149.027.135.244.09.388a3.857,3.857,0,0,0,.227,2.817c.062.125.121.3.01.382a.284.284,0,0,1-.165.041,28.533,28.533,0,0,1-3.035-.176,7.783,7.783,0,0,0-3.012.255" transform="translate(-118.701 -250.693)"/>
              </g>
            </g>
          </g>
          <g id="Grupo_1011225" data-name="Grupo 1011225" transform="translate(63.551 125.153)" opacity="0.3">
            <g id="Grupo_1011224" data-name="Grupo 1011224">
              <g id="Grupo_1011223" data-name="Grupo 1011223" clip-path="url(#clip-path-46)">
                <path id="Trazado_721715" data-name="Trazado 721715" d="M166.166,287.323c-1.6-1.758-.648-1.8-2.448-3.353a35.009,35.009,0,0,1-7.183-7.814c-.617-.84-.5-1.968-.752-2.933-.309-1.182-.254-2.818-.878-3.6-1.969-2.616-4.033-4.692-6.431-4.862a16.278,16.278,0,0,0-5.4-1.738,26.12,26.12,0,0,1-6.089-1.434c-2.285-.807-4.045-1.57-5.588-3.439l-.316.129c1.524,2.974,4.6,4.912,7.815,5.822a29.985,29.985,0,0,0,7.725.911,6.146,6.146,0,0,0-.955.406c-7.481,5.53-7.171,11.444-4.024,15.953,2.729,3.91,4.4,8.8,9.311,10.847,3.339,1.394,6.692,2.756,10.039,4.132a6.823,6.823,0,0,0-2.732-2.9c-2.172-1.054-4.566-1.644-6.766-2.65-3.091-1.415-5.617-3.356-4.988-7.52-6.277-3.147-7.439-11.059-2.335-15.651.839-.755,3.161-1.132,3.848-.555,2.308,1.936,4.842,4.075,6.08,6.7,2.049,4.354,4.055,8.486,8.018,11.477,1.34,1.012,2.187,2.662,3.323,3.965a11.714,11.714,0,0,0,1.61,1.307c.306-.293-1.192-2.912-.887-3.2" transform="translate(-131.083 -258.147)"/>
              </g>
            </g>
          </g>
          <g id="Grupo_1011228" data-name="Grupo 1011228" transform="translate(81.94 116.9)" opacity="0.3">
            <g id="Grupo_1011227" data-name="Grupo 1011227">
              <g id="Grupo_1011226" data-name="Grupo 1011226" clip-path="url(#clip-path-24)">
                <path id="Trazado_721716" data-name="Trazado 721716" d="M176.839,250.943c-3.768-2.073-6.028-6.277-7.825-9.82.921,4.995,3.984,9.832,8.521,12.115a16.791,16.791,0,0,0,14.7.076c-5.255.117-10.791.162-15.4-2.371" transform="translate(-169.014 -241.123)"/>
              </g>
            </g>
          </g>
          <g id="Grupo_1011231" data-name="Grupo 1011231" transform="translate(57.264 77.59)" opacity="0.2">
            <g id="Grupo_1011230" data-name="Grupo 1011230">
              <g id="Grupo_1011229" data-name="Grupo 1011229" clip-path="url(#clip-path-25)">
                <path id="Trazado_721717" data-name="Trazado 721717" d="M129.518,160.6a4.758,4.758,0,0,0-2.106-.559,3.594,3.594,0,0,0-1.208.159,22.4,22.4,0,0,0-4.127,1.575,8.325,8.325,0,0,0-3.558,3.364,2.421,2.421,0,0,0-.122,2.44,1.928,1.928,0,0,0,1.767.707,4.572,4.572,0,0,0,1.847-.707c1.991-1.175,3.746-2.807,5.937-3.542.994-.333,2.235-.632,2.443-1.713a1.674,1.674,0,0,0-.873-1.724" transform="translate(-118.116 -160.04)" fill="#fff"/>
              </g>
            </g>
          </g>
          <g id="Grupo_1011234" data-name="Grupo 1011234" transform="translate(69.473 55.249)" opacity="0.2">
            <g id="Grupo_1011233" data-name="Grupo 1011233">
              <g id="Grupo_1011232" data-name="Grupo 1011232" clip-path="url(#clip-path-49)">
                <path id="Trazado_721718" data-name="Trazado 721718" d="M154.7,114.523a4.771,4.771,0,0,0-2.106-.559,3.607,3.607,0,0,0-1.208.16,22.386,22.386,0,0,0-4.127,1.575,8.326,8.326,0,0,0-3.558,3.364,2.42,2.42,0,0,0-.122,2.439,1.928,1.928,0,0,0,1.767.708,4.566,4.566,0,0,0,1.847-.708c1.991-1.175,3.746-2.807,5.937-3.541.994-.334,2.235-.632,2.443-1.713a1.674,1.674,0,0,0-.873-1.724" transform="translate(-143.299 -113.96)" fill="#fff"/>
              </g>
            </g>
          </g>
          <g id="Grupo_1011237" data-name="Grupo 1011237" transform="translate(74.582 31.144)" opacity="0.2">
            <g id="Grupo_1011236" data-name="Grupo 1011236">
              <g id="Grupo_1011235" data-name="Grupo 1011235" clip-path="url(#clip-path-27)">
                <path id="Trazado_721719" data-name="Trazado 721719" d="M185.912,69.092c-.526-1.053-.946-2.345-1.957-2.947a13.814,13.814,0,0,0-5.472-1.794c-4.236-.631-8.4,1.5-11.837,4.053s-6.576,5.621-10.491,7.356a6.837,6.837,0,0,0-1.548.818,1.845,1.845,0,0,0-.767,1.5c.075,1.021,1.234,1.58,2.247,1.733,3.384.513,6.725-1.123,9.519-3.1s5.357-4.361,8.5-5.7c1.554-.663,3.432-1.026,4.872-.144.99.607,1.6,1.709,2.61,2.29a3.1,3.1,0,0,0,4.32-4.066" transform="translate(-153.837 -64.239)" fill="#fff"/>
              </g>
            </g>
          </g>
          <path id="Trazado_721720" data-name="Trazado 721720" d="M100.849,158.866a4.533,4.533,0,0,1,.074-.78c.059-.5.185-1.221.377-2.1a30.327,30.327,0,0,1,.845-3.056,31.222,31.222,0,0,1,3.347-6.993,30.249,30.249,0,0,1,1.85-2.575c.566-.7,1.047-1.252,1.4-1.612a4.537,4.537,0,0,1,.561-.547,4.566,4.566,0,0,1-.486.614c-.329.379-.788.944-1.332,1.658s-1.158,1.589-1.793,2.59A33.753,33.753,0,0,0,102.37,153c-.382,1.122-.682,2.148-.892,3.021s-.367,1.582-.456,2.077a4.614,4.614,0,0,1-.173.764" transform="translate(-51.953 -72.744)" fill="#fff"/>
          <path id="Trazado_721721" data-name="Trazado 721721" d="M120.6,171.627a1.113,1.113,0,0,1-.341-.24,4.042,4.042,0,0,1-.739-.868,4.567,4.567,0,0,1,1.676-6.556,4.037,4.037,0,0,1,1.065-.407,1.115,1.115,0,0,1,.415-.047,8.927,8.927,0,0,0-1.388.611,4.549,4.549,0,0,0-1.612,6.3,8.893,8.893,0,0,0,.925,1.2" transform="translate(-61.191 -84.234)" fill="#fff"/>
          <path id="Trazado_721722" data-name="Trazado 721722" d="M171.984,172.261a2.166,2.166,0,0,1-.3-.9,5.188,5.188,0,0,1,1.216-4.294,2.171,2.171,0,0,1,.729-.6,8.572,8.572,0,0,1-.588.721,5.835,5.835,0,0,0-1.176,4.152,8.437,8.437,0,0,1,.123.922" transform="translate(-88.409 -85.76)" fill="#fff"/>
          <path id="Trazado_721723" data-name="Trazado 721723" d="M125.294,119.613a3.953,3.953,0,0,0-.855,3.054c-.03.01-.129-.159-.194-.467a2.687,2.687,0,0,1,.64-2.289c.215-.229.388-.322.408-.3" transform="translate(-63.985 -61.621)" fill="#fff"/>
          <path id="Trazado_721724" data-name="Trazado 721724" d="M101.636,230.675a3.966,3.966,0,0,1-.358-3.565c.076.017-.095.817.01,1.8s.419,1.734.348,1.766" transform="translate(-52.038 -117.003)" fill="#fff"/>
          <path id="Trazado_721725" data-name="Trazado 721725" d="M92.624,272.455c-.015.01-.091-.088-.216-.274a5.291,5.291,0,0,1-.448-.838,7.7,7.7,0,0,1,.016-6.126,5.317,5.317,0,0,1,.452-.835c.126-.186.2-.283.217-.273.039.024-.22.444-.5,1.178a8.481,8.481,0,0,0-.015,5.988c.277.735.534,1.157.495,1.181" transform="translate(-47.053 -136.064)" fill="#fff"/>
          <path id="Trazado_721726" data-name="Trazado 721726" d="M121.462,305.957c-.011.012-.112-.055-.275-.2a4.086,4.086,0,0,1-.6-.707,4.833,4.833,0,0,1,.225-5.781,4.105,4.105,0,0,1,.657-.658c.174-.134.281-.193.29-.18.03.035-.358.328-.8.949a4.986,4.986,0,0,0-.218,5.573c.4.654.759.976.726,1.008" transform="translate(-61.684 -153.744)" fill="#fff"/>
          <path id="Trazado_721727" data-name="Trazado 721727" d="M121.114,333.44a4.143,4.143,0,0,1,1.17-3.743,8.281,8.281,0,0,0-1.17,3.743" transform="translate(-62.346 -169.854)" fill="#fff"/>
          <path id="Trazado_721728" data-name="Trazado 721728" d="M157.169,292.537a1.345,1.345,0,0,1-.431-.162,5.054,5.054,0,0,1-1.048-.692,5.682,5.682,0,0,1-1.066-7.562,5.051,5.051,0,0,1,.816-.955,1.37,1.37,0,0,1,.369-.274,11.7,11.7,0,0,0-1.031,1.327,5.729,5.729,0,0,0,1.033,7.327,11.557,11.557,0,0,0,1.358.99" transform="translate(-79.156 -145.741)" fill="#fff"/>
          <path id="Trazado_721729" data-name="Trazado 721729" d="M145.38,361.673a1.734,1.734,0,0,1-.479-.077,8.852,8.852,0,0,1-1.264-.383,11.923,11.923,0,0,1-1.774-.838,12.513,12.513,0,0,1-3.61-3.145,11.888,11.888,0,0,1-1.074-1.643,8.9,8.9,0,0,1-.553-1.2,1.732,1.732,0,0,1-.142-.464c.044-.018.293.624.853,1.573a13.718,13.718,0,0,0,1.1,1.584,13.458,13.458,0,0,0,3.545,3.088,13.747,13.747,0,0,0,1.721.874c1.017.425,1.687.583,1.675.629" transform="translate(-70.313 -182.337)" fill="#fff"/>
          <path id="Trazado_721730" data-name="Trazado 721730" d="M140.578,254.831a6.07,6.07,0,0,1-3.867-4.167,9.226,9.226,0,0,0,3.867,4.167" transform="translate(-70.428 -129.138)" fill="#fff"/>
          <path id="Trazado_721731" data-name="Trazado 721731" d="M177.116,205.266a8.239,8.239,0,0,1-3.4-4.414c.073-.032.574,1.129,1.518,2.346s1.928,2.006,1.878,2.068" transform="translate(-89.495 -103.475)" fill="#fff"/>
          <g id="Grupo_1011240" data-name="Grupo 1011240" transform="translate(50.439 100.684)" opacity="0.2">
            <g id="Grupo_1011239" data-name="Grupo 1011239">
              <g id="Grupo_1011238" data-name="Grupo 1011238" clip-path="url(#clip-path-28)">
                <path id="Trazado_721732" data-name="Trazado 721732" d="M104.731,207.92a1.783,1.783,0,0,1,2.066.212,9.051,9.051,0,0,1,1.434,1.7c2,2.553,2.156,5.135,5.329,5.8s6.487,1.037,9.329,2.6a2.94,2.94,0,0,1,1.619,1.713,2.16,2.16,0,0,1-1.19,2.251,4.782,4.782,0,0,1-2.67.391c-3.148-.259-6.076-1.653-8.922-3.024-3.9-1.881-5.665-4.958-7.323-8.962,0,0-1.009-1.7.328-2.677" transform="translate(-104.038 -207.675)" fill="#fff"/>
              </g>
            </g>
          </g>
          <g id="Grupo_1011243" data-name="Grupo 1011243" transform="translate(74.399 116.438)" opacity="0.2">
            <g id="Grupo_1011242" data-name="Grupo 1011242">
              <g id="Grupo_1011241" data-name="Grupo 1011241" clip-path="url(#clip-path-52)">
                <path id="Trazado_721733" data-name="Trazado 721733" d="M156,240.41l-.663-.24a2.032,2.032,0,1,0,2.1,2.571A1.894,1.894,0,0,0,156,240.41" transform="translate(-153.459 -240.17)" fill="#fff"/>
              </g>
            </g>
          </g>
        </g>
      </g>
    </g>
  </g>
</svg>
