<svg xmlns="http://www.w3.org/2000/svg" xmlns:xlink="http://www.w3.org/1999/xlink" width="125.134" height="125.134" viewBox="0 0 125.134 125.134">
  <defs>
    <filter id="Trazado_688490" x="43.243" y="9.807" width="60.637" height="100.552" filterUnits="userSpaceOnUse">
      <feOffset dy="3" input="SourceAlpha"/>
      <feGaussianBlur stdDeviation="3" result="blur"/>
      <feFlood flood-opacity="0.161"/>
      <feComposite operator="in" in2="blur"/>
      <feComposite in="SourceGraphic"/>
    </filter>
    <filter id="Trazado_688491" x="47.26" y="52.15" width="54.574" height="68.725" filterUnits="userSpaceOnUse">
      <feOffset dy="3" input="SourceAlpha"/>
      <feGaussianBlur stdDeviation="3" result="blur-2"/>
      <feFlood flood-opacity="0.161"/>
      <feComposite operator="in" in2="blur-2"/>
      <feComposite in="SourceGraphic"/>
    </filter>
    <filter id="Trazado_688492" x="20.114" y="59.836" width="46.963" height="61.039" filterUnits="userSpaceOnUse">
      <feOffset dy="3" input="SourceAlpha"/>
      <feGaussianBlur stdDeviation="3" result="blur-3"/>
      <feFlood flood-opacity="0.161"/>
      <feComposite operator="in" in2="blur-3"/>
      <feComposite in="SourceGraphic"/>
    </filter>
    <filter id="Trazado_688493" x="20.114" y="41.011" width="46.963" height="44.067" filterUnits="userSpaceOnUse">
      <feOffset dy="3" input="SourceAlpha"/>
      <feGaussianBlur stdDeviation="3" result="blur-4"/>
      <feFlood flood-opacity="0.161"/>
      <feComposite operator="in" in2="blur-4"/>
      <feComposite in="SourceGraphic"/>
    </filter>
  </defs>
  <g id="Grupo_944839" data-name="Grupo 944839" transform="translate(0.147)">
    <circle id="Elipse_4711" data-name="Elipse 4711" cx="62.567" cy="62.567" r="62.567" transform="translate(-0.147 0)" fill="#0098e8"/>
    <g id="_2" data-name="2" transform="translate(28.967 15.807)">
      <g transform="matrix(1, 0, 0, 1, -29.11, -15.81)" filter="url(#Trazado_688490)">
        <path id="Trazado_688490-2" data-name="Trazado 688490" d="M223.945,42.343,216.682,5.829a7.241,7.241,0,1,0-14.2,2.825l5.554,27.924.139,1.42-1.818,23.792,1.818,20.762,22.092-20.274V56.825l8.325-13.876,6.245-31.4a7.241,7.241,0,1,0-14.2-2.825Z" transform="translate(-150.09 15.81)" fill="#ffcaba"/>
      </g>
      <g transform="matrix(1, 0, 0, 1, -29.11, -15.81)" filter="url(#Trazado_688491)">
        <path id="Trazado_688491-2" data-name="Trazado 688491" d="M233.321,283.67a27.687,27.687,0,0,0,27.687-27.687v-15.8a7.241,7.241,0,0,0-7.241-7.241H233.493a7.241,7.241,0,1,0,0,14.482h13.033v5.453a20.274,20.274,0,0,0-20.274,20.274l-1.818,4.94,1.818,5.576Z" transform="translate(-168.17 -174.79)" fill="#ffbaa5"/>
      </g>
      <g transform="matrix(1, 0, 0, 1, -29.11, -15.81)" filter="url(#Trazado_688492)">
        <path id="Trazado_688492-2" data-name="Trazado 688492" d="M102.785,318.27A27.687,27.687,0,0,1,75.1,290.583V275.231h28.963V318.27Z" transform="translate(-45.98 -209.39)" fill="#ffdccc"/>
      </g>
      <g transform="matrix(1, 0, 0, 1, -29.11, -15.81)" filter="url(#Trazado_688493)">
        <path id="Trazado_688493-2" data-name="Trazado 688493" d="M96.82,171.663A7.241,7.241,0,0,0,89.58,178.9V184.7a7.241,7.241,0,1,0-14.482,0v5.793a7.241,7.241,0,1,0,14.482,0,7.241,7.241,0,1,0,14.482,0V178.9A7.241,7.241,0,0,0,96.82,171.663Z" transform="translate(-45.98 -124.65)" fill="#ffece3"/>
      </g>
    </g>
  </g>
</svg>
