<svg xmlns="http://www.w3.org/2000/svg" xmlns:xlink="http://www.w3.org/1999/xlink" width="1241" height="292" viewBox="0 0 1241 292">
  <defs>
    <clipPath id="clip-path">
      <rect id="Rectangle" width="1241" height="292" rx="24" transform="translate(180 7357)" fill="#f6f6f6"/>
    </clipPath>
    <clipPath id="clip-path-2">
      <rect id="Rectángulo_34573" data-name="Rectángulo 34573" width="1242" height="473" rx="20" transform="translate(0.01 0)" fill="#fceae8"/>
    </clipPath>
    <clipPath id="clip-path-3">
      <path id="Trazado_114144" data-name="Trazado 114144" d="M225.83,0c-11.2.129-19.6,5.744-23.873,15.876-4.106,9.541-4.388,23.148,0,39.981,15.445,58.073,75.921,111.8,112.187,186.16,36.125,74.348,37.537,84.577,37.537,84.577l-3.248,25.536s-47.03-19.641-96.753-74.208c-49.723-54.707-142.36-122.74-165.874-141.542s-57.793-31.839-80.026,0c-7.94,11.369-7.092,24.965-1.13,39.422,10.753,25.955,38.384,54.707,62.6,78.844,37.819,37.3,122.527,115.017,144.63,132.421,22.233,17.522,71.946,57.374,82.709,83.329,8.081,19.351,22.244,48.952,24.514,97.9a349.831,349.831,0,0,1-2.694,57.665c-10.9,85.287-93.636,55.686-46.888,130.324C316.413,830.764,419.4,905.962,492.617,929.529c63.745,63.129,134.3,221.645,134.3,221.645s58.358,5.744,131.878-24.686c50.7-20.91,108.787-59.2,159.77-128.646a498.819,498.819,0,0,0,37.971-60.321C856.1,865,767.289,738.744,767.289,738.744c40.089-92.59,46.172-207.468,48.865-279.3-12.882-44.327-59.781-85.567-44.054-196.109,17.139-121.2-11.328-114.888-59.205-79.124-1.282.99-2.552,1.968-3.682,2.947C663.455,224.9,636.693,314.4,665.866,410.773c0,0-1.282,12.058-9.069,15.005-101-2.668-170.263-89.923-209.5-151.782C407.92,212.265,335.4,83.491,281.994,30.742,260.825,9.7,241.394.183,226.644,0Z" transform="translate(0)" fill="none"/>
    </clipPath>
    <linearGradient id="linear-gradient" x1="0.168" y1="0.939" x2="0.176" y2="0.939" gradientUnits="objectBoundingBox">
      <stop offset="0" stop-color="#f8c5a1"/>
      <stop offset="0.699" stop-color="#f9bb9a"/>
      <stop offset="1" stop-color="#fab597"/>
    </linearGradient>
    <clipPath id="clip-path-4">
      <path id="Trazado_114145" data-name="Trazado 114145" d="M121.964,37.663c-1.282.99-2.552,1.968-3.682,2.947,38.1-12.2,51.982-3.786,51.982,30.3,0,40.261-40.654,73.788-25.774,96.656,15.01,22.868,49.278,110.543,45.183,192.043-3.975,81.5-2.694,108.865-24.8,166.508C142.644,583.912,135.986,627.41,59.924,677.062c128.892-13.886,175.5,29.042,210.2,63.559,24.514,24.266,46.465,79.812,57.511,110.672a498.813,498.813,0,0,0,37.971-60.321C265.171,718.452,176.358,592.194,176.358,592.194c40.089-92.59,46.172-207.468,48.865-279.3-12.882-44.327-59.781-85.566-44.054-196.109,10.731-75.854,3.6-101.766-14.989-101.766-11.1,0-26.306,9.261-44.217,22.642" transform="translate(-59.924 -15.021)" fill="none"/>
    </clipPath>
    <linearGradient id="linear-gradient-2" x1="-2.129" y1="1.184" x2="-2.094" y2="1.184" gradientUnits="objectBoundingBox">
      <stop offset="0" stop-color="#f7b08a"/>
      <stop offset="0.394" stop-color="#f0a582"/>
      <stop offset="1" stop-color="#e38c72"/>
    </linearGradient>
    <clipPath id="clip-path-5">
      <path id="Trazado_114146" data-name="Trazado 114146" d="M113.779,137.582c-4.258,3.507-13.75,6.174-26.491,8.132a349.829,349.829,0,0,1-2.694,57.665C73.69,288.666-9.041,259.064,37.706,333.7,84.595,408.179,187.582,483.377,260.8,506.944c63.745,63.129,134.3,221.645,134.3,221.645s58.358,5.744,131.878-24.686c-78.191-8.842-129.044-37.884-160.357-97.646-38.666-73.789-28.478-145.049-28.478-145.049s-76.2,10.38-162.04-30.58S87.994,314.481,87.994,314.481s45.042-12.768,53.123-39.562c8.211-26.934,18.7-22.868,33.279-31.279,14.6-8.422,29.9-34.657,25.785-51.071-4.247-16.263-47.171-40.949-47.171-40.949l2.411-40.971-8.5,13.478s-3.53-30.032,9.493-80.812c-13.881,48.264-20.115,75.477-42.631,94.268" transform="translate(-23.508 -43.314)" fill="none"/>
    </clipPath>
    <linearGradient id="linear-gradient-3" x1="-0.416" y1="0.992" x2="-0.395" y2="0.992" xlink:href="#linear-gradient-2"/>
    <clipPath id="clip-path-6">
      <path id="Trazado_114147" data-name="Trazado 114147" d="M29,86.063c-4.681,7.433-17.291,27.224-11.2,44.047,2.552,7.293,9.916,21.749,22.244,36.625,10.9,13.176,25.633,26.5,44.336,35.205a106.94,106.94,0,0,0,30.738,8.691c56.653-7.712,90.225-41.24,90.225-93.558C159.024,122.538,63.988,54.5,63.988,54.5,43.579,60.958,33.8,78.77,29,86.063" transform="translate(-16.175 -54.504)" fill="none"/>
    </clipPath>
    <linearGradient id="linear-gradient-4" x1="-0.669" y1="2.511" x2="-0.621" y2="2.511" xlink:href="#linear-gradient"/>
    <clipPath id="clip-path-7">
      <path id="Trazado_114148" data-name="Trazado 114148" d="M42.467,0c-11.2.129-19.6,5.744-23.873,15.876C61.659,2.13,102.313,32.011,102.313,69.6c0,42.649,18.975,46.575,36.125,57.374s51.135,39.422,51.135,63.548c0,24.266,21.668.419,35.69,55.976s17.139,32.258,43.348,69.023c26.2,36.6,42.066,85.427,84.566,100.152,42.5,14.865,81.308,31.419,96.753,29.6,15.293-1.829,23.5-19.5,23.5-19.5-101-2.668-170.263-89.923-209.5-151.782C224.558,212.265,152.036,83.491,98.631,30.742,77.462,9.7,58.032.183,43.282,0Z" transform="translate(-18.594)" fill="none"/>
    </clipPath>
    <linearGradient id="linear-gradient-5" x1="-0.444" y1="2.576" x2="-0.42" y2="2.576" xlink:href="#linear-gradient-2"/>
    <clipPath id="clip-path-8">
      <path id="Trazado_114149" data-name="Trazado 114149" d="M5.779,30.182C-2.161,41.551-1.314,55.147,4.649,69.6,7.332,37.754,25.6,31.591,47.421,31.591c25.209,0,66.015,28.192,76.344,56.385,10.492,28.2,23.938,47.005,55.664,55,31.6,8.132,66.439,38.572,69.132,60.042s63.745,38.013,76.344,68.034c12.762,30.021,23.526-25.116,23.526-25.116s-47.03-19.641-96.753-74.208C201.956,117.018,109.32,48.984,85.805,30.182,72.6,19.63,56.012,10.885,40.057,10.885c-12.458,0-24.525,5.335-34.278,19.3" transform="translate(0 -10.885)" fill="none"/>
    </clipPath>
    <linearGradient id="linear-gradient-6" x1="0.006" y1="3.564" x2="0.037" y2="3.564" xlink:href="#linear-gradient-2"/>
    <clipPath id="clip-path-9">
      <path id="Trazado_114150" data-name="Trazado 114150" d="M29,86.063c-4.681,7.433-17.291,27.224-11.2,44.047,2.552,7.293,9.916,21.749,22.244,36.625,2.118-50.372,19.963-69.3,44.054-61.171,27.61,9.39,60.476,18.662,60.476,39.562,0,16.683-30.162,42.079-60.194,56.815a106.94,106.94,0,0,0,30.738,8.691c56.653-7.712,90.225-41.24,90.225-93.558C159.024,122.538,63.988,54.5,63.988,54.5,43.579,60.958,33.8,78.77,29,86.063" transform="translate(-16.175 -54.504)" fill="none"/>
    </clipPath>
    <linearGradient id="linear-gradient-7" x1="-0.884" y1="3.621" x2="-0.828" y2="3.621" xlink:href="#linear-gradient-2"/>
    <clipPath id="clip-path-10">
      <path id="Trazado_114151" data-name="Trazado 114151" d="M49.68,58.626s-25.492,28.2-29.456,42.649c-2.129,7.293-1.705,20.48.847,33.527,2.4,13.047,7.082,25.675,13.74,32.269,10.2,10.089,54.111,39.831,91.507,56.256,11.187,4.9,21.81,8.551,30.879,10.229A97.167,97.167,0,0,0,220.225,222.9c12.186-6.723,20.973-15.564,24.362-24.965,3.682-9.96,5.952-21.889,2.129-32.688-4.812-13.467-19.4-24.965-53.264-28.063,0-23.836-44.477-36.883-44.477-36.883s7.505-33.248-30.162-56.4C80.147,43.9,49.68,58.626,49.68,58.626" transform="translate(-18.86 -43.901)" fill="none"/>
    </clipPath>
    <linearGradient id="linear-gradient-8" x1="-0.602" y1="2.45" x2="-0.565" y2="2.45" xlink:href="#linear-gradient"/>
    <clipPath id="clip-path-11">
      <path id="Trazado_114152" data-name="Trazado 114152" d="M49.68,58.626s-25.492,28.2-29.456,42.649c-2.129,7.293-1.705,20.48.847,33.527,23.786-55.417,40.22-54.986,63.17-52.889,24.938,2.248,33.29,8,41.23,35.356,7.788,27.353,56.522,18.092,56.522,47.973,0,24.126-28.478,46.435-55.675,58.084,11.187,4.9,21.81,8.551,30.879,10.229A97.167,97.167,0,0,0,220.225,222.9c12.186-6.723,20.973-15.564,24.362-24.965,3.682-9.96,5.952-21.889,2.129-32.688-4.812-13.467-19.4-24.965-53.264-28.063,0-23.836-44.477-36.883-44.477-36.883s7.505-33.248-30.162-56.4C80.147,43.9,49.68,58.626,49.68,58.626" transform="translate(-18.86 -43.901)" fill="none"/>
    </clipPath>
    <linearGradient id="linear-gradient-9" x1="-0.878" y1="3.507" x2="-0.831" y2="3.507" xlink:href="#linear-gradient-2"/>
    <clipPath id="clip-path-12">
      <path id="Trazado_114153" data-name="Trazado 114153" d="M50.586,65.7S54.822,91.237,37.4,112.836c12.186-6.723,20.973-15.564,24.362-24.965,3.682-9.96,5.952-21.889,2.129-32.689A31.25,31.25,0,0,1,50.586,65.7" transform="translate(-37.4 -55.182)" fill="none"/>
    </clipPath>
    <linearGradient id="linear-gradient-10" x1="-6.473" y1="15.843" x2="-6.293" y2="15.843" xlink:href="#linear-gradient-2"/>
    <clipPath id="clip-path-13">
      <path id="Trazado_114154" data-name="Trazado 114154" d="M118.1,323.61a207.625,207.625,0,0,1-8.135-224.3,53.437,53.437,0,0,0-37.3,35.7,207.572,207.572,0,0,1,8.309-89.428A210.421,210.421,0,0,0,118.1,323.61" transform="translate(-44.585 -45.581)" fill="none"/>
    </clipPath>
    <linearGradient id="linear-gradient-11" x1="-2.662" y1="2.28" x2="-2.595" y2="2.28" xlink:href="#linear-gradient-2"/>
    <clipPath id="clip-path-14">
      <rect id="Rectángulo_34590" data-name="Rectángulo 34590" width="956.526" height="1151.604" fill="none"/>
    </clipPath>
  </defs>
  <g id="Enmascarar_grupo_1000221" data-name="Enmascarar grupo 1000221" transform="translate(-180 -7357)" clip-path="url(#clip-path)">
    <g id="Grupo_895003" data-name="Grupo 895003" transform="translate(178.99 7310)">
      <rect id="Rectángulo_343220" data-name="Rectángulo 343220" width="1242" height="473" transform="translate(0.01 0)" fill="#e2f2fd"/>
      <g id="Enmascarar_grupo_52" data-name="Enmascarar grupo 52" transform="translate(0 0)" clip-path="url(#clip-path-2)">
        <g id="Grupo_82200" data-name="Grupo 82200" transform="translate(-183.458 -103.516)" opacity="0.07">
          <g id="Grupo_82201" data-name="Grupo 82201" transform="translate(0)">
            <g id="Grupo_82200-2" data-name="Grupo 82200" clip-path="url(#clip-path-3)">
              <path id="Trazado_701219" data-name="Trazado 701219" d="M0,0,1426.323,4.744l4.355,1318.538L4.355,1318.538Z" transform="matrix(0.367, -0.93, 0.93, 0.367, -400.652, 1001.396)" fill="url(#linear-gradient)"/>
            </g>
          </g>
          <g id="Grupo_82203" data-name="Grupo 82203" transform="translate(650.856 161.571)">
            <g id="Grupo_82202" data-name="Grupo 82202" clip-path="url(#clip-path-4)">
              <rect id="Rectángulo_34580" data-name="Rectángulo 34580" width="305.682" height="836.272" transform="translate(0 0)" fill="url(#linear-gradient-2)"/>
            </g>
          </g>
          <g id="Grupo_82205" data-name="Grupo 82205" transform="translate(255.326 465.899)">
            <g id="Grupo_82204" data-name="Grupo 82204" clip-path="url(#clip-path-5)">
              <rect id="Rectángulo_34581" data-name="Rectángulo 34581" width="536.018" height="691.018" transform="translate(-32.549 0)" fill="url(#linear-gradient-3)"/>
            </g>
          </g>
          <g id="Grupo_82207" data-name="Grupo 82207" transform="translate(175.682 586.263)">
            <g id="Grupo_82206" data-name="Grupo 82206" clip-path="url(#clip-path-6)">
              <path id="Trazado_701220" data-name="Trazado 701220" d="M0,0,227.6.909,228.569,245,.97,244.093Z" transform="translate(-69.117 122.722) rotate(-62.447)" fill="url(#linear-gradient-4)"/>
            </g>
          </g>
          <g id="Grupo_82209" data-name="Grupo 82209" transform="translate(201.956)">
            <g id="Grupo_82208" data-name="Grupo 82208" clip-path="url(#clip-path-7)">
              <rect id="Rectángulo_34583" data-name="Rectángulo 34583" width="454.841" height="447.097" transform="translate(0)" fill="url(#linear-gradient-5)"/>
            </g>
          </g>
          <g id="Grupo_82211" data-name="Grupo 82211" transform="translate(0 117.083)">
            <g id="Grupo_82210" data-name="Grupo 82210" clip-path="url(#clip-path-8)">
              <rect id="Rectángulo_34584" data-name="Rectángulo 34584" width="350.593" height="290.184" transform="translate(-2.161 0)" fill="url(#linear-gradient-6)"/>
            </g>
          </g>
          <g id="Grupo_82213" data-name="Grupo 82213" transform="translate(175.682 586.263)">
            <g id="Grupo_82212" data-name="Grupo 82212" clip-path="url(#clip-path-9)">
              <rect id="Rectángulo_34585" data-name="Rectángulo 34585" width="193.636" height="156.128" transform="translate(-4.463 0)" fill="url(#linear-gradient-7)"/>
            </g>
          </g>
          <g id="Grupo_82215" data-name="Grupo 82215" transform="translate(204.85 472.213)">
            <g id="Grupo_82214" data-name="Grupo 82214" clip-path="url(#clip-path-10)">
              <path id="Trazado_701221" data-name="Trazado 701221" d="M0,0,288.637,1.283l1.331,300.6L1.331,300.6Z" transform="translate(-90.078 136.36) rotate(-57.031)" fill="url(#linear-gradient-8)"/>
            </g>
          </g>
          <g id="Grupo_82217" data-name="Grupo 82217" transform="translate(204.85 472.213)">
            <g id="Grupo_82216" data-name="Grupo 82216" clip-path="url(#clip-path-11)">
              <rect id="Rectángulo_34587" data-name="Rectángulo 34587" width="232.444" height="193.732" transform="translate(-0.765 0)" fill="url(#linear-gradient-9)"/>
            </g>
          </g>
          <g id="Grupo_82219" data-name="Grupo 82219" transform="translate(406.215 593.555)">
            <g id="Grupo_82218" data-name="Grupo 82218" clip-path="url(#clip-path-12)">
              <path id="Trazado_701222" data-name="Trazado 701222" d="M0,0,59.852.046l.027,34.823L.027,34.823Z" transform="matrix(0.079, -0.997, 0.997, 0.079, -4.591, 57.293)" fill="url(#linear-gradient-10)"/>
            </g>
          </g>
          <g id="Grupo_82221" data-name="Grupo 82221" transform="translate(484.259 490.284)">
            <g id="Grupo_82220" data-name="Grupo 82220" clip-path="url(#clip-path-13)">
              <path id="Trazado_701223" data-name="Trazado 701223" d="M0,0,160.925.358l.658,293.1L.658,293.1Z" transform="matrix(0.972, -0.237, 0.237, 0.972, -88.374, 15.581)" fill="url(#linear-gradient-11)"/>
            </g>
          </g>
          <g id="Grupo_82223" data-name="Grupo 82223" transform="translate(0.001)">
            <g id="Grupo_82222" data-name="Grupo 82222" clip-path="url(#clip-path-14)">
              <path id="Trazado_114155" data-name="Trazado 114155" d="M61.26,46.124c2.857-2.259,5.941-4.163,8.971-6.249,3.237-1.656,6.452-3.41,9.786-4.937a87.045,87.045,0,0,1,21.169-6.346,72.154,72.154,0,0,1,22.255-.215c7.321,1.215,14.684,3.388,20.55,7.9A86.571,86.571,0,0,0,123,33.755a134.357,134.357,0,0,0-20.68,1.753c-6.886.936-13.6,2.829-20.463,4.485Z" transform="translate(604.106 269.337)" fill="#e08172"/>
              <path id="Trazado_114156" data-name="Trazado 114156" d="M33.623,61.007c13-4.356,25.7-7.831,37.58-13.133a113.609,113.609,0,0,0,17.183-8.885,60.4,60.4,0,0,0,14.739-12.908c-1.618,6.766-6.278,12.467-11.394,17.156A62.362,62.362,0,0,1,74.038,54.306a87.08,87.08,0,0,1-19.9,5.755L43.909,61.19c-3.454-.065-6.854.1-10.286-.183" transform="translate(331.568 254.455)" fill="#e08172"/>
              <path id="Trazado_114157" data-name="Trazado 114157" d="M29.627,53.1c9.786-5.464,19.149-10.132,27.881-15.887A116,116,0,0,0,81.62,16.842c-1.032,5.561-4.106,10.509-7.6,14.93A54.9,54.9,0,0,1,61.4,43.066,62.507,62.507,0,0,1,46.125,50.23a58.189,58.189,0,0,1-16.5,2.872" transform="translate(292.162 164.316)" fill="#e08172"/>
              <path id="Trazado_114158" data-name="Trazado 114158" d="M24.8,37.45c5.68-7.659,13.294-13.252,21.256-17.909,8.1-4.453,16.694-8.143,26.208-9.4-7.179,6.249-14.88,10.918-22.689,15.478-3.986,2.141-7.874,4.4-12.034,6.292A121.842,121.842,0,0,1,24.8,37.45" transform="translate(244.551 98.929)" fill="#e08172"/>
              <path id="Trazado_114159" data-name="Trazado 114159" d="M9.94,69.455c5.713-3.216,11.372-5.862,16.5-9.358A107.813,107.813,0,0,0,40.96,48.986c9.1-8.078,16.585-17.726,23.232-28.773-.543,6.508-2.976,12.725-6.137,18.479A58.264,58.264,0,0,1,45.728,54.171C35.844,63.045,22.974,68.756,9.94,69.455" transform="translate(98.022 197.205)" fill="#e08172"/>
              <path id="Trazado_114160" data-name="Trazado 114160" d="M19.6,86.281c4.019-4.851,8.244-9.1,11.98-13.811,3.769-4.636,7.494-9.24,10.894-14.1,7.071-9.562,13.207-19.63,19.616-30.29a58.34,58.34,0,0,1-4.7,18.038,77.117,77.117,0,0,1-9.156,16.339C40.863,72.556,31.12,81.269,19.6,86.281" transform="translate(193.243 273.948)" fill="#e08172"/>
              <path id="Trazado_114161" data-name="Trazado 114161" d="M29.627,84.078c1.521-4.636,3.53-8.777,5.289-13.037l5.5-12.5c3.8-8.261,7.353-16.5,11.817-25.051A44.465,44.465,0,0,1,51.285,47.8a64.22,64.22,0,0,1-4.41,13.6c-4,8.627-9.5,16.758-17.248,22.685" transform="translate(292.162 326.749)" fill="#e08172"/>
              <path id="Trazado_114162" data-name="Trazado 114162" d="M20.886,100.03c-.891-10.864,2.65-22,8.819-31.14A53.375,53.375,0,0,1,40.881,56.735a42.465,42.465,0,0,1,14.359-7.97c-7.429,7.949-14.065,15.554-19.659,24.03A132.157,132.157,0,0,0,27.728,85.81c-2.531,4.5-4.366,9.3-6.843,14.22" transform="translate(204.618 475.767)" fill="#e08172"/>
              <path id="Trazado_114163" data-name="Trazado 114163" d="M33.592,105.238C36.622,101,39.881,97.365,42.7,93.4c2.857-3.915,5.594-7.82,8.1-11.864A203.3,203.3,0,0,0,64.471,55.716a37.919,37.919,0,0,1-1.39,15.328,51.078,51.078,0,0,1-6.267,14.188c-5.6,8.723-13.577,16.145-23.222,20.007" transform="translate(331.262 543.583)" fill="#e08172"/>
              <path id="Trazado_114164" data-name="Trazado 114164" d="M26.672,112.3c3.66-4.012,7.245-7.572,10.416-11.531,3.085-4.012,6.278-7.841,9.08-12.036,5.854-8.218,11.079-16.823,17.117-25.686a51.514,51.514,0,0,1-3.736,15.543A67.439,67.439,0,0,1,51.968,92.74c-6.224,8.68-14.815,16.446-25.3,19.555" transform="translate(263.022 615.058)" fill="#e08172"/>
              <path id="Trazado_114165" data-name="Trazado 114165" d="M17.769,111.586c-.7-10.423,2.466-20.555,6.625-29.795,4.453-9.154,9.982-17.866,17.791-24.826-3.106,9.885-7.266,18.791-11.372,27.762-4.279,8.928-8.342,17.63-13.044,26.859" transform="translate(174.281 555.769)" fill="#e08172"/>
              <path id="Trazado_114166" data-name="Trazado 114166" d="M46.422,123.128l19.561-9.9c6.354-3.453,12.806-6.637,19.073-10.2,12.719-6.82,25.144-14.069,38.33-20.867A106.464,106.464,0,0,1,107.072,97.13a144.246,144.246,0,0,1-18.605,12.047c-13.012,6.97-27.186,12.424-42.044,13.951" transform="translate(457.783 801.657)" fill="#e08172"/>
              <path id="Trazado_114167" data-name="Trazado 114167" d="M179.031,69.587c-4.985,11.251-13.175,20.986-22.114,29.5a183.068,183.068,0,0,1-29.586,22.438A228.892,228.892,0,0,1,59,149.506c22.222-10.595,44.032-21.168,64.582-33.925,20.452-12.768,40.393-26.665,55.447-45.994" transform="translate(581.839 678.913)" fill="#e08172"/>
            </g>
          </g>
        </g>
      </g>
    </g>
  </g>
</svg>
