<svg xmlns="http://www.w3.org/2000/svg" xmlns:xlink="http://www.w3.org/1999/xlink" width="211.231" height="192.353" viewBox="0 0 211.231 192.353">
  <defs>
    <clipPath id="clip-path">
      <path id="Trazado_715417" data-name="Trazado 715417" d="M145.247,172.651c4.7-5.754,8.832-12.434,14.939-17.034,6.084-4.58,14.524-6.618,21.059-10.669A89.374,89.374,0,0,0,195.362,134.4a39.3,39.3,0,0,1-8.567,9.369c-4.45,3.495-9.939,5.665-14.949,8.209a45.069,45.069,0,0,0-12.962,9.342c-7.217,7.78-13.641,16.329-23.049,21.633a56.734,56.734,0,0,1-6.114,2.978,52.814,52.814,0,0,0,15.525-13.281M196.24,73.377c-7.648-6.673-17.211-10.475-25.576-16.1-6.731-4.524-11.749-14.845-15.035-21.671-4.437-9.219-11.066-19.759-19.7-26.1a44.414,44.414,0,0,0-11-5.807c2.363.521,4.724,1.048,7.041,1.759a30.436,30.436,0,0,1,11.3,6.76,63.732,63.732,0,0,1,13.458,17.645c3.043,5.846,4.95,12.279,8.692,17.754,3.4,4.971,8.227,8.7,13.255,11.9,10.938,6.952,23.381,12.408,28.31,25.393,1.957,5.151,1.986,10.99,1.535,16.507-.165-10.51-3.984-20.806-12.276-28.042M102.339,0C79.273.018,54.4,9.957,43.471,25.705c-5.873,8.457-6.46,14.566-5.756,24.265,1.026,14.155-3.623,22.053-13.905,31.674-8.253,7.723-16.142,16.5-20.055,26.635q.348-1.3.783-2.575c2.446-7.161,7.075-13.5,12.012-19.141,4.465-5.1,9.857-9.4,13.7-15.033,8.148-11.943,2.664-26.472,6.621-39.518C41.146,17.92,56.445,11.64,68.86,6.639c.374-.15-.272-.346-.453-.288C55.921,10.341,41.929,16.859,36.088,29.388,33.4,35.155,33.337,41.769,33.248,48c-.12,8.376-.473,15.989-5.182,23.236-3.994,6.15-10.178,10.845-14.939,16.393A56.651,56.651,0,0,0,1.676,107.256c-3.359,10.69-1.57,24.372,4.465,34.375a99.736,99.736,0,0,0,8.083,14.61c17.124,26,52.15,34.874,81.492,36.02,9.344.365,17.518-.3,24.848-2.51a30.194,30.194,0,0,0,5.815-1.4c3.083-1.116,6.21-2.493,9.178-3.864,10.292-4.753,17.518-13.734,25.163-21.757,8.381-8.794,20.315-11.348,29.7-18.631a37.965,37.965,0,0,0,10.3-12.679,29.134,29.134,0,0,0,3.036-8.6q.877-1.809,1.6-3.693c6.019-9.123,7.175-22.26,4.535-32.454-3.418-13.2-16.065-19.841-26.878-26.227-5.926-3.5-11.519-7.5-15.646-13.088-4.088-5.54-6.386-12.338-9.6-18.388a66.321,66.321,0,0,0-13.41-17.06C138.7,6.7,131.967,4.617,124.549,3.271c-.622-.113-1.244-.221-1.865-.329a59.566,59.566,0,0,0-7.526-1.848A72.775,72.775,0,0,0,102.444,0Z" transform="translate(0 -0.004)" fill="#4db1f0"/>
    </clipPath>
    <filter id="Rectángulo_33844" x="162.469" y="109.387" width="41.406" height="27.955" filterUnits="userSpaceOnUse">
      <feOffset dy="3" input="SourceAlpha"/>
      <feGaussianBlur stdDeviation="3" result="blur"/>
      <feFlood flood-opacity="0.161"/>
      <feComposite operator="in" in2="blur"/>
      <feComposite in="SourceGraphic"/>
    </filter>
    <filter id="Trazado_113690" x="170.97" y="116.127" width="38.685" height="28.575" filterUnits="userSpaceOnUse">
      <feOffset dy="3" input="SourceAlpha"/>
      <feGaussianBlur stdDeviation="3" result="blur-2"/>
      <feFlood flood-opacity="0.161"/>
      <feComposite operator="in" in2="blur-2"/>
      <feComposite in="SourceGraphic"/>
    </filter>
    <filter id="Rectángulo_33844-2" x="8.392" y="9.515" width="41.406" height="27.955" filterUnits="userSpaceOnUse">
      <feOffset dy="3" input="SourceAlpha"/>
      <feGaussianBlur stdDeviation="3" result="blur-3"/>
      <feFlood flood-opacity="0.161"/>
      <feComposite operator="in" in2="blur-3"/>
      <feComposite in="SourceGraphic"/>
    </filter>
    <filter id="Trazado_113690-2" x="16.894" y="16.254" width="38.685" height="28.575" filterUnits="userSpaceOnUse">
      <feOffset dy="3" input="SourceAlpha"/>
      <feGaussianBlur stdDeviation="3" result="blur-4"/>
      <feFlood flood-opacity="0.161"/>
      <feComposite operator="in" in2="blur-4"/>
      <feComposite in="SourceGraphic"/>
    </filter>
    <filter id="Trazado_113638" x="65.417" y="8.846" width="61.841" height="61.841" filterUnits="userSpaceOnUse">
      <feOffset dy="3" input="SourceAlpha"/>
      <feGaussianBlur stdDeviation="3" result="blur-5"/>
      <feFlood flood-opacity="0.161"/>
      <feComposite operator="in" in2="blur-5"/>
      <feComposite in="SourceGraphic"/>
    </filter>
  </defs>
  <g id="Grupo_1011431" data-name="Grupo 1011431" transform="translate(-1128.491 -7745)">
    <g id="Grupo_1010432" data-name="Grupo 1010432" transform="translate(1128.491 7745)">
      <g id="Grupo_1010424" data-name="Grupo 1010424" transform="translate(0 0.001)">
        <g id="Grupo_1006262" data-name="Grupo 1006262" transform="translate(0 0)">
          <g id="Grupo_1006260" data-name="Grupo 1006260" transform="translate(0)" clip-path="url(#clip-path)">
            <rect id="Rectángulo_346887" data-name="Rectángulo 346887" width="214.219" height="192.623" transform="translate(-1.682 0)" fill="#4db1f0"/>
          </g>
        </g>
        <g id="Grupo_1006266" data-name="Grupo 1006266" transform="translate(171.469 112.147)">
          <g id="Grupo_1006264" data-name="Grupo 1006264" transform="translate(0 3.241)">
            <g transform="matrix(1, 0, 0, 1, -171.47, -115.39)" filter="url(#Rectángulo_33844)">
              <rect id="Rectángulo_33844-3" data-name="Rectángulo 33844" width="23.406" height="9.955" rx="3" transform="translate(171.47 115.39)" fill="#f9e8dc"/>
            </g>
            <g transform="matrix(1, 0, 0, 1, -171.47, -115.39)" filter="url(#Trazado_113690)">
              <path id="Trazado_113690-3" data-name="Trazado 113690" d="M2.648,10.575H18.037a2.648,2.648,0,0,0,2.648-2.648V2.648A2.648,2.648,0,0,0,18.037,0H2.648A2.648,2.648,0,0,0,0,2.648V7.927a2.648,2.648,0,0,0,2.648,2.648" transform="translate(179.97 122.13)" fill="#4db1f0"/>
            </g>
            <path id="Trazado_113691" data-name="Trazado 113691" d="M2.573,1.286A1.286,1.286,0,1,0,1.286,2.573,1.286,1.286,0,0,0,2.573,1.286" transform="translate(12.225 10.741)" fill="#fff"/>
            <path id="Trazado_113692" data-name="Trazado 113692" d="M2.573,1.286A1.286,1.286,0,1,0,1.286,2.573,1.286,1.286,0,0,0,2.573,1.286" transform="translate(17.558 10.741)" fill="#fff"/>
            <path id="Trazado_113693" data-name="Trazado 113693" d="M2.573,1.286A1.286,1.286,0,1,0,1.286,2.573,1.286,1.286,0,0,0,2.573,1.286" transform="translate(22.89 10.741)" fill="#fff"/>
          </g>
          <g id="Grupo_1006265" data-name="Grupo 1006265" transform="translate(18.261 0)">
            <path id="Trazado_113641" data-name="Trazado 113641" d="M1519.956,262.321a.679.679,0,1,1-.679-.679.679.679,0,0,1,.679.679" transform="translate(-1518.599 -261.642)" fill="#0098e8"/>
            <path id="Trazado_113642" data-name="Trazado 113642" d="M1571.631,262.321a.679.679,0,1,1-.679-.679.679.679,0,0,1,.679.679" transform="translate(-1567.288 -261.642)" fill="#0098e8"/>
            <path id="Trazado_113643" data-name="Trazado 113643" d="M1623.306,262.321a.679.679,0,1,1-.679-.679.679.679,0,0,1,.679.679" transform="translate(-1615.977 -261.642)" fill="#0098e8"/>
            <path id="Trazado_113644" data-name="Trazado 113644" d="M1674.981,262.321a.679.679,0,1,1-.679-.679.679.679,0,0,1,.679.679" transform="translate(-1664.666 -261.642)" fill="#0098e8"/>
            <path id="Trazado_113646" data-name="Trazado 113646" d="M1519.956,311.647a.679.679,0,1,1-.679-.679.679.679,0,0,1,.679.679" transform="translate(-1518.599 -308.118)" fill="#0098e8"/>
            <path id="Trazado_113647" data-name="Trazado 113647" d="M1571.631,311.647a.679.679,0,1,1-.679-.679.679.679,0,0,1,.679.679" transform="translate(-1567.288 -308.118)" fill="#0098e8"/>
            <path id="Trazado_113648" data-name="Trazado 113648" d="M1623.306,311.647a.679.679,0,1,1-.679-.679.679.679,0,0,1,.679.679" transform="translate(-1615.977 -308.118)" fill="#0098e8"/>
            <path id="Trazado_113649" data-name="Trazado 113649" d="M1674.981,311.647a.679.679,0,1,1-.679-.679.679.679,0,0,1,.679.679" transform="translate(-1664.666 -308.118)" fill="#0098e8"/>
            <path id="Trazado_113651" data-name="Trazado 113651" d="M1519.956,360.973a.679.679,0,1,1-.679-.679.679.679,0,0,1,.679.679" transform="translate(-1518.599 -354.593)" fill="#0098e8"/>
            <path id="Trazado_113652" data-name="Trazado 113652" d="M1571.631,360.973a.679.679,0,1,1-.679-.679.679.679,0,0,1,.679.679" transform="translate(-1567.288 -354.593)" fill="#0098e8"/>
            <path id="Trazado_113653" data-name="Trazado 113653" d="M1623.306,360.973a.679.679,0,1,1-.679-.679.679.679,0,0,1,.679.679" transform="translate(-1615.977 -354.593)" fill="#0098e8"/>
            <path id="Trazado_113654" data-name="Trazado 113654" d="M1674.981,360.973a.679.679,0,1,1-.679-.679.679.679,0,0,1,.679.679" transform="translate(-1664.666 -354.593)" fill="#0098e8"/>
            <path id="Trazado_113656" data-name="Trazado 113656" d="M1519.956,410.3a.679.679,0,1,1-.679-.679.679.679,0,0,1,.679.679" transform="translate(-1518.599 -401.07)" fill="#0098e8"/>
            <path id="Trazado_113657" data-name="Trazado 113657" d="M1571.631,410.3a.679.679,0,1,1-.679-.679.679.679,0,0,1,.679.679" transform="translate(-1567.288 -401.07)" fill="#0098e8"/>
            <path id="Trazado_113658" data-name="Trazado 113658" d="M1623.306,410.3a.679.679,0,1,1-.679-.679.679.679,0,0,1,.679.679" transform="translate(-1615.977 -401.07)" fill="#0098e8"/>
            <path id="Trazado_113659" data-name="Trazado 113659" d="M1674.981,410.3a.679.679,0,1,1-.679-.679.678.678,0,0,1,.679.679" transform="translate(-1664.666 -401.07)" fill="#0098e8"/>
            <path id="Trazado_113661" data-name="Trazado 113661" d="M1519.956,459.626a.679.679,0,1,1-.679-.679.679.679,0,0,1,.679.679" transform="translate(-1518.599 -447.545)" fill="#0098e8"/>
            <path id="Trazado_113662" data-name="Trazado 113662" d="M1571.631,459.626a.679.679,0,1,1-.679-.679.679.679,0,0,1,.679.679" transform="translate(-1567.288 -447.545)" fill="#0098e8"/>
            <path id="Trazado_113663" data-name="Trazado 113663" d="M1623.306,459.626a.679.679,0,1,1-.679-.679.679.679,0,0,1,.679.679" transform="translate(-1615.977 -447.545)" fill="#0098e8"/>
            <path id="Trazado_113664" data-name="Trazado 113664" d="M1674.981,459.626a.679.679,0,1,1-.679-.679.679.679,0,0,1,.679.679" transform="translate(-1664.666 -447.545)" fill="#0098e8"/>
          </g>
        </g>
        <g id="Grupo_1006268" data-name="Grupo 1006268" transform="translate(17.392 12.274)">
          <g id="Grupo_1006264-2" data-name="Grupo 1006264" transform="translate(0 3.241)">
            <g transform="matrix(1, 0, 0, 1, -17.39, -15.51)" filter="url(#Rectángulo_33844-2)">
              <rect id="Rectángulo_33844-4" data-name="Rectángulo 33844" width="23.406" height="9.955" rx="3" transform="translate(17.39 15.51)" fill="#f9e8dc"/>
            </g>
            <g transform="matrix(1, 0, 0, 1, -17.39, -15.51)" filter="url(#Trazado_113690-2)">
              <path id="Trazado_113690-4" data-name="Trazado 113690" d="M2.648,10.575H18.037a2.648,2.648,0,0,0,2.648-2.648V2.648A2.648,2.648,0,0,0,18.037,0H2.648A2.648,2.648,0,0,0,0,2.648V7.927a2.648,2.648,0,0,0,2.648,2.648" transform="translate(25.89 22.25)" fill="#4db1f0"/>
            </g>
            <path id="Trazado_113691-2" data-name="Trazado 113691" d="M2.573,1.286A1.286,1.286,0,1,0,1.286,2.573,1.286,1.286,0,0,0,2.573,1.286" transform="translate(12.225 10.741)" fill="#fff"/>
            <path id="Trazado_113692-2" data-name="Trazado 113692" d="M2.573,1.286A1.286,1.286,0,1,0,1.286,2.573,1.286,1.286,0,0,0,2.573,1.286" transform="translate(17.558 10.741)" fill="#fff"/>
            <path id="Trazado_113693-2" data-name="Trazado 113693" d="M2.573,1.286A1.286,1.286,0,1,0,1.286,2.573,1.286,1.286,0,0,0,2.573,1.286" transform="translate(22.89 10.741)" fill="#fff"/>
          </g>
          <g id="Grupo_1006265-2" data-name="Grupo 1006265" transform="translate(18.261)">
            <path id="Trazado_113641-2" data-name="Trazado 113641" d="M1519.956,262.321a.679.679,0,1,1-.679-.679.679.679,0,0,1,.679.679" transform="translate(-1518.599 -261.642)" fill="#0098e8"/>
            <path id="Trazado_113642-2" data-name="Trazado 113642" d="M1571.631,262.321a.679.679,0,1,1-.679-.679.679.679,0,0,1,.679.679" transform="translate(-1567.288 -261.642)" fill="#0098e8"/>
            <path id="Trazado_113643-2" data-name="Trazado 113643" d="M1623.306,262.321a.679.679,0,1,1-.679-.679.679.679,0,0,1,.679.679" transform="translate(-1615.977 -261.642)" fill="#0098e8"/>
            <path id="Trazado_113644-2" data-name="Trazado 113644" d="M1674.981,262.321a.679.679,0,1,1-.679-.679.679.679,0,0,1,.679.679" transform="translate(-1664.666 -261.642)" fill="#0098e8"/>
            <path id="Trazado_113646-2" data-name="Trazado 113646" d="M1519.956,311.647a.679.679,0,1,1-.679-.679.679.679,0,0,1,.679.679" transform="translate(-1518.599 -308.118)" fill="#0098e8"/>
            <path id="Trazado_113647-2" data-name="Trazado 113647" d="M1571.631,311.647a.679.679,0,1,1-.679-.679.679.679,0,0,1,.679.679" transform="translate(-1567.288 -308.118)" fill="#0098e8"/>
            <path id="Trazado_113648-2" data-name="Trazado 113648" d="M1623.306,311.647a.679.679,0,1,1-.679-.679.679.679,0,0,1,.679.679" transform="translate(-1615.977 -308.118)" fill="#0098e8"/>
            <path id="Trazado_113649-2" data-name="Trazado 113649" d="M1674.981,311.647a.679.679,0,1,1-.679-.679.679.679,0,0,1,.679.679" transform="translate(-1664.666 -308.118)" fill="#0098e8"/>
            <path id="Trazado_113651-2" data-name="Trazado 113651" d="M1519.956,360.973a.679.679,0,1,1-.679-.679.679.679,0,0,1,.679.679" transform="translate(-1518.599 -354.593)" fill="#0098e8"/>
            <path id="Trazado_113652-2" data-name="Trazado 113652" d="M1571.631,360.973a.679.679,0,1,1-.679-.679.679.679,0,0,1,.679.679" transform="translate(-1567.288 -354.593)" fill="#0098e8"/>
            <path id="Trazado_113653-2" data-name="Trazado 113653" d="M1623.306,360.973a.679.679,0,1,1-.679-.679.679.679,0,0,1,.679.679" transform="translate(-1615.977 -354.593)" fill="#0098e8"/>
            <path id="Trazado_113654-2" data-name="Trazado 113654" d="M1674.981,360.973a.679.679,0,1,1-.679-.679.679.679,0,0,1,.679.679" transform="translate(-1664.666 -354.593)" fill="#0098e8"/>
            <path id="Trazado_113656-2" data-name="Trazado 113656" d="M1519.956,410.3a.679.679,0,1,1-.679-.679.679.679,0,0,1,.679.679" transform="translate(-1518.599 -401.07)" fill="#0098e8"/>
            <path id="Trazado_113657-2" data-name="Trazado 113657" d="M1571.631,410.3a.679.679,0,1,1-.679-.679.679.679,0,0,1,.679.679" transform="translate(-1567.288 -401.07)" fill="#0098e8"/>
            <path id="Trazado_113658-2" data-name="Trazado 113658" d="M1623.306,410.3a.679.679,0,1,1-.679-.679.679.679,0,0,1,.679.679" transform="translate(-1615.977 -401.07)" fill="#0098e8"/>
            <path id="Trazado_113659-2" data-name="Trazado 113659" d="M1674.981,410.3a.679.679,0,1,1-.679-.679.678.678,0,0,1,.679.679" transform="translate(-1664.666 -401.07)" fill="#0098e8"/>
            <path id="Trazado_113661-2" data-name="Trazado 113661" d="M1519.956,459.626a.679.679,0,1,1-.679-.679.679.679,0,0,1,.679.679" transform="translate(-1518.599 -447.545)" fill="#0098e8"/>
            <path id="Trazado_113662-2" data-name="Trazado 113662" d="M1571.631,459.626a.679.679,0,1,1-.679-.679.679.679,0,0,1,.679.679" transform="translate(-1567.288 -447.545)" fill="#0098e8"/>
            <path id="Trazado_113663-2" data-name="Trazado 113663" d="M1623.306,459.626a.679.679,0,1,1-.679-.679.679.679,0,0,1,.679.679" transform="translate(-1615.977 -447.545)" fill="#0098e8"/>
            <path id="Trazado_113664-2" data-name="Trazado 113664" d="M1674.981,459.626a.679.679,0,1,1-.679-.679.679.679,0,0,1,.679.679" transform="translate(-1664.666 -447.545)" fill="#0098e8"/>
          </g>
        </g>
        <g id="Grupo_1006267" data-name="Grupo 1006267" transform="translate(74.417 14.846)">
          <g id="Grupo_1003557" data-name="Grupo 1003557" transform="translate(0 0)">
            <path id="Trazado_113637" data-name="Trazado 113637" d="M1042.8,465.759a27.279,27.279,0,1,0-27.278,27.279,27.279,27.279,0,0,0,27.278-27.279" transform="translate(-986.641 -438.48)" fill="#0098e8"/>
            <g transform="matrix(1, 0, 0, 1, -74.42, -14.85)" filter="url(#Trazado_113638)">
              <path id="Trazado_113638-2" data-name="Trazado 113638" d="M1107.167,535.49a21.92,21.92,0,1,0-21.92,21.92,21.921,21.921,0,0,0,21.92-21.92" transform="translate(-988.91 -498.72)" fill="#fff" opacity="0.5"/>
            </g>
          </g>
        </g>
      </g>
    </g>
    <g id="_6736957" data-name="6736957" transform="translate(1133.751 7757.913)">
      <g id="Background_Complete" data-name="Background Complete" transform="translate(68.553 -0.003)">
        <g id="Grupo_1006745" data-name="Grupo 1006745" transform="translate(0 138.904)">
          <g id="Grupo_1006743" data-name="Grupo 1006743" transform="translate(0 20.008)">
            <path id="Trazado_717267" data-name="Trazado 717267" d="M177.84,411.48v15.651h48.13V411.48Z" transform="translate(-175.82 -407.107)" fill="#f5f5f5"/>
            <path id="Trazado_717268" data-name="Trazado 717268" d="M172.75,400.46v4.373h51.832V400.46H172.75Z" transform="translate(-172.75 -400.46)" fill="#e0e0e0"/>
            <path id="Trazado_717269" data-name="Trazado 717269" d="M236.528,420.484h24.234V404.833h1.683V400.46H235.52v3.968Z" transform="translate(-210.612 -400.46)" fill="#e0e0e0"/>
            <rect id="Rectángulo_347113" data-name="Rectángulo 347113" width="9.762" height="2.357" transform="translate(8.754 6.901)" fill="#e0e0e0"/>
            <rect id="Rectángulo_347114" data-name="Rectángulo 347114" width="12.532" height="4.976" transform="translate(7.496 12.198)" fill="#fff"/>
          </g>
          <g id="Grupo_1006744" data-name="Grupo 1006744" transform="translate(3.817)">
            <path id="Trazado_717270" data-name="Trazado 717270" d="M186.88,361.07v15.651h48.13V361.07Z" transform="translate(-185.09 -356.693)" fill="#f5f5f5"/>
            <path id="Trazado_717271" data-name="Trazado 717271" d="M182.37,350.04v4.377H234.2V350.04H182.37Z" transform="translate(-182.37 -350.04)" fill="#ebebeb"/>
            <path id="Trazado_717272" data-name="Trazado 717272" d="M245.568,370.067h24.464v-15.65h1.452V350.04H244.56v3.972Z" transform="translate(-219.882 -350.04)" fill="#ebebeb"/>
            <rect id="Rectángulo_347115" data-name="Rectángulo 347115" width="9.762" height="2.357" transform="translate(8.52 6.901)" fill="#e0e0e0"/>
            <rect id="Rectángulo_347116" data-name="Rectángulo 347116" width="12.532" height="4.976" transform="translate(7.266 12.202)" fill="#fff"/>
          </g>
        </g>
        <g id="Grupo_1010816" data-name="Grupo 1010816" transform="translate(72 138.904)">
          <g id="Grupo_1006743-2" data-name="Grupo 1006743" transform="translate(3.817 20.007)">
            <path id="Trazado_717267-2" data-name="Trazado 717267" d="M225.97,411.48v15.651H177.84V411.48Z" transform="translate(-176.157 -407.107)" fill="#f5f5f5"/>
            <path id="Trazado_717268-2" data-name="Trazado 717268" d="M224.583,400.46v4.373H172.75V400.46h51.833Z" transform="translate(-172.75 -400.46)" fill="#e0e0e0"/>
            <path id="Trazado_717269-2" data-name="Trazado 717269" d="M261.436,420.484H237.2V404.833H235.52V400.46h26.924v3.968Z" transform="translate(-235.52 -400.46)" fill="#e0e0e0"/>
            <rect id="Rectángulo_347113-2" data-name="Rectángulo 347113" width="9.762" height="2.357" transform="translate(33.317 6.901)" fill="#e0e0e0"/>
            <rect id="Rectángulo_347114-2" data-name="Rectángulo 347114" width="12.532" height="4.976" transform="translate(31.805 12.198)" fill="#fff"/>
          </g>
          <g id="Grupo_1006744-2" data-name="Grupo 1006744" transform="translate(0 0)">
            <path id="Trazado_717270-2" data-name="Trazado 717270" d="M235.01,361.07v15.651H186.88V361.07Z" transform="translate(-184.967 -356.693)" fill="#f5f5f5"/>
            <path id="Trazado_717271-2" data-name="Trazado 717271" d="M234.2,350.04v4.377H182.37V350.04H234.2Z" transform="translate(-182.37 -350.04)" fill="#ebebeb"/>
            <path id="Trazado_717272-2" data-name="Trazado 717272" d="M270.476,370.067H246.012V354.417H244.56V350.04h26.924v3.972Z" transform="translate(-244.33 -350.04)" fill="#ebebeb"/>
            <rect id="Rectángulo_347115-2" data-name="Rectángulo 347115" width="9.762" height="2.357" transform="translate(33.551 6.901)" fill="#e0e0e0"/>
            <rect id="Rectángulo_347116-2" data-name="Rectángulo 347116" width="12.532" height="4.976" transform="translate(32.035 12.202)" fill="#fff"/>
          </g>
        </g>
        <g id="Grupo_1006749" data-name="Grupo 1006749" transform="translate(66.153 -12)">
          <rect id="Rectángulo_347117" data-name="Rectángulo 347117" width="58.551" height="84.864" transform="translate(2.946 0.001)" fill="#e0e0e0"/>
          <rect id="Rectángulo_347118" data-name="Rectángulo 347118" width="58.551" height="84.864" transform="translate(0.014 0.001)" fill="#f5f5f5"/>
          <g id="Grupo_1006746" data-name="Grupo 1006746" transform="translate(7.129 9.033)">
            <rect id="Rectángulo_347119" data-name="Rectángulo 347119" width="43.999" height="66.483" transform="translate(0.159 0.163)" fill="#fff"/>
            <path id="Trazado_717273" data-name="Trazado 717273" d="M342.248,89.4s0-.111-.008-.325,0-.532-.008-.944c0-.837-.012-2.059-.016-3.647-.008-3.186-.024-7.829-.04-13.694-.016-11.722-.044-28.325-.071-47.872l.147.147-44,.012h0l.159-.159C298.4,48,298.388,71.12,298.38,89.4l-.127-.127,32.027.067c3.821.016,6.809.024,8.849.032,1.012.008,1.79.012,2.321.016s.8.012.8.012-.258.008-.778.012-1.3.008-2.3.016c-2.032.008-5.008.02-8.821.032l-32.107.067h-.127V89.4c-.008-18.277-.02-41.4-.032-66.483V22.76h.163l44,.012h.147v.147c-.028,19.587-.056,36.222-.071,47.967-.016,5.853-.032,10.484-.04,13.662-.008,1.575-.012,2.79-.016,3.619,0,.4-.008.71-.008.925s-.008.31-.008.31Z" transform="translate(-298.09 -22.76)" fill="#e0e0e0"/>
          </g>
          <path id="Trazado_717274" data-name="Trazado 717274" d="M416,0a10.039,10.039,0,0,1-1.044,1.516c-.678.909-1.647,2.147-2.746,3.484s-2.131,2.524-2.893,3.365a9.846,9.846,0,0,1-1.29,1.313,11.3,11.3,0,0,1,1.119-1.46c.786-.952,1.75-2.123,2.817-3.421S414,2.328,414.781,1.375A10.937,10.937,0,0,1,416,0Z" transform="translate(-357.272 0.003)" fill="#e0e0e0"/>
          <g id="Grupo_1006747" data-name="Grupo 1006747" transform="translate(51.51 75.459)">
            <path id="Trazado_717275" data-name="Trazado 717275" d="M409.94,190.16a54.545,54.545,0,0,0,7.675,9.6" transform="translate(-409.937 -190.159)" fill="#fff"/>
            <path id="Trazado_717276" data-name="Trazado 717276" d="M417.61,199.758a8.891,8.891,0,0,1-1.337-1.218,42.7,42.7,0,0,1-2.9-3.266,41.943,41.943,0,0,1-2.548-3.544,8.826,8.826,0,0,1-.893-1.571,12.211,12.211,0,0,1,1.079,1.448c.647.9,1.552,2.147,2.611,3.468s2.067,2.48,2.809,3.309a11.941,11.941,0,0,1,1.175,1.373Z" transform="translate(-409.933 -190.158)" fill="#e0e0e0"/>
          </g>
          <g id="Grupo_1006748" data-name="Grupo 1006748" transform="translate(0 75.332)">
            <path id="Trazado_717277" data-name="Trazado 717277" d="M280.14,199.32q3.833-4.732,7.67-9.46" transform="translate(-280.134 -189.851)" fill="#fff"/>
            <path id="Trazado_717278" data-name="Trazado 717278" d="M287.8,189.842a57.973,57.973,0,0,1-3.71,4.829,57.186,57.186,0,0,1-3.96,4.631,58.364,58.364,0,0,1,3.71-4.833,59.539,59.539,0,0,1,3.956-4.631Z" transform="translate(-280.125 -189.837)" fill="#e0e0e0"/>
          </g>
          <path id="Trazado_717279" data-name="Trazado 717279" d="M280.156,0a53.256,53.256,0,0,1,3.722,4.448,52.49,52.49,0,0,1,3.472,4.647,53.263,53.263,0,0,1-3.722-4.448A51.848,51.848,0,0,1,280.156,0Z" transform="translate(-280.143 0.003)" fill="#e0e0e0"/>
          <rect id="Rectángulo_347120" data-name="Rectángulo 347120" width="14.734" height="41.833" transform="translate(22.847 22.691)" fill="#e0e0e0"/>
        </g>
      </g>
      <g id="Desk" transform="translate(4.236 178.967)">
        <path id="Trazado_717280" data-name="Trazado 717280" d="M184.746,451.113c0,.056-38.972.1-87.034.1s-87.042-.048-87.042-.1,38.964-.1,87.042-.1S184.746,451.058,184.746,451.113Z" transform="translate(-10.67 -451.01)" fill="#263238"/>
      </g>
      <g id="Book" transform="translate(16.404 8.603)">
        <g id="Grupo_1006760" data-name="Grupo 1006760" transform="translate(0 0)">
          <path id="Trazado_717281" data-name="Trazado 717281" d="M25.763,252.746s5.088,4.281,5.922,4.215a8.527,8.527,0,0,1,1.716.078l-5.467-5.049-2.173.756Z" transform="translate(-25.46 -178.458)" fill="#112e4c"/>
          <path id="Trazado_717282" data-name="Trazado 717282" d="M96.151,96.038,44.4,93.79a1.21,1.21,0,0,1-1.148-1.25c.873-28.509,2.29-62.339,3.106-72.338a1.207,1.207,0,0,1,1.25-1.115l51.79,2.248a1.208,1.208,0,0,1,1.145,1.267L97.4,94.872a1.209,1.209,0,0,1-1.253,1.163Z" transform="translate(-37.721 -15.176)" fill="#112e4c"/>
          <path id="Trazado_717283" data-name="Trazado 717283" d="M87.188,87.358,35.494,85.49,31.42,82.372,33.874,8.33l53.544,3.653,2.646,2.965Z" transform="translate(-29.429 -7.635)" fill="#fff"/>
          <path id="Trazado_717284" data-name="Trazado 717284" d="M206.693,94.137l-4.813-4.3L206.053,18l3.515,3.728Z" transform="translate(-148.933 -14.415)" fill="#e0e0e0"/>
          <g id="Grupo_1006759" data-name="Grupo 1006759">
            <path id="Trazado_717285" data-name="Trazado 717285" d="M78.378,82.984,25.921,80.706a1.216,1.216,0,0,1-1.163-1.25c.87-28.509,2.284-62.339,3.106-72.338a1.212,1.212,0,0,1,1.264-1.112l52.5,2.281a1.22,1.22,0,0,1,1.163,1.267L79.648,81.824a1.22,1.22,0,0,1-1.267,1.163Z" transform="translate(-24.758 -6.006)" fill="#005b8b"/>
            <path id="Trazado_717286" data-name="Trazado 717286" d="M39.816,82.816c-.042,0,.643-16.573,1.531-37s1.641-37,1.686-37S42.39,25.38,41.5,45.82s-1.641,37-1.686,37Z" transform="translate(-35.313 -7.972)" fill="#263238"/>
            <g id="Grupo_1006750" data-name="Grupo 1006750" transform="translate(8.045 3.854)" opacity="0.3">
              <path id="Trazado_717287" data-name="Trazado 717287" d="M93.912,87.971,51.67,86.135,54.594,18.9l42.242,1.835L93.915,87.971Zm-41-2.977,39.85,1.731,2.816-64.847-39.85-1.731Z" transform="translate(-51.67 -18.9)"/>
            </g>
            <g id="Grupo_1006751" data-name="Grupo 1006751" transform="translate(24.434 65.73)" opacity="0.3">
              <rect id="Rectángulo_347121" data-name="Rectángulo 347121" width="8.827" height="2.475" transform="translate(0.108 0) rotate(2.49)"/>
            </g>
            <g id="Grupo_1006752" data-name="Grupo 1006752" transform="translate(30.331 8.553)" opacity="0.3">
              <rect id="Rectángulo_347122" data-name="Rectángulo 347122" width="4.113" height="2.475" transform="translate(0.108 0) rotate(2.49)"/>
            </g>
            <g id="Grupo_1006753" data-name="Grupo 1006753" transform="translate(15.579 19.182)" opacity="0.3">
              <rect id="Rectángulo_347123" data-name="Rectángulo 347123" width="30.999" height="11.051" transform="translate(0.48 0) rotate(2.49)"/>
            </g>
            <g id="Grupo_1006754" data-name="Grupo 1006754" transform="translate(18.742 33.395)" opacity="0.3">
              <rect id="Rectángulo_347124" data-name="Rectángulo 347124" width="22.829" height="4.654" transform="translate(0.202 0) rotate(2.49)"/>
            </g>
            <g id="Grupo_1006755" data-name="Grupo 1006755" transform="translate(2.35 10.379)" opacity="0.3">
              <rect id="Rectángulo_347125" data-name="Rectángulo 347125" width="3.175" height="2" transform="translate(0.087 0) rotate(2.49)"/>
            </g>
            <g id="Grupo_1006756" data-name="Grupo 1006756" transform="translate(2.216 13.464)" opacity="0.3">
              <rect id="Rectángulo_347126" data-name="Rectángulo 347126" width="3.175" height="2" transform="translate(0.087 0) rotate(2.49)"/>
            </g>
            <g id="Grupo_1006757" data-name="Grupo 1006757" transform="translate(0.127 66.882)" opacity="0.3">
              <rect id="Rectángulo_347127" data-name="Rectángulo 347127" width="2.938" height="2" transform="translate(0.087 0) rotate(2.49)"/>
            </g>
            <g id="Grupo_1006758" data-name="Grupo 1006758" transform="translate(0.477 20.981)" opacity="0.3">
              <rect id="Rectángulo_347128" data-name="Rectángulo 347128" width="3.175" height="34.395" transform="translate(1.494 0) rotate(2.49)"/>
            </g>
          </g>
          <path id="Trazado_717288" data-name="Trazado 717288" d="M93.744,26.28s0,.111-.006.323-.018.532-.033.945c-.033.834-.081,2.06-.143,3.635-.132,3.16-.32,7.724-.556,13.365-.484,11.288-1.154,26.874-1.892,44.089-.152,3.536-.3,7-.448,10.322v.078l-.081,0c-14.779-.652-27.786-1.226-37.1-1.638l-10.959-.5c-1.282-.063-2.275-.108-2.95-.14l-.762-.039c-.17-.009-.26-.018-.26-.018l.26,0,.765.027c.676.027,1.668.066,2.95.114,2.574.108,6.3.26,10.962.454l37.106,1.584-.081.075c.143-3.318.293-6.786.448-10.322.756-17.215,1.441-32.8,1.937-44.089.254-5.641.463-10.205.6-13.362.075-1.575.132-2.8.173-3.632.021-.413.039-.729.048-.945s.021-.323.021-.323Z" transform="translate(-34.427 -20.219)" fill="#263238"/>
        </g>
      </g>
      <g id="Glasses" transform="translate(9.004 34.7)">
        <g id="Grupo_1006765" data-name="Grupo 1006765" transform="translate(0 0)">
          <g id="Grupo_1006762" data-name="Grupo 1006762" transform="translate(0 11.518)">
            <path id="Trazado_717289" data-name="Trazado 717289" d="M8.005,145.882c.161.126,26.39-9.243,26.39-9.243l-.807-2.409-25.75,6.884-1.408,2.2Z" transform="translate(-4.509 -133.516)" fill="#263238"/>
            <path id="Trazado_717290" data-name="Trazado 717290" d="M25.944,158.216c-.23.078-1.067.06-.891-1.013s8.274-14.023,9.192-15.224A12.294,12.294,0,0,1,38.2,138.63c1.856-1.04,7.464-3.33,7.464-3.33l.771,2.3s-5.554,1.56-8.089,3.24-3.231,2.986-5.441,6.881-3.456,8.54-4.565,9.685a2.581,2.581,0,0,1-2.4.8Z" transform="translate(-17.548 -134.266)" fill="#263238"/>
            <path id="Trazado_717291" data-name="Trazado 717291" d="M27.995,132.2a54.527,54.527,0,0,0-9.049.263,45.013,45.013,0,0,0-16.056,6.221l-2.64,1.752a.5.5,0,0,0-.221.589l1.178,3.524a.5.5,0,0,0,.38.332,2.671,2.671,0,0,1,1.791,1.4c.8,1.432,3.829,6.37,6.57,7.258s8.029-.454,10.418-1.253,7.452-2.81,8.66-5.871a25.347,25.347,0,0,0,1.33-8.732c0-1.913.41-2.687,1.829-3.163l-.894-2.675A21.745,21.745,0,0,1,27.995,132.2Zm.4,4.717c1.04,4.729.472,7.273-.26,8.83-.948,2.006-2.3,3.68-7.919,5.539-5.805,1.922-9.291,1.435-10.6.78s-3.686-4.3-5-7.65.033-4.568,1.692-5.9a27.51,27.51,0,0,1,5.491-2.678c.341-.132.691-.239,1.037-.356a47.352,47.352,0,0,1,6.591-1.74c1.608-.227,7.925-1.557,8.968,3.172Z" transform="translate(-0.004 -131.84)" fill="#263238"/>
            <path id="Trazado_717292" data-name="Trazado 717292" d="M37.81,140.489s-.021-.06-.054-.173a3.716,3.716,0,0,0-.167-.505,3.894,3.894,0,0,0-1.178-1.638,5.578,5.578,0,0,0-2.989-1.094,16.015,16.015,0,0,0-4.272.251,37.322,37.322,0,0,0-5.061,1.217c-.9.266-1.817.571-2.756.9q-1.4.529-2.84,1.187c-.478.221-.957.451-1.432.705a8.4,8.4,0,0,0-1.366.873,9.851,9.851,0,0,0-1.223,1.121,3.337,3.337,0,0,0-.792,1.45,4.018,4.018,0,0,0-.018,1.689,8.435,8.435,0,0,0,.508,1.668,27.412,27.412,0,0,0,1.563,3.231,21.061,21.061,0,0,0,2,2.98,5.338,5.338,0,0,0,1.258,1.181,5.14,5.14,0,0,0,1.629.49,13.535,13.535,0,0,0,3.351.039,23.032,23.032,0,0,0,3.178-.559c1.022-.248,2.006-.544,2.947-.87a26.785,26.785,0,0,0,2.7-1.064,13.648,13.648,0,0,0,2.341-1.339,7.006,7.006,0,0,0,1.725-1.77,8.875,8.875,0,0,0,1-2.024,9.38,9.38,0,0,0,.419-1.97,15.451,15.451,0,0,0-.03-3.234c-.093-.885-.215-1.569-.3-2.03-.042-.227-.075-.4-.1-.523s-.03-.179-.03-.179.018.06.045.176.066.3.114.523c.093.46.224,1.142.329,2.03a15.206,15.206,0,0,1,.057,3.252,9.248,9.248,0,0,1-.41,1.994,7.486,7.486,0,0,1-.421,1.031,8.143,8.143,0,0,1-.577,1.022,7.113,7.113,0,0,1-1.743,1.806,13.394,13.394,0,0,1-2.356,1.36,28.019,28.019,0,0,1-2.705,1.076c-.945.329-1.931.631-2.959.882a23.134,23.134,0,0,1-3.2.568,13.712,13.712,0,0,1-3.39-.039,5.336,5.336,0,0,1-1.68-.505,5.484,5.484,0,0,1-1.3-1.217,21.025,21.025,0,0,1-2.012-3,27.254,27.254,0,0,1-1.572-3.249,8.522,8.522,0,0,1-.517-1.7,4.183,4.183,0,0,1,.021-1.755,3.411,3.411,0,0,1,.32-.813,4.355,4.355,0,0,1,.508-.7,10.092,10.092,0,0,1,1.244-1.136,8.584,8.584,0,0,1,1.39-.885c.478-.254.96-.487,1.441-.708q1.444-.655,2.849-1.184c.948-.329,1.868-.634,2.771-.9a36.818,36.818,0,0,1,5.079-1.2,16.109,16.109,0,0,1,4.3-.227,5.619,5.619,0,0,1,3.019,1.133,3.872,3.872,0,0,1,1.169,1.674,3.661,3.661,0,0,1,.152.514c.027.117.039.179.039.179Z" transform="translate(-9.419 -135.414)" fill="#fff"/>
            <g id="Grupo_1006761" data-name="Grupo 1006761" transform="translate(4.889 2.818)" opacity="0.3">
              <path id="Trazado_717293" data-name="Trazado 717293" d="M23.1,142.913c-.356.137-6.7,2.6-6.741,5.043s2.3,7.049,3.626,8.612,5.3,1.611,7.273,1.181,2.8-16.474,2.8-16.474-2.161-.2-6.962,1.641Z" transform="translate(-16.358 -141.268)" fill="#fff"/>
            </g>
            <path id="Trazado_717294" data-name="Trazado 717294" d="M62.286,138.6s-.158.09-.454.227c-.32.146-.744.338-1.256.571a41.935,41.935,0,0,0-4.045,2.054,12.977,12.977,0,0,0-2.006,1.468,10.489,10.489,0,0,0-1.357,1.507c-.341.469-.6.861-.78,1.133a3.031,3.031,0,0,1-.29.416,2.988,2.988,0,0,1,.239-.448c.164-.281.41-.685.741-1.166a10.161,10.161,0,0,1,1.348-1.548,12.549,12.549,0,0,1,2.024-1.495,34.2,34.2,0,0,1,4.08-2.021c.535-.233.975-.4,1.276-.526A3.059,3.059,0,0,1,62.286,138.6Z" transform="translate(-36.525 -136.577)" fill="#455a64"/>
            <path id="Trazado_717295" data-name="Trazado 717295" d="M77.321,143.11a6.814,6.814,0,0,1-.909.43c-.568.251-1.348.6-2.206,1s-1.626.777-2.182,1.049a7.5,7.5,0,0,1-.915.421,5.987,5.987,0,0,1,.864-.517c.544-.3,1.309-.691,2.167-1.091s1.65-.735,2.23-.96a5.66,5.66,0,0,1,.951-.329Z" transform="translate(-49.854 -139.741)" fill="#455a64"/>
          </g>
          <g id="Grupo_1006764" data-name="Grupo 1006764" transform="translate(30.406)">
            <path id="Trazado_717296" data-name="Trazado 717296" d="M136.518,100.777c-.054.2-26.641,8.493-26.641,8.493l-.807-2.409,24.713-9.99,2.448.909.29,3Z" transform="translate(-106.873 -95.806)" fill="#263238"/>
            <path id="Trazado_717297" data-name="Trazado 717297" d="M141.824,131.03c.23-.078.888-.595.1-1.345s-15.045-6.224-16.5-6.63a12.3,12.3,0,0,0-5.171-.3c-2.107.287-7.963,1.829-7.963,1.829l.771,2.3s5.375-2.1,8.412-2.278,4.376.442,8.487,2.224,7.9,4.744,9.47,4.992a2.585,2.585,0,0,0,2.4-.8Z" transform="translate(-109.13 -113.856)" fill="#263238"/>
            <path id="Trazado_717298" data-name="Trazado 717298" d="M101.723,105.123l.894,2.675c1.417-.475,2.215-.1,3.363,1.426a25.336,25.336,0,0,0,6.313,6.176c2.807,1.719,8.062.278,10.451-.52s7.422-2.906,9.076-5.267,1.106-8.125.882-9.751a2.676,2.676,0,0,1,.589-2.194.5.5,0,0,0,.1-.493l-1.178-3.524a.5.5,0,0,0-.532-.338l-3.163.188a45.106,45.106,0,0,0-16.567,4.69,54.559,54.559,0,0,0-7.387,5.231,21.865,21.865,0,0,1-2.849,1.7Zm10.624-5.617a47.388,47.388,0,0,1,6.313-2.577c.347-.117.691-.239,1.043-.341a27.569,27.569,0,0,1,6-1.166c2.125.066,3.934.227,4.9,3.7s1.261,7.805.607,9.117-3.145,3.8-8.938,5.754c-5.608,1.9-7.694,1.369-9.658.338-1.522-.8-3.506-2.49-5.521-6.9S110.927,100.292,112.347,99.506Z" transform="translate(-101.72 -93.309)" fill="#263238"/>
            <path id="Trazado_717299" data-name="Trazado 717299" d="M123.86,104.323s-.051.033-.155.093-.266.146-.466.26c-.41.23-1.016.565-1.752,1.067a9.538,9.538,0,0,0-2.362,2.191,4.9,4.9,0,0,0-.5.837,3.889,3.889,0,0,0-.32.98,3.935,3.935,0,0,0,.236,2.2,22.74,22.74,0,0,0,1.109,2.233,17.838,17.838,0,0,0,1.483,2.257,10.511,10.511,0,0,0,2.042,2.03,8.194,8.194,0,0,0,1.291.771,7.426,7.426,0,0,0,1.447.541,8.375,8.375,0,0,0,3.19.12,21,21,0,0,0,3.279-.735,29.1,29.1,0,0,0,6.514-2.738,16.772,16.772,0,0,0,1.5-1,10.419,10.419,0,0,0,1.333-1.172,4.644,4.644,0,0,0,.989-1.411,5.705,5.705,0,0,0,.263-1.683,21.114,21.114,0,0,0-.179-3.357,27.877,27.877,0,0,0-.583-3.175,7.948,7.948,0,0,0-1.136-2.813,3.3,3.3,0,0,0-1.061-.966,4.019,4.019,0,0,0-1.33-.433,9.551,9.551,0,0,0-2.687-.033c-.858.114-1.677.29-2.451.469s-1.51.374-2.2.565c-.685.212-1.327.419-1.925.628-1.2.416-2.212.81-3.04,1.145s-1.459.616-1.883.816l-.478.236c-.108.054-.164.078-.164.078s.051-.033.155-.093.263-.143.472-.248c.422-.209,1.049-.5,1.874-.846s1.838-.744,3.034-1.172c.6-.212,1.244-.424,1.928-.64.691-.2,1.426-.392,2.2-.577s1.6-.362,2.46-.481a9.573,9.573,0,0,1,2.723.024,4.137,4.137,0,0,1,1.375.442,3.436,3.436,0,0,1,1.109,1,8.193,8.193,0,0,1,1.166,2.861,28.865,28.865,0,0,1,.589,3.193,21.008,21.008,0,0,1,.185,3.381,5.9,5.9,0,0,1-.269,1.734,4.8,4.8,0,0,1-1.022,1.462,11.155,11.155,0,0,1-1.351,1.19,17.577,17.577,0,0,1-1.513,1.016,29.4,29.4,0,0,1-6.553,2.75,21.167,21.167,0,0,1-3.306.735,8.486,8.486,0,0,1-3.243-.129,7.424,7.424,0,0,1-1.471-.556,8.38,8.38,0,0,1-1.312-.786,10.436,10.436,0,0,1-2.063-2.06,17.952,17.952,0,0,1-1.486-2.278,22.346,22.346,0,0,1-1.106-2.254,4.019,4.019,0,0,1-.23-2.26,4.063,4.063,0,0,1,.332-1,4.947,4.947,0,0,1,.508-.849,7.777,7.777,0,0,1,1.211-1.291,12.15,12.15,0,0,1,1.187-.9,19.622,19.622,0,0,1,1.773-1.043c.206-.108.362-.188.475-.245l.164-.081Z" transform="translate(-113.233 -98.126)" fill="#fff"/>
            <path id="Trazado_717300" data-name="Trazado 717300" d="M120.57,123.786s.17-.063.484-.149.768-.212,1.336-.347a34.558,34.558,0,0,1,4.478-.84,12.465,12.465,0,0,1,2.514-.024,10.152,10.152,0,0,1,2.009.425c.556.185.992.359,1.294.484a2.99,2.99,0,0,1,.46.215,3.448,3.448,0,0,1-.481-.158c-.3-.111-.75-.266-1.3-.436a10.488,10.488,0,0,0-1.991-.389,12.9,12.9,0,0,0-2.484.036,41.775,41.775,0,0,0-4.466.792c-.547.123-1,.224-1.345.3a3.477,3.477,0,0,1-.5.093Z" transform="translate(-114.935 -113.685)" fill="#455a64"/>
            <path id="Trazado_717301" data-name="Trazado 717301" d="M118.713,130.8a5.817,5.817,0,0,1,.957-.308c.6-.167,1.432-.377,2.359-.574s1.773-.341,2.388-.43a5.75,5.75,0,0,1,1-.1,7.681,7.681,0,0,1-.983.215c-.61.117-1.45.278-2.376.475s-1.761.389-2.365.529a7.147,7.147,0,0,1-.983.2Z" transform="translate(-113.631 -118.598)" fill="#455a64"/>
            <g id="Grupo_1006763" data-name="Grupo 1006763" transform="translate(5.656 5.001)" opacity="0.3">
              <path id="Trazado_717302" data-name="Trazado 717302" d="M127.223,111.22c-1.258.368-4.885,2.2-5.979,3.943a3.582,3.582,0,0,0-.111,3.775c.816,1.118,2.666,4.3,5.031,5.808a8,8,0,0,0,6.556.813c1.247-.505-1.016-15.574-1.97-15.52a17.7,17.7,0,0,0-3.527,1.184Z" transform="translate(-120.641 -110.039)" fill="#fff"/>
            </g>
          </g>
        </g>
      </g>
      <g id="Plant" transform="translate(20.732 113.829)">
        <g id="Grupo_1006773" data-name="Grupo 1006773">
          <path id="Trazado_717303" data-name="Trazado 717303" d="M72.126,352.8a2.908,2.908,0,0,1,.2,1.274,4.182,4.182,0,0,1,.579-1.44c.1-.163.27-.341.456-.294s.25.286.258.48a3.107,3.107,0,0,1-.353,1.552,3.437,3.437,0,0,1,1.313-1.016.319.319,0,0,1,.286-.024c.1.06.1.2.083.318A2.65,2.65,0,0,1,73.34,355.7l-.278.04a2.476,2.476,0,0,1-1.774-2.841c.044-.23.175-.5.409-.5C71.907,352.394,72.05,352.6,72.126,352.8Z" transform="translate(-63.705 -326.35)" fill="#005b8b"/>
          <g id="Grupo_1006772" data-name="Grupo 1006772" transform="translate(0.052)">
            <g id="Grupo_1006767" data-name="Grupo 1006767" transform="translate(4.071 28.778)">
              <path id="Trazado_717304" data-name="Trazado 717304" d="M75.1,369.487a8.022,8.022,0,0,0-2.639-1.063,10.866,10.866,0,0,0,.075-5.833,5.552,5.552,0,0,0-.984-2.1,2.873,2.873,0,0,0-1.984-1.107,2.793,2.793,0,0,0-2.2,1.02l-.972,2.254a8.373,8.373,0,0,0-.115.988,11.931,11.931,0,0,0,1.421,6.3,6.6,6.6,0,0,0-1.782,5.286H77.485a6.394,6.394,0,0,0-2.381-5.746Z" transform="translate(-64.576 -359.38)" fill="#455a64"/>
              <path id="Trazado_717305" data-name="Trazado 717305" d="M69.19,384.461a.815.815,0,0,1,.087-.127,2.973,2.973,0,0,1,.286-.333,5.323,5.323,0,0,1,1.282-.98,6.13,6.13,0,0,1,2.282-.73,5.526,5.526,0,0,1,5.186,2.234,6.077,6.077,0,0,1,1.036,2.159,5.235,5.235,0,0,1,.167,1.607,3.69,3.69,0,0,1-.044.437.484.484,0,0,1-.032.151,7.019,7.019,0,0,0-.21-2.159,6.076,6.076,0,0,0-1.048-2.091,5.448,5.448,0,0,0-5.04-2.171,6,6,0,0,0-2.238.679,6.939,6.939,0,0,0-1.714,1.329Z" transform="translate(-66.586 -373.175)" fill="#263238"/>
              <path id="Trazado_717306" data-name="Trazado 717306" d="M66.716,365.251a2.773,2.773,0,0,1-.02-.766,6.575,6.575,0,0,1,.313-1.829A3.778,3.778,0,0,1,68,361.08a1.589,1.589,0,0,1,.651-.413c.016.028-.242.167-.567.5a4.091,4.091,0,0,0-.909,1.544,8.33,8.33,0,0,0-.353,1.782A3.908,3.908,0,0,1,66.716,365.251Z" transform="translate(-65.077 -360.156)" fill="#263238"/>
              <path id="Trazado_717307" data-name="Trazado 717307" d="M83.608,392.318a10.148,10.148,0,0,1,1.079-1.1,11.449,11.449,0,0,1,1.115-1.067,5.162,5.162,0,0,1-.992,1.194,5.285,5.285,0,0,1-1.2.98Z" transform="translate(-75.282 -377.938)" fill="#263238"/>
              <path id="Trazado_717308" data-name="Trazado 717308" d="M80.35,390.494a3.856,3.856,0,0,1,.187-1.147,3.9,3.9,0,0,1,.357-1.107,3.855,3.855,0,0,1-.187,1.147A3.9,3.9,0,0,1,80.35,390.494Z" transform="translate(-73.31 -376.787)" fill="#263238"/>
              <path id="Trazado_717309" data-name="Trazado 717309" d="M71.7,390.688a2.983,2.983,0,0,1,.659,1.048,3.029,3.029,0,0,1,.353,1.182,7.8,7.8,0,0,1-.512-1.111A8.086,8.086,0,0,1,71.7,390.688Z" transform="translate(-68.1 -378.264)" fill="#263238"/>
              <path id="Trazado_717310" data-name="Trazado 717310" d="M81.065,373.642a11.38,11.38,0,0,1,1.706-2.254,5.777,5.777,0,0,1-.782,1.179,6.074,6.074,0,0,1-.921,1.075Z" transform="translate(-73.748 -366.622)" fill="#263238"/>
              <path id="Trazado_717311" data-name="Trazado 717311" d="M79.006,363.706a8.391,8.391,0,0,1,.885-1.448,8.071,8.071,0,0,1,1.032-1.349,8.4,8.4,0,0,1-.885,1.448A8.076,8.076,0,0,1,79.006,363.706Z" transform="translate(-72.506 -360.301)" fill="#263238"/>
              <path id="Trazado_717312" data-name="Trazado 717312" d="M75.672,370.35a4.456,4.456,0,0,1,.167,1.226,4.213,4.213,0,0,1-.012,1.238,8.749,8.749,0,0,1-.151-2.464Z" transform="translate(-70.474 -365.997)" fill="#263238"/>
              <path id="Trazado_717313" data-name="Trazado 717313" d="M62.629,374.494a7.429,7.429,0,0,1,1.643.837,7.6,7.6,0,0,1,1.5,1.075,13.58,13.58,0,0,1-1.587-.925A14.02,14.02,0,0,1,62.629,374.494Z" transform="translate(-62.629 -368.494)" fill="#263238"/>
              <g id="Grupo_1006766" data-name="Grupo 1006766" transform="translate(3.179 8.64)" opacity="0.3">
                <path id="Trazado_717314" data-name="Trazado 717314" d="M71.628,381.624a4.067,4.067,0,0,1,1.877-.464,2.36,2.36,0,0,1,1.885.532v.024a7,7,0,0,0-4.75,1.484,1.887,1.887,0,0,1,.992-1.575Z" transform="translate(-70.64 -381.153)"/>
              </g>
            </g>
            <path id="Trazado_717315" data-name="Trazado 717315" d="M86.435,321.823a2.311,2.311,0,0,1,1.016-.04,3.364,3.364,0,0,1-1.071-.587c-.119-.1-.242-.242-.187-.385s.246-.167.4-.155a2.472,2.472,0,0,1,1.179.421,2.709,2.709,0,0,1-.671-1.123.251.251,0,0,1,.008-.226c.056-.071.167-.059.254-.036a2.094,2.094,0,0,1,1.448,1.452v.222a1.924,1.924,0,0,1-.968,1.024,1.975,1.975,0,0,1-1.413.1c-.175-.056-.373-.183-.353-.365C86.094,321.958,86.276,321.866,86.435,321.823Z" transform="translate(-72.701 -306.652)" fill="#005b8b"/>
            <path id="Trazado_717316" data-name="Trazado 717316" d="M144.555,287.244a2.312,2.312,0,0,1-.048,1.016,3.309,3.309,0,0,1,.675-1.02c.107-.111.262-.218.4-.155s.147.262.123.413a2.433,2.433,0,0,1-.52,1.139,2.717,2.717,0,0,1,1.175-.575.241.241,0,0,1,.222.028c.067.063.048.171.016.258a2.084,2.084,0,0,1-1.571,1.321l-.218-.012a1.949,1.949,0,0,1-.917-2.472c.071-.171.214-.357.393-.321.163.032.238.218.266.381Z" transform="translate(-107.488 -286.859)" fill="#005b8b"/>
            <path id="Trazado_717317" data-name="Trazado 717317" d="M95.195,320.409c.171.008.333.028.5.044.3-3.306-.7-6.659.31-9.817l-.135.171a7.494,7.494,0,0,1-3.627-.325,4.535,4.535,0,0,1-2.623-2.429,3.275,3.275,0,0,1,.56-3.433,3.86,3.86,0,0,1,4.6-.31,10.84,10.84,0,0,1,3.266,3.44,6.08,6.08,0,0,1,1.579-.909,18.411,18.411,0,0,1-3.639-7.151c-.552-2.9.532-6.337,3.226-7.551a6,6,0,0,1,6.786,1.825c.127.151.234.314.345.472l-.056-.155a4.186,4.186,0,0,1,2.182-2.3,3.545,3.545,0,0,1,3.131.151,3.091,3.091,0,0,1,1.54,2.686,3.439,3.439,0,0,1-1.992,2.861,5.408,5.408,0,0,1-3.432.317,10.428,10.428,0,0,1-.016,3.083,17.806,17.806,0,0,1-2.611,6.452,5.7,5.7,0,0,1,.94.778c2.079,2.175,2.21,5.671,1.123,8.476s-4.04,4.873-6.083,7.079h0a13.374,13.374,0,0,1,1.571,4.932,4.494,4.494,0,0,1,3.96-2.544,2.214,2.214,0,0,1,2.171,1.254,2.287,2.287,0,0,1-.7,2.139,5.681,5.681,0,0,1-5.238,1.536l-.024-.548a23.865,23.865,0,0,1-.091,3.77h-13.2s-3.528-14.337,5.69-14Z" transform="translate(-74.373 -289.775)" fill="#455a64"/>
            <g id="Grupo_1006768" data-name="Grupo 1006768" transform="translate(0 44.631)">
              <rect id="Rectángulo_347129" data-name="Rectángulo 347129" width="31.234" height="5.536" transform="translate(31.234 5.536) rotate(180)" fill="#005b8b"/>
              <path id="Trazado_717318" data-name="Trazado 717318" d="M84.821,410.51l-3.8,16.543H62.409L58.25,410.51Z" transform="translate(-55.917 -406.074)" fill="#004468"/>
              <path id="Trazado_717319" data-name="Trazado 717319" d="M52.42,413.131c0,.06,7.044.111,15.734.111s15.734-.048,15.734-.111-7.044-.111-15.734-.111S52.42,413.068,52.42,413.131Z" transform="translate(-52.4 -407.588)" fill="#005b8b"/>
            </g>
            <path id="Trazado_717320" data-name="Trazado 717320" d="M98.67,364.507s.06-.04.179-.1a3.839,3.839,0,0,1,.548-.234,5.291,5.291,0,0,1,2.175-.25,6.646,6.646,0,0,1,3.059,1.071,8.226,8.226,0,0,1,2.627,2.972,12.077,12.077,0,0,1,1.258,3.774,19.988,19.988,0,0,1,.21,3.238c0,.925-.036,1.671-.052,2.182-.012.242-.02.44-.024.591a1.221,1.221,0,0,1-.02.206.766.766,0,0,1-.016-.206c0-.155,0-.353-.008-.6v-2.182a21.441,21.441,0,0,0-.246-3.214,12.163,12.163,0,0,0-1.254-3.714,8.153,8.153,0,0,0-2.563-2.921,6.629,6.629,0,0,0-2.98-1.083,5.567,5.567,0,0,0-2.143.19c-.488.151-.742.294-.75.274Z" transform="translate(-80.297 -333.328)" fill="#263238"/>
            <path id="Trazado_717321" data-name="Trazado 717321" d="M105.649,336.547a1.165,1.165,0,0,1-.02-.155c0-.1-.024-.254-.02-.452a7.589,7.589,0,0,1,.194-1.651A7.741,7.741,0,0,1,106.72,332a6.354,6.354,0,0,1,.885-1.171,5.219,5.219,0,0,1,2.706-1.548,6,6,0,0,1,1.464-.107,7.209,7.209,0,0,1,2.4.571,8.2,8.2,0,0,1,1.46.8,3.823,3.823,0,0,1,.361.27c.079.063.123.1.119.107a5.7,5.7,0,0,1-.52-.317,9.234,9.234,0,0,0-1.472-.738,7.329,7.329,0,0,0-2.365-.524,6.045,6.045,0,0,0-1.421.115,5.122,5.122,0,0,0-2.619,1.5,6.422,6.422,0,0,0-.873,1.135,7.926,7.926,0,0,0-.937,2.238,8.341,8.341,0,0,0-.246,1.627c-.02.389-.012.607-.028.607Z" transform="translate(-84.483 -312.376)" fill="#263238"/>
            <path id="Trazado_717322" data-name="Trazado 717322" d="M132.925,302.47a6.154,6.154,0,0,1-.111-1.06c-.024-.325-.06-.714-.131-1.139a5.689,5.689,0,0,0-.373-1.341,13.823,13.823,0,0,0-1.206-2.246c-.361-.548-.635-.845-.615-.865s.087.059.218.19a6.343,6.343,0,0,1,.5.6,11.223,11.223,0,0,1,1.266,2.25,5.279,5.279,0,0,1,.373,1.381,10.447,10.447,0,0,1,.1,1.159,6.4,6.4,0,0,1-.012,1.067Z" transform="translate(-99.489 -292.263)" fill="#263238"/>
            <path id="Trazado_717323" data-name="Trazado 717323" d="M132.327,387.366a3.629,3.629,0,0,1,.9.667,3.71,3.71,0,0,1,.786.8,7.194,7.194,0,0,1-1.686-1.464Z" transform="translate(-100.597 -347.481)" fill="#263238"/>
            <path id="Trazado_717324" data-name="Trazado 717324" d="M135.13,384.218a7.359,7.359,0,0,1,2.254-.222,7.357,7.357,0,0,1-2.254.222Z" transform="translate(-102.289 -345.432)" fill="#263238"/>
            <path id="Trazado_717325" data-name="Trazado 717325" d="M133.006,377.053a6.68,6.68,0,0,1,.627-.869,6.93,6.93,0,0,1,.631-.865,2.3,2.3,0,0,1-.488.968A2.341,2.341,0,0,1,133.006,377.053Z" transform="translate(-101.006 -340.216)" fill="#263238"/>
            <path id="Trazado_717326" data-name="Trazado 717326" d="M128.38,377.43a4.811,4.811,0,0,1-.2,1.278,4.7,4.7,0,0,1-.377,1.238,4.81,4.81,0,0,1,.2-1.278A4.693,4.693,0,0,1,128.38,377.43Z" transform="translate(-97.861 -341.489)" fill="#263238"/>
            <path id="Trazado_717327" data-name="Trazado 717327" d="M126.785,387.238c-.032-.036.175-.278.464-.536s.552-.445.583-.409-.175.278-.464.536S126.817,387.273,126.785,387.238Z" transform="translate(-97.254 -346.833)" fill="#263238"/>
            <path id="Trazado_717328" data-name="Trazado 717328" d="M115.225,384.5a2.463,2.463,0,0,1,.567-.718c.349-.361.659-.631.694-.6a2.46,2.46,0,0,1-.567.718C115.57,384.265,115.261,384.534,115.225,384.5Z" transform="translate(-90.281 -344.959)" fill="#263238"/>
            <path id="Trazado_717329" data-name="Trazado 717329" d="M112.712,373.345a2.711,2.711,0,0,1,.425-.861,2.634,2.634,0,0,1,.571-.766,2.71,2.71,0,0,1-.425.861A2.633,2.633,0,0,1,112.712,373.345Z" transform="translate(-88.764 -338.043)" fill="#263238"/>
            <path id="Trazado_717330" data-name="Trazado 717330" d="M105.24,367.13a3.544,3.544,0,0,1,.1,1.1,3.609,3.609,0,0,1-.071,1.1,3.543,3.543,0,0,1-.1-1.1A3.608,3.608,0,0,1,105.24,367.13Z" transform="translate(-84.216 -335.277)" fill="#263238"/>
            <path id="Trazado_717331" data-name="Trazado 717331" d="M89.895,370.068a8.149,8.149,0,0,1,.873,1.02,7.864,7.864,0,0,1,.833,1.048,6.038,6.038,0,0,1-1.706-2.067Z" transform="translate(-75.002 -337.049)" fill="#263238"/>
            <path id="Trazado_717332" data-name="Trazado 717332" d="M87.92,385.224a6.958,6.958,0,0,1,2.151.417,6.956,6.956,0,0,1-2.151-.417Z" transform="translate(-73.813 -346.181)" fill="#263238"/>
            <path id="Trazado_717333" data-name="Trazado 717333" d="M103.938,387.106a3.216,3.216,0,0,1,.421-1.206,3.249,3.249,0,0,1,.722-1.052,8.822,8.822,0,0,1-.567,1.131,8.315,8.315,0,0,1-.579,1.127Z" transform="translate(-83.47 -345.963)" fill="#263238"/>
            <path id="Trazado_717334" data-name="Trazado 717334" d="M98.433,380.552a2.391,2.391,0,0,1-.107-.889,2.337,2.337,0,0,1,.067-.893,2.39,2.39,0,0,1,.107.889A2.337,2.337,0,0,1,98.433,380.552Z" transform="translate(-80.088 -342.298)" fill="#263238"/>
            <path id="Trazado_717335" data-name="Trazado 717335" d="M115.837,393.533a2,2,0,0,1,.373-.933,1.97,1.97,0,0,1,.663-.754,5.309,5.309,0,0,1-.512.845A5.557,5.557,0,0,1,115.837,393.533Z" transform="translate(-90.647 -350.184)" fill="#263238"/>
            <path id="Trazado_717336" data-name="Trazado 717336" d="M96.344,394.435a5.511,5.511,0,0,1-.786-1.786,5.509,5.509,0,0,1,.786,1.786Z" transform="translate(-78.415 -350.669)" fill="#263238"/>
            <path id="Trazado_717337" data-name="Trazado 717337" d="M126,363.224a4.189,4.189,0,0,1,1.21-.048,4.4,4.4,0,0,1,1.206.127,4.19,4.19,0,0,1-1.21.048,4.329,4.329,0,0,1-1.2-.127Z" transform="translate(-96.782 -332.886)" fill="#263238"/>
            <path id="Trazado_717338" data-name="Trazado 717338" d="M132.638,349.34a12.718,12.718,0,0,1,2.425-1.714,6.4,6.4,0,0,1-1.163.932,6.252,6.252,0,0,1-1.262.786Z" transform="translate(-100.786 -323.51)" fill="#263238"/>
            <path id="Trazado_717339" data-name="Trazado 717339" d="M131.949,335.449a7.32,7.32,0,0,1,.948-.627,7.22,7.22,0,0,1,.944-.627,3.747,3.747,0,0,1-1.893,1.254Z" transform="translate(-100.37 -315.409)" fill="#263238"/>
            <path id="Trazado_717340" data-name="Trazado 717340" d="M124.494,327.981a11.685,11.685,0,0,1,.679-2.782,5.947,5.947,0,0,1-.254,1.413A6.085,6.085,0,0,1,124.494,327.981Z" transform="translate(-95.867 -309.985)" fill="#263238"/>
            <path id="Trazado_717341" data-name="Trazado 717341" d="M112.081,328.528a3.083,3.083,0,0,1,.575.849,3.025,3.025,0,0,1,.421.937,3.083,3.083,0,0,1-.575-.849A3.025,3.025,0,0,1,112.081,328.528Z" transform="translate(-88.383 -311.993)" fill="#263238"/>
            <path id="Trazado_717342" data-name="Trazado 717342" d="M101.372,353.134c.032-.04.6.393,1.333.845s1.373.77,1.353.814a6.534,6.534,0,0,1-2.69-1.663Z" transform="translate(-81.924 -326.832)" fill="#263238"/>
            <path id="Trazado_717343" data-name="Trazado 717343" d="M118.738,357a3.242,3.242,0,0,1,.845-.623,3.174,3.174,0,0,1,.94-.476,3.242,3.242,0,0,1-.845.623A3.176,3.176,0,0,1,118.738,357Z" transform="translate(-92.402 -328.502)" fill="#263238"/>
            <path id="Trazado_717344" data-name="Trazado 717344" d="M121.647,343.387c-.036-.04.409-.476.825-1.115s.643-1.218.69-1.2a2.933,2.933,0,0,1-.544,1.3,2.867,2.867,0,0,1-.972,1.016Z" transform="translate(-94.155 -319.557)" fill="#263238"/>
            <path id="Trazado_717345" data-name="Trazado 717345" d="M115.875,340.824a3.757,3.757,0,0,1-.036-1.131,3.7,3.7,0,0,1,.139-1.123,3.756,3.756,0,0,1,.036,1.131A3.7,3.7,0,0,1,115.875,340.824Z" transform="translate(-90.645 -318.05)" fill="#263238"/>
            <path id="Trazado_717346" data-name="Trazado 717346" d="M112.351,352.376a4.005,4.005,0,0,1-.222-1.143,3.891,3.891,0,0,1-.048-1.163,4,4,0,0,1,.222,1.143A3.892,3.892,0,0,1,112.351,352.376Z" transform="translate(-88.371 -324.987)" fill="#263238"/>
            <path id="Trazado_717347" data-name="Trazado 717347" d="M103.979,320.83a10.436,10.436,0,0,1,.369,1.294,9.679,9.679,0,0,1,.369,1.294,5.217,5.217,0,0,1-.734-2.583Z" transform="translate(-83.491 -307.349)" fill="#263238"/>
            <path id="Trazado_717348" data-name="Trazado 717348" d="M97.8,339.022a141.5,141.5,0,0,1,2.024-1.476,3.21,3.21,0,0,1-.913.873,3.141,3.141,0,0,1-1.111.6Z" transform="translate(-79.771 -317.431)" fill="#263238"/>
            <path id="Trazado_717349" data-name="Trazado 717349" d="M89.37,334.258a7.78,7.78,0,0,1,1.23-.25,8.039,8.039,0,0,1,1.234-.222,5.013,5.013,0,0,1-2.464.472Z" transform="translate(-74.688 -315.159)" fill="#263238"/>
            <path id="Trazado_717350" data-name="Trazado 717350" d="M97.567,327.981a1.823,1.823,0,0,1,.7.345c.361.23.635.452.607.492a1.829,1.829,0,0,1-.7-.345C97.813,328.242,97.539,328.02,97.567,327.981Z" transform="translate(-79.631 -311.659)" fill="#263238"/>
            <path id="Trazado_717351" data-name="Trazado 717351" d="M93.48,320.415a3.207,3.207,0,0,1,1.349,1.548,5.347,5.347,0,0,1-.679-.77,5.781,5.781,0,0,1-.667-.778Z" transform="translate(-77.167 -307.097)" fill="#263238"/>
            <path id="Trazado_717352" data-name="Trazado 717352" d="M87.9,327.617a6.472,6.472,0,0,1,1.139.282,6.178,6.178,0,0,1,1.127.325,4.529,4.529,0,0,1-2.262-.607Z" transform="translate(-73.801 -311.439)" fill="#263238"/>
            <path id="Trazado_717353" data-name="Trazado 717353" d="M126.527,313.311a16.613,16.613,0,0,1,1-1.52,16.35,16.35,0,0,1,1.016-1.512,10.14,10.14,0,0,1-2.012,3.032Z" transform="translate(-97.098 -300.985)" fill="#263238"/>
            <path id="Trazado_717354" data-name="Trazado 717354" d="M124.018,305.145a9.765,9.765,0,0,1,.341-2.6,9.765,9.765,0,0,1-.341,2.6Z" transform="translate(-95.574 -296.323)" fill="#263238"/>
            <path id="Trazado_717355" data-name="Trazado 717355" d="M115.452,310.46c.052-.008.194.667.532,1.436s.726,1.341.683,1.373a3.6,3.6,0,0,1-.845-1.3,3.538,3.538,0,0,1-.369-1.5Z" transform="translate(-90.413 -301.094)" fill="#263238"/>
            <path id="Trazado_717356" data-name="Trazado 717356" d="M105.377,312.594c.04-.032.54.556,1.226,1.2s1.3,1.111,1.274,1.151a5.1,5.1,0,0,1-1.393-1.024,5.027,5.027,0,0,1-1.107-1.329Z" transform="translate(-84.342 -302.379)" fill="#263238"/>
            <path id="Trazado_717357" data-name="Trazado 717357" d="M109.267,294.29c.052-.008.206.73.48,1.615s.56,1.583.512,1.6a7.437,7.437,0,0,1-1-3.218Z" transform="translate(-86.68 -291.341)" fill="#263238"/>
            <path id="Trazado_717358" data-name="Trazado 717358" d="M120.842,288.26a9.733,9.733,0,0,1,.159,2.6,9.73,9.73,0,0,1-.159-2.6Z" transform="translate(-93.648 -287.704)" fill="#263238"/>
            <path id="Trazado_717359" data-name="Trazado 717359" d="M144.88,303.727a5.242,5.242,0,0,1,.992.071,4.824,4.824,0,0,1,.988.091,2.022,2.022,0,0,1-1,.083A2.043,2.043,0,0,1,144.88,303.727Z" transform="translate(-108.17 -297.024)" fill="#263238"/>
            <path id="Trazado_717360" data-name="Trazado 717360" d="M144.169,295.432a14.387,14.387,0,0,1,2.806-1.488,14.392,14.392,0,0,1-2.806,1.488Z" transform="translate(-107.741 -291.13)" fill="#263238"/>
            <path id="Trazado_717361" data-name="Trazado 717361" d="M137.675,294.283a8.864,8.864,0,0,1,.75-2.393,8.864,8.864,0,0,1-.75,2.393Z" transform="translate(-103.819 -289.893)" fill="#263238"/>
            <g id="Grupo_1006769" data-name="Grupo 1006769" transform="translate(21.246 30.286)" opacity="0.3">
              <path id="Trazado_717362" data-name="Trazado 717362" d="M111.315,367a4.11,4.11,0,0,0-1.758-3.23,3.917,3.917,0,0,0-3.647-.242,5.651,5.651,0,0,1,3.2,1.1A8.963,8.963,0,0,1,111.319,367" transform="translate(-105.91 -363.181)"/>
            </g>
            <g id="Grupo_1006770" data-name="Grupo 1006770" transform="translate(25.23 16.002)" opacity="0.3">
              <path id="Trazado_717363" data-name="Trazado 717363" d="M121.442,329.179a3.563,3.563,0,0,0-2.512-1.956,3.391,3.391,0,0,0-2.98,1.067,4.909,4.909,0,0,1,2.925-.23,7.745,7.745,0,0,1,2.571,1.119" transform="translate(-115.95 -327.185)"/>
            </g>
            <g id="Grupo_1006771" data-name="Grupo 1006771" transform="translate(31.849 4.588)" opacity="0.3">
              <path id="Trazado_717364" data-name="Trazado 717364" d="M134.2,302.249a2.819,2.819,0,0,0,.171-2.433,2.383,2.383,0,0,0-1.738-1.4,7.356,7.356,0,0,1,1.544,3.877" transform="translate(-132.63 -298.42)"/>
            </g>
            <path id="Trazado_717365" data-name="Trazado 717365" d="M90.732,367.34a4.572,4.572,0,0,0-.357.385,6.842,6.842,0,0,0-.8,1.171,12.815,12.815,0,0,0-1.147,4.52,20.452,20.452,0,0,0,.234,4.69c.091.6.183,1.075.246,1.409a2.861,2.861,0,0,1,.079.52,2.907,2.907,0,0,1-.155-.5c-.083-.329-.194-.806-.306-1.4a18.694,18.694,0,0,1-.29-4.726,11.989,11.989,0,0,1,1.218-4.571,5.992,5.992,0,0,1,.861-1.155,1.381,1.381,0,0,1,.413-.333Z" transform="translate(-73.979 -335.404)" fill="#263238"/>
          </g>
          <path id="Trazado_717366" data-name="Trazado 717366" d="M83.525,399.191a.435.435,0,0,1-.1.008c-.071,0-.163,0-.278.008-.258,0-.615.008-1.071.016-.944.008-2.286.016-3.94.028-3.337.008-7.928.016-13,.024-5-.008-9.532-.02-12.845-.024l.063-.063c-.008,1.7-.012,3.083-.016,4.055,0,.468-.012.837-.012,1.1,0,.119,0,.21-.008.286a.286.286,0,0,1-.008.1.267.267,0,0,1-.008-.1c0-.075,0-.171-.008-.286,0-.266-.012-.635-.02-1.1-.008-.972-.024-2.353-.04-4.055v-.064H52.3c3.313-.008,7.845-.016,12.845-.024,5.071.012,9.663.02,13,.024,1.655.012,3,.02,3.94.028.456.008.813.012,1.071.016.115,0,.206.008.278.008a.437.437,0,0,1,.1.008Z" transform="translate(-52.24 -354.561)" fill="#263238"/>
        </g>
      </g>
      <g id="Character" transform="translate(42.809 -12.13)">
        <g id="Grupo_1006792" data-name="Grupo 1006792">
          <g id="Grupo_1006774" data-name="Grupo 1006774" transform="translate(42.544 84.558)">
            <path id="Trazado_717367" data-name="Trazado 717367" d="M252.13,431.178H323.4l-6.636-19.538-54.615,2.835Z" transform="translate(-252.13 -324.536)" fill="#263238"/>
            <path id="Trazado_717368" data-name="Trazado 717368" d="M276.431,325.3l41.649-1.553,14.79-82.815L319.5,235.177s-5.546,3.111-15.82,3.16c-10.082.049-9.9-3.377-9.9-3.377l-8.84,9.52s-10.881,30.956-11.048,31.582S276.431,325.3,276.431,325.3Z" transform="translate(-263.16 -234.96)" fill="#fff"/>
          </g>
          <path id="Trazado_717369" data-name="Trazado 717369" d="M354.777,233.551s20.514,4.24,20.691,7.661-8.775,24.6-8.948,25.153-8.061,30.818-8.061,30.818l11.827,40.7H333.41s2.628-38.385,5.605-56.128,3.668-23.684,4.8-30.694c.454-2.815,2.751-12.473,4.176-18.369a13.088,13.088,0,0,0,.217-5.078l1.75.666,4.822,5.28Z" transform="translate(-250.794 -146.675)" fill="#003f60"/>
          <path id="Trazado_717370" data-name="Trazado 717370" d="M241.391,343.986c-.2.3-3.944,13.9-4.56,17.837-.523,3.343-1.356,8.771,2.194,13.8s7.208,4.437,10.747,3.155,7.385-8.672,8.075-12.912-3.323-22.885-3.323-22.885l-13.134,1.011Z" transform="translate(-201.588 -205.168)" fill="#003f60"/>
          <path id="Trazado_717371" data-name="Trazado 717371" d="M279.489,229.595l-4.57,6.444S259.7,238,256.195,240.564,245.61,289.2,245.61,289.2l14.164,7.883-10.945,41.8h13.72s3.4-17.615,3.086-30.27,1.883-29.1,5.916-41.245,7.893-33.179,7.893-33.179l.044-4.595Z" transform="translate(-206.28 -147.679)" fill="#003f60"/>
          <g id="Grupo_1006775" data-name="Grupo 1006775" transform="translate(90.124 162.172)" opacity="0.3">
            <path id="Trazado_717372" data-name="Trazado 717372" d="M373.172,406.031,348.64,392.39a21.536,21.536,0,0,0,9.175,14.085,21.244,21.244,0,0,0,16.491,2.6q-.57-1.523-1.134-3.047Z" transform="translate(-348.64 -392.39)"/>
          </g>
          <path id="Trazado_717373" data-name="Trazado 717373" d="M244.7,367.367c.01.044-.582.133-1.454.513a7.338,7.338,0,0,0-4.378,5.541c-.163.932-.113,1.528-.163,1.533a1.28,1.28,0,0,1-.064-.414,6.087,6.087,0,0,1,.044-1.144,7.038,7.038,0,0,1,4.491-5.684,5.489,5.489,0,0,1,1.1-.306,1.229,1.229,0,0,1,.419-.035Z" transform="translate(-202.741 -217.531)" fill="#263238"/>
          <path id="Trazado_717374" data-name="Trazado 717374" d="M248.433,381.864s3.895-1.237,5.295-2.815a11.668,11.668,0,0,0,2.588-5.487c.177-2.347,1.055-14.672,1.055-14.672l-10.259-.68-6.305,12.1a10.039,10.039,0,0,0,1.79,9.165A6.281,6.281,0,0,0,248.433,381.864Z" transform="translate(-203.631 -212.889)" fill="#ffbf9d"/>
          <path id="Trazado_717375" data-name="Trazado 717375" d="M275.519,382.62c-.039-.01.064-.547.143-1.42a16.109,16.109,0,0,0-.049-3.417,16.384,16.384,0,0,0-.784-3.323c-.291-.828-.523-1.321-.483-1.341.015-.01.089.108.207.325a8.789,8.789,0,0,1,.444.951,13.459,13.459,0,0,1,.873,3.357,13.092,13.092,0,0,1-.025,3.466,9.484,9.484,0,0,1-.2,1.03c-.064.241-.1.37-.123.365Z" transform="translate(-220.847 -220.448)" fill="#263238"/>
          <path id="Trazado_717376" data-name="Trazado 717376" d="M267.928,392.87s.015.212,0,.592a5.663,5.663,0,0,1-.059.69c-.039.266-.064.577-.143.907a13.461,13.461,0,0,1-.67,2.292,15.778,15.778,0,0,1-1.341,2.6,15.416,15.416,0,0,1-1.849,2.268,13.575,13.575,0,0,1-1.834,1.528c-.271.2-.542.35-.774.493a5.207,5.207,0,0,1-.606.33,2.583,2.583,0,0,1-.542.237c-.025-.044.735-.409,1.814-1.2a14.943,14.943,0,0,0,1.775-1.548,16.5,16.5,0,0,0,1.8-2.243,15.894,15.894,0,0,0,1.336-2.549,14.927,14.927,0,0,0,.71-2.243c.3-1.311.33-2.149.38-2.144Z" transform="translate(-213.631 -230.462)" fill="#263238"/>
          <g id="Grupo_1006784" data-name="Grupo 1006784" transform="translate(0 82.737)">
            <g id="Grupo_1006776" data-name="Grupo 1006776" transform="translate(3.267)">
              <path id="Trazado_717377" data-name="Trazado 717377" d="M176.884,231.5a6.643,6.643,0,0,0-4.314,2.534l22.93,32.533,28.629-3.278-.463-29.274s-1.942-2.82-3.826-2.5c-.754.128-24.971,3.91-27.115,9.835,0,0,.251-3.027-1.765-4.541S176.884,231.5,176.884,231.5Z" transform="translate(-172.516 -231.379)" fill="#fff"/>
              <path id="Trazado_717378" data-name="Trazado 717378" d="M176.828,231.391s.113.03.335.094.552.173.981.3c.863.271,2.135.68,3.771,1.228s3.648,1.242,5.955,2.15c.577.232,1.168.478,1.775.759a4.827,4.827,0,0,1,3.106,5.32l-.168-.035a6.11,6.11,0,0,1,2.366-2.583,20.889,20.889,0,0,1,3.328-1.765,58.208,58.208,0,0,1,7.78-2.638c2.781-.764,5.724-1.44,8.805-2.051,1.538-.306,3.111-.6,4.718-.858a2.418,2.418,0,0,1,1.267.084,4.288,4.288,0,0,1,1.109.616,8.783,8.783,0,0,1,1.75,1.824l.02.03v.039c.123,7.553.256,15.776.394,24.32.025,1.666.054,3.318.079,4.955v.118l-.113.015c-10.22,1.168-19.9,2.273-28.629,3.269l-.069.01-.039-.054c-10.58-15.066-18.843-26.839-22.87-32.573l-.02-.025.02-.025a5.668,5.668,0,0,1,1.642-1.528,7.433,7.433,0,0,1,1.449-.7,6.234,6.234,0,0,1,.937-.256,1.314,1.314,0,0,1,.32-.03,3.168,3.168,0,0,0-.32.054,6,6,0,0,0-.922.276,7.676,7.676,0,0,0-1.43.715,5.549,5.549,0,0,0-1.607,1.518v-.049c4.048,5.719,12.355,17.462,22.989,32.489l-.108-.049c8.731-1.006,18.409-2.115,28.629-3.293l-.113.128c-.025-1.637-.054-3.288-.079-4.955-.133-8.544-.261-16.772-.38-24.32l.02.069a8.484,8.484,0,0,0-1.691-1.77,4.093,4.093,0,0,0-1.04-.582,2.163,2.163,0,0,0-1.149-.074c-1.6.261-3.175.547-4.713.848-3.076.606-6.02,1.277-8.8,2.031a58.315,58.315,0,0,0-7.755,2.608,20.943,20.943,0,0,0-3.3,1.74,5.932,5.932,0,0,0-2.307,2.49l-.187.453.02-.493a4.677,4.677,0,0,0-3-5.177c-.6-.281-1.188-.528-1.76-.764-2.3-.917-4.3-1.617-5.936-2.184s-2.894-.981-3.757-1.272l-.971-.325c-.217-.074-.33-.118-.33-.118Z" transform="translate(-172.46 -231.266)" fill="#263238"/>
            </g>
            <g id="Grupo_1006777" data-name="Grupo 1006777" transform="translate(0 1.724)">
              <path id="Trazado_717379" data-name="Trazado 717379" d="M187.652,272.878l-21.475-36.492a.936.936,0,0,1,.1-1.094h0a.936.936,0,0,1,1.055-.251l16.925,6.749a2.245,2.245,0,0,1,.843.587h0a2.271,2.271,0,0,1,.527,2.007l-.251,1.129,5.926,1.513.128-.33a4.362,4.362,0,0,1,2.736-2.573l27.273-8.687a2.517,2.517,0,0,1,3,1.242l19.331,37.335-.631,1.765-30.783,7.3h-5.413l-19.3-10.2Z" transform="translate(-165.941 -234.869)" fill="#ffa031"/>
              <path id="Trazado_717380" data-name="Trazado 717380" d="M187.544,272.772s.118.054.335.168l.981.508c.868.454,2.14,1.119,3.8,1.982,3.308,1.74,8.135,4.274,14.218,7.469l-.035-.01c1.7,0,3.51,0,5.413-.01h-.02c8.544-2.031,19.015-4.521,30.778-7.321l-.084.074c.192-.542.409-1.154.631-1.765v.094c-3.135-6.064-6.488-12.537-10-19.306q-2.633-5.08-5.369-10.368l-2.761-5.329-.7-1.346-.35-.675a4.454,4.454,0,0,0-.37-.641,2.4,2.4,0,0,0-2.588-.858c-5.482,1.745-10.866,3.456-16.1,5.127l-7.75,2.465c-1.267.409-2.549.794-3.771,1.213a4.316,4.316,0,0,0-2.485,2.716l-.035.1-.113-.03q-3.017-.769-5.926-1.514l-.113-.03.025-.113.2-.9a2.665,2.665,0,0,0,.094-.873,2.143,2.143,0,0,0-.784-1.489,2.453,2.453,0,0,0-.759-.409l-.838-.335c-.557-.222-1.109-.444-1.661-.661q-3.3-1.316-6.458-2.578t-6.162-2.46c-.5-.2-1-.4-1.494-.6a.851.851,0,0,0-1.193.414.827.827,0,0,0,.02.675l.385.666c.261.444.523.887.779,1.326,4.122,7.025,7.75,13.212,10.757,18.335s5.379,9.19,7.006,11.975l1.859,3.195q.311.54.473.828l.158.286s-.059-.089-.173-.271-.276-.458-.488-.813c-.429-.725-1.065-1.785-1.883-3.165-1.647-2.781-4.043-6.828-7.065-11.941s-6.67-11.3-10.816-18.325c-.261-.439-.518-.883-.784-1.326-.133-.227-.261-.439-.394-.68a1.046,1.046,0,0,1-.025-.843,1.034,1.034,0,0,1,.616-.587,1.106,1.106,0,0,1,.843.059q.739.3,1.494.592c2,.8,4.062,1.617,6.167,2.455s4.265,1.7,6.463,2.573c.552.217,1.1.439,1.661.661l.838.33a2.732,2.732,0,0,1,.823.444,2.391,2.391,0,0,1,.868,1.652,2.838,2.838,0,0,1-.1.942l-.2.9-.089-.143q2.914.74,5.926,1.509l-.143.074a4.581,4.581,0,0,1,2.623-2.859c1.257-.434,2.514-.809,3.786-1.223q3.816-1.213,7.745-2.47c5.241-1.671,10.624-3.382,16.106-5.132a2.653,2.653,0,0,1,2.864.947,4.11,4.11,0,0,1,.389.675l.35.675.7,1.346q1.39,2.684,2.756,5.329,2.736,5.287,5.369,10.373c3.505,6.774,6.853,13.247,9.988,19.316l.025.044-.015.049c-.222.611-.439,1.223-.631,1.765l-.02.059-.059.015c-11.768,2.776-22.244,5.25-30.788,7.267h-.02c-1.9,0-3.717,0-5.413-.01h-.02l-.015-.01c-6.074-3.229-10.9-5.788-14.2-7.543-1.642-.878-2.909-1.553-3.771-2.016-.424-.227-.744-.4-.966-.523s-.32-.182-.32-.182Z" transform="translate(-165.834 -234.762)" fill="#263238"/>
            </g>
            <g id="Grupo_1006778" data-name="Grupo 1006778" transform="translate(3.331 6.845)" opacity="0.3">
              <path id="Trazado_717381" data-name="Trazado 717381" d="M206.09,283.89l-14.07-6.725L172.59,245.15l17.161,6.656-.36.917-14.455-5.605L192.709,276.4l13.809,6.6Z" transform="translate(-172.59 -245.15)"/>
            </g>
            <g id="Grupo_1006779" data-name="Grupo 1006779" transform="translate(30.495 7.23)" opacity="0.3">
              <path id="Trazado_717382" data-name="Trazado 717382" d="M245.394,286.277l-17.7-31.952,26.09-8.4,17,32.918-25.39,7.43ZM229.135,254.9l16.737,30.211,23.482-6.872-16.067-31.113-24.152,7.77Z" transform="translate(-227.69 -245.93)"/>
            </g>
            <path id="Trazado_717383" data-name="Trazado 717383" d="M237.041,295.175c-.064.035-4.5-7.908-9.919-17.738s-9.757-17.832-9.692-17.866,4.5,7.908,9.919,17.738,9.757,17.827,9.692,17.861Z" transform="translate(-191.992 -245.616)" fill="#263238"/>
            <path id="Trazado_717384" data-name="Trazado 717384" d="M205.26,256.35s.084.118.227.36c.153.261.355.616.611,1.065.528.927,1.272,2.273,2.189,3.939,1.829,3.338,4.314,7.972,7.03,13.1s5.172,9.757,6.966,13.139c.882,1.661,1.607,3.017,2.115,3.978.237.454.429.818.567,1.085a2.288,2.288,0,0,1,.182.39,2.863,2.863,0,0,1-.227-.36c-.153-.261-.355-.616-.611-1.065-.527-.927-1.272-2.273-2.189-3.939-1.829-3.338-4.314-7.972-7.03-13.1s-5.172-9.757-6.961-13.134c-.882-1.661-1.607-3.017-2.115-3.979-.237-.454-.429-.818-.567-1.085a2.291,2.291,0,0,1-.182-.389Z" transform="translate(-185.823 -243.983)" fill="#263238"/>
            <path id="Trazado_717385" data-name="Trazado 717385" d="M211.987,254.568a4.475,4.475,0,0,1,.217-1.479,4.294,4.294,0,0,1,.468-1.42,4.475,4.475,0,0,1-.217,1.479A4.292,4.292,0,0,1,211.987,254.568Z" transform="translate(-189.222 -241.61)" fill="#263238"/>
            <g id="Grupo_1006780" data-name="Grupo 1006780" transform="translate(26.034 22.818)" opacity="0.3">
              <path id="Trazado_717386" data-name="Trazado 717386" d="M218.64,277.55,229.1,296.92l3.638.528-10.4-19.227Z" transform="translate(-218.64 -277.55)"/>
            </g>
            <g id="Grupo_1006781" data-name="Grupo 1006781" transform="translate(22.316 17.652)" opacity="0.3">
              <path id="Trazado_717387" data-name="Trazado 717387" d="M211.1,267.07l5.793,1.159,1.272,2.105-5.936-1.168-1.035-1.785" transform="translate(-211.1 -267.07)"/>
            </g>
            <g id="Grupo_1006782" data-name="Grupo 1006782" transform="translate(41.958 12.958)" opacity="0.3">
              <path id="Trazado_717388" data-name="Trazado 717388" d="M251.96,262.209l-1.02-2.361,6.483-2.3,1.129,2.327Z" transform="translate(-250.94 -257.55)"/>
            </g>
            <g id="Grupo_1006783" data-name="Grupo 1006783" transform="translate(38.95 16.054)" opacity="0.3">
              <path id="Trazado_717389" data-name="Trazado 717389" d="M248.434,277.378l-3.594-6.784L263.2,263.83l3.234,6.764Z" transform="translate(-244.84 -263.83)"/>
            </g>
          </g>
          <g id="Grupo_1006789" data-name="Grupo 1006789" transform="translate(54.603)">
            <g id="Grupo_1006786" data-name="Grupo 1006786" transform="translate(2.637)">
              <path id="Trazado_717390" data-name="Trazado 717390" d="M350.476,67.213a6.38,6.38,0,0,1,5.418-1.647,3.621,3.621,0,0,0,2.337.039,5.156,5.156,0,0,0,1.173-1.228,3.228,3.228,0,0,1,4.639.1,3.889,3.889,0,0,0,.868.947c1.5.882,3.343-1.923,4.831-1.03a3.635,3.635,0,0,0-1.78,1.267,1.655,1.655,0,0,0,.089,2.041c1.376,1.336,3.88-1.38,5.433-.251.838.606.887,2.085,1.878,2.376a3.357,3.357,0,0,0,1.193-.03,2.651,2.651,0,0,1,2.707,2.416c.059,1.149-.582,2.514.237,3.318a2.5,2.5,0,0,0,2.026.389,6.865,6.865,0,0,1-.9,2.988,4.153,4.153,0,0,1,1.119,5.655,8.838,8.838,0,0,1,2.278,2.569,3.1,3.1,0,0,1-.133,3.264,2.733,2.733,0,0,0-.468.626,1.605,1.605,0,0,0-.044.838,14.017,14.017,0,0,1,.5,3.229c-.084,1.09-.952,2.248-2.036,2.1-.251-.035-.528-.133-.749,0a.723.723,0,0,0-.286.483,7.363,7.363,0,0,0,.044,2.347,3.127,3.127,0,0,1-.463,2.253,1.341,1.341,0,0,1-2.031.148c.251,1.228.5,2.46.754,3.688.148.73.256,1.612-.3,2.115-.725.661-1.942.054-2.421-.8s-.572-1.883-1.08-2.721a5.871,5.871,0,0,1-.611-1.025c-.1-.3-.128-.651-.36-.863-.468-.429-1.257.217-1.218.853a3.34,3.34,0,0,0,.888,1.652,1.619,1.619,0,0,1,.315,1.76c-.168.256-.458.414-.621.675-.562.9.749,1.864.858,2.919a2.567,2.567,0,0,1-1.1,1.977c-.71.641-2.046,1.124-2.431.246a9.19,9.19,0,0,1-.163-.976,2.376,2.376,0,0,0-.71-.907,4.951,4.951,0,0,1-1.351-2.514c.754,1.035,1.543,2.391.912,3.505a5.21,5.21,0,0,1-1.114,1.144c-.764.72-1.267,1.686-2.021,2.416a2.452,2.452,0,0,1-2.849.641,2.363,2.363,0,0,1-4.067,2.154,2.047,2.047,0,0,0-.616-.6,1.671,1.671,0,0,0-.922-.02,5.121,5.121,0,0,1-4.846-2.223c.32-.094.636-.192.956-.286a11.918,11.918,0,0,1-5.216-1.814c-1.479-1.124-2.371-3.264-1.494-4.9.38-.71,1.08-1.425.813-2.184a2.007,2.007,0,0,0-1.267-1l-6.458-2.633a6.151,6.151,0,0,1-2.81-1.8,2.123,2.123,0,0,1,.311-2.988,6.025,6.025,0,0,0-2.159-2.573c-1.06-.71-2.317-1.065-3.412-1.726a3.452,3.452,0,0,1-1.918-3.071c.143-1.267,1.942-2.164,2.776-1.2-.084-1.923-3.485-2.209-3.688-4.122-.163-1.558,1.854-2.263,2.928-3.4-.182-.547-.715-.917-.912-1.459-.414-1.134.794-2.189,1.908-2.657s2.47-.927,2.79-2.09c.33-1.193-.641-2.6.054-3.628a1.364,1.364,0,0,1,1.814-.36c.986-2.164,5.058-.3,6.37-2.288a.862.862,0,0,0,.168-.528.9.9,0,0,0-.192-.444,9.7,9.7,0,0,0-1.76-1.489,1.872,1.872,0,0,1-.749-2.026c.311-.7,1.676-.616,1.622.153a1.7,1.7,0,0,1,2.564.779,1.835,1.835,0,0,1,2.307-.1,5.345,5.345,0,0,1,1.548,1.952" transform="translate(-306.16 -63.443)" fill="#263238"/>
              <path id="Trazado_717391" data-name="Trazado 717391" d="M377.707,111.494c-.606-3.19-2.879-5.817-5.413-7.849a8.279,8.279,0,0,0-3.569-1.893,3.484,3.484,0,0,0-3.594,1.351l.128,2.273c-.375,3.6,2.332,6.7,3.574,10.1.542,1.479.966,3.249,2.4,3.91a3.41,3.41,0,0,0,2.421.039c3.091-.986,4.664-4.738,4.057-7.923Z" transform="translate(-324.117 -82.832)" fill="#455a64"/>
              <path id="Trazado_717392" data-name="Trazado 717392" d="M335.441,124.887a7.258,7.258,0,0,0-.552-9.288c1.341-1.652.892-4.225-.439-5.891a14.2,14.2,0,0,0-5.246-3.54,9.765,9.765,0,0,0-11.309-7.247c-2.49-3.742-7.863-4.378-12.192-3.165a11.531,11.531,0,0,1-3.209.666,18.83,18.83,0,0,1-2.386-.355c-4.383-.636-8.766,2.411-10.521,6.473a8.078,8.078,0,0,1-.951,1.888,11.088,11.088,0,0,1-2.184,1.711,7,7,0,0,0-2.736,5.152c-.089,1.7.434,3.515-.3,5.058a25.027,25.027,0,0,0-1.311,2.194c-.833,2.332,1.735,4.753,1.228,7.178-.1.493-.33.956-.473,1.44a4.336,4.336,0,0,0,.232,3.027,6.166,6.166,0,0,1,.932,2.184,6.961,6.961,0,0,1-.375,1.77c-.311,1.449,2.761,7.075,4.008,7.873l37.453.715a7,7,0,0,0,5.477-5.97,2.565,2.565,0,0,1,.365-1.375,3.02,3.02,0,0,1,1.03-.656c2.426-1.272,2.751-4.58,2.524-7.306a3.294,3.294,0,0,1,.035-1.144,4.148,4.148,0,0,1,.9-1.4Z" transform="translate(-281.94 -79.543)" fill="#263238"/>
              <g id="Grupo_1006785" data-name="Grupo 1006785" transform="translate(3.299 25.181)">
                <path id="Trazado_717393" data-name="Trazado 717393" d="M328.155,134.63a20.064,20.064,0,0,0-10.457-17.6,24.877,24.877,0,0,0-9.549-2.411,15.151,15.151,0,0,0-8.854,1.765c-2.071.463-9.707,7.316-10.176,14.83-.523,8.347-.828,18.557.163,24.788,2,12.522,11.6,14.11,11.6,14.11,0-.02-.434,9.924-.434,9.924L307.429,193l18.014-18.345,2.707-40.017Z" transform="translate(-288.631 -114.521)" fill="#ffbf9d"/>
                <path id="Trazado_717394" data-name="Trazado 717394" d="M322.131,192.335a2.634,2.634,0,0,0-.823-1.676,2.7,2.7,0,0,0-3.259-.365,3.616,3.616,0,0,0-1.553,3.313h0a3.282,3.282,0,0,0,2.273,1.489,4.39,4.39,0,0,0,.439.039,2.959,2.959,0,0,0,2.026-.675,2.628,2.628,0,0,0,.892-2.12Z" transform="translate(-302.751 -152.742)" fill="#ff9a6c"/>
                <path id="Trazado_717395" data-name="Trazado 717395" d="M295.3,169.6a1.61,1.61,0,0,0,1.548,1.622,1.537,1.537,0,0,0,1.656-1.449,1.61,1.61,0,0,0-1.548-1.622A1.534,1.534,0,0,0,295.3,169.6Z" transform="translate(-292.011 -141.708)" fill="#263238"/>
                <path id="Trazado_717396" data-name="Trazado 717396" d="M295.323,156.391c.2.212,1.415-.69,3.145-.69,1.726-.02,3,.868,3.185.656.094-.094-.113-.473-.666-.873a4.418,4.418,0,0,0-2.549-.784,4.251,4.251,0,0,0-2.5.809C295.4,155.918,295.225,156.3,295.323,156.391Z" transform="translate(-292.011 -134.891)" fill="#263238"/>
                <path id="Trazado_717397" data-name="Trazado 717397" d="M311.357,170.995a11.448,11.448,0,0,0-2.805-.5c-.439-.044-.858-.133-.932-.434a2.221,2.221,0,0,1,.3-1.306q.621-1.6,1.3-3.362c1.809-4.787,3.121-8.721,2.929-8.79s-1.819,3.752-3.629,8.534c-.434,1.178-.853,2.307-1.247,3.382a2.539,2.539,0,0,0-.227,1.73,1.115,1.115,0,0,0,.725.646,3.2,3.2,0,0,0,.749.1,11.115,11.115,0,0,0,2.845,0Z" transform="translate(-297.924 -135.854)" fill="#263238"/>
                <path id="Trazado_717398" data-name="Trazado 717398" d="M313.282,222.671a31.871,31.871,0,0,0,16.767-4.481s-4.427,9-16.959,7.834Z" transform="translate(-301.032 -167.081)" fill="#ff9a6c"/>
                <path id="Trazado_717399" data-name="Trazado 717399" d="M320.541,188.215c-.281-.015-.286,1.859-1.888,3.19s-3.6,1.129-3.614,1.39c-.025.118.444.365,1.292.385a4.639,4.639,0,0,0,3.017-1.055,4.069,4.069,0,0,0,1.464-2.677c.069-.784-.138-1.247-.266-1.237Z" transform="translate(-302.019 -151.881)" fill="#263238"/>
                <path id="Trazado_717400" data-name="Trazado 717400" d="M296.724,143.453c.291.424,1.612.138,3.16.266,1.548.079,2.83.532,3.165.153.153-.187-.02-.6-.552-1.021a4.913,4.913,0,0,0-5.1-.335c-.582.35-.8.735-.675.942Z" transform="translate(-292.716 -128.431)" fill="#263238"/>
                <path id="Trazado_717401" data-name="Trazado 717401" d="M329.689,171.028a1.605,1.605,0,0,1-1.607,1.563,1.54,1.54,0,0,1-1.6-1.509,1.605,1.605,0,0,1,1.607-1.563A1.537,1.537,0,0,1,329.689,171.028Z" transform="translate(-307.82 -142.405)" fill="#263238"/>
                <path id="Trazado_717402" data-name="Trazado 717402" d="M336.8,157.621c-.207.2-1.39-.744-3.116-.8-1.726-.084-3.027.759-3.2.537-.089-.1.128-.468.7-.848a4.405,4.405,0,0,1,2.573-.69,4.22,4.22,0,0,1,2.47.9c.518.429.68.813.582.9Z" transform="translate(-309.839 -135.455)" fill="#263238"/>
                <path id="Trazado_717403" data-name="Trazado 717403" d="M337.552,145.755c-.355.38-1.671-.079-3.273-.153-1.6-.128-2.968.153-3.264-.266-.128-.2.1-.592.705-.937a5.238,5.238,0,0,1,5.27.34c.552.424.725.833.567,1.021Z" transform="translate(-310.102 -129.388)" fill="#263238"/>
                <path id="Trazado_717404" data-name="Trazado 717404" d="M364.61,175.886c0-.932,1.08-3.131,2-3.278,2.46-.385,6.892-.187,6.936,6.054.059,8.539-8.524,6.838-8.539,6.591-.015-.192-.4-6.153-.394-9.372Z" transform="translate(-327.152 -143.91)" fill="#ffbf9d"/>
                <path id="Trazado_717405" data-name="Trazado 717405" d="M370.142,185.077c.04-.03.148.1.4.217a1.49,1.49,0,0,0,1.114.015c.9-.335,1.647-1.775,1.681-3.313a4.96,4.96,0,0,0-.429-2.125,1.722,1.722,0,0,0-1.129-1.134.748.748,0,0,0-.873.414c-.113.242-.059.409-.1.424-.025.02-.182-.143-.118-.493a.957.957,0,0,1,.33-.537,1.106,1.106,0,0,1,.818-.222,2.079,2.079,0,0,1,1.563,1.311,5.023,5.023,0,0,1,.532,2.376c-.044,1.721-.912,3.338-2.145,3.7a1.575,1.575,0,0,1-1.361-.217c-.266-.207-.311-.4-.281-.414Z" transform="translate(-329.953 -146.864)" fill="#ff9a6c"/>
              </g>
              <path id="Trazado_717406" data-name="Trazado 717406" d="M285.67,127.13a4.974,4.974,0,0,0,2.721-4.575c1.144.34,2.307-1.134,2.973-2.12s1.484-1.489,1.435-2.682a1.381,1.381,0,0,1,.084-.7,1.439,1.439,0,0,1,.932-.542,5.715,5.715,0,0,0,3.767-3.974,12.092,12.092,0,0,0,5.852.966,4.629,4.629,0,0,0,7.829-.34,4.134,4.134,0,0,0,2.776,2.046,12.329,12.329,0,0,0,3.54.192,4.9,4.9,0,0,0,3.224,5.546c.306.094.656.187.794.473a1.245,1.245,0,0,1-.133.952,3.849,3.849,0,0,0,2.583,4.905,2.875,2.875,0,0,0,.256,4.5c.311.187.715.414.665.774a.835.835,0,0,1-.187.365,5.549,5.549,0,0,0-1.346,2.82,2.06,2.06,0,0,0,1.691,2.283,2.717,2.717,0,0,0-1.085,1.868c-.015.744.74,1.5,1.43,1.232a48.106,48.106,0,0,0,4.733-1.2c2.416-3.278-.621-6.9-.858-10.969a26.459,26.459,0,0,0-3.688-11.536,19.426,19.426,0,0,0-3.032-4.117,25.669,25.669,0,0,0-4.693-3.456,23.715,23.715,0,0,0-6.848-3.269c-4.61-1.09-9.4.587-13.691,2.569a20.019,20.019,0,0,0-4.639,2.736,18.2,18.2,0,0,0-3.91,5.1,22.608,22.608,0,0,0-3.091,8.741" transform="translate(-283.831 -85.138)" fill="#263238"/>
              <path id="Trazado_717407" data-name="Trazado 717407" d="M282.27,118.424a3.156,3.156,0,0,1,.463-.917c.182-.286.439-.616.68-1.035a3.963,3.963,0,0,0,.478-1.592,12.272,12.272,0,0,0-.035-2.11,9.418,9.418,0,0,1,.069-2.534,7.185,7.185,0,0,1,1.124-2.687,7.1,7.1,0,0,1,1.05-1.208,10.189,10.189,0,0,1,1.351-1,5.2,5.2,0,0,0,1.3-1.119,6.93,6.93,0,0,0,.814-1.607,11.459,11.459,0,0,1,5.393-5.837,10.375,10.375,0,0,1,2.056-.769,9.18,9.18,0,0,1,2.243-.251,11.266,11.266,0,0,1,1.149.094c.38.059.759.143,1.134.207a5.48,5.48,0,0,0,2.283,0c.764-.148,1.514-.424,2.3-.621a14.621,14.621,0,0,1,2.421-.424,15.155,15.155,0,0,1,2.5-.02,12.938,12.938,0,0,1,2.5.463,8.419,8.419,0,0,1,4.294,2.845c.1.143.212.281.316.419l-.138-.054a9.912,9.912,0,0,1,11.462,7.351l-.069-.084a27.009,27.009,0,0,1,2.992,1.587,9.12,9.12,0,0,1,2.44,2.189,5.861,5.861,0,0,1,1.1,2.948,4.025,4.025,0,0,1-.818,2.884V115.4a7.1,7.1,0,0,1,1.952,4.388,7.067,7.067,0,0,1-1.464,5.083c-.207.256-.419.5-.592.759a1.842,1.842,0,0,0-.306.838,4.864,4.864,0,0,0,.025.887,13.865,13.865,0,0,1-.1,3.239,6.785,6.785,0,0,1-.843,2.465,4.19,4.19,0,0,1-1.331,1.385c-.439.291-.833.4-1.05.562a1.749,1.749,0,0,0-.311.256.989.989,0,0,1,.291-.286c.217-.168.606-.3,1.03-.587a4.215,4.215,0,0,0,1.287-1.375,6.717,6.717,0,0,0,.8-2.435,13.975,13.975,0,0,0,.069-3.209,5.058,5.058,0,0,1-.03-.912,1.958,1.958,0,0,1,.325-.907,9.016,9.016,0,0,1,.6-.779,6.82,6.82,0,0,0,.547-.823,7.064,7.064,0,0,0,.853-4.136,6.888,6.888,0,0,0-1.913-4.255l-.069-.069.059-.074a3.814,3.814,0,0,0,.764-2.731,5.674,5.674,0,0,0-1.07-2.83,8.742,8.742,0,0,0-2.381-2.125,26.4,26.4,0,0,0-2.968-1.563l-.054-.025-.015-.059a9.67,9.67,0,0,0-11.162-7.149l-.084.02-.054-.074c-.1-.133-.2-.271-.306-.4a8.2,8.2,0,0,0-4.166-2.756,13.082,13.082,0,0,0-2.45-.458,15.171,15.171,0,0,0-2.46.015,14.657,14.657,0,0,0-2.381.414c-.774.192-1.533.463-2.317.621a6.088,6.088,0,0,1-1.193.123,6.254,6.254,0,0,1-1.178-.133c-.385-.069-.759-.153-1.129-.212A10.7,10.7,0,0,0,299.244,96a8.96,8.96,0,0,0-2.184.237,9.909,9.909,0,0,0-2.012.744,11.248,11.248,0,0,0-5.3,5.709,6.924,6.924,0,0,1-.843,1.647,5.424,5.424,0,0,1-1.351,1.154,10.266,10.266,0,0,0-1.336.981,6.8,6.8,0,0,0-1.035,1.173,6.949,6.949,0,0,0-1.119,2.623,9.39,9.39,0,0,0-.089,2.5,12.33,12.33,0,0,1,.01,2.13,4.085,4.085,0,0,1-.513,1.622c-.251.424-.518.749-.7,1.03a5.679,5.679,0,0,0-.394.651,2.16,2.16,0,0,1-.113.237Z" transform="translate(-282.102 -79.42)" fill="#455a64"/>
              <path id="Trazado_717408" data-name="Trazado 717408" d="M333.5,97.777s-.227-.128-.641-.335A5.707,5.707,0,0,0,331,96.894a5.358,5.358,0,0,0-2.805.4,5.571,5.571,0,0,0-2.559,2.307,4.782,4.782,0,0,0-.429.966,1.058,1.058,0,0,0,.059.9l.207.291-.345-.1a3.51,3.51,0,0,0-2.642.311,3.378,3.378,0,0,0-1.45,1.578,3.751,3.751,0,0,0-.335,1.405c-.015.34.015.528,0,.532s-.02-.044-.039-.133a2.653,2.653,0,0,1-.044-.4,3.561,3.561,0,0,1,1.77-3.17,3.7,3.7,0,0,1,2.815-.36l-.138.192a1.308,1.308,0,0,1-.1-1.114,4.977,4.977,0,0,1,.449-1.025,5.714,5.714,0,0,1,2.687-2.4,5.416,5.416,0,0,1,2.923-.365,5.281,5.281,0,0,1,1.883.641,4.069,4.069,0,0,1,.454.3c.1.074.148.118.143.128Z" transform="translate(-301.544 -80.282)" fill="#455a64"/>
              <path id="Trazado_717409" data-name="Trazado 717409" d="M363.068,118.863a2.02,2.02,0,0,1-.3.306,5.7,5.7,0,0,1-.966.67,4.074,4.074,0,0,1-1.706.508,3.061,3.061,0,0,1-2.12-.646l.187-.03c-.084.113-.168.232-.251.35s-.192.222-.291.335a5.153,5.153,0,0,1-2.135,1.321,5.32,5.32,0,0,1-2.036.251,4.637,4.637,0,0,1-1.346-.311,1.838,1.838,0,0,1-.444-.237,7.4,7.4,0,0,0,1.8.365,5.37,5.37,0,0,0,1.947-.3,5.056,5.056,0,0,0,2.026-1.277c.094-.108.192-.207.276-.316s.163-.222.237-.33l.084-.118.1.089a2.892,2.892,0,0,0,1.942.616,4.028,4.028,0,0,0,1.637-.434c.873-.439,1.316-.858,1.346-.823Z" transform="translate(-317.287 -91.537)" fill="#455a64"/>
              <path id="Trazado_717410" data-name="Trazado 717410" d="M370.342,134.144a.946.946,0,0,1-.02.158,1.453,1.453,0,0,1-.192.414,2.289,2.289,0,0,1-1.376.912,4.328,4.328,0,0,1-2.44-.271c-.434-.158-.887-.316-1.346-.532a2.332,2.332,0,0,1-1.178-1.08c-.02-.049-.034-.094-.054-.138l.2.064a9.74,9.74,0,0,1-2.534,1.513,4.381,4.381,0,0,1-2.4.242,3.185,3.185,0,0,1-1.474-.675,2.232,2.232,0,0,1-.311-.316c-.059-.079-.089-.123-.084-.128s.153.148.454.37a3.3,3.3,0,0,0,1.445.577,4.307,4.307,0,0,0,2.283-.286,9.957,9.957,0,0,0,2.46-1.5l.138-.108.064.168c.015.035.03.074.044.113a2.149,2.149,0,0,0,1.055.956c.434.212.887.38,1.311.537a4.256,4.256,0,0,0,2.317.316,2.238,2.238,0,0,0,1.336-.794,4.567,4.567,0,0,0,.3-.513Z" transform="translate(-320.065 -98.891)" fill="#455a64"/>
              <path id="Trazado_717411" data-name="Trazado 717411" d="M392.619,73.128a2.156,2.156,0,0,0-.4.069,1.94,1.94,0,0,0-.952.611,2.645,2.645,0,0,0-.646,1.632,7.732,7.732,0,0,0,.315,2.327l.035.138h-.143a4.83,4.83,0,0,0-2.953.892,3.776,3.776,0,0,0-1.622,2.988,3.514,3.514,0,0,0,1.237,2.85l.286.227h-.365a4.4,4.4,0,0,0-3.239,1.415,4.182,4.182,0,0,0-1.094,2.618,4.647,4.647,0,0,0,.281,1.888c.163.419.3.631.276.641a.639.639,0,0,1-.108-.148,3.086,3.086,0,0,1-.247-.463,4.409,4.409,0,0,1-.36-1.928,4.325,4.325,0,0,1,1.094-2.756,4.6,4.6,0,0,1,3.4-1.523l-.079.222a3.731,3.731,0,0,1-1.341-3.052,3.866,3.866,0,0,1,.508-1.839,4.282,4.282,0,0,1,1.228-1.341,5.055,5.055,0,0,1,3.106-.912l-.108.133a7.774,7.774,0,0,1-.281-2.391,2.761,2.761,0,0,1,.73-1.7,1.912,1.912,0,0,1,1.03-.592,1.334,1.334,0,0,1,.316-.025.224.224,0,0,1,.108.015Z" transform="translate(-333.134 -68.343)" fill="#455a64"/>
              <path id="Trazado_717412" data-name="Trazado 717412" d="M409.961,108.854a1.027,1.027,0,0,1-.138.084c-.1.044-.237.123-.429.2a5.85,5.85,0,0,1-1.721.385,6.82,6.82,0,0,1-2.682-.325,6.465,6.465,0,0,1-2.874-1.888l.192-.015a5.435,5.435,0,0,1-3.85,2.628,4.122,4.122,0,0,1-4.25-2.268l.222-.01a3.433,3.433,0,0,1-1.03,1.449,4.535,4.535,0,0,1-1.4.789,6.22,6.22,0,0,1-2.6.266,11.72,11.72,0,0,1-1.676-.276,3.026,3.026,0,0,1-.587-.163,3.843,3.843,0,0,1,.6.084,15.4,15.4,0,0,0,1.671.207,6.34,6.34,0,0,0,2.524-.311,3.687,3.687,0,0,0,2.273-2.13l.1-.286.118.276a3.9,3.9,0,0,0,4,2.11,5.231,5.231,0,0,0,3.673-2.495l.084-.143.109.123A6.359,6.359,0,0,0,405.051,109a6.722,6.722,0,0,0,2.608.37,7.818,7.818,0,0,0,2.3-.518Z" transform="translate(-335.276 -85.537)" fill="#455a64"/>
              <path id="Trazado_717413" data-name="Trazado 717413" d="M402.022,128.211a.347.347,0,0,1-.1.153.866.866,0,0,1-.483.217,3.982,3.982,0,0,1-1.888-.316,4.664,4.664,0,0,1-2.169-1.819,4.738,4.738,0,0,1-.621-3.4v-.025l.187.143a5.55,5.55,0,0,1-3.421.463,6.159,6.159,0,0,1-2.593-1.124,6.9,6.9,0,0,1-1.366-1.326,2.37,2.37,0,0,1-.38-.582,10.3,10.3,0,0,0,1.849,1.76,6.221,6.221,0,0,0,2.524,1.04,5.381,5.381,0,0,0,3.269-.463l.227-.113-.044.256v.025a4.483,4.483,0,0,0,2.6,5,4.053,4.053,0,0,0,1.8.385.887.887,0,0,0,.6-.271Z" transform="translate(-336.314 -92.42)" fill="#455a64"/>
              <path id="Trazado_717414" data-name="Trazado 717414" d="M364.148,73.71a7.276,7.276,0,0,0-.39,2.623,5.97,5.97,0,0,0,.823,2.716,5.893,5.893,0,0,0,2.593,2.278,5.784,5.784,0,0,0,1.952.508l.158.015-.049.148a7.494,7.494,0,0,0-.316,2.756,7.678,7.678,0,0,0,.483,2.169,5.355,5.355,0,0,0,.35.764.663.663,0,0,0,.449.35.439.439,0,0,0,.345-.1c.059-.059.074-.108.084-.108a.2.2,0,0,1-.049.138.457.457,0,0,1-.385.163.741.741,0,0,1-.552-.365,4.9,4.9,0,0,1-.394-.774,7.383,7.383,0,0,1-.547-2.209,7.463,7.463,0,0,1,.3-2.85l.108.163a5.9,5.9,0,0,1-5.532-5.748,5.72,5.72,0,0,1,.276-1.967,4.333,4.333,0,0,1,.2-.5C364.109,73.759,364.138,73.7,364.148,73.71Z" transform="translate(-323.327 -68.648)" fill="#455a64"/>
            </g>
            <path id="Trazado_717415" data-name="Trazado 717415" d="M325.9,166.188v-1.361l-13.681-4.4h0c-4.871-2.085-11.832-.878-15.914,1.642l-3.545.094.035-.049c-4.052-3.2-10.9-3.85-16.2-1.533l.128.567h0c.01.039.035.123.059.242l.118.508c.715,3.14,1.558,6.473,2.4,7.366.567.6,2.485.932,4.033,1.1.592.064,1.134.108,1.523.133.473.03,4.624.291,5.339-.345.774-.69,2.09-5.768,2.475-7.311l3.638-.079c.429,1.218,1.173,6.68,2.919,7.78,1.819,1.144,9.4.769,10.264-.513a58.143,58.143,0,0,0,3.229-7.957l.074-.148,13.1,4.269Zm-36.112,3.436c-.774.611-9.052.182-10.033-.858-.828-.878-1.849-5.359-2.233-7.05,0-.025-.01-.044-.015-.069,4.733-1.8,10.9-1.228,14.425,1.484-.685,2.667-1.7,6.089-2.145,6.488Zm19.188,0c-.542.8-7.612,1.449-9.416.315-1.247-.784-1.913-4.595-2.475-6.789,3.988-2.386,10.8-3.392,15.135-1.242A46.866,46.866,0,0,1,308.97,169.625Z" transform="translate(-276.59 -111.989)" fill="#263238"/>
            <g id="Grupo_1006787" data-name="Grupo 1006787" transform="translate(21.214 49.382)" opacity="0.3">
              <path id="Trazado_717416" data-name="Trazado 717416" d="M319.62,165.848s.744,5.349,2.283,5.6,3.372-7.834,3.372-7.834S320.6,164.537,319.62,165.848Z" transform="translate(-319.62 -163.61)" fill="#fff"/>
            </g>
            <g id="Grupo_1006788" data-name="Grupo 1006788" transform="translate(1.518 48.987)" opacity="0.3">
              <path id="Trazado_717417" data-name="Trazado 717417" d="M279.67,163.726s.744,6.069,2.283,6.32,4.629-7.153,4.629-7.153-5.936-.478-6.912.838Z" transform="translate(-279.67 -162.808)" fill="#fff"/>
            </g>
          </g>
          <g id="Grupo_1006790" data-name="Grupo 1006790" transform="translate(58.882 93.766)">
            <path id="Trazado_717418" data-name="Trazado 717418" d="M360.486,308.732c-1.627-1.711-6.8-6.02-8.332-6.626s-6.286,10.57-6.591,13.5,1.351,6.769,3.412,9.342c2.943,3.668,10.052,8.169,12.739,9.421,2.716,1.267,10.348,5.635,14.992-4.22s4.043-9.776,5.344-13.834c2.021-6.291,3.693-18.695,4.7-26.243a123.14,123.14,0,0,0,.843-20.8c-.325-6.108-2.041-11.605-6.143-15.387-3.451-3.18-14.968,24.685-14.968,24.931s-5.3,29.856-5.3,29.856" transform="translate(-315.819 -253.637)" fill="#455a64"/>
            <path id="Trazado_717419" data-name="Trazado 717419" d="M291.851,289.653s-1.1-1.893,2.889-2.485a16.214,16.214,0,0,1,7.77.458c.961.414,5.906,5.117,6.31,6.03a97.319,97.319,0,0,1,2.9,9.934l2.465,3.49L308.4,317.473a17.985,17.985,0,0,0-1.73-1.745c-.868-.725-3.476-1.6-4-3.781a26.183,26.183,0,0,0-2.125-5.088s-9.722-2.11-10.59-2.544-.8-1.745-.8-1.745a25.289,25.289,0,0,1-3.027-.527,1.571,1.571,0,0,1,.3-2.9c2.066-.947,8.923-1.444,9.855-1.444s5.393.582,5.393.582-5.857-1.326-7.651-1.469-5.852-.054-6.5-.207a1.549,1.549,0,0,1,.173-2.79,17.931,17.931,0,0,1,5.457-1.129,72.315,72.315,0,0,1,8.83.863l-2.248-2.5a39.366,39.366,0,0,0-5.536-.606,4.126,4.126,0,0,1-2.342-.789Z" transform="translate(-285.268 -270.518)" fill="#ffbf9d"/>
            <path id="Trazado_717420" data-name="Trazado 717420" d="M326.77,331.67l16.294,24.389s6.882-8.425,7.4-14.558l.3-3.012L332.538,320.73l-5.768,10.945Z" transform="translate(-306.309 -287.653)" fill="#ffbf9d"/>
            <path id="Trazado_717421" data-name="Trazado 717421" d="M304.878,318.021c0,.039-.68-.069-1.77-.2s-2.6-.261-4.269-.291-3.185.064-4.274.158-1.765.182-1.775.143a1.646,1.646,0,0,1,.463-.118c.3-.064.744-.133,1.287-.2a30.636,30.636,0,0,1,4.3-.237,30.242,30.242,0,0,1,4.289.365c.542.089.981.173,1.282.242a1.7,1.7,0,0,1,.463.133Z" transform="translate(-289.082 -285.901)" fill="#ff9a6c"/>
            <path id="Trazado_717422" data-name="Trazado 717422" d="M380.736,352.968s-.222-.123-.6-.389c-.414-.3-.942-.68-1.578-1.134-1.326-.966-3.15-2.317-5.152-3.826a17.069,17.069,0,0,0-2.938-1.9,8.161,8.161,0,0,0-1.43-.508,6.688,6.688,0,0,0-1.3-.217,2.987,2.987,0,0,0-1.819.424c-.38.242-.547.439-.567.424s.03-.054.113-.148a2.035,2.035,0,0,1,.4-.355,3.012,3.012,0,0,1,1.883-.523,6.85,6.85,0,0,1,1.346.192,7.919,7.919,0,0,1,1.479.5,16.444,16.444,0,0,1,3,1.908c2,1.5,3.806,2.879,5.107,3.885.616.483,1.129.887,1.528,1.2a3.631,3.631,0,0,1,.542.468Z" transform="translate(-325.869 -299.865)" fill="#263238"/>
            <path id="Trazado_717423" data-name="Trazado 717423" d="M398.375,354.979c-.035.035-.606-.631-1.666-1.543a18.835,18.835,0,0,0-1.957-1.479,19.119,19.119,0,0,0-5.453-2.48,19.32,19.32,0,0,0-2.4-.5c-1.385-.2-2.258-.192-2.258-.242a2.593,2.593,0,0,1,.611-.035c.2,0,.439,0,.72.015s.6.025.952.079a17.331,17.331,0,0,1,2.44.454,19.6,19.6,0,0,1,2.869,1.021,19.922,19.922,0,0,1,2.652,1.489,17.45,17.45,0,0,1,1.947,1.543c.266.232.483.468.68.666a5.945,5.945,0,0,1,.483.532,2.654,2.654,0,0,1,.375.483Z" transform="translate(-335.649 -301.832)" fill="#263238"/>
            <path id="Trazado_717424" data-name="Trazado 717424" d="M398.2,254.474s-.192.222-.567.582c-.192.177-.419.4-.67.675s-.557.567-.853.927-.641.74-.971,1.178-.675.912-1.03,1.415a27.164,27.164,0,0,0-1.962,3.49,27.627,27.627,0,0,0-1.39,3.757c-.153.6-.316,1.159-.414,1.7-.123.532-.2,1.04-.271,1.5s-.113.883-.153,1.247-.064.685-.079.947a4.7,4.7,0,0,1-.079.809,4.791,4.791,0,0,1-.025-.813c0-.261,0-.582.035-.956s.044-.8.118-1.262.128-.976.242-1.518c.089-.547.246-1.119.394-1.721a25.6,25.6,0,0,1,1.385-3.8,26.356,26.356,0,0,1,2-3.515c.365-.5.7-.991,1.055-1.415s.685-.818,1-1.168.621-.646.887-.907a9.216,9.216,0,0,1,.705-.646,4.916,4.916,0,0,1,.636-.508Z" transform="translate(-338.235 -254.059)" fill="#263238"/>
          </g>
          <path id="Trazado_717425" data-name="Trazado 717425" d="M360.486,308.732c-1.627-1.711-6.8-6.02-8.332-6.626s-6.286,10.57-6.591,13.5,1.351,6.769,3.412,9.342c2.943,3.668,10.052,8.169,12.739,9.421,2.716,1.267,10.348,5.635,14.992-4.22s4.043-9.776,5.344-13.834c2.021-6.291,3.693-18.695,4.7-26.243a123.14,123.14,0,0,0,.843-20.8c-.325-6.108-2.041-11.605-6.143-15.387-3.451-3.18-14.968,24.685-14.968,24.931s-5.3,29.856-5.3,29.856" transform="translate(-256.937 -159.871)" fill="#003f60"/>
          <path id="Trazado_717426" data-name="Trazado 717426" d="M291.851,289.653s-1.1-1.893,2.889-2.485a16.214,16.214,0,0,1,7.77.458c.961.414,5.906,5.117,6.31,6.03a97.319,97.319,0,0,1,2.9,9.934l2.465,3.49L308.4,317.473a17.985,17.985,0,0,0-1.73-1.745c-.868-.725-3.476-1.6-4-3.781a26.183,26.183,0,0,0-2.125-5.088s-9.722-2.11-10.59-2.544-.8-1.745-.8-1.745a25.289,25.289,0,0,1-3.027-.527,1.571,1.571,0,0,1,.3-2.9c2.066-.947,8.923-1.444,9.855-1.444s5.393.582,5.393.582-5.857-1.326-7.651-1.469-5.852-.054-6.5-.207a1.549,1.549,0,0,1,.173-2.79,17.931,17.931,0,0,1,5.457-1.129,72.315,72.315,0,0,1,8.83.863l-2.248-2.5a39.366,39.366,0,0,0-5.536-.606,4.126,4.126,0,0,1-2.342-.789Z" transform="translate(-226.387 -176.752)" fill="#ffbf9d"/>
          <path id="Trazado_717427" data-name="Trazado 717427" d="M326.77,331.67l16.294,24.389s6.882-8.425,7.4-14.558l.3-3.012L332.538,320.73l-5.768,10.945Z" transform="translate(-247.428 -193.887)" fill="#ffbf9d"/>
          <path id="Trazado_717428" data-name="Trazado 717428" d="M304.878,318.021c0,.039-.68-.069-1.77-.2s-2.6-.261-4.269-.291-3.185.064-4.274.158-1.765.182-1.775.143a1.646,1.646,0,0,1,.463-.118c.3-.064.744-.133,1.287-.2a30.636,30.636,0,0,1,4.3-.237,30.242,30.242,0,0,1,4.289.365c.542.089.981.173,1.282.242a1.7,1.7,0,0,1,.463.133Z" transform="translate(-230.2 -192.134)" fill="#ff9a6c"/>
          <path id="Trazado_717429" data-name="Trazado 717429" d="M380.736,352.968s-.222-.123-.6-.389c-.414-.3-.942-.68-1.578-1.134-1.326-.966-3.15-2.317-5.152-3.826a17.069,17.069,0,0,0-2.938-1.9,8.161,8.161,0,0,0-1.43-.508,6.688,6.688,0,0,0-1.3-.217,2.987,2.987,0,0,0-1.819.424c-.38.242-.547.439-.567.424s.03-.054.113-.148a2.035,2.035,0,0,1,.4-.355,3.012,3.012,0,0,1,1.883-.523,6.85,6.85,0,0,1,1.346.192,7.919,7.919,0,0,1,1.479.5,16.444,16.444,0,0,1,3,1.908c2,1.5,3.806,2.879,5.107,3.885.616.483,1.129.887,1.528,1.2a3.631,3.631,0,0,1,.542.468Z" transform="translate(-266.987 -206.099)" fill="#263238"/>
          <path id="Trazado_717430" data-name="Trazado 717430" d="M384.866,304.7s0,.138-.025.4c-.03.281-.074.661-.123,1.134-.123,1.011-.3,2.426-.5,4.166-.454,3.535-1.075,8.381-1.76,13.73-.143,1.075-.281,2.135-.414,3.145l-.128-.143a24.371,24.371,0,0,1,11.339,2.608,12.943,12.943,0,0,1,2.815,2.011,7.254,7.254,0,0,1,.646.675,1.586,1.586,0,0,1,.207.251c-.02.02-.311-.316-.912-.858a13.772,13.772,0,0,0-2.835-1.933,24.708,24.708,0,0,0-11.26-2.5h-.143l.02-.143c.133-1.011.271-2.066.409-3.145.715-5.344,1.361-10.185,1.834-13.72.247-1.735.444-3.145.587-4.156.074-.473.128-.848.173-1.129a2.214,2.214,0,0,1,.079-.39Z" transform="translate(-275.313 -185.76)" fill="#263238"/>
          <path id="Trazado_717431" data-name="Trazado 717431" d="M398.2,254.474s-.192.222-.567.582c-.192.177-.419.4-.67.675s-.557.567-.853.927-.641.74-.971,1.178-.675.912-1.03,1.415a27.164,27.164,0,0,0-1.962,3.49,27.627,27.627,0,0,0-1.39,3.757c-.153.6-.316,1.159-.414,1.7-.123.532-.2,1.04-.271,1.5s-.113.883-.153,1.247-.064.685-.079.947a4.7,4.7,0,0,1-.079.809,4.791,4.791,0,0,1-.025-.813c0-.261,0-.582.035-.956s.044-.8.118-1.262.128-.976.242-1.518c.089-.547.246-1.119.394-1.721a25.6,25.6,0,0,1,1.385-3.8,26.356,26.356,0,0,1,2-3.515c.365-.5.7-.991,1.055-1.415s.685-.818,1-1.168.621-.646.887-.907a9.216,9.216,0,0,1,.705-.646,4.916,4.916,0,0,1,.636-.508Z" transform="translate(-279.354 -160.293)" fill="#263238"/>
          <g id="Grupo_1006791" data-name="Grupo 1006791" transform="translate(29.735 116.909)">
            <path id="Trazado_717432" data-name="Trazado 717432" d="M229.614,315.1s-4.176-10.323-3.362-13.789a.946.946,0,0,1,.927-.73h0a.948.948,0,0,1,.843.513l5.438,10.461a5.008,5.008,0,0,1,2.283-2.583,51.494,51.494,0,0,1,5.053-1.587l4.9.611a1.033,1.033,0,0,1,.621,1.735,4.445,4.445,0,0,1-2.953,1.2c-3.555.3-4.481,1.114-4.481,1.114l-1.775,3.057s3.747-2.564,4.925-2.662c.922-.079,6.025-.182,8.233-.227a1.926,1.926,0,0,1,1.878,1.287c.232.7.069,1.5-1.509,1.9,0,0,1.73.9-.621,2.071a32.616,32.616,0,0,1-4.437,1.775l-3.352,2.268-5.615,3.944-6.6-4.536s-2.347-2.495-.887-4.575a5.418,5.418,0,0,0,.493-1.237Z" transform="translate(-226.147 -300.58)" fill="#ffbf9d"/>
            <path id="Trazado_717433" data-name="Trazado 717433" d="M255.454,336.768s3.145,2.682,3.831,4.358,1.287,3.377.2,7.42-10.116,0-10.116,0c-.251-1.652-2.273-3.648-4.531-5.684l8.44-6.241Z" transform="translate(-235.624 -318.852)" fill="#ffbf9d"/>
            <path id="Trazado_717434" data-name="Trazado 717434" d="M239.076,319.848a4.874,4.874,0,0,1-.513.823c-.33.5-.764,1.2-1.237,1.977a20.73,20.73,0,0,1-1.809,2.776,4.083,4.083,0,0,1,.419-.878c.286-.528.69-1.247,1.168-2.031a11.48,11.48,0,0,1,1.967-2.667Z" transform="translate(-230.895 -310.348)" fill="#ff9a6c"/>
            <path id="Trazado_717435" data-name="Trazado 717435" d="M263.917,330.4a4.042,4.042,0,0,1-.5.079c-.325.035-.794.069-1.371.113-1.159.089-2.766.177-4.526.281-1.809,0-3.032,1.2-3.929,1.893a13.523,13.523,0,0,1-1.459,1.183,2.256,2.256,0,0,1,.34-.375c.232-.227.567-.557,1-.947a12.784,12.784,0,0,1,1.617-1.267,4.239,4.239,0,0,1,1.114-.532,6.6,6.6,0,0,1,1.3-.212c1.775-.109,3.372-.168,4.536-.207.582-.02,1.05-.03,1.375-.03a1.887,1.887,0,0,1,.508.025Z" transform="translate(-239.32 -315.689)" fill="#ff9a6c"/>
            <path id="Trazado_717436" data-name="Trazado 717436" d="M247.549,330.062c.044.059-.251.35-.542.749s-.488.769-.557.744.025-.458.35-.892S247.51,330.007,247.549,330.062Z" transform="translate(-236.431 -315.523)" fill="#ff9a6c"/>
            <path id="Trazado_717437" data-name="Trazado 717437" d="M267.77,335.268a3.192,3.192,0,0,1-.848.414c-.542.217-1.3.478-2.13.779-1.666.582-2.958,1.2-2.993,1.134a11.128,11.128,0,0,1,2.9-1.376c.838-.3,1.6-.532,2.154-.7a3.777,3.777,0,0,1,.912-.242Z" transform="translate(-244.222 -318.166)" fill="#ff9a6c"/>
          </g>
        </g>
      </g>
    </g>
  </g>
</svg>
