<svg xmlns="http://www.w3.org/2000/svg" xmlns:xlink="http://www.w3.org/1999/xlink" width="113" height="113" viewBox="0 0 113 113">
  <defs>
    <clipPath id="clip-path">
      <rect id="Rectángulo_344555" data-name="Rectángulo 344555" width="68.156" height="78.885" fill="none"/>
    </clipPath>
  </defs>
  <g id="Grupo_1013499" data-name="Grupo 1013499" transform="translate(-180 -7868)">
    <circle id="Elipse_5327" data-name="Elipse 5327" cx="56.5" cy="56.5" r="56.5" transform="translate(180 7868)" fill="#0098e8"/>
    <g id="Grupo_944417" data-name="Grupo 944417" transform="translate(202 7885)">
      <g id="Grupo_944416" data-name="Grupo 944416" clip-path="url(#clip-path)">
        <path id="Trazado_697185" data-name="Trazado 697185" d="M11.6,19.187H56.559a11.631,11.631,0,0,1,11.6,11.6V75.746a11.631,11.631,0,0,1-11.6,11.6H11.6A11.63,11.63,0,0,1,0,75.746V30.784a11.63,11.63,0,0,1,11.6-11.6" transform="translate(0 -11.604)" fill="#e1a21f" fill-rule="evenodd"/>
        <path id="Trazado_697186" data-name="Trazado 697186" d="M26.12,65.986c.829,4.353,1.953,6.411,2.069,8.809.123,2.523-3.619,5.011-5.428,5.811,2.208,6.63,6.858,5.894,9.893,6.189s1.553,4.808,9.58,4.47l3.827-27.458Zm24.444.623,2.894,24.656c8.027.339,6.545-4.174,9.58-4.47s7.685.441,9.893-6.189c-1.809-.8-5.552-3.288-5.429-5.811.117-2.4,1.1-4.274,1.966-8.16l-4.734-1.926Z" transform="translate(-13.765 -38.588)" fill="#2e1e11" fill-rule="evenodd"/>
        <path id="Trazado_697187" data-name="Trazado 697187" d="M40.354,76.673c-.068-.75-3.136-1.636-4.159.818s.818,5.932,4.3,6.2,2.454-.341,2.454-.341Z" transform="translate(-21.72 -45.89)" fill="#e4ae7c" fill-rule="evenodd"/>
        <path id="Trazado_697188" data-name="Trazado 697188" d="M121.305,76.673c.068-.75,3.136-1.636,4.159.818s-.818,5.932-4.3,6.2-2.454-.341-2.454-.341Z" transform="translate(-71.71 -45.89)" fill="#e4ae7c" fill-rule="evenodd"/>
        <path id="Trazado_697189" data-name="Trazado 697189" d="M43.283,145.334H15.228c-.324-14.346,10.713-22.674,20.191-25.782a48.8,48.8,0,0,0,.572-9.195H50.575a48.764,48.764,0,0,0,.572,9.195c9.478,3.107,20.515,11.436,20.191,25.782Z" transform="translate(-9.205 -66.741)" fill="#e4ae7c" fill-rule="evenodd"/>
        <path id="Trazado_697190" data-name="Trazado 697190" d="M82.358,110.358s-.039,1.029-.015,2.524c-2.77,6.959-11.37,7.742-14.56.289.035-1.65-.009-2.813-.009-2.813Z" transform="translate(-40.988 -66.741)" fill="#d67f54" fill-rule="evenodd"/>
        <path id="Trazado_697191" data-name="Trazado 697191" d="M70.831,159.547c.332-14.168-10.8-22.465-20.512-25.662-1.945,4.316-15,4.3-16.92-.026-9.735,3.179-20.923,11.482-20.591,25.688Z" transform="translate(-7.742 -80.954)" fill="#af2a3a" fill-rule="evenodd"/>
        <path id="Trazado_697192" data-name="Trazado 697192" d="M71.024,175.272a22.851,22.851,0,0,0-2.707-7.536H16.388a22.85,22.85,0,0,0-2.706,7.536Z" transform="translate(-8.274 -101.442)" fill="#39271f" fill-rule="evenodd"/>
        <path id="Trazado_697193" data-name="Trazado 697193" d="M75.942,139.712a35.383,35.383,0,0,0-10.894-5.828c-1.945,4.316-15,4.3-16.92-.025a35.383,35.383,0,0,0-10.973,5.853Z" transform="translate(-22.47 -80.954)" fill="#39271f" fill-rule="evenodd"/>
        <path id="Trazado_697194" data-name="Trazado 697194" d="M59.961,53.829c-18.091.435-27.224-44.177,0-43.034,27.225-1.143,18.091,43.469,0,43.034" transform="translate(-25.884 -6.515)" fill="#e4ae7c" fill-rule="evenodd"/>
        <path id="Trazado_697195" data-name="Trazado 697195" d="M66.907,64.763a1.62,1.62,0,1,1-2.266.363,1.616,1.616,0,0,1,2.266-.363" transform="translate(-38.907 -38.981)" fill="#20201e" fill-rule="evenodd"/>
        <path id="Trazado_697196" data-name="Trazado 697196" d="M100.828,64.763a1.62,1.62,0,1,0,2.265.363,1.616,1.616,0,0,0-2.265-.363" transform="translate(-60.572 -38.981)" fill="#20201e" fill-rule="evenodd"/>
        <path id="Trazado_697197" data-name="Trazado 697197" d="M59.846,79.175c.923.709.964,1.747.09,2.319a3.025,3.025,0,0,1-3.254-.249c-.924-.709-.964-1.747-.09-2.319a3.025,3.025,0,0,1,3.254.248" transform="translate(-33.845 -47.512)" fill="#da9077" fill-rule="evenodd"/>
        <path id="Trazado_697198" data-name="Trazado 697198" d="M105.812,79.175c-.923.709-.964,1.747-.09,2.319a3.025,3.025,0,0,0,3.254-.249c.924-.709.964-1.747.09-2.319a3.025,3.025,0,0,0-3.254.248" transform="translate(-63.557 -47.512)" fill="#da9077" fill-rule="evenodd"/>
        <path id="Trazado_697199" data-name="Trazado 697199" d="M64.446,53.547c-.06-.026-.121-.051-.183-.074a4.675,4.675,0,0,0-2.07-.269,4.589,4.589,0,0,0-1.933.606c-.293.189-1.435,1.113-1.111,1.454a17.016,17.016,0,0,0,1.6-.653,4.547,4.547,0,0,1,1.492-.2,4.01,4.01,0,0,1,1.368.279c.013,0,.1.04.115.048.955.464.868.762,1.518.316,1-.534-.029-1.1-.8-1.505" transform="translate(-35.737 -32.166)" fill="#3f2716" fill-rule="evenodd"/>
        <path id="Trazado_697200" data-name="Trazado 697200" d="M97.949,53.547c.059-.026.12-.051.182-.074a4.675,4.675,0,0,1,2.07-.269,4.591,4.591,0,0,1,1.933.606c.292.189,1.435,1.113,1.111,1.454a17.1,17.1,0,0,1-1.6-.653,4.544,4.544,0,0,0-1.492-.2,4.012,4.012,0,0,0-1.368.279c-.013,0-.1.04-.115.048-.954.464-.868.762-1.518.316-1-.534.029-1.1.8-1.505" transform="translate(-58.501 -32.166)" fill="#3f2716" fill-rule="evenodd"/>
        <path id="Trazado_697201" data-name="Trazado 697201" d="M74.35,89.644q2.5-.031,4.989-.031t4.99.031c0,2.616-2.58,3.55-4.981,3.55h-.018c-2.4,0-4.981-.934-4.981-3.55" transform="translate(-44.965 -54.195)" fill="#fff" fill-rule="evenodd"/>
        <path id="Trazado_697202" data-name="Trazado 697202" d="M83.924,102.061a.2.2,0,0,1,.2-.338,1.922,1.922,0,0,0,.957.238,1.835,1.835,0,0,0,.939-.236.2.2,0,0,1,.2.334,2.233,2.233,0,0,1-1.141.294,2.322,2.322,0,0,1-1.155-.292" transform="translate(-50.697 -61.504)" fill="#d67f54" fill-rule="evenodd"/>
        <path id="Trazado_697203" data-name="Trazado 697203" d="M85.549,72.807a.2.2,0,1,1,0-.392,9.567,9.567,0,0,0,1.467-.077c.357-.061.62-.157.62-.321,0-.564-.572-4.072-.573-4.082a.2.2,0,1,1,.386-.061c0,.01.58,3.555.58,4.143,0,.413-.4.614-.948.706a9.8,9.8,0,0,1-1.532.084" transform="translate(-51.619 -40.948)" fill="#d67f54" fill-rule="evenodd"/>
        <path id="Trazado_697204" data-name="Trazado 697204" d="M127.548,82.184a.2.2,0,1,1-.392,0,1.9,1.9,0,0,0-.269-1.174.467.467,0,0,0-.365-.182,1.071,1.071,0,0,0-.534.164,3.526,3.526,0,0,0-1.342,1.583,7.367,7.367,0,0,0-.334.91,1.391,1.391,0,0,1,.914-.265.867.867,0,0,1,.423.153.689.689,0,0,1,.264.37,1.287,1.287,0,0,1-.27,1.062.2.2,0,0,1-.325-.218.933.933,0,0,0,.22-.732.31.31,0,0,0-.117-.164.476.476,0,0,0-.232-.081,1.078,1.078,0,0,0-.836.352.421.421,0,0,1-.2.125.214.214,0,0,1-.283-.189l0-.011a.7.7,0,0,1,.006-.229,6.136,6.136,0,0,1,.416-1.238,3.953,3.953,0,0,1,1.507-1.768,1.461,1.461,0,0,1,.736-.215.847.847,0,0,1,.661.326,2.253,2.253,0,0,1,.357,1.42" transform="translate(-74.906 -48.646)" fill="#d67f54" fill-rule="evenodd"/>
        <path id="Trazado_697205" data-name="Trazado 697205" d="M39.646,82.184a.2.2,0,1,1-.392,0,2.249,2.249,0,0,1,.358-1.42.846.846,0,0,1,.661-.326,1.457,1.457,0,0,1,.734.215,3.944,3.944,0,0,1,1.507,1.768,6.061,6.061,0,0,1,.416,1.238.657.657,0,0,1,.006.229l0,.011a.214.214,0,0,1-.283.189.42.42,0,0,1-.2-.125,1.078,1.078,0,0,0-.836-.352.481.481,0,0,0-.232.081.307.307,0,0,0-.116.164.929.929,0,0,0,.22.732.2.2,0,0,1-.325.218,1.284,1.284,0,0,1-.27-1.062.687.687,0,0,1,.264-.37.867.867,0,0,1,.422-.153,1.389,1.389,0,0,1,.914.265,7.241,7.241,0,0,0-.334-.91,3.527,3.527,0,0,0-1.342-1.583,1.071,1.071,0,0,0-.534-.164.467.467,0,0,0-.365.182,1.9,1.9,0,0,0-.269,1.174" transform="translate(-23.74 -48.646)" fill="#d67f54" fill-rule="evenodd"/>
        <path id="Trazado_697206" data-name="Trazado 697206" d="M34.35,177.864a.293.293,0,1,1,.586,0l-.072,8.118a.293.293,0,1,1-.586,0Z" transform="translate(-20.73 -107.391)" fill="#27170c" fill-rule="evenodd"/>
        <path id="Trazado_697207" data-name="Trazado 697207" d="M136.575,177.864a.293.293,0,1,1,.586,0l-.072,8.118a.293.293,0,1,1-.586,0Z" transform="translate(-82.553 -107.391)" fill="#27170c" fill-rule="evenodd"/>
        <path id="Trazado_697208" data-name="Trazado 697208" d="M42.628,60.667c.26,2.595,2.543,6.539,3.01,7.68s.052-3.685.052-9.86-3.062,2.18-3.062,2.18" transform="translate(-25.78 -33.996)" fill="#7e583e" fill-rule="evenodd"/>
        <path id="Trazado_697209" data-name="Trazado 697209" d="M125.072,60.667c-.26,2.595-2.543,6.539-3.01,7.68s-.052-3.685-.052-9.86,3.062,2.18,3.062,2.18" transform="translate(-73.685 -33.996)" fill="#7e583e" fill-rule="evenodd"/>
        <path id="Trazado_697210" data-name="Trazado 697210" d="M49.478,9.426c-2.172,0-4.235,4.076-4.419,7.481C44.4,28.988,32.795,24.833,31.508,32.34c-.471-1.4-1.652-6.124-1.778-6.716-.942-4.429,4.9-9.517,6-14.251C36.85,6.546,39.622,2.8,43.055,1.111c3-1.473,6.36-1.414,7.97.39.5.4.97.87.97.87s.409-.408.869-.787C54.44-.385,57.918-.49,61.039,1.11c3.364,1.724,6.125,5.533,7.222,10.263s6.943,9.821,6,14.251c-.126.592-1.307,5.315-1.778,6.716C71.2,24.833,60.8,28.571,59.523,16.538c-.442-4.176-2.35-6.217-4.2-6.565-.209-.039-1.736-.51-3.153,1.706-.355.556-.6-2.252-2.7-2.254" transform="translate(-17.918 0)" fill="#4c3124" fill-rule="evenodd"/>
        <path id="Trazado_697211" data-name="Trazado 697211" d="M35.072,38.494a.2.2,0,0,1-.323-.221c.147-.215.293-.438.436-.657,1.122-1.716,2.07-3.165,6.007-4.2,3.715-.973,4.4-5.7,5-9.816.082-.56.162-1.109.25-1.651a9.131,9.131,0,0,1,.66-2.249,6.88,6.88,0,0,1,2.348-2.923,3.858,3.858,0,0,1,2.714-.749,2.321,2.321,0,0,1,.57.168l1.868.83a.2.2,0,1,1-.158.357l-1.868-.83a1.93,1.93,0,0,0-.475-.139,3.47,3.47,0,0,0-2.431.685,6.488,6.488,0,0,0-2.211,2.758,8.791,8.791,0,0,0-.632,2.154c-.084.519-.165,1.075-.248,1.643-.617,4.238-1.326,9.1-5.293,10.139-3.789.992-4.7,2.383-5.777,4.032-.139.213-.281.43-.441.664" transform="translate(-20.995 -9.676)" fill="#4e2c0b" fill-rule="evenodd"/>
        <path id="Trazado_697212" data-name="Trazado 697212" d="M34.314,28.213a.2.2,0,1,1-.358-.158,5.065,5.065,0,0,1,1.693-2.175h0a7.374,7.374,0,0,1,2.48-1.056c3.715-.973,4.4-5.7,5-9.816.081-.56.161-1.109.249-1.651a8.014,8.014,0,0,1,.627-2.086,5.753,5.753,0,0,1,6.368-3.391,8.109,8.109,0,0,1,2.1.66.2.2,0,1,1-.164.355,7.718,7.718,0,0,0-2-.628,5.521,5.521,0,0,0-3.546.539,5.588,5.588,0,0,0-2.4,2.629,7.626,7.626,0,0,0-.6,1.985c-.084.519-.166,1.076-.248,1.643-.617,4.238-1.326,9.1-5.293,10.139a7.019,7.019,0,0,0-2.35,1h0a4.692,4.692,0,0,0-1.562,2.014" transform="translate(-20.525 -4.714)" fill="#4e2c0b" fill-rule="evenodd"/>
        <path id="Trazado_697213" data-name="Trazado 697213" d="M108.786,38.274a.2.2,0,0,1-.323.221c-.16-.234-.3-.451-.441-.664-1.078-1.648-1.988-3.039-5.777-4.032-3.967-1.039-4.676-5.9-5.293-10.139-.082-.567-.163-1.123-.248-1.643a8.731,8.731,0,0,0-.631-2.154,6.49,6.49,0,0,0-2.212-2.758,3.469,3.469,0,0,0-2.43-.685,1.928,1.928,0,0,0-.475.139l-1.868.83a.2.2,0,0,1-.158-.357L90.8,16.2a2.328,2.328,0,0,1,.57-.168,3.856,3.856,0,0,1,2.714.748,6.88,6.88,0,0,1,2.348,2.923,9.146,9.146,0,0,1,.66,2.249c.088.541.168,1.09.25,1.65.6,4.119,1.288,8.843,5,9.816,3.938,1.031,4.885,2.479,6.007,4.2.143.219.29.442.436.657" transform="translate(-53.711 -9.676)" fill="#4e2c0b" fill-rule="evenodd"/>
        <path id="Trazado_697214" data-name="Trazado 697214" d="M111.65,28.055a.2.2,0,1,1-.358.158,4.694,4.694,0,0,0-1.563-2.014l-.01-.007a7.043,7.043,0,0,0-2.34-.988c-3.967-1.039-4.676-5.9-5.293-10.139-.083-.567-.164-1.123-.248-1.643a7.626,7.626,0,0,0-.6-1.985,5.583,5.583,0,0,0-2.4-2.629,5.521,5.521,0,0,0-3.546-.539,7.715,7.715,0,0,0-2,.628.2.2,0,1,1-.164-.355,8.107,8.107,0,0,1,2.1-.66,5.915,5.915,0,0,1,3.795.58,5.98,5.98,0,0,1,2.575,2.81,8.028,8.028,0,0,1,.626,2.086c.088.541.168,1.091.249,1.651.6,4.119,1.289,8.843,5,9.816a7.387,7.387,0,0,1,2.469,1.048l.012.008a5.06,5.06,0,0,1,1.693,2.175" transform="translate(-56.251 -4.714)" fill="#4e2c0b" fill-rule="evenodd"/>
      </g>
    </g>
  </g>
</svg>
