<svg id="Grupo_944423" data-name="Grupo 944423" xmlns="http://www.w3.org/2000/svg" xmlns:xlink="http://www.w3.org/1999/xlink" width="344.255" height="646.02" viewBox="0 0 344.255 646.02">
  <defs>
    <clipPath id="clip-path">
      <rect id="Rect치ngulo_344564" data-name="Rect치ngulo 344564" width="344.255" height="646.019" fill="none"/>
    </clipPath>
    <clipPath id="clip-path-3">
      <rect id="Rect치ngulo_344562" data-name="Rect치ngulo 344562" width="36.176" height="9.343" fill="none"/>
    </clipPath>
  </defs>
  <g id="Grupo_944440" data-name="Grupo 944440" clip-path="url(#clip-path)">
    <g id="Grupo_944439" data-name="Grupo 944439">
      <g id="Grupo_944438" data-name="Grupo 944438" clip-path="url(#clip-path)">
        <path id="Trazado_697429" data-name="Trazado 697429" d="M111.6,344.138l17.438-87.695,11.449,87.695h96.475l-.369-29.232.053-108.828s-28.968-84.232-29.5-85.821c-.569-1.7-132.034,6.556-132.034,6.556s-12.489.65-12.236,16.38L34.9,229.88,16.043,344.138Z" transform="translate(40.35 301.881)" fill="#f59f18"/>
        <path id="Trazado_697430" data-name="Trazado 697430" d="M43.5,128.956c-.011,13.9.854,27.776,2.127,41.608.629,6.854,1.357,13.7,2.123,20.535.749,6.714,1.413,13.456,2.323,20.148.425,3.1,1.185,6.317,3.325,8.689a7.815,7.815,0,0,0,7.793,2.619,1.3,1.3,0,0,0,.921-1.234q.754-35.369-1.142-70.724-.538-9.939-1.283-19.867c-.123-1.631-2.636-1.645-2.513,0Q59.816,166,59.818,201.412q-.005,9.955-.218,19.91.459-.617.924-1.234c-2.418.675-4.833-.91-6.088-2.956-1.462-2.383-1.8-5.3-2.113-8.032q-1.113-9.628-2.2-19.256c-1.441-12.974-2.738-25.973-3.473-39.014-.411-7.283-.643-14.577-.636-21.874a1.257,1.257,0,0,0-2.513,0" transform="translate(109.409 321.23)" fill="#b7772f"/>
        <path id="Trazado_697431" data-name="Trazado 697431" d="M41.93,156.54q23.869,1.223,47.781.415c1.613-.053,1.62-2.612,0-2.555q-23.89.8-47.781-.418c-1.617-.081-1.613,2.478,0,2.559" transform="translate(102.411 387.274)" fill="#b7772f"/>
        <path id="Trazado_697432" data-name="Trazado 697432" d="M47.312,155.764a29.746,29.746,0,0,0,.042,15.892,1.26,1.26,0,0,0,2.425-.682,27.089,27.089,0,0,1-.042-14.531,1.26,1.26,0,0,0-2.425-.678" transform="translate(116.33 389.491)" fill="#b7772f"/>
        <path id="Trazado_697433" data-name="Trazado 697433" d="M69.154,129.962q9.865,20.922,19.727,41.84,2.805,5.948,5.61,11.9c.7,1.483,2.868.186,2.169-1.29q-9.86-20.922-19.723-41.84-2.805-5.948-5.61-11.9c-.7-1.483-2.868-.19-2.172,1.29" transform="translate(173.588 321.971)" fill="#685434"/>
        <path id="Trazado_697434" data-name="Trazado 697434" d="M50.653,128.294q-13.335,22.019-26.669,44.034a1.264,1.264,0,0,0,2.172,1.29Q39.49,151.6,52.825,129.584a1.264,1.264,0,0,0-2.172-1.29" transform="translate(59.834 321.154)" fill="#685434"/>
        <path id="Trazado_697435" data-name="Trazado 697435" d="M27.662,167.214q.981,4.482,1.958,8.96a1.271,1.271,0,0,0,1.547.893,1.307,1.307,0,0,0,.879-1.575q-.981-4.476-1.958-8.96a1.274,1.274,0,0,0-1.547-.893,1.305,1.305,0,0,0-.879,1.575" transform="translate(69.488 416.493)" fill="#b7772f"/>
        <path id="Trazado_697436" data-name="Trazado 697436" d="M30.143,168.246q.954,4.487,1.909,8.971a1.269,1.269,0,0,0,1.547.893,1.3,1.3,0,0,0,.875-1.571q-.954-4.487-1.905-8.971a1.27,1.27,0,0,0-1.547-.9,1.308,1.308,0,0,0-.879,1.575" transform="translate(75.731 419.089)" fill="#b7772f"/>
        <path id="Trazado_697437" data-name="Trazado 697437" d="M70.676,153.727a20.456,20.456,0,0,0-.942,8.429,1.3,1.3,0,0,0,1.255,1.279,1.282,1.282,0,0,0,1.258-1.279A18.076,18.076,0,0,1,73.1,154.4a1.259,1.259,0,1,0-2.425-.678" transform="translate(175.142 384.298)" fill="#b7772f"/>
        <path id="Trazado_697438" data-name="Trazado 697438" d="M71.925,156.632v5.4a1.257,1.257,0,1,0,2.513,0v-5.4a1.257,1.257,0,1,0-2.513,0" transform="translate(180.899 390.725)" fill="#b7772f"/>
        <path id="Trazado_697439" data-name="Trazado 697439" d="M29.621,134.634q27.681-.917,55.335-2.478,27.507-1.55,54.973-3.733,15.422-1.229,30.827-2.654c1.125-.1,1.139-1.881,0-1.775q-27.586,2.552-55.215,4.468-27.486,1.9-55.008,3.171-15.454.712-30.912,1.227c-1.139.035-1.146,1.814,0,1.775" transform="translate(72.345 311.847)" fill="#685434"/>
        <path id="Trazado_697440" data-name="Trazado 697440" d="M76.284,100.9c1.55,4.134,7.266,5.916,10.826,3.374s3.867-8.612.573-11.5a5.538,5.538,0,0,0,7.157,1.8,5.74,5.74,0,0,0,2.232-7.146,6.636,6.636,0,0,0,7.786-1.023,6.934,6.934,0,0,0,1.2-7.891c2.918.78,5.529-2.3,6.2-5.294s.278-6.215,1.388-9.065a39.575,39.575,0,0,1,2.025-3.814,17.15,17.15,0,0,0-3.466-19.938c2.309-5.448-.39-12.535-5.709-14.974-1.287-.591-2.668-.928-3.976-1.469-1.821-.756-3.466-1.895-5.234-2.773A20.917,20.917,0,0,0,74,24.795c-2.2,2.12-4,4.977-3.838,8.05s2.967,6.067,5.933,5.466c-4.454-1.258-9.326.306-13.041,3.111s-6.45,6.714-8.964,10.661c-2.113,3.322-4.19,7.051-3.74,10.981s4.742,7.512,8.194,5.691c-5.469,11.16,1.49,26.6,13.368,29.667Z" transform="translate(126.488 48.13)" fill="#c23f37"/>
        <path id="Trazado_697441" data-name="Trazado 697441" d="M139.51,70.523c-2.636-4.8-8.658-7.719-13.755-5.891l3.1-35.109L86.59,13.642,45.706,25.72q-3.675,25.456-7.354,50.906c-1.185,8.2-2.355,16.676-.2,24.662S53.3,115.513,61.425,116.026c-.306,4.984-.643,11.818-.879,18.317l-2.316.946c-5.241,2.137-7.185,8.876-8.57,11.554-2.633,5.083-.077,11.772,3.49,16.226a26.652,26.652,0,0,0,6.419,5.536,49.137,49.137,0,0,0,35.763,6.963c7.181-1.4,14.24-4.6,19.066-10.183s7.044-13.8,4.411-20.743c-.808-2.134-1.606-6.64-3.107-8.31.935-18.732,1.817-45.552.893-47.384,1.483,4.742,6.981,7.42,11.793,6.549s8.77-4.658,10.939-9.115c2.4-4.928,2.819-11.059.183-15.86" transform="translate(92.933 34.311)" fill="#f6a472"/>
        <path id="Trazado_697442" data-name="Trazado 697442" d="M125.858,39.41a1.116,1.116,0,0,0-.517-.468q-4.782-2.763-9.568-5.522c-1.23-1.554-3.255-1.743-4.967-2.51a29.045,29.045,0,0,1-4.243-2.805c-6.225-4.215-14.531-4.028-21.586-1.508a6.7,6.7,0,0,1-2.562.584,8.326,8.326,0,0,1-2.879-1.026,11.951,11.951,0,0,0-5.431-1.04c-1.838.081-3.684.587-5.494.253a16.266,16.266,0,0,1-4.092-1.7c-6.64-3.258-14.19-2.594-20.841.647l-2.58.253a2.306,2.306,0,0,0-2.935,2.921,2.931,2.931,0,0,0,1.561,1.684,5.082,5.082,0,0,1,.83.446c1.631,1.181,1.146,3.691.893,5.712-.643,5.181,1.736,9.456,5.948,12.447a14.264,14.264,0,0,0,14.623.995c6.32-3.318,9.3-9.828,9.712-17.052a2.618,2.618,0,0,1,.359-1.452,2.033,2.033,0,0,1,.939-.629,7.516,7.516,0,0,1,3.768-.415,3.884,3.884,0,0,1,3.276,3.645c.2,3.076.633,8.176,1.483,10.549C84.83,52.567,92.9,54.543,96.82,53.66c2.454-.552,4.6-.439,6.6-2a21.481,21.481,0,0,0,6.844-9.617c.619-1.983,1.1-4.636,3.121-4.939.738-.112,1.519.162,2.19-.355,3.459,1.325,6.085,4.355,9.3,6.3a13.919,13.919,0,0,0,.991-2.963,1.106,1.106,0,0,0,0-.675M68.439,36.4a12.229,12.229,0,0,1-7.122,10.141,13.416,13.416,0,0,1-12.77-1.069,10.528,10.528,0,0,1-3.691-4.218A15.977,15.977,0,0,1,43.728,35.6c-.144-2.2-.183-4.556,1-6.447a8.462,8.462,0,0,1,2.833-2.612,15.865,15.865,0,0,1,18.022,1.508,8.583,8.583,0,0,1,2.928,6.872Zm39.833,2.6c-.253,4.267-3.086,9.48-7.122,11.322A13.423,13.423,0,0,1,88.377,49.26c-1.582-1.076-2.91-3.7-3.687-5.4A15.98,15.98,0,0,1,83.557,38.2c-.144-2.2-.183-4.556,1.005-6.447A8.429,8.429,0,0,1,87.4,29.146a15.865,15.865,0,0,1,18.022,1.508,8.566,8.566,0,0,1,2.925,6.868Z" transform="translate(95.635 54.144)"/>
        <path id="Trazado_697443" data-name="Trazado 697443" d="M43.909,83.438c-6.334,11.951-12.834,24.532-12.886,38.111-.035,8.946,2.749,17.614,5.062,26.244a258.3,258.3,0,0,1,8.507,78.362c-.52,11.421-1.8,22.792-2.341,34.209-1.276,26.862,3.427,93.277,6.218,120.02a6.2,6.2,0,0,0,1.272,3.789,5.592,5.592,0,0,0,2.468,1.265c16.12,4.858,33.717-1.139,50.164,2.408,6.222,1.343,12.085,4.014,18.159,5.951a79.936,79.936,0,0,0,44.624,1.1c3.853-1.026,7.962-2.608,9.934-6.127,2.007-3.585,1.181-8.05.362-12.092-12.5-61.669-11.705-165.1-21.741-227.237-2.116-13.1-4.8-26.145-5.74-39.387-1.09-15.379-3-38.951-8.123-53.461C125.993,73.824,113.56,81.694,98.8,81.132S69.548,73.3,64.416,50.329Z" transform="translate(78.023 126.582)" fill="#89c7e0"/>
        <path id="Trazado_697444" data-name="Trazado 697444" d="M145.958,47.952c-12.229,8.289-16.194,26.307-12.025,40.642S146.7,115.583,151.1,129.847c5.716,18.535,4,38.448,3.494,57.869-.281,10.879-.165,21.762-.049,32.645q.3,27.149.587,54.3c.359,33.267,2.629,106.181,7.153,139.131-8.57-6.278-20.2-.5-30.564,1.55a42.147,42.147,0,0,1-39.172-13.477c-2.566-2.939-4.974-6.419-8.665-7.586-4.7-1.487-9.536,1.3-14.039,3.318A48.483,48.483,0,0,1,41.9,401.135l9.171-126.456c-6.1,8.144-18.328,9.779-27.386,5.315S8.6,266.2,5.79,256.369,2.968,236.126,3.161,225.89c.657-34.852,3.536-70.327,16.423-102.623,6.116,4.38,14.373,8.826,20.521,4.492a16.922,16.922,0,0,0,4.331-5.146c9.213-14.915,14.7-33.488,29.351-42.867,7.129-4.563,15.586-6.31,23.59-8.971a104.541,104.541,0,0,0,27.759-14.162c5.1-3.652,14.313-6.9,20.31-8.661Z" transform="translate(7.771 120.604)" fill="#b7772f"/>
        <path id="Trazado_697445" data-name="Trazado 697445" d="M70.284,49.041c2.13,10.552,4.236,21.678.96,31.924-2.833,8.869-9.41,16.05-12.612,24.785-2.2,6.007-2.717,12.5-3.044,18.894C52.515,184.678,66.2,284.046,66.7,344.158c.2,24.455-1.459,48.993.995,73.321,15.688-1.2,30.757,6.355,46.445,7.565a59.427,59.427,0,0,0,46.906-18.1L153.6,279.937c11.055.007,28.216-2.267,36.975-9.136,6.935-5.434,10.791-14.173,12.113-22.982s1.8-23.263.685-32.1c-3.737-29.682-16.352-57.83-23.667-86.812-.868-3.441-1.8-6.963-3.835-9.849-4.229-6.011-12.317-8.088-16.841-13.871-3.905-4.991-4.538-11.944-8.127-17.171-7.519-10.939-23.319-9.7-36.244-11.972A56.776,56.776,0,0,1,77.149,50.658a5,5,0,0,0-6.865-1.617" transform="translate(138.678 121.47)" fill="#b7772f"/>
        <path id="Trazado_697446" data-name="Trazado 697446" d="M86.186,152.847c2.661-11.948-3.5-23.822-8.014-35.179S71.212,91.853,79.535,83a4.184,4.184,0,0,1,1.719-1.241c1.821-.566,3.585,1.29,4.018,3.178s.06,3.881.369,5.793A8.507,8.507,0,0,0,96.232,97.21c4.454-1.452,7-7.108,5.3-11.544a9.392,9.392,0,0,0-11.565-5.28c-2.26.816-5.5,2.13-6.447-.109a3.608,3.608,0,0,1,.7-3.206c5.891-9.227,21.119-9.842,27.71-1.118.724.96,1.483,2.088,2.661,2.278,1.353.221,2.52-.9,3.441-1.937,2.447-2.735,5.072-6.232,3.976-9.754-1.564-5.013-9.681-6.362-9.712-11.617-.021-3.318,3.8-5.593,7.013-5.016s5.73,3.093,7.716,5.726,3.708,5.554,6.3,7.561a65.5,65.5,0,0,1-.576-12.278,6.406,6.406,0,0,1,.981-3.68c1.353-1.74,4.172-1.592,5.881-.218s2.531,3.592,3.062,5.744c2.882,11.667-.5,23.882-3.849,35.418,3.5.513,6.577-2.756,7.6-6.208s.668-7.157,1.139-10.728c.26-1.975,1.318-4.369,3.276-4.285a4.039,4.039,0,0,1,2.809,2,24.119,24.119,0,0,1,2.014,24.388c-3.933,7.87-11.874,12.83-16.858,20.054-5.821,8.44-7.125,19.147-8.784,29.316-.369,2.26-.812,4.626-2.232,6.4-1.385,1.736-3.5,2.661-5.547,3.483-11.3,4.556-27.024,8.225-36.174.081Z" transform="translate(186.199 115.591)" fill="#f6a472"/>
        <path id="Trazado_697447" data-name="Trazado 697447" d="M71.872,149.869c-2.668-11.948,3.5-23.822,8.011-35.179s6.963-25.815-1.364-34.669A4.219,4.219,0,0,0,76.8,78.78c-1.824-.566-3.589,1.29-4.021,3.178s-.06,3.881-.369,5.793a8.505,8.505,0,0,1-10.591,6.482c-4.45-1.452-6.992-7.108-5.3-11.544a9.388,9.388,0,0,1,11.561-5.28c2.264.815,5.5,2.13,6.45-.109a3.608,3.608,0,0,0-.7-3.206c-5.891-9.227-18.707-10.876-25.3-2.155-.724.963-1.9,7.642-3.079,7.832-1.353.221-4.513-5.42-5.434-6.454-2.447-2.735-5.072-6.232-3.976-9.754,1.564-5.013,9.681-6.362,9.712-11.617.021-3.318-3.8-5.593-7.013-5.016s-5.733,3.093-7.716,5.726-3.708,5.554-6.3,7.561a65.5,65.5,0,0,0,.576-12.278,6.381,6.381,0,0,0-.984-3.68c-1.35-1.74-4.169-1.592-5.877-.218s-2.531,3.592-3.062,5.744C12.5,61.45,15.88,73.665,19.233,85.2c-3.5.513-6.577-2.756-7.6-6.208s-.671-7.157-1.139-10.728c-.26-1.975-1.318-4.369-3.276-4.285a4.039,4.039,0,0,0-2.809,2A24.119,24.119,0,0,0,2.4,90.369c3.933,7.87,11.874,12.83,16.858,20.054,5.821,8.44,7.125,19.147,8.784,29.316.369,2.264.808,4.626,2.232,6.4,1.385,1.736,3.5,2.661,5.543,3.483,11.3,4.556,26.662,8.253,35.812.105Z" transform="translate(0.001 108.101)" fill="#f6a472"/>
        <path id="Trazado_697448" data-name="Trazado 697448" d="M62.651,40.853A20.063,20.063,0,0,1,74.5,32.537c1.107-.271.64-1.983-.475-1.712a21.9,21.9,0,0,0-12.907,9.132c-.636.953.9,1.845,1.533.9" transform="translate(153.338 77.454)" fill="#7f4924"/>
        <path id="Trazado_697449" data-name="Trazado 697449" d="M63.215,33.08a8.27,8.27,0,0,1-.292,8.633c-.636.953.9,1.842,1.533.9a10.053,10.053,0,0,0,.292-10.426.888.888,0,0,0-1.533.9" transform="translate(157.878 79.864)" fill="#7f4924"/>
        <g id="Grupo_944437" data-name="Grupo 944437" transform="translate(153.73 150.337)" opacity="0.51">
          <g id="Grupo_944436" data-name="Grupo 944436">
            <g id="Grupo_944435" data-name="Grupo 944435" clip-path="url(#clip-path-3)">
              <path id="Trazado_697450" data-name="Trazado 697450" d="M44.363,42.769l35.548,1.772L43.734,52.112Z" transform="translate(-43.734 -42.768)" fill="#7f4924"/>
            </g>
          </g>
        </g>
        <path id="Trazado_697451" data-name="Trazado 697451" d="M55.339,24.127C50.994,34.257,46.6,44.63,46.01,55.784a.894.894,0,0,0,1.336.766l6.883-4.763c.935-.647.049-2.186-.893-1.536l-6.886,4.766c.446.253.893.51,1.339.766.573-10.816,4.868-20.939,9.083-30.761.446-1.037-1.083-1.944-1.533-.9" transform="translate(115.716 59.511)" fill="#7f4924"/>
        <path id="Trazado_697452" data-name="Trazado 697452" d="M45.536,35.626a6.9,6.9,0,0,0,12.44-.19c.485-1.03-1.044-1.93-1.533-.9a5.137,5.137,0,0,1-9.375.19c-.524-1.016-2.056-.12-1.533.9" transform="translate(114.257 85.722)" fill="#7f4924"/>
        <path id="Trazado_697453" data-name="Trazado 697453" d="M61.8,29.927c0,2.594-1.722,4.7-3.849,4.7s-3.849-2.106-3.849-4.7,1.722-4.7,3.849-4.7,3.849,2.106,3.849,4.7" transform="translate(136.062 63.448)"/>
        <path id="Trazado_697454" data-name="Trazado 697454" d="M50.41,28.59c0,2.594-1.722,4.7-3.849,4.7s-3.849-2.106-3.849-4.7,1.722-4.7,3.849-4.7S50.41,26,50.41,28.59" transform="translate(107.425 60.086)"/>
        <path id="Trazado_697455" data-name="Trazado 697455" d="M53.054,22.113a3.527,3.527,0,0,0,.032.981,3.13,3.13,0,0,0,.868,1.923,6.4,6.4,0,0,0,2.963.9q7.313.965,14.619,1.933a2.283,2.283,0,0,0,1.213-.063,1.728,1.728,0,0,0,.872-1.578c.07-2.675-3.023-4.085-5.561-4.784q-3.063-.844-6.13-1.691l-4.844-.773a3.52,3.52,0,0,0-4.032,3.15" transform="translate(133.384 47.585)"/>
        <path id="Trazado_697456" data-name="Trazado 697456" d="M61.631,20.777a3.526,3.526,0,0,1-.032.981,3.131,3.131,0,0,1-.868,1.923,6.4,6.4,0,0,1-2.963.9q-7.313.965-14.619,1.933a2.282,2.282,0,0,1-1.213-.063,1.73,1.73,0,0,1-.872-1.582c-.07-2.671,3.023-4.081,5.561-4.781q3.063-.844,6.13-1.691l4.844-.773a3.52,3.52,0,0,1,4.032,3.15" transform="translate(103.277 44.224)"/>
        <path id="Trazado_697457" data-name="Trazado 697457" d="M78.143,60.757a29.039,29.039,0,0,0,4.542,6.724A12.282,12.282,0,0,0,86.017,69.9c1.287.626,2.657,1.055,3.99,1.568,5.238,2.021,8.046,6.96,9.125,12.254a55.643,55.643,0,0,1,.756,10.812.888.888,0,0,0,1.775,0c-.035-6.057-.144-12.433-3.2-17.853a15.462,15.462,0,0,0-5.336-5.687c-2.492-1.5-5.515-1.884-7.881-3.621-2.541-1.87-4.092-4.8-5.568-7.512-.545-1.005-2.081-.109-1.533.9" transform="translate(196.245 149.449)" fill="#7f4924"/>
        <path id="Trazado_697458" data-name="Trazado 697458" d="M94.471,49.4A77.507,77.507,0,0,1,88.91,81.684c-.425,1.058,1.29,1.519,1.715.471A78.732,78.732,0,0,0,96.246,49.4c-.049-1.139-1.824-1.146-1.775,0" transform="translate(223.449 122.086)" fill="#7f4924"/>
        <path id="Trazado_697459" data-name="Trazado 697459" d="M89.817,51.23c3.22,2.338,4,6.861,3.315,10.556-.886,4.756-3.621,8.84-5.733,13.1a27.755,27.755,0,0,0-2.693,7.617c-.193,1.118,1.519,1.6,1.712.471,1.62-9.445,11.143-17.424,8.176-27.611a10.5,10.5,0,0,0-3.881-5.67c-.924-.675-1.814.868-.9,1.533" transform="translate(213.006 124.574)" fill="#7f4924"/>
        <path id="Trazado_697460" data-name="Trazado 697460" d="M83.527,60.146a62.9,62.9,0,0,0,14.911,1.519,146.578,146.578,0,0,1,14.862.3c1.139.109,1.128-1.67,0-1.779a141.969,141.969,0,0,0-14.626-.3A61.654,61.654,0,0,1,84,58.434c-1.111-.264-1.585,1.448-.471,1.712" transform="translate(208.48 146.897)" fill="#7f4924"/>
        <path id="Trazado_697461" data-name="Trazado 697461" d="M115.321,57.08a33.053,33.053,0,0,0-11.793,10.433,23.168,23.168,0,0,1-3.209,4.376c-1.346,1.192-3.093,1.87-4.52,2.967a19.063,19.063,0,0,0-3.536,3.582,27.014,27.014,0,0,0-4.447,9.308,73.533,73.533,0,0,0-1.965,13.48c-.1,1.139,1.68,1.132,1.775,0,.608-7.276,1.283-14.992,5.621-21.147a17.974,17.974,0,0,1,3.269-3.543c1.329-1.09,2.907-1.775,4.292-2.78a13.541,13.541,0,0,0,3.308-3.916,32.842,32.842,0,0,1,3.048-4.106,31.593,31.593,0,0,1,9.055-7.122c1.012-.531.116-2.063-.9-1.533" transform="translate(215.913 143.284)" fill="#7f4924"/>
        <path id="Trazado_697462" data-name="Trazado 697462" d="M31.03,55.387a13.326,13.326,0,0,1-3.891,7.54c-2.1,2.007-4.911,3.058-7.03,5.048C15.708,72.1,16.407,79,16.846,84.45a29.324,29.324,0,0,0,2.5,10.577c.5,1.03,2.028.13,1.533-.9a26.252,26.252,0,0,1-2.218-9.153,51.71,51.71,0,0,1-.236-8.819,10.329,10.329,0,0,1,3.2-7.16c2.12-1.863,4.816-2.914,6.851-4.9a14.858,14.858,0,0,0,4.267-8.243c.179-1.118-1.533-1.6-1.712-.471" transform="translate(41.546 137.686)" fill="#7f4924"/>
        <path id="Trazado_697463" data-name="Trazado 697463" d="M5.141,56.248a31.551,31.551,0,0,0,8.637,8.268,32.2,32.2,0,0,0,5.413,2.742A45.422,45.422,0,0,1,24.86,69.7c5.821,3.311,8,10.19,10.665,15.913a29.059,29.059,0,0,0,6.049,9.143c.833.784,2.091-.471,1.255-1.255-4.812-4.542-6.535-11.255-9.558-16.936a21.758,21.758,0,0,0-5.856-7.3c-3.241-2.45-7.347-3.266-10.879-5.181a29.373,29.373,0,0,1-9.863-8.732c-.657-.924-2.2-.039-1.533.9" transform="translate(12.519 138.232)" fill="#7f4924"/>
        <path id="Trazado_697464" data-name="Trazado 697464" d="M5.575,60.087q16.551-2.367,33.1-4.731c1.125-.162.647-1.874-.471-1.712Q21.652,56.006,5.1,58.375c-1.128.162-.65,1.874.471,1.712" transform="translate(11.216 134.892)" fill="#7f4924"/>
        <path id="Trazado_697465" data-name="Trazado 697465" d="M6.943,48.272A76.963,76.963,0,0,0,14.6,72.006c.524,1.019,2.056.12,1.533-.9A75.637,75.637,0,0,1,8.655,47.8c-.169-1.128-1.881-.65-1.712.471" transform="translate(17.434 118.604)" fill="#7f4924"/>
        <path id="Trazado_697466" data-name="Trazado 697466" d="M135.661,98.757c-2.953-.77-3.951,4.232-6.689,5.6-2.594,1.294-5.723-1.659-5.6-4.594s2.373-5.336,4.8-6.928c-4.074-2.83-3.367-10.31,1.163-12.3a15.606,15.606,0,0,1-.225-15.495,14.618,14.618,0,0,1-12.24-3.765c-1.35-1.272-2.591-2.882-4.394-3.255-1.318-.278-2.668.183-4.007.316A8.658,8.658,0,0,1,99.533,51.8,44.427,44.427,0,0,0,83.7,54.129c-2.826.96-5.621,2.222-8.6,2.362-3.332.158-6.784-1.093-9.937.014-1.789.626-3.244,1.94-4.826,3a19.068,19.068,0,0,1-19.368.879c-3.111-1.7-5.905-4.682-6-8.271s3.779-7.09,6.963-5.54a9.034,9.034,0,0,1,3.642-8.883,8.676,8.676,0,0,1,9.459-.105c-6.556-.088-11-7.684-10.38-14.324S49.362,10.918,53.3,5.589C54.863,3.48,56.564,1.262,59.011.376S64.793.686,65.2,3.294c2.06-2.865,6.471-3.23,9.413-1.318s4.475,5.54,4.679,9.083A11.768,11.768,0,0,1,92.341,6.324a12.069,12.069,0,0,1,8.109,11.431l4.144-6.728c2.4-3.884,5.153-8.064,9.473-9.378s10.05,2.5,8.717,6.879a9.137,9.137,0,0,1,12.352-1.269,9.533,9.533,0,0,1,1.613,12.528c4.383-2,9.8,1.772,10.795,6.556s-1.473,9.737-4.963,13.094a14.242,14.242,0,0,1,2.035,16.929c.38-2.274,3.821-2.647,5.42-1.012s1.765,4.183,1.7,6.485c-.081,3.023-.5,6.281-2.545,8.468,3.976,3.118,2.83,9.4,1.294,14.264-.963,3.048-1.93,6.1-3.153,9.051-1.093,2.629-2.531,5.329-5.005,6.672s-6.194.608-7.115-2.091Z" transform="translate(87.952 0.221)" fill="#c23f37"/>
        <path id="Trazado_697467" data-name="Trazado 697467" d="M55.453,7.694a8.132,8.132,0,0,0-7.6.587A15.514,15.514,0,0,0,42.605,14.2a15.518,15.518,0,0,0-2.376,8.222,8.468,8.468,0,0,0,3.009,6.246c2.271,1.772,5.287,1.666,7.934.935a23.133,23.133,0,0,0,7.449-3.638c1.965-1.445,3.986-3.283,4.383-5.825a3.548,3.548,0,0,0-3.856-4.183,11.571,11.571,0,0,0-6.612,3.417c-1.7,1.638-2.872,4.028-2.025,6.394.875,2.45,3.266,4,5.649,4.756a14.5,14.5,0,0,0,7.663.081A21.308,21.308,0,0,0,71.13,27.28a11.965,11.965,0,0,0,4.658-5.666,4.529,4.529,0,0,0,.007-3.684,2.844,2.844,0,0,0-2.963-1.149,4.56,4.56,0,0,0-3.49,4.109A6.464,6.464,0,0,0,71.215,26.4a10.864,10.864,0,0,0,6.774,2.57,31.819,31.819,0,0,0,16.219-3.283,28.915,28.915,0,0,0,3.61-2.137c.931-.647.046-2.186-.9-1.536A29.7,29.7,0,0,1,84.073,26.95a26.922,26.922,0,0,1-6.64.19,8.238,8.238,0,0,1-5.273-2.313,4.7,4.7,0,0,1-.984-4.155,3.076,3.076,0,0,1,1-1.7c.475-.376,1.4-.728,1.937-.285.71.576.1,2.183-.193,2.861a8.433,8.433,0,0,1-1.645,2.436,17.1,17.1,0,0,1-5.048,3.533c-3.821,1.849-8.682,2.7-12.524.446-1.631-.956-3.114-2.679-2.6-4.7.482-1.9,2.239-3.28,3.835-4.25,1.262-.77,4-2.26,5.107-.5.949,1.511-.721,3.673-1.775,4.654a21.083,21.083,0,0,1-5.7,3.691,13.031,13.031,0,0,1-6.76,1.431,5.387,5.387,0,0,1-4.345-3.652,9.511,9.511,0,0,1,.232-6.45,19.985,19.985,0,0,1,3.346-5.955,8.863,8.863,0,0,1,5.459-3.413,5.468,5.468,0,0,1,3.051.408c1.03.478,1.933-1.051.9-1.533" transform="translate(101.145 17.629)" fill="#6b1212"/>
        <path id="Trazado_697468" data-name="Trazado 697468" d="M59.421,9.746a2.911,2.911,0,0,1,2.274-2.728c1.656-.453,2.8.657,3.332,2.151a15.09,15.09,0,0,1,.555,6.7c-.151,1.308-.471,4.088-2.1,4.482a1.636,1.636,0,0,1-1.691-.942,2.053,2.053,0,0,1,.158-2.3c1.16-1.592,3.3-1.6,4.974-.935a11.751,11.751,0,0,1,6.984,8.348c.671,3.708-1.884,8.271-6.011,8.183l.858,1.125a3.009,3.009,0,0,1,2.366-2.257,7.227,7.227,0,0,1,4.433.763c2.084.9,4.573,2.162,5.561,4.345,1.164,2.563-.837,5.41-2.331,7.392a19.387,19.387,0,0,1-5.979,5.294,11.5,11.5,0,0,1-8.166,1.35c-1.111-.257-1.589,1.455-.475,1.712,6.419,1.49,12.44-2.513,16.148-7.459,1.874-2.5,3.81-5.758,2.454-8.918-1.185-2.766-4.137-4.348-6.784-5.445a8.3,8.3,0,0,0-5.628-.664,4.726,4.726,0,0,0-3.311,3.417.9.9,0,0,0,.854,1.125c4.882.1,8.352-4.967,7.856-9.533A12.246,12.246,0,0,0,72.711,18.3a12.434,12.434,0,0,0-6.517-4.19c-2.316-.464-5,.366-6.074,2.626a3.855,3.855,0,0,0,2.436,5.35c2.506.573,3.958-1.983,4.44-4.032a18.038,18.038,0,0,0-.112-8.911c-.71-2.443-2.555-4.4-5.255-3.923a4.72,4.72,0,0,0-3.983,4.527.888.888,0,0,0,1.775,0" transform="translate(144.982 12.944)" fill="#6b1212"/>
        <path id="Trazado_697469" data-name="Trazado 697469" d="M52.376,4.329c-3.93.988-5.582,5.786-4.042,9.283,1.849,4.2,6.756,5.737,10.992,4.956a15.52,15.52,0,0,0,6.731-2.984c1.55-1.248,2.418-3.578.875-5.22-1.6-1.7-3.74-.271-4.373,1.533a7.226,7.226,0,0,0,.953,5.937c3,4.823,9.1,5.28,14.039,3.614,1.079-.362.615-2.081-.468-1.712-3.35,1.128-7.5,1.452-10.4-.949a7.179,7.179,0,0,1-2.51-3.993,4.732,4.732,0,0,1-.018-2.035c.113-.485.527-1.564,1.216-1.364.471.137.65.851.6,1.276a3.077,3.077,0,0,1-1.55,1.919,15.457,15.457,0,0,1-5.188,2.193c-3.209.689-6.946-.151-8.826-3.044-1.687-2.6-.886-6.865,2.432-7.7a.888.888,0,0,0-.467-1.712" transform="translate(120.128 10.811)" fill="#6b1212"/>
        <path id="Trazado_697470" data-name="Trazado 697470" d="M66.337,20.464c1.072-.6,1.94.745,2.067,1.649a8.416,8.416,0,0,1-.622,3.744,13.931,13.931,0,0,1-4.222,6.067l1.487.865a3.971,3.971,0,0,1,3.8-3.118A5.426,5.426,0,0,1,73.525,32.8a9.845,9.845,0,0,1,.453,7.1c-.513,1.972-1.431,4.6-3.61,5.245a2.182,2.182,0,0,1-2.633-.784,1.582,1.582,0,0,1,.446-2.109c1-.552.105-2.088-.9-1.533-2.292,1.265-1.852,4.826.362,5.919,2.9,1.427,5.786-.84,7.006-3.382a13.8,13.8,0,0,0,1.086-9.74A7.845,7.845,0,0,0,70.056,28a5.808,5.808,0,0,0-6.721,4.32.894.894,0,0,0,1.483.861,15.6,15.6,0,0,0,5.121-8.429c.352-1.564.5-3.413-.506-4.781a3.113,3.113,0,0,0-3.993-1.037c-1,.559-.1,2.091.9,1.533" transform="translate(159.245 46.717)" fill="#6b1212"/>
        <path id="Trazado_697471" data-name="Trazado 697471" d="M65.672,24.726a5.414,5.414,0,0,0,.808,10.616.89.89,0,0,0,.889-.886.914.914,0,0,0-.889-.889,3.648,3.648,0,0,1-.337-7.129.888.888,0,0,0-.471-1.712" transform="translate(155.044 62.101)" fill="#6b1212"/>
        <path id="Trazado_697472" data-name="Trazado 697472" d="M61.094,43.395a6.345,6.345,0,0,0,9.062-4.369.914.914,0,0,0-.619-1.09.9.9,0,0,0-1.093.619,4.354,4.354,0,0,1-2.506,3.294,5.053,5.053,0,0,1-1.99.5,3.646,3.646,0,0,1-1.958-.485.888.888,0,0,0-.9,1.533" transform="translate(152.571 95.343)" fill="#6b1212"/>
        <path id="Trazado_697473" data-name="Trazado 697473" d="M67.928,28.224c.728-.376,1.139,1.192,1.1,1.642-.12,1.283-.773,2.457-.91,3.751-.091.847.991,1.058,1.515.629a2.312,2.312,0,0,1,3.266.569,2.435,2.435,0,0,1-1,3.3c-1.016.524-.116,2.056.9,1.533A4.217,4.217,0,0,0,74.354,33.8a4.119,4.119,0,0,0-5.979-.812c.506.211,1.009.422,1.515.629.186-1.715,1.364-3.318.735-5.083-.527-1.48-2.042-2.647-3.592-1.842-1.016.524-.12,2.056.9,1.533" transform="translate(167.468 66.47)" fill="#6b1212"/>
        <path id="Trazado_697474" data-name="Trazado 697474" d="M54.073,5.747c-4.939-2.942-12-1.1-14.545,4.155a12.519,12.519,0,0,0,3.227,14.5c1.961,1.652,5.666,3.171,7.515.5a4.216,4.216,0,0,0,.074-4.264A6.426,6.426,0,0,0,48.9,18.847a3.889,3.889,0,0,0-2.148-1.262,12.332,12.332,0,0,0-8.4,3.019,11.6,11.6,0,0,0-3.983,8.264,10.96,10.96,0,0,0,3.986,9.167,10.511,10.511,0,0,0,9.371,1.947.888.888,0,0,0-.471-1.712,8.851,8.851,0,0,1-10.932-6.84,10.119,10.119,0,0,1,7.378-11.709,9.957,9.957,0,0,1,1.726-.323c.33-.028.664-.046.995-.042.355,0,.373.067.678.3a4.3,4.3,0,0,1,2.021,3.055,1.746,1.746,0,0,1-2.063,1.859,5.646,5.646,0,0,1-2.967-1.357,10.883,10.883,0,0,1-3.357-11.593c1.708-4.967,8.028-6.97,12.45-4.338a.888.888,0,0,0,.9-1.533" transform="translate(86.383 10.933)" fill="#c23f37"/>
        <path id="Trazado_697475" data-name="Trazado 697475" d="M56.553,13.3A18.179,18.179,0,0,1,68.339,2.167a10.624,10.624,0,0,1,7.951.787,7.985,7.985,0,0,1,4.151,5.568,6.611,6.611,0,0,1-2.795,6.622c.436.176.868.355,1.3.531-.45-3.266,2.4-5.969,5.325-6.71,3.325-.84,7.083.112,10.1,1.592a14.707,14.707,0,0,1,6.956,6.686,10.763,10.763,0,0,1,.2,9.34c-1.487,2.893-4.756,5.076-8.085,4.556-1.118-.172-1.6,1.536-.471,1.712a9.754,9.754,0,0,0,9.294-4.092,11.894,11.894,0,0,0,1.223-10.907A15.83,15.83,0,0,0,96.1,9.457C92.611,7.524,88.274,6.35,84.3,7.14c-4.2.837-7.67,4.573-7.058,9.006a.894.894,0,0,0,1.3.531,8.235,8.235,0,0,0,3.747-6.9,9.228,9.228,0,0,0-3.677-7.4C73.208-1.855,65.84.075,60.954,4.146a20.95,20.95,0,0,0-6.113,8.682c-.408,1.069,1.308,1.529,1.712.471" transform="translate(137.775 -0.001)" fill="#c23f37"/>
        <path id="Trazado_697476" data-name="Trazado 697476" d="M76.619,87.966c14.064,2.981,29.168,5.666,42.9-.158a33.921,33.921,0,0,0,9.361-5.891c.854-.763-.4-2.014-1.255-1.255-10.306,9.192-25.017,9.863-38.012,7.948-4.2-.622-8.366-1.476-12.521-2.355-1.114-.236-1.589,1.476-.471,1.712" transform="translate(191.101 202.279)" fill="#6d331f"/>
        <path id="Trazado_697477" data-name="Trazado 697477" d="M89.222,76.339c1.093,3.213,2.38,6.359,3.652,9.5,1.87,4.626,3.793,9.231,5.719,13.832,4.1,9.79,8.264,19.555,12.268,29.383,1.483,3.638,2.995,7.28,4.26,11,.369,1.076,2.084.612,1.715-.475-1.093-3.209-2.383-6.359-3.656-9.5-1.87-4.626-3.789-9.231-5.719-13.835-4.1-9.79-8.264-19.551-12.268-29.383-1.48-3.638-2.995-7.28-4.26-11-.366-1.076-2.081-.615-1.712.471" transform="translate(224.272 189.276)" fill="#6d331f"/>
        <path id="Trazado_697478" data-name="Trazado 697478" d="M79.85,54.48a134.884,134.884,0,0,1-1.318,17.537c-.826,5.8-2.088,11.523-3.4,17.231-.787,3.431-1.983,8.176-5.536,9.772-3.332,1.494-7.99-1.3-10.834,1.571-2.011,2.028-1.083,5.332-.78,7.825L59.2,118.423c.137,1.121,1.916,1.135,1.775,0Q60.441,114,59.9,109.576c-.172-1.424-.359-2.851-.517-4.274a4.372,4.372,0,0,1,.485-3.287c1.111-1.374,3.452-.967,4.977-.854a10.962,10.962,0,0,0,5.73-.647c3.592-1.729,5.114-6.151,6.021-9.74,1.385-5.5,2.545-11.1,3.41-16.707A137.4,137.4,0,0,0,81.625,54.48a.888.888,0,0,0-1.775,0" transform="translate(144.638 134.868)" fill="#6d331f"/>
        <path id="Trazado_697479" data-name="Trazado 697479" d="M42.157,51.528a113.116,113.116,0,0,0-5.817,42.329c.172,3.2.169,6.777,1.487,9.747a9.281,9.281,0,0,0,5.107,4.707c4.246,1.772,9.308,1.427,13.234,3.986,2.777,1.81,3.737,5.048,4.306,8.137.752,4.06,1.315,8.166,1.961,12.247.176,1.128,1.888.65,1.712-.471-.587-3.694-1.149-7.389-1.758-11.08-.475-2.9-1.128-5.9-2.988-8.257-3.065-3.881-8.348-4.222-12.806-5.276a11.844,11.844,0,0,1-5.733-2.664c-2.218-2.183-2.348-5.533-2.573-8.45A111.15,111.15,0,0,1,43.869,52c.369-1.083-1.346-1.55-1.712-.471" transform="translate(90.985 128.058)" fill="#6d331f"/>
        <path id="Trazado_697480" data-name="Trazado 697480" d="M58.758,87.051a5.725,5.725,0,0,0,3.128,6.232,5.3,5.3,0,0,0,3.652.52,4.876,4.876,0,0,0,2.78-1.94,6.488,6.488,0,0,0,.545-6.3,5.133,5.133,0,0,0-5.684-2.826,6.141,6.141,0,0,0-5.086,5.311.891.891,0,0,0,.886.886.906.906,0,0,0,.889-.886,3.808,3.808,0,0,1,.963-2.07,4.82,4.82,0,0,1,2.046-1.336,4.156,4.156,0,0,1,1.23-.232A3.247,3.247,0,0,1,67,85.842a4.3,4.3,0,0,1,.654,2.137,4.8,4.8,0,0,1-.077,1.146,5.969,5.969,0,0,1-.155.6c-.032.105-.07.211-.109.313a.741.741,0,0,1-.077.176,3.4,3.4,0,0,1-1.473,1.62,3.048,3.048,0,0,1-2.4.155A4.535,4.535,0,0,1,61.085,90.3a3.429,3.429,0,0,1-.615-2.773c.267-1.111-1.445-1.582-1.712-.471" transform="translate(146.105 207.876)" fill="#6d331f"/>
        <path id="Trazado_697481" data-name="Trazado 697481" d="M60.367,108.143a5.72,5.72,0,0,0,3.128,6.232,5.294,5.294,0,0,0,3.649.52,4.876,4.876,0,0,0,2.78-1.94,6.5,6.5,0,0,0,.548-6.3,5.133,5.133,0,0,0-5.684-2.826,6.148,6.148,0,0,0-5.09,5.311.89.89,0,0,0,.889.886.905.905,0,0,0,.886-.886,3.843,3.843,0,0,1,.963-2.074,4.834,4.834,0,0,1,2.046-1.332,4.177,4.177,0,0,1,1.234-.232,3.184,3.184,0,0,1,1.171.144,3.132,3.132,0,0,1,1.719,1.29,4.267,4.267,0,0,1,.654,2.137,4.638,4.638,0,0,1-.074,1.146c-.046.2-.095.4-.158.6-.032.105-.067.207-.109.313a.867.867,0,0,1-.074.176,3.4,3.4,0,0,1-1.473,1.62,3.071,3.071,0,0,1-2.408.155,4.527,4.527,0,0,1-2.271-1.691,3.408,3.408,0,0,1-.615-2.773c.271-1.111-1.448-1.582-1.712-.471" transform="translate(150.141 260.922)" fill="#6d331f"/>
        <path id="Trazado_697482" data-name="Trazado 697482" d="M61.97,129.233a5.727,5.727,0,0,0,3.125,6.232,5.316,5.316,0,0,0,3.656.52,4.876,4.876,0,0,0,2.78-1.94,6.488,6.488,0,0,0,.545-6.3,5.133,5.133,0,0,0-5.684-2.826,6.141,6.141,0,0,0-5.086,5.311.889.889,0,0,0,.886.886.906.906,0,0,0,.889-.886,3.818,3.818,0,0,1,.963-2.074,4.845,4.845,0,0,1,2.046-1.332,4.154,4.154,0,0,1,1.23-.232,3.247,3.247,0,0,1,2.893,1.434,4.3,4.3,0,0,1,.654,2.137,4.8,4.8,0,0,1-.077,1.146,5.964,5.964,0,0,1-.155.6c-.032.105-.07.207-.109.313a.924.924,0,0,1-.077.176,3.4,3.4,0,0,1-1.473,1.62,3.064,3.064,0,0,1-2.4.155,4.535,4.535,0,0,1-2.274-1.691,3.434,3.434,0,0,1-.615-2.773c.267-1.111-1.445-1.582-1.712-.471" transform="translate(154.181 313.968)" fill="#6d331f"/>
        <path id="Trazado_697483" data-name="Trazado 697483" d="M32.761,74.954q2.573,15.575,4.433,31.263,1.845,15.654,2.974,31.386c.735,10.306,1.378,20.658,1.469,30.989.081,9.269-.584,19.052-4.879,27.453-3.476,6.8-9.371,12.9-16.96,14.834a19.283,19.283,0,0,1-2.791.506c-1.125.12-1.135,1.895,0,1.775,8.05-.847,14.756-6.046,19.171-12.619,5.252-7.825,6.865-17.389,7.174-26.644.172-5.051-.021-10.109-.225-15.157q-.332-8.1-.851-16.184-1.033-16.1-2.826-32.135-1.787-16-4.32-31.907-.322-2.014-.657-4.032c-.186-1.125-1.9-.65-1.712.471" transform="translate(40.641 185.715)" fill="#6d331f"/>
        <path id="Trazado_697484" data-name="Trazado 697484" d="M5.661,79.658a48.8,48.8,0,0,0,20.514,9.779A51.18,51.18,0,0,0,48.9,89.191a47.3,47.3,0,0,0,11.969-4.707.888.888,0,0,0-.9-1.533,48.478,48.478,0,0,1-42.413,1.884A45.871,45.871,0,0,1,6.916,78.4c-.879-.717-2.144.534-1.255,1.255" transform="translate(13.475 196.653)" fill="#6d331f"/>
        <path id="Trazado_697485" data-name="Trazado 697485" d="M17.831,72.9A99.776,99.776,0,0,0,4.137,117.469c-.074,1.139,1.7,1.135,1.775,0A97.464,97.464,0,0,1,19.364,73.794a.888.888,0,0,0-1.533-.9" transform="translate(10.398 182.271)" fill="#6d331f"/>
        <path id="Trazado_697486" data-name="Trazado 697486" d="M40.442,85.587a21.45,21.45,0,0,0,12.218.134.888.888,0,0,0-.471-1.712,19.737,19.737,0,0,1-11.276-.134c-1.093-.341-1.561,1.374-.471,1.712" transform="translate(100.158 210.842)" fill="#6d331f"/>
        <path id="Trazado_697487" data-name="Trazado 697487" d="M39.074,107.428a19.091,19.091,0,0,0,11.537-.179c1.079-.362.615-2.077-.471-1.712a17.445,17.445,0,0,1-10.595.179.888.888,0,0,0-.471,1.712" transform="translate(96.711 265.309)" fill="#6d331f"/>
        <path id="Trazado_697488" data-name="Trazado 697488" d="M39.989,128.091a28.945,28.945,0,0,1,12.352,2.077.9.9,0,0,0,1.093-.622.907.907,0,0,0-.622-1.09,30.123,30.123,0,0,0-12.823-2.141c-1.139.056-1.146,1.835,0,1.775" transform="translate(98.422 317.595)" fill="#6d331f"/>
        <path id="Trazado_697489" data-name="Trazado 697489" d="M20.189,150.422a34.814,34.814,0,0,1,34.023-1.895,35.554,35.554,0,0,1,12.668,10.595c3.128,4.246,5.245,9.442,9.607,12.644,5.74,4.215,13.122,2.063,18.866-.946,1.012-.531.116-2.067-.9-1.536-5.143,2.7-11.705,4.759-16.9,1.072a20.526,20.526,0,0,1-5.023-5.779c-1.5-2.313-2.854-4.717-4.531-6.907a36.41,36.41,0,0,0-48.705-8.781c-.963.612-.07,2.148.9,1.533" transform="translate(47.483 360.045)" fill="#6d331f"/>
        <path id="Trazado_697490" data-name="Trazado 697490" d="M63.764,153.411c9.716,2.151,19.421,4.369,29.154,6.45,8.6,1.838,18.064,3.28,26.251-.875a23.56,23.56,0,0,0,9.642-9.2.89.89,0,0,0-1.536-.9,21.828,21.828,0,0,1-8.183,8.127,24.7,24.7,0,0,1-12.053,2.9,61.824,61.824,0,0,1-13-1.627c-4.594-.967-9.171-2.018-13.755-3.034L64.236,151.7c-1.114-.246-1.589,1.466-.471,1.712" transform="translate(158.769 373.386)" fill="#6d331f"/>
        <path id="Trazado_697491" data-name="Trazado 697491" d="M78.428,77.872a292.14,292.14,0,0,0-2.566,55.384q.68,13.783,2.661,27.453c1.1,7.575,2.306,15.241,4.847,22.49,2.545,7.266,6.577,14.148,13.136,18.454.96.629,1.849-.907.9-1.533-5.7-3.74-9.4-9.677-11.793-15.952C83,177.311,81.728,170.028,80.618,162.8a290.358,290.358,0,0,1-.478-84.457.914.914,0,0,0-.619-1.09.893.893,0,0,0-1.093.619" transform="translate(189.922 194.228)" fill="#6d331f"/>
        <path id="Trazado_697492" data-name="Trazado 697492" d="M34.3,57.429q-3.148,15.976-5.494,32.1-2.336,16.092-3.867,32.29-.859,9.122-1.459,18.268c-.074,1.139,1.7,1.135,1.775,0q1.06-16.113,2.921-32.153,1.877-16.134,4.57-32.156,1.508-8.964,3.266-17.878c.221-1.114-1.49-1.592-1.712-.471" transform="translate(59.055 142.83)" fill="#6d331f"/>
        <path id="Trazado_697493" data-name="Trazado 697493" d="M19.417,123.453a44.892,44.892,0,0,1,.232,16.285c-.19,1.118,1.522,1.6,1.715.475a47.325,47.325,0,0,0-.236-17.231c-.221-1.121-1.933-.647-1.712.471" transform="translate(48.786 307.702)" fill="#6d331f"/>
        <path id="Trazado_697494" data-name="Trazado 697494" d="M21.693,128.88a59.257,59.257,0,0,0,.977,12.208c.207,1.121,1.919.647,1.715-.471a56.9,56.9,0,0,1-.917-11.737.888.888,0,0,0-1.775,0" transform="translate(54.515 321.991)" fill="#6d331f"/>
        <path id="Trazado_697495" data-name="Trazado 697495" d="M22.433,119.787q1.571,6.8,3.143,13.6c.257,1.114,1.972.643,1.715-.471q-1.577-6.8-3.146-13.6c-.257-1.114-1.968-.643-1.712.471" transform="translate(56.355 298.492)" fill="#6d331f"/>
        <path id="Trazado_697496" data-name="Trazado 697496" d="M75.156,126.629l2.225,15.217c.165,1.125,1.877.647,1.712-.471l-2.225-15.217c-.165-1.128-1.877-.65-1.712.471" transform="translate(188.997 315.679)" fill="#6d331f"/>
        <path id="Trazado_697497" data-name="Trazado 697497" d="M78.574,127.748l2.067,8.869c.26,1.111,1.972.64,1.712-.471l-2.067-8.869c-.26-1.114-1.972-.643-1.712.471" transform="translate(197.554 318.515)" fill="#6d331f"/>
        <path id="Trazado_697498" data-name="Trazado 697498" d="M78.35,118.2q.8,4.4,1.6,8.795a.892.892,0,0,0,1.09.619.909.909,0,0,0,.622-1.093q-.8-4.4-1.6-8.791a.894.894,0,0,0-1.093-.622.91.91,0,0,0-.619,1.093" transform="translate(197.012 294.473)" fill="#6d331f"/>
        <path id="Trazado_697499" data-name="Trazado 697499" d="M65.376,70.2q.738,4.809,1.476,9.614a.891.891,0,0,0,1.09.619.91.91,0,0,0,.622-1.093q-.738-4.8-1.476-9.61a.9.9,0,0,0-1.1-.622.909.909,0,0,0-.615,1.093" transform="translate(164.385 173.731)" fill="#6d331f"/>
        <path id="Trazado_697500" data-name="Trazado 697500" d="M67.307,69.746v5.6a.888.888,0,0,0,1.775,0v-5.6a.888.888,0,1,0-1.775,0" transform="translate(169.284 173.179)" fill="#6d331f"/>
        <path id="Trazado_697501" data-name="Trazado 697501" d="M68.41,63.618q.411,2,.826,3.993a.894.894,0,0,0,1.093.622.91.91,0,0,0,.619-1.093q-.411-2-.826-3.99a.893.893,0,0,0-1.093-.622.906.906,0,0,0-.619,1.09" transform="translate(171.999 157.179)" fill="#6d331f"/>
        <path id="Trazado_697502" data-name="Trazado 697502" d="M32.421,77.49q.49,3.185.981,6.366a.9.9,0,0,0,1.093.622.913.913,0,0,0,.622-1.093q-.5-3.185-.984-6.366A.9.9,0,0,0,33.04,76.4a.911.911,0,0,0-.619,1.093" transform="translate(81.503 192.076)" fill="#6d331f"/>
        <path id="Trazado_697503" data-name="Trazado 697503" d="M34.016,75.225q.77,2.009,1.536,4.014a.907.907,0,0,0,1.093.619.9.9,0,0,0,.619-1.093q-.765-2-1.536-4.011a.91.91,0,0,0-1.093-.622.9.9,0,0,0-.619,1.093" transform="translate(85.438 186.351)" fill="#6d331f"/>
        <path id="Trazado_697504" data-name="Trazado 697504" d="M32.967,67.924a16.4,16.4,0,0,0,1.469,6.791.893.893,0,0,0,1.216.32.911.911,0,0,0,.316-1.216,14.264,14.264,0,0,1-1.227-5.895.888.888,0,1,0-1.775,0" transform="translate(82.915 168.6)" fill="#6d331f"/>
        <path id="Trazado_697505" data-name="Trazado 697505" d="M40.238,58.339A63.469,63.469,0,0,0,64.053,71.166a47.469,47.469,0,0,0,26.388-.225,40.909,40.909,0,0,0,13.118-6.83c.9-.7-.366-1.954-1.258-1.258a40.873,40.873,0,0,1-23.551,8.278,50.837,50.837,0,0,1-24.922-5.842,66.373,66.373,0,0,1-12.334-8.2c-.872-.728-2.134.52-1.255,1.255" transform="translate(100.454 143.02)" fill="#1b4b5e"/>
        <path id="Trazado_697506" data-name="Trazado 697506" d="M53.051,60.195q.791,2.4,1.585,4.795a.888.888,0,0,0,1.712-.471q-.791-2.4-1.585-4.795a.888.888,0,1,0-1.712.471" transform="translate(133.333 148.553)" fill="#1b4b5e"/>
        <path id="Trazado_697507" data-name="Trazado 697507" d="M54.813,59.753q.77,2.009,1.536,4.014a.907.907,0,0,0,1.093.619.9.9,0,0,0,.619-1.093q-.765-2-1.536-4.011a.91.91,0,0,0-1.093-.622.9.9,0,0,0-.619,1.093" transform="translate(137.744 147.438)" fill="#1b4b5e"/>
        <path id="Trazado_697508" data-name="Trazado 697508" d="M56.224,59.506q.78,1.6,1.564,3.2a.9.9,0,0,0,1.216.32.914.914,0,0,0,.32-1.216q-.786-1.6-1.568-3.2a.892.892,0,0,0-1.213-.32.914.914,0,0,0-.32,1.216" transform="translate(141.135 146.303)" fill="#1b4b5e"/>
        <path id="Trazado_697509" data-name="Trazado 697509" d="M43.962,57.89q-.712,2.025-1.427,4.053a.893.893,0,0,0,.619,1.09.91.91,0,0,0,1.093-.619q.712-2.025,1.427-4.053a.891.891,0,0,0-.619-1.09.905.905,0,0,0-1.093.619" transform="translate(106.882 143.975)" fill="#1b4b5e"/>
        <path id="Trazado_697510" data-name="Trazado 697510" d="M45.648,58.36q-.77,2-1.536,4.014a.89.89,0,0,0,.619,1.09.913.913,0,0,0,1.093-.619q.77-2.009,1.536-4.014a.887.887,0,0,0-.619-1.09.912.912,0,0,0-1.093.619" transform="translate(110.841 145.157)" fill="#1b4b5e"/>
        <path id="Trazado_697511" data-name="Trazado 697511" d="M48.373,87.964q8.974,16.772,17.945,33.534l5.093,9.522c.541,1.009,2.074.112,1.536-.9Q63.973,113.362,55,96.593q-2.547-4.761-5.1-9.522c-.538-1.012-2.074-.112-1.533.893" transform="translate(121.378 217.875)" fill="#1b4b5e"/>
        <path id="Trazado_697512" data-name="Trazado 697512" d="M49.364,92.685l15.326,26.63a.888.888,0,0,0,1.533-.9L50.9,91.789a.888.888,0,0,0-1.533.9" transform="translate(123.839 229.772)" fill="#1b4b5e"/>
        <path id="Trazado_697513" data-name="Trazado 697513" d="M49.558,143.893a76.486,76.486,0,0,0,24.019,9.319c1.114.232,1.592-1.483.471-1.712a75.079,75.079,0,0,1-23.593-9.136.887.887,0,0,0-.9,1.529" transform="translate(123.575 357.726)" fill="#1b4b5e"/>
      </g>
    </g>
  </g>
</svg>
