<svg xmlns="http://www.w3.org/2000/svg" xmlns:xlink="http://www.w3.org/1999/xlink" width="113" height="113" viewBox="0 0 113 113">
  <defs>
    <clipPath id="clip-path">
      <rect id="Rectángulo_344553" data-name="Rectángulo 344553" width="68.156" height="80.137" fill="none"/>
    </clipPath>
  </defs>
  <g id="Grupo_1013502" data-name="Grupo 1013502" transform="translate(-180 -8247)">
    <circle id="Elipse_5329" data-name="Elipse 5329" cx="56.5" cy="56.5" r="56.5" transform="translate(180 8247)" fill="#0098e8"/>
    <g id="Grupo_944413" data-name="Grupo 944413" transform="translate(202 8264)">
      <g id="Grupo_944412" data-name="Grupo 944412" clip-path="url(#clip-path)">
        <path id="Trazado_697120" data-name="Trazado 697120" d="M11.6,23.1H56.559a11.631,11.631,0,0,1,11.6,11.6V79.654a11.631,11.631,0,0,1-11.6,11.6H11.6A11.631,11.631,0,0,1,0,79.654V34.692A11.631,11.631,0,0,1,11.6,23.1" transform="translate(0 -13.967)" fill="#9976ae" fill-rule="evenodd"/>
        <path id="Trazado_697121" data-name="Trazado 697121" d="M45.266,67.595c2.569,8.22,7.565,12.845,16.352,15.06a7.161,7.161,0,0,1,2.339-10.272c3.795-2.094,7.965-4.151,7.956-8.369-.015-6.579-5.012-5.829-2.123-10.09s3.1-11.473-2.134-14.951c-.074-.049-.144-.1-.216-.148-.984-.946-1.685-1.187-.567-3.072,7.371-12.43-14.957-24.576-21.442-14.519a8.548,8.548,0,0,0-8.446-3.6c-2.765.315-9.836,3.2-12.978,8.36-5.222,8.582,2.554,8.431-1.208,12.882a6.062,6.062,0,0,0-1.09,1.089c-.045.038-.091.076-.137.112-4.924,3.872-3.719,9.584-.829,13.846s-2.715,4.324-2.814,9.869c-.1,5.694,5.849,6.792,9.644,8.885s3.59,6.684,1.341,9.977C37.7,80.44,42.7,75.814,45.266,67.595" transform="translate(-10.842 -10.587)" fill="#39271f" fill-rule="evenodd"/>
        <path id="Trazado_697122" data-name="Trazado 697122" d="M43.014,150.193H71.252c0-26.558-21.064-12.229-21.064-34.354H35.736c0,22.125-20.96,7.8-20.96,34.354Z" transform="translate(-8.936 -70.056)" fill="#e4ae7c" fill-rule="evenodd"/>
        <path id="Trazado_697123" data-name="Trazado 697123" d="M40.356,80.581c-.068-.75-3.137-1.636-4.159.818s.818,5.932,4.3,6.2,2.454-.341,2.454-.341Z" transform="translate(-21.721 -48.254)" fill="#e4ae7c" fill-rule="evenodd"/>
        <path id="Trazado_697124" data-name="Trazado 697124" d="M121.306,80.581c.068-.75,3.136-1.636,4.159.818s-.818,5.932-4.295,6.2-2.455-.341-2.455-.341Z" transform="translate(-71.711 -48.254)" fill="#e4ae7c" fill-rule="evenodd"/>
        <path id="Trazado_697125" data-name="Trazado 697125" d="M82.358,114.267s-.039,1.029-.014,2.524c-2.77,6.959-11.369,7.742-14.561.29.035-1.65-.009-2.814-.009-2.814Z" transform="translate(-40.989 -69.106)" fill="#d67f54" fill-rule="evenodd"/>
        <path id="Trazado_697126" data-name="Trazado 697126" d="M59.962,57.737c-18.091.435-27.225-44.177,0-43.034,27.225-1.143,18.091,43.469,0,43.034" transform="translate(-25.884 -8.879)" fill="#e4ae7c" fill-rule="evenodd"/>
        <path id="Trazado_697127" data-name="Trazado 697127" d="M64.079,70.662a.489.489,0,0,1-.973.1,2.1,2.1,0,0,1,.06-.757,2.114,2.114,0,0,1,3.277-1.161,2.111,2.111,0,0,1,.871,1.854.49.49,0,0,1-.977-.065,1.139,1.139,0,0,0-.1-.562,1.12,1.12,0,0,0-.362-.435,1.135,1.135,0,0,0-1.584.254,1.11,1.11,0,0,0-.175.367,1.121,1.121,0,0,0-.034.408" transform="translate(-38.159 -41.391)" fill="#39271f" fill-rule="evenodd"/>
        <path id="Trazado_697128" data-name="Trazado 697128" d="M59.847,83.084c.923.709.964,1.746.091,2.319a3.025,3.025,0,0,1-3.254-.248c-.923-.709-.964-1.747-.09-2.319a3.024,3.024,0,0,1,3.254.248" transform="translate(-33.846 -49.876)" fill="#da9077" fill-rule="evenodd"/>
        <path id="Trazado_697129" data-name="Trazado 697129" d="M105.813,83.084c-.923.709-.964,1.746-.09,2.319a3.025,3.025,0,0,0,3.254-.248c.923-.709.964-1.747.09-2.319a3.024,3.024,0,0,0-3.254.248" transform="translate(-63.557 -49.876)" fill="#da9077" fill-rule="evenodd"/>
        <path id="Trazado_697130" data-name="Trazado 697130" d="M64.446,57.457c-.06-.026-.121-.051-.182-.074a4.671,4.671,0,0,0-2.07-.269,4.584,4.584,0,0,0-1.933.605c-.293.189-1.435,1.114-1.111,1.454a16.873,16.873,0,0,0,1.6-.653,4.542,4.542,0,0,1,1.492-.2,4.01,4.01,0,0,1,1.368.278c.013,0,.1.04.115.049.954.464.868.762,1.518.316,1-.534-.029-1.1-.8-1.505" transform="translate(-35.737 -34.53)" fill="#3f2716" fill-rule="evenodd"/>
        <path id="Trazado_697131" data-name="Trazado 697131" d="M97.949,57.457c.06-.026.121-.051.182-.074a4.672,4.672,0,0,1,2.071-.269,4.588,4.588,0,0,1,1.933.605c.292.189,1.435,1.114,1.111,1.454a16.789,16.789,0,0,1-1.6-.653,4.547,4.547,0,0,0-1.492-.2,4.01,4.01,0,0,0-1.368.278c-.013,0-.1.04-.115.049-.954.464-.868.762-1.518.316-1-.534.029-1.1.8-1.505" transform="translate(-58.501 -34.53)" fill="#3f2716" fill-rule="evenodd"/>
        <path id="Trazado_697132" data-name="Trazado 697132" d="M74.351,93.552q2.5-.031,4.989-.031t4.99.031c0,2.616-2.58,3.55-4.981,3.55h-.018c-2.4,0-4.981-.934-4.981-3.55" transform="translate(-44.966 -56.559)" fill="#fff" fill-rule="evenodd"/>
        <path id="Trazado_697133" data-name="Trazado 697133" d="M83.924,105.97a.2.2,0,0,1,.2-.338,1.924,1.924,0,0,0,.957.238,1.837,1.837,0,0,0,.939-.236.2.2,0,1,1,.2.334,2.23,2.23,0,0,1-1.142.294,2.321,2.321,0,0,1-1.155-.292" transform="translate(-50.697 -63.867)" fill="#d67f54" fill-rule="evenodd"/>
        <path id="Trazado_697134" data-name="Trazado 697134" d="M85.55,76.715a.2.2,0,0,1,0-.392,9.563,9.563,0,0,0,1.467-.078c.358-.06.62-.157.62-.32,0-.564-.572-4.072-.573-4.082a.2.2,0,0,1,.387-.062c0,.01.579,3.555.579,4.143,0,.413-.4.614-.948.706a9.794,9.794,0,0,1-1.532.084" transform="translate(-51.62 -43.312)" fill="#d67f54" fill-rule="evenodd"/>
        <path id="Trazado_697135" data-name="Trazado 697135" d="M127.548,86.092a.2.2,0,1,1-.392,0,1.906,1.906,0,0,0-.268-1.173.467.467,0,0,0-.365-.182,1.077,1.077,0,0,0-.534.164,3.529,3.529,0,0,0-1.342,1.583,7.39,7.39,0,0,0-.334.91,1.393,1.393,0,0,1,.914-.265.873.873,0,0,1,.423.153.692.692,0,0,1,.264.369,1.286,1.286,0,0,1-.271,1.062.2.2,0,0,1-.325-.217.932.932,0,0,0,.22-.732.3.3,0,0,0-.117-.164.477.477,0,0,0-.232-.081,1.08,1.08,0,0,0-.836.352.421.421,0,0,1-.2.126.214.214,0,0,1-.283-.19l0-.01a.678.678,0,0,1,.006-.229,6.142,6.142,0,0,1,.415-1.239,3.949,3.949,0,0,1,1.508-1.767,1.46,1.46,0,0,1,.735-.215.845.845,0,0,1,.66.326,2.247,2.247,0,0,1,.358,1.42" transform="translate(-74.907 -51.01)" fill="#d67f54" fill-rule="evenodd"/>
        <path id="Trazado_697136" data-name="Trazado 697136" d="M39.647,86.092a.2.2,0,1,1-.392,0,2.247,2.247,0,0,1,.357-1.42.847.847,0,0,1,.66-.326,1.46,1.46,0,0,1,.735.215,3.946,3.946,0,0,1,1.507,1.767,6.145,6.145,0,0,1,.416,1.239.677.677,0,0,1,.006.229l0,.01a.214.214,0,0,1-.283.19.42.42,0,0,1-.2-.126,1.08,1.08,0,0,0-.836-.352.477.477,0,0,0-.233.081.3.3,0,0,0-.116.164.93.93,0,0,0,.22.732.2.2,0,1,1-.325.217,1.286,1.286,0,0,1-.27-1.062.692.692,0,0,1,.263-.369.874.874,0,0,1,.423-.153,1.392,1.392,0,0,1,.913.265,7.383,7.383,0,0,0-.334-.91A3.53,3.53,0,0,0,40.815,84.9a1.075,1.075,0,0,0-.534-.164.467.467,0,0,0-.365.182,1.9,1.9,0,0,0-.269,1.173" transform="translate(-23.74 -51.01)" fill="#d67f54" fill-rule="evenodd"/>
        <path id="Trazado_697137" data-name="Trazado 697137" d="M44.484,41.538c-1.824-3.559-1.8-7.535-1.968-9.063-1.682-14.981,7.648-22.1,16.866-21.835.1,0,.193,0,.289-.005v5.871a15.416,15.416,0,0,0-3.9-.89c-.094,0-.187,0-.281-.005s-.186.005-.28.005c-2.124,0-3.179,3.542-5.624,4.5-1.4.549-.06,7.029-1.509,10.29a10.791,10.791,0,0,1-2.637,2.856c-1.254,1.277-1.385,2.709-.961,8.276" transform="translate(-25.593 -6.431)" fill="#462917" fill-rule="evenodd"/>
        <path id="Trazado_697138" data-name="Trazado 697138" d="M101.412,41.538c1.824-3.559,1.8-7.535,1.968-9.063,1.682-14.981-7.648-22.1-16.866-21.835-.1,0-.193,0-.289-.005v5.871a15.407,15.407,0,0,1,3.895-.89c.094,0,.187,0,.28-.005s.186.005.28.005c2.124,0,3.18,4.528,5.624,5.486,1.4.549.06,6.043,1.509,9.3a10.79,10.79,0,0,0,2.637,2.856c1.254,1.277,1.385,2.709.961,8.276" transform="translate(-52.147 -6.431)" fill="#462917" fill-rule="evenodd"/>
        <path id="Trazado_697139" data-name="Trazado 697139" d="M53.282,191.467H74.81l-1.195-7.381H32.949l-1.195,7.381Z" transform="translate(-19.204 -111.33)" fill="#2e1e11" fill-rule="evenodd"/>
        <path id="Trazado_697140" data-name="Trazado 697140" d="M36.2,165.85a.833.833,0,0,1-1.665-.052l1.659-12.108a.833.833,0,0,1,1.665.053Z" transform="translate(-20.884 -92.46)" fill="#2e1e11" fill-rule="evenodd"/>
        <path id="Trazado_697141" data-name="Trazado 697141" d="M131.164,165.85a.833.833,0,0,0,1.665-.052l-1.658-12.108a.833.833,0,0,0-1.665.053Z" transform="translate(-78.321 -92.46)" fill="#2e1e11" fill-rule="evenodd"/>
        <path id="Trazado_697142" data-name="Trazado 697142" d="M99.9,70.662a.489.489,0,0,1-.973.1,2.112,2.112,0,1,1,4.208-.064.49.49,0,0,1-.977-.065,1.143,1.143,0,0,0-.1-.562,1.135,1.135,0,0,0-2.122.186,1.139,1.139,0,0,0-.034.408" transform="translate(-59.824 -41.391)" fill="#39271f" fill-rule="evenodd"/>
        <path id="Trazado_697143" data-name="Trazado 697143" d="M57.893,14.617c8.182-5.7,4.658,4.41,11.568,4.436,3.44.013,6.59,1.4,6.533,4.321s-.077,4.211,3.078,5.726c6.115,2.936-5.555,13.054,9.761,13.618-1.6-7.394,6-9.785,3.426-16.2s-7.54-4.545-6.457-8.529c.852-3.135,1.209-6.527-1.043-8.938-3.252-3.484-6.469.066-8.552-3.287C74.462,2.949,73.439-1.223,66.056.341c-9.4,1.992-9.8,9.5-8.163,14.276" transform="translate(-34.563 0)" fill="#623a1c" fill-rule="evenodd"/>
        <path id="Trazado_697144" data-name="Trazado 697144" d="M61.156,25.369a.2.2,0,1,1-.319-.225,4.2,4.2,0,0,1,1.945-1.232,5.885,5.885,0,0,1,2.045-.34,3.562,3.562,0,0,1,1.995.612,3.336,3.336,0,0,1,1.211,1.683c.608,1.749,1.171,2.72,1.951,3.265a6.243,6.243,0,0,0,3.322.756,11.684,11.684,0,0,1,4.984,1.173,5.262,5.262,0,0,1,2.779,4.777c.077,2.348.353,3.655.858,4.448a3.662,3.662,0,0,0,2.225,1.391c.074.024.141.047.2.07a3.34,3.34,0,0,1,2.066,1.885,5.2,5.2,0,0,1-.129,3.533q-.07.216-.147.423a7.579,7.579,0,0,0-.489,4.023,3,3,0,0,0,1.679,2.32.2.2,0,1,1-.153.36,3.381,3.381,0,0,1-1.91-2.6,7.965,7.965,0,0,1,.505-4.234c.053-.145.1-.28.142-.408a4.828,4.828,0,0,0,.139-3.268,2.966,2.966,0,0,0-1.839-1.662c-.067-.025-.129-.047-.186-.065A3.973,3.973,0,0,1,81.6,40.495c-.545-.854-.84-2.22-.919-4.646A4.9,4.9,0,0,0,78.1,31.4a11.323,11.323,0,0,0-4.812-1.124,6.531,6.531,0,0,1-3.527-.826c-.855-.6-1.46-1.624-2.1-3.456A2.95,2.95,0,0,0,66.6,24.5a3.176,3.176,0,0,0-1.779-.54,5.493,5.493,0,0,0-1.906.318,3.824,3.824,0,0,0-1.754,1.088" transform="translate(-36.771 -14.255)" fill="#774d30" fill-rule="evenodd"/>
        <path id="Trazado_697145" data-name="Trazado 697145" d="M66.334,12.072a.2.2,0,0,1-.172-.353,7.628,7.628,0,0,1,1.29-.478,8.061,8.061,0,0,1,3.52-.217,3.683,3.683,0,0,1,2.789,1.965,3.881,3.881,0,0,1,.251.67,5.25,5.25,0,0,0,2.267,3.193,5.986,5.986,0,0,0,4.055.713,6.509,6.509,0,0,1,.969-.07,8.289,8.289,0,0,1,4.006,1.048,4.568,4.568,0,0,1,2.416,3.246,4.275,4.275,0,0,1,.047.639c0,.649-.017,1.28-.032,1.855-.063,2.35-.1,3.731,1.233,4.515l.315.183h0c2.081,1.2,7.2,4.157,5.373,8.929-1.879,4.9-2.31,5.445-2.311,5.447a.2.2,0,0,1-.311-.238s.4-.5,2.256-5.348c1.708-4.461-3.206-7.3-5.2-8.451l-.317-.185c-1.532-.9-1.493-2.367-1.426-4.862.015-.547.031-1.147.031-1.846a3.893,3.893,0,0,0-.043-.581,4.191,4.191,0,0,0-2.223-2.967,7.893,7.893,0,0,0-3.812-.994,6.135,6.135,0,0,0-.911.065,6.372,6.372,0,0,1-4.318-.769,5.631,5.631,0,0,1-2.438-3.421,3.54,3.54,0,0,0-.226-.6A3.308,3.308,0,0,0,70.9,11.409a7.663,7.663,0,0,0-3.344.209,7.2,7.2,0,0,0-1.223.454" transform="translate(-39.946 -6.602)" fill="#774d30" fill-rule="evenodd"/>
      </g>
    </g>
  </g>
</svg>
