<svg xmlns="http://www.w3.org/2000/svg" xmlns:xlink="http://www.w3.org/1999/xlink" width="113" height="113" viewBox="0 0 113 113">
  <defs>
    <clipPath id="clip-path">
      <rect id="Rectángulo_344556" data-name="Rectángulo 344556" width="68.156" height="73.299" fill="none"/>
    </clipPath>
  </defs>
  <g id="Grupo_1013498" data-name="Grupo 1013498" transform="translate(-180 -7742)">
    <circle id="Elipse_5223" data-name="Elipse 5223" cx="56.5" cy="56.5" r="56.5" transform="translate(180 7742)" fill="#0098e8"/>
    <g id="Grupo_944419" data-name="Grupo 944419" transform="translate(202 7762)">
      <g id="Grupo_944418" data-name="Grupo 944418" clip-path="url(#clip-path)">
        <path id="Trazado_697215" data-name="Trazado 697215" d="M11.6,5.053H56.559a11.631,11.631,0,0,1,11.6,11.6V61.612a11.631,11.631,0,0,1-11.6,11.6H11.6A11.63,11.63,0,0,1,0,61.612V16.65a11.631,11.631,0,0,1,11.6-11.6" transform="translate(0 -3.056)" fill="#d68119" fill-rule="evenodd"/>
        <path id="Trazado_697216" data-name="Trazado 697216" d="M43.285,131.2H15.23c-.325-14.346,10.713-22.674,20.19-25.781a48.734,48.734,0,0,0,.573-9.194H50.576a48.772,48.772,0,0,0,.573,9.194c9.478,3.108,20.515,11.436,20.191,25.781Z" transform="translate(-9.207 -58.194)" fill="#e4ae7c" fill-rule="evenodd"/>
        <path id="Trazado_697217" data-name="Trazado 697217" d="M82.306,104.231c-.912,1.745-4.095,3.41-7.389,3.437-3.183.027-6.479-1.526-7.39-3.2.092-1.316.122-2.556.127-3.512h14.54c0,.9.032,2.05.111,3.28" transform="translate(-40.838 -61.052)" fill="#d67f54" fill-rule="evenodd"/>
        <path id="Trazado_697218" data-name="Trazado 697218" d="M40.355,65.9c-.068-.75-3.137-1.637-4.159.818s.818,5.932,4.3,6.2,2.455-.341,2.455-.341Z" transform="translate(-21.72 -39.375)" fill="#e4ae7c" fill-rule="evenodd"/>
        <path id="Trazado_697219" data-name="Trazado 697219" d="M43.285,144.337H15.23c-.263-11.627,6.937-19.3,14.721-23.446q.553-.28,1.043-.533a34.583,34.583,0,0,1,4.425-1.8c.038-.2.074-.4.108-.609a19.545,19.545,0,0,0,15.544.185q.037.213.077.423a34.5,34.5,0,0,1,4.37,1.776c.356.185.74.38,1.147.585,7.766,4.152,14.936,11.818,14.674,23.42H43.285Z" transform="translate(-9.207 -71.331)" fill="#575756" fill-rule="evenodd"/>
        <path id="Trazado_697220" data-name="Trazado 697220" d="M121.306,65.9c.068-.75,3.136-1.637,4.159.818s-.818,5.932-4.3,6.2-2.454-.341-2.454-.341Z" transform="translate(-71.71 -39.375)" fill="#e4ae7c" fill-rule="evenodd"/>
        <path id="Trazado_697221" data-name="Trazado 697221" d="M59.962,43.056c-18.091.436-27.225-44.177,0-43.034,27.225-1.143,18.091,43.47,0,43.034" transform="translate(-25.884 0)" fill="#e4ae7c" fill-rule="evenodd"/>
        <path id="Trazado_697222" data-name="Trazado 697222" d="M127.548,71.411a.2.2,0,0,1-.392,0,1.908,1.908,0,0,0-.268-1.174.469.469,0,0,0-.365-.182,1.075,1.075,0,0,0-.534.164,3.525,3.525,0,0,0-1.342,1.583,7.4,7.4,0,0,0-.335.91,1.393,1.393,0,0,1,.914-.265.869.869,0,0,1,.423.153.69.69,0,0,1,.263.37,1.286,1.286,0,0,1-.27,1.062.2.2,0,1,1-.325-.218.931.931,0,0,0,.221-.732.308.308,0,0,0-.117-.164.479.479,0,0,0-.232-.081,1.08,1.08,0,0,0-.836.352.419.419,0,0,1-.2.125.214.214,0,0,1-.283-.189l0-.01a.678.678,0,0,1,.005-.229,6.128,6.128,0,0,1,.416-1.238,3.944,3.944,0,0,1,1.507-1.767,1.456,1.456,0,0,1,.735-.215.847.847,0,0,1,.66.326,2.247,2.247,0,0,1,.358,1.421" transform="translate(-74.906 -42.131)" fill="#d67f54" fill-rule="evenodd"/>
        <path id="Trazado_697223" data-name="Trazado 697223" d="M39.647,71.411a.2.2,0,1,1-.392,0,2.25,2.25,0,0,1,.357-1.421.847.847,0,0,1,.661-.326,1.456,1.456,0,0,1,.735.215,3.938,3.938,0,0,1,1.507,1.767,6.108,6.108,0,0,1,.416,1.238.679.679,0,0,1,.006.229l0,.01a.214.214,0,0,1-.283.189.414.414,0,0,1-.2-.125,1.08,1.08,0,0,0-.837-.352.478.478,0,0,0-.232.081.3.3,0,0,0-.117.164.928.928,0,0,0,.22.732.2.2,0,1,1-.324.218,1.285,1.285,0,0,1-.271-1.062.694.694,0,0,1,.263-.37.869.869,0,0,1,.423-.153,1.393,1.393,0,0,1,.914.265,7.391,7.391,0,0,0-.334-.91,3.53,3.53,0,0,0-1.342-1.583,1.078,1.078,0,0,0-.534-.164.469.469,0,0,0-.365.182,1.9,1.9,0,0,0-.269,1.174" transform="translate(-23.74 -42.131)" fill="#d67f54" fill-rule="evenodd"/>
        <path id="Trazado_697224" data-name="Trazado 697224" d="M34.35,163.73a.293.293,0,1,1,.586,0l-.072,8.117a.293.293,0,0,1-.587,0Z" transform="translate(-20.73 -98.843)" fill="#383546" fill-rule="evenodd"/>
        <path id="Trazado_697225" data-name="Trazado 697225" d="M136.576,163.73a.293.293,0,1,1,.586,0l-.072,8.117a.293.293,0,0,1-.587,0Z" transform="translate(-82.554 -98.843)" fill="#383546" fill-rule="evenodd"/>
        <path id="Trazado_697226" data-name="Trazado 697226" d="M43.9,53.8c.238-.937.636-3.649.658-3.226.426,8.244,3.655,13.653,6.631,16.022,2.939,2.339-1.635-5.8,9.14-5.689.1,0,.2,0,.3,0s.2,0,.3,0c10.775-.109,6.2,8.027,9.14,5.689,2.976-2.369,6.2-7.778,6.631-16.022.022-.423.421,2.288.658,3.226-1.7,10.271-8.224,20.018-16.727,19.814-8.5.2-15.026-9.543-16.726-19.814" transform="translate(-26.551 -30.561)" fill="#784928" fill-rule="evenodd"/>
        <path id="Trazado_697227" data-name="Trazado 697227" d="M43.875,26.24a13.029,13.029,0,0,0,.334-3.715c-.033-2.406,3.3-3.591,2.9-7.039C45.943,5.367,53.783,8.795,59.964,8.8V.022C44.281-.636,40.665,13.889,43.875,26.24" transform="translate(-25.886 0)" fill="#784928" fill-rule="evenodd"/>
        <path id="Trazado_697228" data-name="Trazado 697228" d="M102.366,26.022a17.341,17.341,0,0,1-.388-3.5c-.092-2.4-3.3-3.591-2.9-7.039C100.244,5.367,92.4,8.795,86.223,8.8V.022c15.592-.654,19.255,13.7,16.143,26" transform="translate(-52.145 0)" fill="#784928" fill-rule="evenodd"/>
        <path id="Trazado_697229" data-name="Trazado 697229" d="M66.907,56.078a1.621,1.621,0,1,1-2.265.364,1.617,1.617,0,0,1,2.265-.364" transform="translate(-38.907 -33.729)" fill="#20201e" fill-rule="evenodd"/>
        <path id="Trazado_697230" data-name="Trazado 697230" d="M100.829,56.078a1.621,1.621,0,1,0,2.266.364,1.617,1.617,0,0,0-2.266-.364" transform="translate(-60.572 -33.729)" fill="#20201e" fill-rule="evenodd"/>
        <path id="Trazado_697231" data-name="Trazado 697231" d="M59.847,70.491c.923.709.964,1.747.09,2.319a3.025,3.025,0,0,1-3.254-.249c-.923-.709-.964-1.747-.09-2.318a3.025,3.025,0,0,1,3.254.248" transform="translate(-33.845 -42.26)" fill="#da9077" fill-rule="evenodd"/>
        <path id="Trazado_697232" data-name="Trazado 697232" d="M105.812,70.491c-.924.709-.964,1.747-.091,2.319a3.025,3.025,0,0,0,3.254-.249c.923-.709.964-1.747.09-2.318a3.024,3.024,0,0,0-3.253.248" transform="translate(-63.557 -42.26)" fill="#da9077" fill-rule="evenodd"/>
        <path id="Trazado_697233" data-name="Trazado 697233" d="M64.446,44.863c-.06-.026-.121-.051-.182-.075a4.671,4.671,0,0,0-2.07-.269,4.588,4.588,0,0,0-1.933.606c-.292.189-1.435,1.113-1.111,1.454a16.991,16.991,0,0,0,1.6-.654,4.535,4.535,0,0,1,1.492-.2A4,4,0,0,1,63.614,46c.013,0,.1.04.115.048.954.464.868.762,1.518.316,1-.533-.029-1.1-.8-1.505" transform="translate(-35.737 -26.914)" fill="#3f2716" fill-rule="evenodd"/>
        <path id="Trazado_697234" data-name="Trazado 697234" d="M97.95,44.863c.06-.026.121-.051.182-.075a4.67,4.67,0,0,1,2.07-.269,4.585,4.585,0,0,1,1.933.606c.292.189,1.435,1.113,1.111,1.454a17.032,17.032,0,0,1-1.6-.654,4.537,4.537,0,0,0-1.493-.2A4,4,0,0,0,98.782,46c-.013,0-.1.04-.115.048-.954.464-.868.762-1.518.316-1-.533.029-1.1.8-1.505" transform="translate(-58.502 -26.914)" fill="#3f2716" fill-rule="evenodd"/>
        <path id="Trazado_697235" data-name="Trazado 697235" d="M83.924,93.377a.2.2,0,0,1,.2-.337,1.924,1.924,0,0,0,.957.237,1.84,1.84,0,0,0,.939-.236.2.2,0,1,1,.2.334,2.234,2.234,0,0,1-1.142.293,2.318,2.318,0,0,1-1.155-.292" transform="translate(-50.697 -56.252)" fill="#d67f54" fill-rule="evenodd"/>
        <path id="Trazado_697236" data-name="Trazado 697236" d="M85.55,68.173a.2.2,0,1,1,0-.392,9.57,9.57,0,0,0,1.467-.078c.357-.061.619-.158.619-.32,0-.564-.571-4.072-.573-4.082a.2.2,0,1,1,.387-.061c0,.01.579,3.555.579,4.143,0,.413-.4.613-.948.706a9.8,9.8,0,0,1-1.532.084" transform="translate(-51.62 -38.146)" fill="#d67f54" fill-rule="evenodd"/>
        <path id="Trazado_697237" data-name="Trazado 697237" d="M58.539,47.059a5.8,5.8,0,1,1-4.1,1.7,5.779,5.779,0,0,1,4.1-1.7m3.406,2.392a4.818,4.818,0,1,0,1.411,3.406,4.8,4.8,0,0,0-1.411-3.406" transform="translate(-31.896 -28.46)" fill="#2e1e11" fill-rule="evenodd"/>
        <path id="Trazado_697238" data-name="Trazado 697238" d="M96.166,47.059a5.8,5.8,0,1,1-4.1,1.7,5.78,5.78,0,0,1,4.1-1.7m3.406,2.392a4.818,4.818,0,1,0,1.411,3.406,4.8,4.8,0,0,0-1.411-3.406" transform="translate(-54.652 -28.46)" fill="#2e1e11" fill-rule="evenodd"/>
        <path id="Trazado_697239" data-name="Trazado 697239" d="M47.863,60.494a.391.391,0,0,1,.264.736l-3.453,1.244a.391.391,0,0,1-.263-.736Z" transform="translate(-26.701 -36.571)" fill="#2e1e11" fill-rule="evenodd"/>
        <path id="Trazado_697240" data-name="Trazado 697240" d="M117.879,61.23a.391.391,0,1,1,.264-.736l3.453,1.243a.391.391,0,0,1-.264.736Z" transform="translate(-71.133 -36.571)" fill="#2e1e11" fill-rule="evenodd"/>
        <path id="Trazado_697241" data-name="Trazado 697241" d="M79.945,58.237a.391.391,0,0,1-.668-.407,3.82,3.82,0,0,1,5.422,0,.391.391,0,0,1-.668.407s-.44-.751-2.043-.751-2.042.749-2.043.751" transform="translate(-47.91 -34.291)" fill="#2e1e11" fill-rule="evenodd"/>
        <path id="Trazado_697242" data-name="Trazado 697242" d="M82.971,80.674c-2.463.915-9.949.9-12.273.11,1.284,4.679,11.024,4.6,12.273-.11" transform="translate(-42.756 -48.789)" fill="#fff" fill-rule="evenodd"/>
        <path id="Trazado_697243" data-name="Trazado 697243" d="M47.035,9.057a11.6,11.6,0,0,0,4.678-.2c2.574-1.36,5.4.387,10.811.342,2.472,0,9.042-.539,11.317-3.213,1.131-1.328.536.979-1.662,2.477a13.226,13.226,0,0,0,5.86.656C75.713,3.56,70.8-.326,62.524.022,54.276-.324,49.371,3.531,47.035,9.057" transform="translate(-28.445 0)" fill="#231a11" fill-rule="evenodd"/>
        <path id="Trazado_697244" data-name="Trazado 697244" d="M60.5,120.361a.588.588,0,0,1,1.177,0,21.213,21.213,0,0,0,3,10.55c1.63,2.664,3.762,4.515,5.992,4.515,2.274,0,4.44-1.805,6.078-4.483a20.984,20.984,0,0,0,2.912-10.582.588.588,0,0,1,1.177,0,22.21,22.21,0,0,1-3.086,11.193c-1.845,3.015-4.36,5.049-7.081,5.049-2.684,0-5.16-2.083-6.995-5.081A22.445,22.445,0,0,1,60.5,120.361" transform="translate(-36.588 -72.435)" fill="#d57b19" fill-rule="evenodd"/>
      </g>
    </g>
  </g>
</svg>
