<svg xmlns="http://www.w3.org/2000/svg" xmlns:xlink="http://www.w3.org/1999/xlink" width="100" height="99" viewBox="0 0 100 99">
  <defs>
    <filter id="Elipse_7780" x="0" y="0" width="100" height="99" filterUnits="userSpaceOnUse">
      <feOffset dy="3" input="SourceAlpha"/>
      <feGaussianBlur stdDeviation="3" result="blur"/>
      <feFlood flood-opacity="0.161"/>
      <feComposite operator="in" in2="blur"/>
      <feComposite in="SourceGraphic"/>
    </filter>
  </defs>
  <g id="Grupo_1013497" data-name="Grupo 1013497" transform="translate(-1037.5 -1119)">
    <g transform="matrix(1, 0, 0, 1, 1037.5, 1119)" filter="url(#Elipse_7780)">
      <ellipse id="Elipse_7780-2" data-name="Elipse 7780" cx="41" cy="40.5" rx="41" ry="40.5" transform="translate(9 6)" fill="#0098e8"/>
    </g>
    <g id="conversacion_1_" data-name="conversacion (1)" transform="translate(1050.501 1128.5)">
      <g id="Grupo_1006187" data-name="Grupo 1006187" transform="translate(2.145 2.145)">
        <g id="Grupo_1006173" data-name="Grupo 1006173" transform="translate(3.435 43.447)">
          <path id="Trazado_715920" data-name="Trazado 715920" d="M20.769,47.143l1.409-1.409L27.9,51.46,16.062,63.3A6.482,6.482,0,0,1,5,58.721v-10.7A11.42,11.42,0,0,1,8.344,39.94l6.963,5.795,1.89-3.79a12.24,12.24,0,0,1,2.222,2.508,12.877,12.877,0,0,1,1.351,2.691Z" transform="translate(-5 -39.94)" fill="#ff507d"/>
        </g>
        <g id="Grupo_1006174" data-name="Grupo 1006174" transform="translate(6.779 42.371)">
          <path id="Trazado_715921" data-name="Trazado 715921" d="M9.157,39l1.592.263A12.271,12.271,0,0,1,16.028,41.5a9.286,9.286,0,0,1,.744.584l-1.89,3.79L7.92,40.076A10.164,10.164,0,0,1,9.157,39Z" transform="translate(-7.92 -39)" fill="#d23c69"/>
        </g>
        <g id="Grupo_1006175" data-name="Grupo 1006175" transform="translate(20.613 45.806)">
          <path id="Trazado_715922" data-name="Trazado 715922" d="M29.161,46.054a4.049,4.049,0,0,1-1.191,2.863l-2.245,2.245L20,45.435l2.245-2.245a4.054,4.054,0,0,1,6.917,2.863Z" transform="translate(-20 -42)" fill="#f0d0b4"/>
        </g>
        <g id="Grupo_1006176" data-name="Grupo 1006176" transform="translate(0 16.032)">
          <path id="Trazado_715923" data-name="Trazado 715923" d="M13.2,24.657l-.011.011-2.027,5.073a2.246,2.246,0,0,0-1.626.676,2.276,2.276,0,0,0-.664,1.615,2.756,2.756,0,0,0,.813,1.958l1.477,1.477-.8,4.833L5.023,35.765A8.624,8.624,0,0,1,2,29.192v-.458a12.794,12.794,0,0,1,.79-4.42,12.6,12.6,0,0,1,2.279-3.871,12.465,12.465,0,0,1,4.18-3.2A12.563,12.563,0,0,1,14.711,16h7.9a1.149,1.149,0,0,1,1.145,1.145v2.29a5.741,5.741,0,0,1-5.726,5.726h-3.31A2.484,2.484,0,0,1,13.2,24.657Z" transform="translate(-2 -16)" fill="#b27946"/>
        </g>
        <g id="Grupo_1006177" data-name="Grupo 1006177" transform="translate(6.871 23.636)">
          <path id="Trazado_715924" data-name="Trazado 715924" d="M21.261,36.794a5.73,5.73,0,0,1-5.245,3.435v3.642a12.271,12.271,0,0,0-5.279-2.233l-1.592-.263.344-2.038.8-4.833L8.813,33.027A2.756,2.756,0,0,1,8,31.068a2.276,2.276,0,0,1,.664-1.615,2.246,2.246,0,0,1,1.626-.676L12.317,23.7l.011-.011a2.484,2.484,0,0,0,1.523.5h3.31a5.652,5.652,0,0,0,3.916-1.557,21.045,21.045,0,0,1,2.955,10.719h-2.29V34.5a5.658,5.658,0,0,1-.481,2.29Z" transform="translate(-8 -22.64)" fill="#f0d0b4"/>
        </g>
        <g id="Grupo_1006178" data-name="Grupo 1006178" transform="translate(6.871)">
          <path id="Trazado_715925" data-name="Trazado 715925" d="M38.919,2H10.29A2.3,2.3,0,0,0,8,4.29V18.032a2.274,2.274,0,0,0,.366,1.237l.011.011a12.563,12.563,0,0,1,5.462-1.248h7.9a1.149,1.149,0,0,1,1.145,1.145v1.145h3.435l4.111,4.111a1.62,1.62,0,0,0,2.76-1.145V20.323h5.726a2.3,2.3,0,0,0,2.29-2.29V4.29A2.3,2.3,0,0,0,38.919,2Z" transform="translate(-8 -2)" fill="#e6e9ed"/>
        </g>
        <g id="Grupo_1006179" data-name="Grupo 1006179" transform="translate(32.065 11.452)">
          <path id="Trazado_715926" data-name="Trazado 715926" d="M59.774,14.29v3.665a12.5,12.5,0,0,0-5.726-1.374h-2.29A10.307,10.307,0,0,0,41.452,26.887v3.435l-1.821,1.821A1.62,1.62,0,0,1,36.871,31V28.032H32.29A2.3,2.3,0,0,1,30,25.742V18.871h5.726a2.3,2.3,0,0,0,2.29-2.29V12H57.484A2.3,2.3,0,0,1,59.774,14.29Z" transform="translate(-30 -12)" fill="#ffeaa7"/>
        </g>
        <g id="Grupo_1006180" data-name="Grupo 1006180" transform="translate(27.484 27.484)">
          <path id="Trazado_715927" data-name="Trazado 715927" d="M42.3,35.161a13.626,13.626,0,0,0,1.8,4.581H39.742v2.966a1.62,1.62,0,0,1-2.76,1.145l-4.111-4.111H28.29A2.3,2.3,0,0,1,26,37.452V28.29A2.3,2.3,0,0,1,28.29,26h9.161v2.966a1.62,1.62,0,0,0,2.76,1.145l1.821-1.821V32.5A13.574,13.574,0,0,0,42.3,35.161Z" transform="translate(-26 -26)" fill="#e6e9ed"/>
        </g>
        <g id="Grupo_1006181" data-name="Grupo 1006181" transform="translate(43.516 16.032)">
          <path id="Trazado_715928" data-name="Trazado 715928" d="M65.194,37.323A32.039,32.039,0,0,1,62.9,49.21a11.444,11.444,0,0,0-4.581-9.161l-1.145-6.871L58.655,31.7a2.756,2.756,0,0,0,.813-1.958,2.3,2.3,0,0,0-2.29-2.29l-.389-.779a6.873,6.873,0,0,0-6.15-3.8H48.016a3.431,3.431,0,0,0-3.435,3.435v6.871A5.724,5.724,0,0,0,50.306,38.9h1.145v3.653a12.141,12.141,0,0,0-2.989,3.126A7.533,7.533,0,0,0,48,46.45a13.793,13.793,0,0,1-8-12.494v-7.65A10.307,10.307,0,0,1,50.306,16H52.6a12.591,12.591,0,0,1,12.6,12.6Z" transform="translate(-40 -16)" fill="#656d78"/>
        </g>
        <g id="Grupo_1006182" data-name="Grupo 1006182" transform="translate(52.677 62.95)">
          <path id="Trazado_715929" data-name="Trazado 715929" d="M60.6,62.73H48l1.145-4.581H56.05a5.714,5.714,0,0,0,3.47-1.18A50.486,50.486,0,0,0,60.6,62.73Z" transform="translate(-48 -56.97)" fill="#fcd770"/>
        </g>
        <g id="Grupo_1006183" data-name="Grupo 1006183" transform="translate(50.387 40.081)">
          <path id="Trazado_715930" data-name="Trazado 715930" d="M55.161,51.887v2.29H48.29l-.7-1.054a9.424,9.424,0,0,1-.458-9.722,7.532,7.532,0,0,1,.458-.767,12.141,12.141,0,0,1,2.989-3.126V39.5a12.512,12.512,0,0,1,5.325-2.233L57.452,37a11.444,11.444,0,0,1,4.581,9.161v5.726Z" transform="translate(-46 -37)" fill="#fcd770"/>
        </g>
        <g id="Grupo_1006184" data-name="Grupo 1006184" transform="translate(41.226 54.968)">
          <path id="Trazado_715931" data-name="Trazado 715931" d="M63.194,50v3.47A5.69,5.69,0,0,1,57.5,59.161H41.424a3.435,3.435,0,0,1,.011-6.871H56.323V50Z" transform="translate(-38 -50)" fill="#f0d0b4"/>
        </g>
        <g id="Grupo_1006185" data-name="Grupo 1006185" transform="translate(48.097 22.903)">
          <path id="Trazado_715932" data-name="Trazado 715932" d="M56.6,26.581a2.3,2.3,0,0,1,2.29,2.29,2.756,2.756,0,0,1-.813,1.958L56.6,32.306l1.145,6.871-1.546.263a12.512,12.512,0,0,0-5.325,2.233V38.032H49.726A5.73,5.73,0,0,1,44.973,35.5l.275-.069a4.406,4.406,0,0,0,3.332-4.271H44V25.435A3.431,3.431,0,0,1,47.435,22h2.622a6.873,6.873,0,0,1,6.15,3.8Z" transform="translate(-44 -22)" fill="#f0d0b4"/>
        </g>
        <g id="Grupo_1006186" data-name="Grupo 1006186" transform="translate(48.097 32.065)">
          <path id="Trazado_715933" data-name="Trazado 715933" d="M44,30h4.581a4.406,4.406,0,0,1-3.332,4.271l-.275.069A5.688,5.688,0,0,1,44,31.145Z" transform="translate(-44 -30)" fill="#ff826e"/>
        </g>
      </g>
      <g id="Grupo_1006188" data-name="Grupo 1006188" transform="translate(0.999 1)">
        <path id="Trazado_715934" data-name="Trazado 715934" d="M72,30.774a13.74,13.74,0,0,0-6.871-11.883v-3a3.44,3.44,0,0,0-3.435-3.435H43.371V4.435A3.44,3.44,0,0,0,39.936,1H11.307A3.44,3.44,0,0,0,7.871,4.435V18.177a3.406,3.406,0,0,0,.082.709A13.825,13.825,0,0,0,1,30.906v.465a9.794,9.794,0,0,0,3.429,7.448l4.836,4.113-.164.985a12.642,12.642,0,0,0-4.664,9.759v10.7a7.623,7.623,0,0,0,13.014,5.39L31.544,55.672A5.194,5.194,0,0,0,24.2,48.327L21.728,50.8a13.429,13.429,0,0,0-3.551-4.349V44.421A6.883,6.883,0,0,0,23.9,37.645h2.29V36.5a22.452,22.452,0,0,0-2.687-10.558,6.84,6.84,0,0,0,1.541-4.329h1.817l3.771,3.771a2.784,2.784,0,0,0,1.955.81,2.694,2.694,0,0,0,.474-.048v1.193a3.4,3.4,0,0,0,.211,1.145H31.92a3.44,3.44,0,0,0-3.435,3.435v9.161a3.44,3.44,0,0,0,3.435,3.435h4.107L39.8,48.287a2.764,2.764,0,0,0,4.719-1.955V44.516h2.6a14.877,14.877,0,0,0,5.063,4.638,10.453,10.453,0,0,0,.545,9.1H46.808a4.581,4.581,0,0,0-.008,9.161h7.7L53.355,72H68.885l-.356-1.422c-.007-.03-.693-2.79-.984-5.018a6.816,6.816,0,0,0,2.163-4.98V51.592A33.009,33.009,0,0,0,72,39.5V30.774Zm-66.086,6.3a7.5,7.5,0,0,1-2.625-5.705v-.465A11.578,11.578,0,0,1,14.861,19.323h7.9v2.29a4.585,4.585,0,0,1-4.581,4.581H14.865a1.237,1.237,0,0,1-1.208-.758,1.164,1.164,0,0,1,.164-1.067,1.134,1.134,0,0,1,.921-.465h1.145v-2.29H14.741a3.443,3.443,0,0,0-3.274,4.495,3.164,3.164,0,0,0,.529,1l-1.5,3.761A3.44,3.44,0,0,0,7.87,34.21a3.884,3.884,0,0,0,1.145,2.764l1.064,1.064L9.7,40.3ZM16.332,47.936l-.823,1.646-4.521-3.768.583.1A11.226,11.226,0,0,1,16.332,47.936ZM27.871,49.1a2.9,2.9,0,0,1,2.053,4.956l-1.441,1.441-4.107-4.107,1.441-1.441a2.885,2.885,0,0,1,2.053-.85Zm-7.864,3.421L13.6,58.929V53.677h-2.29v7.543L9.352,63.174l1.619,1.619L22.758,53.006l4.107,4.107L15.83,68.148a5.333,5.333,0,0,1-9.1-3.771v-10.7a10.348,10.348,0,0,1,2.324-6.5l7.216,6.011,1.829-3.657a11.069,11.069,0,0,1,.95,1.209A11.308,11.308,0,0,1,20.008,52.517Zm1.6-17.163v2.29a4.511,4.511,0,0,1-.163,1.145h-.712a2.983,2.983,0,0,1-2.682-1.657l-2.049,1.025a5.255,5.255,0,0,0,4.077,2.878,4.541,4.541,0,0,1-3.052,1.19H15.886v2.737a13.442,13.442,0,0,0-3.941-1.31l-.467-.078,1.055-6.322-1.9-1.9a1.61,1.61,0,0,1-.476-1.146,1.146,1.146,0,0,1,1.145-1.145h.775l1.882-4.7a3.733,3.733,0,0,0,.9.12h3.313a6.819,6.819,0,0,0,3.55-1,20.114,20.114,0,0,1,2.141,7.871Zm10.643-11.59-4.442-4.442H25.047a2.293,2.293,0,0,0-2.29-2.29h-7.9a13.837,13.837,0,0,0-4.7.834V4.435A1.146,1.146,0,0,1,11.305,3.29H39.934A1.146,1.146,0,0,1,41.08,4.435V18.177a1.146,1.146,0,0,1-1.145,1.145H33.064v4.107a.492.492,0,0,1-.808.336Zm3.1,3.574V21.613h4.581a3.44,3.44,0,0,0,3.435-3.435V14.742H61.694a1.146,1.146,0,0,1,1.145,1.145v1.947a13.653,13.653,0,0,0-4.581-.8h-2.29A11.465,11.465,0,0,0,44.516,28.484v2.961l-1.481,1.481a.493.493,0,0,1-.81-.336V28.484H36.5A1.146,1.146,0,0,1,35.355,27.339Zm6.871,14.887v4.107a.493.493,0,0,1-.81.336l-4.442-4.442H31.92a1.146,1.146,0,0,1-1.145-1.145V31.919a1.146,1.146,0,0,1,1.145-1.145h8.016V32.59a2.694,2.694,0,0,0,.048.474H33.065v2.29H42.7a2.775,2.775,0,0,0,1.816-.7v1.48a14.952,14.952,0,0,0,.086,1.507H33.065v2.29H45.021a14.762,14.762,0,0,0,.807,2.29Zm9.532-5.068a4.547,4.547,0,0,1-.372-1.8h2.083A3.24,3.24,0,0,1,51.758,37.157Zm4.208-2.948V33.065H51.386V28.484a2.293,2.293,0,0,1,2.29-2.29H56.3a5.693,5.693,0,0,1,5.12,3.164l.71,1.417h.707a1.146,1.146,0,0,1,1.145,1.145,1.61,1.61,0,0,1-.474,1.145l-1.9,1.9,1.055,6.322-.419.07a13.58,13.58,0,0,0-3.99,1.33V39.935H55.967a4.53,4.53,0,0,1-2.76-.949,5.523,5.523,0,0,0,2.76-4.776Zm6.657,9.4,1.051-.174a10.354,10.354,0,0,1,3.745,7.945v4.583H62.168l-.407-.407a4.135,4.135,0,0,1-.775-4.776l.587-1.175-2.049-1.025-.587,1.174a6.462,6.462,0,0,0-.679,2.876,6.386,6.386,0,0,0,1.884,4.546l.407.407v.671H55.435l-.362-.544a8.308,8.308,0,0,1,0-9.219,11.349,11.349,0,0,1,7.55-4.882ZM44.516,62.84a2.3,2.3,0,0,1,2.291-2.291H62.839v-2.29H67.42v2.32a4.551,4.551,0,0,1-4.542,4.551H46.8A2.289,2.289,0,0,1,44.516,62.84Zm21.461,6.87H56.29l.571-2.29h6.017a6.775,6.775,0,0,0,2.559-.5C65.6,67.927,65.807,68.933,65.978,69.71ZM69.71,39.5a30.749,30.749,0,0,1-.879,7.32,12.615,12.615,0,0,0-3.785-5.189l-.979-5.879,1.063-1.064a3.883,3.883,0,0,0,1.145-2.764,3.444,3.444,0,0,0-2.688-3.354l-.117-.232A7.967,7.967,0,0,0,56.3,23.9H53.676A4.585,4.585,0,0,0,49.1,28.484v6.871a6.878,6.878,0,0,0,6.871,6.871V44.17a13.59,13.59,0,0,0-2.724,2.952,12.629,12.629,0,0,1-6.437-10.984V28.484a9.172,9.172,0,0,1,9.161-9.161h2.29A11.465,11.465,0,0,1,69.71,30.774Z" transform="translate(-0.999 -1)"/>
        <path id="Trazado_715935" data-name="Trazado 715935" d="M11,5h9.161V7.29H11Z" transform="translate(0.453 -0.419)"/>
        <path id="Trazado_715936" data-name="Trazado 715936" d="M21,5H35.887V7.29H21Z" transform="translate(1.904 -0.419)"/>
        <path id="Trazado_715937" data-name="Trazado 715937" d="M11,9H37.339v2.29H11Z" transform="translate(0.453 0.161)"/>
        <path id="Trazado_715938" data-name="Trazado 715938" d="M24,13H35.452v2.29H24Z" transform="translate(2.34 0.742)"/>
        <path id="Trazado_715939" data-name="Trazado 715939" d="M31,45h2.29v2.29H31Z" transform="translate(3.356 5.387)"/>
        <path id="Trazado_715940" data-name="Trazado 715940" d="M35,45h2.29v2.29H35Z" transform="translate(3.937 5.387)"/>
        <path id="Trazado_715941" data-name="Trazado 715941" d="M39,45h2.29v2.29H39Z" transform="translate(4.517 5.387)"/>
      </g>
    </g>
  </g>
</svg>
