<svg xmlns="http://www.w3.org/2000/svg" xmlns:xlink="http://www.w3.org/1999/xlink" width="85" height="91" viewBox="0 0 85 91">
  <defs>
    <filter id="Elipse_7683" x="6" y="10" width="77" height="77" filterUnits="userSpaceOnUse">
      <feOffset dy="3" input="SourceAlpha"/>
      <feGaussianBlur stdDeviation="3" result="blur"/>
      <feFlood flood-opacity="0.161"/>
      <feComposite operator="in" in2="blur"/>
      <feComposite in="SourceGraphic"/>
    </filter>
  </defs>
  <g id="Grupo_1005927" data-name="Grupo 1005927" transform="translate(-1335 -420)">
    <rect id="Rectángulo_345292" data-name="Rectángulo 345292" width="85" height="91" rx="5" transform="translate(1335 420)" fill="#4db1f0"/>
    <g id="Grupo_1003705" data-name="Grupo 1003705" transform="translate(1350.197 436.281)">
      <g transform="matrix(1, 0, 0, 1, -15.2, -16.28)" filter="url(#Elipse_7683)">
        <circle id="Elipse_7683-2" data-name="Elipse 7683" cx="29.5" cy="29.5" r="29.5" transform="translate(15 16)" fill="#bfe5f9"/>
      </g>
    </g>
    <g id="surface1" transform="translate(1343.001 440.5)">
      <path id="Trazado_722266" data-name="Trazado 722266" d="M289.588,261.05l-.077.464.47-.028c.432-.026.879-.059,1.366-.1l.3-.026.041-.3a11.437,11.437,0,0,0-.661-5.7l-.111-.285-.3.051c-.379.064-.728.112-1.067.147l-.456.046.136.438A11.566,11.566,0,0,1,289.588,261.05Zm0,0" transform="translate(-252.932 -223.169)" fill="#288fc9"/>
      <path id="Trazado_722267" data-name="Trazado 722267" d="M342.406,227.6l.3.284a13.93,13.93,0,0,0,1.189,1l.2.15.216-.129c.058-.035.116-.069.177-.1a3.381,3.381,0,0,1,.738-.277l.583-.147-1.825-2.158Zm0,0" transform="translate(-299.579 -197.93)" fill="#5bd0fc"/>
      <path id="Trazado_722268" data-name="Trazado 722268" d="M305.762,255.454a2.644,2.644,0,0,0-1.406-1.664,2.44,2.44,0,0,0-.947-.17,7.025,7.025,0,0,0-1.236.144l-.443.081.159.421a11.226,11.226,0,0,1,.627,5.376l-.06.467.469-.046c.4-.039.827-.086,1.345-.146a2.22,2.22,0,0,0,1.4-.5,2.3,2.3,0,0,0,.391-1.717A8,8,0,0,0,305.762,255.454Zm0,0" transform="translate(-263.991 -221.898)" fill="#5bd0fc"/>
      <path id="Trazado_722269" data-name="Trazado 722269" d="M89.67,172.316l-.3.023c-.459.036-.928.054-1.392.054h0a19.251,19.251,0,0,1-13.975-6.042.062.062,0,0,1-.018-.048.064.064,0,0,1,.021-.046.066.066,0,0,1,.046-.018.064.064,0,0,1,.049.022,18.193,18.193,0,0,0,5.148,3.881l.817.417-.291-.87a38.614,38.614,0,0,0-3.648-7.858c-.439-.722-1-1.475-1.8-1.586a1.477,1.477,0,0,0-.209-.015,3.148,3.148,0,0,0-1.417.463,23.184,23.184,0,0,0-11.384,14.46l-.019.073.011.075c.288,1.975.559,3.945.807,5.855a2.779,2.779,0,0,1-.151,1.725,1.735,1.735,0,0,1-.764.693l-.18.092-.022.2a30.335,30.335,0,0,0,.052,5.914,2.9,2.9,0,0,0,.516,1.7,2.784,2.784,0,0,0,2.166.689c.112,0,.223,0,.332,0l4.882-.113h.022l7.6-.175-.127-7.332-.36-.008a35.8,35.8,0,0,1-4.3-.351.067.067,0,0,1-.058-.069l.3-6.113a.066.066,0,0,1,.067-.063c.815.01,1.688.014,2.666.014.792,0,1.565,0,2.325-.006l1.332,0,.1-.736c-2.136-.6-4.817-1.5-6.6-3.2l-.173-.165-.168-.183a6.683,6.683,0,0,1-.909-1.238.064.064,0,0,1-.006-.05.065.065,0,0,1,.032-.04.06.06,0,0,1,.033-.009.067.067,0,0,1,.059.034c1.839,3.256,6.2,4.347,10.052,5.309l.75.189c.12.031.239.059.359.087l.043.01h.093a.075.075,0,0,1,.027.01l.048.027.054.012a26.328,26.328,0,0,0,5.718.571c.6,0,1.23-.016,1.871-.047l.3-.015.052-.3a11.751,11.751,0,0,0-.385-5.626Zm0,0" transform="translate(-53.266 -140.188)" fill="#5bd0fc"/>
      <path id="Trazado_722270" data-name="Trazado 722270" d="M470.375,201.455h0l-.164,6.878h0l-.066,2.743,2.767-.021c.091,0,.191,0,.3.007l.375.019.141-2.9h0l.323-6.613.137-2.795-3.747-.047Zm0,0" transform="translate(-411.34 -173.873)" fill="#cbe580"/>
      <path id="Trazado_722271" data-name="Trazado 722271" d="M432.187,182.993l4.835-.218.064-2.72-4.973,0Zm0,0" transform="translate(-378.065 -157.533)" fill="#af7979"/>
      <path id="Trazado_722272" data-name="Trazado 722272" d="M433.217,221.02h0l.046,1.83,4.248-.032.04-1.647h0l.214-9.023-4.766.315Zm0,0" transform="translate(-378.842 -185.612)" fill="#af7979"/>
      <path id="Trazado_722273" data-name="Trazado 722273" d="M172.621,15.372c.363.027.706.052,1.051.052a4.118,4.118,0,0,0,1.214-.156,2.861,2.861,0,0,0,.5-.2l.081-.042.052-.074a.066.066,0,0,1,.023-.022l.1-.014.074-.052a3.751,3.751,0,0,0,1.563-2.846,5.037,5.037,0,0,0-1.683-3.84,7.777,7.777,0,0,0-2.4-1.5,9.087,9.087,0,0,0-1.427-.409,10.289,10.289,0,0,1-1.248-.339c-.144-.053-.281-.106-.423-.161a4.4,4.4,0,0,0-1.65-.392h-.118a7.219,7.219,0,0,0-1.438.149,10.215,10.215,0,0,0-1.2.319l-.073.029-.055.056a.061.061,0,0,1-.039.018h-.013a.065.065,0,0,1-.06-.064l-.022-.353h0a2.463,2.463,0,0,0-.181-.8,1.048,1.048,0,0,0-.848-.662h-.027a1.075,1.075,0,0,0-.91.676,3.292,3.292,0,0,0-.2,1.262.067.067,0,0,1-.047.063l-.019,0a.068.068,0,0,1-.056-.03l-.687-1.062a.928.928,0,0,0-.235-.274.461.461,0,0,0-.267-.081.646.646,0,0,0-.5.251,1,1,0,0,0-.111.879,3.12,3.12,0,0,0,.448.839.072.072,0,0,1,.008.06.068.068,0,0,1-.039.042.723.723,0,0,1-.266.048,1.962,1.962,0,0,1-.777-.239l-.046-.022a1.469,1.469,0,0,0-.6-.159.528.528,0,0,0-.359.121.643.643,0,0,0,.019.86,2,2,0,0,0,.873.5.066.066,0,0,1-.008.128,5.619,5.619,0,0,0-3.85,4.415,9.837,9.837,0,0,0,.232,4.436c.044.174.086.353.127.533a3.373,3.373,0,0,0,1.471,2.576,2.517,2.517,0,0,0,1.148.269,3.093,3.093,0,0,0,2.171-.942l.192-.195-.127-.242c-.012-.023-.023-.045-.035-.073a2.647,2.647,0,0,1,.475-2.7,2.693,2.693,0,0,1,1.633-1.039,1.865,1.865,0,0,1,.3-.024,1.684,1.684,0,0,1,1.445.751,2.29,2.29,0,0,1,.032,1.944c-.079.221-.175.44-.268.652l-.013.029a5.8,5.8,0,0,0-.407,1.132,1.64,1.64,0,0,0,.506,1.691,1.11,1.11,0,0,0,.629.187,1.787,1.787,0,0,0,1.377-.752,4.773,4.773,0,0,0,.665-2.1l.025-.155a3.94,3.94,0,0,1,.9-2.237,3.241,3.241,0,0,1,2.388-.773c.125,0,.255,0,.388.01C172.215,15.343,172.415,15.357,172.621,15.372Zm0,0" transform="translate(-137.011 -3.564)" fill="#af7979"/>
      <path id="Trazado_722274" data-name="Trazado 722274" d="M338.428,245.43a3.385,3.385,0,0,0-1.83-.528,3.322,3.322,0,0,0-1.53.364,6.5,6.5,0,0,0-.912.61l-.024.018a8.593,8.593,0,0,1-.737.519,2.654,2.654,0,0,1-1.252.411l-.579.021.256.52a3.334,3.334,0,0,1,.171.418,8.117,8.117,0,0,1,.306,2.3,4.277,4.277,0,0,1-.058,1.062l-.1.46,5.2-.041.082-.044a.336.336,0,0,0,.038-.023,4.572,4.572,0,0,0,2.48-3.061A3.43,3.43,0,0,0,338.428,245.43Zm0,0" transform="translate(-290.092 -214.269)" fill="#ffd2bb"/>
      <path id="Trazado_722275" data-name="Trazado 722275" d="M190.241,101.122a26.925,26.925,0,0,0,3.58,2.8,5.021,5.021,0,0,0,2.133,1.027,2.473,2.473,0,0,0,1.905-.579,4.982,4.982,0,0,0,.725-.855c.117-.162.234-.321.36-.474a2.026,2.026,0,0,1,1.5-.87,2.546,2.546,0,0,1,.729.145l.024.007a3.912,3.912,0,0,0,.382.1,1.347,1.347,0,0,0,.258.025.732.732,0,0,0,.691-.333.926.926,0,0,0-.045-.759c-.074-.194-.16-.383-.266-.605a3.407,3.407,0,0,1-.452-1.568,3.49,3.49,0,0,1,.454-1.375c.044-.087.087-.175.129-.265a7.958,7.958,0,0,0,.6-4.878l-.086-.445-.421.167c-.071.028-.143.054-.212.075a4.258,4.258,0,0,1-1.253.162c-.352,0-.713-.027-1.065-.053-.2-.015-.4-.029-.6-.04-.129-.006-.257-.01-.378-.01a3.119,3.119,0,0,0-2.3.733,3.791,3.791,0,0,0-.867,2.162l-.025.155a4.953,4.953,0,0,1-.687,2.16,1.941,1.941,0,0,1-1.492.81,1.218,1.218,0,0,1-.7-.211,1.737,1.737,0,0,1-.581-1.718c.007-.039.013-.076.02-.111a6.13,6.13,0,0,1,.423-1.175c.107-.241.195-.443.271-.656a2.208,2.208,0,0,0-.022-1.828,1.578,1.578,0,0,0-1.343-.686,1.741,1.741,0,0,0-.272.021,2.778,2.778,0,0,0-2.009,3.552,1.578,1.578,0,0,0,.963.935.856.856,0,0,0,.2.023,1.011,1.011,0,0,0,.631-.244.066.066,0,0,1,.043-.015.063.063,0,0,1,.052.025.073.073,0,0,1,.015.052.065.065,0,0,1-.025.043,1.137,1.137,0,0,1-.711.273,1,1,0,0,1-.231-.027,1.276,1.276,0,0,1-.566-.318l-.257-.238-.255.24a3.324,3.324,0,0,1-1.072.678l-.335.131.116.34A9.108,9.108,0,0,0,190.241,101.122Zm0,0" transform="translate(-164.315 -80.629)" fill="#ffd2bb"/>
      <path id="Trazado_722276" data-name="Trazado 722276" d="M169.747,137.715a38.478,38.478,0,0,1,1.858,3.426l.272.568.37-.509a7.684,7.684,0,0,1,2.365-2.128l.5-.286-.461-.341a19.014,19.014,0,0,1-2.049-1.714,9.537,9.537,0,0,1-2.228-3.215l-.306-.769-.376.738a7.948,7.948,0,0,1-1.534,2.084l-.4.395.521.22A3.588,3.588,0,0,1,169.747,137.715Zm0,0" transform="translate(-146.769 -116.142)" fill="#ffd2bb"/>
      <path id="Trazado_722277" data-name="Trazado 722277" d="M193.294,298.824l.05-.051-.1-.048-.068-.13-.065.068-.239-.112a3.125,3.125,0,0,0-1.295-.206l-6.868.053-2.21.017h-.031l-3,.023h0l-2.766.021h0l-4.536.037h-.2l-.112.126-.016.019a1.633,1.633,0,0,1-.811.43l-.353.089-.015-.017-.2.027-.1.012c-.917.108-1.747.189-2.537.249l-.293.022h0l-.253.016c-.918.059-1.754.088-2.555.088a26.267,26.267,0,0,1-5.918-.613l-.042-.01h-.042l-.665,0c-.461,0-.915,0-1.364-.005h-.911q-.963,0-1.9,0h-1.275l0,0h-.849l-1.147,0h-.58l-.644-.005-.44,0-.083,1.711h0l-.211,4.279.343.045a35.757,35.757,0,0,0,4.659.305c.465,0,.935-.009,1.4-.028.905-.035,1.87-.051,3.037-.051h.553l0,0,.777.008c.709.007,1.417.019,2.116.03l.25,0c.831.013,1.69.025,2.53.031l4.9.029h0l8.93.053h0l2.614.016h0l12.713.075.048-2.185h0l0-.224,0-.081.025-1.192.033-1.465a2.513,2.513,0,0,0-.174-1.216Zm0,0" transform="translate(-130.063 -261.027)" fill="#f7b36f"/>
      <path id="Trazado_722278" data-name="Trazado 722278" d="M443.365,355.624l-1.866-.012h0l-.688,0-.32,5.889-.168,3.073,1.918.032h0l.953.017h0l.464.008.313.005h0l1.53.025.009-3.665h0l.011-5.354Zm0,0" transform="translate(-385.249 -311.129)" fill="#f7b36f"/>
      <path id="Trazado_722279" data-name="Trazado 722279" d="M186.391,354.116l.127,7.389.475.094a3.588,3.588,0,0,0-.333,1.752l.03.314.315.024c.48.037.973.055,1.465.055l.342,0,.287,0h0l.051,0,.174,0,0-.005h.033c.348-.016.667-.039.976-.067l.141-.013v0l.079-.01.166-.015v0l.126-.016c.232-.028.447-.057.658-.089l.336-.051-.174-3.363h0l-.313-6.061h-.357c-.279,0-.556,0-.835,0l-.285,0h0l-.087,0h-.17c-.364.007-.727.015-1.089.026l-.311.01h0l-.168.006-.085,0h0c-.364.013-.753.021-1.191.021Zm0,0" transform="translate(-163.078 -309.755)" fill="#f7b36f"/>
      <path id="Trazado_722280" data-name="Trazado 722280" d="M328.034,206.226a1.2,1.2,0,0,0-.578-.16.8.8,0,0,0-.407.1.991.991,0,0,0-.4,1.014,2.664,2.664,0,0,0,.522,1.075l.054.072.039.053.239.339,1.617-1.407-.3-.352A3.16,3.16,0,0,0,328.034,206.226Zm0,0" transform="translate(-285.782 -180.291)" fill="#ed6d66"/>
      <path id="Trazado_722281" data-name="Trazado 722281" d="M11.5,196.764l-.006-.042-.015-.04a.06.06,0,0,1,0-.028l0-.045-.006-.044c-.408-2.789-.848-5.579-1.308-8.292a6.086,6.086,0,0,0-.626-2.1,3.07,3.07,0,0,0-2.6-1.483l-.091,0a3.18,3.18,0,0,0-1.429.422l-.012-.073-.509.435a2.611,2.611,0,0,0-.61.74,4.321,4.321,0,0,0-.017,2.488c.049.278.095.54.12.77.3,2.8.643,5.63,1.035,8.423.218,1.563.455,3.144.7,4.7a3.673,3.673,0,0,0,1.029,2.408,2.113,2.113,0,0,0,1.016.417l.253.038v0h.017l.237.035-.006-.041.081,0a8.085,8.085,0,0,0,1.519-.221,2.664,2.664,0,0,0,1.895-1.018,2.627,2.627,0,0,0,.135-1.643C12.059,200.679,11.789,198.723,11.5,196.764Zm0,0" transform="translate(-3.582 -161.593)" fill="#ed6d66"/>
      <path id="Trazado_722282" data-name="Trazado 722282" d="M333.069,216.753l.095.113,0,0,.087.1c.117.128.236.252.356.376l.247.256,1.566-1.364-.838-.992h0l-.547-.652-1.6,1.392.234.3c.08.1.158.2.24.3l.094.112,0,0Zm0,0" transform="translate(-290.858 -187.742)" fill="#f9d889"/>
      <path id="Trazado_722283" data-name="Trazado 722283" d="M46.7,356.04a3.069,3.069,0,0,1-.549-1.781c-.084-1.06-.144-1.949-.167-2.842l-.006-.245,0-.258c0-.274,0-.532,0-.788l.006-.274.011-.232c.013-.29.033-.586.059-.882l.046-.529-.514.133c-.126.033-.251.062-.373.089-.345.076-.624.129-.878.165l-.343.049.1,1.568h0l.062.98.265,4.251a1.552,1.552,0,0,0,.357,1.093,1.457,1.457,0,0,0,.979.247h.073c.243,0,.482-.008.7-.015l.865-.028-.612-.613C46.759,356.1,46.729,356.073,46.7,356.04Zm0,0" transform="translate(-38.494 -304.656)" fill="#bfc7d8"/>
      <path id="Trazado_722284" data-name="Trazado 722284" d="M63.66,37.566a1.767,1.767,0,0,0-.894-.606l.592-12.1a.442.442,0,0,0-.436-.464l-3.435-.043.045-1.887a.442.442,0,0,0-.442-.453h0l-5.111,0a.442.442,0,0,0-.441.453l.366,14.4-1.01.008L52.784,35.5a.254.254,0,0,0-.1-.179.251.251,0,0,0-.2-.05l-2.716.452a3.184,3.184,0,0,0,.579-1.526,3.9,3.9,0,0,0-1.741-3.465,3.857,3.857,0,0,0-1.994-.611l-3.194-3.779a3.549,3.549,0,0,0-.92-.85,1.5,1.5,0,0,0-1.5-.054,1.488,1.488,0,0,0-.642,1.534,3.115,3.115,0,0,0,.611,1.291,14.054,14.054,0,0,0,2.8,2.921l-.045.033a8.415,8.415,0,0,1-.7.49,1.641,1.641,0,0,1-1.508.239.434.434,0,0,0-.219-.044,2.593,2.593,0,0,0-.752-.483,4.547,4.547,0,0,0-2.587-.033l-.2.036a18.488,18.488,0,0,1-10.54-1.3.426.426,0,0,0-.018-.1,39,39,0,0,0-1.609-4.248A7.126,7.126,0,0,1,28.416,23.2c.012-.006.022-.015.033-.022q.383.271.765.536a5.482,5.482,0,0,0,2.36,1.113,2.862,2.862,0,0,0,.354.022,3.005,3.005,0,0,0,1.949-.722,5.4,5.4,0,0,0,.8-.94c.115-.159.224-.308.341-.45a1.612,1.612,0,0,1,1.1-.685h0a2.147,2.147,0,0,1,.581.122,4.647,4.647,0,0,0,.456.121,1.355,1.355,0,0,0,1.5-.573,1.466,1.466,0,0,0-.021-1.172c-.084-.221-.184-.435-.281-.642a3.046,3.046,0,0,1-.4-1.333,3.055,3.055,0,0,1,.4-1.169c.045-.091.09-.182.133-.274a8.5,8.5,0,0,0,.584-5.463,4.235,4.235,0,0,0,1.7-3.188A5.552,5.552,0,0,0,38.935,4.24a8.285,8.285,0,0,0-2.554-1.6,9.53,9.53,0,0,0-1.5-.433,10.057,10.057,0,0,1-1.19-.322c-.141-.051-.275-.1-.4-.153a4.884,4.884,0,0,0-1.839-.43,7.785,7.785,0,0,0-1.661.158c-.352.072-.645.137-.885.2a2.628,2.628,0,0,0-.2-.7,1.433,1.433,0,0,0-2.713.014,2.292,2.292,0,0,0-.083.214l-.021-.032a1.472,1.472,0,0,0-.379-.43,1.1,1.1,0,0,0-1.472.284,1.513,1.513,0,0,0-.19,1.324c.013.045.027.089.043.132l-.011-.005a1.3,1.3,0,0,0-1.506.04,1.149,1.149,0,0,0-.036,1.57,1.566,1.566,0,0,0,.162.165,6.366,6.366,0,0,0-3.254,4.454,10.314,10.314,0,0,0,.237,4.665c.043.17.083.344.123.519a3.809,3.809,0,0,0,1.736,2.917,3,3,0,0,0,1.129.311,7.47,7.47,0,0,1-1.708,2.207.441.441,0,0,0-.138.233,3.987,3.987,0,0,0-1.423.511A23.73,23.73,0,0,0,8.115,33.019c-.325-2.149-.669-4.294-1.03-6.423A6.5,6.5,0,0,0,6.4,24.327,3.565,3.565,0,0,0,3.249,22.6,3.645,3.645,0,0,0,.257,24.388,4.544,4.544,0,0,0,.188,27.2c.048.27.092.526.115.739.3,2.8.646,5.644,1.037,8.439.219,1.561.456,3.146.705,4.709a4.08,4.08,0,0,0,1.216,2.727,2.789,2.789,0,0,0,1.755.562l.4,6.443a2.011,2.011,0,0,0,.527,1.441,1.874,1.874,0,0,0,1.292.377h.1c.532,0,1.059-.027,1.568-.049s1.021-.045,1.538-.049a.439.439,0,0,0,.2-.049l.177,0,12.121-.28.03,1.755a.443.443,0,0,0,.4.432,20.108,20.108,0,0,0,2.041.1c.314,0,.629-.008.942-.023a.237.237,0,0,0,.052.006.268.268,0,0,0,.076-.013,20.092,20.092,0,0,0,2.427-.277.441.441,0,0,0,.365-.458L28.8,44.661c.9.006,1.788.02,2.668.034.914.015,1.858.03,2.786.035l20.777.123-.469,8.631a.442.442,0,0,0,.434.466l5.314.088h.007a.443.443,0,0,0,.442-.441l.018-8.71,2.7.016h0a.442.442,0,0,0,.442-.432l.116-5.212A2.647,2.647,0,0,0,63.66,37.566ZM59.466,25.237l2.987.037-.1,2.062-2.938.1ZM59.4,27.946l2.926-.1-.3,6.109-2.773.117Zm-.159,6.629L62,34.458l-.115,2.356c-.173-.008-.332-.007-.465-.006l-2.234.018ZM58.637,22.9l-.047,1.986-4.1.185L54.433,22.9Zm-.32,12.284h-.006l-3.564.088L54.542,27.2l4-.265-.2,8.248Zm.014.5L58.3,36.833l-3.516.027-.027-1.086,3.563-.088Zm-3.8-8.99L54.5,25.573l4.077-.184-.025,1.04ZM52.3,35.817l.085,1.063-3.665.028a6.505,6.505,0,0,0,.6-.6ZM41.7,27.751a2.343,2.343,0,0,1-.458-.918.635.635,0,0,1,.216-.631.648.648,0,0,1,.61.059,2.839,2.839,0,0,1,.684.653l.062.073-1.021.889C41.76,27.835,41.728,27.794,41.7,27.751Zm.644.832c-.084-.1-.164-.2-.245-.3l1.041-.906.23.272Zm.333.38,1.019-.931.348.412-1.02.887C42.9,29.21,42.788,29.088,42.675,28.963Zm.71.723.984-.856,1.19,1.409a3.725,3.725,0,0,0-.818.307c-.068.035-.132.074-.2.112A13.135,13.135,0,0,1,43.385,29.686Zm.11,2.78a9.1,9.1,0,0,0,.771-.541,6.454,6.454,0,0,1,.882-.595,2.963,2.963,0,0,1,4.324,2.813A4.212,4.212,0,0,1,47.189,36.9c-.014.007-.025.016-.039.024l-4.639.036a4.567,4.567,0,0,0,.067-1.163,8.422,8.422,0,0,0-.326-2.4,3.891,3.891,0,0,0-.189-.466A3,3,0,0,0,43.5,32.466Zm-3.274-.227a2.275,2.275,0,0,1,1.193,1.436,7.759,7.759,0,0,1,.28,2.151,2.012,2.012,0,0,1-.287,1.433,1.945,1.945,0,0,1-1.172.389c-.43.05-.877.1-1.338.145a11.675,11.675,0,0,0-.648-5.555A3.623,3.623,0,0,1,40.222,32.239Zm-2.479.087a11.152,11.152,0,0,1,.64,5.514q-.662.059-1.356.1a11.976,11.976,0,0,0-.375-5.465Q37.2,32.418,37.743,32.326Zm-.051-15.573c-.041.086-.084.173-.126.259a3.817,3.817,0,0,0-.493,1.525,3.736,3.736,0,0,0,.487,1.742c.094.2.183.39.255.581.1.273.09.4.061.454-.056.108-.3.158-.543.11-.118-.023-.24-.06-.37-.1a2.859,2.859,0,0,0-.837-.16h0a2.381,2.381,0,0,0-1.783,1.007c-.134.162-.256.33-.374.492a4.654,4.654,0,0,1-.667.792,2.1,2.1,0,0,1-1.613.491,4.743,4.743,0,0,1-1.965-.961,26.672,26.672,0,0,1-3.53-2.762,8.731,8.731,0,0,1-2.228-3.35,3.7,3.7,0,0,0,1.192-.754,1.647,1.647,0,0,0,.736.409,1.439,1.439,0,0,0,1.261-.318.442.442,0,0,0-.549-.693.581.581,0,0,1-.508.15,1.235,1.235,0,0,1-.709-.728,2.194,2.194,0,0,1,.414-2.17,2.184,2.184,0,0,1,1.315-.852,1.246,1.246,0,0,1,1.235.491,1.864,1.864,0,0,1-.011,1.5c-.076.21-.166.415-.262.632a6.284,6.284,0,0,0-.446,1.249,2.141,2.141,0,0,0,.716,2.217,1.591,1.591,0,0,0,.91.276,2.309,2.309,0,0,0,1.8-.966A5.238,5.238,0,0,0,31.8,15l.025-.152a3.508,3.508,0,0,1,.761-1.956,3.075,3.075,0,0,1,2.391-.616c.2.01.392.025.589.04a6.653,6.653,0,0,0,2.453-.124c.082-.025.163-.054.242-.085A7.611,7.611,0,0,1,37.692,16.753ZM21.741,16c-.839-.425-1.05-1.348-1.274-2.325-.042-.182-.084-.363-.129-.541a9.471,9.471,0,0,1-.227-4.269,5.236,5.236,0,0,1,3.57-4.124.442.442,0,0,0,.05-.844,1.749,1.749,0,0,1-.717-.4c-.1-.115-.108-.293-.06-.335s.255-.043.55.095l.044.021a1.691,1.691,0,0,0,1.339.2.442.442,0,0,0,.208-.659,2.857,2.857,0,0,1-.4-.737.646.646,0,0,1,.049-.548A.24.24,0,0,1,25,1.454a.849.849,0,0,1,.144.187l.677,1.046a.442.442,0,0,0,.813-.231A2.964,2.964,0,0,1,26.8,1.339.708.708,0,0,1,27.38.885a.693.693,0,0,1,.518.44,2.958,2.958,0,0,1,.173,1.017h0a.442.442,0,0,0,.755.286,9.8,9.8,0,0,1,1.135-.3,6.782,6.782,0,0,1,1.473-.14,4.06,4.06,0,0,1,1.529.371c.135.052.274.106.422.159a10.722,10.722,0,0,0,1.294.353,8.7,8.7,0,0,1,1.368.39,7.407,7.407,0,0,1,2.284,1.422A4.663,4.663,0,0,1,39.9,8.432a3.374,3.374,0,0,1-1.4,2.557.366.366,0,0,0-.056.01.434.434,0,0,0-.239.17,2.554,2.554,0,0,1-.433.177,5.91,5.91,0,0,1-2.133.088c-.2-.015-.407-.03-.61-.041a3.866,3.866,0,0,0-3.059.87,4.261,4.261,0,0,0-1.011,2.445l-.024.154a4.512,4.512,0,0,1-.6,1.945,1.2,1.2,0,0,1-1.489.474,1.287,1.287,0,0,1-.35-1.305,5.572,5.572,0,0,1,.39-1.074c.1-.221.2-.451.284-.689a2.639,2.639,0,0,0-.068-2.267,2.058,2.058,0,0,0-1.764-.93,2.255,2.255,0,0,0-.365.029A3.06,3.06,0,0,0,25.1,12.222a3.024,3.024,0,0,0-.521,3.094c.013.029.027.058.042.087A2.515,2.515,0,0,1,21.741,16Zm1.513,1.507a9.852,9.852,0,0,0,2.314,3.343A19.408,19.408,0,0,0,27.657,22.6a8.067,8.067,0,0,0-2.483,2.233,38.975,38.975,0,0,0-1.875-3.46,3.928,3.928,0,0,0-1.651-1.683A8.365,8.365,0,0,0,23.254,17.512Zm-18.088,26a2.015,2.015,0,0,1-1.356-.39,3.4,3.4,0,0,1-.892-2.174c-.248-1.558-.485-3.137-.7-4.693-.39-2.786-.738-5.615-1.034-8.41-.026-.244-.073-.514-.123-.8A4.111,4.111,0,0,1,1.037,24.8a2.239,2.239,0,0,1,.952-.829,2.417,2.417,0,0,1,1.289-.5h.078a2.71,2.71,0,0,1,2.279,1.3,5.835,5.835,0,0,1,.578,1.968c.466,2.743.9,5.513,1.307,8.284a.442.442,0,0,0,.029.2q.424,2.908.8,5.807a2.351,2.351,0,0,1-.09,1.411,2.4,2.4,0,0,1-1.649.837A7.856,7.856,0,0,1,5.166,43.514Zm2.167,8.242a1.281,1.281,0,0,1-.8-.153,1.293,1.293,0,0,1-.232-.836q-.076-1.206-.151-2.411c-.036-.582.009-1.14-.047-1.721-.075-.772-.157-1.545-.206-2.32.307-.044.612-.105.906-.171.128-.028.257-.059.387-.092a33.534,33.534,0,0,0,.093,5.581,3.372,3.372,0,0,0,.638,1.994c.034.04.07.077.107.113Q7.681,51.752,7.333,51.755Zm8.359-.341a.253.253,0,0,0-.014.077L10.8,51.6a2.816,2.816,0,0,1-2.2-.552,2.614,2.614,0,0,1-.428-1.49,30.213,30.213,0,0,1-.053-5.844,2.1,2.1,0,0,0,.92-.844,3.112,3.112,0,0,0,.195-1.956Q8.85,38,8.419,35.058a22.783,22.783,0,0,1,11.2-14.222,2.486,2.486,0,0,1,1.4-.409c.646.09,1.136.764,1.531,1.41a38.185,38.185,0,0,1,3.612,7.781,17.9,17.9,0,0,1-5.042-3.8.442.442,0,0,0-.651.6,19.615,19.615,0,0,0,15.673,6.108,11.457,11.457,0,0,1,.373,5.446,28.569,28.569,0,0,1-7.49-.515.443.443,0,0,0-.21-.058H28.76c-.117-.027-.234-.056-.351-.085l-.752-.189c-3.777-.945-8.058-2.015-9.816-5.13a.442.442,0,0,0-.77.434,6.993,6.993,0,0,0,.959,1.306,14.754,14.754,0,0,0-2.669,9.811c.07.762.2,1.539.326,2.291C16.016,47.8,16.327,49.657,15.693,51.414Zm.51.065a11.7,11.7,0,0,0-.018-5.727c-.125-.743-.253-1.51-.321-2.254a14.243,14.243,0,0,1,2.525-9.4,16.02,16.02,0,0,0,6.76,3.284l-1.332,0c-1.589.006-3.233.012-4.986-.01h-.005a.443.443,0,0,0-.442.421l-.3,6.112a.442.442,0,0,0,.379.459,35.991,35.991,0,0,0,4.349.356l.113,6.6ZM28.25,53.624h-.529l-3.965.014c.023-2.97-.012-5.934-.063-8.905,1.266,0,2.519.346,3.762-.04a.5.5,0,0,1,.361-.024c.365.175.219.974.221,1.277.006.729-.015,1.447.04,2.177A53.5,53.5,0,0,1,28.25,53.624Zm31.639-6.2q0,1.274-.005,2.546,0,1.586-.007,3.173c-.463-.007-4.4-.129-4.389-.066-.08-.667.437-8.223.429-8.223.79,0,1.574.091,2.362.14.559.036,1.057-.13,1.615-.116C59.893,45.728,59.892,46.579,59.89,47.427Zm3.446-7.55c-.127,1.383-.259,2.755-.289,4.138-.388,0-.777-.005-1.165-.007-4.282-.025-8.563-.062-12.841-.062-5.323,0-10.64-.285-15.969-.2-2.372.04-4.743.122-7.115.089a59.151,59.151,0,0,1-6.971-.289q.13-2.642.261-5.283c1.637.016,3.279,0,4.916.054,1.236.039,2.438-.221,3.69-.119,1.338.109,2.657.371,3.99.522a40.159,40.159,0,0,0,5.418.164c1.792-.043,3.478-.762,5.243-1a19.469,19.469,0,0,1,2.452-.116q4.718-.024,9.436-.042,2.384-.011,4.768-.025c.712,0,1.422.006,2.126.039.6.028,1.269-.067,1.725.422a1.553,1.553,0,0,1,.354,1.063A5.516,5.516,0,0,1,63.335,39.877Zm0,0" transform="translate(0 0)"/>
      <path id="Trazado_722285" data-name="Trazado 722285" d="M208.77,100.84a.884.884,0,0,0-.988-.209.253.253,0,0,0,.215.457.385.385,0,0,1,.411.1.788.788,0,0,1,.192.531,1.654,1.654,0,0,1-.016.273.882.882,0,0,0-.431-.087.9.9,0,0,0-.764.516.253.253,0,1,0,.458.213.4.4,0,0,1,.332-.224.4.4,0,0,1,.354.188.252.252,0,0,0,.463-.076,3.309,3.309,0,0,0,.108-.818A1.288,1.288,0,0,0,208.77,100.84Zm0,0" transform="translate(-181.43 -87.98)"/>
      <path id="Trazado_722286" data-name="Trazado 722286" d="M367.033,252.023a.547.547,0,0,1,.7.451.252.252,0,0,0,.25.219l.034,0a.253.253,0,0,0,.217-.284,1.052,1.052,0,0,0-1.344-.869.253.253,0,0,0,.145.484Zm0,0" transform="translate(-320.841 -220.039)"/>
      <path id="Trazado_722287" data-name="Trazado 722287" d="M379.858,264.237a.535.535,0,0,1,.4.569.253.253,0,0,0,.214.286.237.237,0,0,0,.037,0,.253.253,0,0,0,.25-.216,1.041,1.041,0,0,0-.791-1.136.253.253,0,1,0-.106.494Zm0,0" transform="translate(-332.171 -230.748)"/>
    </g>
  </g>
</svg>
