<svg xmlns="http://www.w3.org/2000/svg" xmlns:xlink="http://www.w3.org/1999/xlink" width="94.364" height="94.364" viewBox="0 0 94.364 94.364">
  <defs>
    <clipPath id="clip-path">
      <rect id="Rect치ngulo_33849" data-name="Rect치ngulo 33849" width="94.364" height="94.364" fill="none"/>
    </clipPath>
    <clipPath id="clip-path-2">
      <rect id="Rect치ngulo_34578" data-name="Rect치ngulo 34578" width="43.251" height="70.39" fill="none"/>
    </clipPath>
  </defs>
  <g id="Grupo_80336" data-name="Grupo 80336" transform="translate(0 0)">
    <g id="Grupo_80335" data-name="Grupo 80335" transform="translate(0 0)" clip-path="url(#clip-path)">
      <path id="Trazado_113704" data-name="Trazado 113704" d="M94.364,47.182A47.182,47.182,0,1,1,47.182,0,47.182,47.182,0,0,1,94.364,47.182" transform="translate(0)" fill="#4db1f0"/>
      <g id="Grupo_82199" data-name="Grupo 82199" transform="translate(25.557 13.54)">
        <g id="Grupo_82198" data-name="Grupo 82198" clip-path="url(#clip-path-2)">
          <path id="Trazado_114119" data-name="Trazado 114119" d="M55.134,5.241c-1.666,2.961-5.476,21.871-6.8,29.136.092.643.169,1.18.226,1.588,3.282-.526,6.5-.866,8.279-.579-.415-4.716-.308-9.874,1.033-11.221a3.1,3.1,0,0,1,1.907-.823c1.141-6.519,2.078-13.35,1.57-15.993-.525-2.73-1.737-4.36-3.243-4.36a3.785,3.785,0,0,0-2.974,2.252" transform="translate(-32.032 -1.981)" fill="#ffdcad"/>
          <path id="Trazado_114120" data-name="Trazado 114120" d="M42.469,108.317a3.732,3.732,0,0,1-3.279,2.108h0a3.336,3.336,0,0,1-2.8-1.515,11.2,11.2,0,0,1-.943-3.336,9.453,9.453,0,0,1-.743,2.248A4.214,4.214,0,0,1,31,110.2a3.76,3.76,0,0,1-3.162-1.708,2.668,2.668,0,0,1-.183-.352,8.685,8.685,0,0,1-2.95,2.672,23.01,23.01,0,0,1-9.905,2.477.347.347,0,0,1,0-.694,22.737,22.737,0,0,0,9.571-2.391,7.655,7.655,0,0,0,4.034-6.835,2.624,2.624,0,0,0-1.9-2.414c-3.481-1.021-17.535,2.257-18.831,2.564-2.923,2.94-5.905,7.1-5.587,10.05.861,7.966,9.173,21.42,13.9,22.494a25.143,25.143,0,0,0,5.073.4c6.87,0,15.7-1.355,18.521-3.865,3.21-2.854,3.3-3.4,3.744-6.044.093-.558.2-1.19.352-1.953.612-3.063.058-12.337-.52-18.383a8.6,8.6,0,0,1-.68,2.094M18.839,128.795a.348.348,0,0,1-.312.195.342.342,0,0,1-.152-.035.347.347,0,0,1-.159-.464,14.593,14.593,0,0,0-.26-13.132.347.347,0,0,1,.611-.33,15.3,15.3,0,0,1,.273,13.767M37,113.33a21.466,21.466,0,0,1-7.74,2.349q-.493.033-.983.032a30.507,30.507,0,0,1-7.208-1.162.348.348,0,1,1,.166-.675,26.379,26.379,0,0,0,7.979,1.111A20.814,20.814,0,0,0,36.7,112.7a.347.347,0,0,1,.3.625" transform="translate(-1.365 -66.772)" fill="#ffdcad"/>
          <path id="Trazado_114121" data-name="Trazado 114121" d="M23.761,35.461c-.641-4.509-3.715-25.893-4.887-29.8-.636-2.12-2.174-3.6-3.74-3.6-1.333,0-2.388,1.068-2.9,2.929-1.211,4.442,1.694,29.005,2.1,32.383,1.258-.3,5.308-1.222,9.42-1.91" transform="translate(-7.916 -1.364)" fill="#ffdcad"/>
          <path id="Trazado_114122" data-name="Trazado 114122" d="M.028,46.873c.9,8.354,9.4,21.953,14.432,23.1a25.468,25.468,0,0,0,5.227.42c7,0,16.03-1.416,18.982-4.04,3.393-3.016,3.515-3.743,3.967-6.449.092-.552.2-1.179.347-1.931.653-3.264-.009-15.335-.753-21.211.485-3.9.5-8.728-.364-10.055a6.813,6.813,0,0,0-5.2-2.492,3.051,3.051,0,0,0-2.131.71,3.052,3.052,0,0,0-.328-.77,7.834,7.834,0,0,0-5.74-2.818C29.6,14.806,30.527,7.974,30,5.238,29.408,2.154,27.941.314,26.077.314c-1.344,0-2.648.95-3.58,2.606-1.7,3.013-4.93,19.264-6.479,27.487-1.116-7.7-3.4-22.98-4.394-26.31C10.888,1.646,9.118,0,7.219,0,5.549,0,4.249,1.254,3.653,3.441c-1.291,4.735,1.8,30.315,2.109,32.868C4.157,37.934-.4,42.931.028,46.873M4.323,3.624C4.83,1.762,5.886.695,7.219.695c1.566,0,3.1,1.481,3.74,3.6C12.131,8.2,15.2,29.588,15.845,34.1c-4.112.687-8.162,1.614-9.42,1.91-.408-3.378-3.314-27.941-2.1-32.383m25,1.745c.508,2.644-.429,9.475-1.57,15.993a3.105,3.105,0,0,0-1.907.823c-1.34,1.347-1.448,6.5-1.032,11.221-1.775-.287-5,.053-8.28.579-.058-.407-.134-.944-.226-1.588,1.322-7.266,5.132-26.176,6.8-29.136a3.785,3.785,0,0,1,2.974-2.252c1.505,0,2.717,1.63,3.242,4.36m7.347,19.538a6.24,6.24,0,0,1,4.62,2.176c1.091,1.673.529,11.708-.792,14.129a3.059,3.059,0,0,1-2.67,1.746h0a2.644,2.644,0,0,1-2.223-1.2,15.812,15.812,0,0,1-1.15-4.955A40.428,40.428,0,0,0,34.738,25.8a1.456,1.456,0,0,1,.231-.333,2.409,2.409,0,0,1,1.7-.558M42.3,57.833c-.152.764-.258,1.4-.351,1.953-.442,2.641-.534,3.191-3.744,6.044C35.384,68.341,26.558,69.7,19.687,69.7a25.146,25.146,0,0,1-5.073-.4C9.891,68.219,1.579,54.765.718,46.8.4,43.851,3.383,39.69,6.305,36.749c1.3-.307,15.349-3.585,18.831-2.564a2.623,2.623,0,0,1,1.9,2.414A7.654,7.654,0,0,1,23,43.433a22.738,22.738,0,0,1-9.571,2.391.347.347,0,1,0,0,.694,23.012,23.012,0,0,0,9.905-2.477,8.685,8.685,0,0,0,2.95-2.672,2.669,2.669,0,0,0,.183.352,3.759,3.759,0,0,0,3.162,1.708,4.213,4.213,0,0,0,3.7-2.381,9.453,9.453,0,0,0,.743-2.248,11.208,11.208,0,0,0,.943,3.336,3.336,3.336,0,0,0,2.805,1.515h0A3.732,3.732,0,0,0,41.1,41.544a8.616,8.616,0,0,0,.68-2.094c.579,6.046,1.133,15.32.52,18.383M32.723,40.717a3.54,3.54,0,0,1-3.092,2.02,3.067,3.067,0,0,1-2.58-1.393,3.31,3.31,0,0,1-.307-.707,7.184,7.184,0,0,0,.981-4.112A3.29,3.29,0,0,0,25.542,33.6c-.437-4.593-.421-9.7.794-10.923a2.8,2.8,0,0,1,1.974-.651,7.181,7.181,0,0,1,5.317,2.508c1.291,1.98.658,13.325-.9,16.186" transform="translate(0)" fill="#d79054"/>
          <path id="Trazado_114123" data-name="Trazado 114123" d="M102.131,85.732a15.805,15.805,0,0,0,1.149,4.955,2.644,2.644,0,0,0,2.223,1.2h0a3.058,3.058,0,0,0,2.67-1.746c1.321-2.421,1.883-12.456.792-14.129a6.239,6.239,0,0,0-4.62-2.177,2.409,2.409,0,0,0-1.7.558,1.453,1.453,0,0,0-.231.333,40.44,40.44,0,0,1-.287,11.006" transform="translate(-67.68 -48.929)" fill="#ffdcad"/>
          <path id="Trazado_114124" data-name="Trazado 114124" d="M77.973,65.288A2.8,2.8,0,0,0,76,65.939c-1.215,1.221-1.23,6.329-.794,10.923a3.29,3.29,0,0,1,2.183,2.927,7.186,7.186,0,0,1-.981,4.112,3.3,3.3,0,0,0,.306.707A3.067,3.067,0,0,0,79.3,86a3.54,3.54,0,0,0,3.092-2.02c1.561-2.861,2.194-14.207.9-16.186a7.181,7.181,0,0,0-5.317-2.508" transform="translate(-49.664 -43.265)" fill="#ffdcad"/>
          <path id="Trazado_114125" data-name="Trazado 114125" d="M49.238,142.557a.346.346,0,0,0-.141.47,14.593,14.593,0,0,1,.26,13.132.347.347,0,0,0,.159.465.343.343,0,0,0,.152.035.347.347,0,0,0,.312-.195,15.3,15.3,0,0,0-.273-13.767.346.346,0,0,0-.47-.141" transform="translate(-32.508 -94.442)" fill="#d79054"/>
          <path id="Trazado_114126" data-name="Trazado 114126" d="M73.534,136.1a20.815,20.815,0,0,1-7.484,2.282,26.382,26.382,0,0,1-7.979-1.111.347.347,0,0,0-.165.675,30.49,30.49,0,0,0,7.208,1.162q.49,0,.983-.033a21.467,21.467,0,0,0,7.74-2.349.347.347,0,0,0-.3-.625" transform="translate(-38.197 -90.169)" fill="#d79054"/>
          <path id="Trazado_114127" data-name="Trazado 114127" d="M18.73,36.492c-.309-.715-.655-1.42-.953-2.137a31.091,31.091,0,0,1-1.749-6.92q-1.081-6.573-1.593-13.223a47.575,47.575,0,0,1,.253-12.025c-1.121.214-2,1.238-2.45,2.886-1.211,4.442,1.694,29.005,2.1,32.383.72-.169,2.354-.545,4.389-.964" transform="translate(-7.916 -1.449)" fill="#fcca92"/>
          <path id="Trazado_114128" data-name="Trazado 114128" d="M58.858,3.135a2.043,2.043,0,0,0-.75-.146,3.785,3.785,0,0,0-2.974,2.252c-1.666,2.961-5.475,21.871-6.8,29.136.092.643.169,1.18.226,1.588,1.939-.31,3.855-.555,5.466-.645.14-2.378-.141-4.827-.216-7.224a64.26,64.26,0,0,1,1.325-13.612c.726-3.938,1.638-7.942,3.72-11.349" transform="translate(-32.031 -1.981)" fill="#fcca92"/>
          <path id="Trazado_114129" data-name="Trazado 114129" d="M78.247,81.838a16.209,16.209,0,0,1-.811-5.126,50.478,50.478,0,0,1,.306-7.406,9.8,9.8,0,0,1,.786-3.222,4.74,4.74,0,0,1,.426-.706,5.949,5.949,0,0,0-.981-.09A2.8,2.8,0,0,0,76,65.939c-1.215,1.221-1.23,6.329-.794,10.923a3.29,3.29,0,0,1,2.183,2.926,7.188,7.188,0,0,1-.981,4.112,3.3,3.3,0,0,0,.306.707A3.068,3.068,0,0,0,79.3,86a3.185,3.185,0,0,0,1.757-.528,7.168,7.168,0,0,1-2.806-3.635" transform="translate(-49.664 -43.265)" fill="#fcca92"/>
          <path id="Trazado_114130" data-name="Trazado 114130" d="M106.183,91.115c-1.618-1.4-1.795-3.809-1.853-5.951l-.165-6.064c-.049-1.808.009-3.856,1.179-5.162a5.278,5.278,0,0,0-1-.1,2.409,2.409,0,0,0-1.7.557,1.456,1.456,0,0,0-.231.333,40.425,40.425,0,0,1-.287,11.006,15.822,15.822,0,0,0,1.15,4.955,2.644,2.644,0,0,0,2.223,1.2h0a2.723,2.723,0,0,0,1.278-.323,6.441,6.441,0,0,1-.6-.449" transform="translate(-67.679 -48.93)" fill="#fcca92"/>
          <path id="Trazado_114131" data-name="Trazado 114131" d="M58.39,110.621a3.732,3.732,0,0,1-3.279,2.108h0a3.336,3.336,0,0,1-2.8-1.515,11.2,11.2,0,0,1-.943-3.336,9.453,9.453,0,0,1-.743,2.248,4.214,4.214,0,0,1-3.7,2.381,3.76,3.76,0,0,1-3.162-1.708,2.668,2.668,0,0,1-.183-.352,8.685,8.685,0,0,1-2.95,2.672,23.01,23.01,0,0,1-9.905,2.477.347.347,0,1,1,0-.694,22.737,22.737,0,0,0,9.571-2.391,7.655,7.655,0,0,0,4.034-6.835,3.123,3.123,0,0,0-.5-1.437c-.277,2.8-2.571,5.218-5.2,6.377-2.9,1.274-6.146,1.379-9.3,1.6-1.393.1-3.183.614-3.229,2.009-.029.878.705,1.565,1.334,2.179a16.541,16.541,0,0,1,4.549,14.928c-.161.771-.336,1.694.226,2.247.863.849,2.268-.143,2.962-1.135a20.449,20.449,0,0,0,3.2-7.272c.279-1.263.507-2.673,1.515-3.484,1.211-.974,2.956-.641,4.509-.62,2.033.028,4.022-.568,6.048-.738s4.281.19,5.615,1.724a6.2,6.2,0,0,1,1.312,3.547,15.394,15.394,0,0,1-3.029,9.968c-.056.08-.117.156-.173.235a6.773,6.773,0,0,0,1.345-.9c3.21-2.854,3.3-3.4,3.744-6.044.093-.558.2-1.19.352-1.953.612-3.063.058-12.336-.52-18.383a8.6,8.6,0,0,1-.68,2.094M34.761,131.1a.348.348,0,0,1-.312.195.343.343,0,0,1-.152-.035.347.347,0,0,1-.159-.464,14.593,14.593,0,0,0-.26-13.132.347.347,0,0,1,.611-.33,15.3,15.3,0,0,1,.273,13.767m18.165-15.464a21.466,21.466,0,0,1-7.74,2.349q-.493.033-.983.032a30.508,30.508,0,0,1-7.208-1.162.348.348,0,0,1,.166-.675,26.378,26.378,0,0,0,7.979,1.111,20.813,20.813,0,0,0,7.484-2.282.347.347,0,0,1,.3.625" transform="translate(-17.287 -69.077)" fill="#fcca92"/>
          <path id="Trazado_114132" data-name="Trazado 114132" d="M25.534,8.6A2.708,2.708,0,0,0,23.97,6.934a.1.1,0,0,0-.1.163c1.325,1.274,1.217,3.354,2.457,4.627a.164.164,0,0,0,.278-.115A7.916,7.916,0,0,0,25.534,8.6" transform="translate(-15.802 -4.592)" fill="#fff9df"/>
          <path id="Trazado_114133" data-name="Trazado 114133" d="M31.652,23.781a.19.19,0,0,0-.366.1,3.3,3.3,0,0,0,.511,1.581.175.175,0,0,0,.29-.077,3.287,3.287,0,0,0-.434-1.6" transform="translate(-20.729 -15.672)" fill="#fff9df"/>
          <path id="Trazado_114134" data-name="Trazado 114134" d="M82.264,9.653a.257.257,0,0,0-.426.248c.161.559.374,1.1.5,1.665a4.7,4.7,0,0,0,.322,1.526.213.213,0,0,0,.332.043c.725-.932,0-2.741-.729-3.482" transform="translate(-54.226 -6.348)" fill="#fff9df"/>
          <path id="Trazado_114135" data-name="Trazado 114135" d="M94.83,71.883l-.248-.291c-.172-.2-.327-.45-.606-.5a.2.2,0,0,0-.254.194,1.028,1.028,0,0,0,.3.646l.225.309a.49.49,0,0,0,.373.235.237.237,0,0,0,.3-.225.434.434,0,0,0-.087-.362" transform="translate(-62.107 -47.105)" fill="#fff9df"/>
          <path id="Trazado_114136" data-name="Trazado 114136" d="M96.417,77.712c-.065-.122-.228-.032-.208.088a16.919,16.919,0,0,1,.3,2.314c.024.8-.2,1.59-.151,2.382a.219.219,0,0,0,.4.11c.756-1.363.354-3.579-.346-4.894" transform="translate(-63.754 -51.46)" fill="#fff9df"/>
          <path id="Trazado_114137" data-name="Trazado 114137" d="M118.012,81.189c-.07-.084-.191.023-.145.112a6.677,6.677,0,0,1,.65,2.274,9.429,9.429,0,0,0,.146,2c.037.114.211.193.3.079,1.037-1.329-.041-3.368-.951-4.462" transform="translate(-78.101 -53.782)" fill="#fff9df"/>
          <path id="Trazado_114138" data-name="Trazado 114138" d="M42.187,103.928c-1.131-.416-2.455-.038-3.626.139A18.058,18.058,0,0,0,34,105.286c-.313.138-.075.568.217.515,1.338-.243,2.648-.617,3.988-.862,1.3-.238,2.837-.1,4.027-.7a.17.17,0,0,0-.04-.307" transform="translate(-22.43 -68.746)" fill="#fff9df"/>
          <path id="Trazado_114139" data-name="Trazado 114139" d="M62.871,103.041a2.908,2.908,0,0,0-2.059.044c-.279.09-.341.576,0,.628a2.937,2.937,0,0,0,2.108-.288.245.245,0,0,0-.049-.384" transform="translate(-40.144 -68.167)" fill="#fff9df"/>
          <path id="Trazado_114140" data-name="Trazado 114140" d="M19.9,171.756a18.807,18.807,0,0,0-2.332-3.289c-.886-1.236-1.6-2.575-2.378-3.881-.074-.125-.286-.043-.238.1a21.084,21.084,0,0,0,2,4.14,8.931,8.931,0,0,0,2.657,3.219c.2.12.367-.108.289-.289" transform="translate(-9.904 -109.027)" fill="#fff9df"/>
          <path id="Trazado_114141" data-name="Trazado 114141" d="M32.719,189.5c-.325-.341-.634-.7-.932-1.066-.185-.226-.526.063-.392.3a8.352,8.352,0,0,0,.766,1.139c.287.36.561.749,1.042.807.141.017.213-.14.194-.254-.07-.4-.408-.646-.677-.929" transform="translate(-20.784 -124.817)" fill="#fff9df"/>
          <path id="Trazado_114142" data-name="Trazado 114142" d="M30.277,150.614c-.391-2.085-1.909-3.835-3.383-5.308-.227-.227-.539.106-.345.345,1.309,1.619,2.191,3.5,3.5,5.095.094.115.249-.012.227-.132" transform="translate(-17.554 -96.241)" fill="#fcca92"/>
          <path id="Trazado_114143" data-name="Trazado 114143" d="M37.731,164.366a5.5,5.5,0,0,0-.442-1.4.35.35,0,0,0-.647.175,4.965,4.965,0,0,0,.192,1.3,1.507,1.507,0,0,0,.57,1.051.187.187,0,0,0,.252-.066,1.358,1.358,0,0,0,.074-1.053" transform="translate(-24.28 -107.878)" fill="#fcca92"/>
        </g>
      </g>
    </g>
  </g>
</svg>
