<svg xmlns="http://www.w3.org/2000/svg" width="146.847" height="146.847" viewBox="0 0 146.847 146.847">
  <g id="Grupo_1013456" data-name="Grupo 1013456" transform="translate(-291 -650)">
    <g id="Grupo_896020" data-name="Grupo 896020" transform="translate(291 650)">
      <path id="Trazado_113701" data-name="Trazado 113701" d="M146.847,73.423A73.423,73.423,0,1,1,73.423,0a73.423,73.423,0,0,1,73.423,73.423" transform="translate(0 0)" fill="#4db1f0"/>
      <g id="traductor_2_" data-name="traductor(2)" transform="translate(34.437 32.443)">
        <path id="Trazado_694881" data-name="Trazado 694881" d="M2.54,219.725A2.54,2.54,0,0,1,0,217.185V165.538A2.54,2.54,0,0,1,2.54,163H52.663a2.54,2.54,0,0,1,2.54,2.54v42.5a2.54,2.54,0,0,1-2.54,2.54h-33.6l-15.249,8.8A2.538,2.538,0,0,1,2.54,219.725Z" transform="translate(0 -137.767)" fill="#ff5b5b"/>
        <path id="Trazado_694882" data-name="Trazado 694882" d="M96.425,243.164H89.143v-.886a2.54,2.54,0,1,0-5.08,0v.886H76.831a2.54,2.54,0,0,0,0,5.08h11.8l-1.889,2.319-.522-.673a2.54,2.54,0,1,0-4.012,3.116l1.242,1.6-5.1,6.264a2.54,2.54,0,0,0,3.938,3.209l4.362-5.354,2.722,3.5a2.54,2.54,0,1,0,4.012-3.116l-3.441-4.431,5.027-6.17a2.561,2.561,0,0,0,.187-.266h1.27a2.54,2.54,0,0,0,0-5.081Z" transform="translate(-61.711 -201.512)" fill="#fcced3"/>
        <path id="Trazado_694883" data-name="Trazado 694883" d="M222.88,73.794a2.534,2.534,0,0,1-.88-.158L209.735,69.1a29.216,29.216,0,1,1,11.223-10.376l4.3,11.646a2.54,2.54,0,0,1-2.383,3.421Z" transform="translate(-138.721 -13.998)" fill="#f1f6ff"/>
        <path id="Trazado_694884" data-name="Trazado 694884" d="M368.736,70.377l-4.3-11.646A29.212,29.212,0,0,0,339.722,14V72.421a29.222,29.222,0,0,0,13.487-3.314l12.265,4.533a2.54,2.54,0,0,0,3.263-3.263Z" transform="translate(-282.195 -14.001)" fill="#fff"/>
        <path id="Trazado_694885" data-name="Trazado 694885" d="M289.3,123.288l-10.334-22.565a2.54,2.54,0,0,0-2.309-1.482h0a2.54,2.54,0,0,0-2.309,1.484l-10.289,22.5a2.54,2.54,0,1,0,4.62,2.112l2.787-6.1h10.4l2.821,6.16a2.54,2.54,0,0,0,4.619-2.116Zm-15.513-9.124,2.871-6.279,2.876,6.279Z" transform="translate(-219.147 -84.806)" fill="#a8ebfa"/>
        <path id="Trazado_694886" data-name="Trazado 694886" d="M352.342,123.293l-10.334-22.565a2.539,2.539,0,0,0-2.287-1.481v8.689l2.855,6.233h-2.855v5.08H344.9l2.821,6.16a2.54,2.54,0,1,0,4.619-2.115Z" transform="translate(-282.194 -84.81)" fill="#76e2f8"/>
      </g>
    </g>
  </g>
</svg>
