<svg xmlns="http://www.w3.org/2000/svg" xmlns:xlink="http://www.w3.org/1999/xlink" width="1329" height="757" viewBox="0 0 1329 757">
  <defs>
    <clipPath id="clip-path">
      <rect id="Rectángulo_345161" data-name="Rectángulo 345161" width="1329" height="701" transform="translate(0 0.107)" fill="#636363" opacity="0.25"/>
    </clipPath>
    <linearGradient id="linear-gradient" x1="0.5" x2="0.5" y2="1" gradientUnits="objectBoundingBox">
      <stop offset="0" stop-color="#fff"/>
      <stop offset="1" stop-color="#fff" stop-opacity="0"/>
    </linearGradient>
    <linearGradient id="linear-gradient-2" y1="1" y2="0" xlink:href="#linear-gradient"/>
  </defs>
  <g id="Grupo_1011465" data-name="Grupo 1011465" transform="translate(-136 -8590.107)">
    <path id="Trazado_722288" data-name="Trazado 722288" d="M0,0H1328V757H0Z" transform="translate(136 8590.107)" fill="#d3effd" opacity="0.15"/>
    <g id="Enmascarar_grupo_1011252" data-name="Enmascarar grupo 1011252" transform="translate(136 8590)" opacity="0.67" clip-path="url(#clip-path)">
      <g id="Grupo_990811" data-name="Grupo 990811" transform="translate(-222 -108.518)" opacity="0.39">
        <g id="Grupo_990789" data-name="Grupo 990789" transform="translate(0 0)">
          <path id="Trazado_699610" data-name="Trazado 699610" d="M240.617,97.461a2.319,2.319,0,1,1-2.6,2.3,2.464,2.464,0,0,1,2.6-2.3m-18.472,2.3a2.616,2.616,0,1,0,2.6-2.3,2.464,2.464,0,0,0-2.6,2.3m-15.864,0a2.616,2.616,0,1,0,2.6-2.3,2.461,2.461,0,0,0-2.6,2.3M5.2,85.842a2.188,2.188,0,0,0-.864-1.7c-.384,1.3-.761,2.609-1.1,3.929A2.374,2.374,0,0,0,5.2,85.842M190.412,99.764a2.617,2.617,0,1,0,2.6-2.3,2.461,2.461,0,0,0-2.6,2.3M2.6,102.065a2.319,2.319,0,1,0,0-4.6,2.848,2.848,0,0,0-1.359.345c-.186,1.186-.356,2.373-.5,3.57a2.758,2.758,0,0,0,1.858.689m76.742-2.3a2.617,2.617,0,1,0,2.6-2.3,2.46,2.46,0,0,0-2.6,2.3m47.6,0a2.618,2.618,0,1,0,2.6-2.3,2.46,2.46,0,0,0-2.6,2.3m-15.87,0a2.618,2.618,0,1,0,2.6-2.3,2.463,2.463,0,0,0-2.6,2.3m-15.866,0a2.616,2.616,0,1,0,2.6-2.3,2.462,2.462,0,0,0-2.6,2.3m47.606,0a2.615,2.615,0,1,0,2.595-2.3,2.458,2.458,0,0,0-2.595,2.3m79.332-13.922a2.616,2.616,0,1,0,2.6-2.307,2.471,2.471,0,0,0-2.6,2.307M158.677,99.764a2.618,2.618,0,1,0,2.6-2.3,2.46,2.46,0,0,0-2.6,2.3m15.867,0a2.617,2.617,0,1,0,2.6-2.3,2.46,2.46,0,0,0-2.6,2.3m15.867-13.922a2.617,2.617,0,1,0,2.6-2.307,2.468,2.468,0,0,0-2.6,2.307m-47.6,0a2.614,2.614,0,1,0,2.595-2.307,2.464,2.464,0,0,0-2.595,2.307m15.864,0a2.618,2.618,0,1,0,2.6-2.307,2.467,2.467,0,0,0-2.6,2.307m-126.941,0a2.617,2.617,0,1,0,2.595-2.307,2.465,2.465,0,0,0-2.595,2.307m174.544,0a2.616,2.616,0,1,0,2.6-2.307,2.468,2.468,0,0,0-2.6,2.307m31.735,0a2.617,2.617,0,1,0,2.6-2.307,2.472,2.472,0,0,0-2.6,2.307m-63.471,0a2.617,2.617,0,1,0,2.6-2.307,2.467,2.467,0,0,0-2.6,2.307m-111.077,0a2.619,2.619,0,1,0,2.6-2.307,2.471,2.471,0,0,0-2.6,2.307m-15.863,0a2.617,2.617,0,1,0,2.6-2.307,2.468,2.468,0,0,0-2.6,2.307m31.735,0a2.617,2.617,0,1,0,2.6-2.307,2.467,2.467,0,0,0-2.6,2.307m47.6,0a2.618,2.618,0,1,0,2.6-2.307,2.467,2.467,0,0,0-2.6,2.307m-31.736,0a2.615,2.615,0,1,0,2.6-2.307,2.469,2.469,0,0,0-2.6,2.307m15.866,0a2.618,2.618,0,1,0,2.6-2.307,2.47,2.47,0,0,0-2.6,2.307m-95.205,0a2.469,2.469,0,0,0,2.6,2.306,2.323,2.323,0,1,0,0-4.613,2.467,2.467,0,0,0-2.6,2.307m47.6,13.922a2.62,2.62,0,1,0,2.6-2.3,2.465,2.465,0,0,0-2.6,2.3M47.6,113.687a2.617,2.617,0,1,0,2.6-2.3,2.464,2.464,0,0,0-2.6,2.3m-31.738,0a2.464,2.464,0,0,0,2.6,2.306,2.322,2.322,0,1,0,0-4.611,2.465,2.465,0,0,0-2.6,2.3m47.6,0a2.62,2.62,0,1,0,2.6-2.3,2.467,2.467,0,0,0-2.6,2.3M2.6,129.916a2.322,2.322,0,1,0,0-4.611A2.742,2.742,0,0,0,.74,126c.144,1.2.313,2.381.5,3.567a2.851,2.851,0,0,0,1.359.349m76.742-16.229a2.617,2.617,0,1,0,2.6-2.3,2.463,2.463,0,0,0-2.6,2.3m95.205,13.922a2.617,2.617,0,1,0,2.6-2.3,2.467,2.467,0,0,0-2.6,2.3M95.207,113.687a2.615,2.615,0,1,0,2.6-2.3,2.464,2.464,0,0,0-2.6,2.3m63.471,13.922a2.618,2.618,0,1,0,2.6-2.3,2.467,2.467,0,0,0-2.6,2.3m63.468,0a2.616,2.616,0,1,0,2.6-2.3,2.471,2.471,0,0,0-2.6,2.3m-31.733,0a2.617,2.617,0,1,0,2.6-2.3,2.468,2.468,0,0,0-2.6,2.3m47.6,0a2.617,2.617,0,1,0,2.6-2.3,2.473,2.473,0,0,0-2.6,2.3m-31.735,0a2.616,2.616,0,1,0,2.6-2.3,2.468,2.468,0,0,0-2.6,2.3M31.736,113.687a2.617,2.617,0,1,0,2.595-2.3,2.461,2.461,0,0,0-2.595,2.3M0,113.687a2.463,2.463,0,0,0,2.6,2.306,2.322,2.322,0,1,0,0-4.611,2.463,2.463,0,0,0-2.6,2.3M15.867,99.764a2.462,2.462,0,0,0,2.6,2.3,2.319,2.319,0,1,0,0-4.6,2.466,2.466,0,0,0-2.6,2.3m222.148,13.923a2.617,2.617,0,1,0,2.6-2.3,2.468,2.468,0,0,0-2.6,2.3m-15.87,0a2.616,2.616,0,1,0,2.6-2.3,2.467,2.467,0,0,0-2.6,2.3M31.736,99.764a2.617,2.617,0,1,0,2.595-2.3,2.458,2.458,0,0,0-2.595,2.3m15.869,0a2.617,2.617,0,1,0,2.6-2.3,2.461,2.461,0,0,0-2.6,2.3m95.208,13.923a2.615,2.615,0,1,0,2.595-2.3,2.46,2.46,0,0,0-2.595,2.3m15.864,0a2.618,2.618,0,1,0,2.6-2.3,2.463,2.463,0,0,0-2.6,2.3m-47.6,0a2.618,2.618,0,1,0,2.6-2.3,2.465,2.465,0,0,0-2.6,2.3m95.208,0a2.616,2.616,0,1,0,2.6-2.3,2.464,2.464,0,0,0-2.6,2.3m-79.338,0a2.618,2.618,0,1,0,2.6-2.3,2.463,2.463,0,0,0-2.6,2.3m63.469,0a2.617,2.617,0,1,0,2.6-2.3,2.463,2.463,0,0,0-2.6,2.3m-15.867,0a2.617,2.617,0,1,0,2.6-2.3,2.463,2.463,0,0,0-2.6,2.3M79.339,16.229a2.618,2.618,0,0,0,5.2,0,2.617,2.617,0,0,0-5.2,0M206.28,58a2.616,2.616,0,1,0,2.6-2.3,2.458,2.458,0,0,0-2.6,2.3M126.943,30.153a2.618,2.618,0,0,0,5.2,0,2.618,2.618,0,0,0-5.2,0m-31.736,0a2.615,2.615,0,0,0,5.194,0,2.615,2.615,0,0,0-5.194,0m15.866,0a2.618,2.618,0,0,0,5.2,0,2.618,2.618,0,0,0-5.2,0m47.6,0a2.618,2.618,0,0,0,5.2,0,2.618,2.618,0,0,0-5.2,0m31.735,0a2.617,2.617,0,0,0,5.2,0,2.617,2.617,0,0,0-5.2,0m21.064,0a2.616,2.616,0,0,0-5.2,0,2.616,2.616,0,0,0,5.2,0m-50.2-25.539a2.564,2.564,0,0,0,2.507-1.728c-1.663-.4-3.331-.781-5.026-1.125a2.176,2.176,0,0,0-.079.547,2.466,2.466,0,0,0,2.6,2.306m79.342,162.454a2.322,2.322,0,1,0,0,4.611,2.678,2.678,0,0,0,.838-.137c.582-.872,1.154-1.753,1.7-2.645a2.542,2.542,0,0,0-2.534-1.828M79.339,30.153a2.617,2.617,0,0,0,5.2,0,2.617,2.617,0,0,0-5.2,0m95.205,0a2.617,2.617,0,0,0,5.2,0,2.617,2.617,0,0,0-5.2,0m-126.94,0a2.617,2.617,0,0,0,5.2,0,2.617,2.617,0,0,0-5.2,0m15.863,0a2.619,2.619,0,0,0,5.2,0,2.619,2.619,0,0,0-5.2,0m79.345,0a2.614,2.614,0,0,0,5.192,0,2.614,2.614,0,0,0-5.192,0m47.6-13.924a2.618,2.618,0,0,0,5.2,0,2.617,2.617,0,0,0-5.2,0M111.072,2.309a2.618,2.618,0,0,0,5.2,0,2.617,2.617,0,0,0-5.2,0m63.472,13.92a2.618,2.618,0,0,0,5.2,0,2.617,2.617,0,0,0-5.2,0m-111.077,0a2.62,2.62,0,0,0,5.2,0,2.62,2.62,0,0,0-5.2,0m63.475-13.92a2.618,2.618,0,0,0,5.2,0,2.617,2.617,0,0,0-5.2,0m15.87,0a2.614,2.614,0,0,0,5.192,0,2.614,2.614,0,0,0-5.192,0M97.8,4.615a2.465,2.465,0,0,0,2.6-2.306,1.7,1.7,0,0,0-.085-.547c-1.69.345-3.354.726-5.014,1.125a2.552,2.552,0,0,0,2.5,1.728m13.27,11.614a2.619,2.619,0,0,0,5.2,0,2.618,2.618,0,0,0-5.2,0m-15.866,0a2.616,2.616,0,0,0,5.194,0,2.615,2.615,0,0,0-5.194,0m47.606,111.38a2.615,2.615,0,1,0,2.595-2.3,2.464,2.464,0,0,0-2.595,2.3m0-111.38a2.615,2.615,0,0,0,5.192,0,2.615,2.615,0,0,0-5.192,0m15.864,0a2.619,2.619,0,0,0,5.2,0,2.618,2.618,0,0,0-5.2,0m-31.735,0a2.619,2.619,0,0,0,5.2,0,2.618,2.618,0,0,0-5.2,0M238.015,71.923a2.617,2.617,0,1,0,2.6-2.3,2.468,2.468,0,0,0-2.6,2.3m-79.338,0a2.618,2.618,0,1,0,2.6-2.3,2.463,2.463,0,0,0-2.6,2.3m-15.864,0a2.615,2.615,0,1,0,2.595-2.3,2.46,2.46,0,0,0-2.595,2.3m31.731,0a2.617,2.617,0,1,0,2.6-2.3,2.463,2.463,0,0,0-2.6,2.3m15.867,0a2.617,2.617,0,1,0,2.6-2.3,2.463,2.463,0,0,0-2.6,2.3m15.869,0a2.616,2.616,0,1,0,2.6-2.3,2.464,2.464,0,0,0-2.6,2.3m-79.338,0a2.618,2.618,0,1,0,2.6-2.3,2.463,2.463,0,0,0-2.6,2.3m-95.207,0a2.617,2.617,0,1,0,2.595-2.3,2.461,2.461,0,0,0-2.595,2.3m15.869,0a2.617,2.617,0,1,0,2.6-2.3,2.464,2.464,0,0,0-2.6,2.3m15.863,0a2.62,2.62,0,1,0,2.6-2.3,2.467,2.467,0,0,0-2.6,2.3m-47.6,0a2.464,2.464,0,0,0,2.6,2.3,2.32,2.32,0,1,0,0-4.605,2.461,2.461,0,0,0-2.6,2.3m95.205,0a2.618,2.618,0,1,0,2.6-2.3,2.465,2.465,0,0,0-2.6,2.3m-31.733,0a2.617,2.617,0,1,0,2.6-2.3,2.463,2.463,0,0,0-2.6,2.3m15.867,0a2.615,2.615,0,1,0,2.6-2.3,2.464,2.464,0,0,0-2.6,2.3M222.145,58a2.616,2.616,0,1,0,2.6-2.3,2.461,2.461,0,0,0-2.6,2.3m-63.468,0a2.618,2.618,0,1,0,2.6-2.3,2.457,2.457,0,0,0-2.6,2.3m-15.864,0a2.615,2.615,0,1,0,2.595-2.3,2.454,2.454,0,0,0-2.595,2.3m79.332,13.928a2.616,2.616,0,1,0,2.6-2.3,2.467,2.467,0,0,0-2.6,2.3M111.072,58a2.618,2.618,0,1,0,2.6-2.3,2.459,2.459,0,0,0-2.6,2.3m79.339,0a2.617,2.617,0,1,0,2.6-2.3,2.457,2.457,0,0,0-2.6,2.3m-15.867,0a2.617,2.617,0,1,0,2.6-2.3,2.457,2.457,0,0,0-2.6,2.3m-47.6,0a2.618,2.618,0,1,0,2.6-2.3,2.457,2.457,0,0,0-2.6,2.3M47.6,58a2.617,2.617,0,1,0,2.6-2.3A2.458,2.458,0,0,0,47.6,58M31.736,58a2.617,2.617,0,1,0,2.595-2.3A2.455,2.455,0,0,0,31.736,58m47.6,0a2.617,2.617,0,1,0,2.6-2.3,2.457,2.457,0,0,0-2.6,2.3M63.468,58a2.62,2.62,0,1,0,2.6-2.3,2.461,2.461,0,0,0-2.6,2.3m31.739,0a2.616,2.616,0,1,0,2.6-2.3,2.458,2.458,0,0,0-2.6,2.3m52.8,153.15a2.615,2.615,0,1,0-2.6,2.3,2.464,2.464,0,0,0,2.6-2.3M68.669,44.075a2.62,2.62,0,1,0-2.6,2.3,2.464,2.464,0,0,0,2.6-2.3M256.481,97.461a2.319,2.319,0,1,0,0,4.6,2.764,2.764,0,0,0,1.855-.689c-.142-1.2-.312-2.384-.5-3.57a2.838,2.838,0,0,0-1.357-.345M84.536,44.075a2.617,2.617,0,1,0-2.6,2.3,2.462,2.462,0,0,0,2.6-2.3m15.864,0a2.615,2.615,0,1,0-2.6,2.3,2.461,2.461,0,0,0,2.6-2.3M238.015,58a2.462,2.462,0,0,0,2.6,2.3,2.532,2.532,0,0,0,2.534-1.823c-.542-.887-1.113-1.768-1.7-2.645a2.842,2.842,0,0,0-.838-.135,2.469,2.469,0,0,0-2.6,2.3m15.867,27.847a2.376,2.376,0,0,0,1.956,2.225c-.334-1.32-.708-2.627-1.1-3.929a2.185,2.185,0,0,0-.861,1.7M52.8,44.075a2.617,2.617,0,1,0-2.6,2.3,2.464,2.464,0,0,0,2.6-2.3m126.94,0a2.617,2.617,0,1,0-2.593,2.3,2.462,2.462,0,0,0,2.593-2.3m15.867,0a2.617,2.617,0,1,0-2.6,2.3,2.463,2.463,0,0,0,2.6-2.3m15.867,0a2.616,2.616,0,1,0-2.6,2.3,2.462,2.462,0,0,0,2.6-2.3m-47.6,0a2.618,2.618,0,1,0-2.6,2.3,2.465,2.465,0,0,0,2.6-2.3m-31.735,0a2.618,2.618,0,1,0-2.6,2.3,2.464,2.464,0,0,0,2.6-2.3m15.864,0a2.615,2.615,0,1,0-2.6,2.3,2.463,2.463,0,0,0,2.6-2.3m-31.735,0a2.618,2.618,0,1,0-2.6,2.3,2.465,2.465,0,0,0,2.6-2.3m-5.2,139.228a2.617,2.617,0,1,0,2.6-2.309,2.469,2.469,0,0,0-2.6,2.309m15.87,0a2.617,2.617,0,1,0,2.6-2.309,2.466,2.466,0,0,0-2.6,2.309m-31.736,0a2.615,2.615,0,1,0,2.6-2.309,2.468,2.468,0,0,0-2.6,2.309m63.471,0a2.617,2.617,0,1,0,2.6-2.309,2.466,2.466,0,0,0-2.6,2.309m-79.338,0a2.617,2.617,0,1,0,2.6-2.309,2.466,2.466,0,0,0-2.6,2.309m63.474,0a2.614,2.614,0,1,0,2.595-2.309,2.463,2.463,0,0,0-2.595,2.309m113.668-71.921a2.322,2.322,0,1,0,2.6,2.3,2.464,2.464,0,0,0-2.6-2.3M63.468,183.3a2.619,2.619,0,1,0,2.6-2.309,2.471,2.471,0,0,0-2.6,2.309m190.415-41.772a2.182,2.182,0,0,0,.861,1.7c.387-1.3.761-2.609,1.1-3.924a2.364,2.364,0,0,0-1.956,2.221m2.6-16.226a2.322,2.322,0,1,0,0,4.611,2.841,2.841,0,0,0,1.357-.349c.186-1.186.355-2.368.5-3.567a2.748,2.748,0,0,0-1.855-.695m-29.141,58a2.616,2.616,0,1,0-2.595,2.306,2.46,2.46,0,0,0,2.595-2.306m-195.6,0a2.617,2.617,0,1,0,2.595-2.309,2.464,2.464,0,0,0-2.595,2.309m15.869,0a2.617,2.617,0,1,0,2.6-2.309,2.467,2.467,0,0,0-2.6,2.309m148,27.842a2.617,2.617,0,1,0-2.6,2.3,2.465,2.465,0,0,0,2.6-2.3M100.4,197.225a2.616,2.616,0,1,0-2.6,2.3,2.467,2.467,0,0,0,2.6-2.3m15.87,0a2.618,2.618,0,1,0-2.6,2.3,2.471,2.471,0,0,0,2.6-2.3m31.735,0a2.615,2.615,0,1,0-2.6,2.3,2.469,2.469,0,0,0,2.6-2.3m-15.864,0a2.618,2.618,0,1,0-2.6,2.3,2.471,2.471,0,0,0,2.6-2.3m-63.472,0a2.62,2.62,0,1,0-2.6,2.3,2.47,2.47,0,0,0,2.6-2.3M174.544,183.3a2.617,2.617,0,1,0,2.6-2.309,2.466,2.466,0,0,0-2.6,2.309M84.536,197.225a2.617,2.617,0,1,0-2.6,2.3,2.468,2.468,0,0,0,2.6-2.3m-36.931,0a2.616,2.616,0,1,0,2.6-2.311,2.466,2.466,0,0,0-2.6,2.311m163.871,0a2.617,2.617,0,1,0-2.6,2.3,2.468,2.468,0,0,0,2.6-2.3M100.4,225.069a2.459,2.459,0,0,0-2.6-2.306,2.552,2.552,0,0,0-2.5,1.72c1.66.4,3.331.787,5.014,1.134a1.711,1.711,0,0,0,.085-.547m26.542-97.461a2.618,2.618,0,1,0,2.6-2.3,2.467,2.467,0,0,0-2.6,2.3m52.8,69.616a2.617,2.617,0,1,0-2.593,2.3,2.468,2.468,0,0,0,2.593-2.3m-15.866,0a2.618,2.618,0,1,0-2.6,2.3,2.472,2.472,0,0,0,2.6-2.3m-2.6,25.539a2.46,2.46,0,0,0-2.6,2.306,2.194,2.194,0,0,0,.079.547c1.694-.346,3.363-.732,5.026-1.134a2.564,2.564,0,0,0-2.507-1.72m-34.332,2.306a2.618,2.618,0,1,0,2.6-2.306,2.465,2.465,0,0,0-2.6,2.306M227.34,44.075a2.616,2.616,0,1,0-2.595,2.3,2.459,2.459,0,0,0,2.595-2.3M111.072,225.069a2.618,2.618,0,1,0,2.6-2.306,2.467,2.467,0,0,0-2.6,2.306m36.933,0a2.615,2.615,0,1,0-2.6,2.3,2.461,2.461,0,0,0,2.6-2.3m31.736-13.924a2.617,2.617,0,1,0-2.593,2.3,2.463,2.463,0,0,0,2.593-2.3M18.463,60.3a2.319,2.319,0,1,0,0-4.6,2.909,2.909,0,0,0-.846.135q-.862,1.316-1.691,2.645A2.54,2.54,0,0,0,18.463,60.3M31.736,44.075a2.617,2.617,0,1,0,2.595-2.3,2.462,2.462,0,0,0-2.595,2.3m100.4,167.07a2.618,2.618,0,1,0-2.6,2.3,2.466,2.466,0,0,0,2.6-2.3m-47.6,0a2.617,2.617,0,1,0-2.6,2.3,2.463,2.463,0,0,0,2.6-2.3m31.735,0a2.618,2.618,0,1,0-2.6,2.3,2.466,2.466,0,0,0,2.6-2.3m47.6,0a2.618,2.618,0,1,0-2.6,2.3,2.467,2.467,0,0,0,2.6-2.3m-63.475,0a2.616,2.616,0,1,0-2.6,2.3,2.462,2.462,0,0,0,2.6-2.3m-31.731,0a2.62,2.62,0,1,0-2.6,2.3,2.465,2.465,0,0,0,2.6-2.3m126.94-13.92a2.617,2.617,0,1,0-2.6,2.3,2.47,2.47,0,0,0,2.6-2.3M79.339,141.532a2.617,2.617,0,1,0,2.6-2.307,2.462,2.462,0,0,0-2.6,2.307m15.867,0a2.615,2.615,0,1,0,2.6-2.307,2.463,2.463,0,0,0-2.6,2.307m-31.739,0a2.619,2.619,0,1,0,2.6-2.307,2.466,2.466,0,0,0-2.6,2.307m63.475,0a2.618,2.618,0,1,0,2.6-2.307,2.462,2.462,0,0,0-2.6,2.307m15.87,0a2.614,2.614,0,1,0,2.595-2.307,2.459,2.459,0,0,0-2.595,2.307m-95.208,0a2.617,2.617,0,1,0,2.6-2.307,2.463,2.463,0,0,0-2.6,2.307m63.468,0a2.618,2.618,0,1,0,2.6-2.307,2.464,2.464,0,0,0-2.6,2.307m111.072,13.922a2.616,2.616,0,1,0,2.6-2.3,2.464,2.464,0,0,0-2.6,2.3M31.736,141.532a2.617,2.617,0,1,0,2.595-2.307,2.46,2.46,0,0,0-2.595,2.307M206.28,155.453a2.616,2.616,0,1,0,2.6-2.3,2.462,2.462,0,0,0-2.6,2.3m31.735,0a2.617,2.617,0,1,0,2.6-2.3,2.466,2.466,0,0,0-2.6,2.3M15.867,141.532a2.463,2.463,0,0,0,2.6,2.306,2.323,2.323,0,1,0,0-4.613,2.467,2.467,0,0,0-2.6,2.307m-10.669,0a2.362,2.362,0,0,0-1.961-2.221c.336,1.315.713,2.624,1.1,3.924a2.185,2.185,0,0,0,.864-1.7m26.538-13.923a2.617,2.617,0,1,0,2.595-2.3,2.465,2.465,0,0,0-2.595,2.3m47.6,0a2.617,2.617,0,1,0,2.6-2.3,2.467,2.467,0,0,0-2.6,2.3m111.072,27.845a2.617,2.617,0,1,0,2.6-2.3,2.461,2.461,0,0,0-2.6,2.3M47.6,127.609a2.617,2.617,0,1,0,2.6-2.3,2.468,2.468,0,0,0-2.6,2.3m111.072,13.923a2.618,2.618,0,1,0,2.6-2.307,2.462,2.462,0,0,0-2.6,2.307M95.207,127.609a2.616,2.616,0,1,0,2.6-2.3,2.469,2.469,0,0,0-2.6,2.3m15.866,0a2.618,2.618,0,1,0,2.6-2.3,2.47,2.47,0,0,0-2.6,2.3m-47.6,0a2.62,2.62,0,1,0,2.6-2.3,2.472,2.472,0,0,0-2.6,2.3m126.944,13.923a2.617,2.617,0,1,0,2.6-2.307,2.462,2.462,0,0,0-2.6,2.307m15.869,0a2.616,2.616,0,1,0,2.6-2.307,2.463,2.463,0,0,0-2.6,2.307m-31.736,0a2.617,2.617,0,1,0,2.6-2.307,2.462,2.462,0,0,0-2.6,2.307M15.867,127.609a2.469,2.469,0,0,0,2.6,2.307,2.322,2.322,0,1,0,0-4.611,2.465,2.465,0,0,0-2.6,2.3m222.148,13.923a2.617,2.617,0,1,0,2.6-2.307,2.467,2.467,0,0,0-2.6,2.307m-15.87,0a2.616,2.616,0,1,0,2.6-2.307,2.466,2.466,0,0,0-2.6,2.307M206.28,169.376a2.616,2.616,0,1,0,2.6-2.307,2.463,2.463,0,0,0-2.6,2.307m-63.468,0a2.614,2.614,0,1,0,2.595-2.307,2.459,2.459,0,0,0-2.595,2.307m-15.87,0a2.618,2.618,0,1,0,2.6-2.307,2.462,2.462,0,0,0-2.6,2.307m31.735,0a2.618,2.618,0,1,0,2.6-2.307,2.462,2.462,0,0,0-2.6,2.307m-47.6,0a2.618,2.618,0,1,0,2.6-2.307,2.464,2.464,0,0,0-2.6,2.307m63.472,0a2.617,2.617,0,1,0,2.6-2.307,2.462,2.462,0,0,0-2.6,2.307m15.867,0a2.617,2.617,0,1,0,2.6-2.307,2.462,2.462,0,0,0-2.6,2.307m-158.676,0a2.617,2.617,0,1,0,2.595-2.307,2.46,2.46,0,0,0-2.595,2.307m15.869,0a2.617,2.617,0,1,0,2.6-2.307,2.463,2.463,0,0,0-2.6,2.307m47.6,0a2.615,2.615,0,1,0,2.6-2.307,2.463,2.463,0,0,0-2.6,2.307M190.412,183.3a2.617,2.617,0,1,0,2.6-2.309,2.467,2.467,0,0,0-2.6,2.309m31.733-13.927a2.616,2.616,0,1,0,2.6-2.307,2.465,2.465,0,0,0-2.6,2.307m-142.805,0a2.617,2.617,0,1,0,2.6-2.307,2.462,2.462,0,0,0-2.6,2.307m-15.872,0a2.619,2.619,0,1,0,2.6-2.307,2.466,2.466,0,0,0-2.6,2.307M31.736,155.453a2.617,2.617,0,1,0,2.595-2.3,2.459,2.459,0,0,0-2.595,2.3m95.207,0a2.618,2.618,0,1,0,2.6-2.3,2.461,2.461,0,0,0-2.6,2.3m-15.87,0a2.618,2.618,0,1,0,2.6-2.3,2.463,2.463,0,0,0-2.6,2.3m-15.866,0a2.616,2.616,0,1,0,2.6-2.3,2.462,2.462,0,0,0-2.6,2.3m63.471,0a2.618,2.618,0,1,0,2.6-2.3,2.461,2.461,0,0,0-2.6,2.3m-15.864,0a2.615,2.615,0,1,0,2.595-2.3,2.458,2.458,0,0,0-2.595,2.3m-63.474,0a2.617,2.617,0,1,0,2.6-2.3,2.461,2.461,0,0,0-2.6,2.3M206.28,183.3a2.616,2.616,0,1,0,2.6-2.309,2.467,2.467,0,0,0-2.6,2.309M21.066,169.376a2.465,2.465,0,0,0-2.6-2.307,2.547,2.547,0,0,0-2.537,1.828q.826,1.338,1.691,2.645a2.74,2.74,0,0,0,.846.137,2.465,2.465,0,0,0,2.6-2.3m-5.2-13.923a2.462,2.462,0,0,0,2.6,2.3,2.32,2.32,0,1,0,0-4.607,2.464,2.464,0,0,0-2.6,2.3m158.677,0a2.617,2.617,0,1,0,2.6-2.3,2.461,2.461,0,0,0-2.6,2.3m-126.94,0a2.617,2.617,0,1,0,2.6-2.3,2.462,2.462,0,0,0-2.6,2.3m15.863,0a2.62,2.62,0,1,0,2.6-2.3,2.465,2.465,0,0,0-2.6,2.3" transform="translate(0 243.777)" fill="#ffa031"/>
          <path id="Trazado_699611" data-name="Trazado 699611" d="M950.839,335a2.571,2.571,0,1,1-2.354,2.563A2.465,2.465,0,0,1,950.839,335m-16.713,2.563A2.358,2.358,0,1,0,936.477,335a2.462,2.462,0,0,0-2.352,2.563m-14.354,0A2.359,2.359,0,1,0,922.12,335a2.459,2.459,0,0,0-2.349,2.563M737.826,322.069a2.653,2.653,0,0,0-.782-1.894c-.348,1.449-.689,2.9-.991,4.372a2.532,2.532,0,0,0,1.773-2.478m167.586,15.492A2.361,2.361,0,1,0,907.765,335a2.461,2.461,0,0,0-2.353,2.563m-169.939,2.56a2.571,2.571,0,0,0,0-5.123,2.22,2.22,0,0,0-1.231.384c-.167,1.319-.32,2.642-.45,3.972a2.245,2.245,0,0,0,1.681.767m69.437-2.56a2.361,2.361,0,1,0,2.35-2.563,2.46,2.46,0,0,0-2.35,2.563m43.074,0A2.361,2.361,0,1,0,850.335,335a2.461,2.461,0,0,0-2.352,2.563m-14.36,0A2.36,2.36,0,1,0,835.976,335a2.462,2.462,0,0,0-2.353,2.563m-14.356,0A2.359,2.359,0,1,0,821.616,335a2.461,2.461,0,0,0-2.349,2.563m43.075,0A2.358,2.358,0,1,0,864.69,335a2.457,2.457,0,0,0-2.348,2.563m71.783-15.492a2.358,2.358,0,1,0,2.352-2.566,2.47,2.47,0,0,0-2.352,2.566M876.7,337.561A2.359,2.359,0,1,0,879.048,335a2.458,2.458,0,0,0-2.349,2.563m14.356,0A2.361,2.361,0,1,0,893.41,335a2.459,2.459,0,0,0-2.356,2.563m14.357-15.492a2.361,2.361,0,1,0,2.353-2.566,2.469,2.469,0,0,0-2.353,2.566m-43.069,0a2.358,2.358,0,1,0,2.348-2.566,2.466,2.466,0,0,0-2.348,2.566m14.356,0a2.359,2.359,0,1,0,2.349-2.566,2.467,2.467,0,0,0-2.349,2.566m-114.861,0a2.36,2.36,0,1,0,2.348-2.566,2.467,2.467,0,0,0-2.348,2.566m157.934,0a2.359,2.359,0,1,0,2.349-2.566,2.468,2.468,0,0,0-2.349,2.566m28.713,0a2.36,2.36,0,1,0,2.354-2.566,2.472,2.472,0,0,0-2.354,2.566m-57.43,0a2.361,2.361,0,1,0,2.356-2.566,2.467,2.467,0,0,0-2.356,2.566m-100.505,0A2.362,2.362,0,1,0,792.9,319.5a2.471,2.471,0,0,0-2.354,2.566m-14.352,0a2.36,2.36,0,1,0,2.349-2.566,2.467,2.467,0,0,0-2.349,2.566m28.711,0a2.361,2.361,0,1,0,2.35-2.566,2.469,2.469,0,0,0-2.35,2.566m43.074,0a2.361,2.361,0,1,0,2.352-2.566,2.469,2.469,0,0,0-2.352,2.566m-28.716,0a2.359,2.359,0,1,0,2.349-2.566,2.47,2.47,0,0,0-2.349,2.566m14.356,0a2.361,2.361,0,1,0,2.353-2.566,2.47,2.47,0,0,0-2.353,2.566m-86.144,0a2.361,2.361,0,1,0,2.349-2.566,2.469,2.469,0,0,0-2.349,2.566m43.07,15.492A2.362,2.362,0,1,0,792.9,335a2.463,2.463,0,0,0-2.354,2.563M776.2,353.055a2.36,2.36,0,1,0,2.349-2.566,2.462,2.462,0,0,0-2.349,2.566m-28.718,0a2.361,2.361,0,1,0,2.349-2.566,2.465,2.465,0,0,0-2.349,2.566m43.07,0a2.362,2.362,0,1,0,2.354-2.566,2.466,2.466,0,0,0-2.354,2.566m-55.077,18.059a2.576,2.576,0,0,0,0-5.132,2.241,2.241,0,0,0-1.681.775c.13,1.333.283,2.648.45,3.968a2.227,2.227,0,0,0,1.231.39m69.437-18.059a2.361,2.361,0,1,0,2.35-2.566,2.464,2.464,0,0,0-2.35,2.566m86.145,15.49a2.361,2.361,0,1,0,2.356-2.563,2.469,2.469,0,0,0-2.356,2.563m-71.787-15.49a2.359,2.359,0,1,0,2.349-2.566,2.465,2.465,0,0,0-2.349,2.566m57.431,15.49a2.359,2.359,0,1,0,2.349-2.563,2.469,2.469,0,0,0-2.349,2.563m57.427,0a2.358,2.358,0,1,0,2.352-2.563,2.472,2.472,0,0,0-2.352,2.563m-28.714,0a2.361,2.361,0,1,0,2.353-2.563,2.471,2.471,0,0,0-2.353,2.563m43.073,0a2.36,2.36,0,1,0,2.354-2.563,2.474,2.474,0,0,0-2.354,2.563m-28.713,0a2.359,2.359,0,1,0,2.349-2.563,2.47,2.47,0,0,0-2.349,2.563m-157.934-15.49a2.36,2.36,0,1,0,2.348-2.566,2.462,2.462,0,0,0-2.348,2.566m-28.716,0a2.361,2.361,0,1,0,2.35-2.566,2.463,2.463,0,0,0-2.35,2.566m14.357-15.495A2.361,2.361,0,1,0,749.828,335a2.461,2.461,0,0,0-2.349,2.563m201.005,15.495a2.36,2.36,0,1,0,2.354-2.566,2.467,2.467,0,0,0-2.354,2.566m-14.359,0a2.358,2.358,0,1,0,2.352-2.566,2.465,2.465,0,0,0-2.352,2.566M761.838,337.561A2.36,2.36,0,1,0,764.185,335a2.458,2.458,0,0,0-2.348,2.563m14.36,0A2.359,2.359,0,1,0,778.546,335a2.459,2.459,0,0,0-2.349,2.563m86.145,15.495a2.358,2.358,0,1,0,2.348-2.566,2.461,2.461,0,0,0-2.348,2.566m14.356,0a2.359,2.359,0,1,0,2.349-2.566,2.462,2.462,0,0,0-2.349,2.566m-43.076,0a2.361,2.361,0,1,0,2.353-2.566,2.465,2.465,0,0,0-2.353,2.566m86.148,0a2.359,2.359,0,1,0,2.349-2.566,2.463,2.463,0,0,0-2.349,2.566m-71.788,0a2.361,2.361,0,1,0,2.352-2.566,2.464,2.464,0,0,0-2.352,2.566m57.428,0a2.361,2.361,0,1,0,2.353-2.566,2.464,2.464,0,0,0-2.353,2.566m-14.357,0a2.361,2.361,0,1,0,2.356-2.566,2.462,2.462,0,0,0-2.356,2.566M804.909,244.606a2.361,2.361,0,1,0,2.35-2.566,2.46,2.46,0,0,0-2.35,2.566m114.862,46.476a2.359,2.359,0,1,0,2.349-2.563,2.454,2.454,0,0,0-2.349,2.563M847.983,260.1a2.362,2.362,0,1,0,2.352-2.569,2.469,2.469,0,0,0-2.352,2.569m-28.716,0a2.359,2.359,0,1,0,2.349-2.569,2.47,2.47,0,0,0-2.349,2.569m14.356,0a2.361,2.361,0,1,0,2.353-2.569,2.47,2.47,0,0,0-2.353,2.569m43.076,0a2.36,2.36,0,1,0,2.349-2.569A2.467,2.467,0,0,0,876.7,260.1m28.713,0a2.361,2.361,0,1,0,2.353-2.569,2.47,2.47,0,0,0-2.353,2.569m19.059,0a2.359,2.359,0,1,0-2.35,2.568,2.465,2.465,0,0,0,2.35-2.568m-45.423-28.419a2.4,2.4,0,0,0,2.268-1.923c-1.5-.445-3.014-.869-4.547-1.252a2.835,2.835,0,0,0-.07.609,2.466,2.466,0,0,0,2.349,2.566m71.791,180.774a2.576,2.576,0,0,0,0,5.132,2.028,2.028,0,0,0,.76-.154c.526-.969,1.043-1.95,1.533-2.944a2.409,2.409,0,0,0-2.293-2.035M804.909,260.1a2.361,2.361,0,1,0,2.35-2.569,2.469,2.469,0,0,0-2.35,2.569m86.145,0a2.361,2.361,0,1,0,2.356-2.569,2.467,2.467,0,0,0-2.356,2.569m-114.857,0a2.36,2.36,0,1,0,2.349-2.569A2.467,2.467,0,0,0,776.2,260.1m14.352,0a2.362,2.362,0,1,0,2.354-2.569,2.472,2.472,0,0,0-2.354,2.569m71.794,0a2.358,2.358,0,1,0,2.348-2.569,2.466,2.466,0,0,0-2.348,2.569m43.069-15.495a2.361,2.361,0,1,0,2.353-2.566,2.461,2.461,0,0,0-2.353,2.566m-71.788-15.49a2.361,2.361,0,1,0,2.353-2.569,2.469,2.469,0,0,0-2.353,2.569m57.431,15.49a2.361,2.361,0,1,0,2.356-2.566,2.459,2.459,0,0,0-2.356,2.566m-100.505,0a2.362,2.362,0,1,0,2.354-2.566,2.463,2.463,0,0,0-2.354,2.566m57.434-15.49a2.362,2.362,0,1,0,2.352-2.569,2.468,2.468,0,0,0-2.352,2.569m14.36,0a2.358,2.358,0,1,0,2.348-2.569,2.465,2.465,0,0,0-2.348,2.569m-40.726,2.566a2.465,2.465,0,0,0,2.35-2.566,2.337,2.337,0,0,0-.075-.609c-1.53.384-3.035.808-4.538,1.252a2.393,2.393,0,0,0,2.263,1.923m12.007,12.924a2.361,2.361,0,1,0,2.353-2.566,2.462,2.462,0,0,0-2.353,2.566m-14.356,0a2.359,2.359,0,1,0,2.349-2.566,2.461,2.461,0,0,0-2.349,2.566m43.075,123.939a2.358,2.358,0,1,0,2.348-2.563,2.468,2.468,0,0,0-2.348,2.563m0-123.939a2.358,2.358,0,1,0,2.348-2.566,2.457,2.457,0,0,0-2.348,2.566m14.356,0a2.359,2.359,0,1,0,2.349-2.566,2.458,2.458,0,0,0-2.349,2.566m-28.716,0a2.361,2.361,0,1,0,2.352-2.566,2.461,2.461,0,0,0-2.352,2.566m100.5,61.976a2.36,2.36,0,1,0,2.354-2.565,2.467,2.467,0,0,0-2.354,2.565m-71.786,0a2.359,2.359,0,1,0,2.349-2.565,2.461,2.461,0,0,0-2.349,2.565m-14.356,0a2.358,2.358,0,1,0,2.348-2.565,2.46,2.46,0,0,0-2.348,2.565m28.711,0a2.361,2.361,0,1,0,2.356-2.565,2.461,2.461,0,0,0-2.356,2.565m14.357,0a2.361,2.361,0,1,0,2.353-2.565,2.464,2.464,0,0,0-2.353,2.565m14.36,0a2.359,2.359,0,1,0,2.349-2.565,2.462,2.462,0,0,0-2.349,2.565m-71.788,0a2.361,2.361,0,1,0,2.352-2.565,2.463,2.463,0,0,0-2.352,2.565m-86.145,0a2.36,2.36,0,1,0,2.348-2.565,2.461,2.461,0,0,0-2.348,2.565m14.36,0a2.359,2.359,0,1,0,2.349-2.565,2.461,2.461,0,0,0-2.349,2.565m14.352,0a2.362,2.362,0,1,0,2.354-2.565,2.466,2.466,0,0,0-2.354,2.565m-43.07,0a2.361,2.361,0,1,0,2.349-2.565,2.464,2.464,0,0,0-2.349,2.565m86.144,0a2.361,2.361,0,1,0,2.353-2.565,2.465,2.465,0,0,0-2.353,2.565m-28.714,0a2.361,2.361,0,1,0,2.35-2.565,2.463,2.463,0,0,0-2.35,2.565m14.358,0a2.359,2.359,0,1,0,2.349-2.565,2.464,2.464,0,0,0-2.349,2.565m114.858-15.5a2.358,2.358,0,1,0,2.352-2.563,2.456,2.456,0,0,0-2.352,2.563m-57.427,0a2.359,2.359,0,1,0,2.349-2.563,2.453,2.453,0,0,0-2.349,2.563m-14.356,0a2.358,2.358,0,1,0,2.348-2.563,2.452,2.452,0,0,0-2.348,2.563m71.783,15.5a2.358,2.358,0,1,0,2.352-2.565,2.464,2.464,0,0,0-2.352,2.565m-100.5-15.5a2.36,2.36,0,1,0,2.353-2.563,2.457,2.457,0,0,0-2.353,2.563m71.788,0a2.361,2.361,0,1,0,2.353-2.563,2.456,2.456,0,0,0-2.353,2.563m-14.357,0a2.361,2.361,0,1,0,2.356-2.563,2.453,2.453,0,0,0-2.356,2.563m-43.071,0a2.361,2.361,0,1,0,2.352-2.563,2.456,2.456,0,0,0-2.352,2.563m-71.786,0a2.359,2.359,0,1,0,2.349-2.563,2.453,2.453,0,0,0-2.349,2.563m-14.36,0a2.36,2.36,0,1,0,2.348-2.563,2.453,2.453,0,0,0-2.348,2.563m43.071,0a2.361,2.361,0,1,0,2.35-2.563,2.455,2.455,0,0,0-2.35,2.563m-14.36,0a2.362,2.362,0,1,0,2.354-2.563,2.458,2.458,0,0,0-2.354,2.563m28.718,0a2.359,2.359,0,1,0,2.349-2.563,2.456,2.456,0,0,0-2.349,2.563M867.041,461.5a2.358,2.358,0,1,0-2.35,2.561,2.463,2.463,0,0,0,2.35-2.561M795.255,275.592a2.362,2.362,0,1,0-2.352,2.563,2.463,2.463,0,0,0,2.352-2.563M965.192,335a2.571,2.571,0,0,0,0,5.123,2.254,2.254,0,0,0,1.681-.767c-.13-1.336-.282-2.653-.451-3.972a2.206,2.206,0,0,0-1.231-.384M809.612,275.592a2.361,2.361,0,1,0-2.353,2.563,2.463,2.463,0,0,0,2.353-2.563m14.354,0a2.359,2.359,0,1,0-2.35,2.563,2.459,2.459,0,0,0,2.35-2.563m124.517,15.49a2.459,2.459,0,0,0,2.354,2.559,2.4,2.4,0,0,0,2.293-2.029c-.49-.987-1.008-1.967-1.533-2.944a2.182,2.182,0,0,0-.76-.149,2.468,2.468,0,0,0-2.354,2.563m14.357,30.986a2.538,2.538,0,0,0,1.77,2.478c-.3-1.47-.639-2.923-.99-4.372a2.646,2.646,0,0,0-.78,1.894M780.9,275.592a2.359,2.359,0,1,0-2.352,2.563,2.463,2.463,0,0,0,2.352-2.563m114.86,0a2.361,2.361,0,1,0-2.348,2.563,2.464,2.464,0,0,0,2.348-2.563m14.357,0a2.361,2.361,0,1,0-2.35,2.563,2.464,2.464,0,0,0,2.35-2.563m14.356,0a2.359,2.359,0,1,0-2.35,2.563,2.46,2.46,0,0,0,2.35-2.563m-43.071,0a2.359,2.359,0,1,0-2.352,2.563,2.462,2.462,0,0,0,2.352-2.563m-28.711,0a2.361,2.361,0,1,0-2.353,2.563,2.464,2.464,0,0,0,2.353-2.563m14.353,0a2.358,2.358,0,1,0-2.35,2.563,2.462,2.462,0,0,0,2.35-2.563m-28.714,0a2.36,2.36,0,1,0-2.35,2.563,2.464,2.464,0,0,0,2.35-2.563m-4.7,154.93a2.361,2.361,0,1,0,2.353-2.569,2.468,2.468,0,0,0-2.353,2.569m14.36,0a2.362,2.362,0,1,0,2.352-2.569,2.467,2.467,0,0,0-2.352,2.569m-28.716,0a2.359,2.359,0,1,0,2.349-2.569,2.467,2.467,0,0,0-2.349,2.569m57.431,0a2.36,2.36,0,1,0,2.349-2.569,2.464,2.464,0,0,0-2.349,2.569m-71.79,0a2.361,2.361,0,1,0,2.35-2.569,2.466,2.466,0,0,0-2.35,2.569m57.434,0a2.358,2.358,0,1,0,2.348-2.569,2.463,2.463,0,0,0-2.348,2.569m102.849-80.033a2.576,2.576,0,1,0,2.353,2.566,2.465,2.465,0,0,0-2.353-2.566M790.549,430.522a2.362,2.362,0,1,0,2.354-2.569,2.469,2.469,0,0,0-2.354,2.569M962.841,384.04a2.644,2.644,0,0,0,.78,1.894c.35-1.446.687-2.9.99-4.368a2.52,2.52,0,0,0-1.77,2.473m2.35-18.058a2.576,2.576,0,0,0,0,5.132,2.213,2.213,0,0,0,1.231-.39c.168-1.32.32-2.635.451-3.968a2.251,2.251,0,0,0-1.681-.775m-26.368,64.54a2.358,2.358,0,1,0-2.346,2.564,2.461,2.461,0,0,0,2.346-2.564m-176.986,0a2.36,2.36,0,1,0,2.348-2.569,2.464,2.464,0,0,0-2.348,2.569m14.36,0a2.36,2.36,0,1,0,2.349-2.569,2.464,2.464,0,0,0-2.349,2.569M910.115,461.5a2.36,2.36,0,1,0-2.35,2.561,2.465,2.465,0,0,0,2.35-2.561m-86.148-15.492a2.358,2.358,0,1,0-2.35,2.562,2.468,2.468,0,0,0,2.35-2.562m14.36,0a2.36,2.36,0,1,0-2.35,2.562,2.472,2.472,0,0,0,2.35-2.562m28.714,0a2.358,2.358,0,1,0-2.35,2.562,2.47,2.47,0,0,0,2.35-2.562m-14.353,0a2.361,2.361,0,1,0-2.353,2.562,2.473,2.473,0,0,0,2.353-2.562m-57.433,0a2.362,2.362,0,1,0-2.352,2.562,2.472,2.472,0,0,0,2.352-2.562m95.8-15.49a2.361,2.361,0,1,0,2.356-2.569,2.464,2.464,0,0,0-2.356,2.569m-81.442,15.49a2.36,2.36,0,1,0-2.353,2.562,2.471,2.471,0,0,0,2.353-2.562m-33.415,0a2.36,2.36,0,1,0,2.349-2.572,2.464,2.464,0,0,0-2.349,2.572m148.273,0a2.358,2.358,0,1,0-2.35,2.562,2.469,2.469,0,0,0,2.35-2.562M823.967,477a2.458,2.458,0,0,0-2.35-2.566,2.39,2.39,0,0,0-2.263,1.912c1.5.448,3.014.878,4.538,1.261a2.35,2.35,0,0,0,.075-.608m24.016-108.453a2.361,2.361,0,1,0,2.352-2.563,2.471,2.471,0,0,0-2.352,2.563m47.775,77.467a2.36,2.36,0,1,0-2.348,2.562,2.472,2.472,0,0,0,2.348-2.562m-14.359,0a2.359,2.359,0,1,0-2.352,2.562,2.471,2.471,0,0,0,2.352-2.562m-2.352,28.42A2.459,2.459,0,0,0,876.7,477a2.854,2.854,0,0,0,.07.608c1.533-.384,3.043-.814,4.547-1.261a2.4,2.4,0,0,0-2.268-1.912M847.983,477a2.361,2.361,0,1,0,2.352-2.566A2.466,2.466,0,0,0,847.983,477m90.841-201.406a2.358,2.358,0,1,0-2.346,2.563,2.458,2.458,0,0,0,2.346-2.563M833.623,477a2.361,2.361,0,1,0,2.353-2.566A2.467,2.467,0,0,0,833.623,477m33.418,0a2.358,2.358,0,1,0-2.35,2.562,2.461,2.461,0,0,0,2.35-2.562M895.758,461.5a2.36,2.36,0,1,0-2.348,2.561,2.465,2.465,0,0,0,2.348-2.561M749.828,293.641a2.57,2.57,0,0,0,0-5.122,2.235,2.235,0,0,0-.767.149q-.78,1.464-1.529,2.944a2.4,2.4,0,0,0,2.3,2.029m12.009-18.049a2.36,2.36,0,1,0,2.348-2.563,2.461,2.461,0,0,0-2.348,2.563M852.688,461.5a2.361,2.361,0,1,0-2.353,2.561,2.465,2.465,0,0,0,2.353-2.561m-43.076,0a2.36,2.36,0,1,0-2.353,2.561,2.464,2.464,0,0,0,2.353-2.561m28.714,0a2.36,2.36,0,1,0-2.35,2.561,2.465,2.465,0,0,0,2.35-2.561m43.073,0a2.359,2.359,0,1,0-2.352,2.561A2.463,2.463,0,0,0,881.4,461.5m-57.433,0a2.358,2.358,0,1,0-2.35,2.561,2.46,2.46,0,0,0,2.35-2.561m-28.711,0a2.362,2.362,0,1,0-2.352,2.561,2.464,2.464,0,0,0,2.352-2.561m114.86-15.492a2.36,2.36,0,1,0-2.35,2.562,2.472,2.472,0,0,0,2.35-2.562M804.909,384.04a2.361,2.361,0,1,0,2.35-2.569,2.464,2.464,0,0,0-2.35,2.569m14.358,0a2.359,2.359,0,1,0,2.349-2.569,2.465,2.465,0,0,0-2.349,2.569m-28.718,0a2.362,2.362,0,1,0,2.354-2.569,2.466,2.466,0,0,0-2.354,2.569m57.434,0a2.362,2.362,0,1,0,2.352-2.569,2.464,2.464,0,0,0-2.352,2.569m14.36,0a2.358,2.358,0,1,0,2.348-2.569,2.461,2.461,0,0,0-2.348,2.569m-86.145,0a2.36,2.36,0,1,0,2.349-2.569,2.462,2.462,0,0,0-2.349,2.569m57.426,0a2.361,2.361,0,1,0,2.353-2.569,2.465,2.465,0,0,0-2.353,2.569m100.5,15.492a2.358,2.358,0,1,0,2.352-2.563,2.462,2.462,0,0,0-2.352,2.563M761.838,384.04a2.36,2.36,0,1,0,2.348-2.569,2.462,2.462,0,0,0-2.348,2.569m157.934,15.492a2.359,2.359,0,1,0,2.349-2.563,2.46,2.46,0,0,0-2.349,2.563m28.713,0a2.36,2.36,0,1,0,2.354-2.563,2.464,2.464,0,0,0-2.354,2.563M747.479,384.04a2.361,2.361,0,1,0,2.349-2.569,2.465,2.465,0,0,0-2.349,2.569m-9.653,0a2.514,2.514,0,0,0-1.773-2.473c.3,1.463.643,2.921.991,4.368a2.65,2.65,0,0,0,.782-1.894m24.012-15.495a2.36,2.36,0,1,0,2.348-2.563,2.468,2.468,0,0,0-2.348,2.563m43.071,0a2.361,2.361,0,1,0,2.35-2.563,2.471,2.471,0,0,0-2.35,2.563m100.5,30.986a2.361,2.361,0,1,0,2.353-2.563,2.461,2.461,0,0,0-2.353,2.563M776.2,368.545a2.359,2.359,0,1,0,2.349-2.563,2.469,2.469,0,0,0-2.349,2.563M876.7,384.04a2.36,2.36,0,1,0,2.349-2.569,2.462,2.462,0,0,0-2.349,2.569m-57.431-15.495a2.359,2.359,0,1,0,2.349-2.563,2.471,2.471,0,0,0-2.349,2.563m14.356,0a2.36,2.36,0,1,0,2.353-2.563,2.472,2.472,0,0,0-2.353,2.563m-43.074,0a2.362,2.362,0,1,0,2.354-2.563,2.473,2.473,0,0,0-2.354,2.563M905.411,384.04a2.361,2.361,0,1,0,2.353-2.569,2.464,2.464,0,0,0-2.353,2.569m14.36,0a2.359,2.359,0,1,0,2.349-2.569,2.463,2.463,0,0,0-2.349,2.569m-28.717,0a2.361,2.361,0,1,0,2.356-2.569,2.462,2.462,0,0,0-2.356,2.569M747.479,368.545a2.361,2.361,0,1,0,2.349-2.563,2.471,2.471,0,0,0-2.349,2.563M948.484,384.04a2.36,2.36,0,1,0,2.354-2.569,2.467,2.467,0,0,0-2.354,2.569m-14.359,0a2.358,2.358,0,1,0,2.352-2.569,2.465,2.465,0,0,0-2.352,2.569m-14.354,30.985a2.359,2.359,0,1,0,2.349-2.569,2.462,2.462,0,0,0-2.349,2.569m-57.429,0a2.358,2.358,0,1,0,2.348-2.569,2.46,2.46,0,0,0-2.348,2.569m-14.36,0a2.362,2.362,0,1,0,2.352-2.569,2.463,2.463,0,0,0-2.352,2.569m28.716,0a2.36,2.36,0,1,0,2.349-2.569,2.461,2.461,0,0,0-2.349,2.569m-43.076,0a2.361,2.361,0,1,0,2.353-2.569,2.464,2.464,0,0,0-2.353,2.569m57.431,0a2.361,2.361,0,1,0,2.356-2.569,2.461,2.461,0,0,0-2.356,2.569m14.357,0a2.361,2.361,0,1,0,2.353-2.569,2.464,2.464,0,0,0-2.353,2.569m-143.574,0a2.36,2.36,0,1,0,2.348-2.569,2.461,2.461,0,0,0-2.348,2.569m14.36,0a2.36,2.36,0,1,0,2.349-2.569,2.461,2.461,0,0,0-2.349,2.569m43.07,0a2.359,2.359,0,1,0,2.349-2.569,2.464,2.464,0,0,0-2.349,2.569m86.144,15.5a2.361,2.361,0,1,0,2.353-2.569,2.467,2.467,0,0,0-2.353,2.569m28.714-15.5a2.358,2.358,0,1,0,2.352-2.569,2.464,2.464,0,0,0-2.352,2.569m-129.217,0a2.361,2.361,0,1,0,2.35-2.569,2.463,2.463,0,0,0-2.35,2.569m-14.36,0a2.362,2.362,0,1,0,2.354-2.569,2.466,2.466,0,0,0-2.354,2.569m-28.712-15.493a2.36,2.36,0,1,0,2.348-2.563,2.459,2.459,0,0,0-2.348,2.563m86.145,0a2.361,2.361,0,1,0,2.352-2.563,2.461,2.461,0,0,0-2.352,2.563m-14.36,0a2.36,2.36,0,1,0,2.353-2.563,2.462,2.462,0,0,0-2.353,2.563m-14.356,0a2.359,2.359,0,1,0,2.349-2.563,2.462,2.462,0,0,0-2.349,2.563m57.431,0a2.359,2.359,0,1,0,2.349-2.563,2.459,2.459,0,0,0-2.349,2.563m-14.356,0a2.358,2.358,0,1,0,2.348-2.563,2.458,2.458,0,0,0-2.348,2.563m-57.434,0a2.361,2.361,0,1,0,2.35-2.563,2.461,2.461,0,0,0-2.35,2.563m114.862,30.991a2.359,2.359,0,1,0,2.349-2.569,2.465,2.465,0,0,0-2.349,2.569m-167.589-15.5a2.467,2.467,0,0,0-2.355-2.569,2.413,2.413,0,0,0-2.3,2.035q.748,1.491,1.529,2.944a2.075,2.075,0,0,0,.767.154,2.466,2.466,0,0,0,2.355-2.563m-4.7-15.493a2.361,2.361,0,1,0,2.349-2.563,2.462,2.462,0,0,0-2.349,2.563m143.575,0a2.361,2.361,0,1,0,2.356-2.563,2.459,2.459,0,0,0-2.356,2.563m-114.857,0a2.359,2.359,0,1,0,2.349-2.563,2.459,2.459,0,0,0-2.349,2.563m14.352,0a2.362,2.362,0,1,0,2.354-2.563,2.463,2.463,0,0,0-2.354,2.563" transform="translate(569.101 289.667)" fill="#ffa031"/>
          <path id="Trazado_699627" data-name="Trazado 699627" d="M968.452,323.026a2.293,2.293,0,1,1-2.545,2.28,2.421,2.421,0,0,1,2.545-2.28m-18.065,2.28a2.554,2.554,0,1,0,2.542-2.28,2.42,2.42,0,0,0-2.542,2.28m-15.516,0a2.555,2.555,0,1,0,2.539-2.28,2.417,2.417,0,0,0-2.539,2.28M738.206,311.524a2.174,2.174,0,0,0-.845-1.685c-.376,1.289-.744,2.582-1.071,3.89a2.343,2.343,0,0,0,1.916-2.2M919.35,325.306a2.557,2.557,0,1,0,2.544-2.28,2.419,2.419,0,0,0-2.544,2.28m-183.688,2.277a2.293,2.293,0,1,0,0-4.557,2.773,2.773,0,0,0-1.33.341c-.181,1.174-.346,2.35-.487,3.534a2.674,2.674,0,0,0,1.817.683m75.054-2.277a2.557,2.557,0,1,0,2.541-2.28,2.418,2.418,0,0,0-2.541,2.28m46.559,0a2.558,2.558,0,1,0,2.542-2.28,2.419,2.419,0,0,0-2.542,2.28m-15.522,0a2.557,2.557,0,1,0,2.544-2.28,2.42,2.42,0,0,0-2.544,2.28m-15.517,0a2.555,2.555,0,1,0,2.539-2.28,2.419,2.419,0,0,0-2.539,2.28m46.56,0a2.554,2.554,0,1,0,2.538-2.28,2.415,2.415,0,0,0-2.538,2.28m77.59-13.781a2.553,2.553,0,1,0,2.542-2.283,2.427,2.427,0,0,0-2.542,2.283m-62.073,13.781a2.555,2.555,0,1,0,2.539-2.28,2.416,2.416,0,0,0-2.539,2.28m15.517,0a2.557,2.557,0,1,0,2.546-2.28,2.417,2.417,0,0,0-2.546,2.28m15.519-13.781a2.557,2.557,0,1,0,2.544-2.283,2.426,2.426,0,0,0-2.544,2.283m-46.553,0a2.553,2.553,0,1,0,2.538-2.283,2.421,2.421,0,0,0-2.538,2.283m15.517,0a2.555,2.555,0,1,0,2.539-2.283,2.423,2.423,0,0,0-2.539,2.283m-124.154,0a2.556,2.556,0,1,0,2.538-2.283,2.422,2.422,0,0,0-2.538,2.283m170.711,0a2.554,2.554,0,1,0,2.539-2.283,2.424,2.424,0,0,0-2.539,2.283m31.036,0a2.556,2.556,0,1,0,2.545-2.283,2.429,2.429,0,0,0-2.545,2.283m-62.076,0a2.557,2.557,0,1,0,2.546-2.283,2.424,2.424,0,0,0-2.546,2.283m-108.636,0a2.558,2.558,0,1,0,2.545-2.283,2.428,2.428,0,0,0-2.545,2.283m-15.513,0a2.555,2.555,0,1,0,2.539-2.283,2.423,2.423,0,0,0-2.539,2.283m31.034,0a2.557,2.557,0,1,0,2.541-2.283,2.425,2.425,0,0,0-2.541,2.283m46.559,0a2.558,2.558,0,1,0,2.542-2.283,2.426,2.426,0,0,0-2.542,2.283m-31.039,0a2.554,2.554,0,1,0,2.539-2.283,2.426,2.426,0,0,0-2.539,2.283m15.517,0a2.557,2.557,0,1,0,2.544-2.283,2.427,2.427,0,0,0-2.544,2.283m-93.113,0a2.557,2.557,0,1,0,2.539-2.283,2.426,2.426,0,0,0-2.539,2.283M795.2,325.306a2.559,2.559,0,1,0,2.545-2.28,2.422,2.422,0,0,0-2.545,2.28M779.682,339.09a2.555,2.555,0,1,0,2.539-2.283,2.419,2.419,0,0,0-2.539,2.283m-31.042,0a2.557,2.557,0,1,0,2.539-2.283,2.421,2.421,0,0,0-2.539,2.283m46.555,0a2.558,2.558,0,1,0,2.545-2.283,2.424,2.424,0,0,0-2.545,2.283m-59.533,16.066a2.3,2.3,0,1,0,0-4.566,2.667,2.667,0,0,0-1.817.689c.141,1.186.306,2.356.487,3.53a2.777,2.777,0,0,0,1.33.347m75.054-16.066a2.557,2.557,0,1,0,2.541-2.283,2.421,2.421,0,0,0-2.541,2.283m93.115,13.78a2.557,2.557,0,1,0,2.546-2.28,2.425,2.425,0,0,0-2.546,2.28m-77.595-13.78a2.554,2.554,0,1,0,2.539-2.283,2.421,2.421,0,0,0-2.539,2.283m62.078,13.78a2.555,2.555,0,1,0,2.539-2.28,2.424,2.424,0,0,0-2.539,2.28m62.073,0a2.554,2.554,0,1,0,2.542-2.28,2.428,2.428,0,0,0-2.542,2.28m-31.037,0a2.557,2.557,0,1,0,2.544-2.28,2.427,2.427,0,0,0-2.544,2.28m46.557,0a2.556,2.556,0,1,0,2.545-2.28,2.431,2.431,0,0,0-2.545,2.28m-31.036,0a2.555,2.555,0,1,0,2.539-2.28,2.425,2.425,0,0,0-2.539,2.28M764.161,339.09a2.556,2.556,0,1,0,2.538-2.283,2.418,2.418,0,0,0-2.538,2.283m-31.039,0a2.557,2.557,0,1,0,2.541-2.283,2.42,2.42,0,0,0-2.541,2.283m15.519-13.784a2.557,2.557,0,1,0,2.539-2.28,2.419,2.419,0,0,0-2.539,2.28M965.908,339.09a2.556,2.556,0,1,0,2.545-2.283,2.425,2.425,0,0,0-2.545,2.283m-15.52,0a2.553,2.553,0,1,0,2.542-2.283,2.422,2.422,0,0,0-2.542,2.283M764.161,325.306a2.556,2.556,0,1,0,2.538-2.28,2.416,2.416,0,0,0-2.538,2.28m15.522,0a2.556,2.556,0,1,0,2.539-2.28,2.416,2.416,0,0,0-2.539,2.28M872.8,339.09a2.553,2.553,0,1,0,2.538-2.283,2.417,2.417,0,0,0-2.538,2.283m15.517,0a2.555,2.555,0,1,0,2.539-2.283,2.419,2.419,0,0,0-2.539,2.283m-46.56,0a2.557,2.557,0,1,0,2.544-2.283,2.423,2.423,0,0,0-2.544,2.283m93.118,0a2.554,2.554,0,1,0,2.539-2.283,2.419,2.419,0,0,0-2.539,2.283m-77.6,0a2.558,2.558,0,1,0,2.542-2.283,2.421,2.421,0,0,0-2.542,2.283m62.075,0a2.557,2.557,0,1,0,2.544-2.283,2.422,2.422,0,0,0-2.544,2.283m-15.519,0a2.557,2.557,0,1,0,2.546-2.283,2.42,2.42,0,0,0-2.546,2.283m-93.115-96.477a2.557,2.557,0,1,0,2.541-2.283,2.418,2.418,0,0,0-2.541,2.283m124.155,41.346a2.555,2.555,0,1,0,2.539-2.28,2.413,2.413,0,0,0-2.539,2.28m-77.6-27.562a2.557,2.557,0,1,0,2.542-2.285,2.426,2.426,0,0,0-2.542,2.285m-31.039,0a2.554,2.554,0,1,0,2.539-2.285,2.426,2.426,0,0,0-2.539,2.285m15.517,0a2.556,2.556,0,1,0,2.544-2.285,2.427,2.427,0,0,0-2.544,2.285m46.56,0a2.555,2.555,0,1,0,2.539-2.285,2.423,2.423,0,0,0-2.539,2.285m31.036,0a2.556,2.556,0,1,0,2.544-2.285,2.426,2.426,0,0,0-2.544,2.285m20.6,0a2.554,2.554,0,1,0-2.541,2.284,2.421,2.421,0,0,0,2.541-2.284m-49.1-25.282a2.511,2.511,0,0,0,2.452-1.71c-1.626-.4-3.258-.773-4.915-1.114a2.1,2.1,0,0,0-.076.542,2.422,2.422,0,0,0,2.539,2.283m77.6,160.818a2.3,2.3,0,1,0,0,4.566,2.6,2.6,0,0,0,.821-.137c.568-.862,1.128-1.734,1.657-2.619a2.489,2.489,0,0,0-2.479-1.81M810.717,256.4a2.556,2.556,0,1,0,2.541-2.285,2.425,2.425,0,0,0-2.541,2.285m93.115,0a2.556,2.556,0,1,0,2.546-2.285,2.424,2.424,0,0,0-2.546,2.285m-124.149,0a2.555,2.555,0,1,0,2.539-2.285,2.423,2.423,0,0,0-2.539,2.285m15.513,0a2.558,2.558,0,1,0,2.545-2.285A2.429,2.429,0,0,0,795.2,256.4m77.6,0a2.553,2.553,0,1,0,2.538-2.285A2.422,2.422,0,0,0,872.8,256.4m46.553-13.784a2.557,2.557,0,1,0,2.544-2.283,2.419,2.419,0,0,0-2.544,2.283m-77.6-13.78a2.556,2.556,0,1,0,2.544-2.285,2.426,2.426,0,0,0-2.544,2.285m62.078,13.78a2.557,2.557,0,1,0,2.546-2.283,2.417,2.417,0,0,0-2.546,2.283m-108.636,0a2.558,2.558,0,1,0,2.545-2.283,2.422,2.422,0,0,0-2.545,2.283m62.08-13.78a2.557,2.557,0,1,0,2.542-2.285,2.425,2.425,0,0,0-2.542,2.285m15.522,0a2.553,2.553,0,1,0,2.538-2.285,2.421,2.421,0,0,0-2.538,2.285m-44.021,2.283a2.422,2.422,0,0,0,2.541-2.283,1.733,1.733,0,0,0-.081-.542c-1.654.341-3.28.718-4.905,1.114a2.5,2.5,0,0,0,2.446,1.71m12.978,11.5a2.557,2.557,0,1,0,2.544-2.283,2.42,2.42,0,0,0-2.544,2.283m-15.517,0a2.554,2.554,0,1,0,2.539-2.283,2.419,2.419,0,0,0-2.539,2.283M872.8,352.87a2.554,2.554,0,1,0,2.538-2.28,2.423,2.423,0,0,0-2.538,2.28m0-110.258a2.553,2.553,0,1,0,2.538-2.283,2.415,2.415,0,0,0-2.538,2.283m15.517,0a2.555,2.555,0,1,0,2.539-2.283,2.416,2.416,0,0,0-2.539,2.283m-31.039,0a2.558,2.558,0,1,0,2.542-2.283,2.419,2.419,0,0,0-2.542,2.283m108.632,55.134a2.556,2.556,0,1,0,2.545-2.281,2.425,2.425,0,0,0-2.545,2.281m-77.593,0a2.555,2.555,0,1,0,2.539-2.281,2.419,2.419,0,0,0-2.539,2.281m-15.517,0a2.554,2.554,0,1,0,2.538-2.281,2.417,2.417,0,0,0-2.538,2.281m31.034,0a2.557,2.557,0,1,0,2.546-2.281,2.42,2.42,0,0,0-2.546,2.281m15.519,0a2.557,2.557,0,1,0,2.544-2.281,2.422,2.422,0,0,0-2.544,2.281m15.522,0a2.554,2.554,0,1,0,2.539-2.281,2.42,2.42,0,0,0-2.539,2.281m-77.6,0a2.558,2.558,0,1,0,2.542-2.281,2.422,2.422,0,0,0-2.542,2.281m-93.115,0a2.556,2.556,0,1,0,2.538-2.281,2.418,2.418,0,0,0-2.538,2.281m15.522,0a2.555,2.555,0,1,0,2.539-2.281,2.419,2.419,0,0,0-2.539,2.281m15.513,0a2.559,2.559,0,1,0,2.545-2.281,2.424,2.424,0,0,0-2.545,2.281m-46.555,0a2.557,2.557,0,1,0,2.539-2.281,2.422,2.422,0,0,0-2.539,2.281m93.113,0a2.557,2.557,0,1,0,2.544-2.281,2.423,2.423,0,0,0-2.544,2.281m-31.037,0a2.557,2.557,0,1,0,2.541-2.281,2.421,2.421,0,0,0-2.541,2.281m15.52,0a2.554,2.554,0,1,0,2.539-2.281,2.422,2.422,0,0,0-2.539,2.281m124.151-13.788a2.554,2.554,0,1,0,2.542-2.28,2.415,2.415,0,0,0-2.542,2.28m-62.073,0a2.555,2.555,0,1,0,2.539-2.28,2.412,2.412,0,0,0-2.539,2.28m-15.517,0a2.554,2.554,0,1,0,2.538-2.28,2.41,2.41,0,0,0-2.538,2.28m77.59,13.788a2.554,2.554,0,1,0,2.542-2.281,2.423,2.423,0,0,0-2.542,2.281M841.754,283.959a2.557,2.557,0,1,0,2.544-2.28,2.416,2.416,0,0,0-2.544,2.28m77.6,0a2.557,2.557,0,1,0,2.544-2.28,2.415,2.415,0,0,0-2.544,2.28m-15.519,0a2.557,2.557,0,1,0,2.546-2.28,2.413,2.413,0,0,0-2.546,2.28m-46.556,0a2.558,2.558,0,1,0,2.542-2.28,2.414,2.414,0,0,0-2.542,2.28m-77.593,0a2.555,2.555,0,1,0,2.539-2.28,2.412,2.412,0,0,0-2.539,2.28m-15.522,0a2.556,2.556,0,1,0,2.538-2.28,2.411,2.411,0,0,0-2.538,2.28m46.556,0a2.557,2.557,0,1,0,2.541-2.28,2.414,2.414,0,0,0-2.541,2.28m-15.522,0a2.559,2.559,0,1,0,2.545-2.28,2.417,2.417,0,0,0-2.545,2.28m31.042,0a2.555,2.555,0,1,0,2.539-2.28,2.414,2.414,0,0,0-2.539,2.28m51.638,151.609a2.554,2.554,0,1,0-2.541,2.279,2.42,2.42,0,0,0,2.541-2.279M800.282,270.178a2.559,2.559,0,1,0-2.542,2.28,2.421,2.421,0,0,0,2.542-2.28m183.685,52.847a2.292,2.292,0,1,0,0,4.557,2.686,2.686,0,0,0,1.817-.683c-.141-1.189-.3-2.36-.487-3.534a2.755,2.755,0,0,0-1.33-.341M815.8,270.178a2.557,2.557,0,1,0-2.544,2.28,2.421,2.421,0,0,0,2.544-2.28m15.516,0a2.555,2.555,0,1,0-2.541,2.28,2.417,2.417,0,0,0,2.541-2.28m134.591,13.78a2.418,2.418,0,0,0,2.545,2.276,2.479,2.479,0,0,0,2.479-1.8c-.53-.878-1.089-1.75-1.657-2.619a2.805,2.805,0,0,0-.821-.133,2.426,2.426,0,0,0-2.545,2.28m15.519,27.566a2.347,2.347,0,0,0,1.913,2.2c-.327-1.308-.691-2.6-1.07-3.89a2.168,2.168,0,0,0-.843,1.685M784.764,270.178a2.556,2.556,0,1,0-2.542,2.28,2.421,2.421,0,0,0,2.542-2.28m124.152,0a2.557,2.557,0,1,0-2.538,2.28,2.421,2.421,0,0,0,2.538-2.28m15.519,0a2.557,2.557,0,1,0-2.541,2.28,2.422,2.422,0,0,0,2.541-2.28m15.517,0a2.555,2.555,0,1,0-2.541,2.28,2.418,2.418,0,0,0,2.541-2.28m-46.556,0a2.555,2.555,0,1,0-2.542,2.28,2.42,2.42,0,0,0,2.542-2.28m-31.034,0a2.558,2.558,0,1,0-2.544,2.28,2.422,2.422,0,0,0,2.544-2.28m15.514,0a2.554,2.554,0,1,0-2.541,2.28,2.42,2.42,0,0,0,2.541-2.28m-31.037,0a2.557,2.557,0,1,0-2.54,2.28,2.421,2.421,0,0,0,2.54-2.28m-5.084,137.827a2.556,2.556,0,1,0,2.544-2.285,2.425,2.425,0,0,0-2.544,2.285m15.522,0a2.557,2.557,0,1,0,2.542-2.285,2.424,2.424,0,0,0-2.542,2.285m-31.039,0a2.554,2.554,0,1,0,2.539-2.285,2.424,2.424,0,0,0-2.539,2.285m62.078,0a2.555,2.555,0,1,0,2.539-2.285,2.421,2.421,0,0,0-2.539,2.285m-77.6,0a2.556,2.556,0,1,0,2.541-2.285,2.423,2.423,0,0,0-2.541,2.285m62.08,0a2.553,2.553,0,1,0,2.538-2.285,2.42,2.42,0,0,0-2.538,2.285m111.17-71.2a2.3,2.3,0,1,0,2.544,2.283,2.422,2.422,0,0,0-2.544-2.283M795.2,408.006a2.558,2.558,0,1,0,2.545-2.285,2.427,2.427,0,0,0-2.545,2.285m186.231-41.351a2.166,2.166,0,0,0,.843,1.685c.379-1.287.743-2.584,1.07-3.886a2.333,2.333,0,0,0-1.913,2.2m2.541-16.064a2.3,2.3,0,1,0,0,4.566,2.759,2.759,0,0,0,1.33-.347c.182-1.174.346-2.344.487-3.53a2.678,2.678,0,0,0-1.817-.689m-28.5,57.416a2.554,2.554,0,1,0-2.536,2.281,2.416,2.416,0,0,0,2.536-2.281m-191.3,0a2.556,2.556,0,1,0,2.538-2.285,2.421,2.421,0,0,0-2.538,2.285m15.522,0a2.555,2.555,0,1,0,2.539-2.285,2.421,2.421,0,0,0-2.539,2.285m144.752,27.562a2.557,2.557,0,1,0-2.541,2.279,2.422,2.422,0,0,0,2.541-2.279m-93.118-13.782a2.555,2.555,0,1,0-2.541,2.279,2.423,2.423,0,0,0,2.541-2.279m15.522,0a2.557,2.557,0,1,0-2.54,2.279,2.428,2.428,0,0,0,2.54-2.279m31.037,0a2.554,2.554,0,1,0-2.541,2.279,2.426,2.426,0,0,0,2.541-2.279m-15.514,0a2.558,2.558,0,1,0-2.544,2.279,2.429,2.429,0,0,0,2.544-2.279m-62.079,0a2.559,2.559,0,1,0-2.542,2.279,2.427,2.427,0,0,0,2.542-2.279m103.549-13.78a2.556,2.556,0,1,0,2.546-2.285,2.422,2.422,0,0,0-2.546,2.285M815.8,421.786a2.557,2.557,0,1,0-2.544,2.279,2.427,2.427,0,0,0,2.544-2.279m-36.118,0a2.555,2.555,0,1,0,2.539-2.288,2.421,2.421,0,0,0-2.539,2.288m160.269,0a2.555,2.555,0,1,0-2.541,2.279,2.424,2.424,0,0,0,2.541-2.279M831.316,449.352a2.415,2.415,0,0,0-2.541-2.283,2.5,2.5,0,0,0-2.446,1.7c1.625.4,3.258.781,4.905,1.122a1.743,1.743,0,0,0,.081-.54m25.959-96.481a2.558,2.558,0,1,0,2.542-2.28,2.427,2.427,0,0,0-2.542,2.28m51.64,68.916a2.557,2.557,0,1,0-2.538,2.279,2.427,2.427,0,0,0,2.538-2.279m-15.52,0a2.556,2.556,0,1,0-2.542,2.279,2.426,2.426,0,0,0,2.542-2.279m-2.542,25.283a2.416,2.416,0,0,0-2.539,2.283,2.11,2.11,0,0,0,.076.54c1.657-.341,3.289-.724,4.915-1.122a2.51,2.51,0,0,0-2.452-1.7m-33.578,2.283a2.558,2.558,0,1,0,2.542-2.283,2.423,2.423,0,0,0-2.542,2.283m98.19-179.173a2.554,2.554,0,1,0-2.536,2.28,2.414,2.414,0,0,0,2.536-2.28M841.754,449.352a2.557,2.557,0,1,0,2.544-2.283,2.425,2.425,0,0,0-2.544,2.283m36.121,0a2.554,2.554,0,1,0-2.541,2.279,2.418,2.418,0,0,0,2.541-2.279m31.04-13.784a2.557,2.557,0,1,0-2.538,2.279,2.421,2.421,0,0,0,2.538-2.279M751.18,286.235a2.292,2.292,0,1,0,0-4.556,2.874,2.874,0,0,0-.829.133q-.843,1.3-1.653,2.619a2.486,2.486,0,0,0,2.481,1.8m12.981-16.056a2.556,2.556,0,1,0,2.538-2.28,2.418,2.418,0,0,0-2.538,2.28m98.2,165.389a2.558,2.558,0,1,0-2.544,2.279,2.423,2.423,0,0,0,2.544-2.279m-46.56,0a2.557,2.557,0,1,0-2.544,2.279,2.421,2.421,0,0,0,2.544-2.279m31.037,0a2.557,2.557,0,1,0-2.54,2.279,2.422,2.422,0,0,0,2.54-2.279m46.557,0a2.556,2.556,0,1,0-2.542,2.279,2.42,2.42,0,0,0,2.542-2.279m-62.079,0a2.555,2.555,0,1,0-2.541,2.279,2.417,2.417,0,0,0,2.541-2.279m-31.034,0a2.559,2.559,0,1,0-2.542,2.279,2.421,2.421,0,0,0,2.542-2.279m124.152-13.782a2.557,2.557,0,1,0-2.541,2.279,2.428,2.428,0,0,0,2.541-2.279M810.717,366.654a2.556,2.556,0,1,0,2.541-2.285,2.421,2.421,0,0,0-2.541,2.285m15.52,0a2.554,2.554,0,1,0,2.539-2.285,2.421,2.421,0,0,0-2.539,2.285m-31.042,0a2.558,2.558,0,1,0,2.545-2.285,2.424,2.424,0,0,0-2.545,2.285m62.08,0a2.557,2.557,0,1,0,2.542-2.285,2.421,2.421,0,0,0-2.542,2.285m15.522,0a2.553,2.553,0,1,0,2.538-2.285,2.417,2.417,0,0,0-2.538,2.285m-93.115,0a2.555,2.555,0,1,0,2.539-2.285,2.419,2.419,0,0,0-2.539,2.285m62.072,0a2.556,2.556,0,1,0,2.544-2.285,2.423,2.423,0,0,0-2.544,2.285m108.633,13.782a2.554,2.554,0,1,0,2.542-2.28,2.42,2.42,0,0,0-2.542,2.28M764.161,366.654a2.556,2.556,0,1,0,2.538-2.285,2.418,2.418,0,0,0-2.538,2.285m170.711,13.782a2.555,2.555,0,1,0,2.539-2.28,2.417,2.417,0,0,0-2.539,2.28m31.036,0a2.556,2.556,0,1,0,2.545-2.28,2.423,2.423,0,0,0-2.545,2.28M748.641,366.654a2.557,2.557,0,1,0,2.539-2.285,2.421,2.421,0,0,0-2.539,2.285m-10.434,0a2.328,2.328,0,0,0-1.916-2.2c.327,1.3.7,2.6,1.071,3.886a2.172,2.172,0,0,0,.845-1.685m25.955-13.784a2.556,2.556,0,1,0,2.538-2.28,2.424,2.424,0,0,0-2.538,2.28m46.556,0a2.557,2.557,0,1,0,2.541-2.28,2.426,2.426,0,0,0-2.541,2.28M919.35,380.436a2.557,2.557,0,1,0,2.544-2.28,2.42,2.42,0,0,0-2.544,2.28M779.682,352.87a2.555,2.555,0,1,0,2.539-2.28,2.424,2.424,0,0,0-2.539,2.28m108.632,13.784a2.555,2.555,0,1,0,2.539-2.285,2.419,2.419,0,0,0-2.539,2.285M826.237,352.87a2.555,2.555,0,1,0,2.539-2.28,2.427,2.427,0,0,0-2.539,2.28m15.517,0a2.557,2.557,0,1,0,2.544-2.28,2.428,2.428,0,0,0-2.544,2.28m-46.559,0a2.559,2.559,0,1,0,2.545-2.28,2.43,2.43,0,0,0-2.545,2.28M919.35,366.654a2.556,2.556,0,1,0,2.544-2.285,2.422,2.422,0,0,0-2.544,2.285m15.522,0a2.554,2.554,0,1,0,2.539-2.285,2.419,2.419,0,0,0-2.539,2.285m-31.04,0a2.556,2.556,0,1,0,2.546-2.285,2.42,2.42,0,0,0-2.546,2.285M748.641,352.87a2.557,2.557,0,1,0,2.539-2.28,2.427,2.427,0,0,0-2.539,2.28m217.267,13.784a2.556,2.556,0,1,0,2.545-2.285,2.425,2.425,0,0,0-2.545,2.285m-15.52,0a2.553,2.553,0,1,0,2.542-2.285,2.422,2.422,0,0,0-2.542,2.285m-15.516,27.564a2.554,2.554,0,1,0,2.539-2.285,2.419,2.419,0,0,0-2.539,2.285m-62.075,0a2.553,2.553,0,1,0,2.538-2.285,2.417,2.417,0,0,0-2.538,2.285m-15.522,0a2.557,2.557,0,1,0,2.542-2.285,2.421,2.421,0,0,0-2.542,2.285m31.039,0a2.555,2.555,0,1,0,2.539-2.285,2.418,2.418,0,0,0-2.539,2.285m-46.56,0a2.556,2.556,0,1,0,2.544-2.285,2.422,2.422,0,0,0-2.544,2.285m62.078,0a2.556,2.556,0,1,0,2.546-2.285,2.419,2.419,0,0,0-2.546,2.285m15.519,0a2.556,2.556,0,1,0,2.544-2.285,2.421,2.421,0,0,0-2.544,2.285m-155.189,0a2.556,2.556,0,1,0,2.538-2.285,2.418,2.418,0,0,0-2.538,2.285m15.522,0a2.555,2.555,0,1,0,2.539-2.285,2.418,2.418,0,0,0-2.539,2.285m46.554,0a2.554,2.554,0,1,0,2.539-2.285,2.421,2.421,0,0,0-2.539,2.285m93.113,13.787a2.556,2.556,0,1,0,2.544-2.285,2.424,2.424,0,0,0-2.544,2.285m31.037-13.787a2.553,2.553,0,1,0,2.542-2.285,2.422,2.422,0,0,0-2.542,2.285m-139.671,0a2.556,2.556,0,1,0,2.541-2.285,2.42,2.42,0,0,0-2.541,2.285m-15.522,0a2.558,2.558,0,1,0,2.545-2.285,2.424,2.424,0,0,0-2.545,2.285m-31.034-13.783a2.556,2.556,0,1,0,2.538-2.28,2.416,2.416,0,0,0-2.538,2.28m93.115,0a2.558,2.558,0,1,0,2.542-2.28,2.419,2.419,0,0,0-2.542,2.28m-15.522,0a2.557,2.557,0,1,0,2.544-2.28,2.42,2.42,0,0,0-2.544,2.28m-15.517,0a2.555,2.555,0,1,0,2.539-2.28,2.419,2.419,0,0,0-2.539,2.28m62.078,0a2.555,2.555,0,1,0,2.539-2.28,2.416,2.416,0,0,0-2.539,2.28m-15.517,0a2.554,2.554,0,1,0,2.538-2.28,2.415,2.415,0,0,0-2.538,2.28m-62.08,0a2.557,2.557,0,1,0,2.541-2.28,2.419,2.419,0,0,0-2.541,2.28m124.155,27.57a2.554,2.554,0,1,0,2.539-2.285,2.422,2.422,0,0,0-2.539,2.285M753.725,394.219a2.424,2.424,0,0,0-2.545-2.285,2.493,2.493,0,0,0-2.481,1.81q.808,1.327,1.653,2.619a2.666,2.666,0,0,0,.829.137,2.424,2.424,0,0,0,2.545-2.28m-5.084-13.783a2.557,2.557,0,1,0,2.539-2.28,2.419,2.419,0,0,0-2.539,2.28m155.191,0a2.557,2.557,0,1,0,2.546-2.28,2.417,2.417,0,0,0-2.546,2.28m-124.149,0a2.555,2.555,0,1,0,2.539-2.28,2.416,2.416,0,0,0-2.539,2.28m15.513,0a2.559,2.559,0,1,0,2.545-2.28,2.422,2.422,0,0,0-2.545,2.28" transform="translate(703.292 -226.547)" fill="#ffa031"/>
          <path id="Trazado_699613" data-name="Trazado 699613" d="M141.956,338.32c-3.8,0-5.658-3.172-7.292-5.966-1.487-2.542-2.768-4.735-5.224-4.735s-3.739,2.193-5.222,4.735c-1.637,2.794-3.491,5.966-7.294,5.966s-5.652-3.172-7.288-5.966c-1.485-2.542-2.769-4.735-5.222-4.735s-3.738,2.193-5.225,4.735c-1.636,2.794-3.488,5.966-7.291,5.966s-5.655-3.172-7.291-5.966c-1.485-2.542-2.765-4.735-5.222-4.735a1.343,1.343,0,0,1,0-2.675c3.8,0,5.658,3.172,7.292,5.969,1.484,2.541,2.767,4.732,5.221,4.732s3.74-2.191,5.224-4.732c1.636-2.8,3.489-5.969,7.292-5.969s5.656,3.172,7.289,5.969c1.485,2.541,2.768,4.732,5.221,4.732s3.74-2.191,5.225-4.732c1.634-2.8,3.491-5.969,7.291-5.969s5.655,3.172,7.292,5.969c1.484,2.541,2.767,4.732,5.224,4.732a1.343,1.343,0,0,1,0,2.675m-24.417,20.957a1.285,1.285,0,0,0-1.227-1.336c-2.456,0-3.737-2.194-5.222-4.733-1.636-2.8-3.489-5.971-7.292-5.971s-5.655,3.174-7.289,5.971c-1.485,2.539-2.768,4.733-5.224,4.733s-3.736-2.194-5.222-4.733c-1.634-2.8-3.491-5.971-7.292-5.971a1.344,1.344,0,0,0,0,2.678c2.457,0,3.74,2.191,5.224,4.733,1.636,2.794,3.489,5.967,7.291,5.967s5.658-3.172,7.292-5.967c1.484-2.542,2.767-4.733,5.221-4.733s3.738,2.191,5.225,4.733c1.636,2.794,3.489,5.967,7.289,5.967a1.285,1.285,0,0,0,1.227-1.338" transform="translate(308.54 262.862)" fill="#ffa031"/>
          <path id="Trazado_699616" data-name="Trazado 699616" d="M136.378,279.944a3.7,3.7,0,1,0-3.38-3.689,3.542,3.542,0,0,0,3.38,3.689m-13.309,0a3.7,3.7,0,1,0-3.38-3.689,3.542,3.542,0,0,0,3.38,3.689M136.378,264.4a3.7,3.7,0,1,0-3.38-3.689,3.543,3.543,0,0,0,3.38,3.689m-13.309,0a3.7,3.7,0,1,0-3.38-3.689,3.543,3.543,0,0,0,3.38,3.689m13.309-15.548a3.7,3.7,0,1,0-3.38-3.689,3.543,3.543,0,0,0,3.38,3.689m-13.309,0a3.7,3.7,0,1,0-3.38-3.689,3.543,3.543,0,0,0,3.38,3.689m13.309-15.55a3.7,3.7,0,1,0-3.38-3.689,3.542,3.542,0,0,0,3.38,3.689m-13.309,0a3.7,3.7,0,1,0-3.38-3.689,3.542,3.542,0,0,0,3.38,3.689" transform="translate(844.461 73.195)" fill="#ffa031"/>
          <path id="Trazado_699617" data-name="Trazado 699617" d="M713.343,350.571c0,4.314-4.1,7.81-9.163,7.81s-9.159-3.5-9.159-7.81,4.1-7.811,9.159-7.811,9.163,3.5,9.163,7.811" transform="translate(536.332 476.885)" fill="#0098e8"/>
          <path id="Trazado_699618" data-name="Trazado 699618" d="M254.481,93.614c0,4.9-3.64,8.865-8.13,8.865s-8.13-3.969-8.13-8.865,3.64-8.865,8.13-8.865,8.13,3.969,8.13,8.865" transform="translate(808.144 422.599)" fill="#0098e8"/>
          <path id="Trazado_699619" data-name="Trazado 699619" d="M692.545,243.384a4.76,4.76,0,1,1-4.743-5.171,4.973,4.973,0,0,1,4.743,5.171" transform="translate(527.988 423.261)" fill="#ffa031"/>
          <path id="Trazado_722289" data-name="Trazado 722289" d="M692.545,243.384a4.76,4.76,0,1,1-4.743-5.171,4.973,4.973,0,0,1,4.743,5.171" transform="translate(-355.012 267.657)" fill="#ffa031"/>
          <path id="Trazado_722291" data-name="Trazado 722291" d="M698.458,245.664a7.7,7.7,0,1,1-7.7-7.451,7.581,7.581,0,0,1,7.7,7.451" transform="translate(32.813 839.259) rotate(-56)" fill="#ffa031"/>
          <path id="Trazado_699620" data-name="Trazado 699620" d="M592.162,81.013a4.761,4.761,0,1,1-4.743-5.171,4.972,4.972,0,0,1,4.743,5.171" transform="translate(522.016 430.03)" fill="#ffa031"/>
          <path id="Trazado_699621" data-name="Trazado 699621" d="M456.557,351.56a4.76,4.76,0,1,1-4.743-5.169,4.972,4.972,0,0,1,4.743,5.169" transform="translate(734.203 271.723)" fill="#cdeafa"/>
          <path id="Trazado_722290" data-name="Trazado 722290" d="M456.557,351.56a4.76,4.76,0,1,1-4.743-5.169,4.972,4.972,0,0,1,4.743,5.169" transform="translate(-148.797 116.119)" fill="#cdeafa"/>
          <path id="Trazado_722292" data-name="Trazado 722292" d="M456.557,351.56a4.76,4.76,0,1,1-4.743-5.169,4.972,4.972,0,0,1,4.743,5.169" transform="translate(22.496 583.56) rotate(-56)" fill="#cdeafa"/>
          <path id="Trazado_699622" data-name="Trazado 699622" d="M82.826,257.3c0,3-2.957,5.435-6.6,5.435s-6.6-2.434-6.6-5.435,2.957-5.434,6.6-5.434,6.6,2.435,6.6,5.434" transform="translate(1039.812 403.483)" fill="#ffa031"/>
          <path id="Trazado_704912" data-name="Trazado 704912" d="M207.557,199.812a8.908,8.908,0,1,1,9.112-8.905,9.02,9.02,0,0,1-9.112,8.905m0-12.4a3.491,3.491,0,1,0,3.571,3.49,3.536,3.536,0,0,0-3.571-3.49" transform="translate(1267.926 280.458)" fill="#ffa031"/>
          <path id="Trazado_722293" data-name="Trazado 722293" d="M207.557,199.812a8.908,8.908,0,1,1,9.112-8.905,9.02,9.02,0,0,1-9.112,8.905m0-12.4a3.491,3.491,0,1,0,3.571,3.49,3.536,3.536,0,0,0-3.571-3.49" transform="translate(187.639 538.458)" fill="#ffa031"/>
          <path id="Trazado_722294" data-name="Trazado 722294" d="M207.557,199.812a8.908,8.908,0,1,1,9.112-8.905,9.02,9.02,0,0,1-9.112,8.905m0-12.4a3.491,3.491,0,1,0,3.571,3.49,3.536,3.536,0,0,0-3.571-3.49" transform="translate(829.696 43.083)" fill="#ffa031"/>
          <path id="Trazado_704913" data-name="Trazado 704913" d="M209.324,201.747c-6,0-10.879-4.429-10.879-9.873S203.325,182,209.324,182s10.879,4.43,10.879,9.874-4.88,9.873-10.879,9.873m0-13.742a3.887,3.887,0,1,0,4.263,3.869,4.086,4.086,0,0,0-4.263-3.869" transform="translate(319.211 115.039)" fill="#ffa031"/>
        </g>
      </g>
    </g>
    <rect id="Rectángulo_345264" data-name="Rectángulo 345264" width="1329" height="78" transform="translate(136 8590.107)" fill="url(#linear-gradient)"/>
    <rect id="Rectángulo_345282" data-name="Rectángulo 345282" width="1329" height="111" transform="translate(136 9236.107)" fill="url(#linear-gradient-2)"/>
  </g>
</svg>
