<svg xmlns="http://www.w3.org/2000/svg" xmlns:xlink="http://www.w3.org/1999/xlink" width="80.262" height="88.523" viewBox="0 0 80.262 88.523">
  <defs>
    <filter id="Trazado_715511" x="0" y="8.261" width="80.262" height="80.262" filterUnits="userSpaceOnUse">
      <feOffset dy="3" input="SourceAlpha"/>
      <feGaussianBlur stdDeviation="3" result="blur"/>
      <feFlood flood-opacity="0.161"/>
      <feComposite operator="in" in2="blur"/>
      <feComposite in="SourceGraphic"/>
    </filter>
  </defs>
  <g id="Grupo_1003570" data-name="Grupo 1003570" transform="translate(-208.869 -418.265)">
    <g transform="matrix(1, 0, 0, 1, 208.87, 418.27)" filter="url(#Trazado_715511)">
      <path id="Trazado_715511-2" data-name="Trazado 715511" d="M31.131,0A31.131,31.131,0,1,1,0,31.131,31.131,31.131,0,0,1,31.131,0Z" transform="translate(9 14.26)" fill="#f5b3bf"/>
    </g>
    <g id="XMLID_1_" transform="translate(166.482 418.165)">
      <g id="XMLID_5931_" transform="translate(56.803 0.903)">
        <path id="XMLID_3864_" d="M179.205,11.51s-1.847-6.394-10.6-6.394V5.1c-8.755,0-10.6,6.41-10.6,6.41Z" transform="translate(-142.417 -5.1)" fill="#35322b"/>
        <path id="XMLID_3844_" d="M311,179c4.1,0,6.1-2.7,6.1-5.607s-4.193-3.39-4.819-3.39Z" transform="translate(-270.838 -143.509)" fill="#fec9a3"/>
        <path id="XMLID_3831_" d="M311,191.177,315.1,187s1.687,4.562-4.1,6.265Z" transform="translate(-270.838 -157.778)" fill="#fcbb8c"/>
        <path id="XMLID_3821_" d="M105.1,179c-4.1,0-6.1-2.7-6.1-5.607s4.193-3.39,4.819-3.39Z" transform="translate(-92.895 -143.509)" fill="#fcbb8c"/>
        <path id="XMLID_3820_" d="M114.4,191.177,110.3,187s-1.687,4.562,4.1,6.265Z" transform="translate(-102.191 -157.778)" fill="#fec9a3"/>
        <path id="XMLID_3819_" d="M142.736,51.651s3.213-.884,3.213-6.988S141.21,29,127.474,29,109,38.558,109,44.663s3.213,6.988,3.213,6.988" transform="translate(-101.289 -25.161)" fill="#504c43"/>
        <path id="XMLID_3656_" d="M92,286.9H82.366V293l-17.655,8.241A6.407,6.407,0,0,0,61,307.061v15.181h52.371V307.061a6.448,6.448,0,0,0-3.711-5.831L92,293Z" transform="translate(-61 -241.63)" fill="#504c43"/>
        <path id="XMLID_3655_" d="M192.1,307.723c0,3.663-2.731,14.619-2.731,14.619h-9.639S177,311.37,177,307.723s2.731-14.619,2.731-14.619V287h9.639v6.1S192.1,304.077,192.1,307.723Z" transform="translate(-158.365 -241.714)" fill="#fec9a3"/>
        <path id="XMLID_3956_" d="M194,287v4.707a33.267,33.267,0,0,0,4.819,1.88,33.266,33.266,0,0,0,4.819-1.88V287Z" transform="translate(-172.634 -241.714)" fill="#fcbb8c"/>
        <path id="XMLID_3654_" d="M181.727,368.7a11.384,11.384,0,0,1-12.82,0L166,376.3v14.619h18.635V376.3Z" transform="translate(-149.132 -310.289)" fill="#d8d6c1"/>
        <path id="XMLID_3653_" d="M147,325l-8.98,4.193,3.245,3.839-3.245,7.181s-.578,9.639,5.4,14.024H147s-2.731-10.972-2.731-14.619S147,325,147,325Z" transform="translate(-125.635 -273.609)" fill="#6d6759"/>
        <path id="XMLID_1411_" d="M254,325l8.98,4.193-3.245,3.839,3.245,7.181s.578,9.639-5.4,14.024H254s2.731-10.972,2.731-14.619S254,325,254,325Z" transform="translate(-222.995 -273.609)" fill="#6d6759"/>
        <g id="Grupo_1003569" data-name="Grupo 1003569" transform="translate(2.972 55.214)">
          <path id="XMLID_1410_" d="M134.784,360.367l3.181-7.036a.818.818,0,0,0-.112-.851l-3.1-3.679-1.51.707,3.068,3.631-3.036,6.715a.63.63,0,0,0-.064.289c-.016.386-.5,9.269,4.932,14.073h2.635l-.884-.643C134.687,369.764,134.735,361.555,134.784,360.367Z" transform="translate(-124.566 -348.8)" fill="#35322b"/>
          <path id="XMLID_1409_" d="M273.592,360.367l-3.181-7.036a.818.818,0,0,1,.112-.851l3.1-3.679,1.51.707-3.068,3.631,3.036,6.715a.63.63,0,0,1,.064.289c.016.386.5,9.269-4.932,14.073H267.6l.884-.643C273.688,369.764,273.64,361.555,273.592,360.367Z" transform="translate(-237.382 -348.8)" fill="#35322b"/>
          <path id="XMLID_1407_" d="M79.5,374.839l2.345,10.346,1.574-.353L80.994,374.1l-.739.353A5.546,5.546,0,0,0,79.5,374.839Z" transform="translate(-79.5 -370.036)" fill="#35322b"/>
        </g>
        <path id="XMLID_1383_" d="M159.523,103.691s-.546,10.892-3.855,15.374c-3.374,4.546-11.406,6.8-11.406,6.8s-8.032-2.249-11.406-6.8C129.546,114.6,129,103.691,129,103.691c4.289,0,15.261-12.691,15.261-12.691S155.234,103.691,159.523,103.691Z" transform="translate(-118.076 -77.201)" fill="#fec9a3"/>
        <g id="XMLID_1382_" transform="translate(12.209 25.671)">
          <path id="XMLID_3858_" d="M153.085,171.767s.112,6.265-5.462,6.265S142,170,142,170A30.374,30.374,0,0,1,153.085,171.767Z" transform="translate(-141.197 -169.181)" fill="#d8d6c1"/>
          <path id="XMLID_3859_" d="M143.426,174.555c-5.044,0-6.41-5.783-6.426-8.836a.823.823,0,0,1,.8-.819c7.068,0,11.229,1.751,11.406,1.831a.789.789,0,0,1,.482.723,8.375,8.375,0,0,1-1.992,5.43A5.723,5.723,0,0,1,143.426,174.555Zm-4.771-8.016a12.155,12.155,0,0,0,.643,2.972c.819,2.281,2.2,3.438,4.129,3.438a4.167,4.167,0,0,0,3.117-1.173,6.243,6.243,0,0,0,1.51-3.743A31.346,31.346,0,0,0,138.655,166.539Z" transform="translate(-137 -164.9)" fill="#d84861"/>
        </g>
        <g id="XMLID_1381_" transform="translate(27.47 25.687)">
          <path id="XMLID_3848_" d="M237,171.767s-.112,6.265,5.462,6.265S248.084,170,248.084,170A30.374,30.374,0,0,0,237,171.767Z" transform="translate(-236.196 -169.197)" fill="#d8d6c1"/>
          <path id="XMLID_3850_" d="M238.265,174.639a5.774,5.774,0,0,1-4.273-1.655,8.327,8.327,0,0,1-1.992-5.43.789.789,0,0,1,.482-.723c.177-.08,4.337-1.831,11.406-1.831a.754.754,0,0,1,.562.241.827.827,0,0,1,.241.578C244.675,168.856,243.309,174.639,238.265,174.639Zm-4.627-6.522a6.346,6.346,0,0,0,1.51,3.743,4.229,4.229,0,0,0,3.117,1.173c1.928,0,3.309-1.157,4.129-3.454a12.96,12.96,0,0,0,.643-2.972A31.711,31.711,0,0,0,233.638,168.117Z" transform="translate(-232 -165)" fill="#d84861"/>
        </g>
        <g id="XMLID_1380_" transform="translate(24.097 27.454)">
          <path id="XMLID_3849_" d="M211,176h4.177v1.606H211Z" transform="translate(-211 -176)" fill="#d84861"/>
        </g>
        <path id="XMLID_1379_" d="M332.651,353.341l-10.281,7.695h-2.088L310,353.341V333.1l10.281,7.695h2.088l10.281-7.695Z" transform="translate(-269.999 -280.408)" fill="#d84861"/>
        <path id="XMLID_870_" d="M374,340.711v20.241h2.088l10.281-7.695V333l-10.281,7.711Z" transform="translate(-323.718 -280.324)" fill="#c22945"/>
        <path id="XMLID_1377_" d="M330.177,314c-2.667,0-8.932,3.615-8.932,6.506,0-2.892-6.1-6.506-8.771-6.506L310,317.068l10.281,7.695h2.088l10.281-7.695Z" transform="translate(-269.999 -264.376)" fill="#d8d6c1"/>
        <g id="XMLID_1376_" transform="translate(50.443 56.21)">
          <path id="XMLID_3869_" d="M375,355h1.606v4.177H375Z" transform="translate(-375 -355)" fill="#c5c2a1"/>
        </g>
        <g id="XMLID_1375_" transform="translate(40.946 50.258)">
          <path id="XMLID_3868_" d="M0,0H12.065V1.606H0Z" transform="translate(0.922 0) rotate(35.025)" fill="#c5c2a1"/>
        </g>
        <g id="XMLID_1374_" transform="translate(50.857 50.154)">
          <path id="XMLID_3866_" d="M0,0H1.606V12.048H0Z" transform="translate(9.819 0) rotate(54.609)" fill="#c5c2a1"/>
        </g>
        <path id="XMLID_1373_" d="M407.462,372.3v4.5l-5.462,4.1v-4.5Z" transform="translate(-347.22 -313.311)" fill="#d8d6c1"/>
        <path id="XMLID_3817_" d="M252.426,181.863a5.194,5.194,0,0,0-2.892-.964,6.2,6.2,0,0,0-2.892.932L246,183.79h4.5A1.923,1.923,0,0,0,252.426,181.863Z" transform="translate(-216.28 -152.657)" fill="#ebebdf"/>
        <path id="XMLID_3816_" d="M162,181.863a5.194,5.194,0,0,1,2.892-.964,6.2,6.2,0,0,1,2.892.932l.643,1.96h-4.5A1.923,1.923,0,0,1,162,181.863Z" transform="translate(-145.775 -152.657)" fill="#ebebdf"/>
        <g id="XMLID_3814_" transform="translate(17.832 28.258)">
          <path id="XMLID_3815_" d="M172,181h1.606v2.892H172Z" transform="translate(-172 -181)" fill="#35322b"/>
        </g>
        <g id="XMLID_3812_" transform="translate(18.796 28.258)">
          <path id="XMLID_3813_" d="M178,181h1.606v2.892H178Z" transform="translate(-178 -181)" fill="#35322b"/>
        </g>
        <g id="XMLID_1405_" transform="translate(32.932 28.258)">
          <path id="XMLID_1406_" d="M266,181h1.606v2.892H266Z" transform="translate(-266 -181)" fill="#35322b"/>
        </g>
        <g id="XMLID_1403_" transform="translate(31.969 28.258)">
          <path id="XMLID_1404_" d="M260,181h1.606v2.892H260Z" transform="translate(-260 -181)" fill="#35322b"/>
        </g>
        <g id="XMLID_1401_" transform="translate(15.583 27.454)">
          <path id="XMLID_1402_" d="M158.643,178.57H158v-1.606h.4a5.743,5.743,0,0,1,3.133-.964h.032a5.871,5.871,0,0,1,2.843.819,2.3,2.3,0,0,0,.305.145l-.546,1.51c-.161-.064-.321-.145-.514-.241a4.214,4.214,0,0,0-2.072-.643h-.016a4.283,4.283,0,0,0-2.442.819A.824.824,0,0,1,158.643,178.57Z" transform="translate(-158 -176)" fill="#35322b"/>
        </g>
        <g id="XMLID_1398_" transform="translate(30.089 27.47)">
          <path id="XMLID_1400_" d="M255,178.652h-.643a.837.837,0,0,1-.466-.145,4.245,4.245,0,0,0-2.442-.819h-.016a4.159,4.159,0,0,0-2.072.643,3.571,3.571,0,0,1-.514.241l-.546-1.51c.048-.016.193-.1.305-.145a5.516,5.516,0,0,1,6.008.145h.4v1.59Z" transform="translate(-248.3 -176.098)" fill="#35322b"/>
        </g>
        <g id="XMLID_1395_" transform="translate(21.093 38.009)">
          <path id="XMLID_1396_" d="M197.392,244.977a6.948,6.948,0,0,1-5.092-2.2l1.2-1.076a5.444,5.444,0,0,0,3.9,1.655h.048A5.3,5.3,0,0,0,201.3,241.7l1.2,1.076a6.989,6.989,0,0,1-5.028,2.2Z" transform="translate(-192.3 -241.7)" fill="#d84861"/>
        </g>
        <g id="XMLID_1393_" transform="translate(15.165 22.635)">
          <path id="XMLID_1394_" d="M156.219,148.458l-.819-1.382A7.681,7.681,0,0,1,159.336,146h.048a7.925,7.925,0,0,1,3.9,1.076l-.819,1.382a6.094,6.094,0,0,0-3.084-.851A6.167,6.167,0,0,0,156.219,148.458Z" transform="translate(-155.4 -146)" fill="#35322b"/>
        </g>
        <g id="XMLID_1391_" transform="translate(29.318 22.635)">
          <path id="XMLID_1392_" d="M250.568,148.456a6.217,6.217,0,0,0-3.165-.851,6.044,6.044,0,0,0-3.084.851l-.819-1.382A7.872,7.872,0,0,1,247.4,146a7.674,7.674,0,0,1,3.984,1.076Z" transform="translate(-243.5 -145.998)" fill="#35322b"/>
        </g>
      </g>
      <g id="XMLID_446_" transform="translate(56 0.1)">
        <g id="XMLID_1253_" transform="translate(12.353 51.363)">
          <path id="XMLID_4361_" d="M142.714,350.7h-3.582a.758.758,0,0,1-.482-.161c-6.265-4.594-5.751-14.314-5.735-14.731a.938.938,0,0,1,.064-.289l3.036-6.715-2.924-3.454a.8.8,0,0,1,.273-1.253l8.98-4.193a.789.789,0,0,1,.851.112.837.837,0,0,1,.273.819c-.032.112-2.715,10.908-2.715,14.426s2.683,14.314,2.715,14.426a.815.815,0,0,1-.145.691A.713.713,0,0,1,142.714,350.7Zm-3.309-1.607h2.281c-.675-2.811-2.506-10.731-2.506-13.816,0-2.892,1.59-9.96,2.361-13.189l-6.522,3.036,2.57,3.036a.818.818,0,0,1,.112.851l-3.181,7.036C134.489,337.22,134.441,345.236,139.4,349.092Z" transform="translate(-132.899 -319.826)" fill="#272526"/>
        </g>
        <g id="XMLID_1252_" transform="translate(31.011 51.383)">
          <path id="XMLID_4358_" d="M253.419,350.805h-3.582a.792.792,0,0,1-.627-.305.815.815,0,0,1-.145-.691c.032-.112,2.715-10.908,2.715-14.426s-2.683-14.314-2.715-14.426a.8.8,0,0,1,.273-.819.818.818,0,0,1,.851-.112l8.98,4.193a.841.841,0,0,1,.45.562.831.831,0,0,1-.177.691l-2.924,3.454,3.036,6.715a.631.631,0,0,1,.064.289c.032.418.53,10.137-5.735,14.731a.8.8,0,0,1-.466.145Zm-2.554-1.606h2.281c4.98-3.872,4.916-11.872,4.884-13.044l-3.181-7.036a.818.818,0,0,1,.112-.851l2.57-3.036-6.522-3.036c.771,3.229,2.361,10.3,2.361,13.189,0,3.084-1.831,11-2.506,13.816Z" transform="translate(-249.04 -319.953)" fill="#272526"/>
        </g>
        <g id="XMLID_1251_" transform="translate(3.751 60.241)">
          <path id="XMLID_4357_" d="M0,0H10.828V1.606H0Z" transform="matrix(0.221, 0.975, -0.975, 0.221, 1.566, 0)" fill="#272526"/>
        </g>
        <g id="XMLID_1250_" transform="translate(20.065 58.588)">
          <path id="XMLID_4356_" d="M187.824,368.206a11.359,11.359,0,0,1-6.924-2.169l1.028-1.237-.514.626.514-.626a9.97,9.97,0,0,0,5.9,1.8,9.854,9.854,0,0,0,5.9-1.8l1.028,1.237a11.359,11.359,0,0,1-6.924,2.169Z" transform="translate(-180.9 -364.8)" fill="#272526"/>
        </g>
        <g id="XMLID_1103_" transform="translate(8.334 29.462)">
          <path id="XMLID_4354_" d="M0,0H5.076V1.606H0Z" transform="matrix(0.7, 0.714, -0.714, 0.7, 1.147, 0)" fill="#272526"/>
        </g>
        <g id="XMLID_1102_" transform="translate(40.944 29.45)">
          <path id="XMLID_4353_" d="M0,0H1.606V5.076H0Z" transform="matrix(0.714, 0.7, -0.7, 0.714, 3.553, 0)" fill="#272526"/>
        </g>
        <g id="XMLID_1100_" transform="translate(21.896 38.812)">
          <path id="XMLID_4352_" d="M197.392,244.977a6.948,6.948,0,0,1-5.092-2.2l1.2-1.076a5.444,5.444,0,0,0,3.9,1.655h.048A5.3,5.3,0,0,0,201.3,241.7l1.2,1.076a6.989,6.989,0,0,1-5.028,2.2Z" transform="translate(-192.3 -241.7)" fill="#272526"/>
        </g>
        <g id="XMLID_1099_" transform="translate(15.968 23.438)">
          <path id="XMLID_4349_" d="M156.219,148.458l-.819-1.382A7.681,7.681,0,0,1,159.336,146h.048a7.925,7.925,0,0,1,3.9,1.076l-.819,1.382a6.094,6.094,0,0,0-3.084-.851h-.032A6.3,6.3,0,0,0,156.219,148.458Z" transform="translate(-155.4 -146)" fill="#272526"/>
        </g>
        <g id="XMLID_1098_" transform="translate(18.635 29.061)">
          <path id="XMLID_4348_" d="M172,181h1.606v2.892H172Z" transform="translate(-172 -181)" fill="#272526"/>
        </g>
        <g id="XMLID_1097_" transform="translate(19.599 29.061)">
          <path id="XMLID_4347_" d="M178,181h1.606v2.892H178Z" transform="translate(-178 -181)" fill="#272526"/>
        </g>
        <g id="XMLID_1096_" transform="translate(16.386 28.258)">
          <path id="XMLID_4346_" d="M158.643,178.57H158v-1.606h.4a5.743,5.743,0,0,1,3.133-.964h.032a5.871,5.871,0,0,1,2.843.819,2.3,2.3,0,0,0,.305.145l-.546,1.51c-.161-.064-.321-.145-.514-.241a4.214,4.214,0,0,0-2.072-.643h-.016a4.283,4.283,0,0,0-2.442.819A.824.824,0,0,1,158.643,178.57Z" transform="translate(-158 -176)" fill="#272526"/>
        </g>
        <g id="XMLID_1095_" transform="translate(30.121 23.438)">
          <path id="XMLID_4345_" d="M250.568,148.458a6.381,6.381,0,0,0-3.165-.851,5.994,5.994,0,0,0-3.084.851l-.819-1.382a7.763,7.763,0,0,1,7.888,0Z" transform="translate(-243.5 -146)" fill="#272526"/>
        </g>
        <g id="XMLID_1094_" transform="translate(33.736 29.061)">
          <path id="XMLID_4344_" d="M266,181h1.606v2.892H266Z" transform="translate(-266 -181)" fill="#272526"/>
        </g>
        <g id="XMLID_1093_" transform="translate(32.772 29.061)">
          <path id="XMLID_4343_" d="M260,181h1.606v2.892H260Z" transform="translate(-260 -181)" fill="#272526"/>
        </g>
        <g id="XMLID_1092_" transform="translate(30.892 28.274)">
          <path id="XMLID_4342_" d="M255,178.654h-.643a.837.837,0,0,1-.466-.145,4.245,4.245,0,0,0-2.442-.819h-.016a4.159,4.159,0,0,0-2.072.643,3.57,3.57,0,0,1-.514.241l-.546-1.51c.048-.016.193-.1.305-.145a5.871,5.871,0,0,1,2.843-.819h.032a5.743,5.743,0,0,1,3.133.964h.4v1.59Z" transform="translate(-248.3 -176.1)" fill="#272526"/>
        </g>
        <g id="XMLID_1085_" transform="translate(6.105 26.491)">
          <g id="XMLID_1087_">
            <path id="XMLID_4341_" d="M100.908,175.6c-4.739,0-6.908-3.325-6.908-6.41,0-3.454,4.514-4.193,5.623-4.193v1.606c-.048,0-4.016.273-4.016,2.586,0,2.217,1.382,4.8,5.3,4.8Z" transform="translate(-94 -165)" fill="#272526"/>
          </g>
          <g id="XMLID_1086_" transform="translate(34.86)">
            <path id="XMLID_4340_" d="M311,175.6V174c3.92,0,5.3-2.586,5.3-4.8,0-2.313-3.984-2.586-4.016-2.586V165c1.108,0,5.623.739,5.623,4.193C317.908,172.277,315.739,175.6,311,175.6Z" transform="translate(-311 -165)" fill="#272526"/>
          </g>
        </g>
        <g id="XMLID_1192_" transform="translate(7.711 3.839)">
          <path id="XMLID_4339_" d="M138.748,48.225l-.434-1.542.209.771-.225-.771c.112-.032,2.635-.884,2.635-6.217.016-5.976-4.691-14.86-17.655-14.86s-17.671,8.884-17.671,14.86c0,5.333,2.522,6.185,2.635,6.217l-.434,1.542C107.647,48.177,104,47.1,104,40.466,104,33.848,109.141,24,123.277,24s19.278,9.848,19.278,16.466C142.555,47.1,138.908,48.193,138.748,48.225Z" transform="translate(-104 -24)" fill="#272526"/>
        </g>
        <g id="XMLID_1191_" transform="translate(15.615 0)">
          <path id="XMLID_4338_" d="M174.405,7.538c-.064-.241-1.831-5.815-9.832-5.815a.273.273,0,0,1-.112-.016c-7.952.048-9.7,5.767-9.719,5.831l-1.542-.45a9.012,9.012,0,0,1,2.217-3.534C156.943,1.98,159.77.1,164.574.1a.354.354,0,0,1,.129.016c4.723.032,7.518,1.88,9.044,3.438a9.375,9.375,0,0,1,2.217,3.534Z" transform="translate(-153.2 -0.1)" fill="#272526"/>
        </g>
        <g id="XMLID_1315_" transform="translate(10.922 13.783)">
          <path id="XMLID_4335_" d="M140.054,122.383a.815.815,0,0,1-.209-.032c-.337-.1-8.338-2.378-11.84-7.1-3.422-4.611-3.984-15.358-4.016-15.808a.751.751,0,0,1,.225-.594.8.8,0,0,1,.578-.257c2.86,0,10.506-7.615,14.651-12.418a.78.78,0,0,1,.61-.273.8.8,0,0,1,.61.273c4.145,4.8,11.808,12.418,14.651,12.418a.778.778,0,0,1,.578.257.882.882,0,0,1,.225.594c-.016.45-.594,11.2-4.016,15.808-3.5,4.723-11.5,7-11.84,7.1A.814.814,0,0,1,140.054,122.383ZM125.644,100.1c.193,2.49,1,10.619,3.647,14.2,2.876,3.872,9.478,6.04,10.763,6.442,1.285-.386,7.888-2.57,10.763-6.442,2.651-3.566,3.454-11.711,3.647-14.2-2.024-.482-4.964-2.619-8.948-6.458-2.362-2.281-4.466-4.594-5.462-5.7-1,1.108-3.1,3.422-5.462,5.7C130.608,97.483,127.668,99.619,125.644,100.1Z" transform="translate(-123.987 -85.9)" fill="#272526"/>
        </g>
        <g id="XMLID_652_" transform="translate(13.012 26.474)">
          <path id="XMLID_4332_" d="M143.426,174.555c-5.044,0-6.41-5.783-6.426-8.836a.823.823,0,0,1,.8-.819c7.068,0,11.229,1.751,11.406,1.831a.789.789,0,0,1,.482.723,8.375,8.375,0,0,1-1.992,5.43A5.723,5.723,0,0,1,143.426,174.555Zm-4.771-8.016a12.155,12.155,0,0,0,.643,2.972c.819,2.281,2.2,3.438,4.129,3.438a4.167,4.167,0,0,0,3.117-1.173,6.243,6.243,0,0,0,1.51-3.743A31.346,31.346,0,0,0,138.655,166.539Z" transform="translate(-137 -164.9)" fill="#272526"/>
        </g>
        <g id="XMLID_653_" transform="translate(28.274 26.491)">
          <path id="XMLID_4329_" d="M238.265,174.639a5.774,5.774,0,0,1-4.273-1.655,8.327,8.327,0,0,1-1.992-5.43.789.789,0,0,1,.482-.723c.177-.08,4.337-1.831,11.406-1.831a.754.754,0,0,1,.562.241.827.827,0,0,1,.241.578C244.675,168.856,243.309,174.639,238.265,174.639Zm-4.627-6.522a6.346,6.346,0,0,0,1.51,3.743,4.229,4.229,0,0,0,3.117,1.173c1.928,0,3.309-1.157,4.129-3.454a12.96,12.96,0,0,0,.643-2.972A31.711,31.711,0,0,0,233.638,168.117Z" transform="translate(-232 -165)" fill="#272526"/>
        </g>
        <g id="XMLID_1316_" transform="translate(24.9 28.258)">
          <path id="XMLID_4328_" d="M211,176h4.177v1.606H211Z" transform="translate(-211 -176)" fill="#272526"/>
        </g>
        <g id="XMLID_2466_" transform="translate(40.001 53.479)">
          <path id="XMLID_4327_" d="M318.173,361.756h-2.088a.866.866,0,0,1-.482-.161L305.321,353.9a.77.77,0,0,1-.321-.643V333h1.606v19.856l9.751,7.293h1.558l9.751-7.293V336.213h1.606v17.045a.77.77,0,0,1-.321.643l-10.3,7.695a.758.758,0,0,1-.482.161Z" transform="translate(-305 -333)" fill="#272526"/>
        </g>
        <g id="XMLID_1320_" transform="translate(39.993 49.608)">
          <path id="XMLID_4324_" d="M318.131,321.286h-2.088a.865.865,0,0,1-.482-.161l-10.281-7.695a.8.8,0,0,1-.321-.546.786.786,0,0,1,.177-.61l2.474-3.068a.792.792,0,0,1,.627-.305,11.94,11.94,0,0,1,5.831,2.313,11.542,11.542,0,0,1,2.956,2.779c1.9-2.715,6.619-5.076,8.916-5.076a.815.815,0,0,1,.626.305l2.474,3.068a.8.8,0,0,1-.145,1.157l-10.281,7.679a.866.866,0,0,1-.482.161Zm-1.815-1.606h1.558l9.4-7.036-1.687-2.088c-2.538.305-7.759,3.518-7.759,5.687a.8.8,0,1,1-1.606,0c0-1-1.157-2.394-3.036-3.679a12.118,12.118,0,0,0-4.562-2.008l-1.687,2.088Z" transform="translate(-304.95 -308.9)" fill="#272526"/>
        </g>
        <g id="XMLID_1317_" transform="translate(51.246 57.013)">
          <path id="XMLID_4323_" d="M375,355h1.606v4.177H375Z" transform="translate(-375 -355)" fill="#272526"/>
        </g>
        <g id="XMLID_1319_" transform="translate(41.749 51.061)">
          <path id="XMLID_4322_" d="M0,0H12.065V1.606H0Z" transform="translate(0.922 0) rotate(35.025)" fill="#272526"/>
        </g>
        <g id="XMLID_1321_" transform="translate(51.66 50.957)">
          <path id="XMLID_4321_" d="M0,0H1.606V12.048H0Z" transform="translate(9.819 0) rotate(54.609)" fill="#272526"/>
        </g>
        <g id="XMLID_1105_" transform="translate(54.78 58.991)">
          <path id="XMLID_4318_" d="M397.8,377.512a.876.876,0,0,1-.353-.08.8.8,0,0,1-.45-.723v-4.5a.77.77,0,0,1,.321-.643l5.462-4.1a.823.823,0,0,1,.835-.08.8.8,0,0,1,.45.723v4.5a.77.77,0,0,1-.321.643l-5.462,4.1A.866.866,0,0,1,397.8,377.512Zm.8-4.9v2.49l3.855-2.892v-2.49Z" transform="translate(-397 -367.313)" fill="#272526"/>
        </g>
        <g id="XMLID_3805_" transform="translate(31.005 48.049)">
          <path id="XMLID_3734_" d="M249,299.2h1.606v4.145H249Z" transform="translate(-249 -299.2)" fill="#272526"/>
        </g>
        <g id="XMLID_3306_" transform="translate(0 48.097)">
          <path id="XMLID_3733_" d="M102.266,333.621H56.8a.8.8,0,0,1-.8-.8V317.637a7.266,7.266,0,0,1,4.177-6.554l17.189-8.016V299.5h1.606v4.08a.791.791,0,0,1-.466.723l-17.655,8.241a5.634,5.634,0,0,0-3.245,5.092v14.378h44.66Z" transform="translate(-56 -299.5)" fill="#272526"/>
        </g>
      </g>
    </g>
  </g>
</svg>
