<svg xmlns="http://www.w3.org/2000/svg" xmlns:xlink="http://www.w3.org/1999/xlink" width="113" height="113" viewBox="0 0 113 113">
  <defs>
    <clipPath id="clip-path">
      <circle id="Elipse_7732" data-name="Elipse 7732" cx="49.5" cy="49.5" r="49.5" fill="#ffa031" opacity="0.42"/>
    </clipPath>
    <clipPath id="clip-path-2">
      <rect id="Rectángulo_347944" data-name="Rectángulo 347944" width="167.479" height="361.799" fill="none"/>
    </clipPath>
    <clipPath id="clip-path-4">
      <rect id="Rectángulo_347941" data-name="Rectángulo 347941" width="10.469" height="10.406" fill="none"/>
    </clipPath>
    <clipPath id="clip-path-5">
      <rect id="Rectángulo_347942" data-name="Rectángulo 347942" width="10.824" height="15.403" fill="none"/>
    </clipPath>
  </defs>
  <g id="Grupo_1013497" data-name="Grupo 1013497" transform="translate(0 -289.827)">
    <circle id="Elipse_5329" data-name="Elipse 5329" cx="56.5" cy="56.5" r="56.5" transform="translate(0 289.827)" fill="#0098e8"/>
    <g id="Enmascarar_grupo_1011262" data-name="Enmascarar grupo 1011262" transform="translate(6.999 296.526)" clip-path="url(#clip-path)">
      <g id="Grupo_1011936" data-name="Grupo 1011936" transform="translate(-36.999 5.933)">
        <g id="Grupo_1011935" data-name="Grupo 1011935" clip-path="url(#clip-path-2)">
          <g id="Grupo_1011934" data-name="Grupo 1011934">
            <g id="Grupo_1011933" data-name="Grupo 1011933" clip-path="url(#clip-path-2)">
              <path id="Trazado_725104" data-name="Trazado 725104" d="M20.391,307.14q.6,6.283.991,12.582a4.644,4.644,0,0,1-.463,2.9,5.1,5.1,0,0,1-2.142,1.632,8.769,8.769,0,0,1-4.283.977,11.568,11.568,0,0,1-3.743-1.113l-3.068-1.313a1.826,1.826,0,0,1-.487-.268,1.387,1.387,0,0,1-.376-.895q-.813-5.338-1.627-10.675Z" transform="translate(0.249 14.715)" fill="#685434"/>
              <path id="Trazado_725105" data-name="Trazado 725105" d="M8.391,313.993q.275,5.137.549,10.273a.385.385,0,0,0,.769-.041l-.55-10.273a.385.385,0,0,0-.768.041" transform="translate(0.402 15.024)" fill="#c2b38c"/>
              <path id="Trazado_725106" data-name="Trazado 725106" d="M10.291,314a50.363,50.363,0,0,1,1.457,9.442.385.385,0,0,0,.769-.041,51.47,51.47,0,0,0-1.5-9.645c-.122-.479-.852-.235-.73.244" transform="translate(0.492 15.019)" fill="#c2b38c"/>
              <path id="Trazado_725107" data-name="Trazado 725107" d="M14.319,312.821q.637,5.115,1.274,10.23c.061.488.83.452.768-.041q-.637-5.115-1.274-10.23c-.061-.489-.83-.452-.768.041" transform="translate(0.686 14.968)" fill="#c2b38c"/>
              <path id="Trazado_725108" data-name="Trazado 725108" d="M16.809,311.834q.512,4.673,1.026,9.346c.053.49.823.453.768-.041q-.512-4.673-1.026-9.346c-.053-.49-.823-.453-.768.041" transform="translate(0.805 14.921)" fill="#c2b38c"/>
              <path id="Trazado_725109" data-name="Trazado 725109" d="M64.331,305.94c.247,4.164.285,8.342.115,12.511a25.334,25.334,0,0,0,17.522.691,2.566,2.566,0,0,1-.591-1.691q-.652-6.839-1.307-13.676l-7.718,1.468a30.406,30.406,0,0,1-8.263.8Z" transform="translate(3.07 14.554)" fill="#685434"/>
              <path id="Trazado_725110" data-name="Trazado 725110" d="M66.672,306.386q.165,5.478.685,10.936c.047.491.815.454.768-.041q-.52-5.456-.685-10.936a.385.385,0,0,0-.768.041" transform="translate(3.194 14.66)" fill="#c2b38c"/>
              <path id="Trazado_725111" data-name="Trazado 725111" d="M69.368,305.688a60.208,60.208,0,0,1,1.43,13.051c0,.5.768.453.768-.041A61.161,61.161,0,0,0,70.1,305.444c-.108-.482-.837-.236-.73.244" transform="translate(3.323 14.621)" fill="#c2b38c"/>
              <path id="Trazado_725112" data-name="Trazado 725112" d="M73.76,306.008q.747,6.783.928,13.611a.385.385,0,0,0,.769-.041q-.182-6.822-.929-13.611c-.053-.49-.823-.453-.768.041" transform="translate(3.534 14.642)" fill="#c2b38c"/>
              <path id="Trazado_725113" data-name="Trazado 725113" d="M77.181,306.253q.522,6.921.362,13.87c-.012.5.758.452.769-.041q.16-6.94-.363-13.87a.385.385,0,0,0-.768.041" transform="translate(3.698 14.654)" fill="#c2b38c"/>
              <path id="Trazado_725114" data-name="Trazado 725114" d="M22.824,170.43c-3.463,17.848-19.841,85.123-20.042,99.641C2.6,283.2-1.681,320.405.741,324.893c7.4-1.511,22.642.416,29.666-2.355a4.006,4.006,0,0,0,1.918-1.236,4.078,4.078,0,0,0,.412-2.694c-.453-5.822,21.554-87.221,24.523-102.355,6.5,15.417,6.248,32.769,5.044,49.458s-3.234,33.62.054,50.026l10.411,1.229a46.914,46.914,0,0,0,9.868.466c5.777-.543,11.117-3.193,16.3-5.8-4.289-12.21-4.655-25.4-4.868-38.341q-.748-45.513.311-91.034c.155-6.672-2.354-35.659-4.309-35.542-17.765,1.069-44.642-6.6-62.407-5.535Z" transform="translate(0 6.759)" fill="#c2b38c"/>
              <path id="Trazado_725115" data-name="Trazado 725115" d="M6.018,322.216A22.047,22.047,0,0,1,5.671,332.6c-.495,1.771-1.212,3.48-1.569,5.284a7.587,7.587,0,0,0,.629,5.353c1.807,3.014,5.961,3.4,9.472,3.277q3.387-.121,6.763-.46a7.438,7.438,0,0,0,4.051-1.255c1.7-1.382,1.9-3.962,1.263-6.058s-1.923-3.925-2.784-5.938a19.625,19.625,0,0,1-1.4-8.34c.054-1.682.256-3.448-.828-4.9a2.425,2.425,0,0,0-1.968-1.019c-1.911.04-2.253,2.288-3.7,3.039a4.32,4.32,0,0,1-2.946.015l-4.543-1.061a1.7,1.7,0,0,0-2.09,1.678" transform="translate(0.187 15.261)" fill="#dc4345"/>
              <path id="Trazado_725116" data-name="Trazado 725116" d="M63.909,316.645a32.914,32.914,0,0,1,13.639.715,15.068,15.068,0,0,0,2.917.627c.853.056,1.712-.068,2.563.009,3.538.326,5.752,3.8,8.26,6.316,4.5,4.512,11.083,6.426,17.451,6.554a10.555,10.555,0,0,1,4.174.571,3.06,3.06,0,0,1,1.921,3.377c-.417,1.4-2.034,1.99-3.449,2.339a66.924,66.924,0,0,1-24.063,1.452,13.878,13.878,0,0,1-4.907-1.289,9.21,9.21,0,0,0-3.2-1.493c-1.18-.118-1.849,1.848-1.365,2.931l-15.95.772-.526-6.333a8.906,8.906,0,0,1-.328-6.78c1.361-3.573,2.861-9.769,2.861-9.769" transform="translate(2.899 15.151)" fill="#dc4345"/>
              <path id="Trazado_725117" data-name="Trazado 725117" d="M4.924,339.036a39.032,39.032,0,0,0,9.41,3.627,14.127,14.127,0,0,0,8.492-.754,9.676,9.676,0,0,0,3.646-2.77c.308-.387-.263-.9-.572-.515a10.1,10.1,0,0,1-6.906,3.513,18.449,18.449,0,0,1-8.753-1.517c-1.692-.672-3.33-1.469-4.965-2.268a.385.385,0,0,0-.352.684" transform="translate(0.226 16.208)" fill="#661019"/>
              <path id="Trazado_725118" data-name="Trazado 725118" d="M8.2,322.057A21.663,21.663,0,0,1,14.188,338a20.44,20.44,0,0,1-.8,4.834c-.138.477.615.638.752.165a22.424,22.424,0,0,0-2.32-17.467,21.289,21.289,0,0,0-3.109-4.043c-.348-.355-.86.219-.515.572" transform="translate(0.387 15.397)" fill="#661019"/>
              <path id="Trazado_725119" data-name="Trazado 725119" d="M17.42,342.831q.27-9.189.544-18.379.077-2.617.155-5.233c.015-.5-.753-.452-.768.041q-.272,9.189-.545,18.379-.077,2.617-.155,5.233c-.015.5.753.452.769-.041" transform="translate(0.798 15.277)" fill="#661019"/>
              <path id="Trazado_725120" data-name="Trazado 725120" d="M62.317,336.635l14.763-.316c.5-.01.454-.779-.041-.768l-14.763.316c-.5.01-.454.779.041.768" transform="translate(2.967 16.076)" fill="#661019"/>
              <path id="Trazado_725121" data-name="Trazado 725121" d="M81.37,336.7c8.248.821,16.539.22,24.751-.71,2.331-.264,4.658-.553,6.985-.844.488-.061.452-.83-.041-.768-8.173,1.019-16.382,2.039-24.633,1.942-2.3-.027-4.606-.144-6.9-.371-.487-.049-.657.7-.165.751" transform="translate(3.884 16.02)" fill="#661019"/>
              <path id="Trazado_725122" data-name="Trazado 725122" d="M107.827,330.351a7.951,7.951,0,0,0-4.775,5.4c-.122.482.631.644.752.165a7.138,7.138,0,0,1,4.267-4.834c.459-.179.219-.911-.244-.73" transform="translate(4.936 15.825)" fill="#661019"/>
              <path id="Trazado_725123" data-name="Trazado 725123" d="M61.009,326.478c4.209,1.132,5.68,5.8,6.456,9.579.1.484.829.237.73-.243a18.339,18.339,0,0,0-2.36-6.531,8.314,8.314,0,0,0-4.662-3.557c-.479-.129-.641.623-.165.751" transform="translate(2.909 15.605)" fill="#661019"/>
              <path id="Trazado_725124" data-name="Trazado 725124" d="M80.079,318.8a9.611,9.611,0,0,1,4.472,3.477,52.151,52.151,0,0,0,3.922,4.656,15.779,15.779,0,0,0,5.072,3.43,19.344,19.344,0,0,0,6.171,1.063c2.313.131,4.715.249,6.778,1.417.433.244.783-.441.352-.684-3.761-2.127-8.286-.959-12.278-2.238a14.242,14.242,0,0,1-5.283-3.275,42.944,42.944,0,0,1-3.969-4.639,10.714,10.714,0,0,0-5.073-3.958c-.476-.14-.637.612-.165.752" transform="translate(3.823 15.237)" fill="#661019"/>
              <path id="Trazado_725125" data-name="Trazado 725125" d="M97.614,327.561a12.067,12.067,0,0,0-5.334,4.38.387.387,0,0,0,.166.518.393.393,0,0,0,.519-.166,11.15,11.15,0,0,1,4.894-4c.453-.191.214-.922-.244-.73" transform="translate(4.419 15.692)" fill="#fff"/>
              <path id="Trazado_725126" data-name="Trazado 725126" d="M95.167,325.135a10.935,10.935,0,0,0-5.9,5.121.385.385,0,0,0,.684.352,10.129,10.129,0,0,1,5.46-4.743c.464-.169.223-.9-.244-.73" transform="translate(4.274 15.576)" fill="#fff"/>
              <path id="Trazado_725127" data-name="Trazado 725127" d="M91.438,323.832c-1.075-.884-2.576.427-3.406,1.089a15.086,15.086,0,0,0-2.918,3.089c-.283.4.286.919.572.514a14.472,14.472,0,0,1,2.456-2.7,14.241,14.241,0,0,1,1.425-1.061c.328-.215.969-.673,1.356-.355s.9-.257.515-.572" transform="translate(4.074 15.5)" fill="#fff"/>
              <path id="Trazado_725128" data-name="Trazado 725128" d="M88.818,321.369a.85.85,0,0,0-.376-.848c-.291-.175-.657.047-.938.166a10.029,10.029,0,0,0-4.477,3.7.386.386,0,0,0,.166.518.4.4,0,0,0,.519-.166,9.32,9.32,0,0,1,4.617-3.547l-.3-.023a.193.193,0,0,1,.037.034.4.4,0,0,0,.293.458.387.387,0,0,0,.458-.293" transform="translate(3.975 15.353)" fill="#fff"/>
              <path id="Trazado_725129" data-name="Trazado 725129" d="M96.79,333.2a19.145,19.145,0,0,1,5.04-3.493.4.4,0,0,0,.243-.487.388.388,0,0,0-.487-.243,20.28,20.28,0,0,0-5.368,3.709c-.357.345.217.856.572.514" transform="translate(4.604 15.76)" fill="#fff"/>
              <path id="Trazado_725130" data-name="Trazado 725130" d="M11.121,339.018a15.877,15.877,0,0,1,9.4-.137c.476.139.637-.613.165-.752a16.625,16.625,0,0,0-9.814.159.385.385,0,0,0,.244.73" transform="translate(0.509 16.168)" fill="#fff"/>
              <path id="Trazado_725131" data-name="Trazado 725131" d="M10.6,335.129a15.712,15.712,0,0,1,9.172-.946.385.385,0,0,0,.165-.751,16.442,16.442,0,0,0-9.581.967c-.453.192-.214.924.244.73" transform="translate(0.485 15.959)" fill="#fff"/>
              <path id="Trazado_725132" data-name="Trazado 725132" d="M10.489,330.937a13.971,13.971,0,0,1,8.808-1.975c.488.056.657-.7.166-.751a14.828,14.828,0,0,0-9.4,2.084c-.422.259,0,.9.423.642" transform="translate(0.474 15.72)" fill="#fff"/>
              <path id="Trazado_725133" data-name="Trazado 725133" d="M9.657,326.382a12.792,12.792,0,0,1,9.64-2.1c.486.092.652-.66.165-.751a13.579,13.579,0,0,0-10.228,2.206c-.4.284.017.928.423.642" transform="translate(0.435 15.489)" fill="#fff"/>
              <path id="Trazado_725134" data-name="Trazado 725134" d="M62.589,153.229q.329,7.147.282,14.3-.024,3.56-.143,7.121-.058,1.779-.14,3.559c-.027.578-.041,1.16-.089,1.737a1.765,1.765,0,0,1-.582,1.308,7.248,7.248,0,0,1-1.524.861q-.835.4-1.7.745a27.672,27.672,0,0,1-3.637,1.166l.506.345-.6-22.745-.17-6.389a.385.385,0,0,0-.768.041l.6,22.745q.085,3.2.169,6.389a.39.39,0,0,0,.506.345,26.77,26.77,0,0,0,6.4-2.451,3.225,3.225,0,0,0,1.115-.9,2.749,2.749,0,0,0,.443-1.449c.092-1.207.124-2.423.171-3.632q.292-7.4.179-14.814-.064-4.164-.257-8.326a.385.385,0,0,0-.768.041" transform="translate(2.588 7.322)" fill="#685434"/>
              <path id="Trazado_725135" data-name="Trazado 725135" d="M55.027,182.5q-.509,6.6-.818,13.216t-.417,13.236q-.06,3.755-.057,7.512c0,.5.769.453.768-.041q0-6.622.189-13.241t.59-13.229q.225-3.749.513-7.495a.385.385,0,0,0-.4-.364.394.394,0,0,0-.364.4" transform="translate(2.574 8.724)" fill="#685434"/>
              <path id="Trazado_725136" data-name="Trazado 725136" d="M39.582,154.826A33.554,33.554,0,0,1,31.016,168.4a32.889,32.889,0,0,1-3.519,2.941c-.4.289.021.934.423.642a34.343,34.343,0,0,0,10.651-12.659,34.064,34.064,0,0,0,1.763-4.338c.155-.471-.6-.631-.752-.165" transform="translate(1.31 7.404)" fill="#685434"/>
              <path id="Trazado_725137" data-name="Trazado 725137" d="M1.236,310.389a45.731,45.731,0,0,0,11.584.753c3.931-.239,7.832-.86,11.73-1.395l6.561-.9c.487-.066.451-.835-.041-.768-3.862.529-7.722,1.069-11.586,1.586a64.939,64.939,0,0,1-11.7.751,43.992,43.992,0,0,1-6.381-.781.385.385,0,0,0-.165.752" transform="translate(0.045 14.76)" fill="#685434"/>
              <path id="Trazado_725138" data-name="Trazado 725138" d="M59.072,181.517c4.054,16.209,5.6,32.915,6.1,49.581.5,16.747.07,33.516-.143,50.264q-.184,14.406-.367,28.81c-.006.5.762.452.768-.041q.165-12.863.328-25.723.162-12.77.321-25.539c.092-8.395.132-16.791-.068-25.183-.2-8.328-.632-16.654-1.492-24.942a200.19,200.19,0,0,0-3.985-24.435q-.352-1.522-.731-3.036c-.121-.48-.85-.235-.73.244" transform="translate(2.829 8.672)" fill="#685434"/>
              <path id="Trazado_725139" data-name="Trazado 725139" d="M59.5,304.562a36.215,36.215,0,0,0,6.771,1.246,22.97,22.97,0,0,0,3.448-.139,11.753,11.753,0,0,1,3.492.139,21.457,21.457,0,0,0,3.264.484,15.588,15.588,0,0,0,3.17-.191,24.36,24.36,0,0,0,6.264-1.991,66.861,66.861,0,0,0,6.63-3.616c.424-.256,0-.9-.423-.643-3.7,2.226-7.551,4.482-11.829,5.359a15.53,15.53,0,0,1-6.392-.046,12.594,12.594,0,0,0-3.277-.334c-1.164.059-2.316.241-3.483.238a31.168,31.168,0,0,1-7.469-1.257c-.481-.121-.644.632-.165.752" transform="translate(2.837 14.363)" fill="#685434"/>
              <path id="Trazado_725140" data-name="Trazado 725140" d="M77.649,155.121a21.962,21.962,0,0,0,7.967,10.829,21.568,21.568,0,0,0,3.322,1.972c.447.213.8-.472.352-.684a21.277,21.277,0,0,1-9.434-8.953,20.455,20.455,0,0,1-1.477-3.408.385.385,0,0,0-.73.244" transform="translate(3.719 7.408)" fill="#685434"/>
              <path id="Trazado_725141" data-name="Trazado 725141" d="M73.288,236.87q2.548,10.456,5.095,20.912.718,2.947,1.436,5.895c.117.481.847.236.73-.243Q78,252.977,75.454,242.521q-.718-2.947-1.436-5.9c-.117-.48-.847-.235-.73.244" transform="translate(3.511 11.324)" fill="#685434"/>
              <path id="Trazado_725142" data-name="Trazado 725142" d="M78.5,242.593q2.065,6.4,3.635,12.954.445,1.856.848,3.723c.1.483.833.237.729-.244Q82.29,252.449,80.363,246q-.545-1.83-1.133-3.647a.385.385,0,0,0-.73.244" transform="translate(3.76 11.599)" fill="#685434"/>
              <path id="Trazado_725143" data-name="Trazado 725143" d="M33.081,170.853q-5.186,27.9-9.554,55.936-4.357,27.978-7.9,56.077-1.987,15.764-3.713,31.561c-.087.8,1.162.791,1.249,0q3.076-28.122,6.971-56.148,3.89-27.962,8.595-55.8,2.647-15.667,5.552-31.29c.147-.786-1.057-1.122-1.2-.332" transform="translate(0.571 8.164)" fill="#685434"/>
              <path id="Trazado_725144" data-name="Trazado 725144" d="M42.811,239.964q-4.961,1.092-9.82,2.594t-9.57,3.4q-2.7,1.091-5.353,2.3a.631.631,0,0,0-.224.855.64.64,0,0,0,.855.223q4.566-2.092,9.3-3.8t9.6-3.019q2.759-.743,5.551-1.358a.625.625,0,0,0-.332-1.2" transform="translate(0.851 11.496)" fill="#685434"/>
              <path id="Trazado_725145" data-name="Trazado 725145" d="M38.77,245.472l-10.491,3.564-3,1.021a.64.64,0,0,0-.436.768.63.63,0,0,0,.768.436L36.1,247.7l3-1.021a.639.639,0,0,0,.436-.768.63.63,0,0,0-.768-.436" transform="translate(1.189 11.759)" fill="#685434"/>
              <path id="Trazado_725146" data-name="Trazado 725146" d="M82.252,46.073c-7.839-2.759-13.6-1.018-21.71.8-11.145,2.5-21.123,16.3-26.132,26.559-8.494,17.408-15.775,42.188-10.571,82.332,20.947,2.761,46.431,5.027,66.225-2.359,1.517-8.325,3.1-24.05,6.015-31.992,3.194,4.617,7.127,8.9,12.161,11.386s15.749,2.506,20.583-.348c4.418-2.607,2.551-7,4.892-11.569-13.447-11.42-19.408-29.177-24.237-46.146a72.8,72.8,0,0,0-4.234-12.2A35.27,35.27,0,0,0,85.06,44.83Z" transform="translate(1.058 2.138)" fill="#dc4345"/>
              <path id="Trazado_725147" data-name="Trazado 725147" d="M69.541,124.482a6.723,6.723,0,0,0-.852,3.269,6.578,6.578,0,0,0,.789,2.225,104.411,104.411,0,0,1,10.011,33.938c.859,7.365,3.753,22.187,9.208,27.208,2.63,2.421,10.35,4.448,12.163,7.529,3.47,5.9,3.113,5.863-.259,7.046a3.875,3.875,0,1,1-3.581,6.795c1.383.661.832,3.059-.629,3.523s-3.034-.483-3.962-1.7a2.428,2.428,0,1,1-4.041,2.666l-.4.833a1.852,1.852,0,0,1-2.779.682c-4.981-3.814-6.881-10.823-8.772-17.024-6.5-21.306-18.6-40.392-27.941-60.612-1.349-2.919-2.671-6.09-2.1-9.255.188-1.042.575-2.039.752-3.082a16.933,16.933,0,0,0-.249-5.194A97.391,97.391,0,0,1,53.727,71.51,100.017,100.017,0,0,1,77.463,80.5s-3.863,34.808-7.922,43.978" transform="translate(2.2 3.426)" fill="#fed5b7"/>
              <path id="Trazado_725148" data-name="Trazado 725148" d="M88.369,205.755a8.338,8.338,0,0,0,3.491,4.318c.344.211.658-.329.315-.539a7.658,7.658,0,0,1-3.2-3.945c-.134-.376-.738-.215-.6.166" transform="translate(4.233 9.839)" fill="#774e32"/>
              <path id="Trazado_725149" data-name="Trazado 725149" d="M84.288,207.073a11.269,11.269,0,0,0,3.612,5.194c.31.249.754-.19.441-.441a10.683,10.683,0,0,1-3.451-4.919c-.128-.379-.731-.217-.6.166" transform="translate(4.037 9.902)" fill="#774e32"/>
              <path id="Trazado_725150" data-name="Trazado 725150" d="M83.693,207.564a22.633,22.633,0,0,0,9.156-3.556,23.03,23.03,0,0,0,2.248-1.716c.3-.263-.139-.7-.442-.442a22.056,22.056,0,0,1-11.127,5.113c-.4.061-.228.662.166.6" transform="translate(3.991 9.667)" fill="#774e32"/>
              <path id="Trazado_725151" data-name="Trazado 725151" d="M78.424,189.146l3.716-1.432a.321.321,0,0,0,.219-.384.315.315,0,0,0-.385-.218l-3.716,1.431a.322.322,0,0,0-.219.385.316.316,0,0,0,.385.218" transform="translate(3.738 8.964)" fill="#774e32"/>
              <path id="Trazado_725152" data-name="Trazado 725152" d="M49.516,130.009a7.416,7.416,0,0,0,1.479,5.209.323.323,0,0,0,.428.112.314.314,0,0,0,.111-.428,6.9,6.9,0,0,1-1.393-4.894c.04-.4-.585-.4-.625,0" transform="translate(2.371 6.214)" fill="#774e32"/>
              <path id="Trazado_725153" data-name="Trazado 725153" d="M61.978,126.159a13.572,13.572,0,0,1,3.88.6c.385.118.549-.483.166-.6a14.2,14.2,0,0,0-4.046-.627.312.312,0,0,0,0,.625" transform="translate(2.955 6.014)" fill="#774e32"/>
              <path id="Trazado_725154" data-name="Trazado 725154" d="M90.133,190.49q3.6,3.482,6.861,7.3.935,1.1,1.84,2.222c.253.312.692-.132.442-.442q-3.145-3.9-6.654-7.488-1.009-1.031-2.048-2.032c-.289-.28-.73.161-.441.441" transform="translate(4.314 9.101)" fill="#774e32"/>
              <path id="Trazado_725155" data-name="Trazado 725155" d="M55.076,67.663c6.966,1.35,14.357,2.913,19.44,7.866,5.726,5.581,7.183,14.2,7.267,22.2a90.616,90.616,0,0,1-6.437,34.455c-5.652-1.8-11.52,1.37-17.248,2.912a31.874,31.874,0,0,1-14.62.444,4.673,4.673,0,0,1-2.4-1.031,4.893,4.893,0,0,1-1.108-3c-2.147-17.489,2.162-35.054,6.436-52.147,1.257-5.027,2.637-10.285,6.164-14.08s9.933-5.453,13.931-2.158Z" transform="translate(1.888 2.94)" fill="#dc4345"/>
              <path id="Trazado_725156" data-name="Trazado 725156" d="M70.94,123.018l.5,4.719a2.6,2.6,0,0,1-.063,1.219,2.291,2.291,0,0,1-.979.993,47.182,47.182,0,0,1-24.207,7.611,20.6,20.6,0,0,1-2.038-8.176c9.381,1.98,26.787-6.366,26.787-6.366" transform="translate(2.115 5.894)" fill="#661019"/>
              <path id="Trazado_725157" data-name="Trazado 725157" d="M70.1,127.041a77.2,77.2,0,0,1-.636-15.2c.211-5.022.684-10.025.979-15.042a98.8,98.8,0,0,0-.012-14.221,47.487,47.487,0,0,0-3.088-13.741,73.894,73.894,0,0,0-6.855-12.421q-.489-.753-.979-1.5c-.218-.335-.759-.023-.539.315a91.147,91.147,0,0,1,7.153,12.326A45.12,45.12,0,0,1,69.67,81.2a89.725,89.725,0,0,1,.222,14.21c-.256,4.988-.731,9.961-.987,14.949a85.54,85.54,0,0,0,.331,15.023q.115.913.258,1.823c.063.4.664.228.6-.166" transform="translate(2.823 2.624)" fill="#661019"/>
              <path id="Trazado_725158" data-name="Trazado 725158" d="M34.947,80.655c.135,3.919.277,7.839.525,11.754s.608,7.833,1.168,11.722c.5,3.474,1.161,6.934,1.865,10.373a84.127,84.127,0,0,0,2.541,9.825A41.241,41.241,0,0,0,45.17,133.3q.325.516.672,1.02c.226.329.767.017.539-.315a38.118,38.118,0,0,1-4.366-8.778,75.782,75.782,0,0,1-2.658-9.691c-.717-3.35-1.36-6.73-1.9-10.113-.608-3.842-1-7.715-1.27-11.594-.275-3.9-.432-7.8-.569-11.7q-.027-.734-.051-1.469c-.014-.4-.638-.4-.625,0" transform="translate(1.674 3.85)" fill="#661019"/>
              <path id="Trazado_725159" data-name="Trazado 725159" d="M32.316,83.5a44.346,44.346,0,0,0,3.352,5.855c.224.33.765.018.539-.315a44.457,44.457,0,0,1-3.351-5.855c-.173-.363-.712-.046-.54.315" transform="translate(1.547 3.978)" fill="#661019"/>
              <path id="Trazado_725160" data-name="Trazado 725160" d="M92.705,120.078c2.25-6.413,4.524-12.82,6.747-19.244a57.08,57.08,0,0,0,2.58-9.417,47.205,47.205,0,0,0,.524-9.711,76.412,76.412,0,0,0-1.348-10.9c-.075-.4-.677-.228-.6.165a59.652,59.652,0,0,1,.96,19.4,51.6,51.6,0,0,1-2.391,9.357c-1.079,3.178-2.213,6.339-3.325,9.506q-1.874,5.343-3.747,10.684c-.133.379.471.542.6.165" transform="translate(4.412 3.381)" fill="#661019"/>
              <path id="Trazado_725161" data-name="Trazado 725161" d="M115.609,105.322a5.255,5.255,0,0,0-3.157.307,11.27,11.27,0,0,0-6.5,15c1.75,4.117,5.81,6.841,10.033,8.318a14.251,14.251,0,0,0,8.869.622c2.878-.9,5.356-3.544,5.306-6.56a10.178,10.178,0,0,0-1.271-4.205,50.038,50.038,0,0,0-4.322-7.242Z" transform="translate(5.033 5.04)" fill="#661019"/>
              <path id="Trazado_725163" data-name="Trazado 725163" d="M158.4,62.256a9.854,9.854,0,0,0-2.4-4.239,4,4,0,0,0-2.018-1.32,1.539,1.539,0,0,0-1.685.81c-.528,1.094-.047,2.46.181,3.578.264,1.3.494,2.6.64,3.915a20.075,20.075,0,0,1,.14,2.272,5.915,5.915,0,0,1-.215,1.752l.572-.074a5.383,5.383,0,0,1-.527-1.032c-.219-.511-.417-1.032-.609-1.552-.352-.943-.662-1.9-1.046-2.832-.479-1.166-1.7-2.468-3.085-1.895-1.256.521-1.525,2.115-1.386,3.313a39.768,39.768,0,0,0,1.178,4.543,4.387,4.387,0,0,1-.663,3.979,7.465,7.465,0,0,1-3.122,1.9,28.98,28.98,0,0,0-3.721,1.514,11.523,11.523,0,0,0-5.308,6.41,10.816,10.816,0,0,0-.286,1.044c-.087.391.515.559.6.166a10.859,10.859,0,0,1,4.579-6.64,16.459,16.459,0,0,1,3.56-1.618,12.472,12.472,0,0,0,3.341-1.6,4.472,4.472,0,0,0,1.824-3.2,11.634,11.634,0,0,0-.852-4.339c-.384-1.256-.876-2.8-.291-4.069a1.381,1.381,0,0,1,1.284-.915,2.135,2.135,0,0,1,1.56,1.2,7.01,7.01,0,0,1,.472,1.12c.179.49.355.982.533,1.473a26.286,26.286,0,0,0,1.183,2.932,2.927,2.927,0,0,0,.24.41.317.317,0,0,0,.571-.074,8.736,8.736,0,0,0,.185-3.229,36.457,36.457,0,0,0-.524-3.854c-.1-.539-.205-1.077-.319-1.613a11.124,11.124,0,0,1-.283-1.646,1.5,1.5,0,0,1,.477-1.428c.662-.41,1.472.193,1.951.629a9.192,9.192,0,0,1,2.663,4.374.313.313,0,0,0,.6-.166" transform="translate(6.469 2.715)" fill="#774e32"/>
              <path id="Trazado_725164" data-name="Trazado 725164" d="M135.214,66.869a8.935,8.935,0,0,1,2.012,9.169c-.136.378.466.542.6.166a9.58,9.58,0,0,0-.764-7.936,9.078,9.078,0,0,0-1.409-1.84.312.312,0,0,0-.441.441" transform="translate(6.474 3.178)" fill="#774e32"/>
              <path id="Trazado_725165" data-name="Trazado 725165" d="M88.645,54.776a13.041,13.041,0,0,1,3.235,2.809,5.177,5.177,0,0,1,1.06,4.169,4.65,4.65,0,0,1-2.625,3.02,10.61,10.61,0,0,1-3.9.793,22.563,22.563,0,0,1-5.624-.241,21.923,21.923,0,0,1-8.327-3.87,13.174,13.174,0,0,1-3.941-3.916,6.226,6.226,0,0,1-.563-5.517,5.507,5.507,0,0,1,3.875-2.958,13.709,13.709,0,0,1,4.914.036q3.411.47,6.787,1.2c2.248.487,1.47,1.931,2.863,3.9Z" transform="translate(3.236 2.341)" fill="#661019"/>
              <path id="Trazado_725166" data-name="Trazado 725166" d="M67.579,8.368a21.805,21.805,0,0,0,.4,2.68.315.315,0,0,0,.384.218.318.318,0,0,0,.218-.385A20.5,20.5,0,0,1,68.2,8.368a.321.321,0,0,0-.312-.312.315.315,0,0,0-.312.312" transform="translate(3.238 0.386)" fill="#592918"/>
              <path id="Trazado_725167" data-name="Trazado 725167" d="M78.811,37.623c-.246,2.394-.593,5-2.333,6.666a5.122,5.122,0,0,1-8.625-4.325c1.393.708,3.145-.555,3.5-2.078a7,7,0,0,0-.938-4.5,10.315,10.315,0,0,1-1.441-4.414l10.478.415Z" transform="translate(3.249 1.388)" fill="#b26747"/>
              <path id="Trazado_725168" data-name="Trazado 725168" d="M101.932,11.609c1.341,4.174,2.828,13.422,3.629,17.733l8.746,1.681a49.659,49.659,0,0,0-6,2.8c-.377.11-1.207,5.665-1.167,5.692a5.087,5.087,0,0,0-8.609,4.408,17.546,17.546,0,0,1,8.1-.813c-.026.089-1.242,8.451-2.164,9.253-1.659,1.443-11.634-.224-15.576-2.932-.262,3.334-.45,6.391-.576,8.746a6.061,6.061,0,0,1-5.777,5.761c-4.769.176-9.063-1.7-11.576-6.177-.194-.345,3.2-22.313,3.169-22.331-1.247,2.123-5.226-.3-6.792-2.2s.288-6.609,2.161-8.207a6.383,6.383,0,0,1,6.936-.569L76.6,10.647Z" transform="translate(3.198 0.51)" fill="#fed5b7"/>
              <g id="Grupo_1011929" data-name="Grupo 1011929" transform="translate(81.62 44.185)" opacity="0.4">
                <g id="Grupo_1011928" data-name="Grupo 1011928">
                  <g id="Grupo_1011927" data-name="Grupo 1011927" clip-path="url(#clip-path-4)">
                    <path id="Trazado_725169" data-name="Trazado 725169" d="M88.358,47.925l-10.47-5.759,10.227,10.4Z" transform="translate(-77.889 -42.165)" fill="#774e32"/>
                  </g>
                </g>
              </g>
              <path id="Trazado_725170" data-name="Trazado 725170" d="M94.876,28.978c.069,1.283.84,2.284,1.724,2.236s1.545-1.124,1.475-2.407-.84-2.284-1.724-2.237-1.544,1.125-1.475,2.408" transform="translate(4.545 1.273)"/>
              <path id="Trazado_725171" data-name="Trazado 725171" d="M78.643,27.74q-.45-6.185-.9-12.371a3.512,3.512,0,0,1,.071-1.312A2.461,2.461,0,0,1,80.6,12.676a8.823,8.823,0,0,1,3.043,1.443A23.171,23.171,0,0,0,96.89,17.589c4.139-.229,8.565-2.04,10.319-5.8.659-1.41.525-3.6-1-3.927a4.235,4.235,0,0,0-2.057.4A8.851,8.851,0,0,1,97.5,7.191c-2.033-1.1-3.808-2.608-5.771-3.823A22.765,22.765,0,0,0,76.978.18,15.165,15.165,0,0,0,67.315,4.89C64.672,7.969,63.884,12.3,64.3,16.341a49.7,49.7,0,0,0,3.23,12.346,5.492,5.492,0,0,1,3.473-3.865,4.938,4.938,0,0,1,5.325,2.128,15.483,15.483,0,0,1,1.929,5.993c.063-2.507.262-1.486.325-3.993l.125-.862Z" transform="translate(3.076 0)" fill="#b26747"/>
              <path id="Trazado_725172" data-name="Trazado 725172" d="M74.64,30.663a7.874,7.874,0,0,0-1.9-3.1,4.407,4.407,0,0,0-3.188-1.254c-.4.021-.4.646,0,.625,2.305-.125,3.771,1.972,4.483,3.9.138.374.742.213.6-.166" transform="translate(3.318 1.26)" fill="#774e32"/>
              <path id="Trazado_725173" data-name="Trazado 725173" d="M72.6,27.875a2.7,2.7,0,0,0-.818,3.249.313.313,0,0,0,.426.111.318.318,0,0,0,.112-.426,2.066,2.066,0,0,1,.6-2.393.324.324,0,0,0,.112-.428.315.315,0,0,0-.428-.112" transform="translate(3.428 1.333)" fill="#774e32"/>
              <path id="Trazado_725174" data-name="Trazado 725174" d="M100.278,26.195a6.776,6.776,0,0,1-.447,1.906.829.829,0,0,1-.324.453c-.352.191-.744-.148-1.023-.435a7.539,7.539,0,0,0-6.869-2.086A6.078,6.078,0,0,1,100.089,26Z" transform="translate(4.389 1.164)" fill="#b26747"/>
              <path id="Trazado_725175" data-name="Trazado 725175" d="M77.472,10.849a13.784,13.784,0,0,1,7.249,1.334,34.613,34.613,0,0,1,3.328,1.781,14.3,14.3,0,0,0,3.411,1.552,14.84,14.84,0,0,0,7.327-.084,4.317,4.317,0,0,0,2.851-1.7,2.116,2.116,0,0,0-.245-2.666,3.23,3.23,0,0,0-2.8-.664,4.957,4.957,0,0,0-2.929,1.937.315.315,0,0,0,.352.459,1.974,1.974,0,0,0,.608-3.011A3.52,3.52,0,0,0,94.8,8.64a4.956,4.956,0,0,0-2-.229,1.785,1.785,0,0,0-1.59,1.1c-.127.354.38.511.571.241a2.45,2.45,0,0,0-.8-3.442,2.454,2.454,0,0,0-3.344,1.3c-.143.376.46.539.6.167a1.816,1.816,0,0,1,2.482-.9,1.826,1.826,0,0,1,.52,2.556l.571.241c.2-.564.906-.673,1.428-.671a4.739,4.739,0,0,1,1.983.457,1.96,1.96,0,0,1,1.2,1.395,1.217,1.217,0,0,1-.575,1.331l.352.459a4.358,4.358,0,0,1,2.429-1.622,2.677,2.677,0,0,1,2.229.4,1.572,1.572,0,0,1,0,2.314,5.143,5.143,0,0,1-2.909,1.242,13.488,13.488,0,0,1-6.765-.195,15.994,15.994,0,0,1-3.15-1.552,30.257,30.257,0,0,0-3.085-1.625,14.333,14.333,0,0,0-7.478-1.381c-.394.048-.4.673,0,.625" transform="translate(3.697 0.29)" fill="#592918"/>
              <path id="Trazado_725176" data-name="Trazado 725176" d="M73.079,12.05c-.928,3.044.1,6.162,1.113,9.039.132.377.736.215.6-.166-.97-2.769-2.007-5.776-1.112-8.708.117-.385-.485-.549-.6-.166" transform="translate(3.484 0.567)" fill="#592918"/>
              <path id="Trazado_725177" data-name="Trazado 725177" d="M70.58,14.285a7.627,7.627,0,0,0,1.135,5c.216.338.757.025.54-.315a7.085,7.085,0,0,1-1.05-4.686.314.314,0,0,0-.312-.312.32.32,0,0,0-.312.312" transform="translate(3.379 0.669)" fill="#592918"/>
              <path id="Trazado_725178" data-name="Trazado 725178" d="M66.647,12.249a11.817,11.817,0,0,0,.4,3.384.313.313,0,0,0,.6-.167,11.18,11.18,0,0,1-.38-3.217.312.312,0,0,0-.625,0" transform="translate(3.193 0.572)" fill="#592918"/>
              <path id="Trazado_725179" data-name="Trazado 725179" d="M67.653,19.453A6.916,6.916,0,0,0,68.28,20.9a.314.314,0,0,0,.426.112.318.318,0,0,0,.112-.428,6.5,6.5,0,0,1-.332-.655c-.006-.014-.044-.1-.013-.028-.014-.03-.025-.062-.038-.091-.022-.053-.043-.108-.063-.162-.043-.117-.083-.236-.118-.355a.312.312,0,0,0-.6.166" transform="translate(3.241 0.913)" fill="#592918"/>
              <path id="Trazado_725180" data-name="Trazado 725180" d="M71.073,39.385c-.013.038-.026.075-.04.112a.3.3,0,0,1-.02.05c.041-.063.006-.017,0,0a2.372,2.372,0,0,1-.109.212c-.038.065-.079.129-.123.191L70.748,40c-.044.061.043-.052,0,.005-.025.031-.05.062-.076.091-.05.057-.1.112-.157.163l-.088.08-.042.035c-.013.01-.065.061,0,.005a1.739,1.739,0,0,1-.4.249.313.313,0,0,0-.112.427.319.319,0,0,0,.426.112,2.781,2.781,0,0,0,1.39-1.613.315.315,0,0,0-.218-.385.32.32,0,0,0-.385.218" transform="translate(3.345 1.876)" fill="#592918"/>
              <path id="Trazado_725181" data-name="Trazado 725181" d="M70.825,41.089a.576.576,0,0,1,.041.074l-.031-.074a.468.468,0,0,1,.029.109c0-.027-.007-.057-.012-.084a.531.531,0,0,1,0,.129c0-.027.008-.057.012-.084a.653.653,0,0,1-.042.155c.01-.025.021-.049.031-.075a.8.8,0,0,1-.089.153c.016-.022.032-.043.048-.063a.855.855,0,0,1-.136.132c.021-.015.042-.032.063-.049a1.579,1.579,0,0,1-.375.206l.074-.031q-.061.027-.123.05a.34.34,0,0,0-.187.144.314.314,0,0,0-.031.241.322.322,0,0,0,.144.188.306.306,0,0,0,.24.031,3.487,3.487,0,0,0,.437-.2,1.26,1.26,0,0,0,.39-.343.827.827,0,0,0,.057-.926.312.312,0,0,0-.426-.112.317.317,0,0,0-.112.428" transform="translate(3.358 1.946)" fill="#592918"/>
              <path id="Trazado_725182" data-name="Trazado 725182" d="M132.19,85.6a11.018,11.018,0,0,0,5.616,2.926c.393.073.561-.528.166-.6a10.434,10.434,0,0,1-5.34-2.764c-.288-.281-.729.16-.441.441" transform="translate(6.329 4.075)" fill="#774e32"/>
              <path id="Trazado_725183" data-name="Trazado 725183" d="M61.356,110.205a6.806,6.806,0,0,0,.693,3.873c.181.358.72.043.54-.315a6.229,6.229,0,0,1-.608-3.558.314.314,0,0,0-.312-.312.32.32,0,0,0-.312.312" transform="translate(2.937 5.265)" fill="#661019"/>
              <path id="Trazado_725184" data-name="Trazado 725184" d="M63.39,110.626q.129,1.2.259,2.4a.322.322,0,0,0,.312.312.314.314,0,0,0,.312-.312q-.129-1.2-.259-2.4a.322.322,0,0,0-.312-.312.314.314,0,0,0-.312.312" transform="translate(3.037 5.285)" fill="#661019"/>
              <path id="Trazado_725185" data-name="Trazado 725185" d="M64.281,100.933a5.579,5.579,0,0,0-.217,2.273.322.322,0,0,0,.312.312.314.314,0,0,0,.312-.312,5.1,5.1,0,0,1,.195-2.107.312.312,0,0,0-.6-.166" transform="translate(3.068 4.825)" fill="#661019"/>
              <path id="Trazado_725186" data-name="Trazado 725186" d="M98.267,112.5a10.059,10.059,0,0,0,1.146,4.1c.188.355.726.041.539-.315a9.334,9.334,0,0,1-1.06-3.787c-.024-.4-.649-.4-.625,0" transform="translate(4.708 5.375)" fill="#661019"/>
              <path id="Trazado_725187" data-name="Trazado 725187" d="M99.729,110.711a10.058,10.058,0,0,0,.952,2.688.315.315,0,0,0,.428.113.319.319,0,0,0,.112-.428,9.4,9.4,0,0,1-.889-2.539.312.312,0,0,0-.6.166" transform="translate(4.778 5.285)" fill="#661019"/>
              <path id="Trazado_725188" data-name="Trazado 725188" d="M103.589,104.221q.179.992.359,1.983a.313.313,0,0,0,.384.218.32.32,0,0,0,.218-.384l-.358-1.983a.315.315,0,0,0-.385-.219.321.321,0,0,0-.218.385" transform="translate(4.963 4.974)" fill="#661019"/>
              <path id="Trazado_725189" data-name="Trazado 725189" d="M102.168,73.6l-.834,5.662c-.058.393.545.563.6.166l.832-5.662c.058-.393-.543-.563-.6-.166" transform="translate(4.855 3.515)" fill="#661019"/>
              <path id="Trazado_725190" data-name="Trazado 725190" d="M74.551,113.652a58.415,58.415,0,0,1,15.28-4.839q2.221-.379,4.467-.583c.4-.037.4-.661,0-.625a59.008,59.008,0,0,0-15.861,3.7q-2.135.825-4.2,1.81c-.363.173-.046.712.315.54" transform="translate(3.549 5.155)" fill="#661019"/>
              <path id="Trazado_725191" data-name="Trazado 725191" d="M73.013,117.109a67.573,67.573,0,0,1,13.538-5.5q1.977-.564,3.985-1.006c.393-.087.226-.688-.166-.6a68.351,68.351,0,0,0-13.911,4.691q-1.91.883-3.762,1.882c-.353.192-.039.73.315.54" transform="translate(3.475 5.269)" fill="#661019"/>
              <path id="Trazado_725192" data-name="Trazado 725192" d="M29.818,146.108a10.368,10.368,0,0,0,.917,4.316.316.316,0,0,0,.428.112.32.32,0,0,0,.112-.428,9.637,9.637,0,0,1-.832-4,.312.312,0,0,0-.625,0" transform="translate(1.429 6.985)" fill="#661019"/>
              <path id="Trazado_725193" data-name="Trazado 725193" d="M32.12,147.57a4.787,4.787,0,0,0,.464,2.353.316.316,0,0,0,.428.112.32.32,0,0,0,.112-.428,4.108,4.108,0,0,1-.379-2.037.312.312,0,1,0-.625,0" transform="translate(1.538 7.055)" fill="#661019"/>
              <path id="Trazado_725194" data-name="Trazado 725194" d="M35.325,147.077a20.664,20.664,0,0,0-.2,3.8c.017.4.641.4.625,0a19.789,19.789,0,0,1,.175-3.634.323.323,0,0,0-.218-.384.315.315,0,0,0-.385.218" transform="translate(1.682 7.035)" fill="#661019"/>
              <path id="Trazado_725195" data-name="Trazado 725195" d="M78.517,145.475q.25,1.979.5,3.957a.322.322,0,0,0,.312.312.314.314,0,0,0,.312-.312q-.25-1.977-.5-3.957a.322.322,0,0,0-.312-.312.314.314,0,0,0-.312.312" transform="translate(3.762 6.955)" fill="#661019"/>
              <path id="Trazado_725196" data-name="Trazado 725196" d="M81.384,146.526v2.406a.312.312,0,0,0,.625,0v-2.406a.312.312,0,0,0-.625,0" transform="translate(3.899 7.005)" fill="#661019"/>
              <path id="Trazado_725197" data-name="Trazado 725197" d="M83.987,146.6l.3,1.774a.313.313,0,0,0,.384.218.321.321,0,0,0,.218-.385q-.148-.887-.294-1.773a.314.314,0,0,0-.385-.219.323.323,0,0,0-.218.385" transform="translate(4.023 7.004)" fill="#661019"/>
              <g id="Grupo_1011932" data-name="Grupo 1011932" transform="translate(90.653 85.551)" opacity="0.15">
                <g id="Grupo_1011931" data-name="Grupo 1011931">
                  <g id="Grupo_1011930" data-name="Grupo 1011930" clip-path="url(#clip-path-5)">
                    <path id="Trazado_725198" data-name="Trazado 725198" d="M97.333,89.342c0,4.253-2.423,7.7-5.412,7.7s-5.411-3.449-5.411-7.7,2.423-7.7,5.411-7.7,5.412,3.449,5.412,7.7" transform="translate(-86.508 -81.64)" fill="#661019"/>
                  </g>
                </g>
              </g>
              <path id="Trazado_725199" data-name="Trazado 725199" d="M98.947,89.3c0,3.96-2.547,7.171-5.689,7.171s-5.689-3.211-5.689-7.171,2.546-7.171,5.689-7.171,5.689,3.211,5.689,7.171" transform="translate(4.195 3.935)" fill="#fff"/>
              <path id="Trazado_725200" data-name="Trazado 725200" d="M93.318,89.2a5.259,5.259,0,0,1,2.59-4.786,3.334,3.334,0,0,0-1.488-.354c-2.253,0-4.078,2.3-4.078,5.14s1.825,5.14,4.078,5.14a3.348,3.348,0,0,0,1.488-.354,5.259,5.259,0,0,1-2.59-4.786" transform="translate(4.328 4.027)" fill="#4b89b0"/>
              <path id="Trazado_725201" data-name="Trazado 725201" d="M96.753,87.743a11.64,11.64,0,0,1,.156,3.432.314.314,0,0,0,.312.312.319.319,0,0,0,.312-.312,12.191,12.191,0,0,0-.178-3.6c-.079-.394-.68-.227-.6.166" transform="translate(4.635 4.185)" fill="#4b89b0"/>
              <path id="Trazado_725202" data-name="Trazado 725202" d="M88.519,86.361a6.331,6.331,0,0,0,.2,4.143.322.322,0,0,0,.384.218.313.313,0,0,0,.218-.384,5.78,5.78,0,0,1-.2-3.812.313.313,0,0,0-.6-.166" transform="translate(4.229 4.127)" fill="#4b89b0"/>
              <path id="Trazado_725203" data-name="Trazado 725203" d="M88.807,92.076a1.581,1.581,0,0,0,.574,1.335.341.341,0,0,0,.221.091.312.312,0,0,0,.22-.533,1.283,1.283,0,0,1-.173-.165c-.018-.02-.051-.083,0,0-.008-.015-.021-.027-.03-.042-.023-.032-.044-.066-.064-.1s-.037-.071-.053-.107c-.027-.058.026.071.005.012-.007-.022-.016-.043-.023-.065a1.25,1.25,0,0,1-.053-.233c0,.028.007.056.012.083a1.247,1.247,0,0,1-.006-.272.314.314,0,0,0-.312-.312.32.32,0,0,0-.312.312" transform="translate(4.254 4.396)" fill="#4b89b0"/>
            </g>
          </g>
        </g>
      </g>
    </g>
  </g>
</svg>
