<svg xmlns="http://www.w3.org/2000/svg" xmlns:xlink="http://www.w3.org/1999/xlink" width="211.231" height="192.353" viewBox="0 0 211.231 192.353">
  <defs>
    <clipPath id="clip-path">
      <path id="Trazado_715417" data-name="Trazado 715417" d="M145.247,172.651c4.7-5.754,8.832-12.434,14.939-17.034,6.084-4.58,14.524-6.618,21.059-10.669A89.374,89.374,0,0,0,195.362,134.4a39.3,39.3,0,0,1-8.567,9.369c-4.45,3.495-9.939,5.665-14.949,8.209a45.069,45.069,0,0,0-12.962,9.342c-7.217,7.78-13.641,16.329-23.049,21.633a56.734,56.734,0,0,1-6.114,2.978,52.814,52.814,0,0,0,15.525-13.281M196.24,73.377c-7.648-6.673-17.211-10.475-25.576-16.1-6.731-4.524-11.749-14.845-15.035-21.671-4.437-9.219-11.066-19.759-19.7-26.1a44.414,44.414,0,0,0-11-5.807c2.363.521,4.724,1.048,7.041,1.759a30.436,30.436,0,0,1,11.3,6.76,63.732,63.732,0,0,1,13.458,17.645c3.043,5.846,4.95,12.279,8.692,17.754,3.4,4.971,8.227,8.7,13.255,11.9,10.938,6.952,23.381,12.408,28.31,25.393,1.957,5.151,1.986,10.99,1.535,16.507-.165-10.51-3.984-20.806-12.276-28.042M102.339,0C79.273.018,54.4,9.957,43.471,25.705c-5.873,8.457-6.46,14.566-5.756,24.265,1.026,14.155-3.623,22.053-13.905,31.674-8.253,7.723-16.142,16.5-20.055,26.635q.348-1.3.783-2.575c2.446-7.161,7.075-13.5,12.012-19.141,4.465-5.1,9.857-9.4,13.7-15.033,8.148-11.943,2.664-26.472,6.621-39.518C41.146,17.92,56.445,11.64,68.86,6.639c.374-.15-.272-.346-.453-.288C55.921,10.341,41.929,16.859,36.088,29.388,33.4,35.155,33.337,41.769,33.248,48c-.12,8.376-.473,15.989-5.182,23.236-3.994,6.15-10.178,10.845-14.939,16.393A56.651,56.651,0,0,0,1.676,107.256c-3.359,10.69-1.57,24.372,4.465,34.375a99.736,99.736,0,0,0,8.083,14.61c17.124,26,52.15,34.874,81.492,36.02,9.344.365,17.518-.3,24.848-2.51a30.194,30.194,0,0,0,5.815-1.4c3.083-1.116,6.21-2.493,9.178-3.864,10.292-4.753,17.518-13.734,25.163-21.757,8.381-8.794,20.315-11.348,29.7-18.631a37.965,37.965,0,0,0,10.3-12.679,29.134,29.134,0,0,0,3.036-8.6q.877-1.809,1.6-3.693c6.019-9.123,7.175-22.26,4.535-32.454-3.418-13.2-16.065-19.841-26.878-26.227-5.926-3.5-11.519-7.5-15.646-13.088-4.088-5.54-6.386-12.338-9.6-18.388a66.321,66.321,0,0,0-13.41-17.06C138.7,6.7,131.967,4.617,124.549,3.271c-.622-.113-1.244-.221-1.865-.329a59.566,59.566,0,0,0-7.526-1.848A72.775,72.775,0,0,0,102.444,0Z" transform="translate(0 -0.004)" fill="#4db1f0"/>
    </clipPath>
    <filter id="Rectángulo_33844" x="162.469" y="109.387" width="41.406" height="27.955" filterUnits="userSpaceOnUse">
      <feOffset dy="3" input="SourceAlpha"/>
      <feGaussianBlur stdDeviation="3" result="blur"/>
      <feFlood flood-opacity="0.161"/>
      <feComposite operator="in" in2="blur"/>
      <feComposite in="SourceGraphic"/>
    </filter>
    <filter id="Trazado_113690" x="170.97" y="116.127" width="38.685" height="28.575" filterUnits="userSpaceOnUse">
      <feOffset dy="3" input="SourceAlpha"/>
      <feGaussianBlur stdDeviation="3" result="blur-2"/>
      <feFlood flood-opacity="0.161"/>
      <feComposite operator="in" in2="blur-2"/>
      <feComposite in="SourceGraphic"/>
    </filter>
    <filter id="Rectángulo_33844-2" x="8.392" y="9.515" width="41.406" height="27.955" filterUnits="userSpaceOnUse">
      <feOffset dy="3" input="SourceAlpha"/>
      <feGaussianBlur stdDeviation="3" result="blur-3"/>
      <feFlood flood-opacity="0.161"/>
      <feComposite operator="in" in2="blur-3"/>
      <feComposite in="SourceGraphic"/>
    </filter>
    <filter id="Trazado_113690-2" x="16.894" y="16.254" width="38.685" height="28.575" filterUnits="userSpaceOnUse">
      <feOffset dy="3" input="SourceAlpha"/>
      <feGaussianBlur stdDeviation="3" result="blur-4"/>
      <feFlood flood-opacity="0.161"/>
      <feComposite operator="in" in2="blur-4"/>
      <feComposite in="SourceGraphic"/>
    </filter>
    <filter id="Trazado_113638" x="65.417" y="8.846" width="61.841" height="61.841" filterUnits="userSpaceOnUse">
      <feOffset dy="3" input="SourceAlpha"/>
      <feGaussianBlur stdDeviation="3" result="blur-5"/>
      <feFlood flood-opacity="0.161"/>
      <feComposite operator="in" in2="blur-5"/>
      <feComposite in="SourceGraphic"/>
    </filter>
  </defs>
  <g id="Grupo_1011432" data-name="Grupo 1011432" transform="translate(-1128.491 -8068)">
    <g id="Grupo_1010843" data-name="Grupo 1010843" transform="translate(1128.491 8068)">
      <g id="Grupo_1010424" data-name="Grupo 1010424" transform="translate(0 0.001)">
        <g id="Grupo_1006262" data-name="Grupo 1006262" transform="translate(0 0)">
          <g id="Grupo_1006260" data-name="Grupo 1006260" transform="translate(0)" clip-path="url(#clip-path)">
            <rect id="Rectángulo_346887" data-name="Rectángulo 346887" width="214.219" height="192.623" transform="translate(-1.682 0)" fill="#4db1f0"/>
          </g>
        </g>
        <g id="Grupo_1006266" data-name="Grupo 1006266" transform="translate(171.469 112.147)">
          <g id="Grupo_1006264" data-name="Grupo 1006264" transform="translate(0 3.241)">
            <g transform="matrix(1, 0, 0, 1, -171.47, -115.39)" filter="url(#Rectángulo_33844)">
              <rect id="Rectángulo_33844-3" data-name="Rectángulo 33844" width="23.406" height="9.955" rx="3" transform="translate(171.47 115.39)" fill="#f9e8dc"/>
            </g>
            <g transform="matrix(1, 0, 0, 1, -171.47, -115.39)" filter="url(#Trazado_113690)">
              <path id="Trazado_113690-3" data-name="Trazado 113690" d="M2.648,10.575H18.037a2.648,2.648,0,0,0,2.648-2.648V2.648A2.648,2.648,0,0,0,18.037,0H2.648A2.648,2.648,0,0,0,0,2.648V7.927a2.648,2.648,0,0,0,2.648,2.648" transform="translate(179.97 122.13)" fill="#4db1f0"/>
            </g>
            <path id="Trazado_113691" data-name="Trazado 113691" d="M2.573,1.286A1.286,1.286,0,1,0,1.286,2.573,1.286,1.286,0,0,0,2.573,1.286" transform="translate(12.225 10.741)" fill="#fff"/>
            <path id="Trazado_113692" data-name="Trazado 113692" d="M2.573,1.286A1.286,1.286,0,1,0,1.286,2.573,1.286,1.286,0,0,0,2.573,1.286" transform="translate(17.558 10.741)" fill="#fff"/>
            <path id="Trazado_113693" data-name="Trazado 113693" d="M2.573,1.286A1.286,1.286,0,1,0,1.286,2.573,1.286,1.286,0,0,0,2.573,1.286" transform="translate(22.89 10.741)" fill="#fff"/>
          </g>
          <g id="Grupo_1006265" data-name="Grupo 1006265" transform="translate(18.261 0)">
            <path id="Trazado_113641" data-name="Trazado 113641" d="M1519.956,262.321a.679.679,0,1,1-.679-.679.679.679,0,0,1,.679.679" transform="translate(-1518.599 -261.642)" fill="#0098e8"/>
            <path id="Trazado_113642" data-name="Trazado 113642" d="M1571.631,262.321a.679.679,0,1,1-.679-.679.679.679,0,0,1,.679.679" transform="translate(-1567.288 -261.642)" fill="#0098e8"/>
            <path id="Trazado_113643" data-name="Trazado 113643" d="M1623.306,262.321a.679.679,0,1,1-.679-.679.679.679,0,0,1,.679.679" transform="translate(-1615.977 -261.642)" fill="#0098e8"/>
            <path id="Trazado_113644" data-name="Trazado 113644" d="M1674.981,262.321a.679.679,0,1,1-.679-.679.679.679,0,0,1,.679.679" transform="translate(-1664.666 -261.642)" fill="#0098e8"/>
            <path id="Trazado_113646" data-name="Trazado 113646" d="M1519.956,311.647a.679.679,0,1,1-.679-.679.679.679,0,0,1,.679.679" transform="translate(-1518.599 -308.118)" fill="#0098e8"/>
            <path id="Trazado_113647" data-name="Trazado 113647" d="M1571.631,311.647a.679.679,0,1,1-.679-.679.679.679,0,0,1,.679.679" transform="translate(-1567.288 -308.118)" fill="#0098e8"/>
            <path id="Trazado_113648" data-name="Trazado 113648" d="M1623.306,311.647a.679.679,0,1,1-.679-.679.679.679,0,0,1,.679.679" transform="translate(-1615.977 -308.118)" fill="#0098e8"/>
            <path id="Trazado_113649" data-name="Trazado 113649" d="M1674.981,311.647a.679.679,0,1,1-.679-.679.679.679,0,0,1,.679.679" transform="translate(-1664.666 -308.118)" fill="#0098e8"/>
            <path id="Trazado_113651" data-name="Trazado 113651" d="M1519.956,360.973a.679.679,0,1,1-.679-.679.679.679,0,0,1,.679.679" transform="translate(-1518.599 -354.593)" fill="#0098e8"/>
            <path id="Trazado_113652" data-name="Trazado 113652" d="M1571.631,360.973a.679.679,0,1,1-.679-.679.679.679,0,0,1,.679.679" transform="translate(-1567.288 -354.593)" fill="#0098e8"/>
            <path id="Trazado_113653" data-name="Trazado 113653" d="M1623.306,360.973a.679.679,0,1,1-.679-.679.679.679,0,0,1,.679.679" transform="translate(-1615.977 -354.593)" fill="#0098e8"/>
            <path id="Trazado_113654" data-name="Trazado 113654" d="M1674.981,360.973a.679.679,0,1,1-.679-.679.679.679,0,0,1,.679.679" transform="translate(-1664.666 -354.593)" fill="#0098e8"/>
            <path id="Trazado_113656" data-name="Trazado 113656" d="M1519.956,410.3a.679.679,0,1,1-.679-.679.679.679,0,0,1,.679.679" transform="translate(-1518.599 -401.07)" fill="#0098e8"/>
            <path id="Trazado_113657" data-name="Trazado 113657" d="M1571.631,410.3a.679.679,0,1,1-.679-.679.679.679,0,0,1,.679.679" transform="translate(-1567.288 -401.07)" fill="#0098e8"/>
            <path id="Trazado_113658" data-name="Trazado 113658" d="M1623.306,410.3a.679.679,0,1,1-.679-.679.679.679,0,0,1,.679.679" transform="translate(-1615.977 -401.07)" fill="#0098e8"/>
            <path id="Trazado_113659" data-name="Trazado 113659" d="M1674.981,410.3a.679.679,0,1,1-.679-.679.678.678,0,0,1,.679.679" transform="translate(-1664.666 -401.07)" fill="#0098e8"/>
            <path id="Trazado_113661" data-name="Trazado 113661" d="M1519.956,459.626a.679.679,0,1,1-.679-.679.679.679,0,0,1,.679.679" transform="translate(-1518.599 -447.545)" fill="#0098e8"/>
            <path id="Trazado_113662" data-name="Trazado 113662" d="M1571.631,459.626a.679.679,0,1,1-.679-.679.679.679,0,0,1,.679.679" transform="translate(-1567.288 -447.545)" fill="#0098e8"/>
            <path id="Trazado_113663" data-name="Trazado 113663" d="M1623.306,459.626a.679.679,0,1,1-.679-.679.679.679,0,0,1,.679.679" transform="translate(-1615.977 -447.545)" fill="#0098e8"/>
            <path id="Trazado_113664" data-name="Trazado 113664" d="M1674.981,459.626a.679.679,0,1,1-.679-.679.679.679,0,0,1,.679.679" transform="translate(-1664.666 -447.545)" fill="#0098e8"/>
          </g>
        </g>
        <g id="Grupo_1006268" data-name="Grupo 1006268" transform="translate(17.392 12.274)">
          <g id="Grupo_1006264-2" data-name="Grupo 1006264" transform="translate(0 3.241)">
            <g transform="matrix(1, 0, 0, 1, -17.39, -15.51)" filter="url(#Rectángulo_33844-2)">
              <rect id="Rectángulo_33844-4" data-name="Rectángulo 33844" width="23.406" height="9.955" rx="3" transform="translate(17.39 15.51)" fill="#f9e8dc"/>
            </g>
            <g transform="matrix(1, 0, 0, 1, -17.39, -15.51)" filter="url(#Trazado_113690-2)">
              <path id="Trazado_113690-4" data-name="Trazado 113690" d="M2.648,10.575H18.037a2.648,2.648,0,0,0,2.648-2.648V2.648A2.648,2.648,0,0,0,18.037,0H2.648A2.648,2.648,0,0,0,0,2.648V7.927a2.648,2.648,0,0,0,2.648,2.648" transform="translate(25.89 22.25)" fill="#4db1f0"/>
            </g>
            <path id="Trazado_113691-2" data-name="Trazado 113691" d="M2.573,1.286A1.286,1.286,0,1,0,1.286,2.573,1.286,1.286,0,0,0,2.573,1.286" transform="translate(12.225 10.741)" fill="#fff"/>
            <path id="Trazado_113692-2" data-name="Trazado 113692" d="M2.573,1.286A1.286,1.286,0,1,0,1.286,2.573,1.286,1.286,0,0,0,2.573,1.286" transform="translate(17.558 10.741)" fill="#fff"/>
            <path id="Trazado_113693-2" data-name="Trazado 113693" d="M2.573,1.286A1.286,1.286,0,1,0,1.286,2.573,1.286,1.286,0,0,0,2.573,1.286" transform="translate(22.89 10.741)" fill="#fff"/>
          </g>
          <g id="Grupo_1006265-2" data-name="Grupo 1006265" transform="translate(18.261)">
            <path id="Trazado_113641-2" data-name="Trazado 113641" d="M1519.956,262.321a.679.679,0,1,1-.679-.679.679.679,0,0,1,.679.679" transform="translate(-1518.599 -261.642)" fill="#0098e8"/>
            <path id="Trazado_113642-2" data-name="Trazado 113642" d="M1571.631,262.321a.679.679,0,1,1-.679-.679.679.679,0,0,1,.679.679" transform="translate(-1567.288 -261.642)" fill="#0098e8"/>
            <path id="Trazado_113643-2" data-name="Trazado 113643" d="M1623.306,262.321a.679.679,0,1,1-.679-.679.679.679,0,0,1,.679.679" transform="translate(-1615.977 -261.642)" fill="#0098e8"/>
            <path id="Trazado_113644-2" data-name="Trazado 113644" d="M1674.981,262.321a.679.679,0,1,1-.679-.679.679.679,0,0,1,.679.679" transform="translate(-1664.666 -261.642)" fill="#0098e8"/>
            <path id="Trazado_113646-2" data-name="Trazado 113646" d="M1519.956,311.647a.679.679,0,1,1-.679-.679.679.679,0,0,1,.679.679" transform="translate(-1518.599 -308.118)" fill="#0098e8"/>
            <path id="Trazado_113647-2" data-name="Trazado 113647" d="M1571.631,311.647a.679.679,0,1,1-.679-.679.679.679,0,0,1,.679.679" transform="translate(-1567.288 -308.118)" fill="#0098e8"/>
            <path id="Trazado_113648-2" data-name="Trazado 113648" d="M1623.306,311.647a.679.679,0,1,1-.679-.679.679.679,0,0,1,.679.679" transform="translate(-1615.977 -308.118)" fill="#0098e8"/>
            <path id="Trazado_113649-2" data-name="Trazado 113649" d="M1674.981,311.647a.679.679,0,1,1-.679-.679.679.679,0,0,1,.679.679" transform="translate(-1664.666 -308.118)" fill="#0098e8"/>
            <path id="Trazado_113651-2" data-name="Trazado 113651" d="M1519.956,360.973a.679.679,0,1,1-.679-.679.679.679,0,0,1,.679.679" transform="translate(-1518.599 -354.593)" fill="#0098e8"/>
            <path id="Trazado_113652-2" data-name="Trazado 113652" d="M1571.631,360.973a.679.679,0,1,1-.679-.679.679.679,0,0,1,.679.679" transform="translate(-1567.288 -354.593)" fill="#0098e8"/>
            <path id="Trazado_113653-2" data-name="Trazado 113653" d="M1623.306,360.973a.679.679,0,1,1-.679-.679.679.679,0,0,1,.679.679" transform="translate(-1615.977 -354.593)" fill="#0098e8"/>
            <path id="Trazado_113654-2" data-name="Trazado 113654" d="M1674.981,360.973a.679.679,0,1,1-.679-.679.679.679,0,0,1,.679.679" transform="translate(-1664.666 -354.593)" fill="#0098e8"/>
            <path id="Trazado_113656-2" data-name="Trazado 113656" d="M1519.956,410.3a.679.679,0,1,1-.679-.679.679.679,0,0,1,.679.679" transform="translate(-1518.599 -401.07)" fill="#0098e8"/>
            <path id="Trazado_113657-2" data-name="Trazado 113657" d="M1571.631,410.3a.679.679,0,1,1-.679-.679.679.679,0,0,1,.679.679" transform="translate(-1567.288 -401.07)" fill="#0098e8"/>
            <path id="Trazado_113658-2" data-name="Trazado 113658" d="M1623.306,410.3a.679.679,0,1,1-.679-.679.679.679,0,0,1,.679.679" transform="translate(-1615.977 -401.07)" fill="#0098e8"/>
            <path id="Trazado_113659-2" data-name="Trazado 113659" d="M1674.981,410.3a.679.679,0,1,1-.679-.679.678.678,0,0,1,.679.679" transform="translate(-1664.666 -401.07)" fill="#0098e8"/>
            <path id="Trazado_113661-2" data-name="Trazado 113661" d="M1519.956,459.626a.679.679,0,1,1-.679-.679.679.679,0,0,1,.679.679" transform="translate(-1518.599 -447.545)" fill="#0098e8"/>
            <path id="Trazado_113662-2" data-name="Trazado 113662" d="M1571.631,459.626a.679.679,0,1,1-.679-.679.679.679,0,0,1,.679.679" transform="translate(-1567.288 -447.545)" fill="#0098e8"/>
            <path id="Trazado_113663-2" data-name="Trazado 113663" d="M1623.306,459.626a.679.679,0,1,1-.679-.679.679.679,0,0,1,.679.679" transform="translate(-1615.977 -447.545)" fill="#0098e8"/>
            <path id="Trazado_113664-2" data-name="Trazado 113664" d="M1674.981,459.626a.679.679,0,1,1-.679-.679.679.679,0,0,1,.679.679" transform="translate(-1664.666 -447.545)" fill="#0098e8"/>
          </g>
        </g>
        <g id="Grupo_1006267" data-name="Grupo 1006267" transform="translate(74.417 14.846)">
          <g id="Grupo_1003557" data-name="Grupo 1003557" transform="translate(0 0)">
            <path id="Trazado_113637" data-name="Trazado 113637" d="M1042.8,465.759a27.279,27.279,0,1,0-27.278,27.279,27.279,27.279,0,0,0,27.278-27.279" transform="translate(-986.641 -438.48)" fill="#0098e8"/>
            <g transform="matrix(1, 0, 0, 1, -74.42, -14.85)" filter="url(#Trazado_113638)">
              <path id="Trazado_113638-2" data-name="Trazado 113638" d="M1107.167,535.49a21.92,21.92,0,1,0-21.92,21.92,21.921,21.921,0,0,0,21.92-21.92" transform="translate(-988.91 -498.72)" fill="#fff" opacity="0.5"/>
            </g>
          </g>
        </g>
      </g>
    </g>
    <g id="_5100167" data-name="5100167" transform="translate(1144.415 8074.249)">
      <g id="Background_Complete" data-name="Background Complete" transform="translate(0 11.803)">
        <g id="Grupo_1006939" data-name="Grupo 1006939" transform="translate(154.914 112.455)">
          <path id="Trazado_717754" data-name="Trazado 717754" d="M4.623,0h7.471a4.623,4.623,0,0,1,4.623,4.623v7.471a4.623,4.623,0,0,1-4.623,4.623H4.623A4.623,4.623,0,0,1,0,12.094V4.623A4.623,4.623,0,0,1,4.623,0Z" fill="#112e4c"/>
          <path id="Trazado_717583" data-name="Trazado 717583" d="M35.929,315.211l.311-.262-3.379-4.017a1.178,1.178,0,0,0-1.62-.286L29.212,312l-2.372-3a1.193,1.193,0,0,0-1.808-.069l-2.892,3.129.3.278,2.892-3.129a.766.766,0,0,1,.605-.25.785.785,0,0,1,.585.3l2.606,3.293,2.34-1.563a.777.777,0,0,1,1.072.2l3.391,4.029Z" transform="translate(-20.827 -301.921)" fill="#fff"/>
          <path id="Trazado_717584" data-name="Trazado 717584" d="M32.08,300.8a1.493,1.493,0,1,0,1.493-1.493A1.493,1.493,0,0,0,32.08,300.8Z" transform="translate(-23.719 -296.463)" fill="#fff"/>
        </g>
        <g id="Grupo_1006940" data-name="Grupo 1006940" transform="translate(0 41.556)">
          <path id="Trazado_717585" data-name="Trazado 717585" d="M330.511,141.83a6.134,6.134,0,0,0,.155-1.383,11.544,11.544,0,0,1,.184-1.661,15.908,15.908,0,0,1,.438-2.233,20.844,20.844,0,0,1,2.319-5.747,21.579,21.579,0,0,1,5.342-6.156,21.292,21.292,0,0,1,20.068-3.452,19.922,19.922,0,0,1,5.428,2.769,24.438,24.438,0,0,1,2.45,1.988,24.035,24.035,0,0,1,2.131,2.409,21.115,21.115,0,0,1,.609,25.038,19.358,19.358,0,0,1-4.365,4.618,19.936,19.936,0,0,1-5.289,3.031,21.452,21.452,0,0,1-25.852-8.361,20.886,20.886,0,0,1-2.593-5.628,15.954,15.954,0,0,1-.544-2.209,11.231,11.231,0,0,1-.266-1.653,6.158,6.158,0,0,0-.225-1.374,6.145,6.145,0,0,0-.016,1.395,9.583,9.583,0,0,0,.155,1.689,15.043,15.043,0,0,0,.446,2.274,20.476,20.476,0,0,0,2.479,5.858,22.075,22.075,0,0,0,15.127,10.222,22.266,22.266,0,0,0,11.691-1.19,20.994,20.994,0,0,0,5.592-3.154,24.763,24.763,0,0,0,2.487-2.209,25.26,25.26,0,0,0,2.135-2.638,22.2,22.2,0,0,0-.642-26.429,20.372,20.372,0,0,0-4.851-4.618,20.912,20.912,0,0,0-5.735-2.88,22.283,22.283,0,0,0-11.736-.622,22.068,22.068,0,0,0-14.611,10.946,20.581,20.581,0,0,0-2.192,5.972,15.017,15.017,0,0,0-.335,2.295,9.782,9.782,0,0,0-.074,1.693,5.854,5.854,0,0,0,.086,1.395Z" transform="translate(-330.413 -119.023)" fill="#ebebeb"/>
          <path id="Trazado_717586" data-name="Trazado 717586" d="M344.09,140.317c-.049.065.344.409,1.1.974.417.3.879.634,1.4,1.006.278.188.569.4.892.609.344.18.7.364,1.072.56a24.549,24.549,0,0,0,12.8,3.223l1.939-.086c.63-.1,1.248-.2,1.861-.29.3-.053.609-.09.9-.151l.867-.233c.573-.16,1.137-.294,1.673-.466a28.11,28.11,0,0,0,5.432-2.5c2.917-1.763,4.34-3.371,4.23-3.473-.119-.135-1.7,1.207-4.643,2.737a32.572,32.572,0,0,1-5.346,2.188c-.519.151-1.068.266-1.616.409q-.411.1-.834.209c-.286.045-.573.086-.867.131-.585.086-1.174.172-1.775.262l-1.849.074a26.541,26.541,0,0,1-12.394-2.782l-1.084-.47c-.331-.172-.63-.356-.92-.515-.552-.3-1.043-.577-1.485-.818-.826-.438-1.309-.65-1.358-.581Z" transform="translate(-339.635 -131.11)" fill="#ebebeb"/>
          <path id="Trazado_717587" data-name="Trazado 717587" d="M376.662,197.024c.049-.065-.344-.409-1.1-.974-.417-.3-.879-.634-1.4-1.006-.278-.188-.569-.4-.892-.609-.344-.18-.7-.364-1.072-.56a24.549,24.549,0,0,0-12.8-3.223l-1.939.086c-.63.1-1.248.2-1.861.29-.3.053-.605.09-.9.151l-.867.233c-.573.16-1.137.295-1.673.466a28.109,28.109,0,0,0-5.432,2.5c-2.916,1.763-4.34,3.371-4.23,3.473.119.135,1.7-1.207,4.643-2.737a32.938,32.938,0,0,1,5.346-2.188c.52-.151,1.068-.266,1.616-.4q.411-.1.834-.209c.286-.045.573-.086.867-.131.585-.086,1.174-.172,1.775-.262l1.845-.074a26.541,26.541,0,0,1,12.394,2.782l1.084.47c.331.172.63.36.92.515.552.3,1.043.577,1.485.818.826.438,1.309.65,1.358.581Z" transform="translate(-337.373 -161.344)" fill="#ebebeb"/>
          <path id="Trazado_717588" data-name="Trazado 717588" d="M331.844,174.1c.008.331,9.76.36,21.782.07s21.761-.8,21.753-1.129-9.76-.36-21.786-.07-21.761.8-21.753,1.125Z" transform="translate(-331.733 -150.786)" fill="#ebebeb"/>
          <path id="Trazado_717589" data-name="Trazado 717589" d="M383.27,163.783c.331-.008.36-9.76.07-21.774s-.8-21.757-1.129-21.749-.36,9.756-.069,21.778.8,21.753,1.125,21.745Z" transform="translate(-360.388 -119.754)" fill="#ebebeb"/>
          <path id="Trazado_717590" data-name="Trazado 717590" d="M357.191,163.734c.082.127,2.479-1.5,5.248-5.183a29.207,29.207,0,0,0,3.89-7.064,26.263,26.263,0,0,0,1.685-9.756,25,25,0,0,0-2.2-9.658,30.2,30.2,0,0,0-4.254-6.847c-2.933-3.542-5.35-5.113-5.432-4.986-.119.135,2.074,1.918,4.765,5.51a32.543,32.543,0,0,1,3.906,6.766,25.065,25.065,0,0,1,2.013,9.24,26.446,26.446,0,0,1-1.526,9.355,31.253,31.253,0,0,1-3.546,6.954c-2.52,3.71-4.68,5.538-4.557,5.673Z" transform="translate(-334.309 -119.738)" fill="#ebebeb"/>
          <path id="Trazado_717591" data-name="Trazado 717591" d="M394.6,120.26c-.082-.127-2.479,1.5-5.248,5.183a29.207,29.207,0,0,0-3.89,7.064,26.277,26.277,0,0,0-1.685,9.756,25,25,0,0,0,2.2,9.658,30.205,30.205,0,0,0,4.254,6.847c2.933,3.542,5.35,5.113,5.432,4.986.119-.135-2.074-1.918-4.765-5.51a32.541,32.541,0,0,1-3.906-6.766,25.064,25.064,0,0,1-2.013-9.24,26.445,26.445,0,0,1,1.526-9.355,31.252,31.252,0,0,1,3.546-6.954c2.52-3.71,4.679-5.538,4.557-5.673Z" transform="translate(-373.257 -119.75)" fill="#ebebeb"/>
        </g>
        <g id="Grupo_1006941" data-name="Grupo 1006941" transform="translate(14.047)">
          <path id="Trazado_717592" data-name="Trazado 717592" d="M352.862,19.393H372.3a.979.979,0,0,0,.982-.982h0a.979.979,0,0,0-.982-.982H352.862a.979.979,0,0,0-.982.982h0A.979.979,0,0,0,352.862,19.393Z" transform="translate(-351.88 -17.43)" fill="#112e4c"/>
          <path id="Trazado_717593" data-name="Trazado 717593" d="M352.862,30.093H372.3a.979.979,0,0,0,.982-.982h0a.979.979,0,0,0-.982-.982H352.862a.979.979,0,0,0-.982.982h0A.979.979,0,0,0,352.862,30.093Z" transform="translate(-351.88 -23.753)" fill="#112e4c"/>
          <path id="Trazado_717594" data-name="Trazado 717594" d="M352.862,40.8H372.3a.979.979,0,0,0,.982-.982h0a.979.979,0,0,0-.982-.982H352.862a.979.979,0,0,0-.982.982h0A.979.979,0,0,0,352.862,40.8Z" transform="translate(-351.88 -30.082)" fill="#112e4c"/>
        </g>
        <g id="Grupo_1006942" data-name="Grupo 1006942" transform="translate(11.912 104.528)">
          <path id="Trazado_717595" data-name="Trazado 717595" d="M360.437,274.843h18.546a.939.939,0,0,0,.937-.937h0a.939.939,0,0,0-.937-.937H360.437a.939.939,0,0,0-.937.937h0A.937.937,0,0,0,360.437,274.843Z" transform="translate(-359.5 -272.97)" fill="#f5f5f5"/>
          <path id="Trazado_717596" data-name="Trazado 717596" d="M360.437,285.053h18.546a.939.939,0,0,0,.937-.937h0a.939.939,0,0,0-.937-.937H360.437a.939.939,0,0,0-.937.937h0A.937.937,0,0,0,360.437,285.053Z" transform="translate(-359.5 -279.004)" fill="#f5f5f5"/>
          <path id="Trazado_717597" data-name="Trazado 717597" d="M360.437,295.263h18.546a.939.939,0,0,0,.937-.937h0a.939.939,0,0,0-.937-.937H360.437a.939.939,0,0,0-.937.937h0A.937.937,0,0,0,360.437,295.263Z" transform="translate(-359.5 -285.037)" fill="#f5f5f5"/>
        </g>
        <path id="Trazado_717598" data-name="Trazado 717598" d="M10.561,31.027a6.105,6.105,0,1,1,11.367,3.084h0l-.016.025c-.233.393-.528.675-.822,1.092l-3.546,4.7a1.1,1.1,0,0,1-1.759,0L12.3,35.305a13.643,13.643,0,0,1-.888-1.174l-.012-.016h0a6.082,6.082,0,0,1-.843-3.084Zm6.107,2.659A2.687,2.687,0,1,0,13.98,31,2.687,2.687,0,0,0,16.668,33.686Z" transform="translate(152.293 -21.856)" fill="#ebebeb"/>
        <g id="Grupo_1006952" data-name="Grupo 1006952" transform="translate(118.516 143.894)">
          <g id="Grupo_1006943" data-name="Grupo 1006943" transform="translate(0.269)">
            <path id="Trazado_717599" data-name="Trazado 717599" d="M81.285,369.746s4.671,3.559.2,8.263a.406.406,0,0,1-.295.127L40.36,377.9a7.12,7.12,0,0,1-.593-8.418Z" transform="translate(-38.619 -369.37)" fill="#005b8b"/>
            <path id="Trazado_717600" data-name="Trazado 717600" d="M66.32,379.092c0,.045,5.084.082,11.355.082s11.355-.037,11.355-.082-5.084-.082-11.355-.082S66.32,379.047,66.32,379.092Z" transform="translate(-55.56 -375.001)" fill="#e0e0e0"/>
            <path id="Trazado_717601" data-name="Trazado 717601" d="M80.21,382.7c0,.045,2.389.082,5.338.082s5.338-.037,5.338-.082-2.389-.082-5.338-.082S80.21,382.657,80.21,382.7Z" transform="translate(-63.097 -377.135)" fill="#e0e0e0"/>
            <path id="Trazado_717602" data-name="Trazado 717602" d="M132.46,377.6c.029-.008-.09-.47-.217-1.223a16.914,16.914,0,0,1,.053-5.952c.139-.753.266-1.215.241-1.219a1.328,1.328,0,0,0-.119.315,8.548,8.548,0,0,0-.233.884,14.429,14.429,0,0,0-.057,6c.078.376.155.683.217.888a1.086,1.086,0,0,0,.115.315Z" transform="translate(-125.872 -369.21)" fill="#e0e0e0"/>
            <path id="Trazado_717603" data-name="Trazado 717603" d="M140.6,369.35a2.5,2.5,0,0,0-.18.3,3.362,3.362,0,0,0-.18.364c-.065.147-.143.311-.209.5a8.677,8.677,0,0,0-.389,1.354,10.083,10.083,0,0,0-.176,1.718,9.812,9.812,0,0,0,.151,1.722,8.494,8.494,0,0,0,.368,1.362c.061.192.139.356.2.5a4,4,0,0,0,.176.368,1.6,1.6,0,0,0,.176.3c.029-.012-.2-.454-.442-1.207a9.927,9.927,0,0,1-.327-1.35,10.846,10.846,0,0,1-.135-1.693,10.661,10.661,0,0,1,.164-1.689,10.442,10.442,0,0,1,.348-1.346c.254-.749.491-1.186.462-1.2Z" transform="translate(-137.057 -369.293)" fill="#e0e0e0"/>
            <path id="Trazado_717604" data-name="Trazado 717604" d="M56.878,378.316a2.154,2.154,0,0,0,.188-.274,3.349,3.349,0,0,0,.192-.34,4.733,4.733,0,0,0,.217-.47,7,7,0,0,0,.4-1.288,8.246,8.246,0,0,0,.16-1.644,8.37,8.37,0,0,0-.2-1.64,7.015,7.015,0,0,0-.434-1.276,4.429,4.429,0,0,0-.229-.462,3.147,3.147,0,0,0-.2-.335,1.211,1.211,0,0,0-.2-.266c-.029.016.233.413.519,1.113a7.62,7.62,0,0,1,.393,1.264,8.462,8.462,0,0,1,.184,1.608,8.622,8.622,0,0,1-.143,1.612,8.134,8.134,0,0,1-.356,1.276c-.266.708-.519,1.108-.491,1.125Z" transform="translate(-20.655 -369.865)" fill="#e0e0e0"/>
            <path id="Trazado_717605" data-name="Trazado 717605" d="M45.482,379.21a3.247,3.247,0,0,0,.209-.311,3.442,3.442,0,0,0,.213-.384,5.441,5.441,0,0,0,.245-.528,8.647,8.647,0,0,0,.466-1.44,9.14,9.14,0,0,0,.082-3.69,8.133,8.133,0,0,0-.4-1.46c-.07-.2-.155-.38-.225-.536a3.174,3.174,0,0,0-.2-.393,1.735,1.735,0,0,0-.2-.319c-.029.016.233.479.507,1.288a9.67,9.67,0,0,1,.364,1.448,10.244,10.244,0,0,1,.131,1.82,10.537,10.537,0,0,1-.213,1.812,9.953,9.953,0,0,1-.425,1.432c-.311.794-.589,1.248-.56,1.264Z" transform="translate(-4.849 -369.765)" fill="#e0e0e0"/>
          </g>
          <g id="Grupo_1006945" data-name="Grupo 1006945" transform="translate(2.803 20.133)">
            <g id="Grupo_1006944" data-name="Grupo 1006944">
              <path id="Trazado_717606" data-name="Trazado 717606" d="M103.27,420.45v7.813h15.118V420.45Z" transform="translate(-102.566 -419.624)" fill="#112e4c"/>
              <path id="Trazado_717607" data-name="Trazado 717607" d="M70.39,423.236c0,.07,0,.139-.008.209a4.477,4.477,0,0,1-4.5,4.193H20.862v-.564H31.551a3.909,3.909,0,0,0,3.906-3.906h0a3.909,3.909,0,0,0-3.906-3.906H20.862v-.83l45.036.151a4.5,4.5,0,0,1,4.491,4.655Z" transform="translate(-20.862 -418.43)" fill="#112e4c"/>
              <path id="Trazado_717608" data-name="Trazado 717608" d="M106.29,430.132c0,.045,3.109.082,6.942.082s6.942-.037,6.942-.082-3.109-.082-6.942-.082S106.29,430.087,106.29,430.132Z" transform="translate(-105.586 -425.297)" fill="#112e4c"/>
              <path id="Trazado_717609" data-name="Trazado 717609" d="M107.58,434.442c0,.045,2.941.082,6.569.082s6.569-.037,6.569-.082-2.941-.082-6.569-.082S107.58,434.4,107.58,434.442Z" transform="translate(-106.66 -427.844)" fill="#112e4c"/>
              <path id="Trazado_717610" data-name="Trazado 717610" d="M111.35,438.372c0,.045,2.642.082,5.907.082s5.907-.037,5.907-.082-2.642-.082-5.907-.082S111.35,438.327,111.35,438.372Z" transform="translate(-110.646 -430.166)" fill="#112e4c"/>
              <path id="Trazado_717611" data-name="Trazado 717611" d="M106.99,426.272c0,.045,3.043.082,6.8.082s6.8-.037,6.8-.082-3.043-.082-6.8-.082S106.99,426.227,106.99,426.272Z" transform="translate(-106.286 -423.016)" fill="#112e4c"/>
              <path id="Trazado_717612" data-name="Trazado 717612" d="M110.1,422.4c0,.045,2.712.082,6.054.082s6.054-.037,6.054-.082-2.708-.082-6.054-.082S110.1,422.357,110.1,422.4Z" transform="translate(-109.18 -420.729)" fill="#112e4c"/>
            </g>
            <path id="Trazado_717613" data-name="Trazado 717613" d="M29.052,419.1a9.529,9.529,0,0,1,.957,1.137,5.787,5.787,0,0,1-.078,6.692,9.824,9.824,0,0,1-.982,1.113,1.615,1.615,0,0,0,.323-.241,5.182,5.182,0,0,0,.753-.806,5.7,5.7,0,0,0,.082-6.831,5.1,5.1,0,0,0-.732-.822,1.627,1.627,0,0,0-.319-.245Z" transform="translate(15.018 -418.825)" fill="#f5f5f5"/>
            <path id="Trazado_717614" data-name="Trazado 717614" d="M25.332,418.693a9.537,9.537,0,0,1,.957,1.137,5.787,5.787,0,0,1-.078,6.692,9.823,9.823,0,0,1-.982,1.113,1.614,1.614,0,0,0,.323-.241,5.182,5.182,0,0,0,.753-.806,5.7,5.7,0,0,0,.082-6.831,5.1,5.1,0,0,0-.732-.822,1.622,1.622,0,0,0-.319-.245Z" transform="translate(20.26 -418.583)" fill="#f5f5f5"/>
            <path id="Trazado_717615" data-name="Trazado 717615" d="M100.122,419.1a9.527,9.527,0,0,1,.957,1.137,5.787,5.787,0,0,1-.078,6.692,9.825,9.825,0,0,1-.982,1.113,1.615,1.615,0,0,0,.323-.241A5.182,5.182,0,0,0,101.1,427a5.7,5.7,0,0,0,.082-6.831,5.1,5.1,0,0,0-.732-.822,1.627,1.627,0,0,0-.319-.245Z" transform="translate(-85.123 -418.825)" fill="#f5f5f5"/>
            <path id="Trazado_717616" data-name="Trazado 717616" d="M96.392,418.693a9.536,9.536,0,0,1,.957,1.137,5.787,5.787,0,0,1-.078,6.692,9.823,9.823,0,0,1-.982,1.113,1.614,1.614,0,0,0,.323-.241,5.181,5.181,0,0,0,.753-.806,5.7,5.7,0,0,0,.082-6.831,5.1,5.1,0,0,0-.732-.822,1.622,1.622,0,0,0-.319-.245Z" transform="translate(-79.867 -418.583)" fill="#f5f5f5"/>
            <path id="Trazado_717617" data-name="Trazado 717617" d="M40.969,426.284c.012-1.059.029-2.119.041-3.178a2.2,2.2,0,0,1,.11-.818.761.761,0,0,1,.6-.507,1.21,1.21,0,0,1,1.3.614,3.018,3.018,0,0,1,.311,1.559,22.4,22.4,0,0,1-.123,2.512,2.914,2.914,0,0,1-.295,1.149,1.072,1.072,0,0,1-.969.581,1.091,1.091,0,0,1-.851-.736,3.213,3.213,0,0,1-.131-1.17Z" transform="translate(-2.019 -420.382)" fill="#f5f5f5"/>
            <path id="Trazado_717618" data-name="Trazado 717618" d="M53.94,430.512c0,.045,3.256.082,7.269.082s7.269-.037,7.269-.082-3.256-.082-7.269-.082S53.94,430.467,53.94,430.512Z" transform="translate(-32.477 -425.521)" fill="#f5f5f5"/>
          </g>
          <g id="Grupo_1006950" data-name="Grupo 1006950" transform="translate(0 12.394)">
            <g id="Grupo_1006948" data-name="Grupo 1006948">
              <g id="Grupo_1006946" data-name="Grupo 1006946" transform="translate(40.681 0.299)">
                <path id="Trazado_717619" data-name="Trazado 717619" d="M43.246,407.648l.082-7.408H39.3l-.139,7.408Z" transform="translate(-39.16 -400.24)" fill="#f5f5f5"/>
                <path id="Trazado_717620" data-name="Trazado 717620" d="M39.27,403.352a10.814,10.814,0,0,0,1.873.082,10.814,10.814,0,0,0,1.873-.082,10.814,10.814,0,0,0-1.873-.082A10.814,10.814,0,0,0,39.27,403.352Z" transform="translate(-38.894 -402.031)" fill="#e0e0e0"/>
                <path id="Trazado_717621" data-name="Trazado 717621" d="M39.27,406.142a10.814,10.814,0,0,0,1.873.082,10.814,10.814,0,0,0,1.873-.082,10.814,10.814,0,0,0-1.873-.082A10.814,10.814,0,0,0,39.27,406.142Z" transform="translate(-38.894 -403.679)" fill="#e0e0e0"/>
                <path id="Trazado_717622" data-name="Trazado 717622" d="M39.27,408.932a10.814,10.814,0,0,0,1.873.082,10.814,10.814,0,0,0,1.873-.082,10.814,10.814,0,0,0-1.873-.082A10.814,10.814,0,0,0,39.27,408.932Z" transform="translate(-38.894 -405.328)" fill="#e0e0e0"/>
                <path id="Trazado_717623" data-name="Trazado 717623" d="M39.27,411.732a10.829,10.829,0,0,0,1.873.082,10.826,10.826,0,0,0,1.873-.082,10.814,10.814,0,0,0-1.873-.082A10.814,10.814,0,0,0,39.27,411.732Z" transform="translate(-38.894 -406.983)" fill="#e0e0e0"/>
                <path id="Trazado_717624" data-name="Trazado 717624" d="M39.27,414.522a10.814,10.814,0,0,0,1.873.082,10.814,10.814,0,0,0,1.873-.082,10.818,10.818,0,0,0-1.873-.082A10.818,10.818,0,0,0,39.27,414.522Z" transform="translate(-38.894 -408.632)" fill="#e0e0e0"/>
              </g>
              <path id="Trazado_717625" data-name="Trazado 717625" d="M83.7,399.77H39.026a20.969,20.969,0,0,0,0,8.005H83.513v-.544h-2.72a1.287,1.287,0,0,1-1.284-1.284v-4.43a1.284,1.284,0,0,1,1.284-1.284H83.7Z" transform="translate(-38.64 -399.664)" fill="#005b8b"/>
              <g id="Grupo_1006947" data-name="Grupo 1006947" transform="translate(21.996 2.557)">
                <path id="Trazado_717626" data-name="Trazado 717626" d="M62.924,407.314h.744a.2.2,0,0,1,.082.02.155.155,0,0,1,.082.139.183.183,0,0,1,0,.049c-.016.061-.033.127-.049.192a2.079,2.079,0,0,1-.466.843.871.871,0,0,1-.634.327.668.668,0,0,1-.09,0,.723.723,0,0,1-.507-.368,1.681,1.681,0,0,1-.221-.9,2.29,2.29,0,0,1,.09-.638,2.131,2.131,0,0,1,.442-.863.9.9,0,0,1,.671-.356.621.621,0,0,1,.282.065.907.907,0,0,1,.434.544.16.16,0,0,1,.016.074.2.2,0,0,1-.02.082.155.155,0,0,1-.139.082.1.1,0,0,1-.049-.008.144.144,0,0,1-.1-.1l-.008-.012a.791.791,0,0,0-.09-.176.423.423,0,0,0-.356-.213.4.4,0,0,0-.245.09,1.313,1.313,0,0,0-.4.585,2.178,2.178,0,0,0-.176.843,1.484,1.484,0,0,0,.127.663.429.429,0,0,0,.389.29.533.533,0,0,0,.36-.217,2.032,2.032,0,0,0,.384-.691c-.344,0-.524,0-.536-.008-.115-.02-.176-.078-.18-.18a.116.116,0,0,1,.016-.053.167.167,0,0,1,.168-.09Z" transform="translate(-61.86 -405.76)" fill="#fafafa"/>
                <path id="Trazado_717627" data-name="Trazado 717627" d="M68.355,405.888l.02.053c.033.11.209,1.031.528,2.769a.121.121,0,0,1,.008.041.186.186,0,0,1-.02.082.153.153,0,0,1-.135.082h-.025a.144.144,0,0,1-.123-.11l-.176-.92h-.916l-.442.924a.112.112,0,0,1-.016.029.176.176,0,0,1-.139.078.151.151,0,0,1-.086-.025.154.154,0,0,1-.074-.135.1.1,0,0,1,.008-.049c.029-.065.074-.164.135-.3q.963-2.1,1.153-2.483a.168.168,0,0,1,.155-.11.163.163,0,0,1,.147.082Zm-.2.618-.495,1.043h.7Z" transform="translate(-64.756 -405.79)" fill="#fafafa"/>
                <path id="Trazado_717628" data-name="Trazado 717628" d="M74.569,408.915H73.224a.151.151,0,0,1-.086-.025.258.258,0,0,1-.078-.168h0c0-.057.123-.973.372-2.757a.13.13,0,0,1,.008-.057.148.148,0,0,1,.143-.1.2.2,0,0,1,.074.016.149.149,0,0,1,.086.143c-.012.123-.041.372-.09.757-.155,1.178-.233,1.8-.241,1.865h1.145a.189.189,0,0,1,.086.016.15.15,0,0,1,.1.151.121.121,0,0,1-.008.053.188.188,0,0,1-.168.11Z" transform="translate(-68.479 -405.79)" fill="#fafafa"/>
                <path id="Trazado_717629" data-name="Trazado 717629" d="M78.945,405.888l.02.053c.033.11.209,1.031.528,2.769a.121.121,0,0,1,.008.041.186.186,0,0,1-.02.082.153.153,0,0,1-.135.082h-.025a.144.144,0,0,1-.123-.11l-.176-.92h-.916l-.442.924a.112.112,0,0,1-.016.029.176.176,0,0,1-.139.078.151.151,0,0,1-.086-.025.154.154,0,0,1-.074-.135.1.1,0,0,1,.008-.049c.029-.065.074-.164.135-.3q.963-2.1,1.153-2.483a.168.168,0,0,1,.155-.11.163.163,0,0,1,.147.082Zm-.2.618-.495,1.043h.7Z" transform="translate(-71.014 -405.79)" fill="#fafafa"/>
                <path id="Trazado_717630" data-name="Trazado 717630" d="M84.633,407.491c.106.29.188.515.241.675.139.385.209.585.209.609a.148.148,0,0,1-.025.082.154.154,0,0,1-.135.074c-.061,0-.1-.037-.135-.106-.008-.029-.02-.053-.025-.07-.074-.168-.192-.483-.36-.949l-.761,1.043a.2.2,0,0,1-.143.086.186.186,0,0,1-.082-.02.153.153,0,0,1-.078-.135v-.033c0-.025.029-.066.082-.131q.38-.5.847-1.178c-.033-.09-.061-.176-.094-.254q-.43-1.154-.429-1.19a.186.186,0,0,1,.02-.082.143.143,0,0,1,.131-.082.165.165,0,0,1,.151.09l.45,1.211.9-1.223a.189.189,0,0,1,.143-.078.16.16,0,0,1,.074.016.149.149,0,0,1,.078.143.161.161,0,0,1-.016.074l-1.043,1.432Z" transform="translate(-74.554 -405.801)" fill="#fafafa"/>
                <path id="Trazado_717631" data-name="Trazado 717631" d="M91.3,405.818a.159.159,0,0,1,.074.016.157.157,0,0,1,.086.139q-.331,2.614-.364,2.822a1.709,1.709,0,0,1-.29.736,1.043,1.043,0,0,1-.9.438,1.023,1.023,0,0,1-.429-.115.948.948,0,0,1-.474-.417.166.166,0,0,1-.016-.078.2.2,0,0,1,.02-.082.154.154,0,0,1,.262-.016.861.861,0,0,0,.691.393.678.678,0,0,0,.536-.27,1.494,1.494,0,0,0,.3-.847.747.747,0,0,1-.2.209.8.8,0,0,1-.483.16.658.658,0,0,1-.09,0,.718.718,0,0,1-.511-.368,1.645,1.645,0,0,1-.225-.9c0-.164.008-.331.02-.507.025-.274.086-.659.184-1.162a.145.145,0,0,1,.012-.045.15.15,0,0,1,.143-.11.168.168,0,0,1,.078.02.141.141,0,0,1,.082.127,5.934,5.934,0,0,1-.074.614,8.788,8.788,0,0,0-.106.937,1.943,1.943,0,0,0,.119.732c.094.221.225.327.4.327a.121.121,0,0,0,.053-.008.734.734,0,0,0,.4-.323,1.934,1.934,0,0,0,.331-.74l.2-1.534a.151.151,0,0,1,.02-.07.147.147,0,0,1,.139-.086Z" transform="translate(-77.893 -405.79)" fill="#fafafa"/>
              </g>
              <path id="Trazado_717632" data-name="Trazado 717632" d="M143.642,407.724c.045,0,.082-1.837.082-4.107s-.037-4.107-.082-4.107-.082,1.837-.082,4.107S143.6,407.724,143.642,407.724Z" transform="translate(-141.579 -399.51)" fill="#f5f5f5"/>
              <path id="Trazado_717633" data-name="Trazado 717633" d="M54.262,407.724c.045,0,.082-1.837.082-4.107s-.037-4.107-.082-4.107-.082,1.837-.082,4.107S54.217,407.724,54.262,407.724Z" transform="translate(-15.639 -399.51)" fill="#e0e0e0"/>
              <path id="Trazado_717634" data-name="Trazado 717634" d="M145.552,407.724c.045,0,.082-1.837.082-4.107s-.037-4.107-.082-4.107-.082,1.837-.082,4.107S145.507,407.724,145.552,407.724Z" transform="translate(-144.27 -399.51)" fill="#f5f5f5"/>
              <path id="Trazado_717635" data-name="Trazado 717635" d="M52.472,407.724c.045,0,.082-1.837.082-4.107s-.037-4.107-.082-4.107-.082,1.837-.082,4.107S52.427,407.724,52.472,407.724Z" transform="translate(-13.116 -399.51)" fill="#e0e0e0"/>
            </g>
            <g id="Grupo_1006949" data-name="Grupo 1006949" transform="translate(5.703 1.1)">
              <path id="Trazado_717636" data-name="Trazado 717636" d="M109.963,402.8l.008-.012c-1.219.986-2.88,2.323-4.72,3.808l-.041.033.053.012c.2.053.413.11.63.164,1.436.376,2.794.732,3.988,1.047h.016c1.481-.63,2.732-1.158,3.612-1.534l1.023-.438c.115-.049.2-.09.27-.119.029-.012.053-.025.07-.033l.025-.012a.063.063,0,0,0-.025.008c-.016.008-.041.016-.07.029-.065.025-.155.061-.274.11-.241.1-.589.245-1.027.425-.884.368-2.135.892-3.62,1.513h.016c-1.194-.315-2.552-.675-3.984-1.051-.217-.057-.429-.115-.63-.164l.008.049c1.841-1.493,3.493-2.835,4.712-3.82h.008v-.012" transform="translate(-102.768 -402.549)" fill="#e0e0e0"/>
              <path id="Trazado_717637" data-name="Trazado 717637" d="M127.54,410.65l-.254.241-.348-.074.151.319-.18.3.352-.041.237.262.065-.348.323-.143-.311-.168Z" transform="translate(-124.636 -407.194)" fill="#e0e0e0"/>
              <path id="Trazado_717638" data-name="Trazado 717638" d="M116.628,414.32l-.176.147-.221-.065.086.213-.127.192.229-.016.139.18.057-.221.213-.082-.192-.119Z" transform="translate(-109.191 -409.362)" fill="#e0e0e0"/>
              <path id="Trazado_717639" data-name="Trazado 717639" d="M105.239,409l-.282.016-.172-.221-.07.274-.266.094.237.151.012.282.217-.18.27.078-.1-.262Z" transform="translate(-92.8 -406.1)" fill="#e0e0e0"/>
              <path id="Trazado_717640" data-name="Trazado 717640" d="M133.719,402.67l-.282.021-.172-.221-.07.27-.266.1.237.151.012.278.217-.18.27.078-.1-.262Z" transform="translate(-132.93 -402.36)" fill="#e0e0e0"/>
              <path id="Trazado_717641" data-name="Trazado 717641" d="M117.213,402.327l-.18.012-.11-.139-.045.172-.168.061.151.1,0,.176.139-.11.172.049-.065-.168Z" transform="translate(-109.789 -402.2)" fill="#e0e0e0"/>
              <path id="Trazado_717642" data-name="Trazado 717642" d="M117.22,403.01s1.53-.033,3.411-.115,3.411-.16,3.407-.18-1.53.033-3.411.115S117.22,402.99,117.22,403.01Z" transform="translate(-116.823 -402.503)" fill="#e0e0e0"/>
            </g>
          </g>
          <g id="Grupo_1006951" data-name="Grupo 1006951" transform="translate(3.959 8.66)">
            <path id="Trazado_717643" data-name="Trazado 717643" d="M26.506,394.151H71.82a3.8,3.8,0,0,0,0-3.771H26.51a4.375,4.375,0,0,0,0,3.771Z" transform="translate(-26.084 -390.38)" fill="#112e4c"/>
            <rect id="Rectángulo_347176" data-name="Rectángulo 347176" width="24.547" height="1.374" transform="translate(11.806 1.076)" fill="#ebebeb"/>
            <path id="Trazado_717644" data-name="Trazado 717644" d="M29.656,394.313a1.756,1.756,0,0,0,.356-.454,3.267,3.267,0,0,0,.413-1.338,3.323,3.323,0,0,0-.172-1.391,1.273,1.273,0,0,0-.274-.511,4.415,4.415,0,0,0,.16.548,3.783,3.783,0,0,1,.119,1.342,4.016,4.016,0,0,1-.352,1.3,4.076,4.076,0,0,0-.254.511Z" transform="translate(14.343 -390.521)" fill="#e0e0e0"/>
            <path id="Trazado_717645" data-name="Trazado 717645" d="M32.056,394.313a1.756,1.756,0,0,0,.356-.454,3.267,3.267,0,0,0,.413-1.338,3.323,3.323,0,0,0-.172-1.391,1.273,1.273,0,0,0-.274-.511,4.413,4.413,0,0,0,.16.548,3.783,3.783,0,0,1,.119,1.342,4.016,4.016,0,0,1-.352,1.3,4.078,4.078,0,0,0-.254.511Z" transform="translate(10.961 -390.521)" fill="#e0e0e0"/>
            <path id="Trazado_717646" data-name="Trazado 717646" d="M134.082,394.093a5.677,5.677,0,0,1-.02-3.694,3.846,3.846,0,0,0,.02,3.694Z" transform="translate(-131.827 -390.391)" fill="#f5f5f5"/>
            <path id="Trazado_717647" data-name="Trazado 717647" d="M131.81,394.2c.049-.012-.143-.806-.135-1.8s.192-1.8.139-1.8a4.435,4.435,0,0,0-.307,1.8,4.366,4.366,0,0,0,.3,1.808Z" transform="translate(-128.708 -390.504)" fill="#f5f5f5"/>
          </g>
        </g>
      </g>
      <g id="Plant" transform="translate(6.372 121.602)">
        <g id="Grupo_1006957" data-name="Grupo 1006957">
          <g id="Grupo_1006954" data-name="Grupo 1006954">
            <path id="Trazado_717648" data-name="Trazado 717648" d="M330.093,346.208s9.936-11.433,13.683-22.87,1.967-10.124,1.967-10.124-5.06,11.106-8.9,16.472-10.684,13.237-10.684,13.237l3.935,3.281Z" transform="translate(-306.568 -301.997)" fill="#455a64"/>
            <path id="Trazado_717649" data-name="Trazado 717649" d="M372.566,317.212a.578.578,0,0,1,1.076.368c-.605,4.017-1.914,13.441-1.865,19.556.065,7.94,0,11.012,0,11.012h-4.135s.732-16.415,1.669-21.422A34.36,34.36,0,0,1,372.566,317.212Z" transform="translate(-351.02 -304.212)" fill="#455a64"/>
            <path id="Trazado_717650" data-name="Trazado 717650" d="M383.251,344.764a43.838,43.838,0,0,1-3.4-12.345c-.339-2.925.266-6.872,1.17-12.145a32.913,32.913,0,0,0,.524-5.845.987.987,0,0,0-1.853-.462,26.288,26.288,0,0,0-2.311,5.841c-1,5.207-2.135,7.809-1.268,12.746s4.07,12.545,4.07,12.545l3.068-.335Z" transform="translate(-363.959 -302.165)" fill="#455a64"/>
            <path id="Trazado_717651" data-name="Trazado 717651" d="M400.476,335.959s-10.909-23.442-11.666-26.919-3.326-11.49-3.628-11.036-.757,4.688,1.211,9.527,10.357,29.145,10.357,29.145h3.726" transform="translate(-384.91 -293.024)" fill="#455a64"/>
            <path id="Trazado_717652" data-name="Trazado 717652" d="M326.457,344.324s.11-.065.307-.209.487-.352.847-.646a38.658,38.658,0,0,0,2.933-2.589,49.213,49.213,0,0,0,7.915-10.157,66.643,66.643,0,0,0,5.4-11.7c.548-1.558.949-2.831,1.207-3.718.135-.442.225-.789.29-1.023a2.552,2.552,0,0,0,.086-.36,2.271,2.271,0,0,0-.131.348c-.082.249-.192.585-.331,1.01-.286.875-.708,2.139-1.276,3.69a70.639,70.639,0,0,1-5.448,11.637,51.3,51.3,0,0,1-7.829,10.161c-1.166,1.162-2.168,2.045-2.871,2.634-.348.3-.634.519-.818.679a2.533,2.533,0,0,0-.278.245Z" transform="translate(-305.971 -302.441)" fill="#263238"/>
            <path id="Trazado_717653" data-name="Trazado 717653" d="M368.972,335.627s.049-.245.1-.687c.053-.487.119-1.117.2-1.878.172-1.587.442-3.771.826-6.177s.818-4.565,1.149-6.123c.16-.749.295-1.37.4-1.849a3.854,3.854,0,0,0,.123-.683,3.975,3.975,0,0,0-.209.663c-.123.429-.282,1.055-.47,1.832-.376,1.554-.83,3.714-1.219,6.123s-.63,4.606-.761,6.2c-.065.8-.11,1.44-.127,1.89a3.931,3.931,0,0,0-.008.7Z" transform="translate(-349.68 -304.988)" fill="#263238"/>
            <path id="Trazado_717654" data-name="Trazado 717654" d="M381.984,314.26a2.515,2.515,0,0,0-.127.3c-.082.221-.192.511-.327.871-.143.376-.311.843-.466,1.395s-.372,1.17-.532,1.878c-.086.352-.176.72-.27,1.1s-.155.789-.241,1.207c-.18.83-.286,1.734-.421,2.683a40.049,40.049,0,0,0,.442,12.394c.2.937.376,1.828.614,2.647.115.409.209.81.327,1.186s.237.736.348,1.08c.209.691.462,1.3.663,1.832s.4.994.569,1.358.29.63.389.847a1.376,1.376,0,0,0,.151.286,1.589,1.589,0,0,0-.106-.307c-.09-.217-.2-.5-.348-.863-.16-.372-.344-.826-.528-1.37s-.43-1.145-.63-1.837q-.16-.515-.331-1.08c-.115-.376-.2-.777-.311-1.186-.229-.814-.393-1.706-.589-2.638a41.36,41.36,0,0,1-.442-12.329c.127-.945.229-1.841.4-2.671.078-.417.139-.822.225-1.2s.172-.749.254-1.1c.147-.7.344-1.325.495-1.878s.3-1.023.429-1.4.213-.659.286-.884a1.9,1.9,0,0,0,.086-.315Z" transform="translate(-365.248 -302.642)" fill="#263238"/>
            <path id="Trazado_717655" data-name="Trazado 717655" d="M389.27,299.164a1.015,1.015,0,0,0,.008.106c.012.082.029.184.049.3.049.266.11.663.217,1.166.209,1.01.56,2.458,1.109,4.221s1.288,3.825,2.172,6.095,1.9,4.741,2.872,7.375,1.743,5.191,2.454,7.518,1.374,4.422,2.021,6.144a39.38,39.38,0,0,0,1.722,4.009c.225.466.425.81.552,1.047.061.106.11.2.151.27a.446.446,0,0,0,.057.086.536.536,0,0,0-.037-.1c-.037-.074-.078-.168-.131-.278-.115-.245-.3-.6-.515-1.068-.438-.929-1.031-2.295-1.648-4.025s-1.276-3.821-1.972-6.152-1.452-4.9-2.438-7.539c-.969-2.638-2-5.109-2.892-7.371s-1.653-4.315-2.213-6.066-.937-3.191-1.174-4.189c-.119-.5-.2-.892-.258-1.158-.029-.119-.053-.221-.07-.3a.37.37,0,0,0-.033-.1Z" transform="translate(-388.872 -293.719)" fill="#263238"/>
            <g id="Grupo_1006953" data-name="Grupo 1006953" transform="translate(16.861)">
              <path id="Trazado_717656" data-name="Trazado 717656" d="M353.029,286.129a.939.939,0,0,1,1.546.957,26.818,26.818,0,0,1-1.37,3.526c-1.5,3.186-5.907,14.619-7.968,20.9s-4.966,17.994-4.966,17.994l-4.4-.716s4.029-19.25,7.964-26.187c3.162-5.571,6.324-13.625,9.2-16.48Z" transform="translate(-335.856 -285.858)" fill="#455a64"/>
              <path id="Trazado_717657" data-name="Trazado 717657" d="M365.5,358.17s-.094.184-.225.528-.307.851-.507,1.477c-.4,1.256-.9,3.011-1.4,4.958s-.912,3.722-1.2,5.011c-.131.61-.241,1.121-.331,1.526a2.58,2.58,0,0,0-.09.569,2.944,2.944,0,0,0,.18-.544c.106-.4.241-.908.4-1.509.335-1.325.781-3.064,1.268-4.99.5-1.947.969-3.706,1.333-4.97.172-.6.319-1.1.438-1.5a2.443,2.443,0,0,0,.139-.556Z" transform="translate(-357.317 -328.591)" fill="#263238"/>
              <path id="Trazado_717658" data-name="Trazado 717658" d="M337.111,329.427a1.007,1.007,0,0,0,.025-.119c.012-.09.029-.2.049-.348.045-.3.086-.757.18-1.334.16-1.158.45-2.822.924-4.855a70.265,70.265,0,0,1,2.062-7.036c.9-2.61,2.037-5.428,3.321-8.345,2.589-5.829,5.178-11,6.88-14.82.859-1.906,1.526-3.465,1.963-4.549.225-.54.384-.965.495-1.252.049-.135.09-.241.123-.327a.5.5,0,0,0,.033-.115.6.6,0,0,0-.057.106c-.037.086-.086.188-.143.319-.131.3-.307.712-.536,1.235-.462,1.072-1.149,2.618-2.029,4.516-1.738,3.8-4.348,8.958-6.942,14.791-1.284,2.921-2.413,5.747-3.309,8.369a67.119,67.119,0,0,0-2.021,7.068,48.156,48.156,0,0,0-.851,4.88c-.078.581-.106,1.035-.139,1.342-.012.143-.02.258-.029.348a.434.434,0,0,0,0,.119Z" transform="translate(-334.909 -286.137)" fill="#263238"/>
              <path id="Trazado_717659" data-name="Trazado 717659" d="M369.945,364.091s.07-.262.147-.74c.086-.515.2-1.2.344-2.025.3-1.706.765-4.058,1.432-6.614s1.4-4.839,1.976-6.471c.282-.789.511-1.44.687-1.935a4.587,4.587,0,0,0,.233-.716,4.706,4.706,0,0,0-.319.683c-.188.446-.454,1.1-.761,1.91a63.909,63.909,0,0,0-2.045,6.471,67.587,67.587,0,0,0-1.37,6.643c-.127.859-.221,1.554-.27,2.037a4.431,4.431,0,0,0-.057.753Z" transform="translate(-369.935 -321.157)" fill="#263238"/>
            </g>
          </g>
          <g id="Grupo_1006956" data-name="Grupo 1006956" transform="translate(7.835 42.3)">
            <rect id="Rectángulo_347177" data-name="Rectángulo 347177" width="17.188" height="20.939" transform="translate(0)" fill="#ffa031"/>
            <g id="Grupo_1006955" data-name="Grupo 1006955" transform="translate(0)" opacity="0.3">
              <rect id="Rectángulo_347178" data-name="Rectángulo 347178" width="17.188" height="20.939"/>
            </g>
            <rect id="Rectángulo_347179" data-name="Rectángulo 347179" width="15.249" height="20.939" transform="translate(5.481)" fill="#ffa031"/>
          </g>
        </g>
      </g>
      <g id="Character" transform="translate(48.186 28.506)">
        <g id="Grupo_1006973" data-name="Grupo 1006973">
          <g id="Grupo_1006962" data-name="Grupo 1006962" transform="translate(0 56.156)">
            <g id="Grupo_1006958" data-name="Grupo 1006958">
              <path id="Trazado_717660" data-name="Trazado 717660" d="M123.513,224.484l-.013-.008C123.5,224.459,123.508,224.463,123.513,224.484Z" transform="translate(-39.884 -215.869)" fill="#003f60"/>
              <path id="Trazado_717661" data-name="Trazado 717661" d="M81.144,271.919c.14-3.044,4.711-44.028,5.4-49.29,1.1-8.4,7.861-10.511,7.861-10.511h0l22.976-7.929h22.735l24.638,8.607.013.42c0-.229,0-.369,0-.411.246.136,6.313,1.861,7.763,7.835.793,3.265,10.049,49.578,10.189,50.939s-1.09,9.663-7.619,10.748c-2.446.407-7.742.034-13.4-.6l4.422,22.709H94.7l2.523-16.226C91.545,286,85.6,283.528,84.6,282.5c-1.938-2.014-3.6-7.539-3.46-10.583Zm80.792-11.668Z" transform="translate(-81.136 -204.19)" fill="#f9a21b"/>
            </g>
            <g id="Grupo_1006959" data-name="Grupo 1006959" transform="translate(61.509 55.747)" opacity="0.3">
              <path id="Trazado_717662" data-name="Trazado 717662" d="M153.556,342.835a12.956,12.956,0,0,1,1.052-4.236,5.165,5.165,0,0,1,3.176-2.824,3.277,3.277,0,0,1,3.735,1.548c2.578,7.233.233,11.3-4.681,15.213a3.052,3.052,0,0,1-2.7.818c-.937-.284-1.128-.971-1.174-1.95a52.8,52.8,0,0,1,.585-8.569Z" transform="translate(-152.942 -335.67)" fill="#003f60"/>
            </g>
            <path id="Trazado_717663" data-name="Trazado 717663" d="M120.567,333.187s.165.038.466.076c.343.038.776.081,1.293.136,1.1.11,2.646.246,4.405.394l-.051-.017c.4.28.818.568,1.234.873a22.738,22.738,0,0,1,4.053,3.591,11.679,11.679,0,0,1,.962,1.331,3.38,3.38,0,0,0,.318.517,2.852,2.852,0,0,0-.242-.56,9.594,9.594,0,0,0-.916-1.387,20.7,20.7,0,0,0-4.045-3.672c-.42-.305-.84-.6-1.242-.873l-.025-.017h-.03c-1.76-.14-3.307-.25-4.41-.322-.522-.03-.954-.055-1.3-.072a2.222,2.222,0,0,0-.471,0Z" transform="translate(-48.378 -278.487)" fill="#003f60"/>
            <path id="Trazado_717664" data-name="Trazado 717664" d="M87.316,351.909a.8.8,0,0,0-.034.127c-.021.1-.047.22-.081.377-.059.335-.148.831-.225,1.475a48.19,48.19,0,0,0-.3,5.474c0,.581,0,1.187.013,1.819a2.669,2.669,0,0,0,.64,1.874,2.882,2.882,0,0,0,1.9.95c.712.123,1.45.25,2.2.382,3.01.53,6.313,1.166,9.8,1.73s6.831.962,9.883,1.23a51.633,51.633,0,0,0,8.124.314,11.484,11.484,0,0,0,1.645-.229,4.606,4.606,0,0,0,1.374-.564,10.632,10.632,0,0,0,1.844-1.48c.466-.454.806-.818,1.039-1.068.106-.119.2-.212.259-.288s.085-.1.085-.1a.635.635,0,0,0-.1.089c-.072.068-.161.161-.276.271-.242.242-.594.6-1.064,1.039a10.931,10.931,0,0,1-1.849,1.433,4.636,4.636,0,0,1-1.344.53,11.683,11.683,0,0,1-1.624.208,53,53,0,0,1-8.1-.36c-3.044-.28-6.381-.678-9.866-1.247s-6.784-1.191-9.8-1.713c-.755-.127-1.488-.254-2.2-.373a2.692,2.692,0,0,1-1.789-.878,2.5,2.5,0,0,1-.606-1.76c-.017-.632-.025-1.234-.03-1.815a52.559,52.559,0,0,1,.225-5.465c.064-.644.136-1.141.182-1.475.025-.157.042-.284.059-.382a.511.511,0,0,0,.013-.132Z" transform="translate(-26.24 -289.272)" fill="#003f60"/>
            <path id="Trazado_717665" data-name="Trazado 717665" d="M135.914,270.9c-.059,0,.483,6.038,1.213,13.466s1.374,13.453,1.433,13.445-.483-6.033-1.213-13.466S135.973,270.9,135.914,270.9Z" transform="translate(-60.197 -242.615)" fill="#003f60"/>
            <path id="Trazado_717666" data-name="Trazado 717666" d="M274.224,258.52a.925.925,0,0,0,0,.1v.3c.008.284.021.67.034,1.158.034,1,.1,2.455.2,4.248.191,3.587.53,8.535.954,14s.789,10.409,1.018,13.992c.11,1.776.2,3.222.267,4.244.034.488.059.873.076,1.153.009.119.017.22.025.3a.394.394,0,0,0,.017.1.368.368,0,0,0,0-.1v-.3c-.008-.284-.021-.67-.034-1.158-.034-1-.1-2.455-.2-4.248-.191-3.587-.53-8.535-.954-14s-.789-10.409-1.018-13.992c-.11-1.777-.2-3.222-.267-4.244-.034-.488-.059-.873-.076-1.153-.008-.119-.017-.22-.025-.3A.386.386,0,0,0,274.224,258.52Z" transform="translate(-257.087 -235.484)" fill="#003f60"/>
            <path id="Trazado_717667" data-name="Trazado 717667" d="M284.23,354.235a17.8,17.8,0,0,1,1.319-1.874,10.329,10.329,0,0,1,4.5-3.061,18.476,18.476,0,0,1,2.959-.691,6.915,6.915,0,0,1,2.455.081,6.8,6.8,0,0,1,1.565.577,4.154,4.154,0,0,0,.555.276c0-.008-.038-.042-.127-.1s-.212-.153-.386-.25a6.074,6.074,0,0,0-1.569-.649,6.773,6.773,0,0,0-2.514-.131,17.7,17.7,0,0,0-3.006.683,10.061,10.061,0,0,0-4.549,3.172,9.11,9.11,0,0,0-.941,1.408,2.643,2.643,0,0,0-.254.564Z" transform="translate(-282.102 -287.227)" fill="#003f60"/>
            <path id="Trazado_717668" data-name="Trazado 717668" d="M249.216,385.168a2.373,2.373,0,0,0,.246.127c.187.085.428.191.729.327.636.28,1.552.683,2.692,1.166A26.613,26.613,0,0,0,257,388.233a6.236,6.236,0,0,0,2.591.076,5.007,5.007,0,0,0,2.425-1.361,6.945,6.945,0,0,0,1.505-2.345,16.377,16.377,0,0,0,.8-2.455,36.361,36.361,0,0,0,.763-4.291c.148-1.23.233-2.23.293-2.921.025-.326.042-.589.059-.8a1.082,1.082,0,0,0,0-.28,1.223,1.223,0,0,0-.051.276c-.025.2-.059.466-.1.793-.085.687-.191,1.683-.36,2.909a39.3,39.3,0,0,1-.806,4.261,16.167,16.167,0,0,1-.8,2.421,6.737,6.737,0,0,1-1.454,2.268,4.827,4.827,0,0,1-2.319,1.31,6.042,6.042,0,0,1-2.5-.064,28.406,28.406,0,0,1-4.1-1.391c-1.128-.458-2.052-.831-2.718-1.1-.305-.119-.551-.216-.742-.288a1.089,1.089,0,0,0-.267-.085Z" transform="translate(-235.118 -301.921)" fill="#003f60"/>
            <g id="Grupo_1006960" data-name="Grupo 1006960" transform="translate(61.028 73.58)" opacity="0.3">
              <path id="Trazado_717669" data-name="Trazado 717669" d="M128.926,377.738c.632.882,1.98,1.064,3.049,1.247,5.669.962,10.791,1.883,16.519,2.5l.729,3.748a85.228,85.228,0,0,1-17.244-4.282,6.819,6.819,0,0,1-2.086-1.132,2.609,2.609,0,0,1-.967-2.09Z" transform="translate(-128.92 -377.73)" fill="#003f60"/>
            </g>
            <g id="Grupo_1006961" data-name="Grupo 1006961" transform="translate(20.335 73.182)" opacity="0.3">
              <path id="Trazado_717670" data-name="Trazado 717670" d="M262.124,376.79a21.4,21.4,0,0,1-2.62,8.862c-.352.606-.886,1.276-1.586,1.2a1.846,1.846,0,0,1-1.2-1.013,15.078,15.078,0,0,1-2.434-5.512l5.414-2.158Z" transform="translate(-254.28 -376.79)" fill="#003f60"/>
            </g>
            <path id="Trazado_717671" data-name="Trazado 717671" d="M182.74,375.289c-.038.047,4.079,3.282,9.2,7.221s9.294,7.093,9.332,7.047-4.079-3.282-9.2-7.221-9.294-7.093-9.328-7.047Z" transform="translate(-142.757 -302.744)" fill="#003f60"/>
            <path id="Trazado_717672" data-name="Trazado 717672" d="M266,357.64s-.034.25-.059.7a7.975,7.975,0,0,0,.008.831,10.091,10.091,0,0,0,.089,1.1,28.24,28.24,0,0,0,1.531,6.169,33.418,33.418,0,0,0,2.692,5.762,15.943,15.943,0,0,0,1.077,1.6,3.964,3.964,0,0,0,.458.538,4.018,4.018,0,0,0-.386-.589c-.254-.377-.611-.924-1.009-1.632a37.8,37.8,0,0,1-2.616-5.758,31.628,31.628,0,0,1-1.586-6.114c-.055-.4-.106-.763-.119-1.085s-.055-.6-.047-.823a4.371,4.371,0,0,0-.025-.7Z" transform="translate(-248.554 -292.578)" fill="#003f60"/>
          </g>
          <g id="Grupo_1006965" data-name="Grupo 1006965" transform="translate(49.124 97.9)">
            <path id="Trazado_717673" data-name="Trazado 717673" d="M150.47,311.9s6.292-10.053,11.232-8.077c0,0,2.51-2.056,4.117-.742s1.03,3.994,1.03,3.994,3.044-2.468,4.405-1.2.369,3.456,0,4.528a19.783,19.783,0,0,0-.577,3.333s1.853-.945,2.718.577-2.429,6.627-2.921,7.327-3.663,3.829-5.847,3.006a9.229,9.229,0,0,1-3.706-3.006Z" transform="translate(-150.47 -302.645)" fill="#ffbe9d"/>
            <path id="Trazado_717674" data-name="Trazado 717674" d="M163.4,313.983s-.212.114-.568.356c-.386.267-.895.615-1.505,1.035-.64.454-1.391.979-2.217,1.56a3.36,3.36,0,0,0-.6.534,1.317,1.317,0,0,0-.335.8,1.642,1.642,0,0,0,.958,1.459,2.766,2.766,0,0,0,1.751.182,5.957,5.957,0,0,0,1.522-.568c.912-.471,1.709-.933,2.366-1.34s1.174-.759,1.526-1.013a3.3,3.3,0,0,0,.53-.415,4.547,4.547,0,0,0-.577.343c-.365.229-.895.56-1.556.95s-1.467.835-2.374,1.289a5.8,5.8,0,0,1-1.471.538,2.579,2.579,0,0,1-1.611-.17,1.443,1.443,0,0,1-.844-1.255,1.689,1.689,0,0,1,.844-1.183c.814-.594,1.556-1.136,2.188-1.6.594-.445,1.085-.81,1.463-1.094a4.159,4.159,0,0,0,.522-.424Z" transform="translate(-147.019 -309.168)" fill="#eb996e"/>
            <path id="Trazado_717675" data-name="Trazado 717675" d="M177.285,308.06s-.068.038-.187.123c-.136.1-.305.233-.513.386-.445.335-1.085.827-1.9,1.4a13.186,13.186,0,0,1-3.04,1.675,7.438,7.438,0,0,1-1.988.441,4.28,4.28,0,0,1-2.12-.288,1.717,1.717,0,0,1-.759-.712,1.254,1.254,0,0,1-.085-.979,4.912,4.912,0,0,1,1.132-1.654,23.679,23.679,0,0,1,2.6-2.324c.784-.611,1.442-1.081,1.9-1.4l.526-.369c.119-.085.182-.131.178-.14a.806.806,0,0,0-.2.1c-.127.072-.314.187-.551.335-.471.3-1.145.75-1.946,1.348a21.465,21.465,0,0,0-2.654,2.307c-.225.246-.454.5-.666.776a3.154,3.154,0,0,0-.526.954,1.5,1.5,0,0,0,.1,1.145,1.931,1.931,0,0,0,.856.81,4.471,4.471,0,0,0,2.234.305,7.588,7.588,0,0,0,2.039-.466,12.56,12.56,0,0,0,3.061-1.738c.81-.589,1.433-1.1,1.866-1.459.2-.17.356-.309.488-.42.11-.1.165-.153.161-.161Z" transform="translate(-160.986 -303.551)" fill="#eb996e"/>
            <g id="Grupo_1006963" data-name="Grupo 1006963" transform="translate(14.892 11.075)">
              <path id="Trazado_717676" data-name="Trazado 717676" d="M159.951,328.78l-4.427,2.124c-.5.242-1.085.606-1.064,1.162a1.131,1.131,0,0,0,.322.683,3.605,3.605,0,0,0,2.943,1.064,10.748,10.748,0,0,0,3.116-.835" transform="translate(-154.356 -328.774)" fill="#ffbe9d"/>
              <path id="Trazado_717677" data-name="Trazado 717677" d="M160.945,332.97c-.013-.042-.733.263-1.938.568a5.468,5.468,0,0,1-2.141.119,3.58,3.58,0,0,1-1.183-.411,2.363,2.363,0,0,1-.937-.912.669.669,0,0,1,0-.589,1.247,1.247,0,0,1,.424-.458,9.947,9.947,0,0,1,1.128-.6c.729-.36,1.395-.687,1.972-.971.526-.267.967-.492,1.319-.674a2.343,2.343,0,0,0,.471-.276,2.534,2.534,0,0,0-.509.2q-.541.242-1.348.611c-.581.271-1.251.585-1.989.929a9.282,9.282,0,0,0-1.166.6,1.465,1.465,0,0,0-.5.543.9.9,0,0,0,0,.776,3.083,3.083,0,0,0,2.29,1.429,5.4,5.4,0,0,0,2.213-.17,11.525,11.525,0,0,0,1.4-.488,2.212,2.212,0,0,0,.492-.233Z" transform="translate(-154.459 -328.766)" fill="#eb996e"/>
            </g>
            <path id="Trazado_717678" data-name="Trazado 717678" d="M152.805,347.245l6.669,5.033a11.108,11.108,0,0,0,1.085-9.968h-1.607l.365,1.793-3.04.636-3.477,2.51Z" transform="translate(-139.216 -325.492)" fill="#ffbe9d"/>
            <g id="Grupo_1006964" data-name="Grupo 1006964" transform="translate(16.765 16.695)">
              <path id="Trazado_717679" data-name="Trazado 717679" d="M158.925,342.02q-1.227,1.6-2.451,3.193a5.111,5.111,0,0,1-.95,1.03,1.729,1.729,0,0,1-1.314.373" transform="translate(-154.206 -342.02)" fill="#ffbe9d"/>
              <path id="Trazado_717680" data-name="Trazado 717680" d="M154.209,346.617a1.288,1.288,0,0,0,1-.089,2.682,2.682,0,0,0,.882-.678c.28-.309.547-.674.835-1.043.577-.75,1.085-1.433,1.446-1.938a4.616,4.616,0,0,0,.547-.84,4.424,4.424,0,0,0-.67.746c-.394.479-.924,1.149-1.5,1.9-.288.373-.551.742-.814,1.043a2.768,2.768,0,0,1-.8.674,2.212,2.212,0,0,1-.937.233Z" transform="translate(-154.205 -342.025)" fill="#eb996e"/>
            </g>
          </g>
          <g id="Grupo_1006966" data-name="Grupo 1006966" transform="translate(14.791 106.355)">
            <path id="Trazado_717681" data-name="Trazado 717681" d="M212.24,331.542l-8.166-7.81a4.127,4.127,0,0,0-2.985-1.145l-41.9,1.225a.879.879,0,0,0-.5,1.586l11.766,8.641a1.139,1.139,0,0,0,.708.216l40.708-1.768a.55.55,0,0,0,.356-.946Z" transform="translate(-158.34 -322.585)" fill="#e0e0e0"/>
            <path id="Trazado_717682" data-name="Trazado 717682" d="M159.584,326.171s.051,0,.148.008h.432c.394,0,.95-.017,1.658-.025l6.1-.14c5.16-.14,12.262-.327,20.106-.539,3.926-.114,7.666-.225,11.071-.322l2.485-.076a9.858,9.858,0,0,1,1.174,0,3.018,3.018,0,0,1,1.06.339,4.094,4.094,0,0,1,.856.67c.267.246.53.492.789.729q.776.712,1.484,1.37l4.494,4.121c.526.475.937.848,1.23,1.111.136.119.242.212.322.284s.114.093.114.093a1.368,1.368,0,0,0-.1-.11c-.076-.076-.178-.174-.31-.3-.284-.271-.687-.653-1.2-1.141-1.06-1-2.574-2.417-4.443-4.172q-.706-.661-1.476-1.378l-.784-.733a4.233,4.233,0,0,0-.89-.7,3.1,3.1,0,0,0-1.124-.369,8.777,8.777,0,0,0-1.2,0c-.806.021-1.637.042-2.485.068-3.4.093-7.144.2-11.071.305-7.844.237-14.95.449-20.106.6-2.561.089-4.643.157-6.093.208l-1.658.068c-.178.009-.322.017-.432.021a.824.824,0,0,0-.148.017Z" transform="translate(-159.566 -323.896)" fill="#263238"/>
          </g>
          <g id="Grupo_1006967" data-name="Grupo 1006967" transform="translate(6.507 73.328)">
            <path id="Trazado_717683" data-name="Trazado 717683" d="M282.939,275.984c-.055.03,2.035,4.062,4.66,9s4.8,8.929,4.859,8.9-2.035-4.058-4.664-9.006-4.8-8.929-4.855-8.9Z" transform="translate(-282.938 -262.713)" fill="#fff"/>
            <path id="Trazado_717684" data-name="Trazado 717684" d="M259.866,274.024c-.059.013.78,3.617,1.87,8.043s2.027,8.009,2.086,7.992-.78-3.617-1.87-8.047-2.027-8.005-2.086-7.992Z" transform="translate(-244.521 -261.584)" fill="#fff"/>
            <path id="Trazado_717685" data-name="Trazado 717685" d="M129.282,289.57c-.047-.038-2.608,2.815-5.724,6.381s-5.605,6.487-5.559,6.525,2.608-2.815,5.728-6.381,5.605-6.487,5.559-6.525Z" transform="translate(-49.832 -270.541)" fill="#fff"/>
            <path id="Trazado_717686" data-name="Trazado 717686" d="M147.643,256.13c-.059-.017-1.4,4.41-2.993,9.883s-2.841,9.93-2.781,9.947,1.4-4.41,2.993-9.883S147.7,256.147,147.643,256.13Z" transform="translate(-78.31 -251.279)" fill="#fff"/>
            <path id="Trazado_717687" data-name="Trazado 717687" d="M238.874,244.69s-.013.1-.021.3c0,.22-.008.5-.013.861v3.167c.017,2.7.042,6.377.072,10.447.055,4.07.1,7.751.136,10.447.03,1.319.051,2.391.068,3.167.013.356.021.64.03.861a1.427,1.427,0,0,0,.025.3,1.639,1.639,0,0,0,.021-.3c0-.22.008-.5.013-.861v-3.167c-.017-2.7-.042-6.381-.072-10.447-.055-4.07-.1-7.751-.136-10.447-.03-1.319-.051-2.391-.068-3.167-.013-.356-.021-.64-.03-.861A1.428,1.428,0,0,0,238.874,244.69Z" transform="translate(-210.987 -244.69)" fill="#fff"/>
          </g>
          <g id="Grupo_1006971" data-name="Grupo 1006971" transform="translate(17.655)">
            <g id="Grupo_1006970" data-name="Grupo 1006970">
              <path id="Trazado_717688" data-name="Trazado 717688" d="M149.689,93.282c1.582-1.7,3.5-3.294,4.053-5.546.509-2.069-.22-4.443.873-6.271,1.348-2.251,4.711-2.438,6.33-4.5.784-1,1.06-2.323,1.836-3.328,1.323-1.713,3.782-2.1,5.923-1.8s4.189,1.141,6.343,1.361c2.955.3,6.038-.564,8.853.377,3.108,1.039,4.935,3.88,6.886,6.631l2.557,3.2a11.811,11.811,0,0,0,1.726,1.5,20.9,20.9,0,0,1,3.29,2.256,5.246,5.246,0,0,1-.589,7.539,5.6,5.6,0,0,1,3.6,5.618,16.015,16.015,0,0,1-1.141,3.769,5.624,5.624,0,0,0-.233,3.858,2.458,2.458,0,0,0,3.167,1.492,5.891,5.891,0,0,1-3.341,3.82,3.528,3.528,0,0,0,2.336,1.132c-2.586,5.559-9.218,8.306-15.349,8.132s-11.919-2.692-17.524-5.173L152.924,112.5c-1.437-.382-1.98-2.162-1.912-3.646s.5-3.019.017-4.427c-.661-1.929-2.841-3.015-3.54-4.931-.793-2.179.606-4.528,2.188-6.224Z" transform="translate(-147.26 -71.745)" fill="#263238"/>
              <g id="Grupo_1006969" data-name="Grupo 1006969" transform="translate(8.575 1.863)">
                <g id="Grupo_1006968" data-name="Grupo 1006968" transform="translate(0 1.321)">
                  <path id="Trazado_717689" data-name="Trazado 717689" d="M175.722,124.21a67.7,67.7,0,0,0,3.294-11.266,23.784,23.784,0,0,0-.585-11.617c-.191-.564-1.844-4.35-2.434-4.308-.424.03.56,3.545.335,3.9a20.173,20.173,0,0,0-2.616,11.677,53.013,53.013,0,0,0,2.005,11.609" transform="translate(-143.339 -89.487)" fill="#263238"/>
                  <path id="Trazado_717690" data-name="Trazado 717690" d="M198.325,81.911l.907-.021c9.82.339,15.018,8.87,14.407,18.677l-.28,33.818a11.5,11.5,0,0,1-10.994,11.4h0a11.5,11.5,0,0,1-12-11.164c-.051-1.777-.093-3.019-.1-3.019s-9.464-1.242-9.8-10.663c-.165-4.554.259-13.954.742-22.455A17.563,17.563,0,0,1,198.325,81.92Z" transform="translate(-180.426 -80.773)" fill="#ffbe9d"/>
                  <path id="Trazado_717691" data-name="Trazado 717691" d="M206.93,193.792a22.763,22.763,0,0,0,12.186-3.922s-2.68,7.013-12.1,6.39l-.081-2.468Z" transform="translate(-197.091 -142.97)" fill="#eb996e"/>
                  <path id="Trazado_717692" data-name="Trazado 717692" d="M240.91,139.836a1.346,1.346,0,0,0,1.331,1.327,1.286,1.286,0,0,0,1.357-1.247,1.343,1.343,0,0,0-1.327-1.327,1.29,1.29,0,0,0-1.361,1.247Z" transform="translate(-235.981 -113.431)" fill="#263238"/>
                  <path id="Trazado_717693" data-name="Trazado 717693" d="M239.553,128.108c.17.17,1.174-.606,2.62-.64,1.446-.051,2.527.67,2.68.488.076-.081-.1-.394-.572-.721a3.671,3.671,0,0,0-2.15-.606,3.558,3.558,0,0,0-2.082.725c-.437.352-.581.674-.5.75Z" transform="translate(-236.667 -106.541)" fill="#263238"/>
                  <path id="Trazado_717694" data-name="Trazado 717694" d="M209.99,139.836a1.346,1.346,0,0,0,1.331,1.327,1.286,1.286,0,0,0,1.357-1.247,1.346,1.346,0,0,0-1.327-1.327A1.29,1.29,0,0,0,209.99,139.836Z" transform="translate(-191.951 -113.431)" fill="#263238"/>
                  <path id="Trazado_717695" data-name="Trazado 717695" d="M206.063,128.7c.17.17,1.174-.606,2.62-.636,1.446-.051,2.527.67,2.68.488.076-.081-.1-.394-.572-.721a3.671,3.671,0,0,0-2.15-.606,3.559,3.559,0,0,0-2.082.725C206.122,128.3,205.978,128.627,206.063,128.7Z" transform="translate(-188.978 -106.887)" fill="#263238"/>
                  <path id="Trazado_717696" data-name="Trazado 717696" d="M233.007,140.833a9.738,9.738,0,0,0-2.362-.369c-.369-.03-.721-.093-.793-.348a1.886,1.886,0,0,1,.22-1.1q.49-1.355,1.026-2.841c1.425-4.045,2.446-7.369,2.281-7.424s-1.45,3.18-2.875,7.225q-.515,1.495-.979,2.858a2.121,2.121,0,0,0-.157,1.454.926.926,0,0,0,.619.526,2.346,2.346,0,0,0,.632.072,9.308,9.308,0,0,0,2.383-.055Z" transform="translate(-220.853 -107.763)" fill="#263238"/>
                  <path id="Trazado_717697" data-name="Trazado 717697" d="M224.02,159.37c-.237-.008-.2,1.565-1.522,2.714s-3,1.013-3,1.234c-.021.1.382.3,1.09.3a3.919,3.919,0,0,0,2.51-.941,3.4,3.4,0,0,0,1.174-2.273c.042-.657-.14-1.043-.246-1.03Z" transform="translate(-207.579 -125.401)" fill="#263238"/>
                  <path id="Trazado_717698" data-name="Trazado 717698" d="M203.1,115.277c.153.39,1.594.17,3.3.335,1.709.131,3.091.594,3.307.237.1-.17-.153-.534-.712-.9a5.763,5.763,0,0,0-5.033-.432c-.619.267-.924.585-.861.767Z" transform="translate(-186.074 -99.341)" fill="#263238"/>
                  <path id="Trazado_717699" data-name="Trazado 717699" d="M239.36,116.6c.263.322,1.251-.042,2.451-.089,1.2-.085,2.222.17,2.446-.182.1-.17-.068-.5-.522-.8a3.552,3.552,0,0,0-3.947.216c-.416.348-.547.691-.433.848Z" transform="translate(-235.991 -99.866)" fill="#263238"/>
                  <path id="Trazado_717700" data-name="Trazado 717700" d="M167.068,141.968c.161-.072,6.432-2.069,6.377,4.38s-6.517,5.067-6.525,4.88S167.068,141.968,167.068,141.968Z" transform="translate(-134.456 -115.178)" fill="#ffbe9d"/>
                  <path id="Trazado_717701" data-name="Trazado 717701" d="M170.791,151.64c.03-.021.11.081.3.17a1.128,1.128,0,0,0,.84.025,2.78,2.78,0,0,0,1.306-2.485,3.731,3.731,0,0,0-.3-1.611,1.3,1.3,0,0,0-.839-.869.577.577,0,0,0-.666.3c-.089.178-.047.31-.081.318-.017.017-.136-.11-.085-.373a.736.736,0,0,1,.259-.4.872.872,0,0,1,.623-.161,1.583,1.583,0,0,1,1.166,1.009,3.815,3.815,0,0,1,.373,1.8,2.916,2.916,0,0,1-1.662,2.773,1.209,1.209,0,0,1-1.026-.178C170.8,151.8,170.765,151.653,170.791,151.64Z" transform="translate(-136.339 -118.015)" fill="#eb996e"/>
                  <path id="Trazado_717702" data-name="Trazado 717702" d="M174.546,86.346c-1.035-.594,2.154-3.918,4.74-5.041,3.9-1.692,9.841-2.675,13.4-1.6C196.967,81,200.5,83.2,202.6,87.148a25.375,25.375,0,0,1,2.629,13,7.687,7.687,0,0,1-.975,3.922c-.924,1.412-2.667,2.277-2.625,4.248a2.7,2.7,0,0,1-.7,1.959c-1.2,1.234-2.625.03-3.269-1.162-1.374-2.548-1.48-5.567-1.556-8.463a18.793,18.793,0,0,1,.513-6.127c.335-1.068.856-2.078,1.132-3.163a3.863,3.863,0,0,0-.4-3.227,4.039,4.039,0,0,0-.513-.538,6.718,6.718,0,0,0-6.648-1.382c-3.651,1.221-9.888,3.036-11.486,1.777a9.937,9.937,0,0,1-2.837-2.976l-1.306,1.331Z" transform="translate(-169.417 -79.255)" fill="#263238"/>
                </g>
                <path id="Trazado_717703" data-name="Trazado 717703" d="M198.638,77.03a14.172,14.172,0,0,0-10.905.411,7.362,7.362,0,0,0-3.96,4.215A4.228,4.228,0,0,0,185.8,86.7l.123.081c2.735.971,4.528.636,7.288-.267,2.319-.759,4.4-2.15,6.725-2.9a13.114,13.114,0,0,1,7.674-.093,21.335,21.335,0,0,0-8.976-6.491Z" transform="translate(-175.693 -76.14)" fill="#263238"/>
              </g>
            </g>
            <path id="Trazado_717704" data-name="Trazado 717704" d="M192.151,109.58a2.872,2.872,0,0,0,.322-.373,5.121,5.121,0,0,0,.683-1.238,5.548,5.548,0,0,0,.373-2.209,5.507,5.507,0,0,0-2.124-4.075,6.022,6.022,0,0,0-1.654-.895A14.173,14.173,0,0,1,186,99.217a3.157,3.157,0,0,1-1.191-1.747,7.348,7.348,0,0,1-.127-2.273,12.849,12.849,0,0,0-.352-4.876,7.467,7.467,0,0,0-3-3.824,11.164,11.164,0,0,0-4.21-1.747,10.707,10.707,0,0,0-4.125,0,8.972,8.972,0,0,0-3.307,1.4,8.713,8.713,0,0,0-3.218,4.015,7.278,7.278,0,0,0-.386,1.361c-.021.148-.038.271-.051.365a.536.536,0,0,0-.008.123,9.725,9.725,0,0,1,.526-1.819,8.907,8.907,0,0,1,6.483-5.27,10.579,10.579,0,0,1,4.049.013,11.024,11.024,0,0,1,4.125,1.726,7.237,7.237,0,0,1,2.913,3.714,12.7,12.7,0,0,1,.348,4.8,7.466,7.466,0,0,0,.14,2.34,3.333,3.333,0,0,0,1.272,1.853,14.063,14.063,0,0,0,3.807,1.582,5.506,5.506,0,0,1,2.777,2.082,5.3,5.3,0,0,1,.941,2.722,5.454,5.454,0,0,1-.331,2.171,6.4,6.4,0,0,1-.924,1.645Z" transform="translate(-145.588 -79.122)" fill="#455a64"/>
            <path id="Trazado_717705" data-name="Trazado 717705" d="M187.7,107.6a3.8,3.8,0,0,0,.5-.288,6.51,6.51,0,0,0,1.242-1.077,6.925,6.925,0,0,0,1.331-2.23,6.6,6.6,0,0,0,.267-3.422,6.714,6.714,0,0,0-1.959-3.655,35.636,35.636,0,0,0-3.863-2.824,7.944,7.944,0,0,1-1.81-1.785,8.724,8.724,0,0,1-1.149-2.391A50.106,50.106,0,0,0,180.6,84.5a10.267,10.267,0,0,0-3.735-4.248,10.5,10.5,0,0,0-5.007-1.666,11.487,11.487,0,0,0-4.732.7,11.691,11.691,0,0,0-3.587,2.128,12.556,12.556,0,0,0-3.43,4.923,9.647,9.647,0,0,0-.6,2.128s.017-.047.042-.14.064-.242.11-.411a13.545,13.545,0,0,1,.53-1.543,12.731,12.731,0,0,1,3.456-4.834,11.622,11.622,0,0,1,3.549-2.073,11.291,11.291,0,0,1,4.655-.666,10.324,10.324,0,0,1,4.9,1.645A10.077,10.077,0,0,1,180.4,84.6a50.764,50.764,0,0,1,1.649,5.4,9.077,9.077,0,0,0,1.183,2.446,8.067,8.067,0,0,0,1.861,1.823,36.825,36.825,0,0,1,3.854,2.794,6.579,6.579,0,0,1,1.933,3.553,6.445,6.445,0,0,1-.229,3.35,6.8,6.8,0,0,1-2.485,3.307c-.3.22-.479.314-.471.322Z" transform="translate(-140.437 -75.671)" fill="#455a64"/>
          </g>
          <g id="Grupo_1006972" data-name="Grupo 1006972" transform="translate(11.151 108.379)">
            <path id="Trazado_717706" data-name="Trazado 717706" d="M206.962,334.864s17.515-4.075,20.186-4.274c2.51-.187,3.167,1.386,3.167,1.386s3.752-.471,4.583,1.721a1.365,1.365,0,0,1-.878,1.929c-1.539.653-9.892,2.489-11.609,4.087s-16.112,9.773-16.112,9.773l-5.8,2.37s-2.608-6.809-2.726-8.764a5.17,5.17,0,0,1,.594-3.019s-3.612-3.672-4.028-5.151a71.051,71.051,0,0,0-3.019-6.576,3.121,3.121,0,0,1,4.867.441,35.66,35.66,0,0,0,4.435,4.77,8.641,8.641,0,0,0,6.347,1.314Z" transform="translate(-191.317 -327.36)" fill="#ffbe9d"/>
            <path id="Trazado_717707" data-name="Trazado 717707" d="M202.46,346.246a1.176,1.176,0,0,0,.187-.072l.513-.246,1.887-.9c1.6-.746,3.833-1.73,6.36-2.658,1.264-.466,2.48-.873,3.6-1.221s2.137-.6,2.959-.962a3.879,3.879,0,0,0,1.7-1.234,2.1,2.1,0,0,0,.271-.509.675.675,0,0,0,.055-.191,5.515,5.515,0,0,1-.394.649,3.975,3.975,0,0,1-1.692,1.141c-.81.335-1.84.564-2.959.912s-2.34.742-3.612,1.208a63.686,63.686,0,0,0-6.351,2.726c-.793.394-1.425.729-1.857.971-.2.11-.36.2-.5.284a.946.946,0,0,0-.165.11Z" transform="translate(-180.985 -333.632)" fill="#eb996e"/>
            <path id="Trazado_717708" data-name="Trazado 717708" d="M262.272,343.286a5.067,5.067,0,0,0,3.545,1.874c.013-.068-.882-.246-1.861-.767S262.318,343.235,262.272,343.286Z" transform="translate(-252.176 -336.532)" fill="#eb996e"/>
          </g>
        </g>
      </g>
      <g id="Table" transform="translate(9.212 184.846)">
        <path id="Trazado_717709" data-name="Trazado 717709" d="M18.04,440.576c0,.057,36.446.106,81.392.106s81.4-.049,81.4-.106-36.438-.106-81.4-.106S18.04,440.519,18.04,440.576Z" transform="translate(-18.04 -440.47)" fill="#263238"/>
      </g>
      <g id="Windows" transform="translate(19.058 4.763)">
        <g id="Grupo_1006977" data-name="Grupo 1006977" transform="translate(105.307 30.247)">
          <g id="Grupo_1006974" data-name="Grupo 1006974" transform="translate(0)">
            <path id="Trazado_717710" data-name="Trazado 717710" d="M.26,113.55H54.1V135.7H5.68l-3.3,3.3v-3.3H.26Z" transform="translate(-0.186 -113.44)" fill="#fff"/>
            <path id="Trazado_717711" data-name="Trazado 717711" d="M.074,113.39s0,.127-.008.376,0,.634-.008,1.125c0,1-.012,2.471-.016,4.369C.033,123.081.016,128.627,0,135.54v.074H2.193l-.078-.078c0,1.019,0,2.143,0,3.3v.2l.139-.139c1.031-1.027,2.147-2.143,3.305-3.3l-.061.025c12.811,0,28.793.012,46.083.02h2.442v-.106c0-7.772,0-15.245,0-22.154v-.1h-.1l-38.708.049c-4.761.012-8.549.02-11.151.029-1.293,0-2.287.008-2.966.012-.331,0-.585,0-.761.008s-.254.008-.254.008.09,0,.266.008.438,0,.773.008c.683,0,1.685.008,2.986.012,2.606.008,6.4.016,11.171.029l38.639.049-.1-.1c0,6.9,0,14.382,0,22.154l.106-.106H51.573c-17.29.008-33.268.016-46.083.02H5.453l-.025.025c-1.154,1.154-2.27,2.274-3.3,3.305l.139.057c0-1.154,0-2.282,0-3.3v-.078H.07l.074.074c-.016-6.9-.029-12.427-.041-16.235C.094,117.4.09,115.926.086,114.92c0-.5,0-.879-.008-1.141s-.008-.393-.008-.393Z" transform="translate(0 -113.28)" fill="#263238"/>
          </g>
          <g id="Grupo_1006975" data-name="Grupo 1006975" transform="translate(4.966 6.447)">
            <rect id="Rectángulo_347180" data-name="Rectángulo 347180" width="26.441" height="1.853" rx="0.926" fill="#e0e0e0"/>
            <rect id="Rectángulo_347181" data-name="Rectángulo 347181" width="26.441" height="1.853" rx="0.926" transform="translate(0 4.131)" fill="#e0e0e0"/>
            <rect id="Rectángulo_347182" data-name="Rectángulo 347182" width="26.441" height="1.853" rx="0.926" transform="translate(0 8.263)" fill="#e0e0e0"/>
          </g>
          <g id="Grupo_1006976" data-name="Grupo 1006976" transform="translate(35.837 4.696)">
            <rect id="Rectángulo_347183" data-name="Rectángulo 347183" width="13.621" height="13.621" rx="4.47" transform="translate(0)" fill="#455a64"/>
            <path id="Trazado_717712" data-name="Trazado 717712" d="M24.917,143.354l.311-.262-2.753-3.272a1,1,0,0,0-1.37-.241l-1.624,1.084-1.91-2.413a.993.993,0,0,0-.753-.38,1.014,1.014,0,0,0-.781.323L13.68,140.74l.3.278,2.356-2.548a.6.6,0,0,1,.908.037l2.147,2.712,1.935-1.293a.6.6,0,0,1,.822.151l2.765,3.285Z" transform="translate(-12.641 -132.506)" fill="#fff"/>
            <ellipse id="Elipse_7724" data-name="Elipse 7724" cx="1.219" cy="1.219" rx="1.219" ry="1.219" transform="translate(6.811 2.315)" fill="#fff"/>
          </g>
        </g>
        <g id="Grupo_1006981" data-name="Grupo 1006981" transform="translate(-0.637 78.403)">
          <g id="Grupo_1006978" data-name="Grupo 1006978" transform="translate(0 0)">
            <path id="Trazado_717713" data-name="Trazado 717713" d="M249.23,211.71h48.942v20.853h-5.048l-.532,4.594-3.771-4.594H249.23Z" transform="translate(-249.156 -211.604)" fill="#fff"/>
            <path id="Trazado_717714" data-name="Trazado 717714" d="M249.034,211.556s0,.119-.008.356,0,.6-.008,1.064c0,.945-.012,2.327-.016,4.115-.008,3.6-.025,8.819-.041,15.319v.074h.074c10.3.008,24.093.02,39.592.029l-.082-.037c1.194,1.456,2.475,3.015,3.767,4.594l.16.192.029-.25c.168-1.456.352-3.019.536-4.594l-.106.094h5.158v-.106c0-7.322,0-14.353,0-20.853v-.1h-.1l-35.215.049c-4.324.012-7.76.02-10.12.029-1.17,0-2.074.008-2.687.012-.3,0-.528,0-.691,0s-.229,0-.229,0,.082,0,.241,0,.4,0,.7.008c.622,0,1.53.008,2.712.012,2.364.008,5.809.016,10.144.029l35.149.049-.1-.1c0,6.5,0,13.531,0,20.853l.106-.106h-5.146l-.012.094c-.184,1.575-.364,3.137-.532,4.594l.188-.053c-1.3-1.579-2.577-3.137-3.771-4.594l-.033-.037h-.049l-39.592.033.074.074c-.016-6.479-.033-11.686-.041-15.274-.008-1.8-.012-3.186-.016-4.131,0-.47,0-.826-.008-1.076s-.008-.372-.008-.372Z" transform="translate(-248.96 -211.45)" fill="#263238"/>
          </g>
          <g id="Grupo_1006979" data-name="Grupo 1006979" transform="translate(4.921 4.724)">
            <path id="Trazado_717715" data-name="Trazado 717715" d="M305.692,224.963H325.13a.979.979,0,0,0,.982-.982h0a.979.979,0,0,0-.982-.982H305.692a.979.979,0,0,0-.982.982h0A.979.979,0,0,0,305.692,224.963Z" transform="translate(-304.71 -223)" fill="#112e4c"/>
            <path id="Trazado_717716" data-name="Trazado 717716" d="M305.692,235.663H325.13a.979.979,0,0,0,.982-.982h0a.979.979,0,0,0-.982-.982H305.692a.979.979,0,0,0-.982.982h0A.979.979,0,0,0,305.692,235.663Z" transform="translate(-304.71 -229.323)" fill="#112e4c"/>
            <path id="Trazado_717717" data-name="Trazado 717717" d="M305.692,246.373H325.13a.979.979,0,0,0,.982-.982h0a.979.979,0,0,0-.982-.982H305.692a.979.979,0,0,0-.982.982h0A.979.979,0,0,0,305.692,246.373Z" transform="translate(-304.71 -235.652)" fill="#112e4c"/>
          </g>
          <g id="Grupo_1006980" data-name="Grupo 1006980" transform="translate(31.022 2.863)">
            <rect id="Rectángulo_347184" data-name="Rectángulo 347184" width="14.439" height="14.439" rx="4.47" transform="translate(0)" fill="#112e4c"/>
            <path id="Trazado_717718" data-name="Trazado 717718" d="M272.536,238.18l.315-.262-2.921-3.469a1.052,1.052,0,0,0-1.44-.254l-1.73,1.154-2.033-2.569a1.061,1.061,0,0,0-.789-.4,1.073,1.073,0,0,0-.818.34l-2.5,2.7.3.278,2.5-2.7a.647.647,0,0,1,.5-.209.658.658,0,0,1,.483.245l2.266,2.863,2.045-1.362a.645.645,0,0,1,.888.164l2.929,3.481Z" transform="translate(-259.516 -226.681)" fill="#fff"/>
            <path id="Trazado_717719" data-name="Trazado 717719" d="M269.25,225.753a1.293,1.293,0,1,0,1.293-1.293A1.293,1.293,0,0,0,269.25,225.753Z" transform="translate(-262.03 -222.002)" fill="#fff"/>
          </g>
        </g>
        <g id="Grupo_1006985" data-name="Grupo 1006985" transform="translate(108.011 62.004)">
          <path id="Trazado_717720" data-name="Trazado 717720" d="M23.219,200.82H62.185a2.566,2.566,0,0,1,2.565,2.565v22.669a2.248,2.248,0,0,1-2.25,2.25H30.745L25.751,233.3V228.3H23.9a2.713,2.713,0,0,1-2.712-2.712V202.853a2.033,2.033,0,0,1,2.033-2.033Z" transform="translate(-21.103 -200.725)" fill="#fff"/>
          <path id="Trazado_717721" data-name="Trazado 717721" d="M62.021,200.82H23.174A1.983,1.983,0,0,0,21.19,202.8v3.125a.229.229,0,0,0,.229.229H64.524a.229.229,0,0,0,.229-.229v-2.381a2.73,2.73,0,0,0-2.728-2.728Z" transform="translate(-21.107 -200.725)" fill="#e0e0e0"/>
          <g id="Grupo_1006984" data-name="Grupo 1006984" transform="translate(26.16 9.814)">
            <rect id="Rectángulo_347185" data-name="Rectángulo 347185" width="13.04" height="13.04" rx="4.47" fill="#ffa031"/>
            <g id="Grupo_1006982" data-name="Grupo 1006982" transform="translate(1.128 5.235)" opacity="0.3">
              <path id="Trazado_717722" data-name="Trazado 717722" d="M34.877,240.157s.164-.135.434-.409c.295-.3.671-.7,1.125-1.166.237-.25.495-.524.769-.81a.683.683,0,0,1,1,.025c.56.712,1.174,1.489,1.816,2.307l.139.176.061.078.082-.053,1.407-.945.327-.217a.657.657,0,0,1,.323-.094.681.681,0,0,1,.56.278h0v0c.777.9,1.44,1.665,1.939,2.242.221.245.4.454.556.622a1.19,1.19,0,0,0,.213.209.956.956,0,0,0-.168-.245c-.139-.18-.311-.4-.519-.654-.483-.589-1.125-1.37-1.878-2.291h0a.874.874,0,0,0-.72-.36.858.858,0,0,0-.421.115c-.123.074-.225.147-.344.221-.454.3-.924.614-1.411.937l.143.025-.139-.176c-.65-.814-1.268-1.591-1.837-2.3a.862.862,0,0,0-1.276-.016c-.266.295-.519.573-.749.83-.434.487-.794.9-1.076,1.211a3.349,3.349,0,0,0-.372.462Z" transform="translate(-34.868 -237.379)"/>
            </g>
            <g id="Grupo_1006983" data-name="Grupo 1006983" transform="translate(6.52 2.221)" opacity="0.3">
              <path id="Trazado_717723" data-name="Trazado 717723" d="M42.3,231.176a1.166,1.166,0,1,0,1.166-1.166A1.168,1.168,0,0,0,42.3,231.176Z" transform="translate(-42.3 -230.01)"/>
            </g>
          </g>
          <path id="Trazado_717724" data-name="Trazado 717724" d="M23.062,200.682a1.767,1.767,0,0,0-.577.07,2.061,2.061,0,0,0-1.276,1.064,2.429,2.429,0,0,0-.217,1.223c0,.458,0,.957,0,1.493,0,1.08-.008,2.319-.012,3.714,0,2.786-.012,6.177-.02,10.075q0,2.927-.008,6.226a4.718,4.718,0,0,0,.168,1.677,3.022,3.022,0,0,0,1.014,1.407,2.965,2.965,0,0,0,1.665.618c.6.016,1.19,0,1.8.008l-.09-.09c0,1.563,0,3.256,0,4.994v.225l.16-.16c1.579-1.575,3.264-3.256,5-4.99l-.07.029c8.729,0,18.358,0,28.47.008h2.8a4.942,4.942,0,0,0,.945-.045,2.348,2.348,0,0,0,1.865-1.976,7.936,7.936,0,0,0,.025-.929v-7.2c0-4.72,0-9.269-.008-13.6v-.81a6.173,6.173,0,0,0-.029-.818,2.608,2.608,0,0,0-.7-1.468,2.687,2.687,0,0,0-1.4-.781,3.754,3.754,0,0,0-.794-.053h-.773c-2.053,0-4.05,0-5.976,0L44.28,200.6c-6.553.012-11.858.025-15.531.033l-4.221.02c-.479,0-.847.008-1.1.012s-.372.012-.372.012.127.008.372.012.618,0,1.1.012l4.221.02c3.673.008,8.979.02,15.531.033,3.281,0,6.872.008,10.725.012,1.927,0,3.923,0,5.976,0a10.515,10.515,0,0,1,1.53.049,2.482,2.482,0,0,1,1.3.728,2.433,2.433,0,0,1,.65,1.362,6.265,6.265,0,0,1,.025.789v.81c0,4.336,0,8.889-.008,13.6v7.2a8.124,8.124,0,0,1-.025.9,2.187,2.187,0,0,1-.295.818,2.149,2.149,0,0,1-1.4.982,4.691,4.691,0,0,1-.9.041h-2.8c-10.112,0-19.741,0-28.47.008H30.54l-.029.029c-1.73,1.734-3.416,3.42-4.99,5l.16.065c0-1.738,0-3.432,0-4.994v-.086h-.09c-.6,0-1.207.008-1.788-.008a2.777,2.777,0,0,1-1.571-.581,2.837,2.837,0,0,1-.961-1.325,4.591,4.591,0,0,1-.164-1.624q0-3.295-.008-6.226c-.008-3.9-.016-7.289-.02-10.075,0-1.391-.008-2.634-.012-3.714,0-.54,0-1.039,0-1.493a2.37,2.37,0,0,1,.2-1.2,2.022,2.022,0,0,1,1.235-1.059,2.936,2.936,0,0,1,.569-.094Z" transform="translate(-20.946 -200.587)" fill="#263238"/>
          <path id="Trazado_717725" data-name="Trazado 717725" d="M25.9,205.806a.916.916,0,1,0,.916-.916A.915.915,0,0,0,25.9,205.806Z" transform="translate(13.988 -203.13)" fill="#fff"/>
          <path id="Trazado_717726" data-name="Trazado 717726" d="M32.64,205.806a.916.916,0,1,0,.916-.916A.915.915,0,0,0,32.64,205.806Z" transform="translate(4.491 -203.13)" fill="#fff"/>
          <path id="Trazado_717727" data-name="Trazado 717727" d="M39.39,205.806a.916.916,0,1,0,.916-.916A.915.915,0,0,0,39.39,205.806Z" transform="translate(-5.02 -203.13)" fill="#fff"/>
          <path id="Trazado_717728" data-name="Trazado 717728" d="M74.56,230.666c0,.057,3.559.106,7.952.106s7.952-.049,7.952-.106-3.559-.106-7.952-.106S74.56,230.609,74.56,230.666Z" transform="translate(-68.648 -218.3)" fill="#263238"/>
          <path id="Trazado_717729" data-name="Trazado 717729" d="M74.56,238.026c0,.057,3.559.106,7.952.106s7.952-.049,7.952-.106-3.559-.106-7.952-.106S74.56,237.969,74.56,238.026Z" transform="translate(-68.648 -222.649)" fill="#263238"/>
          <path id="Trazado_717730" data-name="Trazado 717730" d="M74.56,245.4c0,.057,3.559.106,7.952.106s7.952-.049,7.952-.106-3.559-.106-7.952-.106S74.56,245.339,74.56,245.4Z" transform="translate(-68.648 -227.004)" fill="#263238"/>
        </g>
        <g id="Grupo_1006991" data-name="Grupo 1006991" transform="translate(70.904 0)">
          <g id="Grupo_1006990" data-name="Grupo 1006990" transform="translate(5 -1)">
            <path id="Trazado_717741" data-name="Trazado 717741" d="M168.43.44h20.436V20.876h-1.955v3.047l-3.043-3.047H168.43Z" transform="translate(-168.34 -0.35)" fill="#fff"/>
            <path id="Trazado_717742" data-name="Trazado 717742" d="M168.25.31s-.008.119-.008.364,0,.614-.012,1.08c0,.961-.012,2.356-.025,4.131-.012,3.587-.029,8.7-.045,14.865v.09h.09c4.585,0,9.825.008,15.441.016l-.074-.033c.969.969,2,2,3.043,3.047l.18.18v-3.3l-.106.106H188.8V20.75c0-7.506-.012-14.493-.016-20.44V.22h-.09c-6.156.02-11.273.037-14.861.045-1.775.008-3.17.016-4.131.025-.466,0-.83.008-1.08.012s-.364.008-.364.008.135.008.385.008.626,0,1.1.012c.965,0,2.368.012,4.152.025,3.575.012,8.672.029,14.8.045L188.6.31c0,5.948-.008,12.934-.016,20.44l.106-.106h-2.062v3.15l.18-.074c-1.047-1.047-2.078-2.078-3.047-3.043l-.033-.033h-.045c-5.612,0-10.852.008-15.442.016l.09.09c-.02-6.14-.037-11.237-.045-14.807-.008-1.783-.016-3.186-.025-4.152,0-.474-.008-.843-.012-1.1s-.008-.385-.008-.385Z" transform="translate(-168.16 -0.22)" fill="#263238"/>
          </g>
          <path id="Trazado_717743" data-name="Trazado 717743" d="M184.689,16.8a3.086,3.086,0,0,1-1.841-2.859,2.906,2.906,0,1,1,5.8-.029A3.087,3.087,0,0,1,186.8,16.8c4.463.671,4.258,5.522,4.258,5.522l-10.549.049s-.241-4.9,4.18-5.567Z" transform="translate(-170.473 -7.496)" fill="#112e4c"/>
        </g>
        <g id="Grupo_1006993" data-name="Grupo 1006993" transform="translate(15.389 36.214)">
          <g id="Grupo_1006992" data-name="Grupo 1006992">
            <path id="Trazado_717744" data-name="Trazado 717744" d="M346.53,66.97H326.09V87.41h1.955v3.043l3.043-3.043H346.53Z" transform="translate(-325.98 -66.88)" fill="#fff"/>
            <path id="Trazado_717745" data-name="Trazado 717745" d="M346.43,66.84s-.008.135-.008.385,0,.622-.012,1.1c0,.965-.012,2.368-.025,4.152-.012,3.571-.029,8.672-.045,14.807l.09-.09c-4.585,0-9.825-.008-15.441-.016h-.045l-.033.033c-.969.969-2,2-3.047,3.043l.18.074v-3.15h-2.062l.106.106c0-7.506-.012-14.493-.016-20.44l-.09.09c6.132-.02,11.228-.037,14.8-.045,1.783-.008,3.186-.016,4.152-.025.475,0,.843-.008,1.1-.012s.385-.008.385-.008-.119-.008-.364-.008-.614,0-1.08-.012c-.961,0-2.36-.012-4.131-.025-3.587-.012-8.7-.029-14.861-.045h-.09v.09c0,5.948-.008,12.934-.016,20.44v.106h2.062l-.106-.106v3.3l.18-.18c1.047-1.047,2.078-2.078,3.043-3.047l-.074.033c5.612,0,10.852-.008,15.441-.016h.09v-.09c-.02-6.16-.037-11.277-.045-14.865-.008-1.775-.016-3.17-.025-4.131q-.006-.7-.012-1.08c0-.241-.008-.364-.008-.364Z" transform="translate(-325.88 -66.75)" fill="#263238"/>
          </g>
          <path id="Trazado_717746" data-name="Trazado 717746" d="M338.927,81.748a4.972,4.972,0,1,1,9.257,2.512h0l-.012.02c-.192.323-.429.552-.671.888l-2.888,3.825a.9.9,0,0,1-1.432,0l-2.839-3.759a9.77,9.77,0,0,1-.72-.957l-.012-.012h0a4.939,4.939,0,0,1-.687-2.512Zm4.97,2.164a2.188,2.188,0,1,0-2.188-2.188A2.188,2.188,0,0,0,343.9,83.912Z" transform="translate(-333.569 -72.676)" fill="#ffa031"/>
        </g>
        <g id="Grupo_1006996" data-name="Grupo 1006996" transform="translate(67.954 97.377)">
          <g id="Grupo_1006994" data-name="Grupo 1006994" transform="translate(0)">
            <path id="Trazado_717747" data-name="Trazado 717747" d="M166.091,238.5h21.27a1.936,1.936,0,0,1,1.935,1.935v19.614a1.936,1.936,0,0,1-1.935,1.935H169.9l-3.5,3.5v-3.5h-.311a1.936,1.936,0,0,1-1.935-1.935V240.435a1.936,1.936,0,0,1,1.935-1.935Z" transform="translate(-164.073 -238.409)" fill="#fff"/>
            <path id="Trazado_717748" data-name="Trazado 717748" d="M165.9,238.369a1.628,1.628,0,0,0-.479.045,1.94,1.94,0,0,0-1.485,1.743c-.016.38-.008.785-.012,1.231,0,.888-.008,1.9-.012,3.043,0,2.278-.012,5.044-.02,8.21,0,1.583,0,3.268-.008,5.043v2.037a2.5,2.5,0,0,0,.065.712,2.018,2.018,0,0,0,.839,1.178,1.926,1.926,0,0,0,.687.29,3.52,3.52,0,0,0,.74.049l-.094-.094v3.73l.168-.168c1.1-1.1,2.291-2.287,3.5-3.5l-.074.029c4.659,0,9.723,0,14.983,0h2.548a2.026,2.026,0,0,0,1.91-1.558,2.306,2.306,0,0,0,.057-.642v-4.287c0-3.219,0-6.324-.008-9.281,0-1.477,0-2.921,0-4.324V240.3a2.054,2.054,0,0,0-.074-.528,2.03,2.03,0,0,0-1.411-1.423,3.6,3.6,0,0,0-.994-.074H183.9c-1.219,0-2.393,0-3.51.008-4.467.012-8.087.025-10.594.033l-2.88.02q-.485.006-.749.012a2,2,0,0,0-.254.012s.086.008.254.012.425,0,.749.012l2.88.02c2.507.008,6.128.02,10.594.033,1.117,0,2.291,0,3.51.008h2.831a3.313,3.313,0,0,1,.949.07,1.841,1.841,0,0,1,1.284,1.3,3.97,3.97,0,0,1,.065,1v1.043q0,2.1,0,4.324c0,2.957,0,6.062-.008,9.281v3.665a6.19,6.19,0,0,1-.053,1.211,1.816,1.816,0,0,1-1.714,1.395h-2.54c-5.26,0-10.324,0-14.983,0h-.041l-.029.029c-1.211,1.211-2.393,2.4-3.5,3.5l.168.07V261.75h-.094a3.308,3.308,0,0,1-.7-.041,1.882,1.882,0,0,1-.626-.262,1.842,1.842,0,0,1-.765-1.072,2.382,2.382,0,0,1-.061-.667v-2.037c0-1.775-.008-3.461-.008-5.044-.008-3.166-.016-5.927-.02-8.21,0-1.137-.008-2.156-.012-3.043,0-.442-.012-.855,0-1.223a1.9,1.9,0,0,1,1.419-1.722,2.636,2.636,0,0,1,.47-.074Z" transform="translate(-163.884 -238.278)" fill="#263238"/>
          </g>
          <g id="Grupo_1006995" data-name="Grupo 1006995" transform="translate(3.928 4.799)">
            <rect id="Rectángulo_347186" data-name="Rectángulo 347186" width="17.119" height="14.407" rx="7.203" transform="translate(0 0)" fill="#455a64"/>
            <path id="Trazado_717749" data-name="Trazado 717749" d="M191.092,266.08a.668.668,0,0,1-1-.577v-5.179a.667.667,0,0,1,1-.577l2.242,1.293,2.242,1.3a.668.668,0,0,1,0,1.158l-2.242,1.3-2.242,1.293Z" transform="translate(-183.66 -255.711)" fill="#fff"/>
          </g>
        </g>
      </g>
      <g id="Speech_Bubble" data-name="Speech Bubble" transform="translate(43.133 0)">
        <g id="Grupo_1006999" data-name="Grupo 1006999">
          <g id="Grupo_1006997" data-name="Grupo 1006997">
            <ellipse id="Elipse_7725" data-name="Elipse 7725" cx="14.57" cy="14.57" rx="14.57" ry="14.57" transform="translate(26.453 38.676) rotate(-155.2)" fill="#fff"/>
            <path id="Trazado_717750" data-name="Trazado 717750" d="M249.91,14.683s.012-.082.025-.237.025-.393.045-.691c.008-.151.02-.323.033-.507s.061-.389.094-.609a10.6,10.6,0,0,1,.3-1.5,13.9,13.9,0,0,1,1.616-3.861A14.558,14.558,0,0,1,261.813.461a13.357,13.357,0,0,1,1.833-.213c.311-.012.626-.041.945-.037l.957.049c.16.012.323.008.483.033l.483.074c.323.053.65.09.974.16a15.251,15.251,0,0,1,1.931.569,14.764,14.764,0,0,1,1.886.83c.307.168.6.36.9.54a7.338,7.338,0,0,1,.871.6,15.982,15.982,0,0,1,1.64,1.395,16.971,16.971,0,0,1,1.419,1.677,14.031,14.031,0,0,1,2.07,3.984,15.484,15.484,0,0,1,.745,4.565,15.484,15.484,0,0,1-.745,4.565c-.131.36-.262.716-.393,1.072-.164.34-.327.683-.491,1.019a3.87,3.87,0,0,1-.27.495l-.29.479-.29.474-.331.446a16.979,16.979,0,0,1-1.419,1.677,16.438,16.438,0,0,1-1.64,1.395,7.334,7.334,0,0,1-.871.6c-.3.18-.6.372-.9.54a15.021,15.021,0,0,1-1.886.83,15.956,15.956,0,0,1-1.931.569c-.323.065-.65.106-.974.16l-.483.074c-.16.02-.323.02-.483.033l-.957.049c-.319,0-.63-.025-.945-.037a12.886,12.886,0,0,1-1.833-.213,14.558,14.558,0,0,1-9.788-6.815,13.9,13.9,0,0,1-1.616-3.861,10.591,10.591,0,0,1-.3-1.5c-.033-.221-.074-.421-.094-.609s-.02-.356-.033-.507c-.02-.3-.033-.528-.045-.691s-.025-.237-.025-.237v.237c0,.164.012.393.025.7.008.151.012.323.02.511s.053.393.082.614a9.957,9.957,0,0,0,.286,1.513,13.8,13.8,0,0,0,1.591,3.9,14.468,14.468,0,0,0,11.711,7.15c.315.012.634.045.957.041l.969-.049c.164-.012.327-.008.491-.033l.491-.074c.327-.053.659-.09.986-.16a16.6,16.6,0,0,0,1.959-.569,14.615,14.615,0,0,0,1.914-.839c.311-.168.609-.364.916-.544a7.956,7.956,0,0,0,.888-.609,16.423,16.423,0,0,0,1.665-1.411,16.057,16.057,0,0,0,1.44-1.7l.339-.45.294-.483.295-.487a3.954,3.954,0,0,0,.274-.5c.164-.344.331-.687.5-1.035.131-.36.266-.724.4-1.088a15.658,15.658,0,0,0,.757-4.63,15.658,15.658,0,0,0-.757-4.63,14.176,14.176,0,0,0-2.1-4.041,16.421,16.421,0,0,0-1.44-1.7A16.342,16.342,0,0,0,273.2,2.915a7.751,7.751,0,0,0-.888-.609c-.307-.18-.605-.376-.916-.544a15.447,15.447,0,0,0-1.914-.839,14.942,14.942,0,0,0-1.955-.569c-.327-.065-.659-.106-.986-.16l-.491-.074c-.164-.02-.327-.02-.491-.033l-.969-.049c-.319,0-.638.029-.957.041A13.1,13.1,0,0,0,261.781.3a14.644,14.644,0,0,0-9.858,6.929,13.851,13.851,0,0,0-1.591,3.9,10.062,10.062,0,0,0-.286,1.513c-.029.221-.065.425-.082.614s-.016.36-.02.511c-.012.3-.02.528-.025.7s0,.237,0,.237Z" transform="translate(-245.14 4.65)" fill="#263238"/>
          </g>
          <path id="Trazado_717751" data-name="Trazado 717751" d="M279.3,30.339a2.507,2.507,0,0,0,1.317-.356,2.209,2.209,0,0,0,.274-1.4V23.933a2.993,2.993,0,0,0-.086-.875.591.591,0,0,0-.614-.4,1.164,1.164,0,0,0-.209.02c-.07.012-.266.065-.589.155v-.3l.417-.135q1.706-.558,2.381-.839a1.275,1.275,0,0,1,.352-.119.557.557,0,0,1,.02.147v7a2.278,2.278,0,0,0,.27,1.395,2.022,2.022,0,0,0,1.215.36v.274h-4.737v-.274ZM280.85,17.3a1.012,1.012,0,0,1,1.436-.008.988.988,0,0,1,.3.724.945.945,0,0,1-.3.712,1.022,1.022,0,0,1-1.436,0,.966.966,0,0,1-.29-.712A.991.991,0,0,1,280.85,17.3Z" transform="translate(-262.046 -5.373)" fill="#263238"/>
          <g id="Grupo_1006998" data-name="Grupo 1006998" transform="translate(29.136 33.076)">
            <path id="Trazado_717752" data-name="Trazado 717752" d="M250.63,71.921a2.291,2.291,0,1,0,2.291-2.291A2.292,2.292,0,0,0,250.63,71.921Z" transform="translate(-250.617 -69.551)" fill="#fff"/>
            <path id="Trazado_717753" data-name="Trazado 717753" d="M250.373,71.806c.02,0,.016-.2.11-.548a2.266,2.266,0,0,1,.839-1.211,2.2,2.2,0,1,1,0,3.526,2.3,2.3,0,0,1-.839-1.211c-.094-.344-.09-.552-.11-.548s-.012.049-.012.147a2.1,2.1,0,0,0,.045.421,2.3,2.3,0,0,0,.826,1.313,2.366,2.366,0,0,0,3.362-.466,2.408,2.408,0,0,0,.47-1.415,2.371,2.371,0,0,0-.47-1.415,2.323,2.323,0,0,0-1.117-.826,2.364,2.364,0,0,0-2.246.364,2.261,2.261,0,0,0-.826,1.313,1.645,1.645,0,0,0-.045.421.452.452,0,0,0,.012.147Z" transform="translate(-250.36 -69.437)" fill="#263238"/>
          </g>
        </g>
      </g>
    </g>
  </g>
</svg>
