<svg xmlns="http://www.w3.org/2000/svg" xmlns:xlink="http://www.w3.org/1999/xlink" width="1329" height="779" viewBox="0 0 1329 779">
  <defs>
    <linearGradient id="linear-gradient" x1="0.5" x2="0.5" y2="1" gradientUnits="objectBoundingBox">
      <stop offset="0" stop-color="#fff"/>
      <stop offset="1" stop-color="#fff" stop-opacity="0"/>
    </linearGradient>
    <clipPath id="clip-path">
      <rect id="Rectángulo_345161" data-name="Rectángulo 345161" width="1329" height="774" transform="translate(136 7248)" fill="#636363" opacity="0.25"/>
    </clipPath>
    <linearGradient id="linear-gradient-2" y1="1" y2="0" xlink:href="#linear-gradient"/>
  </defs>
  <g id="Grupo_1012550" data-name="Grupo 1012550" transform="translate(-136 -7243)">
    <rect id="Rectángulo_344420" data-name="Rectángulo 344420" width="1328" height="774" transform="translate(136 7248)" fill="#ffdeb7" opacity="0.15"/>
    <rect id="Rectángulo_345264" data-name="Rectángulo 345264" width="1329" height="78" transform="translate(136 7243)" fill="url(#linear-gradient)"/>
    <g id="Enmascarar_grupo_1011283" data-name="Enmascarar grupo 1011283" clip-path="url(#clip-path)">
      <g id="Grupo_990811" data-name="Grupo 990811" transform="translate(34 7290.977)" opacity="0.39">
        <g id="Grupo_990789" data-name="Grupo 990789" transform="translate(0 0)">
          <path id="Trazado_699610" data-name="Trazado 699610" d="M213.129,91.593a2.168,2.168,0,1,1-2.3,2.165,2.236,2.236,0,0,1,2.3-2.165m-16.362,2.165a2.305,2.305,0,1,0,2.3-2.165,2.236,2.236,0,0,0-2.3,2.165m-14.052,0a2.305,2.305,0,1,0,2.3-2.165,2.233,2.233,0,0,0-2.3,2.165M4.6,80.674a2.1,2.1,0,0,0-.765-1.6c-.34,1.224-.674,2.452-.972,3.693A2.193,2.193,0,0,0,4.6,80.674M168.659,93.757a2.306,2.306,0,1,0,2.3-2.165,2.233,2.233,0,0,0-2.3,2.165M2.3,95.92a2.168,2.168,0,1,0,0-4.327,2.41,2.41,0,0,0-1.2.324c-.165,1.114-.315,2.23-.442,3.355A2.363,2.363,0,0,0,2.3,95.92m67.975-2.162a2.306,2.306,0,1,0,2.3-2.165,2.233,2.233,0,0,0-2.3,2.165m42.165,0a2.307,2.307,0,1,0,2.3-2.165,2.233,2.233,0,0,0-2.3,2.165m-14.057,0a2.307,2.307,0,1,0,2.3-2.165,2.235,2.235,0,0,0-2.3,2.165m-14.053,0a2.3,2.3,0,1,0,2.3-2.165,2.234,2.234,0,0,0-2.3,2.165m42.168,0a2.3,2.3,0,1,0,2.3-2.165,2.23,2.23,0,0,0-2.3,2.165m70.269-13.083a2.3,2.3,0,1,0,2.3-2.168,2.242,2.242,0,0,0-2.3,2.168M140.55,93.757a2.307,2.307,0,1,0,2.3-2.165,2.233,2.233,0,0,0-2.3,2.165m14.055,0a2.306,2.306,0,1,0,2.306-2.165,2.232,2.232,0,0,0-2.306,2.165m14.055-13.083a2.306,2.306,0,1,0,2.3-2.168,2.24,2.24,0,0,0-2.3,2.168m-42.161,0a2.3,2.3,0,1,0,2.3-2.168,2.237,2.237,0,0,0-2.3,2.168m14.052,0a2.306,2.306,0,1,0,2.3-2.168,2.239,2.239,0,0,0-2.3,2.168m-112.439,0a2.306,2.306,0,1,0,2.3-2.168,2.238,2.238,0,0,0-2.3,2.168m154.6,0a2.3,2.3,0,1,0,2.3-2.168,2.24,2.24,0,0,0-2.3,2.168m28.109,0a2.306,2.306,0,1,0,2.3-2.168,2.244,2.244,0,0,0-2.3,2.168m-56.22,0a2.306,2.306,0,1,0,2.306-2.168,2.239,2.239,0,0,0-2.306,2.168m-98.387,0a2.308,2.308,0,1,0,2.3-2.168,2.243,2.243,0,0,0-2.3,2.168m-14.051,0a2.306,2.306,0,1,0,2.3-2.168,2.24,2.24,0,0,0-2.3,2.168m28.109,0a2.306,2.306,0,1,0,2.3-2.168,2.239,2.239,0,0,0-2.3,2.168m42.165,0a2.306,2.306,0,1,0,2.3-2.168,2.239,2.239,0,0,0-2.3,2.168m-28.111,0a2.3,2.3,0,1,0,2.3-2.168,2.241,2.241,0,0,0-2.3,2.168m14.053,0a2.306,2.306,0,1,0,2.3-2.168,2.241,2.241,0,0,0-2.3,2.168m-84.329,0a2.306,2.306,0,1,0,2.3-2.168,2.241,2.241,0,0,0-2.3,2.168M56.217,93.757a2.308,2.308,0,1,0,2.3-2.165,2.236,2.236,0,0,0-2.3,2.165M42.166,106.842a2.306,2.306,0,1,0,2.3-2.166,2.236,2.236,0,0,0-2.3,2.166m-28.112,0a2.307,2.307,0,1,0,2.3-2.166,2.236,2.236,0,0,0-2.3,2.166m42.162,0a2.308,2.308,0,1,0,2.3-2.166,2.239,2.239,0,0,0-2.3,2.166M2.3,122.094a2.171,2.171,0,1,0,0-4.333,2.35,2.35,0,0,0-1.646.653c.127,1.127.277,2.238.442,3.352a2.412,2.412,0,0,0,1.2.328m67.975-15.252a2.306,2.306,0,1,0,2.3-2.166,2.235,2.235,0,0,0-2.3,2.166M154.6,119.926a2.306,2.306,0,1,0,2.306-2.165,2.239,2.239,0,0,0-2.306,2.165M84.33,106.842a2.3,2.3,0,1,0,2.3-2.166,2.236,2.236,0,0,0-2.3,2.166m56.22,13.083a2.307,2.307,0,1,0,2.3-2.165,2.239,2.239,0,0,0-2.3,2.165m56.217,0a2.305,2.305,0,1,0,2.3-2.165,2.243,2.243,0,0,0-2.3,2.165m-28.108,0a2.306,2.306,0,1,0,2.3-2.165,2.24,2.24,0,0,0-2.3,2.165m42.165,0a2.306,2.306,0,1,0,2.3-2.165,2.244,2.244,0,0,0-2.3,2.165m-28.109,0a2.305,2.305,0,1,0,2.3-2.165,2.24,2.24,0,0,0-2.3,2.165m-154.6-13.083a2.306,2.306,0,1,0,2.3-2.166,2.234,2.234,0,0,0-2.3,2.166M0,106.842a2.235,2.235,0,0,0,2.3,2.167,2.171,2.171,0,1,0,0-4.333A2.236,2.236,0,0,0,0,106.842M14.055,93.757a2.307,2.307,0,1,0,2.3-2.165,2.234,2.234,0,0,0-2.3,2.165m196.77,13.085a2.306,2.306,0,1,0,2.3-2.166,2.239,2.239,0,0,0-2.3,2.166m-14.057,0a2.305,2.305,0,1,0,2.3-2.166,2.238,2.238,0,0,0-2.3,2.166M28.111,93.757a2.306,2.306,0,1,0,2.3-2.165,2.231,2.231,0,0,0-2.3,2.165m14.056,0a2.306,2.306,0,1,0,2.3-2.165,2.233,2.233,0,0,0-2.3,2.165M126.5,106.842a2.3,2.3,0,1,0,2.3-2.166,2.233,2.233,0,0,0-2.3,2.166m14.052,0a2.307,2.307,0,1,0,2.3-2.166,2.235,2.235,0,0,0-2.3,2.166m-42.166,0a2.307,2.307,0,1,0,2.3-2.166,2.237,2.237,0,0,0-2.3,2.166m84.332,0a2.305,2.305,0,1,0,2.3-2.166,2.236,2.236,0,0,0-2.3,2.166m-70.274,0a2.307,2.307,0,1,0,2.3-2.166,2.235,2.235,0,0,0-2.3,2.166m56.218,0a2.306,2.306,0,1,0,2.3-2.166,2.235,2.235,0,0,0-2.3,2.166m-14.055,0a2.306,2.306,0,1,0,2.306-2.166,2.235,2.235,0,0,0-2.306,2.166M70.276,15.252a2.306,2.306,0,1,0,2.3-2.166,2.232,2.232,0,0,0-2.3,2.166M182.715,54.5a2.305,2.305,0,1,0,2.3-2.165,2.23,2.23,0,0,0-2.3,2.165M112.441,28.338a2.306,2.306,0,1,0,2.3-2.168,2.239,2.239,0,0,0-2.3,2.168m-28.111,0a2.3,2.3,0,1,0,2.3-2.168,2.24,2.24,0,0,0-2.3,2.168m14.053,0a2.306,2.306,0,1,0,2.3-2.168,2.241,2.241,0,0,0-2.3,2.168m42.166,0a2.306,2.306,0,1,0,2.3-2.168,2.239,2.239,0,0,0-2.3,2.168m28.109,0a2.306,2.306,0,1,0,2.3-2.168,2.239,2.239,0,0,0-2.3,2.168m18.658,0a2.3,2.3,0,1,0-2.3,2.168,2.236,2.236,0,0,0,2.3-2.168m-44.466-24a2.283,2.283,0,0,0,2.221-1.624c-1.473-.376-2.951-.734-4.452-1.058a2.162,2.162,0,0,0-.07.514,2.238,2.238,0,0,0,2.3,2.167M213.129,157.01a2.167,2.167,0,1,0,.742,4.2c.516-.819,1.022-1.648,1.5-2.486a2.271,2.271,0,0,0-2.245-1.718M70.276,28.338a2.306,2.306,0,1,0,2.3-2.168,2.239,2.239,0,0,0-2.3,2.168m84.329,0a2.306,2.306,0,1,0,2.306-2.168,2.238,2.238,0,0,0-2.306,2.168m-112.438,0a2.306,2.306,0,1,0,2.3-2.168,2.239,2.239,0,0,0-2.3,2.168m14.051,0a2.308,2.308,0,1,0,2.3-2.168,2.242,2.242,0,0,0-2.3,2.168m70.281,0a2.3,2.3,0,1,0,2.3-2.168,2.236,2.236,0,0,0-2.3,2.168m42.161-13.086a2.306,2.306,0,1,0,2.3-2.166,2.232,2.232,0,0,0-2.3,2.166M98.383,2.17a2.306,2.306,0,0,0,4.6,0,2.306,2.306,0,0,0-4.6,0M154.6,15.252a2.306,2.306,0,1,0,2.306-2.166,2.232,2.232,0,0,0-2.306,2.166m-98.387,0a2.308,2.308,0,1,0,2.3-2.166,2.235,2.235,0,0,0-2.3,2.166M112.441,2.17a2.306,2.306,0,0,0,4.6,0,2.306,2.306,0,0,0-4.6,0m14.057,0a2.3,2.3,0,0,0,4.6,0,2.3,2.3,0,0,0-4.6,0M86.63,4.337a2.237,2.237,0,0,0,2.3-2.167,1.686,1.686,0,0,0-.075-.514c-1.5.324-2.971.682-4.441,1.058A2.273,2.273,0,0,0,86.63,4.337M98.383,15.252a2.307,2.307,0,1,0,2.3-2.166,2.234,2.234,0,0,0-2.3,2.166m-14.053,0a2.3,2.3,0,1,0,2.3-2.166,2.233,2.233,0,0,0-2.3,2.166M126.5,119.926a2.3,2.3,0,1,0,2.3-2.165,2.237,2.237,0,0,0-2.3,2.165m0-104.674a2.3,2.3,0,1,0,2.3-2.166,2.229,2.229,0,0,0-2.3,2.166m14.052,0a2.307,2.307,0,1,0,2.3-2.166,2.232,2.232,0,0,0-2.3,2.166m-28.109,0a2.307,2.307,0,1,0,2.3-2.166,2.232,2.232,0,0,0-2.3,2.166m98.383,52.341a2.306,2.306,0,1,0,2.3-2.166,2.24,2.24,0,0,0-2.3,2.166m-70.274,0a2.307,2.307,0,1,0,2.3-2.166,2.235,2.235,0,0,0-2.3,2.166m-14.052,0a2.3,2.3,0,1,0,2.3-2.166,2.233,2.233,0,0,0-2.3,2.166m28.106,0a2.306,2.306,0,1,0,2.306-2.166,2.235,2.235,0,0,0-2.306,2.166m14.055,0a2.306,2.306,0,1,0,2.3-2.166,2.235,2.235,0,0,0-2.3,2.166m14.056,0a2.305,2.305,0,1,0,2.3-2.166,2.236,2.236,0,0,0-2.3,2.166m-70.274,0a2.307,2.307,0,1,0,2.3-2.166,2.235,2.235,0,0,0-2.3,2.166m-84.33,0a2.306,2.306,0,1,0,2.3-2.166,2.234,2.234,0,0,0-2.3,2.166m14.056,0a2.306,2.306,0,1,0,2.3-2.166,2.236,2.236,0,0,0-2.3,2.166m14.051,0a2.308,2.308,0,1,0,2.3-2.166,2.239,2.239,0,0,0-2.3,2.166m-42.162,0a2.307,2.307,0,1,0,2.3-2.166,2.236,2.236,0,0,0-2.3,2.166m84.329,0a2.307,2.307,0,1,0,2.3-2.166,2.237,2.237,0,0,0-2.3,2.166m-28.108,0a2.306,2.306,0,1,0,2.3-2.166,2.235,2.235,0,0,0-2.3,2.166m14.055,0a2.3,2.3,0,1,0,2.3-2.166,2.236,2.236,0,0,0-2.3,2.166M196.767,54.5a2.305,2.305,0,1,0,2.3-2.165,2.233,2.233,0,0,0-2.3,2.165m-56.217,0a2.307,2.307,0,1,0,2.3-2.165,2.229,2.229,0,0,0-2.3,2.165m-14.052,0a2.3,2.3,0,1,0,2.3-2.165,2.227,2.227,0,0,0-2.3,2.165m70.269,13.09a2.305,2.305,0,1,0,2.3-2.166,2.238,2.238,0,0,0-2.3,2.166M98.383,54.5a2.307,2.307,0,1,0,2.3-2.165,2.231,2.231,0,0,0-2.3,2.165m70.276,0a2.306,2.306,0,1,0,2.3-2.165,2.23,2.23,0,0,0-2.3,2.165m-14.055,0a2.306,2.306,0,1,0,2.306-2.165A2.229,2.229,0,0,0,154.6,54.5m-42.164,0a2.307,2.307,0,1,0,2.3-2.165,2.229,2.229,0,0,0-2.3,2.165m-70.274,0a2.306,2.306,0,1,0,2.3-2.165,2.23,2.23,0,0,0-2.3,2.165m-14.056,0a2.306,2.306,0,1,0,2.3-2.165,2.228,2.228,0,0,0-2.3,2.165m42.165,0a2.306,2.306,0,1,0,2.3-2.165,2.229,2.229,0,0,0-2.3,2.165m-14.059,0a2.308,2.308,0,1,0,2.3-2.165,2.233,2.233,0,0,0-2.3,2.165m28.113,0a2.3,2.3,0,1,0,2.3-2.165,2.231,2.231,0,0,0-2.3,2.165M131.1,198.432a2.3,2.3,0,1,0-2.3,2.165,2.236,2.236,0,0,0,2.3-2.165M60.824,41.421a2.308,2.308,0,1,0-2.3,2.166,2.236,2.236,0,0,0,2.3-2.166M227.181,91.593a2.168,2.168,0,1,0,0,4.327,2.369,2.369,0,0,0,1.643-.648c-.126-1.13-.276-2.24-.441-3.355a2.4,2.4,0,0,0-1.2-.324M74.879,41.421a2.306,2.306,0,1,0-2.3,2.166,2.234,2.234,0,0,0,2.3-2.166m14.052,0a2.3,2.3,0,1,0-2.3,2.166,2.233,2.233,0,0,0,2.3-2.166M210.824,54.5a2.234,2.234,0,0,0,2.3,2.162,2.262,2.262,0,0,0,2.245-1.713c-.48-.833-.986-1.662-1.5-2.486a2.385,2.385,0,0,0-.742-.127,2.241,2.241,0,0,0-2.3,2.165m14.055,26.171a2.2,2.2,0,0,0,1.733,2.091c-.3-1.241-.627-2.468-.97-3.693a2.1,2.1,0,0,0-.763,1.6M46.77,41.421a2.306,2.306,0,1,0-2.3,2.166,2.236,2.236,0,0,0,2.3-2.166m112.438,0a2.306,2.306,0,1,0-2.3,2.166,2.234,2.234,0,0,0,2.3-2.166m14.055,0a2.306,2.306,0,1,0-2.3,2.166,2.236,2.236,0,0,0,2.3-2.166m14.055,0a2.305,2.305,0,1,0-2.3,2.166,2.234,2.234,0,0,0,2.3-2.166m-42.162,0a2.307,2.307,0,1,0-2.3,2.166,2.237,2.237,0,0,0,2.3-2.166m-28.109,0a2.307,2.307,0,1,0-2.3,2.166,2.236,2.236,0,0,0,2.3-2.166m14.052,0a2.3,2.3,0,1,0-2.3,2.166,2.235,2.235,0,0,0,2.3-2.166m-28.109,0a2.307,2.307,0,1,0-2.3,2.166,2.237,2.237,0,0,0,2.3-2.166m-4.6,130.846a2.306,2.306,0,1,0,2.3-2.17,2.24,2.24,0,0,0-2.3,2.17m14.057,0a2.306,2.306,0,1,0,2.3-2.17,2.238,2.238,0,0,0-2.3,2.17m-28.111,0a2.3,2.3,0,1,0,2.3-2.17,2.24,2.24,0,0,0-2.3,2.17m56.22,0a2.306,2.306,0,1,0,2.3-2.17,2.238,2.238,0,0,0-2.3,2.17m-70.274,0a2.306,2.306,0,1,0,2.3-2.17,2.238,2.238,0,0,0-2.3,2.17m56.222,0a2.3,2.3,0,1,0,2.3-2.17,2.236,2.236,0,0,0-2.3,2.17m100.683-67.591a2.171,2.171,0,1,0,2.3,2.166,2.236,2.236,0,0,0-2.3-2.166M56.217,172.267a2.308,2.308,0,1,0,2.3-2.17,2.242,2.242,0,0,0-2.3,2.17M224.879,133.01a2.094,2.094,0,0,0,.763,1.6c.343-1.222.674-2.452.97-3.688a2.184,2.184,0,0,0-1.733,2.088m2.3-15.249a2.17,2.17,0,1,0,0,4.333,2.4,2.4,0,0,0,1.2-.328c.165-1.114.315-2.225.441-3.352a2.356,2.356,0,0,0-1.643-.653m-25.812,54.506a2.305,2.305,0,1,0-2.3,2.167,2.233,2.233,0,0,0,2.3-2.167m-173.258,0a2.306,2.306,0,1,0,2.3-2.17,2.237,2.237,0,0,0-2.3,2.17m14.056,0a2.306,2.306,0,1,0,2.3-2.17,2.239,2.239,0,0,0-2.3,2.17m131.1,26.166a2.306,2.306,0,1,0-2.3,2.165,2.237,2.237,0,0,0,2.3-2.165M88.931,185.35a2.3,2.3,0,1,0-2.3,2.163,2.239,2.239,0,0,0,2.3-2.163m14.057,0a2.307,2.307,0,1,0-2.3,2.163,2.243,2.243,0,0,0,2.3-2.163m28.109,0a2.3,2.3,0,1,0-2.3,2.163,2.241,2.241,0,0,0,2.3-2.163m-14.052,0a2.307,2.307,0,1,0-2.3,2.163,2.242,2.242,0,0,0,2.3-2.163m-56.221,0a2.308,2.308,0,1,0-2.3,2.163,2.242,2.242,0,0,0,2.3-2.163m93.78-13.083a2.306,2.306,0,1,0,2.306-2.17,2.238,2.238,0,0,0-2.306,2.17M74.879,185.35a2.306,2.306,0,1,0-2.3,2.163,2.24,2.24,0,0,0,2.3-2.163m-32.712,0a2.305,2.305,0,1,0,2.3-2.172,2.238,2.238,0,0,0-2.3,2.172m145.15,0a2.305,2.305,0,1,0-2.3,2.163,2.24,2.24,0,0,0,2.3-2.163M88.931,211.518a2.232,2.232,0,0,0-2.3-2.167,2.272,2.272,0,0,0-2.215,1.616c1.47.377,2.951.74,4.441,1.065a1.7,1.7,0,0,0,.075-.514m23.51-91.593a2.307,2.307,0,1,0,2.3-2.165,2.239,2.239,0,0,0-2.3,2.165m46.767,65.425a2.306,2.306,0,1,0-2.3,2.163,2.241,2.241,0,0,0,2.3-2.163m-14.053,0a2.307,2.307,0,1,0-2.3,2.163,2.243,2.243,0,0,0,2.3-2.163m-2.3,24a2.233,2.233,0,0,0-2.3,2.167,2.18,2.18,0,0,0,.07.514c1.5-.325,2.979-.688,4.452-1.065a2.282,2.282,0,0,0-2.221-1.616m-30.41,2.167a2.306,2.306,0,1,0,2.3-2.167,2.237,2.237,0,0,0-2.3,2.167m88.928-170.1a2.305,2.305,0,1,0-2.3,2.166,2.231,2.231,0,0,0,2.3-2.166M98.383,211.518a2.306,2.306,0,1,0,2.3-2.167,2.239,2.239,0,0,0-2.3,2.167m32.714,0a2.3,2.3,0,1,0-2.3,2.163,2.233,2.233,0,0,0,2.3-2.163m28.111-13.086a2.306,2.306,0,1,0-2.3,2.165,2.236,2.236,0,0,0,2.3-2.165M16.354,56.665a2.168,2.168,0,1,0,0-4.327,2.442,2.442,0,0,0-.749.127q-.764,1.237-1.5,2.486a2.269,2.269,0,0,0,2.247,1.713M28.111,41.421a2.306,2.306,0,1,0,2.3-2.165,2.234,2.234,0,0,0-2.3,2.165m88.935,157.011a2.307,2.307,0,1,0-2.3,2.165,2.237,2.237,0,0,0,2.3-2.165m-42.166,0a2.306,2.306,0,1,0-2.3,2.165,2.235,2.235,0,0,0,2.3-2.165m28.109,0a2.307,2.307,0,1,0-2.3,2.165,2.238,2.238,0,0,0,2.3-2.165m42.166,0a2.307,2.307,0,1,0-2.3,2.165,2.238,2.238,0,0,0,2.3-2.165m-56.224,0a2.3,2.3,0,1,0-2.3,2.165,2.234,2.234,0,0,0,2.3-2.165m-28.106,0a2.308,2.308,0,1,0-2.3,2.165,2.237,2.237,0,0,0,2.3-2.165M173.262,185.35a2.306,2.306,0,1,0-2.3,2.163,2.242,2.242,0,0,0,2.3-2.163M70.276,133.01a2.306,2.306,0,1,0,2.3-2.168,2.234,2.234,0,0,0-2.3,2.168m14.055,0a2.3,2.3,0,1,0,2.3-2.168,2.236,2.236,0,0,0-2.3,2.168m-28.113,0a2.308,2.308,0,1,0,2.3-2.168,2.238,2.238,0,0,0-2.3,2.168m56.224,0a2.306,2.306,0,1,0,2.3-2.168,2.234,2.234,0,0,0-2.3,2.168m14.057,0a2.3,2.3,0,1,0,2.3-2.168,2.232,2.232,0,0,0-2.3,2.168m-84.332,0a2.306,2.306,0,1,0,2.3-2.168,2.235,2.235,0,0,0-2.3,2.168m56.217,0a2.306,2.306,0,1,0,2.3-2.168,2.236,2.236,0,0,0-2.3,2.168m98.383,13.083a2.305,2.305,0,1,0,2.3-2.165,2.236,2.236,0,0,0-2.3,2.165M28.111,133.01a2.306,2.306,0,1,0,2.3-2.168,2.233,2.233,0,0,0-2.3,2.168m154.6,13.083a2.305,2.305,0,1,0,2.3-2.165,2.234,2.234,0,0,0-2.3,2.165m28.109,0a2.306,2.306,0,1,0,2.3-2.165,2.237,2.237,0,0,0-2.3,2.165M14.055,133.01a2.306,2.306,0,1,0,2.3-2.168,2.236,2.236,0,0,0-2.3,2.168m-9.45,0a2.182,2.182,0,0,0-1.737-2.088c.3,1.236.631,2.466.972,3.688a2.1,2.1,0,0,0,.765-1.6m23.506-13.085a2.306,2.306,0,1,0,2.3-2.165,2.238,2.238,0,0,0-2.3,2.165m42.165,0a2.306,2.306,0,1,0,2.3-2.165,2.239,2.239,0,0,0-2.3,2.165m98.383,26.168a2.306,2.306,0,1,0,2.3-2.165,2.233,2.233,0,0,0-2.3,2.165M42.166,119.926a2.306,2.306,0,1,0,2.3-2.165,2.24,2.24,0,0,0-2.3,2.165M140.55,133.01a2.306,2.306,0,1,0,2.3-2.168,2.234,2.234,0,0,0-2.3,2.168M84.33,119.926a2.3,2.3,0,1,0,2.3-2.165,2.241,2.241,0,0,0-2.3,2.165m14.053,0a2.307,2.307,0,1,0,2.3-2.165,2.241,2.241,0,0,0-2.3,2.165m-42.166,0a2.308,2.308,0,1,0,2.3-2.165,2.243,2.243,0,0,0-2.3,2.165M168.659,133.01a2.306,2.306,0,1,0,2.3-2.168,2.235,2.235,0,0,0-2.3,2.168m14.056,0a2.3,2.3,0,1,0,2.3-2.168,2.235,2.235,0,0,0-2.3,2.168m-28.111,0a2.306,2.306,0,1,0,2.306-2.168,2.234,2.234,0,0,0-2.306,2.168M14.055,119.926a2.307,2.307,0,1,0,2.3-2.165,2.241,2.241,0,0,0-2.3,2.165m196.77,13.085a2.306,2.306,0,1,0,2.3-2.168,2.239,2.239,0,0,0-2.3,2.168m-14.057,0a2.3,2.3,0,1,0,2.3-2.168,2.238,2.238,0,0,0-2.3,2.168m-14.052,26.168a2.3,2.3,0,1,0,2.3-2.168,2.235,2.235,0,0,0-2.3,2.168m-56.217,0a2.3,2.3,0,1,0,2.3-2.168,2.231,2.231,0,0,0-2.3,2.168m-14.057,0a2.306,2.306,0,1,0,2.3-2.168,2.234,2.234,0,0,0-2.3,2.168m28.109,0a2.306,2.306,0,1,0,2.3-2.168,2.234,2.234,0,0,0-2.3,2.168m-42.166,0a2.306,2.306,0,1,0,2.3-2.168,2.236,2.236,0,0,0-2.3,2.168m56.221,0a2.306,2.306,0,1,0,2.306-2.168,2.234,2.234,0,0,0-2.306,2.168m14.055,0a2.306,2.306,0,1,0,2.3-2.168,2.234,2.234,0,0,0-2.3,2.168m-140.549,0a2.306,2.306,0,1,0,2.3-2.168,2.232,2.232,0,0,0-2.3,2.168m14.056,0a2.306,2.306,0,1,0,2.3-2.168,2.235,2.235,0,0,0-2.3,2.168m42.164,0a2.3,2.3,0,1,0,2.3-2.168,2.235,2.235,0,0,0-2.3,2.168m84.329,13.088a2.306,2.306,0,1,0,2.3-2.17,2.239,2.239,0,0,0-2.3,2.17m28.108-13.088a2.3,2.3,0,1,0,2.3-2.168,2.237,2.237,0,0,0-2.3,2.168m-126.491,0a2.306,2.306,0,1,0,2.3-2.168,2.234,2.234,0,0,0-2.3,2.168m-14.059,0a2.308,2.308,0,1,0,2.3-2.168,2.237,2.237,0,0,0-2.3,2.168M28.111,146.094a2.306,2.306,0,1,0,2.3-2.165,2.231,2.231,0,0,0-2.3,2.165m84.33,0a2.307,2.307,0,1,0,2.3-2.165,2.233,2.233,0,0,0-2.3,2.165m-14.057,0a2.307,2.307,0,1,0,2.3-2.165,2.235,2.235,0,0,0-2.3,2.165m-14.053,0a2.3,2.3,0,1,0,2.3-2.165,2.234,2.234,0,0,0-2.3,2.165m56.22,0a2.307,2.307,0,1,0,2.3-2.165,2.233,2.233,0,0,0-2.3,2.165m-14.052,0a2.3,2.3,0,1,0,2.3-2.165,2.231,2.231,0,0,0-2.3,2.165m-56.222,0a2.306,2.306,0,1,0,2.3-2.165,2.233,2.233,0,0,0-2.3,2.165m112.439,26.173a2.3,2.3,0,1,0,2.3-2.17,2.239,2.239,0,0,0-2.3,2.17M18.659,159.178a2.237,2.237,0,0,0-2.3-2.168,2.276,2.276,0,0,0-2.247,1.718q.732,1.258,1.5,2.486a2.3,2.3,0,0,0,.749.129,2.237,2.237,0,0,0,2.3-2.165m-4.6-13.085a2.307,2.307,0,1,0,2.3-2.165,2.234,2.234,0,0,0-2.3,2.165m140.55,0a2.306,2.306,0,1,0,2.306-2.165,2.233,2.233,0,0,0-2.306,2.165m-112.438,0a2.306,2.306,0,1,0,2.3-2.165,2.234,2.234,0,0,0-2.3,2.165m14.051,0a2.308,2.308,0,1,0,2.3-2.165,2.237,2.237,0,0,0-2.3,2.165" transform="translate(-69 -0.411)" fill="#ffa031"/>
          <path id="Trazado_699611" data-name="Trazado 699611" d="M920.27,309.036a1.95,1.95,0,1,1-2.024,1.949,1.986,1.986,0,0,1,2.024-1.949M905.9,310.986a2.02,2.02,0,1,0,2.022-1.949,1.985,1.985,0,0,0-2.022,1.949m-12.339,0a2.021,2.021,0,1,0,2.019-1.949,1.983,1.983,0,0,0-2.019,1.949M737.165,299.2a1.909,1.909,0,0,0-.672-1.441c-.3,1.1-.592,2.207-.852,3.326a1.964,1.964,0,0,0,1.524-1.885m144.056,11.783a2.023,2.023,0,1,0,2.023-1.949,1.984,1.984,0,0,0-2.023,1.949m-146.078,1.947a1.95,1.95,0,1,0,0-3.9,2.085,2.085,0,0,0-1.058.292c-.144,1-.275,2.01-.387,3.021a2.044,2.044,0,0,0,1.445.584m59.687-1.947a2.023,2.023,0,1,0,2.02-1.949,1.984,1.984,0,0,0-2.02,1.949m37.026,0a2.024,2.024,0,1,0,2.022-1.949,1.984,1.984,0,0,0-2.022,1.949m-12.344,0a2.023,2.023,0,1,0,2.023-1.949,1.985,1.985,0,0,0-2.023,1.949m-12.34,0a2.021,2.021,0,1,0,2.019-1.949,1.984,1.984,0,0,0-2.019,1.949m37.027,0a2.02,2.02,0,1,0,2.018-1.949,1.981,1.981,0,0,0-2.018,1.949M905.9,299.2a2.02,2.02,0,1,0,2.022-1.952A1.991,1.991,0,0,0,905.9,299.2m-49.364,11.783a2.022,2.022,0,1,0,2.019-1.949,1.982,1.982,0,0,0-2.019,1.949m12.34,0a2.023,2.023,0,1,0,2.025-1.949,1.983,1.983,0,0,0-2.025,1.949M881.221,299.2a2.023,2.023,0,1,0,2.023-1.952,1.99,1.99,0,0,0-2.023,1.952m-37.021,0a2.02,2.02,0,1,0,2.018-1.952A1.987,1.987,0,0,0,844.2,299.2m12.34,0a2.022,2.022,0,1,0,2.019-1.952,1.988,1.988,0,0,0-2.019,1.952m-98.734,0a2.022,2.022,0,1,0,2.018-1.952,1.988,1.988,0,0,0-2.018,1.952m135.759,0a2.021,2.021,0,1,0,2.019-1.952,1.989,1.989,0,0,0-2.019,1.952m24.681,0a2.022,2.022,0,1,0,2.024-1.952,1.993,1.993,0,0,0-2.024,1.952m-49.366,0a2.023,2.023,0,1,0,2.025-1.952,1.988,1.988,0,0,0-2.025,1.952m-86.394,0a2.024,2.024,0,1,0,2.024-1.952,1.992,1.992,0,0,0-2.024,1.952m-12.337,0a2.022,2.022,0,1,0,2.019-1.952,1.988,1.988,0,0,0-2.019,1.952m24.68,0a2.023,2.023,0,1,0,2.02-1.952,1.99,1.99,0,0,0-2.02,1.952m37.026,0a2.024,2.024,0,1,0,2.022-1.952,1.99,1.99,0,0,0-2.022,1.952m-24.684,0a2.021,2.021,0,1,0,2.019-1.952,1.99,1.99,0,0,0-2.019,1.952m12.34,0a2.023,2.023,0,1,0,2.023-1.952,1.991,1.991,0,0,0-2.023,1.952m-74.049,0a2.023,2.023,0,1,0,2.019-1.952,1.99,1.99,0,0,0-2.019,1.952m37.023,11.783a2.024,2.024,0,1,0,2.024-1.949,1.986,1.986,0,0,0-2.024,1.949m-12.337,11.786a2.022,2.022,0,1,0,2.019-1.952,1.984,1.984,0,0,0-2.019,1.952m-24.686,0a2.023,2.023,0,1,0,2.019-1.952,1.986,1.986,0,0,0-2.019,1.952m37.023,0a2.024,2.024,0,1,0,2.024-1.952,1.988,1.988,0,0,0-2.024,1.952m-47.344,13.736a1.953,1.953,0,1,0,0-3.9,2.039,2.039,0,0,0-1.445.589c.112,1.014.244,2.014.387,3.018a2.09,2.09,0,0,0,1.058.3m59.687-13.736a2.023,2.023,0,1,0,2.02-1.952,1.986,1.986,0,0,0-2.02,1.952m74.05,11.782a2.023,2.023,0,1,0,2.025-1.95,1.99,1.99,0,0,0-2.025,1.95m-61.708-11.782a2.021,2.021,0,1,0,2.019-1.952,1.986,1.986,0,0,0-2.019,1.952m49.367,11.782a2.022,2.022,0,1,0,2.019-1.95,1.989,1.989,0,0,0-2.019,1.95m49.364,0a2.02,2.02,0,1,0,2.022-1.95,1.992,1.992,0,0,0-2.022,1.95m-24.683,0a2.023,2.023,0,1,0,2.023-1.95,1.991,1.991,0,0,0-2.023,1.95m37.025,0a2.022,2.022,0,1,0,2.024-1.95,1.994,1.994,0,0,0-2.024,1.95m-24.681,0a2.021,2.021,0,1,0,2.019-1.95,1.99,1.99,0,0,0-2.019,1.95M757.806,322.771a2.022,2.022,0,1,0,2.018-1.952,1.984,1.984,0,0,0-2.018,1.952m-24.684,0a2.023,2.023,0,1,0,2.02-1.952,1.985,1.985,0,0,0-2.02,1.952m12.341-11.786a2.023,2.023,0,1,0,2.019-1.949,1.984,1.984,0,0,0-2.019,1.949m172.783,11.786a2.022,2.022,0,1,0,2.024-1.952,1.989,1.989,0,0,0-2.024,1.952m-12.342,0a2.02,2.02,0,1,0,2.022-1.952,1.987,1.987,0,0,0-2.022,1.952m-148.1-11.786a2.022,2.022,0,1,0,2.018-1.949,1.982,1.982,0,0,0-2.018,1.949m12.344,0a2.022,2.022,0,1,0,2.019-1.949,1.982,1.982,0,0,0-2.019,1.949m74.05,11.786a2.02,2.02,0,1,0,2.018-1.952,1.983,1.983,0,0,0-2.018,1.952m12.34,0a2.022,2.022,0,1,0,2.019-1.952,1.984,1.984,0,0,0-2.019,1.952m-37.027,0a2.023,2.023,0,1,0,2.023-1.952,1.987,1.987,0,0,0-2.023,1.952m74.052,0a2.021,2.021,0,1,0,2.019-1.952,1.985,1.985,0,0,0-2.019,1.952m-61.709,0a2.024,2.024,0,1,0,2.022-1.952,1.986,1.986,0,0,0-2.022,1.952m49.365,0a2.023,2.023,0,1,0,2.023-1.952,1.987,1.987,0,0,0-2.023,1.952m-12.341,0a2.023,2.023,0,1,0,2.025-1.952,1.985,1.985,0,0,0-2.025,1.952m-74.05-82.488a2.023,2.023,0,1,0,2.02-1.952,1.984,1.984,0,0,0-2.02,1.952m98.735,35.351a2.021,2.021,0,1,0,2.019-1.949,1.979,1.979,0,0,0-2.019,1.949m-61.709-23.565a2.023,2.023,0,1,0,2.022-1.954,1.99,1.99,0,0,0-2.022,1.954m-24.684,0a2.021,2.021,0,1,0,2.019-1.954,1.99,1.99,0,0,0-2.019,1.954m12.34,0a2.023,2.023,0,1,0,2.023-1.954,1.991,1.991,0,0,0-2.023,1.954m37.027,0a2.022,2.022,0,1,0,2.019-1.954,1.988,1.988,0,0,0-2.019,1.954m24.681,0a2.023,2.023,0,1,0,2.023-1.954,1.99,1.99,0,0,0-2.023,1.954m16.383,0a2.021,2.021,0,1,0-2.02,1.953,1.986,1.986,0,0,0,2.02-1.953m-39.045-21.616a2.013,2.013,0,0,0,1.95-1.462c-1.293-.338-2.591-.661-3.909-.953a1.92,1.92,0,0,0-.06.463,1.987,1.987,0,0,0,2.019,1.952m61.711,137.5a1.953,1.953,0,1,0,0,3.9,1.94,1.94,0,0,0,.653-.117c.452-.737.9-1.483,1.318-2.239a2,2,0,0,0-1.971-1.548M794.829,252.069a2.023,2.023,0,1,0,2.02-1.954,1.99,1.99,0,0,0-2.02,1.954m74.05,0a2.023,2.023,0,1,0,2.025-1.954,1.989,1.989,0,0,0-2.025,1.954m-98.73,0a2.022,2.022,0,1,0,2.019-1.954,1.988,1.988,0,0,0-2.019,1.954m12.337,0a2.024,2.024,0,1,0,2.024-1.954,1.992,1.992,0,0,0-2.024,1.954m61.713,0a2.02,2.02,0,1,0,2.018-1.954,1.987,1.987,0,0,0-2.018,1.954m37.021-11.785a2.023,2.023,0,1,0,2.023-1.952,1.984,1.984,0,0,0-2.023,1.952M819.512,228.5a2.023,2.023,0,1,0,2.023-1.954,1.99,1.99,0,0,0-2.023,1.954m49.367,11.782a2.023,2.023,0,1,0,2.025-1.952,1.983,1.983,0,0,0-2.025,1.952m-86.394,0a2.024,2.024,0,1,0,2.024-1.952,1.986,1.986,0,0,0-2.024,1.952m49.37-11.782a2.023,2.023,0,1,0,2.022-1.954,1.989,1.989,0,0,0-2.022,1.954m12.344,0a2.02,2.02,0,1,0,2.018-1.954A1.986,1.986,0,0,0,844.2,228.5m-35.008,1.952a1.987,1.987,0,0,0,2.02-1.952,1.585,1.585,0,0,0-.065-.463c-1.315.292-2.609.614-3.9.953a2,2,0,0,0,1.945,1.462m10.321,9.83a2.023,2.023,0,1,0,2.023-1.952,1.985,1.985,0,0,0-2.023,1.952m-12.34,0a2.021,2.021,0,1,0,2.019-1.952,1.984,1.984,0,0,0-2.019,1.952m37.027,94.27a2.02,2.02,0,1,0,2.018-1.95,1.988,1.988,0,0,0-2.018,1.95m0-94.27a2.02,2.02,0,1,0,2.018-1.952,1.981,1.981,0,0,0-2.018,1.952m12.34,0a2.022,2.022,0,1,0,2.019-1.952,1.982,1.982,0,0,0-2.019,1.952m-24.684,0a2.024,2.024,0,1,0,2.022-1.952,1.984,1.984,0,0,0-2.022,1.952m86.39,47.14a2.022,2.022,0,1,0,2.024-1.951,1.989,1.989,0,0,0-2.024,1.951m-61.706,0a2.022,2.022,0,1,0,2.019-1.951,1.984,1.984,0,0,0-2.019,1.951m-12.34,0a2.02,2.02,0,1,0,2.018-1.951,1.983,1.983,0,0,0-2.018,1.951m24.68,0a2.023,2.023,0,1,0,2.025-1.951,1.985,1.985,0,0,0-2.025,1.951m12.341,0a2.023,2.023,0,1,0,2.023-1.951,1.986,1.986,0,0,0-2.023,1.951m12.344,0a2.021,2.021,0,1,0,2.019-1.951,1.985,1.985,0,0,0-2.019,1.951m-61.709,0a2.024,2.024,0,1,0,2.022-1.951,1.986,1.986,0,0,0-2.022,1.951m-74.05,0a2.022,2.022,0,1,0,2.018-1.951,1.984,1.984,0,0,0-2.018,1.951m12.344,0a2.022,2.022,0,1,0,2.019-1.951,1.984,1.984,0,0,0-2.019,1.951m12.337,0a2.024,2.024,0,1,0,2.024-1.951,1.988,1.988,0,0,0-2.024,1.951m-37.023,0a2.023,2.023,0,1,0,2.019-1.951,1.986,1.986,0,0,0-2.019,1.951m74.049,0a2.023,2.023,0,1,0,2.023-1.951,1.987,1.987,0,0,0-2.023,1.951m-24.683,0a2.023,2.023,0,1,0,2.02-1.951,1.986,1.986,0,0,0-2.02,1.951m12.342,0a2.021,2.021,0,1,0,2.019-1.951,1.986,1.986,0,0,0-2.019,1.951M905.9,275.634a2.02,2.02,0,1,0,2.022-1.949,1.981,1.981,0,0,0-2.022,1.949m-49.364,0a2.022,2.022,0,1,0,2.019-1.949,1.978,1.978,0,0,0-2.019,1.949m-12.34,0a2.02,2.02,0,1,0,2.018-1.949,1.977,1.977,0,0,0-2.018,1.949m61.7,11.789a2.02,2.02,0,1,0,2.022-1.951,1.987,1.987,0,0,0-2.022,1.951m-86.391-11.789a2.023,2.023,0,1,0,2.023-1.949,1.981,1.981,0,0,0-2.023,1.949m61.709,0a2.023,2.023,0,1,0,2.023-1.949,1.98,1.98,0,0,0-2.023,1.949m-12.341,0a2.023,2.023,0,1,0,2.025-1.949,1.979,1.979,0,0,0-2.025,1.949m-37.024,0a2.024,2.024,0,1,0,2.022-1.949,1.98,1.98,0,0,0-2.022,1.949m-61.706,0a2.022,2.022,0,1,0,2.019-1.949,1.978,1.978,0,0,0-2.019,1.949m-12.344,0a2.022,2.022,0,1,0,2.018-1.949,1.978,1.978,0,0,0-2.018,1.949m37.024,0a2.023,2.023,0,1,0,2.02-1.949,1.98,1.98,0,0,0-2.02,1.949m-12.344,0a2.024,2.024,0,1,0,2.024-1.949,1.982,1.982,0,0,0-2.024,1.949m24.686,0a2.021,2.021,0,1,0,2.019-1.949,1.98,1.98,0,0,0-2.019,1.949M848.238,405.26a2.021,2.021,0,1,0-2.02,1.948,1.985,1.985,0,0,0,2.02-1.948M786.531,263.852a2.024,2.024,0,1,0-2.022,1.95,1.986,1.986,0,0,0,2.022-1.95m146.076,45.185a1.95,1.95,0,1,0,0,3.9,2.053,2.053,0,0,0,1.445-.584c-.112-1.016-.242-2.018-.387-3.021a2.072,2.072,0,0,0-1.058-.292M798.873,263.852a2.023,2.023,0,1,0-2.023,1.95,1.985,1.985,0,0,0,2.023-1.95m12.339,0a2.021,2.021,0,1,0-2.02,1.95,1.983,1.983,0,0,0,2.02-1.95m107.034,11.782a2.028,2.028,0,0,0,3.995.4c-.421-.75-.866-1.5-1.318-2.239a2.09,2.09,0,0,0-.653-.114,1.989,1.989,0,0,0-2.024,1.949M930.587,299.2a1.969,1.969,0,0,0,1.521,1.885c-.26-1.118-.55-2.223-.851-3.326a1.9,1.9,0,0,0-.671,1.441m-156.4-35.351a2.022,2.022,0,1,0-2.022,1.95,1.986,1.986,0,0,0,2.022-1.95m98.732,0a2.023,2.023,0,1,0-2.018,1.95,1.986,1.986,0,0,0,2.018-1.95m12.341,0a2.023,2.023,0,1,0-2.02,1.95,1.986,1.986,0,0,0,2.02-1.95m12.34,0a2.021,2.021,0,1,0-2.02,1.95,1.983,1.983,0,0,0,2.02-1.95m-37.024,0a2.022,2.022,0,1,0-2.022,1.95,1.985,1.985,0,0,0,2.022-1.95m-24.68,0a2.024,2.024,0,1,0-2.023,1.95,1.987,1.987,0,0,0,2.023-1.95m12.338,0a2.02,2.02,0,1,0-2.02,1.95,1.985,1.985,0,0,0,2.02-1.95m-24.682,0a2.023,2.023,0,1,0-2.02,1.95,1.986,1.986,0,0,0,2.02-1.95m-4.043,117.843a2.023,2.023,0,1,0,2.023-1.954,1.989,1.989,0,0,0-2.023,1.954m12.344,0a2.023,2.023,0,1,0,2.022-1.954,1.988,1.988,0,0,0-2.022,1.954m-24.684,0a2.021,2.021,0,1,0,2.019-1.954,1.988,1.988,0,0,0-2.019,1.954m49.367,0a2.022,2.022,0,1,0,2.019-1.954,1.986,1.986,0,0,0-2.019,1.954m-61.71,0a2.023,2.023,0,1,0,2.02-1.954,1.988,1.988,0,0,0-2.02,1.954m49.37,0a2.02,2.02,0,1,0,2.018-1.954,1.985,1.985,0,0,0-2.018,1.954m88.408-60.875a1.953,1.953,0,1,0,2.023,1.952,1.987,1.987,0,0,0-2.023-1.952M782.486,381.694a2.024,2.024,0,1,0,2.024-1.954,1.99,1.99,0,0,0-2.024,1.954m148.1-35.355a1.9,1.9,0,0,0,.671,1.441c.3-1.1.591-2.209.851-3.322a1.956,1.956,0,0,0-1.521,1.881m2.02-13.735a1.953,1.953,0,1,0,0,3.9,2.077,2.077,0,0,0,1.058-.3c.145-1,.275-2,.387-3.018a2.048,2.048,0,0,0-1.445-.589m-22.666,49.09a2.02,2.02,0,1,0-2.017,1.951,1.982,1.982,0,0,0,2.017-1.951m-152.136,0a2.022,2.022,0,1,0,2.018-1.954,1.986,1.986,0,0,0-2.018,1.954m12.344,0a2.022,2.022,0,1,0,2.019-1.954,1.986,1.986,0,0,0-2.019,1.954M885.264,405.26a2.023,2.023,0,1,0-2.02,1.948,1.987,1.987,0,0,0,2.02-1.948m-74.052-11.783a2.021,2.021,0,1,0-2.02,1.948,1.988,1.988,0,0,0,2.02-1.948m12.344,0a2.023,2.023,0,1,0-2.02,1.948,1.992,1.992,0,0,0,2.02-1.948m24.682,0a2.021,2.021,0,1,0-2.02,1.948,1.99,1.99,0,0,0,2.02-1.948m-12.338,0a2.024,2.024,0,1,0-2.023,1.948,1.993,1.993,0,0,0,2.023-1.948m-49.369,0a2.024,2.024,0,1,0-2.022,1.948,1.992,1.992,0,0,0,2.022-1.948m82.348-11.782a2.023,2.023,0,1,0,2.025-1.954,1.987,1.987,0,0,0-2.025,1.954m-70.007,11.782a2.023,2.023,0,1,0-2.023,1.948,1.991,1.991,0,0,0,2.023-1.948m-28.723,0a2.021,2.021,0,1,0,2.019-1.956,1.986,1.986,0,0,0-2.019,1.956m127.455,0a2.021,2.021,0,1,0-2.02,1.948,1.989,1.989,0,0,0,2.02-1.948m-86.392,23.569a1.982,1.982,0,0,0-2.02-1.952,2,2,0,0,0-1.945,1.454c1.292.341,2.591.668,3.9.959a1.594,1.594,0,0,0,.065-.462m20.644-82.492a2.024,2.024,0,1,0,2.022-1.95,1.991,1.991,0,0,0-2.022,1.95m41.067,58.923a2.023,2.023,0,1,0-2.018,1.948,1.991,1.991,0,0,0,2.018-1.948m-12.342,0a2.022,2.022,0,1,0-2.022,1.948,1.991,1.991,0,0,0,2.022-1.948m-2.022,21.617a1.982,1.982,0,0,0-2.019,1.952,1.933,1.933,0,0,0,.06.462c1.318-.292,2.616-.619,3.909-.959a2.011,2.011,0,0,0-1.95-1.454m-26.7,1.952a2.024,2.024,0,1,0,2.022-1.952,1.988,1.988,0,0,0-2.022,1.952m78.086-153.193a2.02,2.02,0,1,0-2.017,1.95,1.981,1.981,0,0,0,2.017-1.95m-90.43,153.193a2.023,2.023,0,1,0,2.023-1.952,1.989,1.989,0,0,0-2.023,1.952m28.726,0a2.021,2.021,0,1,0-2.02,1.948,1.984,1.984,0,0,0,2.02-1.948m24.685-11.785a2.023,2.023,0,1,0-2.018,1.948,1.986,1.986,0,0,0,2.018-1.948M747.482,277.58a1.949,1.949,0,1,0,0-3.9,2.141,2.141,0,0,0-.659.114q-.671,1.114-1.314,2.239a2,2,0,0,0,1.973,1.543m10.323-13.728a2.022,2.022,0,1,0,2.018-1.949,1.984,1.984,0,0,0-2.018,1.949M835.9,405.26a2.024,2.024,0,1,0-2.023,1.948,1.987,1.987,0,0,0,2.023-1.948m-37.027,0a2.023,2.023,0,1,0-2.023,1.948,1.986,1.986,0,0,0,2.023-1.948m24.682,0a2.023,2.023,0,1,0-2.02,1.948,1.987,1.987,0,0,0,2.02-1.948m37.025,0a2.022,2.022,0,1,0-2.022,1.948,1.986,1.986,0,0,0,2.022-1.948m-49.369,0a2.021,2.021,0,1,0-2.02,1.948,1.983,1.983,0,0,0,2.02-1.948m-24.68,0a2.024,2.024,0,1,0-2.022,1.948,1.986,1.986,0,0,0,2.022-1.948m98.733-11.783a2.023,2.023,0,1,0-2.02,1.948,1.992,1.992,0,0,0,2.02-1.948m-90.434-47.138a2.023,2.023,0,1,0,2.02-1.954,1.986,1.986,0,0,0-2.02,1.954m12.342,0a2.021,2.021,0,1,0,2.019-1.954,1.986,1.986,0,0,0-2.019,1.954m-24.686,0a2.024,2.024,0,1,0,2.024-1.954,1.988,1.988,0,0,0-2.024,1.954m49.37,0a2.023,2.023,0,1,0,2.022-1.954,1.986,1.986,0,0,0-2.022,1.954m12.344,0a2.02,2.02,0,1,0,2.018-1.954,1.983,1.983,0,0,0-2.018,1.954m-74.05,0a2.022,2.022,0,1,0,2.019-1.954,1.984,1.984,0,0,0-2.019,1.954m49.363,0a2.023,2.023,0,1,0,2.023-1.954,1.987,1.987,0,0,0-2.023,1.954M905.9,358.122a2.02,2.02,0,1,0,2.022-1.95,1.985,1.985,0,0,0-2.022,1.95m-148.1-11.783a2.022,2.022,0,1,0,2.018-1.954,1.984,1.984,0,0,0-2.018,1.954m135.759,11.783a2.021,2.021,0,1,0,2.019-1.95,1.983,1.983,0,0,0-2.019,1.95m24.681,0a2.022,2.022,0,1,0,2.024-1.95,1.987,1.987,0,0,0-2.024,1.95M745.463,346.339a2.023,2.023,0,1,0,2.019-1.954,1.986,1.986,0,0,0-2.019,1.954m-8.3,0a1.952,1.952,0,0,0-1.524-1.881c.26,1.113.553,2.222.852,3.322a1.907,1.907,0,0,0,.672-1.441m20.641-11.785a2.022,2.022,0,1,0,2.018-1.95,1.989,1.989,0,0,0-2.018,1.95m37.024,0a2.023,2.023,0,1,0,2.02-1.95,1.991,1.991,0,0,0-2.02,1.95m86.391,23.569a2.023,2.023,0,1,0,2.023-1.95,1.984,1.984,0,0,0-2.023,1.95M770.149,334.554a2.022,2.022,0,1,0,2.019-1.95,1.989,1.989,0,0,0-2.019,1.95m86.39,11.785a2.022,2.022,0,1,0,2.019-1.954,1.984,1.984,0,0,0-2.019,1.954m-49.367-11.785a2.021,2.021,0,1,0,2.019-1.95,1.991,1.991,0,0,0-2.019,1.95m12.34,0a2.023,2.023,0,1,0,2.023-1.95,1.992,1.992,0,0,0-2.023,1.95m-37.026,0a2.024,2.024,0,1,0,2.024-1.95,1.993,1.993,0,0,0-2.024,1.95m98.735,11.785a2.023,2.023,0,1,0,2.023-1.954,1.987,1.987,0,0,0-2.023,1.954m12.344,0a2.021,2.021,0,1,0,2.019-1.954,1.985,1.985,0,0,0-2.019,1.954m-24.685,0a2.023,2.023,0,1,0,2.025-1.954,1.985,1.985,0,0,0-2.025,1.954M745.463,334.554a2.023,2.023,0,1,0,2.019-1.95,1.991,1.991,0,0,0-2.019,1.95m172.783,11.785a2.022,2.022,0,1,0,2.024-1.954,1.989,1.989,0,0,0-2.024,1.954m-12.342,0a2.02,2.02,0,1,0,2.022-1.954,1.987,1.987,0,0,0-2.022,1.954m-12.339,23.568a2.021,2.021,0,1,0,2.019-1.954,1.984,1.984,0,0,0-2.019,1.954m-49.365,0a2.02,2.02,0,1,0,2.018-1.954,1.983,1.983,0,0,0-2.018,1.954m-12.344,0a2.023,2.023,0,1,0,2.022-1.954,1.986,1.986,0,0,0-2.022,1.954m24.684,0a2.022,2.022,0,1,0,2.019-1.954,1.984,1.984,0,0,0-2.019,1.954m-37.027,0a2.023,2.023,0,1,0,2.023-1.954,1.987,1.987,0,0,0-2.023,1.954m49.367,0a2.023,2.023,0,1,0,2.025-1.954,1.984,1.984,0,0,0-2.025,1.954m12.341,0a2.023,2.023,0,1,0,2.023-1.954,1.986,1.986,0,0,0-2.023,1.954m-123.415,0a2.022,2.022,0,1,0,2.018-1.954,1.984,1.984,0,0,0-2.018,1.954m12.344,0a2.022,2.022,0,1,0,2.019-1.954,1.984,1.984,0,0,0-2.019,1.954m37.023,0a2.021,2.021,0,1,0,2.019-1.954,1.986,1.986,0,0,0-2.019,1.954m74.049,11.788a2.023,2.023,0,1,0,2.023-1.954,1.989,1.989,0,0,0-2.023,1.954M905.9,369.907a2.02,2.02,0,1,0,2.022-1.954,1.987,1.987,0,0,0-2.022,1.954m-111.074,0a2.023,2.023,0,1,0,2.02-1.954,1.986,1.986,0,0,0-2.02,1.954m-12.344,0a2.024,2.024,0,1,0,2.024-1.954,1.988,1.988,0,0,0-2.024,1.954m-24.68-11.784a2.022,2.022,0,1,0,2.018-1.95,1.982,1.982,0,0,0-2.018,1.95m74.05,0a2.024,2.024,0,1,0,2.022-1.95,1.984,1.984,0,0,0-2.022,1.95m-12.344,0a2.023,2.023,0,1,0,2.023-1.95,1.985,1.985,0,0,0-2.023,1.95m-12.34,0a2.021,2.021,0,1,0,2.019-1.95,1.984,1.984,0,0,0-2.019,1.95m49.367,0a2.022,2.022,0,1,0,2.019-1.95,1.982,1.982,0,0,0-2.019,1.95m-12.34,0a2.02,2.02,0,1,0,2.018-1.95,1.981,1.981,0,0,0-2.018,1.95m-49.37,0a2.023,2.023,0,1,0,2.02-1.95,1.984,1.984,0,0,0-2.02,1.95m98.735,23.572a2.021,2.021,0,1,0,2.019-1.954,1.987,1.987,0,0,0-2.019,1.954M749.506,369.907a2.028,2.028,0,0,0-4-.406q.643,1.134,1.314,2.239a2.008,2.008,0,0,0,2.683-1.833m-4.043-11.784a2.023,2.023,0,1,0,2.019-1.95,1.984,1.984,0,0,0-2.019,1.95m123.416,0a2.023,2.023,0,1,0,2.025-1.95,1.983,1.983,0,0,0-2.025,1.95m-98.73,0a2.022,2.022,0,1,0,2.019-1.95,1.982,1.982,0,0,0-2.019,1.95m12.337,0a2.024,2.024,0,1,0,2.024-1.95,1.986,1.986,0,0,0-2.024,1.95" transform="translate(506.015 370.004)" fill="#ffa031"/>
          <path id="Trazado_699627" data-name="Trazado 699627" d="M935.146,311.562a2.015,2.015,0,1,1-2.185,2.009,2.1,2.1,0,0,1,2.185-2.009m-15.508,2.009a2.187,2.187,0,1,0,2.182-2.009,2.1,2.1,0,0,0-2.182,2.009m-13.32,0a2.188,2.188,0,1,0,2.18-2.009,2.1,2.1,0,0,0-2.18,2.009M737.487,301.427a1.933,1.933,0,0,0-.725-1.485c-.323,1.136-.639,2.275-.92,3.427a2.049,2.049,0,0,0,1.645-1.942m155.507,12.144a2.19,2.19,0,1,0,2.184-2.009,2.1,2.1,0,0,0-2.184,2.009M735.3,315.578a2.015,2.015,0,1,0,0-4.016,2.332,2.332,0,0,0-1.142.3c-.155,1.034-.3,2.071-.418,3.114a2.262,2.262,0,0,0,1.56.6m64.432-2.007a2.19,2.19,0,1,0,2.181-2.009,2.1,2.1,0,0,0-2.181,2.009m39.969,0a2.191,2.191,0,1,0,2.182-2.009,2.1,2.1,0,0,0-2.182,2.009m-13.325,0a2.19,2.19,0,1,0,2.184-2.009,2.1,2.1,0,0,0-2.184,2.009m-13.321,0a2.188,2.188,0,1,0,2.18-2.009,2.1,2.1,0,0,0-2.18,2.009m39.971,0a2.187,2.187,0,1,0,2.178-2.009,2.1,2.1,0,0,0-2.178,2.009m66.609-12.144a2.187,2.187,0,1,0,2.182-2.011,2.105,2.105,0,0,0-2.182,2.011M866.35,313.571a2.188,2.188,0,1,0,2.18-2.009,2.1,2.1,0,0,0-2.18,2.009m13.321,0a2.19,2.19,0,1,0,2.186-2.009,2.1,2.1,0,0,0-2.186,2.009m13.322-12.144a2.19,2.19,0,1,0,2.184-2.011,2.1,2.1,0,0,0-2.184,2.011m-39.964,0a2.187,2.187,0,1,0,2.178-2.011,2.1,2.1,0,0,0-2.178,2.011m13.321,0a2.188,2.188,0,1,0,2.18-2.011,2.1,2.1,0,0,0-2.18,2.011m-106.582,0a2.189,2.189,0,1,0,2.179-2.011,2.1,2.1,0,0,0-2.179,2.011m146.55,0a2.187,2.187,0,1,0,2.18-2.011,2.1,2.1,0,0,0-2.18,2.011m26.643,0a2.189,2.189,0,1,0,2.185-2.011,2.108,2.108,0,0,0-2.185,2.011m-53.291,0a2.19,2.19,0,1,0,2.186-2.011,2.1,2.1,0,0,0-2.186,2.011m-93.261,0a2.191,2.191,0,1,0,2.185-2.011,2.107,2.107,0,0,0-2.185,2.011m-13.317,0a2.188,2.188,0,1,0,2.18-2.011,2.1,2.1,0,0,0-2.18,2.011m26.642,0a2.19,2.19,0,1,0,2.181-2.011,2.1,2.1,0,0,0-2.181,2.011m39.969,0a2.19,2.19,0,1,0,2.182-2.011,2.1,2.1,0,0,0-2.182,2.011m-26.646,0a2.187,2.187,0,1,0,2.18-2.011,2.1,2.1,0,0,0-2.18,2.011m13.321,0a2.19,2.19,0,1,0,2.184-2.011,2.106,2.106,0,0,0-2.184,2.011m-79.935,0a2.19,2.19,0,1,0,2.18-2.011,2.1,2.1,0,0,0-2.18,2.011m39.966,12.144a2.191,2.191,0,1,0,2.185-2.009,2.1,2.1,0,0,0-2.185,2.009m-13.317,12.146a2.188,2.188,0,1,0,2.18-2.012,2.1,2.1,0,0,0-2.18,2.012m-26.648,0a2.19,2.19,0,1,0,2.18-2.012,2.1,2.1,0,0,0-2.18,2.012m39.966,0a2.191,2.191,0,1,0,2.185-2.012,2.1,2.1,0,0,0-2.185,2.012M735.3,339.874a2.018,2.018,0,1,0,0-4.023,2.256,2.256,0,0,0-1.56.607c.121,1.045.263,2.076.418,3.11a2.337,2.337,0,0,0,1.142.305m64.432-14.157a2.19,2.19,0,1,0,2.181-2.012,2.1,2.1,0,0,0-2.181,2.012m79.936,12.143a2.19,2.19,0,1,0,2.186-2.009,2.1,2.1,0,0,0-2.186,2.009m-66.613-12.143a2.187,2.187,0,1,0,2.18-2.012,2.1,2.1,0,0,0-2.18,2.012m53.292,12.143a2.188,2.188,0,1,0,2.18-2.009,2.1,2.1,0,0,0-2.18,2.009m53.288,0a2.187,2.187,0,1,0,2.182-2.009,2.107,2.107,0,0,0-2.182,2.009m-26.645,0a2.19,2.19,0,1,0,2.184-2.009,2.106,2.106,0,0,0-2.184,2.009m39.968,0a2.189,2.189,0,1,0,2.185-2.009,2.109,2.109,0,0,0-2.185,2.009m-26.643,0a2.188,2.188,0,1,0,2.18-2.009,2.1,2.1,0,0,0-2.18,2.009m-146.55-12.143a2.189,2.189,0,1,0,2.179-2.012,2.1,2.1,0,0,0-2.179,2.012m-26.646,0a2.19,2.19,0,1,0,2.181-2.012,2.1,2.1,0,0,0-2.181,2.012m13.322-12.146a2.19,2.19,0,1,0,2.18-2.009,2.1,2.1,0,0,0-2.18,2.009m186.517,12.146a2.189,2.189,0,1,0,2.185-2.012,2.1,2.1,0,0,0-2.185,2.012m-13.324,0a2.187,2.187,0,1,0,2.182-2.012,2.1,2.1,0,0,0-2.182,2.012m-159.87-12.146a2.189,2.189,0,1,0,2.179-2.009,2.1,2.1,0,0,0-2.179,2.009m13.325,0a2.188,2.188,0,1,0,2.18-2.009,2.1,2.1,0,0,0-2.18,2.009m79.936,12.146a2.187,2.187,0,1,0,2.178-2.012,2.1,2.1,0,0,0-2.178,2.012m13.321,0a2.188,2.188,0,1,0,2.18-2.012,2.1,2.1,0,0,0-2.18,2.012m-39.971,0a2.189,2.189,0,1,0,2.184-2.012,2.1,2.1,0,0,0-2.184,2.012m79.939,0a2.187,2.187,0,1,0,2.18-2.012,2.1,2.1,0,0,0-2.18,2.012m-66.614,0a2.19,2.19,0,1,0,2.182-2.012,2.1,2.1,0,0,0-2.182,2.012m53.289,0a2.19,2.19,0,1,0,2.184-2.012,2.1,2.1,0,0,0-2.184,2.012m-13.322,0a2.19,2.19,0,1,0,2.186-2.012,2.1,2.1,0,0,0-2.186,2.012M799.735,240.7a2.19,2.19,0,1,0,2.181-2.012,2.1,2.1,0,0,0-2.181,2.012m106.584,36.433a2.188,2.188,0,1,0,2.18-2.009,2.093,2.093,0,0,0-2.18,2.009M839.7,252.85a2.19,2.19,0,1,0,2.182-2.014,2.1,2.1,0,0,0-2.182,2.014m-26.646,0a2.187,2.187,0,1,0,2.18-2.014,2.1,2.1,0,0,0-2.18,2.014m13.321,0a2.189,2.189,0,1,0,2.184-2.014,2.106,2.106,0,0,0-2.184,2.014m39.971,0a2.188,2.188,0,1,0,2.18-2.014,2.1,2.1,0,0,0-2.18,2.014m26.643,0a2.189,2.189,0,1,0,2.184-2.014,2.105,2.105,0,0,0-2.184,2.014m17.686,0a2.187,2.187,0,1,0-2.181,2.013,2.1,2.1,0,0,0,2.181-2.013M868.53,230.572a2.16,2.16,0,0,0,2.1-1.507c-1.4-.349-2.8-.681-4.22-.982a1.891,1.891,0,0,0-.065.477,2.1,2.1,0,0,0,2.18,2.012m66.617,141.71a2.018,2.018,0,1,0,0,4.023,2.183,2.183,0,0,0,.7-.121c.488-.759.968-1.528,1.423-2.308a2.144,2.144,0,0,0-2.128-1.595M799.735,252.85a2.189,2.189,0,1,0,2.181-2.014,2.1,2.1,0,0,0-2.181,2.014m79.936,0a2.189,2.189,0,1,0,2.186-2.014,2.1,2.1,0,0,0-2.186,2.014m-106.578,0a2.188,2.188,0,1,0,2.18-2.014,2.1,2.1,0,0,0-2.18,2.014m13.317,0a2.191,2.191,0,1,0,2.185-2.014,2.107,2.107,0,0,0-2.185,2.014m66.619,0a2.187,2.187,0,1,0,2.178-2.014,2.1,2.1,0,0,0-2.178,2.014M892.993,240.7a2.19,2.19,0,1,0,2.184-2.012,2.1,2.1,0,0,0-2.184,2.012m-66.614-12.143a2.189,2.189,0,1,0,2.184-2.014,2.1,2.1,0,0,0-2.184,2.014M879.671,240.7a2.19,2.19,0,1,0,2.186-2.012,2.1,2.1,0,0,0-2.186,2.012m-93.261,0a2.191,2.191,0,1,0,2.185-2.012,2.1,2.1,0,0,0-2.185,2.012M839.7,228.561a2.19,2.19,0,1,0,2.182-2.014,2.1,2.1,0,0,0-2.182,2.014m13.325,0a2.187,2.187,0,1,0,2.178-2.014,2.1,2.1,0,0,0-2.178,2.014m-37.791,2.012a2.1,2.1,0,0,0,2.181-2.012,1.565,1.565,0,0,0-.07-.477c-1.42.3-2.816.633-4.211.982a2.151,2.151,0,0,0,2.1,1.507M826.379,240.7a2.189,2.189,0,1,0,2.184-2.012,2.1,2.1,0,0,0-2.184,2.012m-13.321,0a2.187,2.187,0,1,0,2.18-2.012,2.1,2.1,0,0,0-2.18,2.012m39.971,97.157a2.187,2.187,0,1,0,2.178-2.009,2.1,2.1,0,0,0-2.178,2.009m0-97.157a2.187,2.187,0,1,0,2.178-2.012,2.1,2.1,0,0,0-2.178,2.012m13.321,0a2.188,2.188,0,1,0,2.18-2.012,2.1,2.1,0,0,0-2.18,2.012m-26.646,0a2.19,2.19,0,1,0,2.182-2.012A2.1,2.1,0,0,0,839.7,240.7m93.258,48.583a2.189,2.189,0,1,0,2.185-2.01,2.1,2.1,0,0,0-2.185,2.01m-66.612,0a2.188,2.188,0,1,0,2.18-2.01,2.1,2.1,0,0,0-2.18,2.01m-13.321,0a2.187,2.187,0,1,0,2.178-2.01,2.1,2.1,0,0,0-2.178,2.01m26.642,0a2.19,2.19,0,1,0,2.186-2.01,2.1,2.1,0,0,0-2.186,2.01m13.322,0a2.19,2.19,0,1,0,2.184-2.01,2.1,2.1,0,0,0-2.184,2.01m13.325,0a2.188,2.188,0,1,0,2.18-2.01,2.1,2.1,0,0,0-2.18,2.01m-66.614,0a2.19,2.19,0,1,0,2.182-2.01,2.1,2.1,0,0,0-2.182,2.01m-79.936,0a2.189,2.189,0,1,0,2.179-2.01,2.1,2.1,0,0,0-2.179,2.01m13.325,0a2.188,2.188,0,1,0,2.18-2.01,2.1,2.1,0,0,0-2.18,2.01m13.317,0a2.191,2.191,0,1,0,2.185-2.01,2.1,2.1,0,0,0-2.185,2.01m-39.966,0a2.19,2.19,0,1,0,2.18-2.01,2.1,2.1,0,0,0-2.18,2.01m79.935,0a2.19,2.19,0,1,0,2.184-2.01,2.1,2.1,0,0,0-2.184,2.01m-26.645,0a2.19,2.19,0,1,0,2.181-2.01,2.1,2.1,0,0,0-2.181,2.01m13.324,0a2.188,2.188,0,1,0,2.18-2.01,2.1,2.1,0,0,0-2.18,2.01m106.58-12.15a2.187,2.187,0,1,0,2.182-2.009,2.1,2.1,0,0,0-2.182,2.009m-53.288,0a2.188,2.188,0,1,0,2.18-2.009,2.092,2.092,0,0,0-2.18,2.009m-13.321,0a2.187,2.187,0,1,0,2.178-2.009,2.091,2.091,0,0,0-2.178,2.009m66.609,12.15a2.187,2.187,0,1,0,2.182-2.01,2.1,2.1,0,0,0-2.182,2.01m-93.259-12.15a2.19,2.19,0,1,0,2.184-2.009,2.1,2.1,0,0,0-2.184,2.009m66.614,0a2.19,2.19,0,1,0,2.184-2.009,2.095,2.095,0,0,0-2.184,2.009m-13.322,0a2.19,2.19,0,1,0,2.186-2.009,2.093,2.093,0,0,0-2.186,2.009m-39.967,0a2.191,2.191,0,1,0,2.182-2.009,2.095,2.095,0,0,0-2.182,2.009m-66.611,0a2.188,2.188,0,1,0,2.18-2.009,2.092,2.092,0,0,0-2.18,2.009m-13.325,0a2.189,2.189,0,1,0,2.179-2.009,2.092,2.092,0,0,0-2.179,2.009m39.967,0a2.19,2.19,0,1,0,2.181-2.009,2.094,2.094,0,0,0-2.181,2.009m-13.325,0a2.191,2.191,0,1,0,2.185-2.009,2.1,2.1,0,0,0-2.185,2.009m26.648,0a2.188,2.188,0,1,0,2.18-2.009,2.095,2.095,0,0,0-2.18,2.009m44.33,133.595a2.187,2.187,0,1,0-2.181,2.008,2.1,2.1,0,0,0,2.181-2.008M790.777,264.994A2.191,2.191,0,1,0,788.595,267a2.1,2.1,0,0,0,2.182-2.009m157.688,46.568a2.015,2.015,0,1,0,0,4.016,2.272,2.272,0,0,0,1.56-.6c-.121-1.047-.262-2.079-.418-3.114a2.317,2.317,0,0,0-1.142-.3M804.1,264.994A2.19,2.19,0,1,0,801.916,267a2.1,2.1,0,0,0,2.184-2.009m13.32,0A2.188,2.188,0,1,0,815.238,267a2.1,2.1,0,0,0,2.181-2.009m115.543,12.143a2.1,2.1,0,0,0,2.185,2.006,2.136,2.136,0,0,0,2.128-1.59c-.455-.773-.935-1.542-1.423-2.308a2.351,2.351,0,0,0-.7-.117,2.1,2.1,0,0,0-2.185,2.009m13.322,24.29a2.053,2.053,0,0,0,1.642,1.942c-.281-1.153-.593-2.291-.918-3.427a1.928,1.928,0,0,0-.724,1.485M777.455,264.994A2.188,2.188,0,1,0,775.272,267a2.1,2.1,0,0,0,2.182-2.009m106.581,0A2.19,2.19,0,1,0,881.857,267a2.1,2.1,0,0,0,2.179-2.009m13.322,0A2.19,2.19,0,1,0,895.177,267a2.1,2.1,0,0,0,2.181-2.009m13.321,0A2.188,2.188,0,1,0,908.5,267a2.1,2.1,0,0,0,2.181-2.009m-39.967,0A2.188,2.188,0,1,0,868.53,267a2.1,2.1,0,0,0,2.182-2.009m-26.642,0A2.191,2.191,0,1,0,841.886,267a2.1,2.1,0,0,0,2.184-2.009m13.318,0A2.187,2.187,0,1,0,855.207,267a2.1,2.1,0,0,0,2.181-2.009m-26.645,0A2.19,2.19,0,1,0,828.563,267a2.1,2.1,0,0,0,2.181-2.009m-4.365,121.451a2.189,2.189,0,1,0,2.184-2.014,2.1,2.1,0,0,0-2.184,2.014m13.325,0a2.19,2.19,0,1,0,2.182-2.014,2.1,2.1,0,0,0-2.182,2.014m-26.646,0a2.187,2.187,0,1,0,2.18-2.014,2.1,2.1,0,0,0-2.18,2.014m53.292,0a2.188,2.188,0,1,0,2.18-2.014,2.1,2.1,0,0,0-2.18,2.014m-66.615,0a2.189,2.189,0,1,0,2.181-2.014,2.1,2.1,0,0,0-2.181,2.014m53.294,0a2.187,2.187,0,1,0,2.178-2.014,2.1,2.1,0,0,0-2.178,2.014m95.436-62.739a2.018,2.018,0,1,0,2.184,2.012,2.1,2.1,0,0,0-2.184-2.012M786.41,386.445a2.191,2.191,0,1,0,2.185-2.014,2.105,2.105,0,0,0-2.185,2.014m159.874-36.438a1.926,1.926,0,0,0,.724,1.485c.325-1.134.638-2.277.918-3.424a2.04,2.04,0,0,0-1.642,1.939m2.181-14.156a2.018,2.018,0,1,0,0,4.023,2.321,2.321,0,0,0,1.142-.305c.156-1.034.3-2.065.418-3.11a2.266,2.266,0,0,0-1.56-.607M924,386.445a2.187,2.187,0,1,0-2.177,2.01,2.1,2.1,0,0,0,2.177-2.01m-164.23,0a2.189,2.189,0,1,0,2.179-2.014,2.1,2.1,0,0,0-2.179,2.014m13.325,0a2.188,2.188,0,1,0,2.18-2.014,2.1,2.1,0,0,0-2.18,2.014m124.265,24.287a2.19,2.19,0,1,0-2.181,2.008,2.1,2.1,0,0,0,2.181-2.008m-79.939-12.144a2.188,2.188,0,1,0-2.181,2.008,2.1,2.1,0,0,0,2.181-2.008m13.325,0a2.19,2.19,0,1,0-2.181,2.008,2.106,2.106,0,0,0,2.181-2.008m26.645,0a2.187,2.187,0,1,0-2.181,2.008,2.1,2.1,0,0,0,2.181-2.008m-13.318,0a2.191,2.191,0,1,0-2.184,2.008,2.107,2.107,0,0,0,2.184-2.008m-53.293,0a2.191,2.191,0,1,0-2.182,2.008,2.106,2.106,0,0,0,2.182-2.008m88.894-12.143a2.189,2.189,0,1,0,2.186-2.014,2.1,2.1,0,0,0-2.186,2.014M804.1,398.588a2.19,2.19,0,1,0-2.184,2.008,2.106,2.106,0,0,0,2.184-2.008m-31.007,0a2.188,2.188,0,1,0,2.18-2.016,2.1,2.1,0,0,0-2.18,2.016m137.586,0A2.188,2.188,0,1,0,908.5,400.6a2.1,2.1,0,0,0,2.181-2.008m-93.26,24.29a2.1,2.1,0,0,0-2.181-2.011,2.149,2.149,0,0,0-2.1,1.5c1.395.351,2.8.688,4.211.989a1.574,1.574,0,0,0,.07-.476M839.7,337.861a2.19,2.19,0,1,0,2.182-2.009,2.106,2.106,0,0,0-2.182,2.009m44.332,60.727a2.19,2.19,0,1,0-2.179,2.008,2.106,2.106,0,0,0,2.179-2.008m-13.324,0a2.188,2.188,0,1,0-2.182,2.008,2.105,2.105,0,0,0,2.182-2.008m-2.182,22.279a2.1,2.1,0,0,0-2.18,2.011,1.9,1.9,0,0,0,.065.476c1.423-.3,2.824-.638,4.22-.989a2.159,2.159,0,0,0-2.1-1.5M839.7,422.878a2.19,2.19,0,1,0,2.182-2.011,2.1,2.1,0,0,0-2.182,2.011M924,264.994A2.187,2.187,0,1,0,921.82,267,2.095,2.095,0,0,0,924,264.994M826.379,422.878a2.19,2.19,0,1,0,2.184-2.011,2.1,2.1,0,0,0-2.184,2.011m31.009,0a2.187,2.187,0,1,0-2.181,2.008,2.1,2.1,0,0,0,2.181-2.008m26.647-12.146a2.19,2.19,0,1,0-2.179,2.008,2.1,2.1,0,0,0,2.179-2.008M748.624,279.143a2.015,2.015,0,1,0,0-4.015,2.409,2.409,0,0,0-.711.117q-.724,1.148-1.419,2.308a2.142,2.142,0,0,0,2.13,1.59m11.144-14.149a2.189,2.189,0,1,0,2.179-2.009,2.1,2.1,0,0,0-2.179,2.009m84.3,145.738a2.191,2.191,0,1,0-2.184,2.008,2.1,2.1,0,0,0,2.184-2.008m-39.971,0a2.19,2.19,0,1,0-2.184,2.008,2.1,2.1,0,0,0,2.184-2.008m26.645,0a2.19,2.19,0,1,0-2.181,2.008,2.1,2.1,0,0,0,2.181-2.008m39.968,0a2.188,2.188,0,1,0-2.182,2.008,2.1,2.1,0,0,0,2.182-2.008m-53.293,0a2.188,2.188,0,1,0-2.181,2.008,2.1,2.1,0,0,0,2.181-2.008m-26.642,0a2.191,2.191,0,1,0-2.182,2.008,2.1,2.1,0,0,0,2.182-2.008m106.581-12.144a2.19,2.19,0,1,0-2.181,2.008,2.106,2.106,0,0,0,2.181-2.008m-97.623-48.581a2.189,2.189,0,1,0,2.181-2.014,2.1,2.1,0,0,0-2.181,2.014m13.324,0a2.187,2.187,0,1,0,2.18-2.014,2.1,2.1,0,0,0-2.18,2.014m-26.648,0a2.191,2.191,0,1,0,2.185-2.014,2.1,2.1,0,0,0-2.185,2.014m53.294,0a2.19,2.19,0,1,0,2.182-2.014,2.1,2.1,0,0,0-2.182,2.014m13.325,0a2.187,2.187,0,1,0,2.178-2.014,2.1,2.1,0,0,0-2.178,2.014m-79.936,0a2.188,2.188,0,1,0,2.18-2.014,2.1,2.1,0,0,0-2.18,2.014m53.287,0a2.189,2.189,0,1,0,2.184-2.014,2.1,2.1,0,0,0-2.184,2.014m93.259,12.144a2.187,2.187,0,1,0,2.182-2.009,2.1,2.1,0,0,0-2.182,2.009m-159.87-12.144a2.189,2.189,0,1,0,2.179-2.014,2.1,2.1,0,0,0-2.179,2.014m146.55,12.144a2.188,2.188,0,1,0,2.18-2.009,2.1,2.1,0,0,0-2.18,2.009m26.643,0a2.189,2.189,0,1,0,2.185-2.009,2.1,2.1,0,0,0-2.185,2.009M746.444,350.007a2.189,2.189,0,1,0,2.18-2.014,2.1,2.1,0,0,0-2.18,2.014m-8.958,0a2.036,2.036,0,0,0-1.645-1.939c.281,1.147.6,2.29.92,3.424a1.931,1.931,0,0,0,.725-1.485m22.281-12.146a2.189,2.189,0,1,0,2.179-2.009,2.1,2.1,0,0,0-2.179,2.009m39.967,0a2.19,2.19,0,1,0,2.181-2.009,2.105,2.105,0,0,0-2.181,2.009m93.259,24.29a2.19,2.19,0,1,0,2.184-2.009,2.1,2.1,0,0,0-2.184,2.009m-119.9-24.29a2.188,2.188,0,1,0,2.18-2.009,2.1,2.1,0,0,0-2.18,2.009m93.257,12.146a2.188,2.188,0,1,0,2.18-2.014,2.1,2.1,0,0,0-2.18,2.014m-53.292-12.146a2.188,2.188,0,1,0,2.18-2.009,2.106,2.106,0,0,0-2.18,2.009m13.321,0a2.19,2.19,0,1,0,2.184-2.009,2.107,2.107,0,0,0-2.184,2.009m-39.969,0a2.191,2.191,0,1,0,2.185-2.009,2.108,2.108,0,0,0-2.185,2.009m106.583,12.146a2.189,2.189,0,1,0,2.184-2.014,2.1,2.1,0,0,0-2.184,2.014m13.325,0a2.187,2.187,0,1,0,2.18-2.014,2.1,2.1,0,0,0-2.18,2.014m-26.647,0a2.189,2.189,0,1,0,2.186-2.014,2.1,2.1,0,0,0-2.186,2.014M746.444,337.861a2.19,2.19,0,1,0,2.18-2.009,2.106,2.106,0,0,0-2.18,2.009m186.517,12.146a2.189,2.189,0,1,0,2.185-2.014,2.1,2.1,0,0,0-2.185,2.014m-13.324,0a2.187,2.187,0,1,0,2.182-2.014,2.1,2.1,0,0,0-2.182,2.014M906.318,374.3a2.187,2.187,0,1,0,2.18-2.014,2.1,2.1,0,0,0-2.18,2.014m-53.289,0a2.187,2.187,0,1,0,2.178-2.014,2.1,2.1,0,0,0-2.178,2.014m-13.325,0a2.19,2.19,0,1,0,2.182-2.014A2.1,2.1,0,0,0,839.7,374.3m26.646,0a2.188,2.188,0,1,0,2.18-2.014,2.1,2.1,0,0,0-2.18,2.014m-39.971,0a2.189,2.189,0,1,0,2.184-2.014,2.1,2.1,0,0,0-2.184,2.014m53.292,0a2.189,2.189,0,1,0,2.186-2.014,2.1,2.1,0,0,0-2.186,2.014m13.322,0a2.189,2.189,0,1,0,2.184-2.014,2.1,2.1,0,0,0-2.184,2.014m-133.226,0a2.189,2.189,0,1,0,2.179-2.014,2.1,2.1,0,0,0-2.179,2.014m13.325,0a2.188,2.188,0,1,0,2.18-2.014,2.1,2.1,0,0,0-2.18,2.014m39.966,0a2.187,2.187,0,1,0,2.18-2.014,2.1,2.1,0,0,0-2.18,2.014m79.935,12.149a2.189,2.189,0,1,0,2.184-2.014,2.1,2.1,0,0,0-2.184,2.014M919.638,374.3a2.187,2.187,0,1,0,2.182-2.014,2.1,2.1,0,0,0-2.182,2.014m-119.9,0a2.189,2.189,0,1,0,2.181-2.014,2.1,2.1,0,0,0-2.181,2.014m-13.325,0a2.191,2.191,0,1,0,2.185-2.014,2.1,2.1,0,0,0-2.185,2.014m-26.642-12.145a2.189,2.189,0,1,0,2.179-2.009,2.1,2.1,0,0,0-2.179,2.009m79.936,0a2.19,2.19,0,1,0,2.182-2.009,2.1,2.1,0,0,0-2.182,2.009m-13.325,0a2.19,2.19,0,1,0,2.184-2.009,2.1,2.1,0,0,0-2.184,2.009m-13.321,0a2.188,2.188,0,1,0,2.18-2.009,2.1,2.1,0,0,0-2.18,2.009m53.292,0a2.188,2.188,0,1,0,2.18-2.009,2.1,2.1,0,0,0-2.18,2.009m-13.321,0a2.187,2.187,0,1,0,2.178-2.009,2.1,2.1,0,0,0-2.178,2.009m-53.294,0a2.19,2.19,0,1,0,2.181-2.009,2.1,2.1,0,0,0-2.181,2.009m106.584,24.294a2.187,2.187,0,1,0,2.18-2.014,2.1,2.1,0,0,0-2.18,2.014M750.809,374.3a2.1,2.1,0,0,0-2.185-2.014,2.148,2.148,0,0,0-2.13,1.595q.694,1.169,1.419,2.308a2.236,2.236,0,0,0,.711.121,2.1,2.1,0,0,0,2.185-2.009m-4.365-12.145a2.19,2.19,0,1,0,2.18-2.009,2.1,2.1,0,0,0-2.18,2.009m133.227,0a2.19,2.19,0,1,0,2.186-2.009,2.1,2.1,0,0,0-2.186,2.009m-106.578,0a2.188,2.188,0,1,0,2.18-2.009,2.1,2.1,0,0,0-2.18,2.009m13.317,0a2.191,2.191,0,1,0,2.185-2.009,2.1,2.1,0,0,0-2.185,2.009" transform="translate(583.292 -175.719)" fill="#ffa031"/>
          <path id="Trazado_699613" data-name="Trazado 699613" d="M121.584,333.036c-2.6,0-3.868-1.919-4.986-3.61-1.016-1.538-1.892-2.865-3.572-2.865s-2.556,1.327-3.571,2.865c-1.119,1.691-2.387,3.61-4.987,3.61s-3.864-1.919-4.983-3.61c-1.015-1.538-1.893-2.865-3.571-2.865s-2.556,1.327-3.572,2.865c-1.118,1.691-2.385,3.61-4.985,3.61s-3.866-1.919-4.985-3.61c-1.015-1.538-1.891-2.865-3.571-2.865a.81.81,0,1,1,0-1.618c2.6,0,3.868,1.919,4.986,3.611,1.015,1.537,1.892,2.863,3.57,2.863s2.557-1.326,3.572-2.863c1.118-1.692,2.386-3.611,4.986-3.611s3.867,1.919,4.984,3.611c1.015,1.537,1.892,2.863,3.57,2.863s2.557-1.326,3.572-2.863c1.118-1.692,2.387-3.611,4.985-3.611s3.866,1.919,4.986,3.611c1.015,1.537,1.892,2.863,3.572,2.863a.81.81,0,1,1,0,1.618m-16.694,12.678a.824.824,0,0,0-.839-.808c-1.679,0-2.555-1.328-3.571-2.864-1.118-1.692-2.386-3.612-4.986-3.612s-3.866,1.92-4.984,3.612c-1.016,1.536-1.892,2.864-3.572,2.864s-2.554-1.328-3.571-2.864c-1.118-1.692-2.387-3.612-4.986-3.612a.811.811,0,1,0,0,1.62c1.68,0,2.557,1.326,3.572,2.864,1.118,1.691,2.386,3.61,4.985,3.61s3.868-1.919,4.986-3.61c1.015-1.538,1.892-2.864,3.57-2.864s2.556,1.326,3.572,2.864c1.118,1.691,2.386,3.61,4.984,3.61a.824.824,0,0,0,.839-.809" transform="translate(166.92 193.173)" fill="#ffa031"/>
          <path id="Trazado_699616" data-name="Trazado 699616" d="M135.282,270.584a3.049,3.049,0,1,0-3.158-3.049,3.1,3.1,0,0,0,3.158,3.049m-12.434,0a3.049,3.049,0,1,0-3.158-3.049,3.1,3.1,0,0,0,3.158,3.049m12.434-12.854a3.05,3.05,0,1,0-3.158-3.049,3.1,3.1,0,0,0,3.158,3.049m-12.434,0a3.05,3.05,0,1,0-3.158-3.049,3.1,3.1,0,0,0,3.158,3.049m12.434-12.854a3.05,3.05,0,1,0-3.158-3.049,3.1,3.1,0,0,0,3.158,3.049m-12.434,0a3.05,3.05,0,1,0-3.158-3.049,3.1,3.1,0,0,0,3.158,3.049m12.434-12.855a3.049,3.049,0,1,0-3.158-3.049,3.1,3.1,0,0,0,3.158,3.049m-12.434,0a3.049,3.049,0,1,0-3.158-3.049,3.1,3.1,0,0,0,3.158,3.049" transform="translate(748.461 163.773)" fill="#ffa031"/>
          <path id="Trazado_699617" data-name="Trazado 699617" d="M713.343,349.671c0,3.817-4.1,6.911-9.163,6.911s-9.159-3.094-9.159-6.911,4.1-6.911,9.159-6.911,9.163,3.1,9.163,6.911" transform="translate(416.332 382.51)" fill="#0098e8"/>
          <path id="Trazado_699618" data-name="Trazado 699618" d="M254.481,92.594a8.135,8.135,0,1,1-8.13-7.845,7.991,7.991,0,0,1,8.13,7.845" transform="translate(772.144 304.949)" fill="#bfe5f9"/>
          <path id="Trazado_699619" data-name="Trazado 699619" d="M692.545,242.788a4.746,4.746,0,1,1-4.743-4.575,4.663,4.663,0,0,1,4.743,4.575" transform="translate(407.988 347.098)" fill="#ffa031"/>
          <path id="Trazado_726934" data-name="Trazado 726934" d="M692.545,242.788a4.746,4.746,0,1,1-4.743-4.575,4.663,4.663,0,0,1,4.743,4.575" transform="translate(203.841 50.238)" fill="#4db1f0"/>
          <path id="Trazado_726935" data-name="Trazado 726935" d="M692.545,242.788a4.746,4.746,0,1,1-4.743-4.575,4.663,4.663,0,0,1,4.743,4.575" transform="translate(5.841 278.238)" fill="#4db1f0"/>
          <path id="Trazado_726936" data-name="Trazado 726936" d="M692.545,242.788a4.746,4.746,0,1,1-4.743-4.575,4.663,4.663,0,0,1,4.743,4.575" transform="translate(-203.159 161.238)" fill="#ffa031"/>
          <path id="Trazado_699620" data-name="Trazado 699620" d="M592.162,80.417a4.746,4.746,0,1,1-4.743-4.575,4.662,4.662,0,0,1,4.743,4.575" transform="translate(402.016 371.783)" fill="#ffa031"/>
          <path id="Trazado_699621" data-name="Trazado 699621" d="M456.557,350.965a4.746,4.746,0,1,1-4.743-4.574,4.663,4.663,0,0,1,4.743,4.574" transform="translate(614.203 200.553)" fill="#cdeafa"/>
          <path id="Trazado_699622" data-name="Trazado 699622" d="M82.826,256.67c0,2.655-2.957,4.81-6.6,4.81s-6.6-2.154-6.6-4.81,2.957-4.808,6.6-4.808,6.6,2.154,6.6,4.808" transform="translate(919.812 328.026)" fill="#ffa031"/>
          <path id="Trazado_699625" data-name="Trazado 699625" d="M208.078,200.991a9.5,9.5,0,1,1,9.633-9.495,9.575,9.575,0,0,1-9.633,9.495m0-13.216a3.721,3.721,0,1,0,3.775,3.721,3.754,3.754,0,0,0-3.775-3.721" transform="translate(912.211 320.18)" fill="#ffa031"/>
          <path id="Trazado_726937" data-name="Trazado 726937" d="M208.078,200.991a9.5,9.5,0,1,1,9.633-9.495,9.575,9.575,0,0,1-9.633,9.495m0-13.216a3.721,3.721,0,1,0,3.775,3.721,3.754,3.754,0,0,0-3.775-3.721" transform="translate(193.944 -79.82)" fill="#ffa031"/>
          <path id="Trazado_725915" data-name="Trazado 725915" d="M204.812,194.551a6.276,6.276,0,1,1,6.367-6.275,6.328,6.328,0,0,1-6.367,6.275m0-8.734a2.459,2.459,0,1,0,2.5,2.459,2.481,2.481,0,0,0-2.5-2.459" transform="translate(794.555 94.027)" fill="#ffa031"/>
          <path id="Trazado_725916" data-name="Trazado 725916" d="M204.812,194.551a6.276,6.276,0,1,1,6.367-6.275,6.328,6.328,0,0,1-6.367,6.275m0-8.734a2.459,2.459,0,1,0,2.5,2.459,2.481,2.481,0,0,0-2.5-2.459" transform="translate(367.555 111.027)" fill="#ffa031"/>
          <path id="Trazado_726932" data-name="Trazado 726932" d="M204.812,194.551a6.276,6.276,0,1,1,6.367-6.275,6.328,6.328,0,0,1-6.367,6.275m0-8.734a2.459,2.459,0,1,0,2.5,2.459,2.481,2.481,0,0,0-2.5-2.459" transform="translate(73.555 67.027)" fill="#4db1f0"/>
          <path id="Trazado_726933" data-name="Trazado 726933" d="M204.812,194.551a6.276,6.276,0,1,1,6.367-6.275,6.328,6.328,0,0,1-6.367,6.275m0-8.734a2.459,2.459,0,1,0,2.5,2.459,2.481,2.481,0,0,0-2.5-2.459" transform="translate(-11.445 219.027)" fill="#ffa031"/>
          <path id="Trazado_704912" data-name="Trazado 704912" d="M207.475,200.03a9.015,9.015,0,1,1,9.03-9.014,9.032,9.032,0,0,1-9.03,9.014m0-12.547a3.533,3.533,0,1,0,3.539,3.533,3.541,3.541,0,0,0-3.539-3.533" transform="translate(1146.211 323.719)" fill="#ffa031"/>
          <path id="Trazado_704913" data-name="Trazado 704913" d="M209.074,201.265c-5.861,0-10.629-4.321-10.629-9.632S203.213,182,209.074,182s10.629,4.322,10.629,9.634-4.768,9.632-10.629,9.632m0-13.407a3.793,3.793,0,1,0,4.166,3.775,3.99,3.99,0,0,0-4.166-3.775" transform="translate(213.211 42.046)" fill="#ffa031"/>
        </g>
      </g>
    </g>
    <rect id="Rectángulo_345282" data-name="Rectángulo 345282" width="1329" height="71" transform="translate(136 7951)" fill="url(#linear-gradient-2)"/>
  </g>
</svg>
