<svg xmlns="http://www.w3.org/2000/svg" xmlns:xlink="http://www.w3.org/1999/xlink" width="211.231" height="197.354" viewBox="0 0 211.231 197.354">
  <defs>
    <clipPath id="clip-path">
      <path id="Trazado_715417" data-name="Trazado 715417" d="M145.247,172.651c4.7-5.754,8.832-12.434,14.939-17.034,6.084-4.58,14.524-6.618,21.059-10.669A89.374,89.374,0,0,0,195.362,134.4a39.3,39.3,0,0,1-8.567,9.369c-4.45,3.495-9.939,5.665-14.949,8.209a45.069,45.069,0,0,0-12.962,9.342c-7.217,7.78-13.641,16.329-23.049,21.633a56.734,56.734,0,0,1-6.114,2.978,52.814,52.814,0,0,0,15.525-13.281M196.24,73.377c-7.648-6.673-17.211-10.475-25.576-16.1-6.731-4.524-11.749-14.845-15.035-21.671-4.437-9.219-11.066-19.759-19.7-26.1a44.414,44.414,0,0,0-11-5.807c2.363.521,4.724,1.048,7.041,1.759a30.436,30.436,0,0,1,11.3,6.76,63.732,63.732,0,0,1,13.458,17.645c3.043,5.846,4.95,12.279,8.692,17.754,3.4,4.971,8.227,8.7,13.255,11.9,10.938,6.952,23.381,12.408,28.31,25.393,1.957,5.151,1.986,10.99,1.535,16.507-.165-10.51-3.984-20.806-12.276-28.042M102.339,0C79.273.018,54.4,9.957,43.471,25.705c-5.873,8.457-6.46,14.566-5.756,24.265,1.026,14.155-3.623,22.053-13.905,31.674-8.253,7.723-16.142,16.5-20.055,26.635q.348-1.3.783-2.575c2.446-7.161,7.075-13.5,12.012-19.141,4.465-5.1,9.857-9.4,13.7-15.033,8.148-11.943,2.664-26.472,6.621-39.518C41.146,17.92,56.445,11.64,68.86,6.639c.374-.15-.272-.346-.453-.288C55.921,10.341,41.929,16.859,36.088,29.388,33.4,35.155,33.337,41.769,33.248,48c-.12,8.376-.473,15.989-5.182,23.236-3.994,6.15-10.178,10.845-14.939,16.393A56.651,56.651,0,0,0,1.676,107.256c-3.359,10.69-1.57,24.372,4.465,34.375a99.736,99.736,0,0,0,8.083,14.61c17.124,26,52.15,34.874,81.492,36.02,9.344.365,17.518-.3,24.848-2.51a30.194,30.194,0,0,0,5.815-1.4c3.083-1.116,6.21-2.493,9.178-3.864,10.292-4.753,17.518-13.734,25.163-21.757,8.381-8.794,20.315-11.348,29.7-18.631a37.965,37.965,0,0,0,10.3-12.679,29.134,29.134,0,0,0,3.036-8.6q.877-1.809,1.6-3.693c6.019-9.123,7.175-22.26,4.535-32.454-3.418-13.2-16.065-19.841-26.878-26.227-5.926-3.5-11.519-7.5-15.646-13.088-4.088-5.54-6.386-12.338-9.6-18.388a66.321,66.321,0,0,0-13.41-17.06C138.7,6.7,131.967,4.617,124.549,3.271c-.622-.113-1.244-.221-1.865-.329a59.566,59.566,0,0,0-7.526-1.848A72.775,72.775,0,0,0,102.444,0Z" transform="translate(0 -0.004)" fill="#4db1f0"/>
    </clipPath>
    <filter id="Rectángulo_33844" x="162.469" y="114.388" width="41.406" height="27.955" filterUnits="userSpaceOnUse">
      <feOffset dy="3" input="SourceAlpha"/>
      <feGaussianBlur stdDeviation="3" result="blur"/>
      <feFlood flood-opacity="0.161"/>
      <feComposite operator="in" in2="blur"/>
      <feComposite in="SourceGraphic"/>
    </filter>
    <filter id="Trazado_113690" x="170.97" y="121.128" width="38.685" height="28.575" filterUnits="userSpaceOnUse">
      <feOffset dy="3" input="SourceAlpha"/>
      <feGaussianBlur stdDeviation="3" result="blur-2"/>
      <feFlood flood-opacity="0.161"/>
      <feComposite operator="in" in2="blur-2"/>
      <feComposite in="SourceGraphic"/>
    </filter>
    <filter id="Rectángulo_33844-2" x="8.392" y="14.515" width="41.406" height="27.955" filterUnits="userSpaceOnUse">
      <feOffset dy="3" input="SourceAlpha"/>
      <feGaussianBlur stdDeviation="3" result="blur-3"/>
      <feFlood flood-opacity="0.161"/>
      <feComposite operator="in" in2="blur-3"/>
      <feComposite in="SourceGraphic"/>
    </filter>
    <filter id="Trazado_113690-2" x="16.894" y="21.255" width="38.685" height="28.575" filterUnits="userSpaceOnUse">
      <feOffset dy="3" input="SourceAlpha"/>
      <feGaussianBlur stdDeviation="3" result="blur-4"/>
      <feFlood flood-opacity="0.161"/>
      <feComposite operator="in" in2="blur-4"/>
      <feComposite in="SourceGraphic"/>
    </filter>
    <filter id="Trazado_113638" x="65.417" y="13.847" width="61.841" height="61.841" filterUnits="userSpaceOnUse">
      <feOffset dy="3" input="SourceAlpha"/>
      <feGaussianBlur stdDeviation="3" result="blur-5"/>
      <feFlood flood-opacity="0.161"/>
      <feComposite operator="in" in2="blur-5"/>
      <feComposite in="SourceGraphic"/>
    </filter>
    <clipPath id="clip-path-2">
      <rect id="Rectángulo_347714" data-name="Rectángulo 347714" width="189" height="197" transform="translate(1132 9360)" fill="#fff" stroke="#707070" stroke-width="1" opacity="0.75"/>
    </clipPath>
    <clipPath id="clip-path-3">
      <rect id="Rectángulo_347705" data-name="Rectángulo 347705" width="234" height="234" transform="translate(-0.075 -0.075)" fill="none"/>
    </clipPath>
    <clipPath id="clip-path-4">
      <rect id="Rectángulo_347713" data-name="Rectángulo 347713" width="12.333" height="13.362" fill="#1f4068"/>
    </clipPath>
    <filter id="Trazado_721859" x="104.727" y="109.871" width="36.317" height="35.152" filterUnits="userSpaceOnUse">
      <feOffset dy="3" input="SourceAlpha"/>
      <feGaussianBlur stdDeviation="3" result="blur-6"/>
      <feFlood flood-opacity="0.161"/>
      <feComposite operator="in" in2="blur-6"/>
      <feComposite in="SourceGraphic"/>
    </filter>
    <clipPath id="clip-path-5">
      <rect id="Rectángulo_347712" data-name="Rectángulo 347712" width="59.916" height="58.381" fill="#fff"/>
    </clipPath>
  </defs>
  <g id="Grupo_1011325" data-name="Grupo 1011325" transform="translate(-1128.491 -9360)">
    <g id="Grupo_1011274" data-name="Grupo 1011274" transform="translate(1128.491 9365)">
      <g id="Grupo_1010424" data-name="Grupo 1010424" transform="translate(0 0.001)">
        <g id="Grupo_1006262" data-name="Grupo 1006262" transform="translate(0 0)">
          <g id="Grupo_1006260" data-name="Grupo 1006260" transform="translate(0)" clip-path="url(#clip-path)">
            <rect id="Rectángulo_346887" data-name="Rectángulo 346887" width="214.219" height="192.623" transform="translate(-1.682 0)" fill="#4db1f0"/>
          </g>
        </g>
        <g id="Grupo_1006266" data-name="Grupo 1006266" transform="translate(171.469 112.147)">
          <g id="Grupo_1006264" data-name="Grupo 1006264" transform="translate(0 3.241)">
            <g transform="matrix(1, 0, 0, 1, -171.47, -120.39)" filter="url(#Rectángulo_33844)">
              <rect id="Rectángulo_33844-3" data-name="Rectángulo 33844" width="23.406" height="9.955" rx="3" transform="translate(171.47 120.39)" fill="#f9e8dc"/>
            </g>
            <g transform="matrix(1, 0, 0, 1, -171.47, -120.39)" filter="url(#Trazado_113690)">
              <path id="Trazado_113690-3" data-name="Trazado 113690" d="M2.648,10.575H18.037a2.648,2.648,0,0,0,2.648-2.648V2.648A2.648,2.648,0,0,0,18.037,0H2.648A2.648,2.648,0,0,0,0,2.648V7.927a2.648,2.648,0,0,0,2.648,2.648" transform="translate(179.97 127.13)" fill="#4db1f0"/>
            </g>
            <path id="Trazado_113691" data-name="Trazado 113691" d="M2.573,1.286A1.286,1.286,0,1,0,1.286,2.573,1.286,1.286,0,0,0,2.573,1.286" transform="translate(12.225 10.741)" fill="#fff"/>
            <path id="Trazado_113692" data-name="Trazado 113692" d="M2.573,1.286A1.286,1.286,0,1,0,1.286,2.573,1.286,1.286,0,0,0,2.573,1.286" transform="translate(17.558 10.741)" fill="#fff"/>
            <path id="Trazado_113693" data-name="Trazado 113693" d="M2.573,1.286A1.286,1.286,0,1,0,1.286,2.573,1.286,1.286,0,0,0,2.573,1.286" transform="translate(22.89 10.741)" fill="#fff"/>
          </g>
          <g id="Grupo_1006265" data-name="Grupo 1006265" transform="translate(18.261 0)">
            <path id="Trazado_113641" data-name="Trazado 113641" d="M1519.956,262.321a.679.679,0,1,1-.679-.679.679.679,0,0,1,.679.679" transform="translate(-1518.599 -261.642)" fill="#0098e8"/>
            <path id="Trazado_113642" data-name="Trazado 113642" d="M1571.631,262.321a.679.679,0,1,1-.679-.679.679.679,0,0,1,.679.679" transform="translate(-1567.288 -261.642)" fill="#0098e8"/>
            <path id="Trazado_113643" data-name="Trazado 113643" d="M1623.306,262.321a.679.679,0,1,1-.679-.679.679.679,0,0,1,.679.679" transform="translate(-1615.977 -261.642)" fill="#0098e8"/>
            <path id="Trazado_113644" data-name="Trazado 113644" d="M1674.981,262.321a.679.679,0,1,1-.679-.679.679.679,0,0,1,.679.679" transform="translate(-1664.666 -261.642)" fill="#0098e8"/>
            <path id="Trazado_113646" data-name="Trazado 113646" d="M1519.956,311.647a.679.679,0,1,1-.679-.679.679.679,0,0,1,.679.679" transform="translate(-1518.599 -308.118)" fill="#0098e8"/>
            <path id="Trazado_113647" data-name="Trazado 113647" d="M1571.631,311.647a.679.679,0,1,1-.679-.679.679.679,0,0,1,.679.679" transform="translate(-1567.288 -308.118)" fill="#0098e8"/>
            <path id="Trazado_113648" data-name="Trazado 113648" d="M1623.306,311.647a.679.679,0,1,1-.679-.679.679.679,0,0,1,.679.679" transform="translate(-1615.977 -308.118)" fill="#0098e8"/>
            <path id="Trazado_113649" data-name="Trazado 113649" d="M1674.981,311.647a.679.679,0,1,1-.679-.679.679.679,0,0,1,.679.679" transform="translate(-1664.666 -308.118)" fill="#0098e8"/>
            <path id="Trazado_113651" data-name="Trazado 113651" d="M1519.956,360.973a.679.679,0,1,1-.679-.679.679.679,0,0,1,.679.679" transform="translate(-1518.599 -354.593)" fill="#0098e8"/>
            <path id="Trazado_113652" data-name="Trazado 113652" d="M1571.631,360.973a.679.679,0,1,1-.679-.679.679.679,0,0,1,.679.679" transform="translate(-1567.288 -354.593)" fill="#0098e8"/>
            <path id="Trazado_113653" data-name="Trazado 113653" d="M1623.306,360.973a.679.679,0,1,1-.679-.679.679.679,0,0,1,.679.679" transform="translate(-1615.977 -354.593)" fill="#0098e8"/>
            <path id="Trazado_113654" data-name="Trazado 113654" d="M1674.981,360.973a.679.679,0,1,1-.679-.679.679.679,0,0,1,.679.679" transform="translate(-1664.666 -354.593)" fill="#0098e8"/>
            <path id="Trazado_113656" data-name="Trazado 113656" d="M1519.956,410.3a.679.679,0,1,1-.679-.679.679.679,0,0,1,.679.679" transform="translate(-1518.599 -401.07)" fill="#0098e8"/>
            <path id="Trazado_113657" data-name="Trazado 113657" d="M1571.631,410.3a.679.679,0,1,1-.679-.679.679.679,0,0,1,.679.679" transform="translate(-1567.288 -401.07)" fill="#0098e8"/>
            <path id="Trazado_113658" data-name="Trazado 113658" d="M1623.306,410.3a.679.679,0,1,1-.679-.679.679.679,0,0,1,.679.679" transform="translate(-1615.977 -401.07)" fill="#0098e8"/>
            <path id="Trazado_113659" data-name="Trazado 113659" d="M1674.981,410.3a.679.679,0,1,1-.679-.679.678.678,0,0,1,.679.679" transform="translate(-1664.666 -401.07)" fill="#0098e8"/>
            <path id="Trazado_113661" data-name="Trazado 113661" d="M1519.956,459.626a.679.679,0,1,1-.679-.679.679.679,0,0,1,.679.679" transform="translate(-1518.599 -447.545)" fill="#0098e8"/>
            <path id="Trazado_113662" data-name="Trazado 113662" d="M1571.631,459.626a.679.679,0,1,1-.679-.679.679.679,0,0,1,.679.679" transform="translate(-1567.288 -447.545)" fill="#0098e8"/>
            <path id="Trazado_113663" data-name="Trazado 113663" d="M1623.306,459.626a.679.679,0,1,1-.679-.679.679.679,0,0,1,.679.679" transform="translate(-1615.977 -447.545)" fill="#0098e8"/>
            <path id="Trazado_113664" data-name="Trazado 113664" d="M1674.981,459.626a.679.679,0,1,1-.679-.679.679.679,0,0,1,.679.679" transform="translate(-1664.666 -447.545)" fill="#0098e8"/>
          </g>
        </g>
        <g id="Grupo_1006268" data-name="Grupo 1006268" transform="translate(17.392 12.274)">
          <g id="Grupo_1006264-2" data-name="Grupo 1006264" transform="translate(0 3.241)">
            <g transform="matrix(1, 0, 0, 1, -17.39, -20.51)" filter="url(#Rectángulo_33844-2)">
              <rect id="Rectángulo_33844-4" data-name="Rectángulo 33844" width="23.406" height="9.955" rx="3" transform="translate(17.39 20.51)" fill="#f9e8dc"/>
            </g>
            <g transform="matrix(1, 0, 0, 1, -17.39, -20.51)" filter="url(#Trazado_113690-2)">
              <path id="Trazado_113690-4" data-name="Trazado 113690" d="M2.648,10.575H18.037a2.648,2.648,0,0,0,2.648-2.648V2.648A2.648,2.648,0,0,0,18.037,0H2.648A2.648,2.648,0,0,0,0,2.648V7.927a2.648,2.648,0,0,0,2.648,2.648" transform="translate(25.89 27.25)" fill="#4db1f0"/>
            </g>
            <path id="Trazado_113691-2" data-name="Trazado 113691" d="M2.573,1.286A1.286,1.286,0,1,0,1.286,2.573,1.286,1.286,0,0,0,2.573,1.286" transform="translate(12.225 10.741)" fill="#fff"/>
            <path id="Trazado_113692-2" data-name="Trazado 113692" d="M2.573,1.286A1.286,1.286,0,1,0,1.286,2.573,1.286,1.286,0,0,0,2.573,1.286" transform="translate(17.558 10.741)" fill="#fff"/>
            <path id="Trazado_113693-2" data-name="Trazado 113693" d="M2.573,1.286A1.286,1.286,0,1,0,1.286,2.573,1.286,1.286,0,0,0,2.573,1.286" transform="translate(22.89 10.741)" fill="#fff"/>
          </g>
          <g id="Grupo_1006265-2" data-name="Grupo 1006265" transform="translate(18.261)">
            <path id="Trazado_113641-2" data-name="Trazado 113641" d="M1519.956,262.321a.679.679,0,1,1-.679-.679.679.679,0,0,1,.679.679" transform="translate(-1518.599 -261.642)" fill="#0098e8"/>
            <path id="Trazado_113642-2" data-name="Trazado 113642" d="M1571.631,262.321a.679.679,0,1,1-.679-.679.679.679,0,0,1,.679.679" transform="translate(-1567.288 -261.642)" fill="#0098e8"/>
            <path id="Trazado_113643-2" data-name="Trazado 113643" d="M1623.306,262.321a.679.679,0,1,1-.679-.679.679.679,0,0,1,.679.679" transform="translate(-1615.977 -261.642)" fill="#0098e8"/>
            <path id="Trazado_113644-2" data-name="Trazado 113644" d="M1674.981,262.321a.679.679,0,1,1-.679-.679.679.679,0,0,1,.679.679" transform="translate(-1664.666 -261.642)" fill="#0098e8"/>
            <path id="Trazado_113646-2" data-name="Trazado 113646" d="M1519.956,311.647a.679.679,0,1,1-.679-.679.679.679,0,0,1,.679.679" transform="translate(-1518.599 -308.118)" fill="#0098e8"/>
            <path id="Trazado_113647-2" data-name="Trazado 113647" d="M1571.631,311.647a.679.679,0,1,1-.679-.679.679.679,0,0,1,.679.679" transform="translate(-1567.288 -308.118)" fill="#0098e8"/>
            <path id="Trazado_113648-2" data-name="Trazado 113648" d="M1623.306,311.647a.679.679,0,1,1-.679-.679.679.679,0,0,1,.679.679" transform="translate(-1615.977 -308.118)" fill="#0098e8"/>
            <path id="Trazado_113649-2" data-name="Trazado 113649" d="M1674.981,311.647a.679.679,0,1,1-.679-.679.679.679,0,0,1,.679.679" transform="translate(-1664.666 -308.118)" fill="#0098e8"/>
            <path id="Trazado_113651-2" data-name="Trazado 113651" d="M1519.956,360.973a.679.679,0,1,1-.679-.679.679.679,0,0,1,.679.679" transform="translate(-1518.599 -354.593)" fill="#0098e8"/>
            <path id="Trazado_113652-2" data-name="Trazado 113652" d="M1571.631,360.973a.679.679,0,1,1-.679-.679.679.679,0,0,1,.679.679" transform="translate(-1567.288 -354.593)" fill="#0098e8"/>
            <path id="Trazado_113653-2" data-name="Trazado 113653" d="M1623.306,360.973a.679.679,0,1,1-.679-.679.679.679,0,0,1,.679.679" transform="translate(-1615.977 -354.593)" fill="#0098e8"/>
            <path id="Trazado_113654-2" data-name="Trazado 113654" d="M1674.981,360.973a.679.679,0,1,1-.679-.679.679.679,0,0,1,.679.679" transform="translate(-1664.666 -354.593)" fill="#0098e8"/>
            <path id="Trazado_113656-2" data-name="Trazado 113656" d="M1519.956,410.3a.679.679,0,1,1-.679-.679.679.679,0,0,1,.679.679" transform="translate(-1518.599 -401.07)" fill="#0098e8"/>
            <path id="Trazado_113657-2" data-name="Trazado 113657" d="M1571.631,410.3a.679.679,0,1,1-.679-.679.679.679,0,0,1,.679.679" transform="translate(-1567.288 -401.07)" fill="#0098e8"/>
            <path id="Trazado_113658-2" data-name="Trazado 113658" d="M1623.306,410.3a.679.679,0,1,1-.679-.679.679.679,0,0,1,.679.679" transform="translate(-1615.977 -401.07)" fill="#0098e8"/>
            <path id="Trazado_113659-2" data-name="Trazado 113659" d="M1674.981,410.3a.679.679,0,1,1-.679-.679.678.678,0,0,1,.679.679" transform="translate(-1664.666 -401.07)" fill="#0098e8"/>
            <path id="Trazado_113661-2" data-name="Trazado 113661" d="M1519.956,459.626a.679.679,0,1,1-.679-.679.679.679,0,0,1,.679.679" transform="translate(-1518.599 -447.545)" fill="#0098e8"/>
            <path id="Trazado_113662-2" data-name="Trazado 113662" d="M1571.631,459.626a.679.679,0,1,1-.679-.679.679.679,0,0,1,.679.679" transform="translate(-1567.288 -447.545)" fill="#0098e8"/>
            <path id="Trazado_113663-2" data-name="Trazado 113663" d="M1623.306,459.626a.679.679,0,1,1-.679-.679.679.679,0,0,1,.679.679" transform="translate(-1615.977 -447.545)" fill="#0098e8"/>
            <path id="Trazado_113664-2" data-name="Trazado 113664" d="M1674.981,459.626a.679.679,0,1,1-.679-.679.679.679,0,0,1,.679.679" transform="translate(-1664.666 -447.545)" fill="#0098e8"/>
          </g>
        </g>
        <g id="Grupo_1006267" data-name="Grupo 1006267" transform="translate(74.417 14.846)">
          <g id="Grupo_1003557" data-name="Grupo 1003557" transform="translate(0 0)">
            <path id="Trazado_113637" data-name="Trazado 113637" d="M1042.8,465.759a27.279,27.279,0,1,0-27.278,27.279,27.279,27.279,0,0,0,27.278-27.279" transform="translate(-986.641 -438.48)" fill="#0098e8"/>
            <g transform="matrix(1, 0, 0, 1, -74.42, -19.85)" filter="url(#Trazado_113638)">
              <path id="Trazado_113638-2" data-name="Trazado 113638" d="M1107.167,535.49a21.92,21.92,0,1,0-21.92,21.92,21.921,21.921,0,0,0,21.92-21.92" transform="translate(-988.91 -493.72)" fill="#fff" opacity="0.5"/>
            </g>
          </g>
        </g>
      </g>
    </g>
    <g id="Enmascarar_grupo_1011247" data-name="Enmascarar grupo 1011247" transform="translate(4)" clip-path="url(#clip-path-2)">
      <g id="Grupo_1011324" data-name="Grupo 1011324">
        <g id="whisper_1_Convertido_" data-name="whisper_1 [Convertido]" transform="translate(1113.075 9349.075)">
          <g id="BACK">
            <g id="Grupo_1011287" data-name="Grupo 1011287" clip-path="url(#clip-path-3)">
              <g id="Grupo_1011286" data-name="Grupo 1011286" transform="translate(23.046 28.861)">
                <g id="Grupo_1011276" data-name="Grupo 1011276" transform="translate(0 74.034)">
                  <path id="Trazado_721765" data-name="Trazado 721765" d="M206.89,1191.64a40.184,40.184,0,0,1,12.665,8.541,61.313,61.313,0,0,1,9.1,11.33,34.188,34.188,0,0,1-21.759-19.87Z" transform="translate(-206.89 -1161.795)" fill="#005b8b"/>
                  <path id="Trazado_721766" data-name="Trazado 721766" d="M268.368,1381.77a23.049,23.049,0,0,1,9.885,2.738h0a23.213,23.213,0,0,1-19.983-.944A23.031,23.031,0,0,1,268.368,1381.77Z" transform="translate(-252.547 -1330.722)" fill="#005b8b"/>
                  <path id="Trazado_721767" data-name="Trazado 721767" d="M424.289,1216.19a23.188,23.188,0,0,1-4.671,19.454,23.214,23.214,0,0,1,4.671-19.453Z" transform="translate(-395.466 -1183.61)" fill="#005b8b"/>
                  <path id="Trazado_721768" data-name="Trazado 721768" d="M322.6,1522.076c-4.127-2.291-4.88-4.869-2.912-7.862a23.056,23.056,0,0,1,7.389-7.114,20.5,20.5,0,0,1-3.6,9.605c-1.648,2.317-1.913,4.026-.877,5.371Z" transform="translate(-306.196 -1442.115)" fill="#005b8b"/>
                  <path id="Trazado_721769" data-name="Trazado 721769" d="M296.575,984.581c.095-.027.19-.053.285-.078l.489-.128c.164-.041.327-.078.492-.118l.246-.058.247-.052.495-.1q.992-.2,2-.334a35.939,35.939,0,0,1,4.035-.293,28.351,28.351,0,0,1,4,.195l-.089-.12q-1.352-1.788-2.792-3.508t-2.966-3.362c-.506-.55-1.023-1.091-1.545-1.624s-1.054-1.06-1.6-1.57c.55.506,1.084,1.029,1.612,1.56s1.047,1.067,1.557,1.614q1.531,1.639,2.976,3.356t2.8,3.5q.378.5.747,1a11.889,11.889,0,0,1,.236-1.338q.162-.678.381-1.341c.149-.44.31-.877.49-1.305s.373-.852.591-1.262c-.1.211-.193.422-.282.637s-.179.428-.265.644c-.17.431-.331.867-.475,1.308s-.276.884-.394,1.333l-.084.338c-.027.113-.049.226-.073.34-.052.215-.082.433-.125.651.641.868,1.268,1.746,1.87,2.64.213.307.417.622.622.933s.413.624.609.941l.6.95.578.961c.1.16.194.32.287.481l.279.487.278.487c.092.163.187.324.274.489l.535.986.134.246.128.25.255.5c.348.662.663,1.34.988,2.014.159.339.307.682.462,1.021l.229.511c.076.17.145.344.217.517l.428,1.037.4,1.048.2.525.183.53.232.676h.045q-.04-1.379-.095-2.757-.139-3.542-.358-7.08t-.521-7.07q-.18-2.1-.4-4.2a6.489,6.489,0,0,1-1.389.7,10.724,10.724,0,0,1-6.476-.2,13.758,13.758,0,0,1,5.223-3.2,13.95,13.95,0,0,1,2.294-.566l-.154-1.352-.215-1.759c-.016-.135-.033-.268-.051-.4a20.284,20.284,0,0,1-5.988,4.4h0a23.054,23.054,0,0,1,4.183-9.365,7.361,7.361,0,0,1,.957-1.063l-.091-.593-.138-.876-.147-.873-.147-.873c-.049-.291-.1-.583-.151-.873l-.317-1.743c-.051-.291-.109-.58-.166-.87l-.172-.87-.172-.87c-.057-.29-.123-.578-.183-.867l-.033-.155a20.518,20.518,0,0,1-8.748-5.34c-1.965-2.054-3.595-2.636-5.111-1.871,3.028-3.622,5.7-3.876,8.27-1.381a23.058,23.058,0,0,1,5.577,8.545l-.327-1.529q-.47-2.105-1-4.2l-.018.011h0l.011-.038c-.226-.888-.459-1.773-.7-2.656h0a61.324,61.324,0,0,1-7.632-12.362,40.179,40.179,0,0,1-3.809-14.793,34.187,34.187,0,0,1,11.44,27.155q.369,1.313.711,2.633a41.424,41.424,0,0,1,3.966-8.8,26.87,26.87,0,0,1,6.762-7.652,22.853,22.853,0,0,1-10.716,16.491q.543,2.09,1.025,4.2l.374,1.733c.061.289.126.577.184.867l.173.869.173.869c.058.29.116.579.167.87l.321,1.743q.359,2.025.676,4.058c1.968-1.742,4.359-1.47,7.385,1.171-1.616-.517-3.135.312-4.754,2.648a19.037,19.037,0,0,1-1.776,2.19q.229,1.778.431,3.559a13.7,13.7,0,0,1,3.737-.058,14.655,14.655,0,0,1-3.4,3.291q.212,2.117.393,4.236.3,3.532.511,7.072c.2,3.277.348,6.559.43,9.841h.09l.048-.837.018-.305.009-.153.014-.153.056-.608.056-.608.028-.3.038-.3.15-1.213.019-.151.023-.151.047-.3.095-.6.095-.6.111-.6c.076-.4.145-.8.226-1.2l.253-1.2a82.922,82.922,0,0,1,2.69-9.4q.812-2.306,1.728-4.574t1.936-4.489c.9-1.964,1.847-3.905,2.862-5.812a23.186,23.186,0,0,1-9.764-17.43,23.208,23.208,0,0,1,9.785,17.393q.765-1.437,1.583-2.844c-.411.7-.8,1.418-1.186,2.136-.133.248-.263.5-.393.746a.07.07,0,0,0,0,.016h0l-.007-.006q-.368.7-.726,1.411-1.1,2.181-2.114,4.406-.767,1.689-1.479,3.4a28.863,28.863,0,0,1,3.812-1.223,36.909,36.909,0,0,1,3.968-.774q1-.13,2.012-.2l.5-.031.253-.014.253-.009c.168-.006.336-.013.506-.018l.506-.007c.168,0,.338,0,.506,0s.338,0,.506.008c.336.013.674.02,1.01.046.673.039,1.342.118,2.011.2a23.185,23.185,0,0,1,19.9,2.036c.143,0-5.778,3.193-10.174,2.769-5.494-.529-9.728-4.805-9.728-4.805h0c-.669-.077-1.34-.146-2.013-.174-.336-.023-.673-.028-1.009-.04-.168,0-.336,0-.5,0s-.336,0-.5,0l-.5.01c-.168,0-.336.013-.5.02l-.252.011-.252.016-.5.033q-1.006.08-2.007.215a36.65,36.65,0,0,0-3.967.752q-.981.242-1.946.54c-.632.194-1.26.4-1.876.644q-.226.543-.446,1.087-.914,2.266-1.717,4.575a82.666,82.666,0,0,0-2.709,9.384l-.256,1.194c-.081.4-.151.8-.228,1.2l-.112.6-.1.6-.1.6-.048.3-.023.15-.02.151-.158,1.212-.04.3-.03.3-.06.608-.06.608-.014.152-.01.153-.019.305-.053.835h12.409v4.235h0v.188h0v20.443H307.042V1002.7h12.3l-.236-.674-.186-.529-.2-.522-.405-1.045-.434-1.034c-.074-.172-.143-.345-.218-.516l-.231-.511c-.155-.34-.3-.683-.465-1.02-.326-.672-.643-1.349-.993-2.01l-.256-.5-.128-.25-.134-.246-.536-.985c-.088-.165-.183-.326-.275-.488l-.28-.486-.28-.486c-.094-.161-.193-.321-.289-.481l-.58-.959-.6-.948c-.2-.317-.407-.627-.61-.939s-.409-.625-.623-.931c-.805-1.2-1.651-2.37-2.519-3.524-.656-.076-1.316-.115-1.975-.138s-1.347-.03-2.021-.017c-.7.013-1.4.051-2.1.107a14.1,14.1,0,0,0-1.091,1.113c-.258.294-.511.594-.751.9a11.6,11.6,0,0,1,5.249,8.479,11.59,11.59,0,0,1-5.27-8.451c-.082.107-.164.216-.243.325s-.159.217-.236.328-.157.218-.229.333l-.221.339c-.038.056-.072.114-.107.171l-.1.173c-.284.458-.531.938-.776,1.419l.169-.368c.057-.123.113-.246.176-.364l.188-.359c.061-.12.134-.235.2-.353a14.956,14.956,0,0,1,.89-1.356,15.186,15.186,0,0,1,1.03-1.252c.183-.2.372-.392.565-.581.182-.172.364-.34.557-.5q-.962.079-1.92.2-1,.135-1.994.324l-.495.1-.247.051-.246.057c-.164.038-.329.075-.492.115l-.489.126q-.132.033-.264.07a11.586,11.586,0,0,1-9.585,2.741,11.606,11.606,0,0,1,9.553-2.774Z" transform="translate(-278.103 -923.71)" fill="#005b8b"/>
                  <path id="Trazado_721770" data-name="Trazado 721770" d="M702.63,1080.77a34.186,34.186,0,0,1-15.53,25.042,61.311,61.311,0,0,1,5.669-13.377,40.2,40.2,0,0,1,9.863-11.665Z" transform="translate(-633.608 -1063.275)" fill="#005b8b"/>
                  <path id="Trazado_721771" data-name="Trazado 721771" d="M663.61,1298.135a23.186,23.186,0,0,1,18.972-6.346,23.211,23.211,0,0,1-18.972,6.347Z" transform="translate(-612.735 -1250.628)" fill="#005b8b"/>
                  <path id="Trazado_721772" data-name="Trazado 721772" d="M682.069,1405.914a11.545,11.545,0,0,1,2.45-4.468c-.315-.233-.639-.453-.968-.665a14.1,14.1,0,0,0-1.4-.8c.248.1.489.229.729.354s.471.264.7.407a15.025,15.025,0,0,1,1.332.925,15.252,15.252,0,0,1,1.225,1.063c.1.1.2.186.289.285l.28.294c.095.1.18.2.27.3l.263.307c-.366-.4-.735-.791-1.133-1.154l-.148-.138c-.049-.047-.1-.093-.149-.136l-.3-.266c-.1-.09-.208-.172-.312-.257s-.208-.171-.316-.251-.214-.167-.322-.247a11.592,11.592,0,0,1-2.771,9.566,11.538,11.538,0,0,1,.293-5.12Z" transform="translate(-628.737 -1346.927)" fill="#005b8b"/>
                  <path id="Trazado_721773" data-name="Trazado 721773" d="M740.414,1448.512c.63-1.576-.09-3.149-2.306-4.929a20.507,20.507,0,0,1-6.079-8.263,23.058,23.058,0,0,1,9.046,4.834c2.708,2.345,2.686,5.029-.663,8.358Z" transform="translate(-673.533 -1378.33)" fill="#005b8b"/>
                  <rect id="Rectángulo_347678" data-name="Rectángulo 347678" width="29.712" height="2.279" transform="translate(56.222 103.849) rotate(180)" fill="#005b8b"/>
                  <path id="Trazado_721882" data-name="Trazado 721882" d="M0,0H24.866V.5H0Z" transform="translate(53.799 84.043) rotate(180)" fill="#003f60"/>
                </g>
                <g id="Grupo_1011285" data-name="Grupo 1011285" transform="translate(121.28)">
                  <g id="Grupo_1011281" data-name="Grupo 1011281" transform="translate(1.663 5.594)">
                    <g id="Grupo_1011277" data-name="Grupo 1011277" transform="translate(3.656 10.114)">
                      <rect id="Rectángulo_347680" data-name="Rectángulo 347680" width="27.958" height="5.835" fill="#f0f2f5"/>
                      <rect id="Rectángulo_347681" data-name="Rectángulo 347681" width="0.571" height="5.835" transform="translate(2.35)" fill="#fff"/>
                    </g>
                    <g id="Grupo_1011278" data-name="Grupo 1011278" transform="translate(1.668 15.949)">
                      <rect id="Rectángulo_347682" data-name="Rectángulo 347682" width="28.1" height="3.159" fill="#e1e6eb"/>
                      <rect id="Rectángulo_347683" data-name="Rectángulo 347683" width="1.756" height="3.159" transform="translate(20.183)" fill="#fff"/>
                      <rect id="Rectángulo_347684" data-name="Rectángulo 347684" width="0.878" height="3.159" transform="translate(18.27)" fill="#fff"/>
                    </g>
                    <rect id="Rectángulo_347685" data-name="Rectángulo 347685" width="29.768" height="2.128" transform="translate(0 3.266)" fill="#f0f2f5"/>
                    <g id="Grupo_1011279" data-name="Grupo 1011279" transform="translate(1.668 5.394)">
                      <rect id="Rectángulo_347686" data-name="Rectángulo 347686" width="25.214" height="4.721" transform="translate(0.899 0.001)" fill="#f0f2f5"/>
                      <rect id="Rectángulo_347687" data-name="Rectángulo 347687" width="11.546" height="0.636" transform="translate(0 4.086)" fill="#e1e6eb"/>
                      <rect id="Rectángulo_347688" data-name="Rectángulo 347688" width="11.546" height="0.636" transform="translate(0 0.001)" fill="#e1e6eb"/>
                      <rect id="Rectángulo_347689" data-name="Rectángulo 347689" width="4.721" height="15.202" transform="translate(11.546 4.721) rotate(-90)" fill="#e1e6eb"/>
                      <rect id="Rectángulo_347690" data-name="Rectángulo 347690" width="1.35" height="3.45" transform="translate(13.505 0.636)" fill="#fff"/>
                    </g>
                    <g id="Grupo_1011280" data-name="Grupo 1011280" transform="translate(3.656)">
                      <rect id="Rectángulo_347691" data-name="Rectángulo 347691" width="14.416" height="3.267" transform="translate(11.335)" fill="#f0f2f5"/>
                      <rect id="Rectángulo_347692" data-name="Rectángulo 347692" width="14.254" height="3.267" fill="#e1e6eb"/>
                      <rect id="Rectángulo_347693" data-name="Rectángulo 347693" width="11.858" height="0.394" transform="translate(14.254)" fill="#e1e6eb"/>
                      <rect id="Rectángulo_347694" data-name="Rectángulo 347694" width="11.858" height="0.394" transform="translate(14.254 2.873)" fill="#e1e6eb"/>
                      <rect id="Rectángulo_347695" data-name="Rectángulo 347695" width="0.184" height="3.267" transform="translate(3.445)" fill="#fff"/>
                      <rect id="Rectángulo_347696" data-name="Rectángulo 347696" width="0.184" height="3.267" transform="translate(2.217)" fill="#fff"/>
                    </g>
                    <path id="Trazado_721774" data-name="Trazado 721774" d="M1369.512,338.63v.975l-26.112-.975Z" transform="translate(-1339.744 -335.364)" fill="#d2d9e1"/>
                    <path id="Trazado_721775" data-name="Trazado 721775" d="M1343.4,400.11v2.128l24.759-2.128Z" transform="translate(-1339.744 -389.996)" fill="#d2d9e1"/>
                  </g>
                  <g id="Grupo_1011282" data-name="Grupo 1011282" transform="translate(35.535)">
                    <rect id="Rectángulo_347697" data-name="Rectángulo 347697" width="18.098" height="21.764" transform="translate(0 2.956)" fill="#f0f2f5"/>
                    <rect id="Rectángulo_347698" data-name="Rectángulo 347698" width="4.788" height="21.764" transform="translate(0 2.956)" fill="#e1e6eb"/>
                    <rect id="Rectángulo_347699" data-name="Rectángulo 347699" width="3.594" height="1.458" transform="translate(0.597 5.218)" fill="#fff"/>
                    <rect id="Rectángulo_347700" data-name="Rectángulo 347700" width="3.594" height="0.729" transform="translate(0.597 7.923)" fill="#fff"/>
                    <rect id="Rectángulo_347701" data-name="Rectángulo 347701" width="18.098" height="24.72" transform="translate(9.048)" fill="#e1e6eb"/>
                    <rect id="Rectángulo_347702" data-name="Rectángulo 347702" width="4.788" height="24.72" transform="translate(9.048)" fill="#f0f2f5"/>
                    <rect id="Rectángulo_347703" data-name="Rectángulo 347703" width="0.651" height="24.72" transform="translate(9.048)" fill="#e1e6eb"/>
                  </g>
                  <g id="Grupo_1011284" data-name="Grupo 1011284" transform="translate(0 24.704)">
                    <rect id="Rectángulo_347704" data-name="Rectángulo 347704" width="67.268" height="7.023" fill="#f0f2f5"/>
                    <g id="Grupo_1011283" data-name="Grupo 1011283" transform="translate(9.356 7.023)">
                      <path id="Trazado_721776" data-name="Trazado 721776" d="M1781.2,555.483l-1.256-11.573h3.967l-1.256,11.573a.731.731,0,0,1-1.453,0Z" transform="translate(-1735.349 -543.91)" fill="#e1e6eb"/>
                      <path id="Trazado_721777" data-name="Trazado 721777" d="M1380.9,555.483l-1.256-11.573h3.967l-1.257,11.573a.73.73,0,0,1-1.452,0Z" transform="translate(-1379.64 -543.91)" fill="#e1e6eb"/>
                      <path id="Trazado_721778" data-name="Trazado 721778" d="M1783.907,543.91l-.2,1.8-3.718-1.316-.052-.482Z" transform="translate(-1735.349 -543.91)" fill="#d2d9e1"/>
                      <path id="Trazado_721779" data-name="Trazado 721779" d="M1383.606,543.91l-.195,1.8-3.718-1.316-.052-.482Z" transform="translate(-1379.64 -543.91)" fill="#d2d9e1"/>
                    </g>
                  </g>
                </g>
              </g>
            </g>
          </g>
          <g id="TEXT" transform="translate(27.262 21.185)">
            <g id="Grupo_1011295" data-name="Grupo 1011295">
              <g id="Grupo_1011288" data-name="Grupo 1011288" transform="translate(0 4.173)">
                <path id="Trazado_721781" data-name="Trazado 721781" d="M292.2,447.291H246.473a1.733,1.733,0,0,1-1.733-1.733V424.372a1.733,1.733,0,0,1,1.733-1.733h3.482V415.36l6.264,7.278H292.2a1.733,1.733,0,0,1,1.733,1.733v21.186a1.733,1.733,0,0,1-1.733,1.733Z" transform="translate(-244.74 -394.449)" fill="#f0f2f5"/>
              </g>
              <g id="Grupo_1011290" data-name="Grupo 1011290" transform="translate(19.135 17.974)">
                <path id="Trazado_721783" data-name="Trazado 721783" d="M419.056,352.24h53.256a1.836,1.836,0,0,1,1.836,1.836v24.855a1.836,1.836,0,0,1-1.836,1.836h-4.2v6.984l-7.248-6.984H419.056a1.836,1.836,0,0,1-1.836-1.836V354.076A1.836,1.836,0,0,1,419.056,352.24Z" transform="translate(-417.142 -352.162)" fill="#fff"/>
                <path id="Trazado_721784" data-name="Trazado 721784" d="M467.567,387.336l-7.361-7.115h-41.85a1.836,1.836,0,0,1-1.836-1.836v-25.01a1.836,1.836,0,0,1,1.836-1.836h53.41a1.836,1.836,0,0,1,1.836,1.836v25.01a1.836,1.836,0,0,1-1.836,1.836h-4.2v7.115Zm-49.056-7.27h41.767l7.135,6.853v-6.853h4.2a1.836,1.836,0,0,0,1.836-1.836v-24.7a1.836,1.836,0,0,0-1.836-1.836h-53.1a1.836,1.836,0,0,0-1.836,1.836v24.7A1.836,1.836,0,0,0,418.511,380.067Z" transform="translate(-416.52 -351.54)" fill="#1f4068"/>
                <path id="Trazado_721887" data-name="Trazado 721887" d="M36.666,19.407H31.29l-.87,2.2H27.086l5.34-12.436h3.335l5.216,12.436H37.517Zm-.958-2.484L34,12.488l-1.739,4.435Z" transform="translate(-20.27 -0.589)" fill="#1f4068"/>
                <path id="Trazado_721888" data-name="Trazado 721888" d="M121.61,3.253a2.857,2.857,0,0,1-2.224,2.794A3.181,3.181,0,0,1,122.033,9.3c0,2.206-1.931,3.584-4.964,3.584h-6.36V0h6.121c2.923,0,4.78,1.268,4.78,3.253m-3.456.588c0-.772-.57-1.232-1.508-1.213h-2.573v2.5h2.573c.938,0,1.508-.478,1.508-1.287m.4,5.037c0-.809-.735-1.324-1.912-1.3h-2.573v2.7h2.573c1.177,0,1.912-.515,1.912-1.4" transform="translate(-86.095 8.582)" fill="#1f4068"/>
                <g id="Grupo_1011323" data-name="Grupo 1011323" transform="translate(39.846 8.106)">
                  <g id="Grupo_1011322" data-name="Grupo 1011322" transform="translate(0 0)" clip-path="url(#clip-path-4)">
                    <path id="Trazado_721889" data-name="Trazado 721889" d="M7.074,2.9A3.55,3.55,0,0,0,3.518,6.587a3.571,3.571,0,0,0,3.555,3.724A4.864,4.864,0,0,0,10.33,8.777l2,2.152a7.84,7.84,0,0,1-5.446,2.433A6.686,6.686,0,1,1,7.018,0a7.527,7.527,0,0,1,5.3,2.245L10.33,4.622A4.465,4.465,0,0,0,7.074,2.9" transform="translate(0 0)" fill="#1f4068"/>
                  </g>
                </g>
              </g>
              <g id="Grupo_1011292" data-name="Grupo 1011292" transform="translate(9.014 42.359)">
                <path id="Trazado_721785" data-name="Trazado 721785" d="M373.122,570.45H327.393a1.733,1.733,0,0,0-1.733,1.733v21.186a1.733,1.733,0,0,0,1.733,1.733h3.482v7.278l6.264-7.278h35.982a1.733,1.733,0,0,0,1.733-1.733V572.183a1.733,1.733,0,0,0-1.733-1.733Z" transform="translate(-325.66 -570.45)" fill="#1f4068"/>
                <g id="Grupo_1011291" data-name="Grupo 1011291" transform="translate(8.277 10.112)">
                  <circle id="Elipse_7882" data-name="Elipse 7882" cx="1.69" cy="1.69" r="1.69" transform="translate(0 0.696) rotate(-5.64)" fill="#fff"/>
                  <circle id="Elipse_7883" data-name="Elipse 7883" cx="1.69" cy="1.69" r="1.69" transform="translate(9.65 0.696) rotate(-5.64)" fill="#fff"/>
                  <circle id="Elipse_7884" data-name="Elipse 7884" cx="1.69" cy="1.69" r="1.69" transform="translate(19.3 0.696) rotate(-5.64)" fill="#fff"/>
                  <circle id="Elipse_7885" data-name="Elipse 7885" cx="1.69" cy="1.69" r="1.69" transform="translate(28.583 3.117) rotate(-67.28)" fill="#fff"/>
                </g>
              </g>
              <g id="Grupo_1011294" data-name="Grupo 1011294" transform="translate(15.505)">
                <path id="Trazado_721786" data-name="Trazado 721786" d="M420.355,214.684h-35.1a1.33,1.33,0,0,1-1.33-1.33V197.1a1.33,1.33,0,0,1,1.33-1.33h2.672V190.18l4.807,5.585h27.615a1.331,1.331,0,0,1,1.33,1.33v16.259a1.33,1.33,0,0,1-1.33,1.33Z" transform="translate(-383.93 -190.18)" fill="#1f4068"/>
                <g id="Grupo_1011293" data-name="Grupo 1011293" transform="translate(6.473 13.748)">
                  <circle id="Elipse_7886" data-name="Elipse 7886" cx="1.297" cy="1.297" r="1.297" transform="translate(0 0)" fill="#fff"/>
                  <circle id="Elipse_7887" data-name="Elipse 7887" cx="1.297" cy="1.297" r="1.297" transform="translate(7.405 0)" fill="#fff"/>
                  <circle id="Elipse_7888" data-name="Elipse 7888" cx="1.297" cy="1.297" r="1.297" transform="translate(14.812 0)" fill="#fff"/>
                  <path id="Trazado_721787" data-name="Trazado 721787" d="M644.083,314.9a1.3,1.3,0,1,0-1.3,1.3A1.3,1.3,0,0,0,644.083,314.9Z" transform="translate(-619.273 -313.6)" fill="#fff"/>
                </g>
              </g>
            </g>
          </g>
          <g id="CHARACTER" transform="translate(61.98 36.231)">
            <g id="Grupo_1011315" data-name="Grupo 1011315">
              <path id="Trazado_721788" data-name="Trazado 721788" d="M592.72,887,590.7,888.9l-4.156,6.479s-3.76,14.522-15.708,13.385c0,0-14,1.956-13.691-15.464,0,0-3.954-19.592,6.421-46.286a1.075,1.075,0,0,1,.839-.672l14.422-2.232,7.44-16.848a9.947,9.947,0,0,1,7.242-5.7l22.973-4.3,3.4-5.908,33.865,3.2a8.248,8.248,0,0,1,6.08,3.626l1.859,2.78a145.653,145.653,0,0,1,28.754,10.465,10.711,10.711,0,0,1,5.861,9.54v10.872a340.179,340.179,0,0,1-7.792,51.733s.68,12.516-8.893,16.767l.741,7.382H589.482l3.164-20.914.072-19.8Z" transform="translate(-556.408 -757.202)" fill="#003f60"/>
              <path id="Trazado_721789" data-name="Trazado 721789" d="M1063.04,989.8s6.629-79.424,6.637-108.582l30.6,2.4a3.028,3.028,0,0,1,2.735,3.606c-1.165,5.876-5.276,19.3-19.757,38.917l-7.352,63.659H1063.04Z" transform="translate(-1006.605 -819.289)" fill="#e8e8e8"/>
              <path id="Trazado_721790" data-name="Trazado 721790" d="M1126.729,1141.41l6.994,6.216-8.714,27.25-12.443-13.554a.993.993,0,0,1-.229-.925C1112.923,1158.187,1115.82,1149.516,1126.729,1141.41Z" transform="translate(-1050.382 -1050.496)" fill="#003f60"/>
              <g id="Grupo_1011304" data-name="Grupo 1011304" transform="translate(50.594)">
                <g id="Grupo_1011303" data-name="Grupo 1011303" transform="translate(2.629 8.333)">
                  <g id="Grupo_1011296" data-name="Grupo 1011296" transform="translate(4.562)">
                    <path id="Trazado_721791" data-name="Trazado 721791" d="M1151.771,717.452l-9.219,8.647a9.134,9.134,0,0,0-1.5,1.746l-3.321,5.03-4.465-5.271a9.166,9.166,0,0,0-1.655-1.527L1121,718.463V690.2h30.771v27.253Z" transform="translate(-1115.893 -657.881)" fill="#ffc89f"/>
                    <rect id="Rectángulo_347706" data-name="Rectángulo 347706" width="40.986" height="66.021" rx="20.493" fill="#ffc89f"/>
                    <path id="Trazado_721792" data-name="Trazado 721792" d="M1118.6,912.838a17.131,17.131,0,0,1-5.313-.4c-.438-.095-.866-.229-1.3-.351s-.847-.3-1.271-.444c-.215-.069-.414-.174-.62-.263l-.615-.277c-.408-.189-.8-.416-1.2-.622-.391-.222-.763-.476-1.145-.712s-.732-.521-1.094-.786-.687-.578-1.031-.866-.647-.622-.966-.936a17.057,17.057,0,0,1-3.067-4.358,26.2,26.2,0,0,0,3.471,3.947c.332.283.653.576.985.857.344.265.679.542,1.03.8s.705.507,1.069.741.734.463,1.113.673.755.427,1.146.615.783.374,1.183.542.8.338,1.212.478l.618.206c.207.067.409.151.621.2a26.1,26.1,0,0,0,5.166.959Z" transform="translate(-1098.103 -846.816)" fill="#ff9a6c"/>
                    <path id="Trazado_721793" data-name="Trazado 721793" d="M1364.318,891.51a11.686,11.686,0,0,1-1.185,2.56c-.124.2-.251.4-.382.6l-.41.578c-.143.188-.294.37-.441.556l-.462.538a14.7,14.7,0,0,1-2.1,1.9,11.657,11.657,0,0,1-2.438,1.418c.705-.625,1.4-1.231,2.069-1.86s1.307-1.283,1.923-1.956l.459-.508c.148-.174.292-.351.444-.521l.438-.528c.138-.183.283-.36.428-.538.565-.724,1.1-1.473,1.658-2.233Z" transform="translate(-1325.515 -836.766)" fill="#ff9a6c"/>
                  </g>
                  <g id="Grupo_1011299" data-name="Grupo 1011299" transform="translate(12.867 20.813)">
                    <g id="Grupo_1011297" data-name="Grupo 1011297" transform="translate(19.36 6.25)">
                      <circle id="Elipse_7889" data-name="Elipse 7889" cx="1.845" cy="1.845" r="1.845" transform="translate(1.962 2.778)" fill="#1b1b2f"/>
                      <path id="Trazado_721794" data-name="Trazado 721794" d="M1331.123,644.513a5.939,5.939,0,0,0-.87-.542c-.151-.078-.305-.15-.46-.221s-.314-.129-.476-.178a5.809,5.809,0,0,0-1.986-.311,3.8,3.8,0,0,0-.5.031l-.252.023c-.083.01-.165.035-.247.049l-.5.1c-.159.055-.321.106-.482.157l-.243.077-.232.1-.466.211c-.306.15-.594.336-.9.5.275-.2.552-.412.843-.6l.459-.245.23-.123.243-.1c.163-.064.325-.127.489-.187.168-.045.34-.083.51-.125.086-.019.17-.043.257-.056l.262-.028a3.946,3.946,0,0,1,.525-.039,5.216,5.216,0,0,1,2.054.38,5.129,5.129,0,0,1,1.74,1.117Z" transform="translate(-1323.51 -643.012)" fill="#1b1b2f"/>
                    </g>
                    <g id="Grupo_1011298" data-name="Grupo 1011298" transform="translate(0.001 6.25)">
                      <circle id="Elipse_7890" data-name="Elipse 7890" cx="1.845" cy="1.845" r="1.845" transform="translate(1.96 2.778)" fill="#1b1b2f"/>
                      <path id="Trazado_721795" data-name="Trazado 721795" d="M1157.332,644.513a5.939,5.939,0,0,0-.87-.542c-.151-.078-.305-.15-.46-.221s-.314-.129-.476-.178a5.809,5.809,0,0,0-1.986-.311,3.8,3.8,0,0,0-.5.031l-.252.023c-.084.01-.165.035-.247.049l-.495.1c-.159.055-.321.106-.482.157l-.243.077-.232.1-.466.211c-.306.15-.594.336-.9.5.275-.2.552-.412.843-.6l.459-.245.231-.123.243-.1c.163-.064.325-.127.489-.187.168-.045.34-.083.51-.125.086-.019.17-.043.257-.056l.262-.028a3.948,3.948,0,0,1,.525-.039,5.217,5.217,0,0,1,2.054.38,5.131,5.131,0,0,1,1.74,1.117Z" transform="translate(-1149.72 -643.012)" fill="#1b1b2f"/>
                    </g>
                    <path id="Trazado_721796" data-name="Trazado 721796" d="M1279.935,722.37c.161.783.3,1.569.428,2.357s.248,1.576.362,2.366a5.168,5.168,0,0,1,.08,1.216,3.239,3.239,0,0,1-.319,1.186,2.121,2.121,0,0,1-.814.913c-.354.186-.705.376-1.063.555.33-.226.668-.438,1-.658a1.981,1.981,0,0,0,.705-.89,3.328,3.328,0,0,0,.257-1.123,5.06,5.06,0,0,0-.091-1.165c-.108-.791-.216-1.581-.305-2.374s-.179-1.586-.241-2.383Z" transform="translate(-1264.251 -707.28)" fill="#1b1b2f"/>
                    <path id="Trazado_721797" data-name="Trazado 721797" d="M1331.131,589.511c-.85-.05-1.494-.1-2.105-.121s-1.135-.041-1.67-.021a.862.862,0,0,0-.2,0l-.2.009c-.068,0-.136,0-.2,0s-.137.015-.206.016c-.138.011-.281.011-.427.012-.144.017-.292.029-.447.033-.077,0-.157,0-.237,0s-.156.021-.238.024c-.161.015-.333.02-.511.023a7.9,7.9,0,0,1-1.164.018,3.252,3.252,0,0,1,.251-.568,3.362,3.362,0,0,1,.33-.51c.13-.148.267-.294.413-.432.071-.072.148-.136.224-.2s.164-.117.248-.17c.169-.11.345-.213.526-.31.187-.081.381-.15.578-.216a3.035,3.035,0,0,1,.3-.088l.309-.052a3.552,3.552,0,0,1,.625-.057,4.191,4.191,0,0,1,2.37.669,2.28,2.28,0,0,1,.25.18c.08.062.16.125.236.194a4.165,4.165,0,0,1,.416.447,2.7,2.7,0,0,1,.539,1.116Z" transform="translate(-1304.159 -586.901)" fill="#1b1b2f"/>
                    <path id="Trazado_721798" data-name="Trazado 721798" d="M1157.323,589.511c-.85-.05-1.494-.1-2.106-.121s-1.135-.041-1.67-.021a.862.862,0,0,0-.2,0l-.2.009c-.068,0-.136,0-.2,0s-.137.015-.206.016c-.138.011-.281.011-.427.012-.144.017-.292.029-.447.033-.077,0-.157,0-.237,0s-.156.021-.238.024c-.162.015-.333.02-.511.023a7.9,7.9,0,0,1-1.164.018,3.27,3.27,0,0,1,.251-.568,3.362,3.362,0,0,1,.33-.51c.13-.148.267-.294.413-.432.071-.072.148-.136.224-.2s.164-.117.248-.17c.169-.11.345-.213.526-.31.187-.081.381-.15.578-.216a3.032,3.032,0,0,1,.3-.088l.309-.052a3.552,3.552,0,0,1,.625-.057,4.191,4.191,0,0,1,2.37.669,2.291,2.291,0,0,1,.249.18c.08.062.161.125.236.194a4.152,4.152,0,0,1,.416.447,2.7,2.7,0,0,1,.539,1.116Z" transform="translate(-1149.71 -586.901)" fill="#1b1b2f"/>
                  </g>
                  <g id="Grupo_1011302" data-name="Grupo 1011302" transform="translate(0 30.337)">
                    <g id="Grupo_1011300" data-name="Grupo 1011300" transform="translate(41.385 0)">
                      <rect id="Rectángulo_347707" data-name="Rectángulo 347707" width="8.691" height="14.431" rx="4.345" transform="translate(8.691 14.431) rotate(180)" fill="#ffc89f"/>
                      <path id="Trazado_721799" data-name="Trazado 721799" d="M1443.712,694.17a3.146,3.146,0,0,1,1.743.9,3.468,3.468,0,0,1,.94,1.789,4.767,4.767,0,0,1,.056,1c-.013.321-.018.643-.041.964a18.834,18.834,0,0,1-.193,1.927,19.149,19.149,0,0,1-.193-1.927c-.023-.321-.027-.643-.041-.964a4.731,4.731,0,0,0-.074-.913,3.261,3.261,0,0,0-.272-.853,3.84,3.84,0,0,0-.471-.772,4.311,4.311,0,0,0-1.457-1.16Z" transform="translate(-1439.478 -691.745)" fill="#ff9a6c"/>
                      <path id="Trazado_721800" data-name="Trazado 721800" d="M1438.974,744.291a1.494,1.494,0,0,1-.534-.415,2.013,2.013,0,0,1-.46-1.243,1.5,1.5,0,0,1,.135-.663c.1.211.173.4.246.595l.206.557.206.557c.068.192.142.385.2.612Z" transform="translate(-1434.386 -734.22)" fill="#ff9a6c"/>
                    </g>
                    <g id="Grupo_1011301" data-name="Grupo 1011301" transform="translate(0 0)">
                      <rect id="Rectángulo_347708" data-name="Rectángulo 347708" width="8.691" height="14.431" rx="4.345" fill="#ffc89f"/>
                      <path id="Trazado_721801" data-name="Trazado 721801" d="M1052.066,694.881a4.4,4.4,0,0,0-1.339,1.211,3.8,3.8,0,0,0-.652,1.605,6.2,6.2,0,0,0-.052.893c-.013.311-.018.623-.041.933a17.691,17.691,0,0,1-.193,1.867,18.02,18.02,0,0,1-.193-1.867c-.023-.311-.028-.623-.041-.933,0-.158-.008-.305,0-.472a4.13,4.13,0,0,1,.037-.5,3.486,3.486,0,0,1,.84-1.77,3.132,3.132,0,0,1,1.637-.971Z" transform="translate(-1047.84 -692.376)" fill="#ff9a6c"/>
                      <path id="Trazado_721802" data-name="Trazado 721802" d="M1071.03,744.3c.059-.226.133-.42.2-.612l.206-.557.206-.557c.073-.189.143-.384.246-.595a1.466,1.466,0,0,1,.135.663,2.006,2.006,0,0,1-.125.661,1.985,1.985,0,0,1-.335.583,1.478,1.478,0,0,1-.534.416Z" transform="translate(-1066.927 -734.229)" fill="#ff9a6c"/>
                    </g>
                  </g>
                </g>
                <path id="Trazado_721803" data-name="Trazado 721803" d="M1020.34,353.764l.821-.421-.821,4.99-2.464,2.5s.411,9.741.274,9.741-3.422-9.32-3.422-16.954c0,0-2.455,2.222.739,5.781,0,0-4.452-.657-2.354-4.49a30.066,30.066,0,0,0,1.974-4.282c.019-.053.039-.107.059-.161l-1.185,1.6s-.862-1.6.97-4.37c0,0-4.04,3.042-4.095,7.356a7.855,7.855,0,0,1,3.394-8.518s-.561-2.983,2.52-7.589a8.363,8.363,0,0,0-2.973,3.885s-1.451-5.551,7.384-7.548c0,0,1.537-4.384,7.375-2.22,0,0-1.978-6.795,6.214-7.823,0,0-6.129,1.733-5,7.19,0,0,2.627-8.988,11.256-5.65a3.827,3.827,0,0,1,4.065,2.568s4.627,2.375,7.442,0a2.893,2.893,0,0,1-4.252,1.477,6.922,6.922,0,0,0,4.252,1.027c2.376-.257,3.377,2.247,3.377,2.247s5.859-.565,5.673,6.442c0,0,7.946,4.558,5.609,10.845,0,0,.328-5.471-6.17-8.494,0,0,7.312,7.858,4.038,11.744,0,0,.665-2.468-1.944-5.041l-1.484,4.779s2.609,4.044,1.33,5.776c0,0-.511-4.044-1.535-5.462,0,0,.7,8.337-2.881,12.9l.174-6.462-2.252-3.5-.577-7.117s-5.024-3.2-4.85-3.2a14.106,14.106,0,0,0,1.444-.475s-2.31-4.565-8.892-2.313l.174-.771-2.541,1.126.52-1.542-2.136,1.542-2.137-.712.469.83-4.222-1.126.52.652s-7.853.355-12.935,5.691l1.328-.416-2.268,3.95Z" transform="translate(-1010.602 -325.25)" fill="#1b1b2f"/>
                <path id="Trazado_721804" data-name="Trazado 721804" d="M1169.583,373.01a6.483,6.483,0,0,0,.134,1.808c.045.3.136.589.206.882.087.29.187.575.283.86a14.675,14.675,0,0,0,1.692,3.195c.174.247.326.509.517.744l.558.715c.179.244.39.463.59.691s.4.452.6.682q.636.648,1.284,1.291c.448.41.9.815,1.347,1.232-.48-.374-.95-.762-1.427-1.143-.451-.411-.9-.829-1.34-1.249a21.055,21.055,0,0,1-2.336-2.826,13.958,13.958,0,0,1-1.666-3.268c-.087-.294-.178-.587-.255-.883-.06-.3-.143-.6-.175-.9a6.02,6.02,0,0,1-.015-1.827Z" transform="translate(-1151.816 -367.69)" fill="#1f4168"/>
                <path id="Trazado_721805" data-name="Trazado 721805" d="M1201.034,366.42a5.93,5.93,0,0,0-.413,1.519,8.383,8.383,0,0,0-.094,1.567,11.033,11.033,0,0,0,.558,3.08,16.116,16.116,0,0,0,1.245,2.887c.258.458.536.907.807,1.359.3.438.6.87.888,1.314-.334-.41-.657-.83-.988-1.247-.293-.442-.59-.882-.871-1.333-.129-.232-.257-.466-.382-.7l-.188-.352c-.06-.118-.108-.243-.164-.364l-.32-.733c-.1-.248-.175-.5-.263-.756a10.553,10.553,0,0,1-.511-3.151,6.7,6.7,0,0,1,.7-3.089Z" transform="translate(-1179.202 -361.834)" fill="#1f4168"/>
                <path id="Trazado_721806" data-name="Trazado 721806" d="M1285.86,401.094c.3-.327.6-.661.869-1.013s.547-.7.8-1.063a17.805,17.805,0,0,0,1.35-2.279,12.7,12.7,0,0,0,.9-2.482l.131-.648c.046-.216.048-.438.076-.658l.037-.331c.01-.11,0-.221,0-.332,0-.222,0-.444,0-.668a8.211,8.211,0,0,1-.063,2.677,10.683,10.683,0,0,1-.862,2.55,13.993,13.993,0,0,1-1.419,2.282,13.057,13.057,0,0,1-1.82,1.964Z" transform="translate(-1255.198 -384.227)" fill="#1f4168"/>
                <path id="Trazado_721807" data-name="Trazado 721807" d="M1263.391,431.089a9.752,9.752,0,0,1-.382-2.76,9.048,9.048,0,0,1,.1-1.4,6.577,6.577,0,0,1,.354-1.352c-.069.461-.129.916-.163,1.374s-.055.916-.049,1.375.015.918.037,1.378S1263.349,430.626,1263.391,431.089Z" transform="translate(-1234.892 -414.404)" fill="#1f4168"/>
                <path id="Trazado_721808" data-name="Trazado 721808" d="M1302.91,411.07a27.8,27.8,0,0,1,6.057-4.914,19.5,19.5,0,0,1,1.741-.9,12.978,12.978,0,0,1,1.834-.7,8.833,8.833,0,0,1,3.874-.353,8.74,8.74,0,0,0-1.938.079,10.408,10.408,0,0,0-1.88.456,17.729,17.729,0,0,0-3.507,1.632,29.78,29.78,0,0,0-3.211,2.181q-.774.59-1.513,1.224t-1.456,1.3Z" transform="translate(-1270.349 -395.335)" fill="#1f4168"/>
                <path id="Trazado_721809" data-name="Trazado 721809" d="M1363.261,442.978a9.247,9.247,0,0,1,3.347-.755,14.517,14.517,0,0,1,6.73,1.282,8.3,8.3,0,0,1,.772.387c.25.145.51.266.745.434s.482.313.708.49.448.359.668.54l-.706-.487c-.235-.16-.49-.293-.733-.44s-.5-.267-.754-.4a7.954,7.954,0,0,0-.776-.351,16.615,16.615,0,0,0-6.648-1.268,12.194,12.194,0,0,0-1.7.15l-.422.068-.416.1c-.281.057-.545.166-.82.25Z" transform="translate(-1323.977 -429.175)" fill="#1f4168"/>
                <path id="Trazado_721810" data-name="Trazado 721810" d="M1441.11,513.93a16.131,16.131,0,0,0-1.392-1.825,17.554,17.554,0,0,0-1.611-1.622,17.2,17.2,0,0,0-1.8-1.409,21.094,21.094,0,0,0-1.968-1.184c.178.071.356.145.532.222s.358.147.527.238c.342.178.686.355,1.011.565a12.575,12.575,0,0,1,1.86,1.385,12.948,12.948,0,0,1,1.592,1.685c.24.3.466.617.681.938A9.421,9.421,0,0,1,1441.11,513.93Z" transform="translate(-1387.138 -487.545)" fill="#1f4168"/>
                <path id="Trazado_721811" data-name="Trazado 721811" d="M1080.863,415.221a7.249,7.249,0,0,1,1.864-.724,8.229,8.229,0,0,1,1.994-.25,4.452,4.452,0,0,1,.5.013c.167.013.336.018.5.038a7.59,7.59,0,0,1,.989.188c.162.046.326.076.484.135l.472.169a4.087,4.087,0,0,1,.457.2q.226.109.447.224a11.679,11.679,0,0,0-1.9-.547,9.439,9.439,0,0,0-1.954-.179,10.514,10.514,0,0,0-1.956.187c-.162.029-.322.067-.483.1s-.32.081-.478.126a8.638,8.638,0,0,0-.942.313Z" transform="translate(-1073.034 -404.333)" fill="#1f4168"/>
                <path id="Trazado_721812" data-name="Trazado 721812" d="M1121.386,469.469c-.479-.253-.964-.492-1.459-.707s-.991-.426-1.5-.608a15.141,15.141,0,0,0-3.111-.811,7.3,7.3,0,0,0-3.167.159,4.756,4.756,0,0,0-1.429.7,5.634,5.634,0,0,0-1.142,1.132,5.2,5.2,0,0,1,1.069-1.228,4.889,4.889,0,0,1,1.445-.779,7.24,7.24,0,0,1,3.26-.223,14.175,14.175,0,0,1,3.145.878,16.875,16.875,0,0,1,2.89,1.492Z" transform="translate(-1098.554 -451.224)" fill="#1f4168"/>
                <path id="Trazado_721813" data-name="Trazado 721813" d="M1070.467,495.083c-.87-.115-1.743-.184-2.619-.216s-1.75-.043-2.623-.009a25.91,25.91,0,0,0-5.183.686,19.692,19.692,0,0,0-2.494.774,17.2,17.2,0,0,0-2.339,1.155,12.688,12.688,0,0,0-3.809,3.542,12.4,12.4,0,0,1,1.641-2.06,13.4,13.4,0,0,1,2.068-1.644,15.426,15.426,0,0,1,2.356-1.2,19.781,19.781,0,0,1,2.52-.805,24.782,24.782,0,0,1,5.237-.635,26.771,26.771,0,0,1,5.247.413Z" transform="translate(-1046.855 -475.794)" fill="#1f4168"/>
                <path id="Trazado_721814" data-name="Trazado 721814" d="M1029.07,505.114a7.674,7.674,0,0,1,1.39-1.261,8.969,8.969,0,0,1,1.633-.942c.284-.136.585-.236.879-.346a8.4,8.4,0,0,1,.913-.24c.155-.028.307-.066.463-.086l.468-.056a4.141,4.141,0,0,1,.47-.023c.157,0,.313,0,.469,0-.309.058-.619.073-.921.146l-.456.089c-.151.031-.3.079-.448.118a11.014,11.014,0,0,0-1.737.626,12.626,12.626,0,0,0-1.627.874q-.393.247-.765.525c-.253.18-.493.375-.731.579Z" transform="translate(-1027.013 -482.45)" fill="#1f4168"/>
                <path id="Trazado_721815" data-name="Trazado 721815" d="M1406,545.14a18.8,18.8,0,0,1,1.7.9c.556.323,1.1.672,1.627,1.033s1.052.739,1.553,1.141c.253.2.5.4.747.607s.485.422.72.642l-3.159-2.185c-.526-.364-1.059-.716-1.589-1.076l-1.6-1.064Z" transform="translate(-1361.955 -520.646)" fill="#1f4168"/>
                <path id="Trazado_721816" data-name="Trazado 721816" d="M1042.15,560.593a3.634,3.634,0,0,1,.639-1.142,6.72,6.72,0,0,1,.92-.938,8.918,8.918,0,0,1,1.062-.766c.186-.114.378-.217.568-.322s.392-.19.593-.275l-1.053.756c-.342.261-.688.513-1.009.794a11.028,11.028,0,0,0-.933.874,5.832,5.832,0,0,0-.784,1.017Z" transform="translate(-1038.636 -531.318)" fill="#1f4168"/>
                <path id="Trazado_721817" data-name="Trazado 721817" d="M1065.31,577.921c.312-.552.647-1.092.987-1.627s.69-1.065,1.042-1.592.715-1.047,1.089-1.561l.561-.769c.194-.251.382-.507.583-.753-.155.278-.322.548-.483.822l-.5.806c-.337.538-.688,1.064-1.042,1.591s-.715,1.046-1.088,1.558-.746,1.026-1.144,1.523Z" transform="translate(-1059.216 -544.176)" fill="#1f4168"/>
                <circle id="Elipse_7891" data-name="Elipse 7891" cx="4.492" cy="4.492" r="4.492" transform="matrix(0.377, -0.926, 0.926, 0.377, 21.821, 61.04)" fill="#ff9a6c"/>
                <path id="Trazado_721818" data-name="Trazado 721818" d="M1227.057,863.547a4.266,4.266,0,0,1-.933.6,4.548,4.548,0,0,1-1.068.338,4.405,4.405,0,0,1-2.23-.187,4.306,4.306,0,0,1-1.848-1.261,4.61,4.61,0,0,1-.619-.933,4.251,4.251,0,0,1-.348-1.054,4.907,4.907,0,0,0,1.107,1.859,4.553,4.553,0,0,0,1.79,1.156,4.641,4.641,0,0,0,2.12.233A4.93,4.93,0,0,0,1227.057,863.547Z" transform="translate(-1196.683 -801.366)" fill="#e43f5a"/>
              </g>
              <g id="Grupo_1011305" data-name="Grupo 1011305" transform="translate(102.489 156.695)">
                <path id="Trazado_721819" data-name="Trazado 721819" d="M1497.2,1738.376l.589,5.874s-13.634.01-21.309-12.31c0,0,7.561,12.3,20.719,6.436Z" transform="translate(-1476.48 -1731.94)" fill="#112e4c"/>
              </g>
              <g id="Grupo_1011306" data-name="Grupo 1011306" transform="translate(27.406 116.815)">
                <path id="Trazado_721820" data-name="Trazado 721820" d="M804.445,1388.6a99.4,99.4,0,0,0-2.005-14.666l1.249,1.436a6.649,6.649,0,0,1,1.6,5.039Z" transform="translate(-802.44 -1373.93)" fill="#112e4c"/>
              </g>
              <g id="Grupo_1011307" data-name="Grupo 1011307" transform="translate(56.435 126.628)" opacity="0.4">
                <path id="Trazado_721821" data-name="Trazado 721821" d="M1063.04,1505.906l3.353-43.885v43.885Z" transform="translate(-1063.04 -1462.02)" fill="#1f4168"/>
              </g>
              <g id="Grupo_1011308" data-name="Grupo 1011308" transform="translate(33.033 121.849)" opacity="0.4">
                <path id="Trazado_721822" data-name="Trazado 721822" d="M856.229,1427.071l-2.017,1.895-1.262,1.968,1.265-2.434a11.29,11.29,0,0,0,1.272-5.3l-.031-4.085Z" transform="translate(-852.95 -1419.12)" fill="#07192c"/>
              </g>
              <g id="Grupo_1011309" data-name="Grupo 1011309" transform="translate(114.95 127.229)">
                <path id="Trazado_721823" data-name="Trazado 721823" d="M1602.339,1480.719s-3-6.773-14-13.309l4.754,2.034a14.559,14.559,0,0,1,7.607,7.539l1.639,3.736Z" transform="translate(-1588.34 -1467.41)" fill="#112e4c"/>
              </g>
              <g id="Grupo_1011310" data-name="Grupo 1011310" transform="translate(107.106 103.024)">
                <path id="Trazado_721824" data-name="Trazado 721824" d="M1518.069,1267.994a12.894,12.894,0,0,1,3.813-8.58l3.216-9.295S1516.728,1260.485,1518.069,1267.994Z" transform="translate(-1517.923 -1250.12)" fill="#112e4c"/>
              </g>
              <g id="Grupo_1011311" data-name="Grupo 1011311" transform="translate(111.73 113.452)">
                <path id="Trazado_721825" data-name="Trazado 721825" d="M1559.43,1345.6s10.66-1.548,16.882,2.891l-4.129-3.067a8.573,8.573,0,0,0-7.5-1.349l-5.248,1.525Z" transform="translate(-1559.43 -1343.739)" fill="#112e4c"/>
              </g>
              <g id="Grupo_1011312" data-name="Grupo 1011312" transform="translate(81.635 79.421)" opacity="0.4">
                <path id="Trazado_721826" data-name="Trazado 721826" d="M1289.26,1041.161a19.932,19.932,0,0,0,2.94-2.931,15.965,15.965,0,0,1,1.823,4.869S1292.177,1039.514,1289.26,1041.161Z" transform="translate(-1289.26 -1038.23)" fill="#1f4168"/>
              </g>
              <g id="Grupo_1011313" data-name="Grupo 1011313" transform="translate(103.815 97.457)">
                <path id="Trazado_721827" data-name="Trazado 721827" d="M1490.2,1222.148s.38-12.438,1.788-22.008l-3.61,20.182,1.822,1.825Z" transform="translate(-1488.38 -1200.14)" fill="#112e4c"/>
              </g>
              <g id="Grupo_1011314" data-name="Grupo 1011314" transform="translate(62.827 105.279)">
                <path id="Trazado_721828" data-name="Trazado 721828" d="M1123.869,1272.8s-6.018,3.921-2.151-2.438Z" transform="translate(-1120.422 -1270.36)" fill="#0e2640"/>
              </g>
              <path id="Trazado_721829" data-name="Trazado 721829" d="M1608.251,1049.62c.195-.405.379-.818.584-1.219s.405-.8.629-1.2l.331-.589.348-.579.174-.29.182-.285.365-.569c.5-.747,1.024-1.485,1.585-2.191l.207-.267.215-.262c.144-.174.285-.35.431-.521.3-.341.588-.684.9-1.014a34.764,34.764,0,0,1,3.956-3.683,27.025,27.025,0,0,1,4.517-2.955,22.913,22.913,0,0,0-2.3,1.41q-1.113.764-2.162,1.613a35.659,35.659,0,0,0-3.927,3.692,36.07,36.07,0,0,0-3.345,4.225l-.371.564-.185.282-.177.287-.354.575-.338.585c-.232.386-.438.786-.653,1.182s-.4.8-.608,1.205Z" transform="translate(-1491.082 -955.05)" fill="#170c08"/>
              <path id="Trazado_721830" data-name="Trazado 721830" d="M1315.64,1038.221l.345.634c.057.106.116.212.17.319l.15.329c.1.219.2.438.294.661l.256.675a19.913,19.913,0,0,1,.774,2.783,24.529,24.529,0,0,1,.4,2.861,20.6,20.6,0,0,1,.032,2.885c.009-.481,0-.961-.021-1.441-.008-.24-.027-.479-.039-.719l-.059-.718a26.631,26.631,0,0,0-.422-2.846,21.118,21.118,0,0,0-.745-2.776l-.241-.678c-.088-.223-.186-.442-.277-.664l-.138-.333c-.051-.108-.106-.215-.159-.323l-.319-.647Z" transform="translate(-1231.067 -958.8)" fill="#1b1a2e"/>
              <path id="Trazado_721831" data-name="Trazado 721831" d="M1274.96,1042.277c.207-.148.426-.279.627-.433l.31-.222.3-.233c.2-.155.4-.316.593-.477s.385-.33.57-.5c.379-.336.743-.69,1.1-1.052q.268-.271.525-.552c.174-.185.342-.375.509-.567a12.758,12.758,0,0,1-.971,1.178c-.344.377-.711.731-1.086,1.076a15.148,15.148,0,0,1-1.186.965,11.616,11.616,0,0,1-1.289.82Z" transform="translate(-1194.918 -958.818)" fill="#1b1a2e"/>
              <path id="Trazado_721832" data-name="Trazado 721832" d="M1225.172,1041.26c.471.278.935.573,1.382.888s.889.642,1.321.978.853.688,1.264,1.05.815.733,1.2,1.124c-.208-.178-.414-.358-.626-.531s-.418-.352-.629-.526c-.422-.348-.845-.694-1.278-1.028s-.863-.669-1.3-1l-.33-.244-.334-.238c-.218-.165-.448-.313-.669-.476Z" transform="translate(-1150.675 -961.502)" fill="#1b1a2e"/>
              <path id="Trazado_721833" data-name="Trazado 721833" d="M1250.81,1084.646c.17-.6.353-1.2.537-1.792s.378-1.188.566-1.783.389-1.185.59-1.775l.3-.884c.106-.294.207-.588.315-.881-.085.3-.175.6-.263.9l-.274.895c-.184.6-.378,1.188-.566,1.783s-.389,1.185-.59,1.775S1251.025,1084.06,1250.81,1084.646Z" transform="translate(-1173.458 -993.731)" fill="#1b1a2e"/>
              <path id="Trazado_721834" data-name="Trazado 721834" d="M1164.88,1451.629l.306-6.338.323-6.336.647-12.673.685-12.671.343-6.336.361-6.335-.305,6.338-.323,6.336-.648,12.673-.685,12.671-.343,6.336Z" transform="translate(-1097.1 -1281.116)" fill="#1b1a2e"/>
              <path id="Trazado_721835" data-name="Trazado 721835" d="M1247.96,1138.27c.388.393.766.8,1.144,1.2s.748.813,1.122,1.219.739.821,1.1,1.236l.544.625c.178.21.36.419.535.633-.195-.2-.384-.4-.576-.595l-.567-.6c-.378-.4-.747-.813-1.121-1.219s-.739-.821-1.1-1.236-.726-.832-1.079-1.256Z" transform="translate(-1170.926 -1047.705)" fill="#1b1a2e"/>
              <path id="Trazado_721836" data-name="Trazado 721836" d="M1519.23,1223.564a11.915,11.915,0,0,1,.318-2.379,12.809,12.809,0,0,1,.753-2.283l.118-.277c.04-.091.089-.181.133-.271.091-.179.178-.361.273-.537.207-.344.4-.7.635-1.025a12.5,12.5,0,0,1,1.548-1.845l-.013.02,1.282-3.717,1.291-3.714,1.3-3.71,1.316-3.7-1.255,3.726-1.269,3.722-1.28,3.718-1.289,3.715,0,.011-.009.009a12.422,12.422,0,0,0-1.542,1.825c-.241.32-.431.67-.641,1.01-.1.175-.184.354-.276.531-.044.089-.094.176-.135.267l-.12.274a13.377,13.377,0,0,0-.777,2.265,11.823,11.823,0,0,0-.358,2.369Z" transform="translate(-1411.979 -1102.666)" fill="#170c08"/>
              <path id="Trazado_721837" data-name="Trazado 721837" d="M1304.59,1197.22l3.545,3.51,3.531,3.523,7.062,7.048,7.036,7.075,3.517,3.537,3.505,3.55-3.544-3.51-3.531-3.523-7.062-7.048-7.036-7.075-3.517-3.538Z" transform="translate(-1221.248 -1100.089)" fill="#170c08"/>
              <path id="Trazado_721838" data-name="Trazado 721838" d="M1568.231,1456.85a41.388,41.388,0,0,1,5.5,3.161,41.835,41.835,0,0,1,4.979,3.934c.775.722,1.513,1.483,2.219,2.272l.52.6c.171.2.333.411.5.617.083.1.167.2.247.311l.237.319.236.32c.079.106.158.213.231.323l.446.658c.147.22.28.45.42.674l.208.339.192.348c.126.233.261.461.379.7a21.867,21.867,0,0,1,1.217,2.928,21.942,21.942,0,0,0-1.266-2.9,24.487,24.487,0,0,0-1.665-2.691,29.706,29.706,0,0,0-1.978-2.471c-.706-.784-1.445-1.541-2.219-2.258s-1.575-1.407-2.4-2.064-1.681-1.279-2.55-1.88-1.76-1.17-2.668-1.711-1.83-1.059-2.781-1.521Z" transform="translate(-1455.52 -1330.798)" fill="#170c08"/>
              <path id="Trazado_721839" data-name="Trazado 721839" d="M1559.43,1358.122a33.959,33.959,0,0,1,4.806-.3c.8,0,1.607.041,2.408.1s1.6.155,2.395.284a22.448,22.448,0,0,1,2.357.511,17,17,0,0,1,2.281.784c.187.073.368.163.549.248s.365.169.54.27.354.191.529.291l.511.32a11.5,11.5,0,0,1,1.852,1.535,11.536,11.536,0,0,0-1.883-1.488l-.513-.311c-.175-.1-.353-.188-.53-.283s-.359-.177-.54-.261-.362-.17-.55-.241a18.176,18.176,0,0,0-2.274-.765,22.484,22.484,0,0,0-2.348-.5,32.76,32.76,0,0,0-4.785-.412q-1.2-.023-2.405.031c-.8.032-1.6.083-2.4.178Z" transform="translate(-1447.701 -1242.804)" fill="#170c08"/>
              <path id="Trazado_721840" data-name="Trazado 721840" d="M1553.451,1248.1a23.282,23.282,0,0,1,2.489-1.955c.429-.308.878-.587,1.319-.878s.9-.551,1.351-.828a58.91,58.91,0,0,1,5.641-2.882l1.451-.634,1.47-.588.736-.293c.245-.1.5-.182.743-.273l1.49-.536.373-.134.376-.121.754-.243,1.507-.485,3.047-.865-3.03.918-1.5.5-.751.25-.375.126-.371.137-1.485.546c-.247.092-.5.177-.742.275l-.734.3-1.467.593-1.448.637a61.422,61.422,0,0,0-5.643,2.854c-.451.272-.91.534-1.357.813s-.893.56-1.326.863a23.337,23.337,0,0,0-2.52,1.91Z" transform="translate(-1442.387 -1135.784)" fill="#170c08"/>
              <path id="Trazado_721841" data-name="Trazado 721841" d="M839.693,1192.461q-.209-2.351-.461-4.7l-.247-2.347-.263-2.346q-.54-4.689-1.2-9.364c-.42-3.119-.907-6.228-1.426-9.331l-.405-2.325c-.135-.775-.291-1.546-.433-2.32l-.215-1.161c-.071-.387-.155-.771-.232-1.157l-.47-2.312.5,2.307c.081.385.169.769.245,1.155l.229,1.157c.148.773.306,1.544.443,2.318l.415,2.324c.071.386.137.775.2,1.163l.193,1.164c.128.776.26,1.552.377,2.33l.36,2.334.335,2.337q.64,4.679,1.162,9.37c.172,1.564.339,3.129.49,4.7s.285,3.135.407,4.7Z" transform="translate(-803.38 -1062.661)" fill="#170c08"/>
              <path id="Trazado_721842" data-name="Trazado 721842" d="M798.72,1358.29c.185.667.344,1.341.5,2.015s.3,1.352.433,2.032c.273,1.358.507,2.724.712,4.093s.374,2.745.5,4.124.217,2.761.271,4.145l-.076-1.036c-.023-.345-.048-.691-.083-1.035l-.09-1.034c-.031-.344-.072-.688-.108-1.031-.07-.688-.157-1.375-.238-2.061l-.139-1.028-.07-.514-.078-.512c-.195-1.369-.43-2.733-.685-4.093s-.532-2.716-.851-4.062Z" transform="translate(-771.728 -1243.217)" fill="#170c08"/>
              <path id="Trazado_721843" data-name="Trazado 721843" d="M800.718,1167.22l-.223,2.663-.234,2.661-.487,5.322-.512,5.32-.265,2.659-.277,2.658.222-2.662.234-2.662.487-5.322.512-5.32.266-2.659Z" transform="translate(-771.728 -1073.431)" fill="#170c08"/>
              <path id="Trazado_721844" data-name="Trazado 721844" d="M1476.49,1731.931a14.642,14.642,0,0,0,.874,1.2c.307.388.635.759.971,1.121a20.071,20.071,0,0,0,2.167,2.02,16.844,16.844,0,0,0,5.149,2.862,15.284,15.284,0,0,0,2.882.645l.736.071c.246.017.494.016.74.026.124,0,.246.008.37.009l.37-.016c.246-.012.493-.013.74-.035.49-.059.984-.09,1.468-.193.243-.046.487-.083.729-.136l.719-.18.36-.089.353-.111.707-.225c.059-.019.118-.036.176-.058l.173-.068.345-.135.692-.27-.686.283-.343.141-.172.07c-.058.023-.117.04-.175.061l-.7.239-.352.118-.359.1-.72.189c-.242.056-.487.1-.729.144-.485.108-.981.145-1.473.209-.247.023-.5.028-.743.042l-.372.018c-.124,0-.249-.005-.372-.008-.248-.008-.5-.007-.744-.022l-.742-.069a15.367,15.367,0,0,1-2.906-.641,16.745,16.745,0,0,1-5.167-2.9,19.041,19.041,0,0,1-3.958-4.407Z" transform="translate(-1373.999 -1575.236)" fill="#170c08"/>
              <path id="Trazado_721845" data-name="Trazado 721845" d="M1226.36,1441.85l3.5,4.021,3.49,4.032,6.98,8.066,6.951,8.092,3.475,4.046,3.462,4.057-3.5-4.021-3.491-4.032-6.98-8.066-6.951-8.092-3.475-4.046Z" transform="translate(-1151.732 -1317.469)" fill="#170c08"/>
              <path id="Trazado_721846" data-name="Trazado 721846" d="M1507.585,1134.5c-.193,1.213-.368,2.428-.536,3.646l-.252,1.825-.239,1.827q-.466,3.654-.819,7.323c-.129,1.221-.237,2.444-.349,3.667-.055.611-.1,1.224-.148,1.836s-.1,1.224-.135,1.837l-.121,1.838-.1,1.84-.051.92-.037.92-.074,1.841c.051-2.456.133-4.912.3-7.364.035-.614.079-1.227.125-1.839s.087-1.225.139-1.838c.1-1.224.206-2.448.33-3.67q.376-3.666.857-7.321l.248-1.826.263-1.823C1507.181,1136.924,1507.373,1135.711,1507.585,1134.5Z" transform="translate(-1399.094 -1044.355)" fill="#170c08"/>
              <path id="Trazado_721847" data-name="Trazado 721847" d="M802.44,1360.53a11.286,11.286,0,0,1,1.927,1.555,13.5,13.5,0,0,1,1.6,1.9l.179.254.164.264c.107.177.224.349.323.53a12.161,12.161,0,0,1,.56,1.108l.127.284c.042.095.085.188.118.287l.212.584a5.8,5.8,0,0,1,.179.594l.161.6a15.639,15.639,0,0,0-.877-2.309l-.133-.279a2.778,2.778,0,0,0-.141-.274l-.3-.54c-.1-.179-.217-.349-.325-.524l-.165-.261-.179-.251c-.12-.166-.232-.34-.361-.5l-.382-.484-.405-.466c-.137-.154-.282-.3-.421-.451s-.293-.29-.438-.435-.3-.277-.457-.415a11.521,11.521,0,0,0-.97-.766Z" transform="translate(-775.034 -1245.207)" fill="#170c08"/>
              <path id="Trazado_721848" data-name="Trazado 721848" d="M907.23,1676.67c1.2.4,2.388.8,3.579,1.214l3.569,1.242,3.56,1.268,1.777.643,1.773.654-1.791-.6-1.788-.613-3.569-1.243-3.56-1.268C909.595,1677.539,908.411,1677.11,907.23,1676.67Z" transform="translate(-868.151 -1526.132)" fill="#170c08"/>
              <path id="Trazado_721849" data-name="Trazado 721849" d="M657.5,1194.142q-.3,1.013-.547,2.037l-.247,1.025-.228,1.029q-.443,2.062-.746,4.149c-.048.348-.109.694-.148,1.044l-.127,1.046c-.041.349-.068.7-.1,1.049l-.049.525c-.016.175-.024.351-.037.526l-.07,1.052-.035,1.054-.019.527v.527l0,1.055-.031-1.055-.014-.528.007-.528.018-1.056.055-1.055c.01-.176.016-.352.029-.527l.046-.526c.032-.351.058-.7.1-1.052l.123-1.049c.038-.35.1-.7.144-1.046.211-1.392.46-2.779.773-4.152s.669-2.736,1.106-4.074Z" transform="translate(-644.106 -1097.352)" fill="#170c08"/>
              <path id="Trazado_721850" data-name="Trazado 721850" d="M1210.91,1518.248l.8-3.195.811-3.193,1.64-6.38,1.664-6.374.842-3.185.853-3.181-.8,3.2-.811,3.193-1.64,6.38-1.665,6.374-.841,3.185Z" transform="translate(-1138.003 -1362.69)" fill="#170c08"/>
              <path id="Trazado_721851" data-name="Trazado 721851" d="M1444.976,1018.971a1.254,1.254,0,0,0,.119-1.2,1.215,1.215,0,0,0-.373-.489,3.759,3.759,0,0,0-.553-.3l-2.279-1.151-2.267-1.174-1.129-.595-1.124-.606,1.15.557,1.144.567,2.279,1.151,2.267,1.174.282.149a1.646,1.646,0,0,1,.275.176,1.269,1.269,0,0,1,.209,1.747Z" transform="translate(-1339.237 -936.789)" fill="#170c08"/>
              <path id="Trazado_721852" data-name="Trazado 721852" d="M1364.57,1084.653l1.943-2.721,1.952-2.715,3.918-5.419,3.939-5.4,1.977-2.7,1.987-2.689-1.943,2.721-1.952,2.715-3.917,5.418-3.939,5.4-1.977,2.7Z" transform="translate(-1274.547 -980.829)" fill="#170c08"/>
              <path id="Trazado_721853" data-name="Trazado 721853" d="M984.843,1079.338a1.125,1.125,0,0,1,.141-.742,1.152,1.152,0,0,1,.585-.493l1.436-.529,2.878-1.04,2.887-1.016,1.447-.5,1.451-.488-1.432.54-1.436.529-2.878,1.04-2.887,1.016-1.447.5a1.1,1.1,0,0,0-.578.457,1.139,1.139,0,0,0-.167.727Z" transform="translate(-937.106 -991.065)" fill="#170c08"/>
              <path id="Trazado_721854" data-name="Trazado 721854" d="M993.649,1183.386l-1.115-8.208-1.1-8.211-2.193-16.422-2.155-16.427-1.077-8.213-1.06-8.215,1.115,8.207,1.1,8.211,2.193,16.421,2.155,16.427,1.077,8.213Z" transform="translate(-937.213 -1029.418)" fill="#170c08"/>
              <path id="Trazado_721855" data-name="Trazado 721855" d="M1472.02,914c.238,1.348.464,2.7.688,4.047l.66,4.051.159,1.014.04.254c.007.042.011.088.016.131s0,.089,0,.134a1.309,1.309,0,0,1-.439.94,1.5,1.5,0,0,1-.453.267l-.945.4-1.891.8-1.9.785,1.875-.835,1.879-.825.94-.41a1.393,1.393,0,0,0,.426-.252,1.2,1.2,0,0,0,.4-.869c0-.041,0-.082,0-.123s-.009-.08-.016-.122l-.041-.253-.164-1.013-.633-4.056c-.206-1.352-.411-2.706-.6-4.06Z" transform="translate(-1366.42 -848.417)" fill="#170c08"/>
              <path id="Trazado_721856" data-name="Trazado 721856" d="M994.68,918.871l-1.487,2.824-1.5,2.818-3.011,5.629-1.516,2.808-.757,1.4-.189.351a.958.958,0,0,0-.081.173.552.552,0,0,0-.03.182.6.6,0,0,0,.4.569l3.021,1.029,3.018,1.04-3.035-.988-3.031-1a.69.69,0,0,1-.464-.652.764.764,0,0,1,.121-.4l.188-.352.753-1.407,1.507-2.814,3.034-5.616,1.525-2.8,1.535-2.8Z" transform="translate(-938.162 -852.745)" fill="#170c08"/>
              <circle id="Elipse_7892" data-name="Elipse 7892" cx="1.467" cy="1.467" r="1.467" transform="translate(7.941 97.031)" fill="#1f4168"/>
              <circle id="Elipse_7893" data-name="Elipse 7893" cx="1.467" cy="1.467" r="1.467" transform="translate(6.649 102.965)" fill="#1f4168"/>
              <path id="Trazado_721857" data-name="Trazado 721857" d="M1245.371,1268.09c1,.987,1.965,2,2.921,3.028s1.889,2.074,2.813,3.129,1.816,2.139,2.691,3.235,1.716,2.22,2.517,3.371c-.427-.557-.838-1.124-1.276-1.671s-.87-1.1-1.309-1.645c-.889-1.084-1.787-2.16-2.709-3.215s-1.85-2.105-2.792-3.145q-.7-.779-1.421-1.549c-.473-.517-.955-1.027-1.436-1.537Z" transform="translate(-1168.625 -1163.064)" fill="#0e2640"/>
              <circle id="Elipse_7894" data-name="Elipse 7894" cx="1.467" cy="1.467" r="1.467" transform="matrix(0.696, -0.718, 0.718, 0.696, 79.352, 104.307)" fill="#1f4168"/>
              <circle id="Elipse_7895" data-name="Elipse 7895" cx="1.467" cy="1.467" r="1.467" transform="matrix(0.27, -0.963, 0.963, 0.27, 83.652, 109.825)" fill="#1f4168"/>
              <path id="Trazado_721858" data-name="Trazado 721858" d="M649.988,1105.072l-1.448,4.6s-11.255,5.78-18.52-4.106l1.257-3.087a.829.829,0,0,1,.558-.49,23.9,23.9,0,0,1,18.155,3.084Z" transform="translate(-621.82 -1014.915)" fill="#1f4168"/>
              <g transform="matrix(1, 0, 0, 1, -50.56, -25.31)" filter="url(#Trazado_721859)">
                <path id="Trazado_721859-2" data-name="Trazado 721859" d="M1136.708,1138.27l5.039,4.911s-7.729,8.348-15.205,12.242l-3.112-3.53S1130.48,1140.848,1136.708,1138.27Z" transform="translate(-1009.7 -1022.4)" fill="#cccaca"/>
              </g>
              <path id="Trazado_721860" data-name="Trazado 721860" d="M606.38,854.474s-8.076,4.7-17.528-1.974l.841-3.118a21.67,21.67,0,0,0-.353-12.457h0a9.743,9.743,0,0,1-.437-2h0a9.809,9.809,0,0,0-.936-3.221l-2.78-5.684-3.715-3.468a1.65,1.65,0,0,1,.393-2.69c1.923-.927,5.136-1.14,8.528,4.4l3.04,4.9a1.839,1.839,0,0,0,2.726.456l4.225-3.447a8.952,8.952,0,0,1,3.3-1.7,22,22,0,0,1,7.529-.791,3.156,3.156,0,0,1,2.265,1.278h0a2.263,2.263,0,0,1,.332,2.022h0a2.389,2.389,0,0,1,1.77.719l1.05,1.075a2.1,2.1,0,0,1,.6,1.466h0a2,2,0,0,1,1.485.558l.908.852a2.479,2.479,0,0,1,.757,2.169l-.187,1.282.9,1.025a3.426,3.426,0,0,1,.766,2.982h0a3.59,3.59,0,0,1-1.631,2.294l-3.316,2.032a27.116,27.116,0,0,1-9.3,8.313l-1.228,2.732Z" transform="translate(-578.212 -764.317)" fill="#ffc89f"/>
              <path id="Trazado_721861" data-name="Trazado 721861" d="M964.758,740.988l-4.049-5.7a22.158,22.158,0,0,1-8.358-12.033,17,17,0,0,0-3.648-6.747q-.411-.458-.883-.92c-1.175-1.146-5.086-4.457-5.086-4.457a3.113,3.113,0,0,1-.647-3.787l.027-.048a3.124,3.124,0,0,1,4.128-1.242l.1.051A22.845,22.845,0,0,1,954,712.44l2.223,2.854a8.089,8.089,0,0,0,2.643-3.565s-.16-5.36,2.7-9.22c0,0,4.8-20.21,9.453-19.846,0,0,1.3-3.3,3.582-3.852a1.6,1.6,0,0,1,1.865,2.141l-.787,2h.017a1.467,1.467,0,0,1,1.323,1.922c-1.121,3.442-4.144,12.976-6,21.2a22.92,22.92,0,0,0-.166,9.242l1.347,7.242a23.067,23.067,0,0,0,2.95,7.734h0a29.254,29.254,0,0,1-10.382,10.688Z" transform="translate(-898.79 -639.385)" fill="#ffc89f"/>
              <path id="Trazado_721862" data-name="Trazado 721862" d="M1154.717,805.24q.389-1.922.805-3.837l.052-.24c.015-.079.023-.157.036-.236s0-.158,0-.237a2.318,2.318,0,0,0-.037-.234,1.631,1.631,0,0,0-.47-.809,1.582,1.582,0,0,0-.844-.4,1.608,1.608,0,0,0-.931.15,2.9,2.9,0,0,0-.791.552l-.171.175c-.053.06-.1.126-.155.188a4.582,4.582,0,0,0-.284.4,7.722,7.722,0,0,0-.814,1.772c-.057.153-.1.312-.144.468s-.092.313-.128.472l-.116.476-.1.479-.049.24-.041.242-.081.482c-.05.322-.088.646-.134.969v.008l0,.007-1,2.363-1.013,2.358-1.028,2.352-.515,1.175-.522,1.172-.01,0,.487-1.187.495-1.184.99-2.367,1.006-2.36,1.017-2.356,0,.013c.049-.324.095-.648.148-.97l.089-.483.044-.242.052-.24.106-.479.124-.475c.039-.159.087-.315.136-.471s.091-.314.151-.467a8.269,8.269,0,0,1,.822-1.78,4.6,4.6,0,0,1,.284-.4c.051-.063.1-.129.155-.192l.169-.179a2.951,2.951,0,0,1,.8-.58,1.7,1.7,0,0,1,.971-.176,1.636,1.636,0,0,1,.9.419,1.684,1.684,0,0,1,.5.859,2.327,2.327,0,0,1,.038.25c0,.084,0,.168,0,.252s-.025.167-.039.248l-.053.24q-.426,1.913-.883,3.82l-.011,0Z" transform="translate(-1080.528 -746.355)" fill="#ff9a6c"/>
              <path id="Trazado_721863" data-name="Trazado 721863" d="M1154.292,716.315a1.671,1.671,0,0,0-.583.078,2.715,2.715,0,0,0-.541.233,4.116,4.116,0,0,0-.928.724,7.163,7.163,0,0,0-.745.916,10.336,10.336,0,0,0-.607,1.017,17.648,17.648,0,0,0-.933,2.18q-.4,1.12-.688,2.275v0l0,0c-.42.56-.8,1.151-1.166,1.748s-.708,1.21-1.038,1.828-.643,1.245-.942,1.878-.586,1.272-.856,1.918c-.547,1.29-1.019,2.61-1.451,3.942s-.776,2.693-1.077,4.063l-.011,0a38.833,38.833,0,0,1,1-4.089c.206-.671.42-1.34.665-2s.492-1.316.771-1.961a39.968,39.968,0,0,1,1.844-3.785,36.712,36.712,0,0,1,2.234-3.567l0,.008c.189-.771.4-1.539.649-2.292a14.974,14.974,0,0,1,.926-2.2,7.955,7.955,0,0,1,1.388-1.939,4.034,4.034,0,0,1,.957-.715,2.7,2.7,0,0,1,.557-.218,1.64,1.64,0,0,1,.593-.06l0,.011Z" transform="translate(-1077.409 -672.736)" fill="#ff9a6c"/>
              <path id="Trazado_721864" data-name="Trazado 721864" d="M1144.684,713.79l-.911,2.261-.921,2.258c-.613,1.506-1.239,3.005-1.858,4.508v0l0,0c-.454.817-.863,1.663-1.242,2.521s-.729,1.729-1.044,2.613-.614,1.773-.865,2.678c-.136.45-.251.9-.369,1.359-.062.226-.111.457-.164.685l-.157.687c.186-.92.383-1.84.634-2.746s.529-1.8.835-2.694.659-1.761,1.034-2.624a27.82,27.82,0,0,1,1.243-2.534l0,.007c.628-1.5,1.249-3,1.884-4.5l.949-2.246.959-2.241Z" transform="translate(-1072.459 -670.509)" fill="#ff9a6c"/>
              <path id="Trazado_721865" data-name="Trazado 721865" d="M1129.3,903.078c.077-.378.134-.759.173-1.141s.069-.765.078-1.149.008-.767-.016-1.15a11.2,11.2,0,0,0-.128-1.142,8.68,8.68,0,0,0-.642-2.2,7.2,7.2,0,0,0-1.252-1.919c.131.14.274.272.393.423.061.075.125.147.185.223l.172.234a6.872,6.872,0,0,1,.581,1,7.125,7.125,0,0,1,.413,1.085,8.95,8.95,0,0,1,.261,1.131,11.7,11.7,0,0,1-.219,4.6Z" transform="translate(-1063.893 -830.983)" fill="#ff9a6c"/>
              <path id="Trazado_721866" data-name="Trazado 721866" d="M1101.388,1046.263a18.983,18.983,0,0,1-.643-3.782,29.668,29.668,0,0,1-.033-3.842c.023-.32.053-.638.08-.958.014-.159.026-.32.043-.479l.061-.477c.042-.318.08-.636.126-.952l.168-.946.086-.472c.032-.157.07-.313.106-.469l.214-.937c.019-.078.036-.156.056-.234l.066-.23.131-.462.264-.922-.235.93-.118.465-.059.233c-.019.078-.033.156-.05.235l-.2.938c-.032.156-.068.312-.1.469l-.077.474-.157.946c-.043.316-.08.634-.12.95l-.059.476c-.017.159-.027.319-.04.477-.025.319-.053.636-.075.955a31.124,31.124,0,0,0,.007,3.83l.031.478.047.477c.018.159.03.319.051.477l.063.475a16.686,16.686,0,0,0,.362,1.883Z" transform="translate(-1040.039 -952.473)" fill="#ff9a6c"/>
              <path id="Trazado_721867" data-name="Trazado 721867" d="M1047.691,1006.711c-.157.129-.313.26-.462.4s-.3.272-.445.413c-.29.283-.569.575-.833.881a9.92,9.92,0,0,0-.73.966c-.107.172-.216.341-.306.522s-.175.364-.264.548a5.247,5.247,0,0,1,.5-1.117,7.5,7.5,0,0,1,.719-.994,9.24,9.24,0,0,1,.86-.871,8.138,8.138,0,0,1,.967-.746Z" transform="translate(-990.263 -930.8)" fill="#ff9a6c"/>
              <path id="Trazado_721868" data-name="Trazado 721868" d="M1003.931,968.48a6.672,6.672,0,0,1-.583,1.245,7.88,7.88,0,0,1-.808,1.117,6.5,6.5,0,0,1-1.009.939,5.563,5.563,0,0,1-1.192.684c.1-.058.2-.116.3-.172l.148-.085c.048-.031.095-.065.141-.1l.284-.189.268-.212c.045-.036.09-.069.133-.106l.127-.114c.084-.077.172-.148.252-.228l.238-.243c.08-.08.15-.169.227-.254a8.968,8.968,0,0,0,.819-1.088l.18-.291c.056-.1.115-.2.168-.3C1003.736,968.893,1003.837,968.688,1003.931,968.48Z" transform="translate(-950.889 -896.829)" fill="#ff9a6c"/>
              <path id="Trazado_721869" data-name="Trazado 721869" d="M824.9,887.673l-6.406.348c.265-.036.531-.067.8-.1l.8-.077c.532-.048,1.067-.08,1.6-.115s1.069-.05,1.6-.06,1.07-.016,1.605,0Z" transform="translate(-789.296 -825.014)" fill="#ff9a6c"/>
              <path id="Trazado_721870" data-name="Trazado 721870" d="M681.735,912.961a8.028,8.028,0,0,1-.945.657,8.171,8.171,0,0,1-1.024.531,5.929,5.929,0,0,1-1.1.361,3.409,3.409,0,0,1-1.148.063c.1,0,.192-.007.287-.008a.766.766,0,0,0,.143-.012l.141-.019c.047-.007.095-.01.141-.017l.139-.029c.092-.022.187-.033.277-.063l.274-.078.27-.092c.09-.029.178-.066.266-.1s.177-.068.263-.109c.351-.147.689-.323,1.026-.5.168-.089.334-.185.5-.283s.328-.2.49-.3Z" transform="translate(-664.029 -847.493)" fill="#ff9a6c"/>
              <path id="Trazado_721871" data-name="Trazado 721871" d="M861.139,917l-1.435.165c-.478.058-.955.113-1.431.182s-.951.135-1.426.213c-.236.041-.474.079-.71.128s-.471.1-.707.143a13.709,13.709,0,0,1,1.4-.356c.472-.1.95-.169,1.427-.24s.957-.116,1.437-.156.961-.07,1.444-.079Z" transform="translate(-822.121 -851.083)" fill="#ff9a6c"/>
              <path id="Trazado_721872" data-name="Trazado 721872" d="M893.606,960.232c-.209,0-.418,0-.627.012s-.418.011-.626.021c-.417.02-.833.045-1.248.081s-.829.085-1.242.139c-.206.029-.412.06-.617.1s-.409.081-.616.118a9.55,9.55,0,0,1,1.219-.3c.412-.076.829-.131,1.246-.166s.837-.056,1.255-.056a12.394,12.394,0,0,1,1.254.053Z" transform="translate(-851.623 -889.453)" fill="#ff9a6c"/>
              <path id="Trazado_721873" data-name="Trazado 721873" d="M1204.568,716.351a1.6,1.6,0,0,1,.548.12,1.431,1.431,0,0,1,.463.32,1.458,1.458,0,0,1,.428,1.027c0,.048,0,.1,0,.143l-.019.143c-.022.092-.045.187-.075.275l-.169.535-.338,1.071c-.45,1.428-.89,2.858-1.331,4.289s-.885,2.861-1.3,4.3c-.208.719-.413,1.439-.608,2.161s-.392,1.445-.585,2.168q-.568,2.172-1.094,4.354a40.969,40.969,0,0,0-.9,4.391,23.716,23.716,0,0,0-.137,4.472c.049.745.134,1.489.254,2.227l.384,2.212-.011,0c-.141-.735-.3-1.467-.428-2.2s-.223-1.483-.281-2.23a22.11,22.11,0,0,1,.1-4.492,22.362,22.362,0,0,1,.39-2.217c.173-.729.339-1.459.521-2.186.354-1.455.744-2.9,1.137-4.345s.81-2.883,1.216-4.324.821-2.879,1.249-4.314.88-2.863,1.338-4.288l.349-1.067.177-.532c.031-.089.053-.177.076-.266l.02-.136c.007-.046,0-.091.007-.137a1.511,1.511,0,0,0-.1-.538,1.478,1.478,0,0,0-.3-.463,1.413,1.413,0,0,0-.447-.324,1.576,1.576,0,0,0-.539-.131v-.011Z" transform="translate(-1127.685 -672.784)" fill="#ff9a6c"/>
              <path id="Trazado_721874" data-name="Trazado 721874" d="M1204.79,682.253a9.017,9.017,0,0,1,1.392-2.392,5.357,5.357,0,0,1,1.01-.959,3.819,3.819,0,0,1,.6-.355,2.687,2.687,0,0,1,.669-.221,1.738,1.738,0,0,1,.357-.027,1.656,1.656,0,0,1,.353.058,1.574,1.574,0,0,1,.627.33,1.76,1.76,0,0,1,.433.56,1.61,1.61,0,0,1,.154.689c0,.059,0,.119-.008.177l-.03.175a1.235,1.235,0,0,1-.05.169c-.018.057-.037.113-.059.165l-.261.642-.532,1.279.481-1.3.246-.647a1.558,1.558,0,0,0,.055-.162,1.427,1.427,0,0,0,.045-.163l.026-.167c.006-.056,0-.112,0-.168a1.591,1.591,0,0,0-.155-.648,1.653,1.653,0,0,0-.411-.524,1.469,1.469,0,0,0-.589-.3,1.568,1.568,0,0,0-.329-.051,1.657,1.657,0,0,0-.332.028,2.57,2.57,0,0,0-.644.207,3.705,3.705,0,0,0-.59.341,5.2,5.2,0,0,0-.529.434q-.247.237-.474.5a8.666,8.666,0,0,0-.809,1.116,10.4,10.4,0,0,0-.651,1.22Z" transform="translate(-1132.565 -638.973)" fill="#ff9a6c"/>
              <path id="Trazado_721875" data-name="Trazado 721875" d="M1103.09,737.393a14.328,14.328,0,0,1,.766-1.981,11.287,11.287,0,0,1,1.085-1.828l-.005.011q.66-2.764,1.475-5.488c.54-1.816,1.122-3.62,1.783-5.4a40.834,40.834,0,0,1,2.287-5.2,14.213,14.213,0,0,1,1.564-2.373,5.493,5.493,0,0,1,1.04-.967,2.71,2.71,0,0,1,.634-.32,1.869,1.869,0,0,1,.7-.091,1.822,1.822,0,0,0-.7.1,2.694,2.694,0,0,0-.625.327,5.46,5.46,0,0,0-1.018.978,14.6,14.6,0,0,0-1.532,2.379,43.593,43.593,0,0,0-2.255,5.2c-.65,1.777-1.24,3.576-1.786,5.389s-1.052,3.637-1.51,5.474v.007l-.006.006a11.836,11.836,0,0,0-1.1,1.806,14.408,14.408,0,0,0-.8,1.966Z" transform="translate(-1042.193 -670.477)" fill="#ff9a6c"/>
            </g>
          </g>
          <g id="FRONT" transform="translate(40.666 70.232)">
            <g id="Grupo_1011319" data-name="Grupo 1011319">
              <rect id="Rectángulo_347709" data-name="Rectángulo 347709" width="160.471" height="0.34" transform="translate(0 136.342)" fill="#1b1a2e"/>
              <g id="Grupo_1011318" data-name="Grupo 1011318" transform="translate(131.28)">
                <path id="Trazado_721876" data-name="Trazado 721876" d="M1565.292,634.585a10.57,10.57,0,0,0-18.106,10.089l-3.577,3.18,5.6.444a10.568,10.568,0,1,0,16.083-13.715Z" transform="translate(-1543.609 -630.831)" fill="#fff"/>
                <g id="Grupo_1011316" data-name="Grupo 1011316" transform="translate(7.305 8.912)">
                  <circle id="Elipse_7896" data-name="Elipse 7896" cx="1.171" cy="1.171" r="1.171" transform="translate(9.686 2.163) rotate(-67.5)" fill="#1f4068"/>
                  <path id="Trazado_721877" data-name="Trazado 721877" d="M1654.27,714.881a1.171,1.171,0,1,0,1.171-1.171A1.171,1.171,0,0,0,1654.27,714.881Z" transform="translate(-1649.247 -713.351)" fill="#1f4068"/>
                  <path id="Trazado_721878" data-name="Trazado 721878" d="M1609.18,714.881a1.171,1.171,0,1,0,1.171-1.171A1.171,1.171,0,0,0,1609.18,714.881Z" transform="translate(-1609.18 -713.351)" fill="#1f4068"/>
                </g>
                <g id="Grupo_1011317" data-name="Grupo 1011317">
                  <path id="Trazado_721879" data-name="Trazado 721879" d="M1543.61,783.32q.7.087,1.4.153c.466.046.932.085,1.4.124s.933.071,1.4.1.935.053,1.4.069q-.7-.087-1.4-.153c-.466-.046-.932-.085-1.4-.123s-.933-.071-1.4-.1S1544.079,783.337,1543.61,783.32Z" transform="translate(-1543.609 -766.295)" fill="#1b1a2e"/>
                  <path id="Trazado_721880" data-name="Trazado 721880" d="M1547.178,754.76q-.468.374-.922.764c-.3.258-.6.522-.9.786s-.594.532-.887.8-.583.546-.867.827q.468-.374.922-.764c.3-.258.6-.522.9-.786s.594-.532.887-.8S1546.894,755.041,1547.178,754.76Z" transform="translate(-1543.6 -740.917)" fill="#1b1a2e"/>
                  <path id="Trazado_721881" data-name="Trazado 721881" d="M1573.659,647.955a10.585,10.585,0,0,0,16.828-.9,10.531,10.531,0,0,0,1.556-3.559,10.713,10.713,0,0,0,.17-3.882,10.6,10.6,0,0,0-1.234-3.685,10.31,10.31,0,0,0-1.106-1.607,10.828,10.828,0,0,0-1.378-1.381,10.46,10.46,0,0,0-3.391-1.9,10.683,10.683,0,0,0-3.845-.546,10.556,10.556,0,0,0-3.784.87,10.7,10.7,0,0,0-3.211,2.179,10.527,10.527,0,0,0-3.126,6.949,10.593,10.593,0,0,0,.5,3.837,10.562,10.562,0,0,1-.472-3.836,10.552,10.552,0,0,1,13.91-9.359,10.37,10.37,0,0,1,3.356,1.884,10.768,10.768,0,0,1,1.364,1.369,10.327,10.327,0,0,1,1.094,1.593,10.523,10.523,0,0,1-.474,11.021,10.557,10.557,0,0,1-16.751.956Z" transform="translate(-1568.057 -630.486)" fill="#1b1a2e"/>
                </g>
              </g>
            </g>
          </g>
        </g>
        <g id="Grupo_1011321" data-name="Grupo 1011321" transform="translate(1233.017 9455)">
          <g id="Grupo_1011320" data-name="Grupo 1011320" clip-path="url(#clip-path-5)">
            <path id="Trazado_721883" data-name="Trazado 721883" d="M121.455,109.415c-.866,0-1.436.315-1.436.945,0,2.282,7.261.984,7.261,5.942,0,2.814-2.479,4.25-5.549,4.25a10.362,10.362,0,0,1-6.356-2.2l1.4-2.814a8.8,8.8,0,0,0,5,2.086c1.063,0,1.732-.394,1.732-1.121,0-2.342-7.261-.925-7.261-5.805,0-2.578,2.184-4.211,5.51-4.211a10.582,10.582,0,0,1,5.51,1.554l-1.358,2.853a10.722,10.722,0,0,0-4.447-1.476" transform="translate(-75.257 -68.172)" fill="#fff"/>
            <path id="Trazado_721884" data-name="Trazado 721884" d="M118.451,2.31a2.029,2.029,0,0,1-1.58,1.985,2.259,2.259,0,0,1,1.88,2.311c0,1.566-1.371,2.545-3.525,2.545h-4.517V0h4.347c2.076,0,3.394.9,3.394,2.31M116,2.728c0-.548-.4-.875-1.071-.861H113.1V3.642h1.828c.666,0,1.071-.34,1.071-.914m.287,3.577c0-.574-.522-.94-1.358-.927H113.1V7.3h1.828c.836,0,1.358-.366,1.358-.992" transform="translate(-64.639)" fill="#fff"/>
            <path id="Trazado_721885" data-name="Trazado 721885" d="M36.666,19.407H31.29l-.87,2.2H27.086l5.34-12.436h3.335l5.216,12.436H37.517Zm-.958-2.484L34,12.488l-1.739,4.435Z" transform="translate(-25.815 -6.355)" fill="#fff"/>
            <rect id="Rectángulo_347711" data-name="Rectángulo 347711" width="2.154" height="8.252" transform="translate(25.892 33.375)" fill="#fff"/>
            <path id="Trazado_721886" data-name="Trazado 721886" d="M1.527,75.181l1.357,3.931,1.365-3.931H5.706L3.582,80.616H2.108L0,75.181Z" transform="translate(35 -55.895)" fill="#fff"/>
          </g>
        </g>
      </g>
    </g>
  </g>
</svg>
