<svg xmlns="http://www.w3.org/2000/svg" xmlns:xlink="http://www.w3.org/1999/xlink" width="284" height="245" viewBox="0 0 284 245">
  <defs>
    <clipPath id="clip-path">
      <rect id="Rectángulo_347601" data-name="Rectángulo 347601" width="284" height="245" transform="translate(-9514 -2127)" fill="#4db1f0" opacity="0.35"/>
    </clipPath>
    <clipPath id="clip-path-2">
      <rect id="Rectángulo_344564" data-name="Rectángulo 344564" width="254.902" height="478.341" fill="none"/>
    </clipPath>
    <clipPath id="clip-path-3">
      <rect id="Rectángulo_344563" data-name="Rectángulo 344563" width="254.901" height="478.341" fill="none"/>
    </clipPath>
    <clipPath id="clip-path-4">
      <rect id="Rectángulo_344562" data-name="Rectángulo 344562" width="26.786" height="6.918" fill="none"/>
    </clipPath>
  </defs>
  <g id="Enmascarar_grupo_1011298" data-name="Enmascarar grupo 1011298" transform="translate(9514 2127)" clip-path="url(#clip-path)">
    <g id="Grupo_944423" data-name="Grupo 944423" transform="translate(-9499.451 -2126)">
      <g id="Grupo_944440" data-name="Grupo 944440" clip-path="url(#clip-path-2)">
        <g id="Grupo_944439" data-name="Grupo 944439">
          <g id="Grupo_944438" data-name="Grupo 944438" clip-path="url(#clip-path-3)">
            <path id="Trazado_697429" data-name="Trazado 697429" d="M86.8,285.969l12.912-64.933,8.477,64.933h71.435l-.273-21.644.039-80.581s-21.449-62.369-21.84-63.546c-.422-1.26-97.764,4.854-97.764,4.854s-9.248.481-9.06,12.129L30,201.367l-13.961,84.6Z" transform="translate(25.713 192.372)" fill="#f59f18"/>
            <path id="Trazado_697430" data-name="Trazado 697430" d="M43.5,128.635c-.008,10.291.632,20.567,1.575,30.809.466,5.075,1,10.143,1.572,15.205.554,4.971,1.046,9.963,1.72,14.919A11.724,11.724,0,0,0,50.83,196a5.787,5.787,0,0,0,5.77,1.939.965.965,0,0,0,.682-.914q.558-26.189-.846-52.367-.4-7.359-.95-14.711c-.091-1.208-1.952-1.218-1.861,0q1.956,26.118,1.957,52.336,0,7.371-.161,14.742.34-.457.685-.914c-1.791.5-3.579-.674-4.508-2.189a14.381,14.381,0,0,1-1.564-5.947q-.824-7.129-1.629-14.258c-1.067-9.607-2.028-19.232-2.572-28.888-.3-5.393-.476-10.794-.471-16.2a.931.931,0,0,0-1.861,0" transform="translate(69.721 204.702)" fill="#b7772f"/>
            <path id="Trazado_697431" data-name="Trazado 697431" d="M41.615,155.876q17.674.906,35.379.307c1.195-.039,1.2-1.934,0-1.892q-17.689.593-35.379-.31c-1.2-.06-1.195,1.835,0,1.895" transform="translate(65.261 246.788)" fill="#b7772f"/>
            <path id="Trazado_697432" data-name="Trazado 697432" d="M47.037,155.53a22.026,22.026,0,0,0,.031,11.767.933.933,0,0,0,1.8-.5,20.058,20.058,0,0,1-.031-10.76.933.933,0,0,0-1.8-.5" transform="translate(74.13 248.201)" fill="#b7772f"/>
            <path id="Trazado_697433" data-name="Trazado 697433" d="M69.119,129.456l14.607,30.98,4.154,8.81c.518,1.1,2.124.138,1.606-.955q-7.3-15.492-14.6-30.98l-4.154-8.81c-.518-1.1-2.124-.141-1.608.955" transform="translate(110.618 205.175)" fill="#685434"/>
            <path id="Trazado_697434" data-name="Trazado 697434" d="M43.68,128.137l-19.747,32.6a.936.936,0,0,0,1.608.955q9.873-16.3,19.747-32.6a.936.936,0,0,0-1.608-.955" transform="translate(38.129 204.654)" fill="#685434"/>
            <path id="Trazado_697435" data-name="Trazado 697435" d="M27.653,166.794q.726,3.318,1.45,6.634a.941.941,0,0,0,1.145.661.968.968,0,0,0,.651-1.166q-.726-3.315-1.45-6.634a.943.943,0,0,0-1.145-.661.967.967,0,0,0-.651,1.166" transform="translate(44.281 265.408)" fill="#b7772f"/>
            <path id="Trazado_697436" data-name="Trazado 697436" d="M30.135,167.826l1.413,6.642a.94.94,0,0,0,1.145.661.963.963,0,0,0,.648-1.163q-.707-3.322-1.411-6.642a.94.94,0,0,0-1.145-.664.969.969,0,0,0-.651,1.166" transform="translate(48.259 267.062)" fill="#b7772f"/>
            <path id="Trazado_697437" data-name="Trazado 697437" d="M70.406,153.485a15.147,15.147,0,0,0-.7,6.241.96.96,0,0,0,.929.947.949.949,0,0,0,.932-.947,13.385,13.385,0,0,1,.632-5.739.932.932,0,1,0-1.8-.5" transform="translate(111.608 244.892)" fill="#b7772f"/>
            <path id="Trazado_697438" data-name="Trazado 697438" d="M71.925,156.3v4a.931.931,0,1,0,1.861,0v-4a.931.931,0,1,0-1.861,0" transform="translate(115.277 248.988)" fill="#b7772f"/>
            <path id="Trazado_697439" data-name="Trazado 697439" d="M29.4,131.871q20.5-.679,40.972-1.835,20.368-1.148,40.7-2.764,11.419-.91,22.826-1.965c.833-.075.843-1.392,0-1.314q-20.426,1.89-40.884,3.308-20.352,1.405-40.73,2.348-11.443.527-22.888.908c-.843.026-.848,1.343,0,1.314" transform="translate(46.101 198.723)" fill="#685434"/>
            <path id="Trazado_697440" data-name="Trazado 697440" d="M69.538,79.675a5.521,5.521,0,0,0,8.016,2.5,5.723,5.723,0,0,0,.424-8.519,4.1,4.1,0,0,0,5.3,1.333A4.25,4.25,0,0,0,84.93,69.7a4.914,4.914,0,0,0,5.765-.757,5.134,5.134,0,0,0,.89-5.843c2.16.578,4.094-1.7,4.591-3.92s.206-4.6,1.028-6.712a29.3,29.3,0,0,1,1.5-2.824,12.7,12.7,0,0,0-2.566-14.763,8.869,8.869,0,0,0-4.227-11.088c-.953-.437-1.975-.687-2.944-1.088-1.348-.56-2.566-1.4-3.875-2.054a15.488,15.488,0,0,0-17.243,2.678c-1.627,1.569-2.959,3.685-2.842,5.96s2.2,4.492,4.393,4.047c-3.3-.932-6.905.226-9.656,2.3a29.163,29.163,0,0,0-6.637,7.894c-1.564,2.46-3.1,5.221-2.769,8.131s3.511,5.562,6.067,4.214c-4.05,8.264,1.1,19.7,9.9,21.967Z" transform="translate(80.604 30.67)" fill="#c23f37"/>
            <path id="Trazado_697441" data-name="Trazado 697441" d="M112.89,55.759c-1.952-3.555-6.411-5.716-10.185-4.362l2.3-26-31.3-11.759L43.433,22.585q-2.721,18.849-5.445,37.693c-.877,6.07-1.744,12.347-.148,18.261S49.055,89.072,55.073,89.452c-.226,3.691-.476,8.75-.651,13.563l-1.715.7c-3.881,1.582-5.32,6.572-6.345,8.555-1.949,3.764-.057,8.717,2.585,12.014a19.734,19.734,0,0,0,4.753,4.1,36.383,36.383,0,0,0,26.48,5.156C85.5,132.5,90.722,130.135,94.3,126s5.216-10.221,3.266-15.359c-.6-1.58-1.189-4.917-2.3-6.153.692-13.87,1.346-33.729.661-35.085,1.1,3.511,5.169,5.494,8.732,4.849s6.494-3.449,8.1-6.749c1.778-3.649,2.087-8.188.135-11.744" transform="translate(59.221 21.865)" fill="#f6a472"/>
            <path id="Trazado_697442" data-name="Trazado 697442" d="M103.06,34.769a.826.826,0,0,0-.383-.346q-3.541-2.046-7.085-4.089c-.911-1.15-2.41-1.291-3.678-1.858A21.506,21.506,0,0,1,88.774,26.4c-4.609-3.121-10.76-2.983-15.983-1.117a4.963,4.963,0,0,1-1.9.432,6.165,6.165,0,0,1-2.132-.76,8.849,8.849,0,0,0-4.021-.77,18.132,18.132,0,0,1-4.068.187,12.044,12.044,0,0,1-3.03-1.26c-4.917-2.413-10.507-1.921-15.432.479l-1.91.187a1.707,1.707,0,0,0-2.173,2.163,2.171,2.171,0,0,0,1.156,1.247,3.763,3.763,0,0,1,.614.331c1.208.875.848,2.733.661,4.229-.476,3.836,1.286,7,4.4,9.216a10.562,10.562,0,0,0,10.827.737c4.68-2.457,6.887-7.277,7.191-12.626A1.939,1.939,0,0,1,63.246,28a1.505,1.505,0,0,1,.695-.466,5.565,5.565,0,0,1,2.79-.307,2.876,2.876,0,0,1,2.426,2.7,37.613,37.613,0,0,0,1.1,7.811c2.426,6.775,8.4,8.238,11.3,7.584,1.817-.409,3.41-.325,4.885-1.478a15.905,15.905,0,0,0,5.068-7.121c.458-1.468.815-3.433,2.311-3.657.547-.083,1.124.12,1.621-.263,2.561.981,4.505,3.225,6.884,4.661a10.306,10.306,0,0,0,.734-2.194.819.819,0,0,0,0-.5M60.545,32.543a9.055,9.055,0,0,1-5.273,7.509,9.934,9.934,0,0,1-9.456-.791,7.8,7.8,0,0,1-2.733-3.123,11.83,11.83,0,0,1-.835-4.188,7.907,7.907,0,0,1,.742-4.773,6.265,6.265,0,0,1,2.1-1.934,11.747,11.747,0,0,1,13.344,1.117A6.355,6.355,0,0,1,60.6,31.448Zm29.494,1.926c-.187,3.16-2.285,7.02-5.273,8.383a9.939,9.939,0,0,1-9.458-.791c-1.171-.8-2.155-2.741-2.73-4a11.832,11.832,0,0,1-.838-4.188,7.889,7.889,0,0,1,.744-4.773,6.241,6.241,0,0,1,2.1-1.934,11.747,11.747,0,0,1,13.344,1.117,6.343,6.343,0,0,1,2.165,5.086Z" transform="translate(60.943 34.503)"/>
            <path id="Trazado_697443" data-name="Trazado 697443" d="M40.564,74.844c-4.69,8.849-9.5,18.164-9.542,28.219C31,109.687,33.057,116.105,34.77,122.5a191.254,191.254,0,0,1,6.3,58.023c-.385,8.456-1.33,16.876-1.733,25.33-.945,19.89,2.538,69.066,4.6,88.868a4.593,4.593,0,0,0,.942,2.806,4.141,4.141,0,0,0,1.827.937c11.936,3.6,24.965-.843,37.144,1.783,4.607.994,8.948,2.972,13.446,4.406a59.188,59.188,0,0,0,33.042.815c2.853-.76,5.9-1.931,7.355-4.537,1.486-2.655.875-5.96.268-8.953-9.253-45.662-8.667-122.25-16.1-168.256-1.567-9.7-3.555-19.359-4.25-29.164-.807-11.387-2.223-28.841-6.015-39.585-10.257,12.759-19.463,18.586-30.395,18.17s-21.657-5.8-25.457-22.808Z" transform="translate(49.72 80.664)" fill="#89c7e0"/>
            <path id="Trazado_697444" data-name="Trazado 697444" d="M108.876,47.952c-9.055,6.137-11.991,19.479-8.9,30.093s9.453,19.984,12.709,30.546c4.232,13.724,2.959,28.469,2.587,42.849-.208,8.055-.122,16.114-.036,24.172q.219,20.1.435,40.207c.265,24.632,1.947,78.621,5.3,103.019-6.345-4.648-14.955-.372-22.631,1.148a31.208,31.208,0,0,1-29-9.979c-1.9-2.176-3.683-4.753-6.416-5.617-3.48-1.1-7.061.96-10.4,2.457a35.9,35.9,0,0,1-20.689,2.618l6.791-93.633c-4.516,6.031-13.571,7.241-20.278,3.935S7.171,209.553,5.089,202.273,3,187.284,3.142,179.705c.487-25.806,2.618-52.073,12.16-75.987,4.529,3.243,10.643,6.535,15.195,3.326a12.53,12.53,0,0,0,3.207-3.81c6.822-11.043,10.882-24.8,21.733-31.74,5.278-3.378,11.541-4.672,17.467-6.642A77.407,77.407,0,0,0,93.457,54.365c3.779-2.7,10.6-5.109,15.039-6.413Z" transform="translate(4.952 76.854)" fill="#b7772f"/>
            <path id="Trazado_697445" data-name="Trazado 697445" d="M66.353,48.847c1.577,7.813,3.136,16.051.711,23.638-2.1,6.567-6.968,11.884-9.339,18.352-1.629,4.448-2.012,9.253-2.254,13.99C53.2,149.279,63.326,222.856,63.7,267.365c.151,18.107-1.08,36.277.737,54.29,11.616-.885,22.774,4.706,34.39,5.6a44,44,0,0,0,34.731-13.4l-5.515-94.042c8.186.005,20.892-1.679,27.378-6.765,5.135-4.024,7.99-10.494,8.969-17.017a104.933,104.933,0,0,0,.508-23.768c-2.767-21.978-12.108-42.82-17.524-64.28a21.569,21.569,0,0,0-2.84-7.293c-3.131-4.451-9.12-5.989-12.47-10.27-2.892-3.7-3.36-8.844-6.018-12.714-5.567-8.1-17.267-7.184-26.837-8.865a42.04,42.04,0,0,1-27.771-18.8,3.7,3.7,0,0,0-5.083-1.2" transform="translate(88.372 77.406)" fill="#b7772f"/>
            <path id="Trazado_697446" data-name="Trazado 697446" d="M83.032,125.1c1.97-8.847-2.592-17.639-5.934-26.048s-5.153-19.114,1.01-25.671a3.1,3.1,0,0,1,1.273-.919c1.348-.419,2.655.955,2.975,2.353s.044,2.873.273,4.289a6.3,6.3,0,0,0,7.842,4.8A6.781,6.781,0,0,0,94.4,75.36a6.954,6.954,0,0,0-8.563-3.909c-1.674.6-4.071,1.577-4.773-.081A2.672,2.672,0,0,1,81.577,69c4.362-6.832,15.637-7.288,20.517-.828.536.711,1.1,1.546,1.97,1.687,1,.164,1.866-.669,2.548-1.434,1.812-2.025,3.756-4.615,2.944-7.223-1.158-3.711-7.168-4.711-7.191-8.6-.016-2.457,2.816-4.141,5.192-3.714s4.242,2.29,5.713,4.24,2.746,4.112,4.667,5.6a48.5,48.5,0,0,1-.427-9.091,4.743,4.743,0,0,1,.726-2.725c1-1.288,3.089-1.179,4.354-.161A7.63,7.63,0,0,1,124.857,51c2.134,8.638-.367,17.683-2.85,26.225,2.595.38,4.87-2.041,5.625-4.6s.495-5.3.843-7.944c.193-1.463.976-3.235,2.426-3.173a2.991,2.991,0,0,1,2.08,1.481,17.859,17.859,0,0,1,1.491,18.058c-2.912,5.828-8.792,9.5-12.483,14.849-4.31,6.249-5.276,14.177-6.5,21.707a10.023,10.023,0,0,1-1.653,4.742,9.564,9.564,0,0,1-4.107,2.579c-8.368,3.373-20.01,6.09-26.785.06Z" transform="translate(118.654 73.66)" fill="#f6a472"/>
            <path id="Trazado_697447" data-name="Trazado 697447" d="M53.217,122.125c-1.975-8.847,2.59-17.639,5.932-26.048s5.156-19.114-1.01-25.671a3.124,3.124,0,0,0-1.27-.919c-1.351-.419-2.657.955-2.978,2.353s-.044,2.873-.273,4.289a6.3,6.3,0,0,1-7.842,4.8,6.782,6.782,0,0,1-3.925-8.547,6.951,6.951,0,0,1,8.56-3.909c1.676.6,4.073,1.577,4.776-.081a2.672,2.672,0,0,0-.515-2.374c-4.362-6.832-13.852-8.053-18.732-1.6-.536.713-1.408,5.658-2.28,5.8-1,.164-3.342-4.013-4.024-4.779-1.812-2.025-3.756-4.615-2.944-7.223,1.158-3.711,7.168-4.711,7.191-8.6.016-2.457-2.816-4.141-5.192-3.714s-4.245,2.29-5.713,4.24-2.746,4.112-4.667,5.6a48.5,48.5,0,0,0,.427-9.091,4.725,4.725,0,0,0-.729-2.725c-1-1.288-3.087-1.179-4.352-.161a7.63,7.63,0,0,0-2.267,4.253c-2.134,8.638.367,17.683,2.85,26.225-2.595.38-4.87-2.041-5.625-4.6s-.5-5.3-.843-7.944C7.581,60.24,6.8,58.468,5.348,58.53a2.991,2.991,0,0,0-2.08,1.481A17.859,17.859,0,0,0,1.777,78.069c2.912,5.828,8.792,9.5,12.483,14.849,4.31,6.249,5.276,14.177,6.5,21.707a9.985,9.985,0,0,0,1.653,4.742,9.571,9.571,0,0,0,4.1,2.579c8.37,3.373,19.742,6.111,26.517.078Z" transform="translate(0.001 68.887)" fill="#f6a472"/>
            <path id="Trazado_697448" data-name="Trazado 697448" d="M62.214,38.243a14.855,14.855,0,0,1,8.774-6.158c.82-.2.474-1.468-.351-1.268a16.219,16.219,0,0,0-9.557,6.762c-.471.705.666,1.366,1.135.664" transform="translate(97.714 49.357)" fill="#7f4924"/>
            <path id="Trazado_697449" data-name="Trazado 697449" d="M63.1,32.736a6.124,6.124,0,0,1-.216,6.392c-.471.705.669,1.364,1.135.664a7.443,7.443,0,0,0,.216-7.72.658.658,0,0,0-1.135.664" transform="translate(100.607 50.893)" fill="#7f4924"/>
            <g id="Grupo_944437" data-name="Grupo 944437" transform="translate(113.829 111.316)" opacity="0.51">
              <g id="Grupo_944436" data-name="Grupo 944436">
                <g id="Grupo_944435" data-name="Grupo 944435" clip-path="url(#clip-path-4)">
                  <path id="Trazado_697450" data-name="Trazado 697450" d="M44.2,42.769l26.321,1.312L43.734,49.687Z" transform="translate(-43.734 -42.769)" fill="#7f4924"/>
                </g>
              </g>
            </g>
            <path id="Trazado_697451" data-name="Trazado 697451" d="M52.917,24.006c-3.217,7.5-6.468,15.182-6.908,23.44a.662.662,0,0,0,.989.567l5.1-3.527c.692-.479.036-1.619-.661-1.137l-5.1,3.529c.331.187.661.377.992.567.424-8.009,3.6-15.5,6.725-22.777.331-.768-.8-1.439-1.135-.664" transform="translate(73.74 37.923)" fill="#7f4924"/>
            <path id="Trazado_697452" data-name="Trazado 697452" d="M45.508,35.226a5.108,5.108,0,0,0,9.211-.141c.359-.763-.773-1.429-1.135-.664a3.8,3.8,0,0,1-6.941.141c-.388-.752-1.523-.088-1.135.664" transform="translate(72.81 54.626)" fill="#7f4924"/>
            <path id="Trazado_697453" data-name="Trazado 697453" d="M59.8,28.707c0,1.921-1.275,3.48-2.85,3.48s-2.85-1.559-2.85-3.48,1.275-3.48,2.85-3.48,2.85,1.559,2.85,3.48" transform="translate(86.705 40.432)"/>
            <path id="Trazado_697454" data-name="Trazado 697454" d="M48.412,27.37c0,1.921-1.275,3.48-2.85,3.48s-2.85-1.559-2.85-3.48,1.275-3.48,2.85-3.48,2.85,1.559,2.85,3.48" transform="translate(68.456 38.289)"/>
            <path id="Trazado_697455" data-name="Trazado 697455" d="M53.048,21.284a2.611,2.611,0,0,0,.023.726,2.318,2.318,0,0,0,.643,1.424,4.74,4.74,0,0,0,2.194.669q5.415.714,10.825,1.432a1.69,1.69,0,0,0,.9-.047,1.28,1.28,0,0,0,.645-1.169c.052-1.981-2.238-3.024-4.118-3.542q-2.268-.625-4.539-1.252l-3.587-.573a2.606,2.606,0,0,0-2.985,2.332" transform="translate(84.998 30.323)"/>
            <path id="Trazado_697456" data-name="Trazado 697456" d="M56.292,19.948a2.611,2.611,0,0,1-.023.726,2.318,2.318,0,0,1-.643,1.424,4.74,4.74,0,0,1-2.194.669q-5.415.714-10.825,1.432a1.69,1.69,0,0,1-.9-.047,1.281,1.281,0,0,1-.645-1.171C41.011,21,43.3,19.958,45.181,19.44q2.268-.625,4.539-1.252l3.587-.573a2.606,2.606,0,0,1,2.985,2.332" transform="translate(65.813 28.182)"/>
            <path id="Trazado_697457" data-name="Trazado 697457" d="M78.113,60.41a21.5,21.5,0,0,0,3.363,4.979,9.094,9.094,0,0,0,2.467,1.791c.953.463,1.968.781,2.954,1.161,3.878,1.5,5.958,5.153,6.757,9.073a41.2,41.2,0,0,1,.56,8.006.658.658,0,0,0,1.314,0c-.026-4.485-.107-9.206-2.371-13.219a11.449,11.449,0,0,0-3.951-4.211c-1.845-1.111-4.084-1.4-5.835-2.681-1.882-1.385-3.03-3.553-4.123-5.562-.4-.744-1.541-.081-1.135.664" transform="translate(125.056 95.236)" fill="#7f4924"/>
            <path id="Trazado_697458" data-name="Trazado 697458" d="M93.01,49.176a57.389,57.389,0,0,1-4.118,23.906c-.315.783.955,1.124,1.27.349a58.3,58.3,0,0,0,4.162-24.255c-.036-.843-1.351-.848-1.314,0" transform="translate(142.392 77.799)" fill="#7f4924"/>
            <path id="Trazado_697459" data-name="Trazado 697459" d="M88.486,50.789c2.384,1.731,2.962,5.081,2.454,7.816-.656,3.522-2.681,6.546-4.245,9.7a20.551,20.551,0,0,0-1.994,5.64c-.143.828,1.124,1.182,1.268.349,1.2-6.994,8.251-12.9,6.054-20.444a7.777,7.777,0,0,0-2.873-4.2c-.685-.5-1.343.643-.664,1.135" transform="translate(135.737 79.384)" fill="#7f4924"/>
            <path id="Trazado_697460" data-name="Trazado 697460" d="M83.362,59.694A46.572,46.572,0,0,0,94.4,60.818a108.533,108.533,0,0,1,11,.224c.843.081.835-1.236,0-1.317a105.121,105.121,0,0,0-10.83-.221,45.651,45.651,0,0,1-10.866-1.078c-.822-.2-1.174,1.072-.349,1.268" transform="translate(132.853 93.61)" fill="#7f4924"/>
            <path id="Trazado_697461" data-name="Trazado 697461" d="M107.671,57.051a24.474,24.474,0,0,0-8.732,7.725,17.155,17.155,0,0,1-2.376,3.24c-1,.882-2.29,1.385-3.347,2.2A14.116,14.116,0,0,0,90.6,72.865,20,20,0,0,0,87.3,79.757a54.447,54.447,0,0,0-1.455,9.981c-.073.843,1.244.838,1.314,0,.45-5.388.95-11.1,4.162-15.658a13.308,13.308,0,0,1,2.421-2.624c.984-.807,2.152-1.314,3.178-2.059a10.026,10.026,0,0,0,2.449-2.9,24.319,24.319,0,0,1,2.257-3.04,23.393,23.393,0,0,1,6.7-5.273c.75-.393.086-1.528-.664-1.135" transform="translate(137.59 91.307)" fill="#7f4924"/>
            <path id="Trazado_697462" data-name="Trazado 697462" d="M27.263,55.22A9.867,9.867,0,0,1,24.382,60.8c-1.556,1.486-3.636,2.264-5.205,3.738-3.259,3.056-2.741,8.162-2.415,12.2a21.713,21.713,0,0,0,1.853,7.832c.367.763,1.5.1,1.135-.664a19.438,19.438,0,0,1-1.642-6.778,38.288,38.288,0,0,1-.174-6.53A7.648,7.648,0,0,1,20.3,65.3c1.569-1.379,3.566-2.158,5.073-3.626a11,11,0,0,0,3.16-6.1c.133-.828-1.135-1.184-1.268-.349" transform="translate(26.475 87.74)" fill="#7f4924"/>
            <path id="Trazado_697463" data-name="Trazado 697463" d="M5.1,55.914a23.362,23.362,0,0,0,6.395,6.122,23.842,23.842,0,0,0,4.008,2.03,33.632,33.632,0,0,1,4.2,1.811c4.31,2.452,5.926,7.545,7.9,11.783a21.516,21.516,0,0,0,4.479,6.77c.617.58,1.549-.349.929-.929-3.563-3.363-4.838-8.334-7.077-12.54a16.11,16.11,0,0,0-4.336-5.408c-2.4-1.814-5.44-2.418-8.055-3.836a21.749,21.749,0,0,1-7.3-6.465c-.487-.685-1.627-.029-1.135.664" transform="translate(7.978 88.088)" fill="#7f4924"/>
            <path id="Trazado_697464" data-name="Trazado 697464" d="M5.286,58.412q12.255-1.753,24.507-3.5c.833-.12.479-1.387-.349-1.268q-12.255,1.749-24.507,3.5c-.835.12-.482,1.387.349,1.268" transform="translate(7.148 85.959)" fill="#7f4924"/>
            <path id="Trazado_697465" data-name="Trazado 697465" d="M6.94,47.983a56.987,56.987,0,0,0,5.666,17.574c.388.755,1.523.088,1.135-.664A56,56,0,0,1,8.208,47.634c-.125-.835-1.392-.482-1.268.349" transform="translate(11.11 75.58)" fill="#7f4924"/>
            <path id="Trazado_697466" data-name="Trazado 697466" d="M109.526,73.147c-2.186-.57-2.925,3.134-4.953,4.144-1.921.958-4.237-1.228-4.149-3.4s1.757-3.951,3.553-5.13c-3.017-2.1-2.493-7.634.861-9.1a11.556,11.556,0,0,1-.167-11.473,10.824,10.824,0,0,1-9.063-2.788c-1-.942-1.918-2.134-3.253-2.41a9.822,9.822,0,0,0-2.967.234,6.411,6.411,0,0,1-6.614-4.844A32.9,32.9,0,0,0,71.05,40.1c-2.093.711-4.162,1.645-6.366,1.749-2.467.117-5.023-.809-7.358.01a16.78,16.78,0,0,0-3.574,2.22,14.119,14.119,0,0,1-14.341.651c-2.3-1.26-4.373-3.467-4.44-6.124s2.8-5.25,5.156-4.1a6.689,6.689,0,0,1,2.7-6.577,6.424,6.424,0,0,1,7-.078c-4.854-.065-8.144-5.69-7.686-10.606s3.485-9.138,6.4-13.084C49.7,2.6,50.959.957,52.771.3s4.282.229,4.581,2.16C58.877.34,62.143.07,64.322,1.486a8.543,8.543,0,0,1,3.464,6.725A8.713,8.713,0,0,1,77.45,4.705a8.937,8.937,0,0,1,6,8.464l3.069-4.982c1.775-2.876,3.816-5.971,7.014-6.944s7.441,1.848,6.455,5.094a6.766,6.766,0,0,1,9.146-.94,7.058,7.058,0,0,1,1.195,9.276c3.246-1.481,7.259,1.312,7.993,4.854s-1.091,7.21-3.675,9.7a10.546,10.546,0,0,1,1.507,12.535c.281-1.684,2.829-1.96,4.013-.75s1.307,3.1,1.262,4.8c-.06,2.238-.367,4.651-1.884,6.27,2.944,2.309,2.1,6.962.958,10.562-.713,2.257-1.429,4.518-2.335,6.7-.809,1.947-1.874,3.946-3.706,4.94s-4.586.45-5.268-1.549Z" transform="translate(56.047 0.141)" fill="#c23f37"/>
            <path id="Trazado_697467" data-name="Trazado 697467" d="M51.5,7.516a6.022,6.022,0,0,0-5.627.435,11.487,11.487,0,0,0-3.886,4.386,11.49,11.49,0,0,0-1.759,6.088,6.27,6.27,0,0,0,2.228,4.625c1.681,1.312,3.915,1.234,5.874.692a17.128,17.128,0,0,0,5.515-2.694c1.455-1.07,2.951-2.431,3.246-4.313a2.627,2.627,0,0,0-2.855-3.1,8.568,8.568,0,0,0-4.9,2.53,4.553,4.553,0,0,0-1.5,4.734,6.244,6.244,0,0,0,4.183,3.522,10.735,10.735,0,0,0,5.674.06,15.778,15.778,0,0,0,5.411-2.465,8.859,8.859,0,0,0,3.449-4.2A3.353,3.353,0,0,0,66.56,15.1a2.106,2.106,0,0,0-2.194-.851,3.377,3.377,0,0,0-2.585,3.043,4.786,4.786,0,0,0,1.387,4.078,8.044,8.044,0,0,0,5.015,1.9,23.56,23.56,0,0,0,12.009-2.431,21.41,21.41,0,0,0,2.673-1.582c.69-.479.034-1.619-.664-1.137a21.993,21.993,0,0,1-9.513,3.657,19.935,19.935,0,0,1-4.917.141,6.1,6.1,0,0,1-3.9-1.713,3.482,3.482,0,0,1-.729-3.076,2.278,2.278,0,0,1,.742-1.262c.351-.278,1.033-.539,1.434-.211.526.427.073,1.616-.143,2.119a6.244,6.244,0,0,1-1.218,1.8,12.66,12.66,0,0,1-3.738,2.616c-2.829,1.369-6.429,2-9.274.331-1.208-.708-2.306-1.983-1.923-3.477A5.782,5.782,0,0,1,51.86,15.9c.934-.57,2.962-1.674,3.782-.37.7,1.119-.534,2.72-1.314,3.446a15.61,15.61,0,0,1-4.222,2.733A9.649,9.649,0,0,1,45.1,22.766a3.989,3.989,0,0,1-3.217-2.7,7.042,7.042,0,0,1,.172-4.776,14.8,14.8,0,0,1,2.478-4.409,6.562,6.562,0,0,1,4.042-2.527,4.049,4.049,0,0,1,2.259.3c.763.354,1.432-.778.664-1.135" transform="translate(64.454 11.234)" fill="#6b1212"/>
            <path id="Trazado_697468" data-name="Trazado 697468" d="M58.96,8.552a2.155,2.155,0,0,1,1.684-2.02c1.226-.336,2.072.487,2.467,1.593a11.173,11.173,0,0,1,.411,4.958c-.112.968-.349,3.027-1.554,3.318a1.211,1.211,0,0,1-1.252-.7,1.52,1.52,0,0,1,.117-1.7,3.059,3.059,0,0,1,3.683-.692,8.7,8.7,0,0,1,5.172,6.181c.5,2.746-1.4,6.124-4.451,6.059l.635.833a2.228,2.228,0,0,1,1.752-1.671,5.351,5.351,0,0,1,3.282.565c1.543.664,3.386,1.6,4.118,3.217.862,1.9-.619,4.006-1.726,5.474a14.355,14.355,0,0,1-4.427,3.92,8.512,8.512,0,0,1-6.046,1c-.822-.19-1.176,1.078-.351,1.268,4.753,1.1,9.211-1.861,11.957-5.523,1.387-1.848,2.821-4.263,1.817-6.6-.877-2.048-3.063-3.22-5.023-4.032a6.145,6.145,0,0,0-4.167-.492,3.5,3.5,0,0,0-2.452,2.53.665.665,0,0,0,.632.833c3.615.073,6.184-3.678,5.817-7.059A9.068,9.068,0,0,0,68.8,14.884a9.206,9.206,0,0,0-4.825-3.1,4.025,4.025,0,0,0-4.5,1.944,2.854,2.854,0,0,0,1.8,3.961c1.856.424,2.931-1.468,3.287-2.985a13.356,13.356,0,0,0-.083-6.6C63.96,6.3,62.593,4.848,60.594,5.2a3.5,3.5,0,0,0-2.949,3.352.658.658,0,0,0,1.314,0" transform="translate(92.389 8.249)" fill="#6b1212"/>
            <path id="Trazado_697469" data-name="Trazado 697469" d="M51.178,4.321c-2.91.731-4.133,4.284-2.993,6.874,1.369,3.113,5,4.248,8.139,3.67a11.492,11.492,0,0,0,4.984-2.21c1.148-.924,1.791-2.65.648-3.865-1.187-1.26-2.769-.2-3.238,1.135a5.35,5.35,0,0,0,.705,4.4c2.223,3.571,6.738,3.909,10.4,2.676.8-.268.455-1.541-.346-1.268-2.48.835-5.552,1.075-7.7-.7a5.316,5.316,0,0,1-1.858-2.957,3.5,3.5,0,0,1-.013-1.507c.083-.359.39-1.158.9-1.01.349.1.482.63.448.945A2.278,2.278,0,0,1,60.1,11.918a11.445,11.445,0,0,1-3.842,1.624c-2.376.51-5.143-.112-6.535-2.254-1.249-1.926-.656-5.083,1.8-5.7a.657.657,0,0,0-.346-1.268" transform="translate(76.551 6.889)" fill="#6b1212"/>
            <path id="Trazado_697470" data-name="Trazado 697470" d="M65.553,19.973c.794-.445,1.437.552,1.53,1.221a6.231,6.231,0,0,1-.461,2.772A10.315,10.315,0,0,1,63.5,28.458l1.1.64a2.94,2.94,0,0,1,2.811-2.309,4.018,4.018,0,0,1,3.467,2.319,7.29,7.29,0,0,1,.336,5.258c-.38,1.46-1.059,3.4-2.673,3.883a1.616,1.616,0,0,1-1.949-.58,1.172,1.172,0,0,1,.331-1.562c.739-.409.078-1.546-.664-1.135-1.7.937-1.372,3.574.268,4.383,2.145,1.057,4.284-.622,5.187-2.5a10.222,10.222,0,0,0,.8-7.212,5.809,5.809,0,0,0-4.209-4.089,4.3,4.3,0,0,0-4.976,3.2.662.662,0,0,0,1.1.638,11.547,11.547,0,0,0,3.792-6.241,4.363,4.363,0,0,0-.375-3.54,2.3,2.3,0,0,0-2.957-.768c-.739.414-.075,1.549.664,1.135" transform="translate(101.478 29.77)" fill="#6b1212"/>
            <path id="Trazado_697471" data-name="Trazado 697471" d="M64.627,24.717a4.009,4.009,0,0,0,.6,7.86.659.659,0,0,0,.658-.656.677.677,0,0,0-.658-.658,2.7,2.7,0,0,1-.25-5.278.658.658,0,0,0-.349-1.268" transform="translate(98.801 39.573)" fill="#6b1212"/>
            <path id="Trazado_697472" data-name="Trazado 697472" d="M60.982,41.971a4.7,4.7,0,0,0,6.71-3.235.676.676,0,0,0-.458-.807.663.663,0,0,0-.809.458,3.224,3.224,0,0,1-1.856,2.439,3.741,3.741,0,0,1-1.473.37,2.7,2.7,0,0,1-1.45-.359.658.658,0,0,0-.664,1.135" transform="translate(97.225 60.757)" fill="#6b1212"/>
            <path id="Trazado_697473" data-name="Trazado 697473" d="M67.579,27.758c.539-.278.843.882.812,1.215-.088.95-.573,1.819-.674,2.777-.068.627.734.783,1.122.466a1.712,1.712,0,0,1,2.418.422,1.8,1.8,0,0,1-.739,2.441c-.752.388-.086,1.523.664,1.135a3.122,3.122,0,0,0,1.156-4.328,3.05,3.05,0,0,0-4.427-.6c.375.156.747.312,1.122.466.138-1.27,1.01-2.457.544-3.764a1.956,1.956,0,0,0-2.66-1.364c-.752.388-.088,1.523.664,1.135" transform="translate(106.718 42.357)" fill="#6b1212"/>
            <path id="Trazado_697474" data-name="Trazado 697474" d="M48.953,5.383A7.8,7.8,0,0,0,38.183,8.46,9.27,9.27,0,0,0,40.572,19.2c1.452,1.223,4.2,2.348,5.565.37a3.122,3.122,0,0,0,.055-3.157,4.758,4.758,0,0,0-1.072-1.327,2.88,2.88,0,0,0-1.59-.934,9.131,9.131,0,0,0-6.223,2.236A8.592,8.592,0,0,0,34.357,22.5a8.115,8.115,0,0,0,2.952,6.788,7.783,7.783,0,0,0,6.939,1.442.658.658,0,0,0-.349-1.268A6.554,6.554,0,0,1,35.8,24.4a7.493,7.493,0,0,1,5.463-8.67,7.373,7.373,0,0,1,1.278-.239c.245-.021.492-.034.737-.031.263,0,.276.049.5.219a3.181,3.181,0,0,1,1.5,2.262,1.293,1.293,0,0,1-1.528,1.377,4.18,4.18,0,0,1-2.2-1A8.059,8.059,0,0,1,39.07,9.73a6.437,6.437,0,0,1,9.219-3.212.658.658,0,0,0,.664-1.135" transform="translate(55.047 6.967)" fill="#c23f37"/>
            <path id="Trazado_697475" data-name="Trazado 697475" d="M56.093,9.847A13.461,13.461,0,0,1,64.82,1.6a7.866,7.866,0,0,1,5.887.583A5.913,5.913,0,0,1,73.781,6.31a4.9,4.9,0,0,1-2.069,4.9c.323.13.643.263.966.393-.333-2.418,1.775-4.419,3.943-4.969A11.34,11.34,0,0,1,84.1,7.817a10.89,10.89,0,0,1,5.151,4.95,7.97,7.97,0,0,1,.148,6.915,6.019,6.019,0,0,1-5.986,3.373c-.828-.128-1.184,1.137-.349,1.268a7.223,7.223,0,0,0,6.882-3.03,8.807,8.807,0,0,0,.906-8.076A11.721,11.721,0,0,0,85.376,7a13.292,13.292,0,0,0-8.74-1.715c-3.108.619-5.679,3.386-5.226,6.668a.662.662,0,0,0,.966.393A6.1,6.1,0,0,0,75.15,7.239a6.833,6.833,0,0,0-2.722-5.476c-4-3.136-9.458-1.707-13.076,1.307A15.512,15.512,0,0,0,54.825,9.5c-.3.791.968,1.132,1.268.349" transform="translate(87.797 -0.001)" fill="#c23f37"/>
            <path id="Trazado_697476" data-name="Trazado 697476" d="M76.454,86.009c10.414,2.207,21.6,4.2,31.764-.117a25.116,25.116,0,0,0,6.931-4.362c.632-.565-.3-1.491-.929-.929-7.631,6.806-18.524,7.3-28.146,5.885-3.113-.461-6.195-1.093-9.271-1.744-.825-.174-1.176,1.093-.349,1.268" transform="translate(121.778 128.901)" fill="#6d331f"/>
            <path id="Trazado_697477" data-name="Trazado 697477" d="M89.209,76.058c.809,2.379,1.762,4.708,2.7,7.038,1.385,3.425,2.808,6.835,4.235,10.242,3.037,7.249,6.119,14.479,9.084,21.756,1.1,2.694,2.218,5.39,3.155,8.147.273.8,1.543.453,1.27-.351-.809-2.376-1.765-4.708-2.707-7.035-1.385-3.425-2.806-6.835-4.235-10.244-3.035-7.249-6.119-14.476-9.084-21.756-1.1-2.694-2.218-5.39-3.155-8.144-.271-.8-1.541-.455-1.268.349" transform="translate(142.916 120.615)" fill="#6d331f"/>
            <path id="Trazado_697478" data-name="Trazado 697478" d="M74.051,54.258a99.875,99.875,0,0,1-.976,12.985c-.612,4.295-1.546,8.532-2.514,12.759-.583,2.54-1.468,6.054-4.1,7.236-2.467,1.106-5.916-.966-8.022,1.163-1.489,1.5-.8,3.948-.578,5.794l.9,7.41c.1.83,1.418.841,1.314,0q-.394-3.276-.794-6.551c-.128-1.054-.265-2.111-.383-3.165a3.237,3.237,0,0,1,.359-2.434c.822-1.018,2.556-.716,3.685-.632a8.116,8.116,0,0,0,4.242-.479c2.66-1.281,3.787-4.555,4.458-7.212,1.025-4.071,1.884-8.222,2.525-12.371a101.74,101.74,0,0,0,1.2-14.5.658.658,0,0,0-1.314,0" transform="translate(92.17 85.944)" fill="#6d331f"/>
            <path id="Trazado_697479" data-name="Trazado 697479" d="M40.6,51.369A83.756,83.756,0,0,0,36.3,82.711c.128,2.366.125,5.018,1.1,7.217a6.872,6.872,0,0,0,3.782,3.485c3.144,1.312,6.892,1.057,9.8,2.951,2.056,1.34,2.767,3.738,3.188,6.025.557,3.006.973,6.046,1.452,9.068.13.835,1.4.482,1.268-.349-.435-2.735-.851-5.471-1.3-8.2a13,13,0,0,0-2.212-6.114c-2.27-2.873-6.182-3.126-9.482-3.907a8.77,8.77,0,0,1-4.245-1.973c-1.642-1.616-1.739-4.1-1.905-6.257a82.3,82.3,0,0,1,4.131-32.938c.273-.8-1-1.148-1.268-.349" transform="translate(57.98 81.605)" fill="#6d331f"/>
            <path id="Trazado_697480" data-name="Trazado 697480" d="M58.585,85.909A4.239,4.239,0,0,0,60.9,90.524a3.927,3.927,0,0,0,2.7.385,3.61,3.61,0,0,0,2.059-1.437,4.8,4.8,0,0,0,.4-4.667,3.8,3.8,0,0,0-4.209-2.093,4.547,4.547,0,0,0-3.766,3.933.66.66,0,0,0,.656.656.671.671,0,0,0,.658-.656,2.819,2.819,0,0,1,.713-1.533,3.569,3.569,0,0,1,1.515-.989,3.077,3.077,0,0,1,.911-.172,2.4,2.4,0,0,1,2.142,1.062,3.186,3.186,0,0,1,.484,1.582,3.555,3.555,0,0,1-.057.848,4.42,4.42,0,0,1-.115.442c-.023.078-.052.156-.081.232a.549.549,0,0,1-.057.13,2.518,2.518,0,0,1-1.091,1.2,2.257,2.257,0,0,1-1.78.115,3.358,3.358,0,0,1-1.684-1.252,2.539,2.539,0,0,1-.455-2.054c.2-.822-1.07-1.171-1.268-.349" transform="translate(93.105 132.468)" fill="#6d331f"/>
            <path id="Trazado_697481" data-name="Trazado 697481" d="M60.193,107a4.235,4.235,0,0,0,2.316,4.615,3.92,3.92,0,0,0,2.7.385,3.61,3.61,0,0,0,2.059-1.437,4.811,4.811,0,0,0,.406-4.667,3.8,3.8,0,0,0-4.209-2.093,4.553,4.553,0,0,0-3.769,3.933.659.659,0,0,0,.658.656.67.67,0,0,0,.656-.656,2.846,2.846,0,0,1,.713-1.536,3.579,3.579,0,0,1,1.515-.986,3.093,3.093,0,0,1,.914-.172,2.357,2.357,0,0,1,.867.107,2.319,2.319,0,0,1,1.273.955,3.159,3.159,0,0,1,.484,1.582,3.434,3.434,0,0,1-.055.849c-.034.148-.07.3-.117.442-.023.078-.049.154-.081.232a.642.642,0,0,1-.055.13,2.519,2.519,0,0,1-1.091,1.2,2.274,2.274,0,0,1-1.783.115,3.352,3.352,0,0,1-1.681-1.252,2.524,2.524,0,0,1-.455-2.054c.2-.822-1.072-1.171-1.268-.349" transform="translate(95.677 166.271)" fill="#6d331f"/>
            <path id="Trazado_697482" data-name="Trazado 697482" d="M61.8,128.091a4.24,4.24,0,0,0,2.314,4.615,3.936,3.936,0,0,0,2.707.385,3.61,3.61,0,0,0,2.059-1.437,4.8,4.8,0,0,0,.4-4.667,3.8,3.8,0,0,0-4.209-2.093,4.547,4.547,0,0,0-3.766,3.933.658.658,0,0,0,.656.656.671.671,0,0,0,.658-.656,2.827,2.827,0,0,1,.713-1.536,3.587,3.587,0,0,1,1.515-.986,3.076,3.076,0,0,1,.911-.172A2.4,2.4,0,0,1,67.9,127.2a3.186,3.186,0,0,1,.484,1.582,3.555,3.555,0,0,1-.057.848,4.413,4.413,0,0,1-.115.442c-.023.078-.052.154-.081.232a.684.684,0,0,1-.057.13,2.519,2.519,0,0,1-1.091,1.2,2.269,2.269,0,0,1-1.78.115,3.358,3.358,0,0,1-1.684-1.252,2.543,2.543,0,0,1-.455-2.054c.2-.822-1.07-1.171-1.268-.349" transform="translate(98.251 200.075)" fill="#6d331f"/>
            <path id="Trazado_697483" data-name="Trazado 697483" d="M28.452,74.665Q30.357,86.2,31.734,97.814q1.366,11.591,2.2,23.24c.544,7.631,1.02,15.3,1.088,22.946.06,6.863-.432,14.107-3.613,20.327-2.574,5.036-6.939,9.552-12.558,10.984a14.276,14.276,0,0,1-2.067.375c-.833.089-.841,1.4,0,1.314,5.96-.627,10.926-4.477,14.2-9.344,3.888-5.794,5.083-12.876,5.312-19.729.128-3.74-.016-7.485-.167-11.223q-.246-6-.63-11.983Q34.732,112.8,33.4,100.927q-1.323-11.845-3.2-23.625-.238-1.491-.487-2.985c-.138-.833-1.405-.482-1.268.349" transform="translate(25.898 118.346)" fill="#6d331f"/>
            <path id="Trazado_697484" data-name="Trazado 697484" d="M5.582,79.277a36.134,36.134,0,0,0,15.19,7.241A37.9,37.9,0,0,0,37.6,86.336a35.026,35.026,0,0,0,8.862-3.485.658.658,0,0,0-.664-1.135,35.9,35.9,0,0,1-31.4,1.4,33.965,33.965,0,0,1-7.881-4.763c-.651-.531-1.588.4-.929.929" transform="translate(8.587 125.316)" fill="#6d331f"/>
            <path id="Trazado_697485" data-name="Trazado 697485" d="M14.276,72.787a73.879,73.879,0,0,0-10.14,33c-.055.843,1.26.841,1.314,0A72.166,72.166,0,0,1,15.411,73.45a.658.658,0,0,0-1.135-.664" transform="translate(6.626 116.151)" fill="#6d331f"/>
            <path id="Trazado_697486" data-name="Trazado 697486" d="M40.282,85.131a15.882,15.882,0,0,0,9.047.1.658.658,0,0,0-.349-1.268,14.614,14.614,0,0,1-8.35-.1c-.809-.252-1.156,1.018-.349,1.268" transform="translate(63.825 134.358)" fill="#6d331f"/>
            <path id="Trazado_697487" data-name="Trazado 697487" d="M38.913,106.924a14.135,14.135,0,0,0,8.542-.133c.8-.268.455-1.538-.349-1.268a12.917,12.917,0,0,1-7.845.133.658.658,0,0,0-.349,1.268" transform="translate(61.628 169.067)" fill="#6d331f"/>
            <path id="Trazado_697488" data-name="Trazado 697488" d="M39.767,127.62a21.432,21.432,0,0,1,9.146,1.538.664.664,0,0,0,.809-.461.672.672,0,0,0-.461-.807,22.3,22.3,0,0,0-9.495-1.585c-.843.042-.848,1.359,0,1.314" transform="translate(62.719 202.386)" fill="#6d331f"/>
            <path id="Trazado_697489" data-name="Trazado 697489" d="M19.849,148.535a25.778,25.778,0,0,1,25.192-1.4,26.326,26.326,0,0,1,9.38,7.845c2.316,3.144,3.883,6.991,7.113,9.362,4.25,3.121,9.716,1.528,13.969-.7.75-.393.086-1.53-.664-1.137-3.808,2-8.667,3.524-12.517.794a15.2,15.2,0,0,1-3.719-4.279c-1.109-1.713-2.113-3.493-3.355-5.114a26.96,26.96,0,0,0-36.063-6.5c-.713.453-.052,1.59.664,1.135" transform="translate(30.258 229.437)" fill="#6d331f"/>
            <path id="Trazado_697490" data-name="Trazado 697490" d="M63.6,152.126c7.194,1.593,14.38,3.235,21.587,4.776,6.372,1.361,13.375,2.428,19.437-.648a17.445,17.445,0,0,0,7.139-6.814.659.659,0,0,0-1.137-.664,16.162,16.162,0,0,1-6.059,6.018,18.285,18.285,0,0,1-8.925,2.147,45.778,45.778,0,0,1-9.622-1.205c-3.4-.716-6.791-1.494-10.184-2.246l-11.887-2.631c-.825-.182-1.176,1.085-.349,1.268" transform="translate(101.175 237.939)" fill="#6d331f"/>
            <path id="Trazado_697491" data-name="Trazado 697491" d="M77.671,77.7a216.313,216.313,0,0,0-1.9,41.009q.5,10.205,1.97,20.327a88.4,88.4,0,0,0,3.589,16.652c1.884,5.38,4.87,10.476,9.726,13.664.711.466,1.369-.672.664-1.135-4.219-2.769-6.962-7.165-8.732-11.811a77.11,77.11,0,0,1-3.7-15.822,214.994,214.994,0,0,1-.354-62.536.676.676,0,0,0-.458-.807.661.661,0,0,0-.809.458" transform="translate(121.027 123.771)" fill="#6d331f"/>
            <path id="Trazado_697492" data-name="Trazado 697492" d="M31.493,57.263q-2.331,11.829-4.068,23.768-1.73,11.915-2.863,23.909-.636,6.754-1.08,13.526c-.055.843,1.26.841,1.314,0q.785-11.931,2.163-23.807,1.39-11.947,3.384-23.81,1.117-6.637,2.418-13.238c.164-.825-1.1-1.179-1.268-.349" transform="translate(37.633 91.018)" fill="#6d331f"/>
            <path id="Trazado_697493" data-name="Trazado 697493" d="M19.412,123.165a33.24,33.24,0,0,1,.172,12.058c-.141.828,1.127,1.184,1.27.351a35.041,35.041,0,0,0-.174-12.759c-.164-.83-1.431-.479-1.268.349" transform="translate(31.089 196.081)" fill="#6d331f"/>
            <path id="Trazado_697494" data-name="Trazado 697494" d="M21.688,128.658a43.876,43.876,0,0,0,.724,9.039c.154.83,1.421.479,1.27-.349A42.129,42.129,0,0,1,23,128.658a.658.658,0,0,0-1.314,0" transform="translate(34.739 205.187)" fill="#6d331f"/>
            <path id="Trazado_697495" data-name="Trazado 697495" d="M22.426,119.5l2.327,10.067c.19.825,1.46.476,1.27-.349q-1.167-5.036-2.329-10.067c-.19-.825-1.458-.476-1.268.349" transform="translate(35.912 190.212)" fill="#6d331f"/>
            <path id="Trazado_697496" data-name="Trazado 697496" d="M75.153,126.34,76.8,137.607c.122.833,1.39.479,1.268-.349l-1.648-11.267c-.122-.835-1.39-.482-1.268.349" transform="translate(120.437 201.165)" fill="#6d331f"/>
            <path id="Trazado_697497" data-name="Trazado 697497" d="M78.567,127.461l1.53,6.567c.193.822,1.46.474,1.268-.349l-1.53-6.567c-.193-.825-1.46-.476-1.268.349" transform="translate(125.891 202.972)" fill="#6d331f"/>
            <path id="Trazado_697498" data-name="Trazado 697498" d="M78.345,117.912q.593,3.256,1.184,6.512a.661.661,0,0,0,.807.458.673.673,0,0,0,.461-.809q-.593-3.256-1.184-6.509a.662.662,0,0,0-.809-.461.674.674,0,0,0-.458.809" transform="translate(125.545 187.651)" fill="#6d331f"/>
            <path id="Trazado_697499" data-name="Trazado 697499" d="M65.372,69.9l1.093,7.118a.659.659,0,0,0,.807.458.674.674,0,0,0,.461-.809l-1.093-7.116a.666.666,0,0,0-.812-.461.673.673,0,0,0-.455.809" transform="translate(104.754 110.709)" fill="#6d331f"/>
            <path id="Trazado_697500" data-name="Trazado 697500" d="M67.307,69.515v4.146a.657.657,0,0,0,1.314,0V69.515a.657.657,0,1,0-1.314,0" transform="translate(107.875 110.358)" fill="#6d331f"/>
            <path id="Trazado_697501" data-name="Trazado 697501" d="M68.4,63.327q.3,1.48.612,2.957a.662.662,0,0,0,.809.461.674.674,0,0,0,.458-.809q-.3-1.48-.612-2.954a.661.661,0,0,0-.809-.461.671.671,0,0,0-.458.807" transform="translate(109.605 100.162)" fill="#6d331f"/>
            <path id="Trazado_697502" data-name="Trazado 697502" d="M32.417,77.2q.363,2.358.726,4.714a.665.665,0,0,0,.809.461.676.676,0,0,0,.461-.809q-.367-2.358-.729-4.714a.664.664,0,0,0-.809-.461.675.675,0,0,0-.458.809" transform="translate(51.938 122.4)" fill="#6d331f"/>
            <path id="Trazado_697503" data-name="Trazado 697503" d="M34,74.931q.57,1.487,1.137,2.972a.672.672,0,0,0,.809.458.663.663,0,0,0,.458-.809q-.566-1.484-1.137-2.97a.674.674,0,0,0-.809-.461.666.666,0,0,0-.458.809" transform="translate(54.445 118.751)" fill="#6d331f"/>
            <path id="Trazado_697504" data-name="Trazado 697504" d="M32.967,67.693a12.14,12.14,0,0,0,1.088,5.028.662.662,0,0,0,.9.237.675.675,0,0,0,.234-.9,10.562,10.562,0,0,1-.908-4.365.657.657,0,1,0-1.314,0" transform="translate(52.837 107.439)" fill="#6d331f"/>
            <path id="Trazado_697505" data-name="Trazado 697505" d="M40.161,57.957a47,47,0,0,0,17.634,9.5,35.148,35.148,0,0,0,19.539-.167,30.291,30.291,0,0,0,9.713-5.057c.666-.521-.271-1.447-.932-.932a30.264,30.264,0,0,1-17.438,6.129A37.642,37.642,0,0,1,50.223,63.1a49.146,49.146,0,0,1-9.133-6.075c-.645-.539-1.58.385-.929.929" transform="translate(64.014 91.139)" fill="#1b4b5e"/>
            <path id="Trazado_697506" data-name="Trazado 697506" d="M53.042,59.9q.586,1.776,1.174,3.55a.657.657,0,0,0,1.268-.349q-.586-1.776-1.174-3.55a.657.657,0,1,0-1.268.349" transform="translate(84.966 94.665)" fill="#1b4b5e"/>
            <path id="Trazado_697507" data-name="Trazado 697507" d="M54.8,59.459q.57,1.487,1.137,2.972a.672.672,0,0,0,.809.458.664.664,0,0,0,.458-.809q-.566-1.484-1.137-2.97a.674.674,0,0,0-.809-.461.664.664,0,0,0-.458.809" transform="translate(87.777 93.954)" fill="#1b4b5e"/>
            <path id="Trazado_697508" data-name="Trazado 697508" d="M56.2,59.159q.578,1.187,1.158,2.371a.663.663,0,0,0,.9.237.677.677,0,0,0,.237-.9L57.331,58.5a.66.66,0,0,0-.9-.237.677.677,0,0,0-.237.9" transform="translate(89.937 93.231)" fill="#1b4b5e"/>
            <path id="Trazado_697509" data-name="Trazado 697509" d="M43.581,57.723q-.527,1.5-1.057,3a.661.661,0,0,0,.458.807.674.674,0,0,0,.809-.458q.527-1.5,1.057-3a.66.66,0,0,0-.458-.807.67.67,0,0,0-.809.458" transform="translate(68.11 91.747)" fill="#1b4b5e"/>
            <path id="Trazado_697510" data-name="Trazado 697510" d="M45.238,58.192q-.57,1.484-1.137,2.972a.659.659,0,0,0,.458.807.676.676,0,0,0,.809-.458q.57-1.487,1.137-2.972a.657.657,0,0,0-.458-.807.675.675,0,0,0-.809.458" transform="translate(70.633 92.501)" fill="#1b4b5e"/>
            <path id="Trazado_697511" data-name="Trazado 697511" d="M48.344,87.617q6.645,12.419,13.287,24.83L65.4,119.5c.4.747,1.536.083,1.137-.664q-6.645-12.411-13.287-24.827-1.886-3.525-3.774-7.051c-.4-.75-1.536-.083-1.135.661" transform="translate(77.347 138.84)" fill="#1b4b5e"/>
            <path id="Trazado_697512" data-name="Trazado 697512" d="M49.331,92.341l11.348,19.718a.658.658,0,0,0,1.135-.664L50.466,91.677a.658.658,0,0,0-1.135.664" transform="translate(78.916 146.421)" fill="#1b4b5e"/>
            <path id="Trazado_697513" data-name="Trazado 697513" d="M49.448,143.462a56.634,56.634,0,0,0,17.784,6.9c.825.172,1.179-1.1.349-1.268a55.592,55.592,0,0,1-17.47-6.765.657.657,0,0,0-.664,1.132" transform="translate(78.747 227.959)" fill="#1b4b5e"/>
          </g>
        </g>
      </g>
    </g>
  </g>
</svg>
