<svg xmlns="http://www.w3.org/2000/svg" xmlns:xlink="http://www.w3.org/1999/xlink" width="113" height="113" viewBox="0 0 113 113">
  <defs>
    <clipPath id="clip-path">
      <rect id="Rectángulo_344554" data-name="Rectángulo 344554" width="68.156" height="79.647" fill="none"/>
    </clipPath>
  </defs>
  <g id="Grupo_1013500" data-name="Grupo 1013500" transform="translate(-180 -7993)">
    <circle id="Elipse_5222" data-name="Elipse 5222" cx="56.5" cy="56.5" r="56.5" transform="translate(180 7993)" fill="#0098e8"/>
    <g id="Grupo_944415" data-name="Grupo 944415" transform="translate(202 8010)">
      <g id="Grupo_944414" data-name="Grupo 944414" clip-path="url(#clip-path)">
        <path id="Trazado_697146" data-name="Trazado 697146" d="M11.6,21.114H56.559a11.631,11.631,0,0,1,11.6,11.6V77.673a11.63,11.63,0,0,1-11.6,11.6H11.6A11.631,11.631,0,0,1,0,77.673V32.711a11.631,11.631,0,0,1,11.6-11.6" transform="translate(0 -12.769)" fill="#d68119" fill-rule="evenodd"/>
        <path id="Trazado_697147" data-name="Trazado 697147" d="M43.284,147.261H15.229C14.9,132.916,25.942,124.587,35.42,121.48a48.755,48.755,0,0,0,.572-9.194H50.576a48.755,48.755,0,0,0,.572,9.194c9.478,3.108,20.515,11.436,20.191,25.781Z" transform="translate(-9.206 -67.907)" fill="#58556c" fill-rule="evenodd"/>
        <path id="Trazado_697148" data-name="Trazado 697148" d="M40.356,81.961c-.068-.75-3.137-1.637-4.159.818s.818,5.932,4.3,6.2,2.454-.341,2.454-.341Z" transform="translate(-21.721 -49.088)" fill="#e4ae7c" fill-rule="evenodd"/>
        <path id="Trazado_697149" data-name="Trazado 697149" d="M121.306,81.961c.068-.75,3.136-1.637,4.159.818s-.818,5.932-4.295,6.2-2.455-.341-2.455-.341Z" transform="translate(-71.71 -49.088)" fill="#e4ae7c" fill-rule="evenodd"/>
        <path id="Trazado_697150" data-name="Trazado 697150" d="M82.287,120.292c-3.157,6.039-11.288,6.669-14.779.232.092-1.316.121-2.556.127-3.512h14.54c0,.9.032,2.05.111,3.28" transform="translate(-40.827 -70.766)" fill="#d67f54" fill-rule="evenodd"/>
        <path id="Trazado_697151" data-name="Trazado 697151" d="M59.962,59.117c-18.091.435-27.225-44.177,0-43.034,27.225-1.143,18.091,43.47,0,43.034" transform="translate(-25.884 -9.713)" fill="#e4ae7c" fill-rule="evenodd"/>
        <path id="Trazado_697152" data-name="Trazado 697152" d="M66.908,72.139a1.621,1.621,0,1,1-2.266.364,1.618,1.618,0,0,1,2.266-.364" transform="translate(-38.907 -43.442)" fill="#20201e" fill-rule="evenodd"/>
        <path id="Trazado_697153" data-name="Trazado 697153" d="M100.829,72.139a1.621,1.621,0,1,0,2.266.364,1.617,1.617,0,0,0-2.266-.364" transform="translate(-60.572 -43.442)" fill="#20201e" fill-rule="evenodd"/>
        <path id="Trazado_697154" data-name="Trazado 697154" d="M59.847,86.552c.923.709.964,1.747.091,2.319a3.025,3.025,0,0,1-3.254-.249c-.923-.709-.964-1.747-.09-2.318a3.025,3.025,0,0,1,3.254.248" transform="translate(-33.845 -51.973)" fill="#da9077" fill-rule="evenodd"/>
        <path id="Trazado_697155" data-name="Trazado 697155" d="M105.813,86.552c-.923.709-.964,1.747-.09,2.319a3.025,3.025,0,0,0,3.254-.249c.923-.709.964-1.747.09-2.318a3.025,3.025,0,0,0-3.254.248" transform="translate(-63.557 -51.973)" fill="#da9077" fill-rule="evenodd"/>
        <path id="Trazado_697156" data-name="Trazado 697156" d="M64.446,60.924c-.06-.026-.121-.051-.182-.075a4.671,4.671,0,0,0-2.07-.269,4.585,4.585,0,0,0-1.933.606c-.293.189-1.435,1.113-1.111,1.454a17.121,17.121,0,0,0,1.6-.654,4.531,4.531,0,0,1,1.492-.2,4,4,0,0,1,1.368.278c.013,0,.1.04.115.048.954.464.868.762,1.518.316,1-.533-.029-1.1-.8-1.505" transform="translate(-35.737 -36.627)" fill="#3f2716" fill-rule="evenodd"/>
        <path id="Trazado_697157" data-name="Trazado 697157" d="M97.949,60.924c.06-.026.121-.051.182-.075a4.672,4.672,0,0,1,2.071-.269,4.588,4.588,0,0,1,1.933.606c.292.189,1.435,1.113,1.111,1.454a17.034,17.034,0,0,1-1.6-.654,4.536,4.536,0,0,0-1.492-.2,4,4,0,0,0-1.368.278c-.013,0-.1.04-.115.048-.954.464-.868.762-1.518.316-1-.533.029-1.1.8-1.505" transform="translate(-58.501 -36.627)" fill="#3f2716" fill-rule="evenodd"/>
        <path id="Trazado_697158" data-name="Trazado 697158" d="M83.924,109.438a.2.2,0,0,1,.2-.337,1.924,1.924,0,0,0,.957.237,1.84,1.84,0,0,0,.939-.236.2.2,0,0,1,.2.334,2.234,2.234,0,0,1-1.142.293,2.317,2.317,0,0,1-1.155-.292" transform="translate(-50.697 -65.965)" fill="#d67f54" fill-rule="evenodd"/>
        <path id="Trazado_697159" data-name="Trazado 697159" d="M85.55,84.234a.2.2,0,1,1,0-.392,9.564,9.564,0,0,0,1.467-.078c.358-.061.62-.158.62-.32,0-.564-.572-4.072-.573-4.082a.2.2,0,1,1,.387-.061c0,.01.579,3.555.579,4.143,0,.413-.4.613-.948.706a9.793,9.793,0,0,1-1.532.084" transform="translate(-51.62 -47.859)" fill="#d67f54" fill-rule="evenodd"/>
        <path id="Trazado_697160" data-name="Trazado 697160" d="M127.548,87.472a.2.2,0,0,1-.392,0,1.908,1.908,0,0,0-.268-1.174.469.469,0,0,0-.365-.182,1.077,1.077,0,0,0-.534.164,3.527,3.527,0,0,0-1.342,1.583,7.391,7.391,0,0,0-.334.91,1.393,1.393,0,0,1,.914-.265.868.868,0,0,1,.422.153.7.7,0,0,1,.264.37,1.286,1.286,0,0,1-.271,1.062.2.2,0,1,1-.325-.218.93.93,0,0,0,.22-.732.306.306,0,0,0-.117-.164.481.481,0,0,0-.232-.081,1.08,1.08,0,0,0-.836.352.419.419,0,0,1-.2.125.214.214,0,0,1-.283-.189l0-.01a.679.679,0,0,1,.006-.229,6.123,6.123,0,0,1,.415-1.238,3.947,3.947,0,0,1,1.508-1.767,1.456,1.456,0,0,1,.735-.215.845.845,0,0,1,.66.326,2.247,2.247,0,0,1,.358,1.421" transform="translate(-74.907 -51.844)" fill="#d67f54" fill-rule="evenodd"/>
        <path id="Trazado_697161" data-name="Trazado 697161" d="M39.647,87.472a.2.2,0,0,1-.392,0,2.248,2.248,0,0,1,.357-1.421.847.847,0,0,1,.66-.326,1.456,1.456,0,0,1,.735.215,3.944,3.944,0,0,1,1.507,1.767,6.128,6.128,0,0,1,.416,1.238.679.679,0,0,1,.006.229l0,.01a.214.214,0,0,1-.283.189.418.418,0,0,1-.2-.125,1.079,1.079,0,0,0-.836-.352.481.481,0,0,0-.233.081.3.3,0,0,0-.116.164.928.928,0,0,0,.22.732.2.2,0,1,1-.325.218,1.286,1.286,0,0,1-.27-1.062.694.694,0,0,1,.263-.37.87.87,0,0,1,.423-.153,1.391,1.391,0,0,1,.913.265,7.383,7.383,0,0,0-.334-.91,3.528,3.528,0,0,0-1.342-1.583,1.075,1.075,0,0,0-.534-.164.468.468,0,0,0-.365.182,1.9,1.9,0,0,0-.269,1.174" transform="translate(-23.74 -51.844)" fill="#d67f54" fill-rule="evenodd"/>
        <path id="Trazado_697162" data-name="Trazado 697162" d="M74.935,10.081c.754.144.655.764-1.544,2.316,2.032,2.561,2.344,6.63,1.65,10.446a63.982,63.982,0,0,1-4.6,10.375c-.2.351-.066-7.5-2.335-10.64-1.151-1.592-2.1-3.478-4.445-5.051-.024.447,1.369,1.665.849,1.911-1.988.937-7.588-.031-10.174-.687.744.766,1.5,1.322,1.219,1.6-.89.874-6.52-.49-10-2.824-.842,2.78-2.032,5.733-3.369,6.519-3.578,2.1-2.018,10.994-2.957,9.688-4.307-5.991-3.221-13.748-3.221-13.748A19.843,19.843,0,0,0,34.788,21.9c-.594,1.236-1-10.134,4.4-11.609a6.791,6.791,0,0,0-3.046.117c-.8.151,1.582-2.067,4.156-2.356.074-1.12.574-5.614,3.861-7.064a10.754,10.754,0,0,1,3.7-.937,4.768,4.768,0,0,0-2.017,2.269c12.026-5.673,17.5.358,22.209,4.138,1.425,1.143,4.442,3.43,6.875,3.62" transform="translate(-20.838 0)" fill="#35253d" fill-rule="evenodd"/>
        <path id="Trazado_697163" data-name="Trazado 697163" d="M58.539,63.12a5.8,5.8,0,1,1-4.1,1.7,5.778,5.778,0,0,1,4.1-1.7m3.406,2.392a4.817,4.817,0,1,0,1.411,3.406,4.8,4.8,0,0,0-1.411-3.406" transform="translate(-31.896 -38.173)" fill="#2e1e11" fill-rule="evenodd"/>
        <path id="Trazado_697164" data-name="Trazado 697164" d="M96.166,63.12a5.8,5.8,0,1,1-4.1,1.7,5.779,5.779,0,0,1,4.1-1.7m3.406,2.392a4.817,4.817,0,1,0,1.411,3.406,4.8,4.8,0,0,0-1.411-3.406" transform="translate(-54.652 -38.173)" fill="#2e1e11" fill-rule="evenodd"/>
        <path id="Trazado_697165" data-name="Trazado 697165" d="M47.863,76.555a.391.391,0,0,1,.264.736l-3.453,1.244a.391.391,0,0,1-.264-.736Z" transform="translate(-26.701 -46.284)" fill="#2e1e11" fill-rule="evenodd"/>
        <path id="Trazado_697166" data-name="Trazado 697166" d="M117.879,77.291a.391.391,0,1,1,.264-.736L121.6,77.8a.391.391,0,0,1-.264.736Z" transform="translate(-71.133 -46.285)" fill="#2e1e11" fill-rule="evenodd"/>
        <path id="Trazado_697167" data-name="Trazado 697167" d="M79.945,74.3a.391.391,0,0,1-.668-.407,3.82,3.82,0,0,1,5.422,0,.391.391,0,0,1-.668.407s-.44-.751-2.043-.751-2.042.749-2.043.751" transform="translate(-47.91 -44.004)" fill="#2e1e11" fill-rule="evenodd"/>
        <path id="Trazado_697168" data-name="Trazado 697168" d="M82.97,96.735c-2.463.915-9.948.9-12.272.11,1.284,4.679,11.024,4.6,12.272-.11" transform="translate(-42.756 -58.503)" fill="#fff" fill-rule="evenodd"/>
        <path id="Trazado_697169" data-name="Trazado 697169" d="M65.486,123.162c-.2-.086-.715-.079-.715.284a8.558,8.558,0,0,1,.1,2.738c-.277,1.053-.743,1.918-.206,2.126a23.642,23.642,0,0,0,16.723,0c.537-.209.071-1.073-.206-2.126a8.558,8.558,0,0,1,.1-2.738c0-.362-.514-.37-.715-.284a19.14,19.14,0,0,1-15.091,0" transform="translate(-38.961 -74.457)" fill="#67627e" fill-rule="evenodd"/>
        <path id="Trazado_697170" data-name="Trazado 697170" d="M34.349,179.791a.293.293,0,1,1,.586,0l-.072,8.117a.293.293,0,0,1-.587,0Z" transform="translate(-20.73 -108.557)" fill="#383546" fill-rule="evenodd"/>
        <path id="Trazado_697171" data-name="Trazado 697171" d="M136.576,179.791a.293.293,0,1,1,.586,0l-.072,8.117a.293.293,0,1,1-.586,0Z" transform="translate(-82.554 -108.557)" fill="#383546" fill-rule="evenodd"/>
        <path id="Trazado_697172" data-name="Trazado 697172" d="M67.671,125.261a.2.2,0,1,1,.39.012c-.009.267-.011.518-.014.771-.006.519-.012,1.045-.064,1.664a4.4,4.4,0,0,1-.61,1.8.2.2,0,1,1-.329-.21,3.971,3.971,0,0,0,.549-1.624c.052-.624.058-1.134.064-1.635,0-.26.006-.519.014-.781" transform="translate(-40.528 -75.64)" fill="#58556c" fill-rule="evenodd"/>
        <path id="Trazado_697173" data-name="Trazado 697173" d="M71.742,126.706a.2.2,0,1,1,.39.012c-.009.267-.011.518-.014.771-.006.519-.012,1.045-.063,1.664a4.4,4.4,0,0,1-.611,1.8.2.2,0,1,1-.329-.21,3.971,3.971,0,0,0,.549-1.624c.052-.624.058-1.134.064-1.635,0-.26.006-.519.014-.781" transform="translate(-42.99 -76.514)" fill="#58556c" fill-rule="evenodd"/>
        <path id="Trazado_697174" data-name="Trazado 697174" d="M76.009,127.494a.2.2,0,1,1,.39.012c-.009.267-.011.519-.014.771-.006.518-.012,1.045-.064,1.664a4.4,4.4,0,0,1-.61,1.8.2.2,0,1,1-.329-.209,3.978,3.978,0,0,0,.549-1.624c.052-.624.058-1.134.063-1.635,0-.26.006-.519.015-.781" transform="translate(-45.57 -76.99)" fill="#58556c" fill-rule="evenodd"/>
        <path id="Trazado_697175" data-name="Trazado 697175" d="M80.408,128.282a.2.2,0,1,1,.39.012c-.009.267-.011.519-.014.771-.006.518-.012,1.045-.064,1.664a4.4,4.4,0,0,1-.61,1.8.2.2,0,0,1-.329-.21,3.971,3.971,0,0,0,.549-1.624c.052-.624.058-1.134.064-1.635,0-.26.006-.518.014-.78" transform="translate(-48.231 -77.467)" fill="#58556c" fill-rule="evenodd"/>
        <path id="Trazado_697176" data-name="Trazado 697176" d="M102.268,125.274a.2.2,0,0,1,.391-.012c.009.262.011.52.014.78.006.5.012,1.011.064,1.635a3.959,3.959,0,0,0,.549,1.623.2.2,0,0,1-.33.21,4.405,4.405,0,0,1-.61-1.8c-.051-.619-.058-1.146-.063-1.664,0-.253-.006-.5-.015-.771" transform="translate(-61.849 -75.641)" fill="#58556c" fill-rule="evenodd"/>
        <path id="Trazado_697177" data-name="Trazado 697177" d="M98.2,126.718a.2.2,0,1,1,.391-.012c.009.262.011.52.014.78.006.5.012,1.011.064,1.635a3.955,3.955,0,0,0,.549,1.623.2.2,0,0,1-.33.21,4.409,4.409,0,0,1-.61-1.8c-.052-.619-.058-1.146-.063-1.664,0-.253-.006-.5-.015-.771" transform="translate(-59.387 -76.514)" fill="#58556c" fill-rule="evenodd"/>
        <path id="Trazado_697178" data-name="Trazado 697178" d="M93.93,127.506a.2.2,0,0,1,.391-.012c.009.262.011.52.014.78.006.5.012,1.011.064,1.635a3.968,3.968,0,0,0,.549,1.624.2.2,0,0,1-.33.21,4.415,4.415,0,0,1-.61-1.8c-.051-.619-.057-1.146-.063-1.665,0-.253-.006-.5-.015-.771" transform="translate(-56.806 -76.99)" fill="#58556c" fill-rule="evenodd"/>
        <path id="Trazado_697179" data-name="Trazado 697179" d="M89.532,128.293a.2.2,0,1,1,.391-.012c.009.262.011.52.014.78.006.5.012,1.012.064,1.635a3.962,3.962,0,0,0,.549,1.624.2.2,0,0,1-.33.21,4.412,4.412,0,0,1-.61-1.8c-.051-.619-.058-1.146-.063-1.664,0-.253-.006-.5-.015-.771" transform="translate(-54.146 -77.466)" fill="#58556c" fill-rule="evenodd"/>
        <path id="Trazado_697180" data-name="Trazado 697180" d="M85.527,128.288a.2.2,0,1,1,.391,0l.009,4.138a.2.2,0,0,1-.39,0Z" transform="translate(-51.724 -77.466)" fill="#58556c" fill-rule="evenodd"/>
        <path id="Trazado_697181" data-name="Trazado 697181" d="M59.081,21.235a.2.2,0,0,1,.345-.186c1.077,2,3.316,3.756,5.9,5.156a31.446,31.446,0,0,0,9.837,3.357.2.2,0,0,1-.054.388,31.875,31.875,0,0,1-9.971-3.4c-2.64-1.432-4.936-3.242-6.054-5.315" transform="translate(-35.717 -12.668)" fill="#432d4c" fill-rule="evenodd"/>
        <path id="Trazado_697182" data-name="Trazado 697182" d="M64.374,16.743a.2.2,0,1,1,0-.392,27.7,27.7,0,0,1,8.765,1.436,31.833,31.833,0,0,1,8.29,4.23,20.423,20.423,0,0,1,5.917,6.124,18.848,18.848,0,0,1,2.547,8.632.2.2,0,0,1-.391.026,18.467,18.467,0,0,0-2.492-8.457A20.039,20.039,0,0,0,81.2,22.337a31.453,31.453,0,0,0-8.188-4.179,27.315,27.315,0,0,0-8.642-1.415" transform="translate(-38.813 -9.889)" fill="#432d4c" fill-rule="evenodd"/>
        <path id="Trazado_697183" data-name="Trazado 697183" d="M67.87,9.914a.2.2,0,1,1-.164-.355c8.045-3.706,13.283-.018,17.8,3.163,1.116.786,2.188,1.541,3.24,2.138a.2.2,0,1,1-.193.34c-1.072-.608-2.15-1.367-3.272-2.158C80.849,9.922,75.71,6.3,67.87,9.914" transform="translate(-40.878 -4.842)" fill="#432d4c" fill-rule="evenodd"/>
        <path id="Trazado_697184" data-name="Trazado 697184" d="M48.5,29.688a.2.2,0,0,1,.391-.02,11.565,11.565,0,0,1-.758,4.026,13.826,13.826,0,0,1-1.979,3.837,7.794,7.794,0,0,0-1.537,4.293.2.2,0,1,1-.39-.006,8.226,8.226,0,0,1,1.619-4.529,13.412,13.412,0,0,0,1.918-3.724,11.169,11.169,0,0,0,.736-3.877" transform="translate(-26.744 -17.83)" fill="#432d4c" fill-rule="evenodd"/>
      </g>
    </g>
  </g>
</svg>
