<svg xmlns="http://www.w3.org/2000/svg" xmlns:xlink="http://www.w3.org/1999/xlink" width="400" height="507.54" viewBox="0 0 400 507.54">
  <defs>
    <clipPath id="clip-path">
      <rect id="Rectángulo_348577" data-name="Rectángulo 348577" width="400" height="507.54" rx="17" transform="translate(600 8638.775)" fill="#ffa031" opacity="0.4"/>
    </clipPath>
    <clipPath id="clip-path-2">
      <rect id="Rectángulo_348553" data-name="Rectángulo 348553" width="400" height="552.379" rx="17" transform="translate(-1)" fill="#253b46"/>
    </clipPath>
    <clipPath id="clip-path-3">
      <rect id="Rectángulo_348554" data-name="Rectángulo 348554" width="401" height="585.831" rx="17" fill="#112e4c"/>
    </clipPath>
  </defs>
  <g id="Enmascarar_grupo_1011305" data-name="Enmascarar grupo 1011305" transform="translate(-600 -8638.775)" clip-path="url(#clip-path)">
    <rect id="Rectángulo_348551" data-name="Rectángulo 348551" width="400" height="507.54" rx="17" transform="translate(600 8638.775)" fill="#112e4c"/>
    <rect id="Rectángulo_348552" data-name="Rectángulo 348552" width="500" height="502.54" transform="translate(618.87 8643.775)" fill="none"/>
    <g id="Enmascarar_grupo_1011291" data-name="Enmascarar grupo 1011291" transform="translate(601 8618.856)" opacity="0.63" clip-path="url(#clip-path-2)">
      <path id="Trazado_729595" data-name="Trazado 729595" d="M261.285,135.189c.041,3.565.846,3.023.322-.077Zm99.464-28.71c1.008-.349,1.894-.657,2.743-.89a178.94,178.94,0,0,1,57.169,29.1,218.6,218.6,0,0,1,46.89,48.042c-.564.736-1.184,1.606-1.853,2.557-4.692,6.643-18.225,10.655-9.879,17.746,11.531,7.089,16.006,4.725,7.1,21.7-12.338,23.13-18.1,13.1-21.165,17.548-7.3,10.617.923,39.159-10.846,19.257-3.674-6.211-5.444-10.808-13.829-9.53-9.273,1.472-2.1,8.484-1.129,14.916,1.168,7.827.6,5.27,3.911,11.661,3.788,7.206-3.226,20.729-8.749,25.494-4.879,4.222-13.829,9.027-20.482,7.634-6.693-1.395-8.869,4.765-6.049,10.071,5.605,9.881,12.943,17.28,1.614,26.465-7.054,5.734-5.085-5.532-12.7-8.449-9.4-3.593,4.193,21.116,5.041,23.247,3.749,9.879-3.751,6.095-7.58-7.4-1.251-4.406-5.846-24.642-7.62-26.5-4.96-3.021-4.718,1.509-8.145.813-1.774-5.191.523-9.143-.927-11.041-12.136-15.885-1.973-13.439-13.508-7.557-3.5,1.788-.483-1.316-3.909,3.565-7.539,10.694-20.585,11.164-16.248,28.012.339,1.324,7.336,16.467,2.983,14.374-3.224-1.549-1.332-6.547-6.531-6.933-4.757-.389-7.823-9.029-9.475-12.825-4.558-10.112-4.6-13.367-6.332-23.594-.724-4.883-2.338,1.586-8.547-7.594-8.508-12.9-8.788-6.122-23.182-8.989-11.006-2.4-12.821-4.572-21.692-10.54-8.466-5.692-6.57,5.077,2.539,10.461,8.991,4.38,24.715,7.014,13.265,21.078-4.877,6.083-26.317,26.325-33.585,13.4-2.975-5.29-5.765-12.669-8.707-18.6-3.952-8.37-6.249-14.53-13.143-21.155-2.46,7.709,2.046,14.068,5.765,21.193,2.287,4.382,4.514,8.33,6.651,12.823,1.452,2.985,10.282,16.041,13.184,16.816,7.016,1.859,25.652-11.523,13.667,13.366-5.031,10.447-11.611,11.7-16.53,25.107-4.435,13.4-5.28,7.75.886,24.29,4.8,12.128,8.871,19.143-1.571,25.417-10.08,6.2,3.548,11.546,2.3,19.141-.647,4.686-5.513-.328-2.458,9.686,1.34,4.4.081,9.376-.848,13.016-1.411,7.363-9.433,8.137-16.733,8.214-2.739-1.626-5.44-3.293-8.184-5.035-2.1-3.682-4.475-8.912-11.288-14.723-6.288-5.386-8.427-15.69-14.153-24.062-4.433-6.777-10.8-13.324-7.942-19.486,3.023-6.509,1.693-10.151-3.427-17.746-7.257-11.118-19.514-18.13-14.875-31.151,1.772-4.688.241-6.819-5.527-6.779-6.087.039-3.9,4.408-9.917-1.975-7.129-7.563-10,.233-19.717,2.091-11.408,1.549-18.02-2.595-23.545-10C89.007,338.44,85.5,318.2,84.9,309.42s-.282-5.7-.243-8.526a46.831,46.831,0,0,1,5.483-7.4c7.217-7.825,7.379-13.328,14.555-21.852,10.765-12.476-.929-5.811-2.983-19.062-.726-5.384.809-14.153,8.024-14.877,6.655-.669,18.545-.077,12.377-11.043-3.589-6.586-6.422-2.306,7.659-9.8,11.319-6.026,11.5-9.311,25.358-14.3,9.406-3.38,17.46-9.1,9.719-17.667-5.968-6.624-12.2,4.153-13.186-5.152-1.31-12.353,23.588-23.635,29.233-32.467a278.191,278.191,0,0,1,29.793-18.868c4.877,1.393,44.552,15.575,19.072,19.255a61.12,61.12,0,0,0-7.742,1.434c6.693,21,12.943,6.043,25.843-2.675,4.4-2.981,7.419-1.046,12.862-2.131a122.174,122.174,0,0,1,17.215-2.362c11.41-1.05,7.379-9.26,17.982-3.449,11.975,6.47,4.583-10.511,13.3-19.527,7.809-8.07,11.211,8.459,16.008,7.827,5.525-.726,8.265-10.771,17.093-9.958,9.4.852,3.066-3.254,13.186-8.137,1.653-.813,3.548-1.549,5.24-2.208M259.31,441.224c-.645-7.515.2-9.49.4-16.195.322-5.268-1.45-14.1-6.047-6.042-2.016,3.642-2.093,4.3-4.718,7.555-3.344,4.147.276,4.777-1.249,12.243-1.056,5.165.846,8.871,5.242,13.831,9.917,11,6.894-6.665,6.369-11.392M441.426,272.883c-1.573,4.572,3.153,10.966,3.184,3.449.01-2.013-1.411-4.881-3.184-3.449M448.6,268.7c-3.832,2.131-1.17,7.168.844,5.927,5.444-3.409,9.273-3.214,14.03-6.353,4.8-3.177,4.439-10.729,4.031-15.885-.839-10.611-3.828,1.784-5.886,5.114a24.833,24.833,0,0,1-13.02,11.2M294.991,108.61c1.815-.7,3.5-1.377,5.282-2.208,7.125-3.317,10.8-8.524,3.709-5.229-7.74,3.561-13.265,4.455-20.684,7.4-4.394,1.665-7.62,1.936-8.307,6.973-.523,3.644-10.641,6.858-6.207,9.958,3.143,2.168,4.112,5.7,6.612,6.043,12.781,1.707-10.765-11.118,19.594-22.937M213.227,232.784c-3.952-2.4-7.34,3.759-.809,2.79,2.218-.349,2.1-1.549.809-2.79M171.416,178.89c-1.653-.927-2.7,4.42-.243,1.707a1.514,1.514,0,0,0,.243-1.707m44.029-4.725c3.265-1.434-1.572-7.827-2.7-2.634-.4,1.936,1.089,2.595,2.7,2.634M176.9,185.441c-3.668,4.919-13.3,18.44.282,12.592,6.251-2.675,6.894-5.7,12.3-9.571,6.815-4.921,6.9-6.47,15.12-11.235,11.371-6.628-18.868,2.9-9.07-13.251,5.321-8.64,11.29-17.513-3.185-6.432-21.731,16.39-1.269,9.749-14.313,26.5-.383.489-.726.969-1.131,1.395m66.04,58.115c2.823,6.276,2.058,15.226,7.782,18.559,8.67,5,3.5-12.367,6.251-14.839,1.081-.975-.807-1.938-2.34-3.719-15.159-18.442,13.709-3.68,1.9-15.3-5.122-5.116-19.894.687-14.354,13.444.264.61.525,1.237.766,1.859m-27.495-15.187c-13.145,4.688-11.331-7.014-20.121,11.118-5.2,11.16,8.67,3.836,18.667,6.237,3.751.931,13.831,3.488,10.645-4.493-2.016-5.384-8.285-1.679-2.458-13.521,2.235-4.544-4.637-.156-6.732.659m-4.477,35.566c-3.386-1.085-12.456-1.667-15.8-.969-3.469.582-3.064-1.667-4.354-5.657-.645-2.054-3.335-11.842-7.5-8.37-3.5,2.92,1.533,11.973-3.909,11.043-6.574-1.123-4.114-13.4-8.265-17.318-1.857-1.821-10.524-10.5-12.983-9.571-.4,10.81,15.321,15.536,6.975,23.556-3.913,3.836-13.508,2.441-7.622.426,7.581-2.636,4.477-5.268.483-10.927-6.489-9.3-7.659-11.235-20.682-5.811-12.3,5.231-8.972,10.87-18.346,19.525-7.277,6.726-5.12,5.815,3.429,4.031,6.894-1.472,22.7-7.012,25.36,2.131,2.66,8.251-2.987,3.139,6.452,9.337,3.423,2.251,13.263,12.126,16.286,5.077,1.776-3.99,1.079-6.13,7.9-4.108,9.508,2.82,20.926,10.384,30.117,0,2.3-2.518,6.251-10.189,2.46-12.4" transform="translate(157.286 -94.436)" fill="#f5f5f5" fill-rule="evenodd" opacity="0.57"/>
      <path id="Trazado_729596" data-name="Trazado 729596" d="M290.975,135.189c-.041,3.565-.846,3.023-.322-.077Zm-99.464-28.71c-1.008-.349-1.894-.657-2.743-.89a178.94,178.94,0,0,0-57.169,29.1,218.6,218.6,0,0,0-46.89,48.042c.564.736,1.184,1.606,1.853,2.557,4.692,6.643,18.225,10.655,9.879,17.746-11.531,7.089-16.006,4.725-7.1,21.7,12.338,23.13,18.1,13.1,21.165,17.548,7.3,10.617-.923,39.159,10.846,19.257,3.674-6.211,5.444-10.808,13.829-9.53,9.273,1.472,2.1,8.484,1.129,14.916-1.168,7.827-.6,5.27-3.911,11.661-3.788,7.206,3.226,20.729,8.749,25.494,4.879,4.222,13.829,9.027,20.482,7.634,6.693-1.395,8.869,4.765,6.049,10.071-5.605,9.881-12.943,17.28-1.614,26.465,7.054,5.734,5.085-5.532,12.7-8.449,9.4-3.593-4.193,21.116-5.041,23.247-3.749,9.879,3.751,6.095,7.581-7.4,1.251-4.406,5.846-24.642,7.62-26.5,4.96-3.021,4.718,1.509,8.145.813,1.774-5.191-.523-9.143.927-11.041,12.136-15.885,1.973-13.439,13.508-7.557,3.5,1.788.483-1.316,3.909,3.565,7.539,10.694,20.585,11.164,16.248,28.012-.339,1.324-7.336,16.467-2.983,14.374,3.224-1.549,1.332-6.547,6.531-6.933,4.757-.389,7.823-9.029,9.475-12.825,4.558-10.112,4.6-13.367,6.332-23.594.724-4.883,2.338,1.586,8.547-7.594,8.508-12.9,8.788-6.122,23.182-8.989,11.006-2.4,12.821-4.572,21.692-10.54,8.466-5.692,6.57,5.077-2.539,10.461-8.991,4.38-24.715,7.014-13.265,21.078,4.877,6.083,26.317,26.325,33.585,13.4,2.975-5.29,5.765-12.669,8.707-18.6,3.952-8.37,6.249-14.53,13.143-21.155,2.46,7.709-2.046,14.068-5.765,21.193-2.287,4.382-4.514,8.33-6.651,12.823-1.452,2.985-10.282,16.041-13.184,16.816-7.016,1.859-25.652-11.523-13.667,13.366,5.031,10.447,11.612,11.7,16.53,25.107,4.435,13.4,5.28,7.75-.886,24.29-4.8,12.128-8.871,19.143,1.571,25.417,10.08,6.2-3.548,11.546-2.3,19.141.647,4.686,5.513-.328,2.458,9.686-1.34,4.4-.081,9.376.848,13.016,1.411,7.363,9.433,8.137,16.734,8.214,2.739-1.626,5.44-3.293,8.184-5.035,2.1-3.682,4.475-8.912,11.288-14.723,6.288-5.386,8.427-15.69,14.153-24.062,4.433-6.777,10.8-13.324,7.942-19.486-3.023-6.509-1.693-10.151,3.427-17.746,7.257-11.118,19.514-18.13,14.875-31.151-1.772-4.688-.241-6.819,5.527-6.779,6.087.039,3.9,4.408,9.917-1.975,7.129-7.563,10,.233,19.717,2.091,11.408,1.549,18.02-2.595,23.545-10,4.919-13.792,8.427-34.035,9.031-42.811s.282-5.7.243-8.526a46.832,46.832,0,0,0-5.483-7.4c-7.217-7.825-7.379-13.328-14.555-21.852-10.765-12.476.929-5.811,2.983-19.062.726-5.384-.809-14.153-8.024-14.877-6.655-.669-18.545-.077-12.377-11.043,3.589-6.586,6.422-2.306-7.659-9.8-11.319-6.026-11.5-9.311-25.358-14.3-9.406-3.38-17.46-9.1-9.719-17.667,5.969-6.624,12.2,4.153,13.186-5.152,1.31-12.353-23.588-23.635-29.233-32.467a278.193,278.193,0,0,0-29.793-18.868c-4.877,1.393-44.552,15.575-19.072,19.255a61.119,61.119,0,0,1,7.742,1.434c-6.693,21-12.943,6.043-25.843-2.675-4.4-2.981-7.419-1.046-12.862-2.131a122.174,122.174,0,0,0-17.215-2.362c-11.41-1.05-7.379-9.26-17.982-3.449-11.975,6.47-4.583-10.511-13.3-19.527-7.809-8.07-11.211,8.459-16.007,7.827-5.525-.726-8.265-10.771-17.093-9.958-9.4.852-3.066-3.254-13.186-8.137-1.653-.813-3.548-1.549-5.24-2.208M292.95,441.224c.645-7.515-.2-9.49-.4-16.195-.322-5.268,1.45-14.1,6.047-6.042,2.016,3.642,2.093,4.3,4.718,7.555,3.344,4.147-.276,4.777,1.249,12.243,1.056,5.165-.846,8.871-5.242,13.831-9.917,11-6.894-6.665-6.369-11.392M110.835,272.883c1.573,4.572-3.153,10.966-3.184,3.449-.01-2.013,1.411-4.881,3.184-3.449m-7.178-4.183c3.832,2.131,1.17,7.168-.844,5.927-5.444-3.409-9.273-3.214-14.03-6.353-4.8-3.177-4.439-10.729-4.031-15.885.839-10.611,3.828,1.784,5.886,5.114a24.833,24.833,0,0,0,13.02,11.2M257.27,108.61c-1.815-.7-3.5-1.377-5.282-2.208-7.125-3.317-10.8-8.524-3.709-5.229,7.74,3.561,13.265,4.455,20.684,7.4,4.394,1.665,7.62,1.936,8.307,6.973.523,3.644,10.641,6.858,6.207,9.958-3.143,2.168-4.112,5.7-6.612,6.043-12.781,1.707,10.765-11.118-19.594-22.937m81.764,124.175c3.952-2.4,7.34,3.759.809,2.79-2.218-.349-2.1-1.549-.809-2.79m41.811-53.894c1.653-.927,2.7,4.42.243,1.707a1.514,1.514,0,0,1-.243-1.707m-44.029-4.725c-3.265-1.434,1.572-7.827,2.7-2.634.4,1.936-1.089,2.595-2.7,2.634m38.546,11.276c3.668,4.919,13.3,18.44-.282,12.592-6.251-2.675-6.894-5.7-12.3-9.571-6.815-4.921-6.9-6.47-15.12-11.235-11.371-6.628,18.868,2.9,9.07-13.251-5.321-8.64-11.29-17.513,3.185-6.432,21.731,16.39,1.269,9.749,14.313,26.5.383.489.726.969,1.131,1.395m-66.04,58.115c-2.823,6.276-2.058,15.226-7.782,18.559-8.67,5-3.5-12.367-6.251-14.839-1.081-.975.807-1.938,2.34-3.719,15.159-18.442-13.709-3.68-1.9-15.3,5.122-5.116,19.894.687,14.354,13.444-.264.61-.525,1.237-.766,1.859m27.495-15.187c13.145,4.688,11.331-7.014,20.121,11.118,5.2,11.16-8.67,3.836-18.667,6.237-3.751.931-13.831,3.488-10.645-4.493,2.016-5.384,8.285-1.679,2.458-13.521-2.236-4.544,4.637-.156,6.732.659m4.477,35.566c3.386-1.085,12.456-1.667,15.8-.969,3.469.582,3.064-1.667,4.354-5.657.645-2.054,3.335-11.842,7.5-8.37,3.5,2.92-1.533,11.973,3.909,11.043,6.574-1.123,4.114-13.4,8.265-17.318,1.857-1.821,10.524-10.5,12.983-9.571.4,10.81-15.321,15.536-6.975,23.556,3.913,3.836,13.508,2.441,7.622.426-7.581-2.636-4.477-5.268-.483-10.927,6.489-9.3,7.659-11.235,20.682-5.811,12.3,5.231,8.971,10.87,18.346,19.525,7.277,6.726,5.12,5.815-3.429,4.031-6.894-1.472-22.7-7.012-25.36,2.131-2.66,8.251,2.987,3.139-6.452,9.337-3.423,2.251-13.263,12.126-16.286,5.077-1.776-3.99-1.079-6.13-7.9-4.108-9.508,2.82-20.926,10.384-30.117,0-2.3-2.518-6.251-10.189-2.46-12.4" transform="translate(-294.816 36.915)" fill="#f5f5f5" fill-rule="evenodd" opacity="0.57"/>
    </g>
    <g id="Enmascarar_grupo_1011292" data-name="Enmascarar grupo 1011292" transform="translate(600 8594.63)" clip-path="url(#clip-path-3)">
      <g id="Grupo_1013277" data-name="Grupo 1013277" transform="translate(49.556 58.858)">
        <g id="Grupo_1013275" data-name="Grupo 1013275" transform="translate(0)">
          <path id="Trazado_729597" data-name="Trazado 729597" d="M40.2,174.181S14.284,208.086,14.53,214.5,32.816,387.365,32.816,387.365l78.452-79.008s3.886-125.289-14.324-146.679-56.74,12.5-56.74,12.5Z" transform="translate(0.673 10.584)" fill="#211f1f"/>
          <path id="Trazado_729598" data-name="Trazado 729598" d="M215.866,378.856s27.856.021,35.318,27.6,7.59,116.489,7.59,116.489l-127.388,2.644s-23.874-117.9,27.3-155.233S215.866,378.856,215.866,378.856Z" transform="translate(8.528 24.777)" fill="#89c0da"/>
          <path id="Trazado_729599" data-name="Trazado 729599" d="M213.23,377.992s-29.516,12.89-44.686,8.1,6.627-13.821,6.627-13.821,47.009-12.836,38.07,5.706Z" transform="translate(11.164 25.641)" fill="#754040"/>
          <path id="Trazado_729600" data-name="Trazado 729600" d="M218.206,360.631,212.2,379.205l-34.43.343,3-9.143S218.537,333.706,218.206,360.631Z" transform="translate(12.194 24.428)" fill="#754040"/>
          <path id="Trazado_729601" data-name="Trazado 729601" d="M147.215,190.83s55.756,11.7,73.945,11.016,29.794-5.406,31.229,4.186S216.1,352.026,216.1,352.026L86.92,330.936,147.225,190.83Z" transform="translate(5.782 13.141)" fill="#218328"/>
          <g id="Grupo_1013274" data-name="Grupo 1013274" transform="translate(0)">
            <path id="Trazado_729602" data-name="Trazado 729602" d="M90.321,301.93s-54.439,5.257-63.614,46.313,20.2,49.107,20.2,49.107l86.224,17.6S153,373.5,179.746,372.492s-37.6-59.652-37.6-59.652" transform="translate(1.408 20.982)" fill="#e6ae15" stroke="#e2ab3f" stroke-miterlimit="10" stroke-width="0.62"/>
            <path id="Trazado_729603" data-name="Trazado 729603" d="M83.821,289.02s-10.342.728-9.528,4.711c.321,1.584,1.242,6.06,2.216,10.877,1.477,7.291,3.115,15.352,3.115,15.352s22.193,20.908,45.746,6.648l7.012-36.057-48.572-1.52Z" transform="translate(4.888 20.071)" fill="#e6ae15" stroke="#e2ab3f" stroke-miterlimit="10" stroke-width="0.62"/>
            <path id="Trazado_729604" data-name="Trazado 729604" d="M83.29,282.884l-.61,10.4s18.221,13.029,36.1,8.008l2.248-11.455S102.7,265.091,83.3,282.884Z" transform="translate(5.483 19.184)" fill="#cc736e" stroke="#cc736e" stroke-linecap="round" stroke-linejoin="round" stroke-width="1.25"/>
            <path id="Trazado_729605" data-name="Trazado 729605" d="M147.873,69.18s-37.438,45.232-35.136,70.9,16.391,17.782,8.811,29.783-5.353,17.932-5.353,17.932L145.4,199.415l36.389-2.034L147.862,69.18Z" transform="translate(7.597 4.556)" fill="#88452b"/>
            <path id="Trazado_729606" data-name="Trazado 729606" d="M127.252,291.593s.91,6.327,13.254,5.524,19.356-19.131,19.356-19.131-14.346,9.9-15.866-3.758,16.08-35.061,10.256-65.284-26.422-35.468-36.335-32.085-7.612,91.288-7.612,91.288L127.242,291.6Z" transform="translate(7.417 12.092)" fill="#c00d0b"/>
            <path id="Trazado_729607" data-name="Trazado 729607" d="M130.531,195.84s23.21,3.479,20.876,30.329-13.553,66.75-25.833,69.223-52.137-7.408-48.625-38.648c0,0-11.1-1.6-11.5-12.28s6.327-18.639,12.087-7.815l5.76,10.823s.632-27.792,6.873-30.7,35.864-7.034,40.361-20.919Z" transform="translate(4.266 13.495)" fill="#dd877f"/>
            <path id="Trazado_729608" data-name="Trazado 729608" d="M164.255,164.32s7.633,25.137,4.678,26.593-25.683,1.97-25.683,1.97,12.237,13.928,37.9,11.284,31.239-14.56,31.239-14.56l-14.774-1.456s-1.809-21.347-1.606-25.03-31.743,1.188-31.743,1.188Z" transform="translate(9.758 11.089)" fill="#dd877f"/>
            <path id="Trazado_729609" data-name="Trazado 729609" d="M149.382,80.621s-11.841,5.46-8.318,45.81,19.324,42.427,37.288,48.443c0,0,30.287-4.154,39.783-27.589l3.212-12.5s7.034-8.629,5.877-12.6-5.845-4.132-5.845-4.132l-.931-6.991s-40.767,1.2-53.657-12.365S149.382,80.61,149.382,80.61Z" transform="translate(9.557 5.363)" fill="#f9a69d"/>
            <path id="Trazado_729610" data-name="Trazado 729610" d="M40.08,123.356s2.9,23.649,11.53,39.708,34-3.287,34-3.287-4.721-9.86-5.364-18.2-40.254-29.6-40.157-18.232Z" transform="translate(2.477 8.148)" fill="#e9c5a2"/>
            <path id="Trazado_729611" data-name="Trazado 729611" d="M115.319,78.233s-7.109,24.356-5.663,45.039l-12.194-3.886-3.768,6.5s-10.888-4.946-14.913-14.164-8.168,5.321-.9,11.744a57.754,57.754,0,0,0,16.754,9.742S89.122,146.793,77.8,147.9s-31.4-7.515-37.3-22.022S35.036,96.3,35.036,96.3,26.8,90.93,28.1,80.845,34.533,56.179,40.486,63.32s6.177,13.147,6.177,13.147S59,48.567,70.012,47.818s45.2-8.051,45.307,30.415Z" transform="translate(1.621 2.976)" fill="#edcbaa"/>
            <path id="Trazado_729612" data-name="Trazado 729612" d="M183.63,275.773s-25.019,46.442-24.249,66.815,14.731,35.907,33.391,33.873,41.956-22.985,47.491-35.907c0,0,14.132-6.884,16.551-13.671s1.1-15.1-6.134-11.808-9.175,5.032-9.175,5.032,2.537-21.508,11.477-32.888c0,0-34.836-54.556-69.352-11.444Z" transform="translate(10.895 17.966)" fill="#754040"/>
            <path id="Trazado_729613" data-name="Trazado 729613" d="M115.341,428.425A33.023,33.023,0,0,0,114.6,420l-29.719,1.563-.953,7.548c7.869-.985,22.8-2.43,31.411-.685Z" transform="translate(5.571 29.315)" fill="#dd877f"/>
            <path id="Trazado_729614" data-name="Trazado 729614" d="M48.081,369.253S47.8,388.663,54.2,398.8c0,0-12.708-8.886-12.344.8s8.661,16.733,17.59,14.057a43.012,43.012,0,0,0,37.823,18.318c25.715-1.306,25.448-8.318,25.448-8.318s18.66-28.8,2.387-70.016c0,0-9.678-26.068-31.368-24.58s-47.459,10.149-45.66,40.189Z" transform="translate(2.602 22.893)" fill="#f9a69d"/>
            <path id="Trazado_729615" data-name="Trazado 729615" d="M123.928,89.618s14.538-4.893,14.335-19.27-4.582-15.213-4.582-15.213,6.83,3.758,6.531-4.261S133.317,27.717,104.786,25.1c0,0,2.034-17.14-15.684-16.808,0,0,9.368-.021,1.574-2.741s-30.3-13.917-30.469,8.168c0,0-40.939-12.172-37.759,27.846,0,0-18.821,6.734-18.275,21.09s6.1,11.145,6.1,11.145S-.612,77.895.394,86.888s7.869,13.425,10.534,13.318c0,0,.278,25.084,17.761,27.439s8.629,7.034,8.629,7.034,8.276-2.323,4.025-8.511c0,0-3.929-6.541-1.563-5.963s4.689.161,4.593-2.516c0,0-5.952,1.895-6.188-4.454s3.062-7.473,3.062-7.473-3.651.8-3.747-1.863,7.6-2.623,7.494-5.3c0,0-5.91,2.9-8,.974S30.51,87.1,33.529,78.623s13.179-14.217,14.3-2.205-3.875,12.526-3.875,12.526,8.725.674,8.993-10.042c0,0,2.045,9.956,15.93,5.428,0,0-5.877-5.128-6.092-10.813,0,0,1.552,5.631,9.218,5.01a19.777,19.777,0,0,1-5.952-15.834s7.794,11.412,16.712,8.4S97.891,55.134,97.891,55.134s6.2,22.514,19.388,26.368c0,0-2.494-3.918-.9-5.985,0,0,.407,10.7,7.558,14.1Z" transform="translate(-0.329 -0.305)" fill="#182059" stroke="#5b4e9b" stroke-miterlimit="10" stroke-width="0.62"/>
            <path id="Trazado_729616" data-name="Trazado 729616" d="M145.55,70.27s4.753,46.324,41.206,45.96,34.269,3.726,34.269,3.726,11.07.921-.043,16.733c0,0-2.141,23.167-25.148,34.066,0,0-1.831,22.482,1.606,25.03s54.471,7.323,54.471,7.323,11.22-21.829-2.966-43.38-10.277-33.07-9.924-59.181S205.9,29.192,145.55,70.27Z" transform="translate(9.92 3.466)" fill="#88452b"/>
            <path id="Trazado_729617" data-name="Trazado 729617" d="M131.836,197.456s-7.569-23.467-25.009-24.484-59.813,28.681-59.877,71.5,15.138,55.638,50.124,42.941c0,0-18.971-6.316-18.821-29.066,0,0-10.149-2.966-9.186-13.04s4.272-10.866,7.023-8.961,7.965,16.091,8.95,15.727-.824-30.747,6.423-33.7,37.427-1.071,40.361-20.919Z" transform="translate(2.962 11.879)" fill="#c21e1c"/>
            <path id="Trazado_729618" data-name="Trazado 729618" d="M255.695,316.34s9.25-29.783,8.019-35.768S256.5,257.758,235.29,254.2s-56.869,9.164-65.979-1.873c0,0-.578,20.095,22.728,26.24s29.291,4.925,29.291,4.925-10.31,1.724-18.018,1.349c0,0,26.743,8.361,45.328,4.314,0,0-8.425,16.037-7.847,31.411l.171,4.678s9.817-14.753,14.72-8.918Z" transform="translate(11.597 17.482)" fill="#c7c7c9"/>
            <path id="Trazado_729619" data-name="Trazado 729619" d="M165.516,312.014s4.282-1.831,5.621-1.884-.557,3.03,2.441,2.58,2.291-1.424,5.01-.193,10.716,9.3,13.725,9.185S203.3,320.29,203.3,320.29s-.589,2.034,2.109,2.6,12-1.124,13.746.824,5.535,4.807,8.532,4.368,8.929-2.676,10.342-.728,3.255,6.573,4.925,6.509.589,6.67.3,8.019-7.644,19.024-12.579,21.219l-.2-5.342s-14.41,17.268-23.36,19.281l.856-4.047s-12.718,8.843-17.729,9.025l1.542-3.4-5.492,5.224s-6.338.567-12.333-7.569l-.15,5.021s-4.828-3.833-5.139-12.183l-1.188,4.057s-4.785-2.826-7.5-12.761l-1.477,5.074a54.951,54.951,0,0,1-2.077-19.656L152.83,348.3s.353-26.111,12.686-36.271Z" transform="translate(10.434 21.561)" fill="#c7c7c9"/>
            <g id="Grupo_1013271" data-name="Grupo 1013271" transform="translate(34.074 339.441)">
              <path id="Trazado_729620" data-name="Trazado 729620" d="M117.122,433.463l.418-6.423s14.71-17.954,13.81-51.034c-.332-12.076-9.507-30.426-9.507-30.426s-36.785,9.41-64.234,17.8L51.357,366.3l-.2-5.342s-4.946,19.591,3.051,36.689c0,0-4.818-3.5-8.49-3.362s-5.128,5.877-2.612,10.47,10.031,8.661,16.348,7.751c0,0,13.222,13.553,28.1,17.675,0,0-.15,1.627-.418,4.165,7.569-.931,21.347-2.259,30-.867Z" transform="translate(-31.473 -315.378)" fill="none"/>
              <path id="Trazado_729621" data-name="Trazado 729621" d="M84.157,428.578c-.075.739-.161,1.552-.257,2.43,10.674,2.7,22.835,1.36,30.03.086l.214-3.394c-8.65-1.392-22.429-.064-30,.867Z" transform="translate(-28.505 -309.625)" fill="#dd877f"/>
              <path id="Trazado_729622" data-name="Trazado 729622" d="M135.524,346.415c-8.607-15.406-32.931-30.543-49.268-28.927s-27.589,4.721-45.35,39.5S37.92,464.5,37.92,464.5s41.934,3.1,44.568,2c1.884-.792,4-18,5.064-27.749l-.257-.064.3-2.345a1.628,1.628,0,0,0,.225-.032c.268-2.537.418-4.165.418-4.165-14.87-4.122-28.1-17.675-28.1-17.675-6.327.91-13.832-3.158-16.348-7.751s-1.06-10.331,2.612-10.47,8.49,3.362,8.49,3.362c-8.008-17.1-3.051-36.689-3.051-36.689l.2,5.342,6.252-2.912c27.45-8.393,64.234-17.8,64.234-17.8s9.175,18.35,9.507,30.426c.91,33.091-13.81,51.034-13.81,51.034l-.418,6.423c.407.064.8.139,1.188.214a16.437,16.437,0,0,1-.439,3.008c-.31.053-.642.118-.974.171L116.1,461.876l19.249-4.068,3.6-11.177c21.347-55-3.437-100.238-3.437-100.238Z" transform="translate(-32.157 -317.369)" fill="#211f1f"/>
              <path id="Trazado_729623" data-name="Trazado 729623" d="M83.96,428.511l-.3,2.345.257.064c.1-.878.182-1.691.257-2.43a1.618,1.618,0,0,0-.225.032Z" transform="translate(-28.522 -309.527)" fill="#bc3939"/>
            </g>
            <path id="Trazado_729624" data-name="Trazado 729624" d="M87.4,358.86s8.1,19.774,16.615,23.8c0,0-8.843,5.021-12.183,5.139C91.83,387.8,85.278,373.655,87.4,358.86Z" transform="translate(5.786 25)" fill="#dd877f"/>
            <path id="Trazado_729625" data-name="Trazado 729625" d="M102.423,397.942s-9.6,2.7-18.8-1.638-7.944,2.3-5.128,5.878,12.708,8.886,17.247,5.042" transform="translate(5.042 27.542)" fill="none" stroke="#8b0730" stroke-linecap="round" stroke-linejoin="round" stroke-width="1.25"/>
            <g id="Grupo_1013273" data-name="Grupo 1013273" transform="translate(84.309 457.526)">
              <path id="Trazado_729626" data-name="Trazado 729626" d="M83.674,430.692l-.214,1.649s28.413,5.289,30.79.289a10.428,10.428,0,0,0,.685-1.97c-7.087,1.317-20.052,2.933-31.271.021Z" transform="translate(-78.771 -427.459)" fill="#f9a69d"/>
              <g id="Grupo_1013272" data-name="Grupo 1013272">
                <path id="Trazado_729627" data-name="Trazado 729627" d="M113.362,427.884c-.385-.075-.782-.15-1.188-.214l-.214,3.394c.332-.053.664-.118.974-.171,3.3-.61,5.331-1.156,5.331-1.156a12.639,12.639,0,0,0-4.893-1.841Z" transform="translate(-76.76 -427.67)" fill="#bc3939"/>
                <path id="Trazado_729628" data-name="Trazado 729628" d="M84.262,431.283l.021-2.773c-3.169.4-5.2.717-5.2.717,1.081,1.049,3.5,1.627,5.182,2.066Z" transform="translate(-79.08 -427.611)" fill="#bc3939"/>
              </g>
            </g>
            <path id="Trazado_729629" data-name="Trazado 729629" d="M122.128,429.62s-31.561,5.867-41.506-.45l-4.036,26.25L57.08,461.5s26.015,6.712,49.3,3.169,24-11.273,24-11.273l-16.037.6s8.276-11.348,7.783-24.377Z" transform="translate(3.677 29.962)" fill="#ef4846"/>
            <path id="Trazado_729630" data-name="Trazado 729630" d="M118.34,411.947s47.94-15.609,91.855-12.825c67.093,4.261,92.787,65.284,5,68.5-20.105.739-42.823.118-61.141-9.271A36.147,36.147,0,0,1,138.51,442.8a23.962,23.962,0,0,1-2.655-11.295c.118-4.186,2.537-7.323,3.394-11.316,1.831-8.511-15.93-8.029-20.9-8.233Z" transform="translate(8 27.818)" fill="#ffedec"/>
            <path id="Trazado_729631" data-name="Trazado 729631" d="M200.563,288.12c.846,2.484-7.109,12.29-8.736,14.474a71.525,71.525,0,0,1-12.055,12.087c-3.447,2.816-10.524,6.274-10.8,11.305-.257,4.646,5.321,4.8,8.757,4.486,12.333-1.135,27.342-29.13,22.835-42.341Z" transform="translate(11.573 20.007)" fill="#663737"/>
            <path id="Trazado_729632" data-name="Trazado 729632" d="M190.8,333.52s14.281-2.88,19.7-1.071-7.269,11.316-14.421,7.9" transform="translate(13.114 23.094)" fill="none" stroke="#c16562" stroke-linecap="round" stroke-linejoin="round" stroke-width="1.25"/>
            <path id="Trazado_729633" data-name="Trazado 729633" d="M204.28,310.265s3.479-14.185,10.931-11.787,2,17.654,4.336,17.568" transform="translate(14.065 20.719)" fill="none" stroke="#4c2a2a" stroke-miterlimit="10" stroke-width="1.25"/>
            <path id="Trazado_729634" data-name="Trazado 729634" d="M184.325,303.267s3.522-13.179-.814-12.686-7.665,9.657-8.672,9.689" transform="translate(11.987 20.18)" fill="none" stroke="#4c2a2a" stroke-miterlimit="10" stroke-width="1.25"/>
            <path id="Trazado_729635" data-name="Trazado 729635" d="M98.21,364.6s12.483,2.88,20.63-3.115" transform="translate(6.579 25.185)" fill="none" stroke="#161313" stroke-miterlimit="10" stroke-width="1.25"/>
            <path id="Trazado_729636" data-name="Trazado 729636" d="M56.47,376.695s11.477,2.58,20.17-6.445" transform="translate(3.633 25.804)" fill="none" stroke="#161313" stroke-miterlimit="10" stroke-width="1.25"/>
            <path id="Trazado_729637" data-name="Trazado 729637" d="M176.6,342.51s-14.067,1.681-17.108-8.372c0,0,22.589-18.671,3.715-33.691s-73.73,18.639-68.024,36.089,32.481,20.951,54.985,5.128c0,0,7.665,9.432,26.422.846Z" transform="translate(6.337 20.612)" fill="#8374c1"/>
            <path id="Trazado_729638" data-name="Trazado 729638" d="M134,222.75s.535,32.1,6.68,44.247c0,0-26.7,10.706-6.68-44.247Z" transform="translate(8.58 15.394)" fill="#cc736e" stroke="#cc736e" stroke-linecap="round" stroke-linejoin="round" stroke-width="1.25"/>
            <path id="Trazado_729639" data-name="Trazado 729639" d="M122.673,249.768s-6.777,6.616-24.473-1.424a15.383,15.383,0,0,1,3.051-7.8" transform="translate(6.579 16.65)" fill="none" stroke="#4c2a2a" stroke-miterlimit="10" stroke-width="1.25"/>
            <path id="Trazado_729640" data-name="Trazado 729640" d="M117.153,251.594s.931-1.873-1.413-10.984" transform="translate(7.816 16.654)" fill="none" stroke="#4c2a2a" stroke-miterlimit="10" stroke-width="1.25"/>
            <path id="Trazado_729641" data-name="Trazado 729641" d="M141.7,241.2a26.653,26.653,0,0,1,1,8.661" transform="translate(9.649 16.696)" fill="none" stroke="#4c2a2a" stroke-miterlimit="10" stroke-width="1.25"/>
            <path id="Trazado_729642" data-name="Trazado 729642" d="M136.98,248.56s5.428,1.97,9.046.332" transform="translate(9.315 17.216)" fill="none" stroke="#4c2a2a" stroke-miterlimit="10" stroke-width="1.25"/>
            <path id="Trazado_729643" data-name="Trazado 729643" d="M125.715,268.72s-7.633-2.891-11.969-2.559-3.4,11.841,5.535,9.164" transform="translate(7.498 18.456)" fill="none" stroke="#b75a58" stroke-linecap="round" stroke-linejoin="round" stroke-width="1.25"/>
            <path id="Trazado_729644" data-name="Trazado 729644" d="M177.868,112.98s-10.609,29.173-2.569,29.537,8.147-5.663,2.569-29.537Z" transform="translate(11.807 7.647)" fill="#dd877f"/>
            <path id="Trazado_729645" data-name="Trazado 729645" d="M168.16,147.546s7.537,4.732,14.742.45,10.684-9.432,11.787-6.8-1.606,10.77-7.933,11.337" transform="translate(11.516 9.588)" fill="none" stroke="#8b0730" stroke-linecap="round" stroke-linejoin="round" stroke-width="1.25"/>
            <path id="Trazado_729646" data-name="Trazado 729646" d="M190.86,128.258s.9-11.744,6.241-11.948,6.466,11.8,7.451,11.434a19.692,19.692,0,0,0,2.944-1.788" transform="translate(13.118 7.882)" fill="none" stroke="#4c2a2a" stroke-miterlimit="10" stroke-width="1.25"/>
            <path id="Trazado_729647" data-name="Trazado 729647" d="M165.125,129.235s-1.777-11.648-7.119-11.444-5.556,12.258-6.573,11.958a19.643,19.643,0,0,1-3.073-1.552" transform="translate(10.119 7.986)" fill="none" stroke="#4c2a2a" stroke-miterlimit="10" stroke-width="1.25"/>
            <path id="Trazado_729648" data-name="Trazado 729648" d="M154.04,241.031s16.412.385,17.611-12.033,10.374-53.25,52.019-49.129,58.785,59.685,8.672,70.594-53.186-17.739-53.186-17.739-5.021,17.59-25.116,8.308Z" transform="translate(10.519 12.347)" fill="#89c0da"/>
            <path id="Trazado_729649" data-name="Trazado 729649" d="M215.806,129.64s6.734-19.249,3.533-24.313-33.916-3.758-36.228-26.582,19.035-48.647,66.1-36.335,46.816,77.916-7.655,72.349l-8.832-1.5s-2.12,11.594-16.915,16.38Z" transform="translate(12.559 2.442)" fill="#e6ae15" stroke="#e2ab3f" stroke-miterlimit="10" stroke-width="0.62"/>
            <path id="Trazado_729650" data-name="Trazado 729650" d="M93.516,97.985a.7.7,0,0,1-.5-.2.672.672,0,0,1,0-.942c3.34-3.265,4.336-12.055,4.347-12.14a.668.668,0,0,1,1.328.15c-.043.375-1.071,9.346-4.743,12.954a.711.711,0,0,1-.439.193Z" transform="translate(6.199 5.609)" fill="#4c2a2a"/>
            <path id="Trazado_729651" data-name="Trazado 729651" d="M97,99.817a.729.729,0,0,1-.214-.021c-5.171-1.51-13.65-9.335-14-9.667l-.321-.3.15-.418c.032-.075.707-1.916,3.779-4.132a.667.667,0,1,1,.782,1.081,11.263,11.263,0,0,0-3.1,3.115c1.7,1.531,8.822,7.783,13.1,9.025a.661.661,0,0,1,.45.824.675.675,0,0,1-.621.482Z" transform="translate(5.468 5.683)" fill="#4c2a2a"/>
            <path id="Trazado_729652" data-name="Trazado 729652" d="M110.737,76.16S92.944,101.254,92.88,117.313l12.194,3.886S106.423,94.724,110.737,76.16Z" transform="translate(6.203 5.049)" fill="#e9c5a2"/>
            <path id="Trazado_729653" data-name="Trazado 729653" d="M74.454,157.905,36.77,143.26l1.863,31.71s32.224,2.8,39.825,9.207l-4-26.283Z" transform="translate(2.243 9.784)" fill="#fbedeb"/>
            <path id="Trazado_729654" data-name="Trazado 729654" d="M74.17,158.117s6.156-14.281,8.49-14.367l10.074,18.692s-9.635,10.738-9.41,16.744c0,0-6.809-20.823-9.153-21.069Z" transform="translate(4.883 9.819)" fill="#fbedeb"/>
            <path id="Trazado_729655" data-name="Trazado 729655" d="M94.121,123.092l16.819,2.377a22.866,22.866,0,0,1,24.12-7.933c15.545,4.1,29.815,36.689,6.456,47.266S102.257,161.59,106.6,135l-12.494-11.9Z" transform="translate(6.29 7.908)" fill="#ffedec"/>
            <text id="hola_" data-name="hola!" transform="translate(212.377 78.266) rotate(13.97)" fill="#f9f7ed" font-size="37" font-family="Helvetica"><tspan x="0" y="0">hola!</tspan></text>
            <text id="hi_" data-name="hi!" transform="translate(122.725 154.732) rotate(13.97)" fill="#5b4e9b" font-size="29" font-family="Helvetica"><tspan x="0" y="0">hi!</tspan></text>
            <text id="salam_" data-name="salam!" transform="translate(113.662 360.74) rotate(-22.76)" fill="#e2ab3f" font-size="28" font-family="Helvetica" letter-spacing="-0.05em"><tspan x="0" y="0">salam!</tspan></text>
            <text id="guten_tag_" data-name="guten 
  tag!" transform="translate(196.705 227.005) rotate(-5.43)" fill="#ffedec" font-size="29" font-family="Helvetica"><tspan letter-spacing="-0.05em"><tspan x="0" y="0">gu</tspan><tspan y="0" letter-spacing="-0.06em">t</tspan><tspan y="0">en </tspan></tspan><tspan x="0" y="20" xml:space="preserve" letter-spacing="0.03em">  </tspan><tspan y="20">tag!</tspan></text>
          </g>
          <path id="Trazado_729656" data-name="Trazado 729656" d="M22.04,463.074s51.452-21.272,110.719-15.2c0,0,20.716-6.8,29.045,28.638C191.126,601.2,21.13,524.61,21.13,524.61l.9-61.547Z" transform="translate(1.139 31.205)" fill="#ef4846"/>
        </g>
        <g id="Grupo_1013276" data-name="Grupo 1013276" transform="translate(167.233 449.366)">
          <path id="Trazado_729657" data-name="Trazado 729657" d="M233.263,443.162c-.546-.032-.942-.064-1.338-.064-.739,0-.931-.492-.889-1.071.139-1.777.332-3.544.5-5.321a2.619,2.619,0,0,0,.021-.707c-.043-.2-.139-.471-.3-.546-.107-.053-.407.107-.525.257-.728.856-1.392,1.766-2.141,2.6-.257.289-.546,1.038-1.146.353-.428-.482-1.21-.835-.407-1.7,1.4-1.52,2.773-3.094,4.057-4.721a4.551,4.551,0,0,0,.728-2.013c.118-.707-.418-1-1.21-.792-.953.236-1.906.46-2.784.664-.15-.225-.214-.268-.225-.332-.268-1.82-.257-1.831,1.916-2.034.2-.021.407,0,.6-.011,1.649-.1,1.884-.332,1.981-1.959a25.632,25.632,0,0,0,.086-2.719c-.032-.7.225-.921.878-.824a5.085,5.085,0,0,1,1.092.128c.171.075.3.471.289.707-.064,1.124-.268,2.248-.236,3.372,0,.332.535.717.91.964.632.418.739.717.107,1.285a13.8,13.8,0,0,0-1.435,1.788c.1.118.2.236.3.353a8.206,8.206,0,0,0,1.028-.482,10.252,10.252,0,0,1,7.151-1.948,5.344,5.344,0,0,1,4.871,5.471c-.032,2.195-.31,4.293-2.355,5.535a41.943,41.943,0,0,1-4.967,2.452c-.824.364-.835-.557-1.06-.985a.641.641,0,0,1,.364-1.028,32.826,32.826,0,0,0,3.747-1.841,4.473,4.473,0,0,0,.9-6.68,4.067,4.067,0,0,0-4-1,11.81,11.81,0,0,0-5.16,2.666,2.552,2.552,0,0,0-.846,1.552c-.2,2.441-.289,4.893-.407,7.344-.021.364-.043.728-.064,1.263Z" transform="translate(-142.595 -419.896)" fill="#9d8cd4"/>
          <path id="Trazado_729658" data-name="Trazado 729658" d="M212.4,432.57a29.385,29.385,0,0,1,3.544-.931c2.441-.31,4.86-.343,6.787,1.638,1.831,1.874,1.392,6.745-2.259,7.59a18.152,18.152,0,0,1-7.066.4c-.139-.674-.278-1.392-.46-2.312,1.574.086,2.912.236,4.239.193a8.845,8.845,0,0,0,2.783-.578,2.624,2.624,0,0,0,1.659-2.58,2.968,2.968,0,0,0-2.612-2.494,9.6,9.6,0,0,0-7.28,2.034c-1.531,1.135-1.67,1.071-2.848-.557,1.263-1.542,1.692-3.447,2.248-5.3.021-.064.011-.128.032-.2q.375-1.6-1.349-1.638c-.567-.011-1.146-.075-1.713-.053-.717.032-.889-.31-.9-.974-.021-.792.246-1.092,1.038-1.006.9.086,1.82.032,2.719.128,1.071.128,1.435-.514,1.6-1.36.128-.7.128-1.4.236-2.1.107-.664.353-1.1,1.146-.6a9.035,9.035,0,0,0,1.413.589c-.3.91-.578,1.649-.792,2.42-.161.6.128.9.749.846,1.263-.118,2.516-.246,3.779-.353a3.835,3.835,0,0,1,.91-.021,5.478,5.478,0,0,1,.075,1.67c-.032.193-.492.4-.782.45a12.252,12.252,0,0,1-1.4.011c-1.156.064-2.312.118-3.458.236a.937.937,0,0,0-.707.46c-.46,1.37-.846,2.762-1.338,4.432Z" transform="translate(-143.97 -419.935)" fill="#9d8cd4"/>
          <path id="Trazado_729659" data-name="Trazado 729659" d="M167.091,437.072c-.7-.375-1.4-.76-1.991-1.071,2.88-4.818,5.674-9.517,8.479-14.207.054-.086.1-.182.15-.257.364-.525.889-1.542,1.071-1.488a9.316,9.316,0,0,1,2.077,1.167c-1.7,2.452-3.276,4.721-4.839,6.991a1.988,1.988,0,0,0-.182.621,2.713,2.713,0,0,0,.717.032c1.809-.471,3.319.021,3.779,1.349a9.433,9.433,0,0,1,.4,2.055c.128,1.092.171,2.195.289,3.287a1.467,1.467,0,0,0,2.184.974c1.584-.674,2.227-2.13,2.837-3.554.471-1.092.782-2.248,1.2-3.49a15.892,15.892,0,0,1,1.756.771.852.852,0,0,1,.257.76,17.553,17.553,0,0,1-2.537,5.578,5.687,5.687,0,0,1-6.092,1.916c-1.413-.5-1.734-1.831-1.916-3.137-.161-1.113-.2-2.248-.321-3.362-.118-1.2-1.156-1.67-2.409-1.2a6.46,6.46,0,0,0-3.169,3.051c-.61,1.006-1.124,2.077-1.734,3.222Z" transform="translate(-146.942 -420.048)" fill="#9d8cd4"/>
          <path id="Trazado_729660" data-name="Trazado 729660" d="M150.688,429.427c-.054.492-.107.953-.161,1.413-.193,1.884.321,2.516,2.216,2.634,2.452.15,4.893.268,7.344.4a16.4,16.4,0,0,0,1.916.086c1.038-.075,1.349.321,1.231,1.349-.086.76-.278,1.06-1.092,1.006-3.255-.2-6.509-.321-9.764-.535a4.346,4.346,0,0,1-3.511-1.756,4.877,4.877,0,0,1,.011-5.149c.546.171,1.1.343,1.809.557Z" transform="translate(-148.139 -419.426)" fill="#9d8cd4"/>
          <path id="Trazado_729661" data-name="Trazado 729661" d="M191.379,422.24a47.86,47.86,0,0,0-1.617,16.894c-.771-.043-1.456-.075-2.205-.118a.868.868,0,0,1-.107-.31c.032-3.083-.054-6.177.171-9.26.171-2.377.728-4.721,1.135-7.087.139-.771.61-1.081,1.37-.728.439.2.878.417,1.253.589Z" transform="translate(-145.364 -419.947)" fill="#9d8cd4"/>
          <path id="Trazado_729662" data-name="Trazado 729662" d="M161.716,423.552c-1.3-.064-2.527-.128-3.758-.193-2.409-.128-4.818-.289-7.237-.364-.889-.021-.985-.439-.91-1.135.075-.674-.032-1.306,1.071-1.22,3.212.236,6.423.364,9.646.525a1.2,1.2,0,0,1,1.3,1.413C161.812,422.867,161.759,423.156,161.716,423.552Z" transform="translate(-148.022 -420.007)" fill="#9d8cd4"/>
          <path id="Trazado_729663" data-name="Trazado 729663" d="M205.093,437.677c-3.683-.343-7.5.385-10.663-2.237a3.5,3.5,0,0,0-.4-.3c-.824-.535-.867-1.146-.214-1.852.182-.193.364-.375.557-.567a12.917,12.917,0,0,0,2.676,1.67,37.451,37.451,0,0,0,4.775,1.017,11.27,11.27,0,0,0,1.7.1q1.841.1,1.563,2.173Z" transform="translate(-144.947 -419.154)" fill="#9d8cd4"/>
          <path id="Trazado_729664" data-name="Trazado 729664" d="M204.546,424.495c.032.268.064.4.064.525,0,1.456,0,1.413-1.424,1.4-2.666-.032-5.331,0-7.986,0-.525,0-1.113.107-1.049-.782.064-.739.128-1.253,1.124-1.22,2.505.064,5.01,0,7.5,0,.567,0,1.135.054,1.777.086Z" transform="translate(-144.892 -419.74)" fill="#9d8cd4"/>
        </g>
      </g>
    </g>
  </g>
</svg>
