<svg xmlns="http://www.w3.org/2000/svg" xmlns:xlink="http://www.w3.org/1999/xlink" width="113" height="113" viewBox="0 0 113 113">
  <defs>
    <clipPath id="clip-path">
      <rect id="Rectángulo_344557" data-name="Rectángulo 344557" width="68.156" height="71.764" fill="none"/>
    </clipPath>
  </defs>
  <g id="Grupo_1013501" data-name="Grupo 1013501" transform="translate(-180 -8121)">
    <circle id="Elipse_5328" data-name="Elipse 5328" cx="56.5" cy="56.5" r="56.5" transform="translate(180 8121)" fill="#0098e8"/>
    <g id="Grupo_944421" data-name="Grupo 944421" transform="translate(202 8142)">
      <g id="Grupo_944420" data-name="Grupo 944420" clip-path="url(#clip-path)">
        <path id="Trazado_697245" data-name="Trazado 697245" d="M40.521,10.311,65.5,35.289a9.137,9.137,0,0,1,0,12.885L40.521,73.152a9.138,9.138,0,0,1-12.885,0L2.657,48.174a9.138,9.138,0,0,1,0-12.885L27.636,10.311a9.138,9.138,0,0,1,12.885,0" transform="translate(0 -4.887)" fill="#4e7c4c" fill-rule="evenodd"/>
        <path id="Trazado_697246" data-name="Trazado 697246" d="M48.047,75.584c-.062-.686-2.868-1.5-3.8.748a4.347,4.347,0,0,0,3.928,5.673c3.179.249,2.244-.312,2.244-.312Z" transform="translate(-28.09 -47.805)" fill="#e4ae7c" fill-rule="evenodd"/>
        <path id="Trazado_697247" data-name="Trazado 697247" d="M129.144,75.584c.063-.686,2.868-1.5,3.8.748a4.347,4.347,0,0,1-3.928,5.673c-3.179.249-2.244-.312-2.244-.312Z" transform="translate(-80.877 -47.805)" fill="#e4ae7c" fill-rule="evenodd"/>
        <path id="Trazado_697248" data-name="Trazado 697248" d="M48.953,141.319H23.3c-.3-13.118,9.8-20.733,18.463-23.575a44.623,44.623,0,0,0,.523-8.408H55.621a44.589,44.589,0,0,0,.523,8.408c8.666,2.841,18.759,10.457,18.462,23.575Z" transform="translate(-14.875 -69.823)" fill="#e4ae7c" fill-rule="evenodd"/>
        <path id="Trazado_697249" data-name="Trazado 697249" d="M89.182,109.337s-.036.941-.013,2.308c-2.532,6.363-10.4,7.079-13.314.265.032-1.508-.008-2.572-.008-2.572Z" transform="translate(-48.436 -69.823)" fill="#d67f54" fill-rule="evenodd"/>
        <path id="Trazado_697250" data-name="Trazado 697250" d="M73.936,156.327c.3-12.955-9.872-20.542-18.757-23.466-3.745,8.309-11.853,8.105-15.472-.023-8.9,2.906-19.132,10.5-18.828,23.489Z" transform="translate(-13.329 -84.831)" fill="#81261c" fill-rule="evenodd"/>
        <path id="Trazado_697251" data-name="Trazado 697251" d="M80.785,146.43q-.348-.275-.7-.538H67.387a8.143,8.143,0,0,1-.82.538Zm-20.918,0a8.152,8.152,0,0,1-.822-.538H46.262q-.355.263-.7.538Z" transform="translate(-29.094 -93.167)" fill="#6c1a0d" fill-rule="evenodd"/>
        <path id="Trazado_697252" data-name="Trazado 697252" d="M77.03,160.463c-.13-.182-.264-.361-.4-.538H32.408q-.2.266-.4.538Z" transform="translate(-20.441 -102.129)" fill="#6c1a0d" fill-rule="evenodd"/>
        <path id="Trazado_697253" data-name="Trazado 697253" d="M74.952,174.5q-.1-.271-.207-.538H24.723q-.107.267-.207.538Z" transform="translate(-15.656 -111.091)" fill="#6c1a0d" fill-rule="evenodd"/>
        <path id="Trazado_697254" data-name="Trazado 697254" d="M74.043,188.53c-.02-.181-.04-.36-.064-.538H21.3c-.024.178-.045.357-.065.538Z" transform="translate(-13.561 -120.052)" fill="#6c1a0d" fill-rule="evenodd"/>
        <path id="Trazado_697255" data-name="Trazado 697255" d="M30.768,161.826q-.277.392-.538.8v12.215h.538Z" transform="translate(-19.305 -103.343)" fill="#6c1a0d" fill-rule="evenodd"/>
        <path id="Trazado_697256" data-name="Trazado 697256" d="M44.8,147.231q-.271.213-.538.432v17.855H44.8Z" transform="translate(-28.266 -94.022)" fill="#6c1a0d" fill-rule="evenodd"/>
        <path id="Trazado_697257" data-name="Trazado 697257" d="M58.834,138.32q-.27.137-.538.28v21.228h.538Z" transform="translate(-37.228 -88.332)" fill="#6c1a0d" fill-rule="evenodd"/>
        <path id="Trazado_697258" data-name="Trazado 697258" d="M72.867,133.471c-.1-.206-.2-.416-.3-.632l-.238.079v23.41h.538Z" transform="translate(-46.19 -84.831)" fill="#6c1a0d" fill-rule="evenodd"/>
        <path id="Trazado_697259" data-name="Trazado 697259" d="M157.41,162.623q-.261-.405-.538-.8v13.013h.538Z" transform="translate(-100.179 -103.343)" fill="#6c1a0d" fill-rule="evenodd"/>
        <path id="Trazado_697260" data-name="Trazado 697260" d="M143.377,147.663c-.178-.146-.357-.289-.538-.432v18.287h.538Z" transform="translate(-91.217 -94.023)" fill="#6c1a0d" fill-rule="evenodd"/>
        <path id="Trazado_697261" data-name="Trazado 697261" d="M129.344,138.6c-.179-.1-.358-.189-.538-.28v21.508h.538Z" transform="translate(-82.256 -88.332)" fill="#6c1a0d" fill-rule="evenodd"/>
        <path id="Trazado_697262" data-name="Trazado 697262" d="M115.31,132.958l-.167-.056q-.179.4-.371.769v22.7h.538Z" transform="translate(-73.294 -84.872)" fill="#6c1a0d" fill-rule="evenodd"/>
        <path id="Trazado_697263" data-name="Trazado 697263" d="M87.237,139.671c-3.57,4.974-9.168,4.874-12.674-.024l-1.293.5,3.413,6.6v13.924h8.372V146.751l3.413-6.6Z" transform="translate(-46.79 -89.179)" fill="#261d1b" fill-rule="evenodd"/>
        <path id="Trazado_697264" data-name="Trazado 697264" d="M66.564,49.123c-16.542.4-24.894-40.4,0-39.351,24.894-1.045,16.542,39.748,0,39.351" transform="translate(-32.486 -6.228)" fill="#e4ae7c" fill-rule="evenodd"/>
        <path id="Trazado_697265" data-name="Trazado 697265" d="M74.758,63.715a1.482,1.482,0,1,1-2.072.332,1.478,1.478,0,0,1,2.072-.332" transform="translate(-46.238 -40.509)" fill="#20201e" fill-rule="evenodd"/>
        <path id="Trazado_697266" data-name="Trazado 697266" d="M108.844,63.715a1.482,1.482,0,1,0,2.072.332,1.478,1.478,0,0,0-2.072-.332" transform="translate(-69.115 -40.509)" fill="#20201e" fill-rule="evenodd"/>
        <path id="Trazado_697267" data-name="Trazado 697267" d="M67.586,78.1c.844.648.881,1.6.083,2.121a2.766,2.766,0,0,1-2.975-.227c-.845-.648-.881-1.6-.082-2.12a2.766,2.766,0,0,1,2.975.227" transform="translate(-40.893 -49.518)" fill="#da9077" fill-rule="evenodd"/>
        <path id="Trazado_697268" data-name="Trazado 697268" d="M113.822,78.1c-.845.648-.881,1.6-.082,2.121a2.765,2.765,0,0,0,2.975-.227c.845-.648.881-1.6.083-2.12a2.766,2.766,0,0,0-2.975.227" transform="translate(-72.267 -49.518)" fill="#da9077" fill-rule="evenodd"/>
        <path id="Trazado_697269" data-name="Trazado 697269" d="M72.059,52.5q-.082-.036-.167-.068A4.276,4.276,0,0,0,70,52.182a4.2,4.2,0,0,0-1.768.554c-.267.172-1.312,1.018-1.016,1.33a15.562,15.562,0,0,0,1.467-.6,4.158,4.158,0,0,1,1.365-.184,3.667,3.667,0,0,1,1.251.255c.012,0,.089.037.105.044.873.424.794.7,1.388.289.917-.488-.026-1.009-.733-1.377" transform="translate(-42.891 -33.313)" fill="#3f2716" fill-rule="evenodd"/>
        <path id="Trazado_697270" data-name="Trazado 697270" d="M105.917,52.5c.055-.024.11-.047.167-.068a4.277,4.277,0,0,1,1.893-.246,4.2,4.2,0,0,1,1.768.554c.268.172,1.312,1.018,1.016,1.33a15.562,15.562,0,0,1-1.467-.6,4.157,4.157,0,0,0-1.365-.184,3.667,3.667,0,0,0-1.251.255c-.012,0-.089.037-.106.044-.872.424-.793.7-1.388.289-.916-.488.026-1.009.733-1.377" transform="translate(-66.928 -33.313)" fill="#3f2716" fill-rule="evenodd"/>
        <path id="Trazado_697271" data-name="Trazado 697271" d="M82.422,88.621q2.287-.029,4.562-.029t4.562.029c0,2.392-2.359,3.246-4.554,3.246h-.016c-2.2,0-4.554-.854-4.554-3.246" transform="translate(-52.635 -56.575)" fill="#fff" fill-rule="evenodd"/>
        <path id="Trazado_697272" data-name="Trazado 697272" d="M91.988,101.009a.179.179,0,0,1,.181-.309,1.76,1.76,0,0,0,.875.217,1.68,1.68,0,0,0,.859-.216.179.179,0,0,1,.185.306,2.044,2.044,0,0,1-1.044.269,2.121,2.121,0,0,1-1.056-.267" transform="translate(-58.688 -64.292)" fill="#d67f54" fill-rule="evenodd"/>
        <path id="Trazado_697273" data-name="Trazado 697273" d="M93.6,71.35a.179.179,0,0,1,0-.359,8.746,8.746,0,0,0,1.342-.071c.327-.056.567-.144.567-.293,0-.516-.523-3.723-.524-3.733a.179.179,0,0,1,.353-.056c0,.009.529,3.25.529,3.789,0,.378-.367.561-.867.646a8.958,8.958,0,0,1-1.4.077" transform="translate(-59.661 -42.587)" fill="#d67f54" fill-rule="evenodd"/>
        <path id="Trazado_697274" data-name="Trazado 697274" d="M135.3,81.014a.179.179,0,1,1-.359,0,1.741,1.741,0,0,0-.246-1.073.427.427,0,0,0-.334-.166.98.98,0,0,0-.488.15,3.224,3.224,0,0,0-1.227,1.448,6.678,6.678,0,0,0-.306.832,1.272,1.272,0,0,1,.836-.242.792.792,0,0,1,.386.139.63.63,0,0,1,.241.338,1.174,1.174,0,0,1-.247.971.179.179,0,0,1-.3-.2.851.851,0,0,0,.2-.669.281.281,0,0,0-.107-.15.438.438,0,0,0-.213-.074.986.986,0,0,0-.765.322.385.385,0,0,1-.182.114.2.2,0,0,1-.259-.173l0-.01a.63.63,0,0,1,.005-.209,5.611,5.611,0,0,1,.38-1.132,3.615,3.615,0,0,1,1.378-1.617,1.335,1.335,0,0,1,.672-.2.773.773,0,0,1,.6.3,2.057,2.057,0,0,1,.327,1.3" transform="translate(-84.252 -50.716)" fill="#d67f54" fill-rule="evenodd"/>
        <path id="Trazado_697275" data-name="Trazado 697275" d="M47.685,81.014a.179.179,0,1,1-.359,0,2.052,2.052,0,0,1,.327-1.3.773.773,0,0,1,.6-.3,1.332,1.332,0,0,1,.672.2,3.611,3.611,0,0,1,1.378,1.617,5.588,5.588,0,0,1,.38,1.132.63.63,0,0,1,.005.209l0,.01a.2.2,0,0,1-.258.173.383.383,0,0,1-.183-.114.986.986,0,0,0-.765-.322.438.438,0,0,0-.213.074.279.279,0,0,0-.107.15.852.852,0,0,0,.2.669.179.179,0,0,1-.3.2,1.176,1.176,0,0,1-.248-.971.632.632,0,0,1,.241-.338.794.794,0,0,1,.386-.139,1.271,1.271,0,0,1,.836.242,6.679,6.679,0,0,0-.306-.832,3.225,3.225,0,0,0-1.227-1.448.982.982,0,0,0-.489-.15.427.427,0,0,0-.334.166,1.741,1.741,0,0,0-.246,1.073" transform="translate(-30.223 -50.716)" fill="#d67f54" fill-rule="evenodd"/>
        <path id="Trazado_697276" data-name="Trazado 697276" d="M60.859,10.361c0,7.963,5.723,6.437,9.165,8.306,2.582,1.4,2.207,1.565,2.919,4.429.653,2.629.89,6.754,1.235,8.165,5.193-12.858,7.355-18.87.317-24.523C70.287,3.357,67.289-3.35,60.84,2c-8.608-4.4-9.393,1.382-13.617,4.738-5.794,4.6-6.308,9.2-4.669,14.023.707,2.081,4.881,10.161,5.274,11.333.532-5.372.19-10.059,1.879-11.9,1.552-1.69,4.862-1.922,6.638-3.036,3.141-1.968,4.513-4.47,4.513-6.8" transform="translate(-26.658 0)" fill="#4e2c0b" fill-rule="evenodd"/>
        <path id="Trazado_697277" data-name="Trazado 697277" d="M73.991,40.005l0,.017v0l.011.08,0,.02v0l0,.018.009.059,0,.019v.007l0,.012,0,.019.005.038,0,.019v.022l.013.084v0l.014.087h0v.007l.013.079-.093-.6m0,0c-.261-1.855-.517-4.966-1.046-7.1-.712-2.864-.337-3.027-2.919-4.429-3.443-1.869-9.165-.342-9.165-8.306,0,2.329-1.373,4.831-4.513,6.8-1.776,1.113-5.086,1.346-6.638,3.036-1.689,1.839-1.347,6.525-1.879,11.9-.393-1.172-4.567-9.252-5.274-11.334a12.893,12.893,0,0,1-.757-5.481,10.823,10.823,0,0,0,3.509,1.122,10.021,10.021,0,0,0,5.648-.881c4.176-1.708,7.4-2.562,8.731-6.169s1.329-3.8,1.329-3.8A9.843,9.843,0,0,0,68.7,24.1a34.3,34.3,0,0,0,7.34,1.375,17.863,17.863,0,0,0,2.925-.688C80.083,30.574,77.1,33.845,74.21,41a.525.525,0,0,0-.031.077c-.01-.042-.02-.086-.03-.133v-.014l-.014-.066v-.006c-.005-.025-.01-.05-.015-.076h0L74.1,40.7V40.7h0Z" transform="translate(-26.659 -9.815)" fill="#452813" fill-rule="evenodd"/>
        <path id="Trazado_697278" data-name="Trazado 697278" d="M66.183,122.78l2.6,13.2c-.564-.836-2.091-2.815-3.529-2.815-.916,0-4.378,1.874-4.353,1.666.889-7.323,2.753-10.34,5.279-12.051" transform="translate(-38.893 -78.408)" fill="#632421" fill-rule="evenodd"/>
        <path id="Trazado_697279" data-name="Trazado 697279" d="M108.294,122.78l-2.6,13.2c.564-.836,2.091-2.815,3.529-2.815.916,0,4.378,1.874,4.352,1.666-.889-7.323-2.753-10.34-5.279-12.051" transform="translate(-67.495 -78.408)" fill="#632421" fill-rule="evenodd"/>
        <path id="Trazado_697280" data-name="Trazado 697280" d="M42.415,176.818a.268.268,0,0,1,.536,0l-.066,7.423a.268.268,0,0,1-.536,0Z" transform="translate(-27.044 -112.747)" fill="#581200" fill-rule="evenodd"/>
        <path id="Trazado_697281" data-name="Trazado 697281" d="M144.641,176.818a.268.268,0,1,1,.536,0l-.066,7.423a.268.268,0,0,1-.536,0Z" transform="translate(-92.326 -112.747)" fill="#581200" fill-rule="evenodd"/>
        <path id="Trazado_697282" data-name="Trazado 697282" d="M64.434,17.048a.179.179,0,0,1,.352.067,10.668,10.668,0,0,1-1.836,4.451,9.7,9.7,0,0,1-5.024,3.373c-4.79,1.533-6.539,1.145-6.544,1.144a.179.179,0,1,1,.071-.35c.005,0,1.664.37,6.363-1.134a9.346,9.346,0,0,0,4.846-3.247,10.316,10.316,0,0,0,1.771-4.3" transform="translate(-32.721 -10.794)" fill="#5e422e" fill-rule="evenodd"/>
        <path id="Trazado_697283" data-name="Trazado 697283" d="M50,18.581a.179.179,0,1,1-.319-.16,7.575,7.575,0,0,1,2.385-2.657,17.96,17.96,0,0,1,3.541-1.936c1.381-.588,2.026-1.938,2.61-3.16a4.868,4.868,0,0,1,1.692-2.338c1.756-.953,4.494.856,4.5.861a.179.179,0,0,1-.2.3c-.008-.005-2.569-1.7-4.134-.847a4.649,4.649,0,0,0-1.541,2.178c-.612,1.28-1.288,2.693-2.793,3.335a17.6,17.6,0,0,0-3.47,1.9A7.229,7.229,0,0,0,50,18.581" transform="translate(-31.715 -5.143)" fill="#5e422e" fill-rule="evenodd"/>
        <path id="Trazado_697284" data-name="Trazado 697284" d="M100.348,17.115a.179.179,0,1,1,.352-.067,10.322,10.322,0,0,0,1.771,4.3,9.346,9.346,0,0,0,4.846,3.247c4.7,1.5,6.358,1.135,6.363,1.134a.179.179,0,0,1,.071.351s-1.753.389-6.544-1.144a9.693,9.693,0,0,1-5.024-3.373,10.672,10.672,0,0,1-1.835-4.451" transform="translate(-64.081 -10.794)" fill="#5e422e" fill-rule="evenodd"/>
        <path id="Trazado_697285" data-name="Trazado 697285" d="M113.187,18.421a.179.179,0,1,1-.319.16,7.229,7.229,0,0,0-2.277-2.528,17.589,17.589,0,0,0-3.47-1.9c-1.5-.641-2.18-2.054-2.793-3.334a4.653,4.653,0,0,0-1.541-2.178c-1.566-.85-4.128.842-4.135.847a.179.179,0,0,1-.2-.3c.008-.005,2.746-1.814,4.5-.862a4.869,4.869,0,0,1,1.692,2.338c.584,1.222,1.229,2.571,2.61,3.159a17.954,17.954,0,0,1,3.541,1.936,7.579,7.579,0,0,1,2.385,2.657" transform="translate(-62.822 -5.144)" fill="#5e422e" fill-rule="evenodd"/>
      </g>
    </g>
  </g>
</svg>
