<svg xmlns="http://www.w3.org/2000/svg" xmlns:xlink="http://www.w3.org/1999/xlink" width="100" height="99" viewBox="0 0 100 99">
  <defs>
    <filter id="Elipse_7694" x="0" y="0" width="100" height="99" filterUnits="userSpaceOnUse">
      <feOffset dy="3" input="SourceAlpha"/>
      <feGaussianBlur stdDeviation="3" result="blur"/>
      <feFlood flood-opacity="0.161"/>
      <feComposite operator="in" in2="blur"/>
      <feComposite in="SourceGraphic"/>
    </filter>
  </defs>
  <g id="Grupo_1013495" data-name="Grupo 1013495" transform="translate(-197.5 -1119)">
    <g transform="matrix(1, 0, 0, 1, 197.5, 1119)" filter="url(#Elipse_7694)">
      <ellipse id="Elipse_7694-2" data-name="Elipse 7694" cx="41" cy="40.5" rx="41" ry="40.5" transform="translate(9 6)" fill="#0098e8"/>
    </g>
    <g id="escuchando" transform="translate(216.626 1130.627)">
      <g id="Grupo_1006149" data-name="Grupo 1006149" transform="translate(1.159 1.159)">
        <g id="Grupo_1006139" data-name="Grupo 1006139" transform="translate(4.637 24.344)">
          <path id="Trazado_715794" data-name="Trazado 715794" d="M16.593,34.752V38.23l-1.159.081A16.047,16.047,0,0,0,6.623,41.7,13.749,13.749,0,0,1,5,35.2V22a3.483,3.483,0,0,0,3.478,3.478H9.649A10.166,10.166,0,0,0,16.593,34.752Z" transform="translate(-5 -22)" fill="#b27946"/>
        </g>
        <g id="Grupo_1006140" data-name="Grupo 1006140" transform="translate(4.637)">
          <path id="Trazado_715795" data-name="Trazado 715795" d="M32.729,17.23a7.69,7.69,0,0,1,.093,1.159L30.886,17.9A23.052,23.052,0,0,0,25.4,17.23H23.351a11.9,11.9,0,0,1-6.967-2.249l-4.37,1.461a3.467,3.467,0,0,0-2.376,3.292v2.133H8.478A3.473,3.473,0,0,0,5,25.344V17.23a16.23,16.23,0,1,1,32.459,0Z" transform="translate(-5 -1)" fill="#b27946"/>
        </g>
        <g id="Grupo_1006141" data-name="Grupo 1006141" transform="translate(0 40.574)">
          <path id="Trazado_715796" data-name="Trazado 715796" d="M33.459,48.752H29.1a10.982,10.982,0,0,0-4.915,1.159,10.982,10.982,0,0,0-4.915-1.159h-9v16.23H7.956A6.961,6.961,0,0,1,1,58.026v-5.75A16.237,16.237,0,0,1,16.07,36.081L17.23,36l.058.174a4.836,4.836,0,0,0,4.579,3.3,4.785,4.785,0,0,0,2.817-.916,4.9,4.9,0,0,0,1.762-2.388L26.5,36h.591a23.715,23.715,0,0,1,15.824,6.04l-1.264,6.33a3.465,3.465,0,0,0-.081.777v.185L38.1,51.07V49.911a1.163,1.163,0,0,0-1.159-1.159Z" transform="translate(-1 -36)" fill="#fcd770"/>
        </g>
        <g id="Grupo_1006142" data-name="Grupo 1006142" transform="translate(9.274 53.326)">
          <path id="Trazado_715797" data-name="Trazado 715797" d="M22.911,48.159V63.23H13.637a4.637,4.637,0,1,0,0-9.274H9V47h9A10.982,10.982,0,0,1,22.911,48.159Z" transform="translate(-9 -47)" fill="#e6e9ed"/>
        </g>
        <g id="Grupo_1006143" data-name="Grupo 1006143" transform="translate(23.185 53.326)">
          <path id="Trazado_715798" data-name="Trazado 715798" d="M34.911,53.955V62.07a1.163,1.163,0,0,1-1.159,1.159H21V48.159A10.982,10.982,0,0,1,25.915,47h7.837a1.163,1.163,0,0,1,1.159,1.159v5.8Z" transform="translate(-21 -47)" fill="#e6e9ed"/>
        </g>
        <g id="Grupo_1006144" data-name="Grupo 1006144" transform="translate(9.274 60.281)">
          <path id="Trazado_715799" data-name="Trazado 715799" d="M16.918,54.356a4.64,4.64,0,0,1-3.281,7.918H9V53h4.637A4.666,4.666,0,0,1,16.918,54.356Z" transform="translate(-9 -53)" fill="#f0d0b4"/>
        </g>
        <g id="Grupo_1006145" data-name="Grupo 1006145" transform="translate(37.096 25.504)">
          <path id="Trazado_715800" data-name="Trazado 715800" d="M37.637,30.164V27.637a4.644,4.644,0,0,1,.742-2.516,4.338,4.338,0,0,1,.614-.765,4.64,4.64,0,0,1,7.918,3.281V52.086a8.008,8.008,0,0,1-12.45,6.666L33,57.778V53.141L36.478,51.4v-.185a3.465,3.465,0,0,1,.081-.777l1.264-6.33.974-4.88a7.845,7.845,0,0,1-3.478-6.5V31.115a1.163,1.163,0,0,1,1.159-1.159Z" transform="translate(-33 -23)" fill="#f0d0b4"/>
        </g>
        <g id="Grupo_1006146" data-name="Grupo 1006146" transform="translate(32.088 16.23)">
          <path id="Trazado_715801" data-name="Trazado 715801" d="M29.051,16.159A7.691,7.691,0,0,0,28.958,15h4.73a6.956,6.956,0,1,1,0,13.911H28.68a9.91,9.91,0,0,0,.371-2.689V16.159Z" transform="translate(-28.68 -15)" fill="#f0d0b4"/>
        </g>
        <g id="Grupo_1006147" data-name="Grupo 1006147" transform="translate(9.274 13.981)">
          <path id="Trazado_715802" data-name="Trazado 715802" d="M32.185,23.424V26.53a9.91,9.91,0,0,1-.371,2.689,10.176,10.176,0,0,1-6.585,6.956v3.478l-.058.174a4.9,4.9,0,0,1-1.762,2.388,4.785,4.785,0,0,1-2.817.916,4.836,4.836,0,0,1-4.579-3.3l-.058-.174V36.175A10.166,10.166,0,0,1,9.012,26.9C9,26.774,9,26.658,9,26.53V17.813a3.467,3.467,0,0,1,2.376-3.292l4.37-1.461a11.9,11.9,0,0,0,6.967,2.249h2.052a23.052,23.052,0,0,1,5.483.672l1.936.487Z" transform="translate(-9 -13.06)" fill="#f0d0b4"/>
        </g>
        <g id="Grupo_1006148" data-name="Grupo 1006148" transform="translate(4.637 20.867)">
          <path id="Trazado_715803" data-name="Trazado 715803" d="M9.637,25.585c0,.128,0,.243.012.371H8.478a3.478,3.478,0,1,1,0-6.956H9.637Z" transform="translate(-5 -19)" fill="#f0d0b4"/>
        </g>
      </g>
      <g id="Grupo_1006150" data-name="Grupo 1006150" transform="translate(0)">
        <path id="Trazado_715806" data-name="Trazado 715806" d="M32,17v2.319h1.159a2.319,2.319,0,0,1,0,4.637H32v2.319h1.159a4.637,4.637,0,0,0,0-9.274Z" transform="translate(5.096 2.707)"/>
        <path id="Trazado_715807" data-name="Trazado 715807" d="M47.529,25.5a5.781,5.781,0,0,0-1.275.152,8.014,8.014,0,0,0,.116-1.311,8.12,8.12,0,0,0-7.01-8.03A17.378,17.378,0,0,0,4.637,17.389V38.713A15,15,0,0,0,6.006,44.9,17.381,17.381,0,0,0,0,58v5.755a8.125,8.125,0,0,0,8.115,8.115H37.1a2.321,2.321,0,0,0,2.319-2.319V63.572a9.138,9.138,0,0,0,13.911-7.821V31.3A5.8,5.8,0,0,0,47.529,25.5Zm-8.115,9.274v1.617a8.943,8.943,0,0,0,3.356,6.995l-.452,2.263a24.858,24.858,0,0,0-14.5-5.072V39.059a11.3,11.3,0,0,0,6.254-6.6h4.178a8.063,8.063,0,0,0,3.478-.794v.793a2.321,2.321,0,0,0-2.319,2.319ZM26.3,37.156l-.793.263v4.126a3.665,3.665,0,0,1-6.956,0V37.419l-.793-.264A9,9,0,0,1,11.593,28.6V19.9a2.315,2.315,0,0,1,1.586-2.2l3.861-1.288a13.1,13.1,0,0,0,7.109,2.14H26.2a21.49,21.49,0,0,1,5.2.64l1.058.265v9.152A9,9,0,0,1,26.3,37.156ZM44.052,24.344a5.8,5.8,0,0,1-5.8,5.8H34.663a11.405,11.405,0,0,0,.115-1.536V26.339l2.685-.895-.734-2.2-1.951.649V18.548h3.478a5.8,5.8,0,0,1,5.8,5.8ZM22.026,2.319A15.081,15.081,0,0,1,37.037,16.23H34.461a8.609,8.609,0,0,0-4.472-5.43l-.489-.245-1.038,2.074.489.245a6.3,6.3,0,0,1,3.322,4.143l-.313-.078A23.769,23.769,0,0,0,26.2,16.23H24.148A10.835,10.835,0,0,1,14.9,11l-1.988,1.193a12.922,12.922,0,0,0,1.965,2.495l-2.437.813a4.634,4.634,0,0,0-3.171,4.4v.971a4.589,4.589,0,0,0-2.319.645V17.389a15.088,15.088,0,0,1,15.07-15.07ZM6.956,25.5a2.321,2.321,0,0,1,2.319-2.319v4.637A2.321,2.321,0,0,1,6.956,25.5Zm0,13.21V29.5a4.589,4.589,0,0,0,2.319.645h.115a11.307,11.307,0,0,0,6.841,8.917v1.6l-.079.006A17.222,17.222,0,0,0,7.9,43.472,12.671,12.671,0,0,1,6.956,38.713Zm4.637,30.842V62.6H15.07a3.478,3.478,0,0,1,0,6.956Zm7.841-13.911a9.852,9.852,0,0,1,3.751.763V69.555H19.677a5.736,5.736,0,0,0,1.189-3.478,5.8,5.8,0,0,0-5.8-5.8H11.593V55.644ZM37.1,69.555H25.5V56.407a9.852,9.852,0,0,1,3.751-.763H37.1Zm-2.319-16.23v-.679a2.78,2.78,0,0,1,.82-1.979l-1.639-1.639a5.082,5.082,0,0,0-1.5,3.618v.679h-3.2a12.213,12.213,0,0,0-4.911,1.039,12.213,12.213,0,0,0-4.911-1.039H11.546a5.055,5.055,0,0,0-1.453-3.138L8.454,51.827a2.782,2.782,0,0,1,.82,1.979v6.476H8.595a5.082,5.082,0,0,0-3.618,1.5l1.639,1.639a2.782,2.782,0,0,1,1.979-.82h.679v6.956H8.115a5.8,5.8,0,0,1-5.8-5.8V58a15.126,15.126,0,0,1,14-15.033l.318-.023A5.959,5.959,0,0,0,27.439,42.9,22.545,22.545,0,0,1,41.8,48.224l-1.13,5.65c-.029.147-.028.3-.044.446l-1.323.661A2.314,2.314,0,0,0,37.1,53.326Zm16.23,2.425a6.849,6.849,0,0,1-10.648,5.7l-.945-.629v-3.3l1.447-.723a5.057,5.057,0,0,0,1.211,1.986l1.639-1.639a2.782,2.782,0,0,1-.82-1.979v-.287a2.81,2.81,0,0,1,.054-.548l2.394-11.97-.647-.43a6.638,6.638,0,0,1-2.961-5.533V34.778A2.321,2.321,0,0,1,44.052,37.1v.48l1.5,1.5,1.639-1.639-.846-.847a4.635,4.635,0,0,0-2.292-3.5V31.3a3.478,3.478,0,0,1,6.956,0Z" transform="translate(0)"/>
        <path id="Trazado_715808" data-name="Trazado 715808" d="M50.687,18.788A5.976,5.976,0,0,0,46.6,13.11l-.179-.059-.731,2.2.177.059a3.666,3.666,0,0,1,0,6.956l-.179.059.731,2.2.18-.06a5.974,5.974,0,0,0,4.091-5.677Z" transform="translate(7.275 2.078)"/>
        <path id="Trazado_715809" data-name="Trazado 715809" d="M57.318,19.586A11.966,11.966,0,0,0,48.676,8.128l-.313-.089-.639,2.229.314.089a9.6,9.6,0,0,1,0,18.458l-.313.089.639,2.229.312-.089A11.966,11.966,0,0,0,57.318,19.586Z" transform="translate(7.6 1.28)"/>
        <path id="Trazado_715810" data-name="Trazado 715810" d="M53.953,3.855,52.64,3.126,51.514,5.152l1.313.729a16.573,16.573,0,0,1,0,28.974l-1.313.729,1.126,2.026,1.313-.729a18.891,18.891,0,0,0,0-33.027Z" transform="translate(8.204 0.498)"/>
      </g>
    </g>
  </g>
</svg>
