<svg xmlns="http://www.w3.org/2000/svg" xmlns:xlink="http://www.w3.org/1999/xlink" width="100" height="99" viewBox="0 0 100 99">
  <defs>
    <filter id="Elipse_7777" x="0" y="0" width="100" height="99" filterUnits="userSpaceOnUse">
      <feOffset dy="3" input="SourceAlpha"/>
      <feGaussianBlur stdDeviation="3" result="blur"/>
      <feFlood flood-opacity="0.161"/>
      <feComposite operator="in" in2="blur"/>
      <feComposite in="SourceGraphic"/>
    </filter>
  </defs>
  <g id="Grupo_1013496" data-name="Grupo 1013496" transform="translate(-617.5 -1119)">
    <g transform="matrix(1, 0, 0, 1, 617.5, 1119)" filter="url(#Elipse_7777)">
      <ellipse id="Elipse_7777-2" data-name="Elipse 7777" cx="41" cy="40.5" rx="41" ry="40.5" transform="translate(9 6)" fill="#0098e8"/>
    </g>
    <g id="bilingue_3_" data-name="bilingue (3)" transform="translate(631.322 1126.661)">
      <g id="Grupo_1006162" data-name="Grupo 1006162" transform="translate(1.292 1.166)">
        <g id="Grupo_1006159" data-name="Grupo 1006159" transform="translate(0 0.201)">
          <path id="Trazado_715836" data-name="Trazado 715836" d="M15.212,12.976l.163,11.206a1.992,1.992,0,0,0,2,1.987l6.269.2a1.337,1.337,0,0,1,.781.252L28.7,30.242a.666.666,0,0,0,1.056-.536l.27-1.749a1.328,1.328,0,0,1,1.331-1.325l2.069-.008c1.1,0,2.189-.262,2.189-1.359V11.49a1.992,1.992,0,0,0-2-1.987H16.312c-1.1,0-1.1,2.375-1.1,3.473Z" transform="translate(-14.315 -9.503)" fill="#faf8f8"/>
          <path id="Trazado_715837" data-name="Trazado 715837" d="M30.284,25.023v.24a1.992,1.992,0,0,1-2,1.986h-1.6a1.328,1.328,0,0,0-1.331,1.325v2.279a.666.666,0,0,1-1.057.536L18.906,27.5a1.338,1.338,0,0,0-.782-.252H10.978a1.992,1.992,0,0,1-2-1.986V11.488a1.992,1.992,0,0,1,2-1.988h.229V24.466a.557.557,0,0,0,.557.557h6.36a3.564,3.564,0,0,1,2.083.673L22.7,27.489a.447.447,0,0,0,.677-.206,3.565,3.565,0,0,1,3.315-2.26Z" transform="translate(-8.981 -9.5)" fill="#f0e9e6"/>
        </g>
        <g id="Grupo_1006160" data-name="Grupo 1006160" transform="translate(50.06)">
          <path id="Trazado_715838" data-name="Trazado 715838" d="M381.4,10.093V23.207l-.836.793c0,1.1-1.247,1.263-2.345,1.263l-6-.045a1.326,1.326,0,0,0-.777.252l-4.949,3.437a.662.662,0,0,1-1.051-.536l.465-1.653a1.325,1.325,0,0,0-1.325-1.325h-1.59a1.987,1.987,0,0,1-1.987-1.987l-.24-12.3c0-1.1.436-2.255,1.533-2.255l.554-.743h16.558a1.987,1.987,0,0,1,1.987,1.987Z" transform="translate(-360.204 -8.106)" fill="#faf8f8"/>
          <path id="Trazado_715839" data-name="Trazado 715839" d="M378.053,23.207v.662a1.987,1.987,0,0,1-1.987,1.987h-7.11a1.325,1.325,0,0,0-.776.252L362.811,30a.662.662,0,0,1-1.05-.536V27.181a1.325,1.325,0,0,0-1.325-1.325h-1.59a1.987,1.987,0,0,1-1.987-1.987V10.093a1.987,1.987,0,0,1,1.987-1.987h.662V22.942a.265.265,0,0,0,.265.265h.662a3.976,3.976,0,0,1,3.517,2.126.4.4,0,0,0,.586.14l2.085-1.511a3.952,3.952,0,0,1,2.331-.755Z" transform="translate(-356.859 -8.106)" fill="#f0e9e6"/>
        </g>
        <g id="Grupo_1006161" data-name="Grupo 1006161" transform="translate(10.364 12.806)">
          <path id="Trazado_715840" data-name="Trazado 715840" d="M217.036,347.274,213,342.59l-.16-1.54-2.047-5.488h-11.8l.875,6.888-2.766,9.3Z" transform="translate(-180.393 -301.246)" fill="#f2d1a5"/>
          <path id="Trazado_715841" data-name="Trazado 715841" d="M204.373,341.048l-.553-5.311-13.294-.177-.7,5.984-2.616,4.358,1.423,5.852,2.956-.665c.017-.146.683-5.84.923-7.893a.574.574,0,0,1,.751-.48,11.914,11.914,0,0,0,3.846.661A13.539,13.539,0,0,0,204.373,341.048Z" transform="translate(-171.929 -301.245)" fill="#f2bb88"/>
          <path id="Trazado_715842" data-name="Trazado 715842" d="M185.381,399a11.087,11.087,0,0,0,15.311.085l4.828,6.173-1.491,7.532-2.178,1.664H184.211l-1.764-1.481,1.176-12.639Z" transform="translate(-167.848 -355.556)" fill="#b27a49"/>
          <path id="Trazado_715843" data-name="Trazado 715843" d="M103.209,416.932v-2.9l-2.136-2.544-1.068-9.6-4.842,2.29a8.118,8.118,0,0,0-6.038,6.515l-1.274,4.115a1.439,1.439,0,0,0,1.418,1.685l.519.433h13.421Z" transform="translate(-86.846 -358.034)" fill="#ffbf54"/>
          <path id="Trazado_715844" data-name="Trazado 715844" d="M317.3,423.153v-2.9l.876-2.3,4.269-6.829,1.625-1.972,2.346.726a8.876,8.876,0,0,1,6.156,6.981l1.09,6.286Z" transform="translate(-283.292 -364.255)" fill="#ffbf54"/>
          <path id="Trazado_715845" data-name="Trazado 715845" d="M154.093,220.3h.847a3.675,3.675,0,0,1,3.67,3.681,5.07,5.07,0,0,1-5.062,5.077H124.316a5.07,5.07,0,0,1-5.062-5.077,3.676,3.676,0,0,1,3.67-3.681h31.17Z" transform="translate(-113.749 -202.571)" fill="#f2bb88"/>
          <path id="Trazado_715846" data-name="Trazado 715846" d="M94.158,401.89l-5.9,1.78a8.874,8.874,0,0,0-6.175,6.986L81,416.929H83.94l.981-5.781a5.958,5.958,0,0,1,3.846-4.612.432.432,0,0,1,.578.457q-.076.642-.095,1.308a2.882,2.882,0,0,0,1.652,2.691l6.458,3.039v-2.544Z" transform="translate(-80.999 -358.03)" fill="#ffa442"/>
          <path id="Trazado_715847" data-name="Trazado 715847" d="M161.679,377.143,160.141,390.3l-5.479-2.578a.579.579,0,0,1-.331-.542C154.44,383.414,156.178,379.435,161.679,377.143Z" transform="translate(-143.779 -336.844)" fill="#c48958"/>
          <path id="Trazado_715848" data-name="Trazado 715848" d="M325.41,403.861a2.882,2.882,0,0,1-1.652,2.69l-6.458,3.039v-2.544l.973-10.345,5.8,1.793A11.906,11.906,0,0,1,325.41,403.861Z" transform="translate(-283.296 -353.587)" fill="#ffa442"/>
          <path id="Trazado_715849" data-name="Trazado 715849" d="M307.185,382.044,308.64,394.5l5.479-2.578a.579.579,0,0,0,.331-.541C314.346,387.654,312.685,384.336,307.185,382.044Z" transform="translate(-274.636 -341.04)" fill="#c48958"/>
          <path id="Trazado_715850" data-name="Trazado 715850" d="M150.641,123.036a22.6,22.6,0,0,1,2.7-11.429c2.546-4.363,12.349-5.628,12.349-5.628s10.323,1.444,12.834,6.087a23.02,23.02,0,0,1,2.441,10.97c0,6.44-.125,9.135-2.746,12.775-3.615,5.021-8.118,8.431-12.416,8.431s-8.8-3.41-12.416-8.431c-2.621-3.64-2.745-6.335-2.745-12.775Z" transform="translate(-140.619 -104.701)" fill="#f2d1a5"/>
          <path id="Trazado_715851" data-name="Trazado 715851" d="M190.357,105.563c-2.973-3.551-7.487-5.585-13.263-5.585s-10.29,2.033-13.263,5.585a14.625,14.625,0,0,1,26.527,0Z" transform="translate(-151.91 -97.1)" fill="#f2bb88"/>
        </g>
      </g>
      <g id="Grupo_1006163" data-name="Grupo 1006163" transform="translate(0 0)">
        <path id="Trazado_715854" data-name="Trazado 715854" d="M112.274,111.669a6.141,6.141,0,0,0,5.271,6.077,13.6,13.6,0,0,0,1.811,3.706,1.105,1.105,0,0,0,1.5.292,1.079,1.079,0,0,0,.292-1.5c-2.444-3.779-2.119-6.277-2.215-11.641,0-10.6,5.374-17.185,14.024-17.185a12.945,12.945,0,0,1,8.843,3.1,1.079,1.079,0,0,0,1.427-1.62,15.24,15.24,0,0,0-10.27-3.637A14.819,14.819,0,0,0,121,94.662c-2.488,3.068-3.92,7.284-4.18,12.265A4.747,4.747,0,0,0,112.274,111.669Zm2.159,0a2.586,2.586,0,0,1,2.341-2.576,48.848,48.848,0,0,0,.273,6.317A3.985,3.985,0,0,1,114.433,111.669Z" transform="translate(-96.118 -76.417)"/>
        <path id="Trazado_715855" data-name="Trazado 715855" d="M125.4,186.649a9.872,9.872,0,0,0-6.882-7.8l-5.8-1.766a15.225,15.225,0,0,0-4.04-2.554l-.334-2.871a27.9,27.9,0,0,0,5.24-5.613,14.071,14.071,0,0,0,2.158-4.215,6.141,6.141,0,0,0,5.281-6.078,4.746,4.746,0,0,0-4.542-4.741,22.894,22.894,0,0,0-2.477-9.686,1.079,1.079,0,0,0-1.9,1.017,21.82,21.82,0,0,1,2.265,10.346c-.107,5.628.284,7.987-2.532,12.1-3.638,5.053-7.827,7.95-11.493,7.95-2.748,0-5.757-1.592-8.7-4.605a1.079,1.079,0,0,0-1.544,1.509,24.025,24.025,0,0,0,2.242,2.032l-.251,2.158a13.41,13.41,0,0,0-4.745,3.47l-5.163,1.558a9.869,9.869,0,0,0-6.9,7.809l-1.083,6.248a1.079,1.079,0,0,0,.879,1.248,1.135,1.135,0,0,0,1.248-.879l1.083-6.248a7.722,7.722,0,0,1,5.4-6.111l2.826-.853a12.459,12.459,0,0,0-.945,4.882,1.079,1.079,0,0,0,.62.977l5.173,2.434V193.1a1.079,1.079,0,1,0,2.159,0v-5.357l.916-7.838a11.487,11.487,0,0,0,6.126,2.2,1.153,1.153,0,0,0,1.14-1.015,1.079,1.079,0,0,0-1.015-1.14,9.336,9.336,0,0,1-5.95-2.607c.026-.2.465-3.99.5-4.274a10.706,10.706,0,0,0,11.986-.017c.133,1.137.364,3.142.5,4.29a9.31,9.31,0,0,1-2.607,1.781,1.079,1.079,0,0,0-.534,1.43,1.13,1.13,0,0,0,1.43.534,11.425,11.425,0,0,0,2.01-1.181l.915,7.837V193.1a1.079,1.079,0,1,0,2.159,0V188.36l5.173-2.434a1.079,1.079,0,0,0,.62-.977,11.041,11.041,0,0,0-1.048-4.933l2.943.9a7.724,7.724,0,0,1,5.384,6.106l1.086,6.262a1.152,1.152,0,0,0,1.248.879,1.079,1.079,0,0,0,.879-1.248Zm-6.541-30.9a3.985,3.985,0,0,1-2.621,3.744,48.131,48.131,0,0,0,.28-6.319,2.586,2.586,0,0,1,2.341,2.576ZM88.739,178.985a10.777,10.777,0,0,1,3.036-2.579l-1.128,9.654-3.8-1.787A9.208,9.208,0,0,1,88.739,178.985Zm21.277,7.075-1.048-8.975c3.886,2.142,4.728,4.855,4.848,7.187Z" transform="translate(-63.492 -120.497)"/>
        <path id="Trazado_715862" data-name="Trazado 715862" d="M16.664,24.665a1.8,1.8,0,0,0,1.8-1.8V20.385a.363.363,0,0,1,.364-.361h1.732A3.246,3.246,0,0,0,23.8,16.783V14.367a1.079,1.079,0,0,0-2.159,0v2.416a1.085,1.085,0,0,1-1.085,1.082H18.829a2.524,2.524,0,0,0-2.522,2.52v1.778l-5.281-3.819a2.509,2.509,0,0,0-1.479-.478h-6.3a1.085,1.085,0,0,1-1.085-1.082V3.24A1.085,1.085,0,0,1,3.244,2.159H20.561A1.085,1.085,0,0,1,21.646,3.24V9.35a1.079,1.079,0,1,0,2.159,0V3.24A3.246,3.246,0,0,0,20.561,0H3.244A3.246,3.246,0,0,0,0,3.24V16.784a3.246,3.246,0,0,0,3.244,3.241h6.3a.364.364,0,0,1,.214.069l5.848,4.229a1.8,1.8,0,0,0,1.055.343Z" transform="translate(0 0)"/>
        <path id="Trazado_715863" data-name="Trazado 715863" d="M54.906,33.763a1.079,1.079,0,1,0,0-2.159H51.665V30.8a1.079,1.079,0,1,0-2.159,0V31.6H46.264a1.079,1.079,0,1,0,0,2.159h1.152a10.349,10.349,0,0,0,1.709,3.589,8.3,8.3,0,0,1-2.1,1.344l-.964.429A1.079,1.079,0,1,0,46.94,41.1l.964-.429a10.46,10.46,0,0,0,2.682-1.723,10.464,10.464,0,0,0,2.682,1.723l.964.429a1.079,1.079,0,0,0,.877-1.972l-.964-.429a8.3,8.3,0,0,1-2.1-1.344,10.348,10.348,0,0,0,1.709-3.589Zm-4.321,1.9a8.193,8.193,0,0,1-.917-1.9H51.5A8.187,8.187,0,0,1,50.585,35.667Z" transform="translate(-38.683 -25.442)"/>
        <path id="Trazado_715864" data-name="Trazado 715864" d="M367.136,0H349.819a3.246,3.246,0,0,0-3.244,3.24V16.784a3.246,3.246,0,0,0,3.244,3.241h1.732a.363.363,0,0,1,.364.361v2.479a1.8,1.8,0,0,0,2.856,1.458l5.848-4.229a.364.364,0,0,1,.214-.069h6.3a3.246,3.246,0,0,0,3.244-3.241V3.24A3.246,3.246,0,0,0,367.136,0Zm1.085,16.784a1.085,1.085,0,0,1-1.085,1.082h-6.3a2.509,2.509,0,0,0-1.479.479l-5.281,3.819V20.385a2.524,2.524,0,0,0-2.522-2.52h-1.732a1.085,1.085,0,0,1-1.085-1.082V3.24a1.085,1.085,0,0,1,1.085-1.082h17.317a1.085,1.085,0,0,1,1.085,1.082V16.784Z" transform="translate(-296.702 0)"/>
        <path id="Trazado_715865" data-name="Trazado 715865" d="M402.06,30.415l-.01-.025a1.287,1.287,0,0,0-1.194-.8h0a1.287,1.287,0,0,0-1.194.8l-.012.029-3.485,9.218a1.079,1.079,0,1,0,2.019.763l.6-1.6h4.161l.611,1.6a1.079,1.079,0,1,0,2.017-.769ZM399.6,36.643l1.255-3.32,1.267,3.32Z" transform="translate(-339.096 -25.331)"/>
      </g>
    </g>
  </g>
</svg>
